<?xml version="1.0" encoding="UTF-8" standalone="no"?>
<!DOCTYPE svg PUBLIC "-//W3C//DTD SVG 1.1//EN" "http://www.w3.org/Graphics/SVG/1.1/DTD/svg11.dtd">
<svg width="100%" height="100%" viewBox="0 0 20 20" version="1.1" xmlns="http://www.w3.org/2000/svg" xmlns:xlink="http://www.w3.org/1999/xlink" xml:space="preserve" xmlns:serif="http://www.serif.com/" style="fill-rule:evenodd;clip-rule:evenodd;stroke-linejoin:round;stroke-miterlimit:2;">
    <g transform="matrix(2.75319e-19,-0.00449629,-0.00449629,-2.75319e-19,24.096,20.3731)">
        <g id="Dual-blade" serif:id="Dual blade">
            <path d="M2010,5296C1830,5199 1674,5082 1524,4929C1366,4768 1105,4475 1050,4396C1006,4333 894,4132 857,4049C844,4019 824,3975 812,3950C721,3752 675,3600 630,3338C605,3193 601,2883 624,2804C632,2777 641,2735 645,2710C668,2543 807,2140 921,1910C1029,1693 1113,1573 1256,1428C1383,1298 1566,1145 1683,1068C1723,1043 1781,1004 1813,983C1926,909 1931,907 1942,918C1950,926 1939,949 1907,998C1820,1130 1704,1368 1669,1485C1645,1564 1620,1720 1620,1789C1620,1873 1641,1996 1668,2072C1688,2131 1681,2140 1609,2140C1504,2140 1346,2188 1280,2239C1239,2271 1264,2274 1352,2246C1398,2232 1478,2214 1530,2206C1728,2177 1731,2178 1723,2303L1717,2395L1660,2450C1600,2508 1573,2562 1551,2671C1538,2735 1520,2755 1470,2764C1413,2774 1167,2880 1155,2900C1152,2904 1138,2911 1124,2914C1088,2924 957,3013 938,3042C930,3054 919,3089 913,3119C896,3207 921,3265 1012,3343C1110,3427 1158,3446 1311,3459C1385,3466 1477,3477 1515,3485C1554,3492 1628,3503 1680,3510C1732,3516 1783,3524 1793,3526C1822,3535 1812,3564 1770,3590C1721,3620 1689,3664 1655,3747C1620,3834 1620,3900 1654,4055C1670,4127 1683,4194 1684,4205C1686,4242 1655,4231 1597,4174C1554,4132 1536,4120 1528,4128C1500,4156 1591,4264 1675,4304C1717,4324 1731,4336 1735,4357C1738,4373 1745,4400 1750,4419C1755,4438 1757,4457 1754,4462C1745,4477 1711,4470 1668,4445C1612,4412 1474,4341 1445,4330L1421,4321L1441,4355C1479,4418 1548,4471 1676,4531C1801,4590 1822,4608 1836,4665C1849,4717 1928,4927 1956,4982C1971,5011 1991,5059 2001,5089C2025,5157 2062,5222 2111,5282C2150,5329 2161,5361 2138,5359C2131,5358 2073,5330 2010,5296Z" style="fill:rgb(51,51,51);fill-rule:nonzero;"/>
            <path d="M2475,5340C2472,5335 2484,5314 2503,5293C2555,5234 2573,5203 2624,5085C2651,5025 2683,4951 2696,4922C2710,4893 2739,4816 2761,4752C2783,4688 2808,4624 2816,4611C2825,4598 2874,4568 2928,4542C3069,4476 3115,4445 3166,4383C3190,4352 3208,4325 3206,4322C3200,4316 3018,4405 2965,4440C2914,4474 2896,4480 2880,4470C2869,4463 2869,4451 2881,4399C2896,4339 2899,4334 2946,4307C3028,4259 3123,4156 3103,4136C3089,4122 3071,4132 3021,4180C2967,4232 2940,4243 2940,4212C2940,4193 2984,3978 2999,3923C3010,3885 2983,3764 2951,3703C2929,3661 2882,3608 2844,3584C2819,3567 2811,3532 2833,3526C2839,3524 2886,3517 2935,3510C2985,3504 3068,3492 3120,3485C3172,3477 3265,3466 3325,3460C3415,3451 3446,3443 3495,3418C3578,3375 3662,3299 3695,3239C3721,3190 3722,3184 3712,3124C3699,3048 3682,3023 3610,2975C3508,2907 3222,2774 3157,2763C3105,2755 3084,2730 3072,2660C3057,2578 3009,2489 2957,2446C2915,2412 2912,2406 2906,2347C2903,2313 2897,2271 2894,2254C2885,2207 2908,2190 2978,2194C3077,2200 3182,2218 3265,2244C3349,2271 3381,2266 3333,2233C3266,2185 3128,2144 3012,2136C2942,2131 2932,2121 2954,2075C2971,2041 2978,2004 2999,1859C3013,1759 2990,1602 2938,1440C2913,1363 2803,1139 2731,1020C2659,901 2662,885 2746,945C2773,964 2832,1000 2876,1026C3058,1130 3410,1442 3513,1590C3700,1859 3779,2033 3935,2520C3974,2640 3991,2752 4000,2955C4012,3212 4005,3332 3964,3510C3884,3867 3657,4326 3455,4539C3416,4581 3355,4649 3320,4690C3286,4731 3191,4833 3111,4915C2924,5108 2807,5196 2599,5301C2499,5352 2485,5356 2475,5340Z" style="fill:rgb(51,51,51);fill-rule:nonzero;"/>
            <path d="M1280,3394C1190,3375 1082,3318 1025,3260C979,3213 976,3208 975,3153C974,3121 978,3086 983,3075C995,3050 1051,2990 1062,2990C1067,2990 1093,2974 1120,2955C1147,2936 1172,2920 1175,2920C1178,2920 1225,2902 1280,2880C1446,2815 1575,2782 1696,2774C1795,2768 1812,2764 1880,2730C1988,2675 2063,2667 2044,2712C2041,2719 2007,2748 1968,2775C1883,2835 1830,2893 1797,2963C1759,3044 1752,3069 1739,3166C1730,3238 1730,3269 1740,3310C1754,3370 1750,3378 1688,3399C1614,3423 1590,3389 1575,3240C1570,3182 1561,3135 1555,3136C1530,3139 1515,3197 1514,3293C1514,3367 1510,3394 1499,3401C1478,3414 1354,3410 1280,3394Z" style="fill:rgb(51,51,51);fill-rule:nonzero;"/>
            <path d="M3123,3403C3116,3398 3112,3365 3113,3310C3115,3219 3098,3140 3076,3140C3056,3140 3050,3163 3050,3239C3050,3288 3044,3317 3028,3350C3003,3399 2989,3405 2924,3395C2875,3388 2861,3365 2881,3328C2911,3273 2877,3047 2823,2949C2791,2890 2703,2799 2633,2752C2601,2731 2580,2710 2580,2699C2580,2668 2628,2676 2726,2723C2807,2763 2824,2767 2915,2774C2970,2777 3031,2785 3050,2790C3069,2795 3114,2806 3150,2815C3219,2832 3289,2856 3330,2877C3344,2884 3360,2890 3366,2890C3380,2890 3452,2924 3501,2953C3579,3000 3596,3013 3623,3048C3646,3078 3650,3093 3650,3146C3650,3199 3646,3213 3624,3240C3577,3295 3473,3359 3388,3385C3329,3403 3141,3416 3123,3403Z" style="fill:rgb(51,51,51);fill-rule:nonzero;"/>
        </g>
    </g>
</svg>
