<?xml version="1.0" encoding="UTF-8" standalone="no"?>
<!DOCTYPE svg PUBLIC "-//W3C//DTD SVG 1.1//EN" "http://www.w3.org/Graphics/SVG/1.1/DTD/svg11.dtd">
<svg width="100%" height="100%" viewBox="0 0 20 20" version="1.1" xmlns="http://www.w3.org/2000/svg" xmlns:xlink="http://www.w3.org/1999/xlink" xml:space="preserve" xmlns:serif="http://www.serif.com/" style="fill-rule:evenodd;clip-rule:evenodd;stroke-linejoin:round;stroke-miterlimit:2;">
    <g transform="matrix(0.928962,0,0,0.928962,0.710384,0.710384)">
        <g id="Dygorax">
            <g transform="matrix(1,0,0,1,11.9224,3.08842)">
                <path d="M0,2.564C-0.001,2.653 0,2.758 0.008,2.863C0.008,2.872 0.034,2.897 0.05,2.9L0.058,2.901C0.154,2.915 0.244,2.929 0.319,2.859C0.365,2.815 0.403,2.779 0.436,2.737C0.522,2.631 0.636,2.635 0.728,2.65C0.764,2.656 0.797,2.671 0.83,2.686C0.849,2.695 0.868,2.704 0.888,2.711C0.991,2.747 0.994,2.745 1.095,2.629L1.1,2.624C1.332,2.36 1.544,2.073 1.748,1.795C1.841,1.668 1.938,1.537 2.035,1.41C2.183,1.217 2.299,1.052 2.402,0.891C2.533,0.686 2.714,0.582 2.939,0.582L2.951,0.582C3.03,0.584 3.096,0.613 3.154,0.671C3.176,0.694 3.186,0.73 3.189,0.757C3.191,0.783 3.184,0.807 3.168,0.825C3.151,0.846 3.125,0.858 3.093,0.86C2.998,0.867 2.913,0.868 2.833,0.863C2.734,0.856 2.662,0.898 2.603,0.994C2.424,1.28 2.221,1.542 1.969,1.848C1.87,1.968 1.78,2.098 1.692,2.224C1.572,2.397 1.448,2.576 1.298,2.733C1.273,2.76 1.255,2.8 1.239,2.838C1.233,2.851 1.227,2.864 1.221,2.877C1.2,2.921 1.212,2.959 1.261,3.003C1.265,3.006 1.269,3.01 1.273,3.014C1.279,3.019 1.284,3.025 1.292,3.03C1.311,3.044 1.332,3.057 1.352,3.07L1.362,3.076C1.551,3.194 1.551,3.194 1.69,3.049C1.908,2.822 2.092,2.562 2.271,2.312C2.336,2.22 2.402,2.129 2.469,2.038C2.569,1.902 2.679,1.761 2.823,1.659C2.889,1.612 2.972,1.589 3.051,1.566C3.082,1.557 3.112,1.549 3.142,1.539C3.186,1.525 3.288,1.585 3.32,1.622C3.336,1.64 3.341,1.656 3.334,1.67C3.309,1.721 3.264,1.762 3.223,1.796C3.197,1.817 3.151,1.815 3.127,1.813C3.011,1.799 2.922,1.838 2.842,1.933C2.813,1.968 2.781,2 2.75,2.032C2.712,2.071 2.672,2.112 2.639,2.155C2.42,2.441 2.207,2.723 1.982,3.021L1.744,3.336C1.776,3.367 1.808,3.398 1.839,3.429C1.915,3.504 1.992,3.582 2.079,3.642C2.387,3.855 2.683,4.094 2.969,4.324C3.043,4.384 3.117,4.444 3.191,4.503C3.228,4.533 3.265,4.546 3.292,4.539C3.313,4.535 3.329,4.52 3.341,4.495C3.402,4.371 3.493,4.272 3.581,4.175C3.616,4.137 3.652,4.097 3.686,4.056C3.755,3.974 3.815,3.881 3.874,3.792L3.905,3.744C3.917,3.726 3.923,3.695 3.918,3.683C3.816,3.448 3.831,3.204 3.845,2.967C3.851,2.879 3.857,2.788 3.856,2.7C3.848,1.672 3.849,0.627 3.85,-0.383C3.851,-0.763 3.851,-1.143 3.851,-1.523L3.851,-1.601C3.852,-1.69 3.852,-1.778 3.85,-1.867C3.849,-1.958 3.827,-1.98 3.744,-1.98C2.968,-1.982 2.193,-1.981 1.417,-1.982C1.325,-1.982 1.302,-1.965 1.301,-1.836C1.3,-1.308 1.3,-0.685 1.302,-0.069C1.302,-0.006 1.302,0.072 1.328,0.131C1.361,0.208 1.381,0.268 1.335,0.347C1.322,0.369 1.318,0.397 1.313,0.427C1.308,0.454 1.304,0.481 1.292,0.507C1.284,0.525 1.277,0.543 1.27,0.561C1.229,0.661 1.187,0.764 1.064,0.806L0.37,1.5C0.333,1.595 0.26,1.663 0.189,1.73C0.112,1.802 0.039,1.87 0.018,1.967C-0.012,2.101 -0.008,2.247 -0.003,2.388C-0.001,2.446 0,2.506 0,2.564" style="fill:rgb(199,112,39);fill-rule:nonzero;"/>
            </g>
            <g transform="matrix(1,0,0,1,13.9174,9.20542)">
                <path d="M0,-0.698C-0.089,-0.736 -0.141,-0.759 -0.183,-0.759C-0.237,-0.759 -0.275,-0.721 -0.356,-0.631C-0.479,-0.494 -0.601,-0.35 -0.717,-0.211C-0.761,-0.158 -0.805,-0.106 -0.849,-0.054C-0.858,-0.043 -0.862,-0.034 -0.862,-0.031L-0.861,-0.022C-0.86,0 -0.858,0.025 -0.848,0.037C-0.837,0.051 -0.808,0.061 -0.798,0.059C-0.535,-0.029 -0.283,-0.157 -0.04,-0.28L0.035,-0.318C0.125,-0.364 0.134,-0.449 0.126,-0.512C0.129,-0.599 0.114,-0.649 0.019,-0.69L0,-0.698Z" style="fill:rgb(161,152,129);fill-rule:nonzero;"/>
            </g>
            <g transform="matrix(1,0,0,1,12.3684,0.724417)">
                <path d="M0,3.284L0.006,3.431C0.007,3.432 0.007,3.432 0.008,3.433C0.062,3.381 0.115,3.33 0.168,3.278C0.275,3.173 0.386,3.066 0.5,2.965C0.602,2.875 0.643,2.769 0.641,2.598C0.635,2.056 0.635,1.504 0.636,0.971L0.636,0.593C0.64,0.417 0.643,0.251 0.425,0.184L0.418,0.182L0.415,0.177C0.398,0.153 0.381,0.13 0.365,0.106C0.326,0.05 0.285,-0.009 0.242,-0.063C0.219,-0.092 0.183,-0.112 0.147,-0.131C0.116,-0.149 0.073,-0.146 0.037,-0.125C0.005,-0.106 -0.015,-0.077 -0.015,-0.048C-0.016,0.399 -0.016,0.846 -0.016,1.293L-0.017,1.696L-0.017,1.998C-0.017,2.246 -0.018,2.503 -0.016,2.755C-0.014,2.931 -0.007,3.11 0,3.284" style="fill:rgb(113,102,84);fill-rule:nonzero;"/>
            </g>
            <g transform="matrix(1,0,0,1,13.0984,10.8174)">
                <path d="M0,0.386C-0.115,0.386 -0.234,0.386 -0.351,0.389C-0.358,0.391 -0.379,0.41 -0.38,0.419C-0.377,0.432 -0.36,0.455 -0.34,0.467C-0.305,0.489 -0.268,0.51 -0.234,0.512C-0.095,0.522 0.044,0.497 0.178,0.472C0.303,0.449 0.431,0.425 0.563,0.429L0.565,0.429C0.614,0.429 0.676,0.36 0.681,0.298C0.691,0.19 0.691,0.072 0.681,-0.084C0.679,-0.109 0.65,-0.133 0.61,-0.133L0.607,-0.133C0.525,-0.131 0.442,-0.132 0.362,-0.132C0.329,-0.132 0.296,-0.133 0.263,-0.133L0.244,-0.134C0.172,-0.134 0.101,-0.135 0.028,-0.136C-0.022,-0.136 -0.073,-0.135 -0.123,-0.133C-0.227,-0.13 -0.295,-0.056 -0.313,0.077C-0.318,0.109 -0.312,0.135 -0.298,0.152C-0.286,0.165 -0.269,0.172 -0.246,0.173C-0.115,0.175 0.016,0.176 0.147,0.178L0.268,0.179C0.326,0.18 0.363,0.209 0.375,0.263C0.38,0.29 0.375,0.316 0.358,0.338C0.336,0.366 0.298,0.383 0.25,0.384C0.207,0.386 0.164,0.386 0.121,0.386L0,0.386Z" style="fill:rgb(199,112,39);fill-rule:nonzero;"/>
            </g>
            <g transform="matrix(1,0,0,1,12.4424,8.73742)">
                <path d="M0,3.254C-0.006,3.296 0,3.331 0.019,3.352C0.033,3.369 0.055,3.378 0.083,3.378C0.194,3.379 0.304,3.379 0.414,3.379C0.464,3.379 0.514,3.378 0.563,3.378C0.719,3.378 0.876,3.379 1.032,3.383L1.046,3.383C1.148,3.383 1.229,3.353 1.33,3.277C1.54,3.119 1.769,2.997 2.026,2.866C2.254,2.75 2.371,2.559 2.373,2.3C2.373,2.214 2.378,2.127 2.382,2.043L2.385,1.998C2.385,1.976 2.403,1.952 2.432,1.935C2.461,1.918 2.491,1.913 2.511,1.923C2.547,1.94 2.57,1.96 2.58,1.982C2.59,2.002 2.59,2.025 2.59,2.047C2.589,2.056 2.589,2.065 2.59,2.074C2.605,2.258 2.605,2.258 2.751,2.258C2.931,2.258 3.111,2.258 3.291,2.257C3.622,2.256 3.965,2.255 4.303,2.259L4.314,2.259C4.585,2.259 4.755,2.147 4.85,1.906C4.875,1.843 4.901,1.779 4.928,1.716C4.966,1.625 5.005,1.531 5.039,1.438C5.108,1.247 5.242,1.109 5.396,1.069C5.432,1.059 5.469,1.043 5.509,1.026C5.624,0.977 5.755,0.92 5.897,1.028C5.927,1.051 5.983,1.047 6.037,1.045C6.056,1.044 6.075,1.043 6.092,1.043L6.094,1.043C6.282,1.044 6.47,1.045 6.658,1.044L7.097,1.045C7.294,1.043 7.492,1.044 7.689,1.045L7.69,1.045C7.754,1.045 7.796,1.031 7.833,0.997C7.854,0.978 7.865,0.952 7.863,0.938C7.862,0.932 7.86,0.93 7.858,0.929C7.84,0.92 7.822,0.91 7.805,0.901C7.761,0.877 7.716,0.852 7.67,0.833C7.342,0.701 6.986,0.55 6.581,0.372C6.476,0.326 6.367,0.282 6.261,0.239C6.032,0.146 5.795,0.05 5.576,-0.077C5.492,-0.126 5.426,-0.129 5.355,-0.09C5.347,-0.085 5.34,-0.079 5.332,-0.074C5.314,-0.061 5.296,-0.047 5.274,-0.044C5.107,-0.025 4.953,0.043 4.804,0.109C4.688,0.161 4.567,0.214 4.44,0.245C4.36,0.264 4.285,0.336 4.301,0.453C4.309,0.516 4.309,0.586 4.302,0.673C4.29,0.81 4.297,0.966 4.447,1.075C4.458,1.083 4.458,1.098 4.458,1.103C4.459,1.122 4.452,1.158 4.436,1.173C4.403,1.201 4.344,1.245 4.313,1.227C4.142,1.124 4.042,0.963 4.022,0.762C4.014,0.685 4.015,0.607 4.016,0.532C4.016,0.48 4.016,0.426 4.014,0.373C4.013,0.355 4.006,0.34 3.994,0.329C3.982,0.319 3.966,0.314 3.951,0.316C3.787,0.332 3.652,0.394 3.55,0.5C3.538,0.513 3.528,0.539 3.528,0.564L3.528,0.862C3.528,0.99 3.528,1.123 3.526,1.253C3.524,1.337 3.555,1.401 3.626,1.461C3.649,1.481 3.671,1.502 3.693,1.523C3.712,1.542 3.732,1.561 3.752,1.579C3.773,1.596 3.783,1.613 3.783,1.632C3.782,1.649 3.774,1.664 3.756,1.679L3.744,1.69C3.726,1.704 3.709,1.719 3.693,1.735C3.654,1.773 3.623,1.751 3.596,1.731C3.322,1.531 3.207,1.285 3.242,0.98C3.248,0.929 3.246,0.876 3.245,0.824C3.244,0.805 3.243,0.786 3.243,0.767C3.242,0.688 3.241,0.615 3.224,0.604C3.206,0.594 3.14,0.625 3.07,0.658C3.015,0.685 2.96,0.713 2.906,0.741C2.786,0.802 2.661,0.865 2.533,0.912C2.091,1.076 1.51,1.302 0.948,1.6C0.938,1.606 0.926,1.608 0.916,1.611C0.905,1.614 0.891,1.618 0.888,1.622C0.887,1.625 0.887,1.631 0.891,1.642C0.895,1.648 0.923,1.659 0.946,1.66C1.161,1.662 1.377,1.661 1.592,1.664C1.616,1.664 1.637,1.664 1.659,1.663C1.764,1.659 1.881,1.654 1.957,1.777L1.962,1.784L1.96,1.792C1.923,1.944 1.812,1.944 1.713,1.945C1.686,1.945 1.66,1.945 1.635,1.949C1.596,1.953 1.573,1.973 1.561,2.01C1.556,2.026 1.556,2.046 1.557,2.066L1.557,2.091C1.557,2.116 1.556,2.141 1.555,2.166C1.554,2.226 1.552,2.288 1.556,2.347C1.565,2.464 1.509,2.539 1.435,2.624C1.312,2.766 1.169,2.824 0.965,2.81C0.804,2.8 0.638,2.802 0.478,2.805C0.425,2.806 0.373,2.807 0.32,2.807C0.173,2.809 0.114,2.852 0.096,2.974C0.088,3.029 0.066,3.077 0.046,3.122C0.026,3.166 0.007,3.208 0,3.254" style="fill:rgb(135,115,127);fill-rule:nonzero;"/>
            </g>
            <g transform="matrix(1,0,0,1,10.8104,7.47342)">
                <path d="M0,0.791C0.001,0.801 0.004,0.814 0.008,0.817C0.009,0.817 0.018,0.82 0.044,0.81C0.14,0.771 0.23,0.752 0.313,0.752C0.464,0.752 0.597,0.815 0.725,0.945C0.724,0.879 0.749,0.831 0.771,0.787C0.789,0.752 0.805,0.721 0.805,0.685C0.809,0.47 0.81,0.246 0.806,0C0.805,-0.056 0.722,-0.13 0.647,-0.142C0.573,-0.154 0.517,-0.133 0.474,-0.081C0.47,-0.075 0.465,-0.069 0.46,-0.064C0.447,-0.048 0.434,-0.033 0.427,-0.017C0.322,0.237 0.165,0.453 0.026,0.631C-0.006,0.671 -0.016,0.718 -0.003,0.774C-0.001,0.779 -0.001,0.785 0,0.791" style="fill:rgb(218,145,65);fill-rule:nonzero;"/>
            </g>
            <g transform="matrix(1,0,0,1,8.42036,7.33142)">
                <path d="M0,1.181L0.036,1.133C0.071,1.085 0.1,1.047 0.129,1.009C0.21,0.903 0.322,0.896 0.413,0.903C0.432,0.904 0.45,0.905 0.468,0.905C0.535,0.905 0.603,0.906 0.669,0.953C0.683,0.963 0.69,0.964 0.691,0.963C0.696,0.961 0.7,0.944 0.703,0.915L0.704,0.907C0.709,0.857 0.706,0.819 0.693,0.796C0.534,0.511 0.389,0.261 0.25,0.031C0.241,0.015 0.195,0 0.156,0L0.154,0C0.055,0.002 -0.035,0.073 -0.037,0.151C-0.042,0.387 -0.042,0.577 -0.037,0.75C-0.037,0.782 -0.037,0.813 -0.038,0.845C-0.039,0.947 -0.041,1.053 0,1.181" style="fill:rgb(218,145,65);fill-rule:nonzero;"/>
            </g>
            <g transform="matrix(1,0,0,1,4.25936,1.71742)">
                <path d="M0,5.296C0.146,5.425 0.252,5.588 0.355,5.745C0.375,5.777 0.396,5.809 0.416,5.84C0.445,5.883 0.467,5.904 0.489,5.907C0.507,5.909 0.526,5.902 0.552,5.882C1.009,5.535 1.494,5.165 1.973,4.797C2.005,4.772 2.034,4.732 1.997,4.673C1.98,4.648 1.964,4.621 1.948,4.594C1.921,4.549 1.893,4.501 1.861,4.459C1.742,4.303 1.621,4.148 1.501,3.993C1.412,3.879 1.324,3.765 1.236,3.651C1.205,3.611 1.176,3.57 1.146,3.528C1.111,3.478 1.074,3.426 1.035,3.378C0.937,3.256 0.848,3.165 0.698,3.184C0.63,3.196 0.58,3.16 0.529,3.122C0.488,3.092 0.481,3.063 0.481,3.042C0.483,3.012 0.503,2.984 0.541,2.96L0.549,2.955C0.588,2.93 0.636,2.899 0.671,2.913C0.705,2.926 0.74,2.937 0.775,2.949C0.926,3 1.082,3.052 1.181,3.214C1.32,3.441 1.486,3.655 1.647,3.861C1.777,4.029 1.911,4.201 2.03,4.38C2.054,4.416 2.087,4.447 2.119,4.478C2.128,4.486 2.137,4.494 2.145,4.503C2.186,4.543 2.279,4.555 2.319,4.525C2.359,4.496 2.39,4.47 2.416,4.445C2.434,4.428 2.453,4.411 2.472,4.395C2.519,4.354 2.568,4.313 2.583,4.265C2.596,4.224 2.568,4.196 2.519,4.154C2.495,4.134 2.47,4.113 2.454,4.088C2.31,3.869 2.148,3.658 1.991,3.454C1.851,3.271 1.706,3.083 1.575,2.889C1.484,2.758 1.379,2.632 1.278,2.511C1.225,2.449 1.173,2.387 1.122,2.323C1.071,2.258 1.005,2.231 0.913,2.233L0.893,2.234C0.826,2.236 0.757,2.239 0.694,2.219C0.657,2.207 0.629,2.174 0.602,2.142C0.591,2.128 0.58,2.115 0.569,2.104L0.554,2.089L0.57,2.075C0.583,2.064 0.596,2.051 0.608,2.038C0.639,2.006 0.67,1.973 0.709,1.966C0.817,1.947 0.915,1.954 1.012,1.987C1.182,2.047 1.294,2.162 1.41,2.317C1.567,2.527 1.723,2.742 1.873,2.952C1.999,3.127 2.13,3.308 2.26,3.484C2.351,3.607 2.45,3.727 2.545,3.844C2.593,3.902 2.64,3.959 2.687,4.018C2.761,4.11 2.827,4.12 2.915,4.053C2.972,4.01 3.038,4.013 3.103,4.016C3.128,4.017 3.153,4.018 3.176,4.017C3.255,4.013 3.32,4.042 3.378,4.111L3.387,4.121C3.403,4.141 3.422,4.162 3.43,4.188C3.448,4.244 3.479,4.271 3.533,4.273C3.55,4.274 3.566,4.276 3.582,4.278C3.635,4.283 3.684,4.289 3.731,4.259C3.796,4.218 3.86,4.096 3.817,4.023C3.75,3.909 3.748,3.794 3.746,3.683C3.745,3.566 3.743,3.452 3.745,3.338C3.745,3.267 3.722,3.21 3.672,3.16C3.613,3.101 3.555,3.041 3.497,2.981C3.407,2.888 3.314,2.791 3.219,2.7C3.158,2.641 3.103,2.575 3.049,2.512C2.96,2.407 2.867,2.299 2.749,2.219C2.658,2.158 2.588,2.062 2.543,1.994C2.454,1.861 2.443,1.708 2.445,1.575C2.451,0.966 2.451,0.346 2.451,-0.254L2.452,-0.406C2.452,-0.612 2.452,-0.612 2.267,-0.612C1.621,-0.613 0.975,-0.612 0.329,-0.612L0.113,-0.612C0.073,-0.612 0.031,-0.609 -0.014,-0.605C-0.07,-0.601 -0.096,-0.572 -0.097,-0.514L-0.097,-0.453C-0.098,-0.431 -0.098,-0.407 -0.098,-0.385L-0.098,2.306L-0.101,2.306L-0.101,2.942C-0.101,3.617 -0.101,4.315 -0.103,5.001C-0.103,5.109 -0.095,5.212 0,5.296" style="fill:rgb(199,112,39);fill-rule:nonzero;"/>
            </g>
            <g transform="matrix(1,0,0,1,6.97736,1.24542)">
                <path d="M0,2.232C0.042,2.358 0.082,2.476 0.234,2.534C0.304,2.561 0.358,2.623 0.411,2.684C0.437,2.713 0.463,2.744 0.491,2.769C0.507,2.783 0.522,2.8 0.536,2.816C0.571,2.855 0.604,2.892 0.655,2.904C0.656,2.901 0.657,2.897 0.658,2.894C0.664,2.876 0.669,2.86 0.669,2.844C0.671,1.741 0.672,0.636 0.672,-0.468C0.672,-0.48 0.672,-0.491 0.673,-0.502C0.674,-0.534 0.675,-0.564 0.668,-0.593C0.66,-0.628 0.636,-0.648 0.596,-0.654C0.456,-0.672 0.367,-0.639 0.319,-0.547L0.316,-0.54C0.271,-0.452 0.224,-0.361 0.139,-0.302C0.026,-0.222 0.017,-0.117 0.018,0.023C0.021,0.532 0.021,1.081 0.017,1.701C0.017,1.725 0.019,1.749 0.02,1.773C0.024,1.864 0.029,1.957 -0.031,2.045C-0.045,2.067 -0.042,2.116 -0.031,2.146C-0.019,2.174 -0.01,2.203 0,2.232" style="fill:rgb(113,102,84);fill-rule:nonzero;"/>
            </g>
            <g transform="matrix(1,0,0,1,-0.410637,6.65942)">
                <path d="M0,0.826C0.2,0.903 0.407,0.982 0.612,1.058C0.677,1.082 0.744,1.103 0.81,1.124C0.876,1.145 0.944,1.166 1.011,1.191C1.096,1.222 1.181,1.258 1.264,1.293C1.424,1.36 1.59,1.43 1.758,1.471C1.939,1.515 2.112,1.584 2.279,1.651C2.368,1.686 2.461,1.723 2.554,1.756C2.663,1.795 2.776,1.83 2.885,1.865C3.133,1.942 3.388,2.022 3.624,2.147C3.719,2.197 3.812,2.182 3.901,2.161C3.91,2.159 3.92,2.153 3.93,2.146C3.946,2.136 3.965,2.123 3.99,2.123C4.001,2.123 4.012,2.125 4.024,2.131C4.135,2.177 4.249,2.22 4.359,2.262C4.586,2.349 4.821,2.44 5.038,2.556C5.362,2.729 5.705,2.872 6.037,3.011C6.102,3.038 6.168,3.066 6.233,3.093C6.619,3.255 6.993,3.444 7.341,3.624C7.407,3.658 7.476,3.701 7.558,3.76C7.735,3.886 7.789,4.082 7.841,4.272L7.879,4.409C7.958,4.7 8.041,5 8.143,5.288C8.159,5.33 8.17,5.377 8.18,5.423C8.206,5.535 8.23,5.64 8.315,5.696C8.398,5.751 8.503,5.741 8.615,5.731C8.665,5.726 8.718,5.72 8.772,5.723C8.806,5.723 8.829,5.706 8.845,5.667L8.852,5.649C8.893,5.547 8.948,5.447 9.002,5.352C9.05,5.269 9.119,5.2 9.161,5.115C9.202,5.032 9.147,4.674 9.303,4.686C9.332,4.688 9.356,4.71 9.37,4.735C9.418,4.827 9.433,4.941 9.478,5.036L9.496,5.075C9.516,5.118 9.573,5.118 9.629,5.119C9.681,5.119 9.699,5.089 9.705,5.064C9.715,5.023 9.731,4.985 9.746,4.948C9.768,4.895 9.789,4.844 9.795,4.785C9.818,4.559 9.868,4.531 10.073,4.507C10.081,4.506 10.089,4.506 10.098,4.506C10.104,4.506 10.11,4.507 10.117,4.506C10.217,4.494 10.227,4.485 10.227,4.399C10.227,4.197 10.228,3.994 10.228,3.792C10.229,3.534 10.229,3.276 10.23,3.01C10.23,2.956 10.23,2.895 10.253,2.845C10.27,2.808 10.336,2.789 10.379,2.789C10.42,2.789 10.488,2.809 10.505,2.846C10.525,2.895 10.525,2.95 10.525,3.003L10.525,3.022C10.526,3.242 10.526,3.462 10.527,3.682C10.527,3.922 10.528,4.161 10.529,4.402C10.529,4.487 10.537,4.503 10.639,4.505C10.739,4.507 10.842,4.509 10.923,4.609C10.982,4.684 11.05,4.769 11.038,4.892C11.034,4.936 11.039,4.982 11.043,5.028L11.047,5.06C11.048,5.07 11.056,5.082 11.07,5.093C11.095,5.113 11.133,5.123 11.159,5.12C11.234,5.111 11.331,5.039 11.336,4.991C11.348,4.881 11.31,4.705 11.399,4.622C11.583,4.448 11.553,4.869 11.562,4.932C11.581,5.059 11.673,5.118 11.755,5.209C11.819,5.28 11.897,5.505 11.901,5.603C11.904,5.656 11.907,5.69 11.943,5.706C11.984,5.725 12.04,5.725 12.092,5.724C12.11,5.725 12.128,5.724 12.146,5.725C12.181,5.726 12.217,5.726 12.252,5.725C12.289,5.724 12.325,5.724 12.371,5.726C12.444,5.726 12.494,5.688 12.544,5.599C12.551,5.586 12.559,5.572 12.567,5.559C12.596,5.511 12.625,5.462 12.627,5.415C12.631,5.26 12.684,5.118 12.735,4.981C12.766,4.897 12.799,4.809 12.819,4.721C12.853,4.572 12.9,4.423 12.945,4.279C12.959,4.238 12.971,4.197 12.984,4.155C13.029,4.011 13.18,3.783 13.265,3.734C13.33,3.697 13.395,3.658 13.46,3.619C13.623,3.521 13.793,3.419 13.968,3.336C14.28,3.19 14.605,3.058 14.919,2.931L15.057,2.874C15.111,2.853 15.164,2.832 15.217,2.811C15.384,2.745 15.556,2.678 15.715,2.591C16.015,2.426 16.294,2.302 16.567,2.211C16.59,2.204 16.613,2.194 16.636,2.185C16.738,2.145 16.853,2.099 16.976,2.176C16.998,2.19 17.052,2.188 17.082,2.172C17.227,2.097 17.385,2.05 17.537,2.004C17.663,1.966 17.793,1.928 17.915,1.873C18.22,1.735 18.54,1.626 18.851,1.52C18.948,1.487 19.045,1.454 19.143,1.42C19.342,1.351 19.543,1.276 19.738,1.205C20.126,1.061 20.528,0.912 20.932,0.794C21.002,0.773 21.077,0.736 21.152,0.683C21.164,0.675 21.168,0.64 21.17,0.614C21.171,0.602 21.173,0.59 21.174,0.579C21.178,0.558 21.173,0.535 21.16,0.519C21.152,0.509 21.142,0.504 21.133,0.503C21.033,0.499 20.937,0.475 20.843,0.451C20.721,0.42 20.595,0.388 20.465,0.402C20.369,0.413 20.27,0.417 20.201,0.378C20.112,0.328 20.021,0.326 19.926,0.325C19.895,0.324 19.864,0.323 19.833,0.321C19.799,0.319 19.763,0.321 19.728,0.323C19.657,0.328 19.583,0.332 19.527,0.3C19.401,0.229 19.274,0.231 19.139,0.234C19.089,0.235 19.039,0.236 18.988,0.232C18.845,0.223 18.77,0.219 18.742,0.245C18.716,0.269 18.717,0.329 18.717,0.437L18.717,0.473C18.718,0.501 18.717,0.529 18.716,0.556C18.715,0.614 18.713,0.673 18.719,0.73C18.737,0.918 18.652,1.069 18.577,1.179C18.559,1.205 18.534,1.225 18.509,1.242C18.461,1.275 18.407,1.273 18.37,1.235C18.348,1.213 18.339,1.171 18.342,1.143C18.344,1.122 18.356,1.105 18.366,1.089C18.372,1.08 18.377,1.072 18.381,1.063C18.394,1.036 18.409,1.008 18.424,0.981C18.458,0.919 18.49,0.861 18.495,0.8C18.509,0.641 18.504,0.476 18.499,0.318C18.497,0.278 18.496,0.239 18.495,0.2C18.495,0.188 18.471,0.161 18.459,0.159C18.408,0.149 18.356,0.146 18.304,0.143C18.202,0.137 18.096,0.13 17.995,0.078C17.988,0.074 17.982,0.074 17.974,0.079C17.959,0.088 17.947,0.113 17.947,0.137C17.946,0.212 17.944,0.287 17.943,0.362C17.939,0.556 17.935,0.758 17.944,0.954C17.955,1.193 17.867,1.395 17.676,1.572C17.653,1.594 17.618,1.608 17.588,1.608C17.558,1.608 17.529,1.589 17.505,1.574C17.488,1.563 17.478,1.532 17.485,1.513C17.488,1.505 17.491,1.497 17.494,1.489C17.505,1.456 17.517,1.421 17.541,1.396C17.681,1.245 17.742,1.071 17.728,0.864C17.72,0.765 17.722,0.663 17.723,0.565C17.725,0.506 17.725,0.447 17.725,0.389C17.724,0.362 17.726,0.334 17.727,0.306C17.73,0.233 17.734,0.157 17.706,0.103C17.675,0.041 17.606,0.047 17.532,0.053C17.503,0.055 17.472,0.058 17.445,0.056C17.387,0.051 17.336,0.03 17.286,0.009C17.231,-0.014 17.179,-0.035 17.12,-0.037C17.048,-0.038 16.968,-0.124 16.964,-0.205L16.961,-0.262C16.939,-0.629 16.916,-1.009 17.275,-1.278C17.32,-1.312 17.358,-1.358 17.377,-1.402C17.387,-1.426 17.399,-1.45 17.41,-1.473C17.447,-1.549 17.483,-1.62 17.474,-1.713C17.466,-1.8 17.47,-1.889 17.474,-1.976C17.479,-2.109 17.484,-2.235 17.451,-2.353C17.41,-2.501 17.403,-2.648 17.396,-2.791C17.392,-2.87 17.389,-2.952 17.379,-3.032C17.376,-3.053 17.368,-3.075 17.359,-3.098C17.352,-3.115 17.345,-3.132 17.341,-3.149C17.266,-3.423 17.14,-3.69 16.964,-3.941C16.846,-4.109 16.761,-4.275 16.71,-4.435C16.685,-4.516 16.648,-4.592 16.612,-4.666C16.575,-4.741 16.537,-4.82 16.512,-4.903C16.511,-4.905 16.507,-4.909 16.5,-4.909C16.49,-4.901 16.478,-4.889 16.478,-4.882C16.471,-4.815 16.471,-4.746 16.47,-4.669L16.47,-2.954C16.47,-2.954 16.47,-2.402 16.476,-2.402L16.476,-2.383C16.476,-2.178 16.476,-1.973 16.475,-1.769C16.475,-1.164 16.474,-0.54 16.48,0.075C16.481,0.219 16.426,0.331 16.364,0.444C16.338,0.49 16.299,0.528 16.262,0.565C16.238,0.589 16.213,0.614 16.192,0.64C16.171,0.667 16.149,0.695 16.126,0.723C16.043,0.827 15.957,0.934 15.889,1.049C15.859,1.098 15.853,1.157 15.848,1.218C15.842,1.284 15.835,1.352 15.8,1.417C15.778,1.457 15.779,1.508 15.78,1.561C15.781,1.635 15.782,1.717 15.723,1.786C15.674,1.844 15.607,1.858 15.542,1.87C15.48,1.883 15.422,1.895 15.382,1.945C15.373,1.957 15.359,1.958 15.348,1.959C15.344,1.959 15.337,1.96 15.335,1.961C15.083,2.087 14.831,2.214 14.579,2.341C13.944,2.661 13.288,2.991 12.638,3.307C12.419,3.413 12.28,3.501 12.328,3.747C12.333,3.77 12.329,3.792 12.316,3.811C12.3,3.833 12.273,3.848 12.239,3.853C12.2,3.857 12.175,3.846 12.161,3.835C12.142,3.819 12.13,3.795 12.128,3.768C12.12,3.655 12.12,3.54 12.121,3.422C12.121,3.291 12.132,3.282 12.254,3.228L12.289,3.213C12.611,3.068 12.933,2.91 13.206,2.774C13.225,2.765 13.245,2.719 13.245,2.684C13.251,2.387 13.25,2.087 13.25,1.822C13.249,1.687 13.246,1.549 13.243,1.416L13.243,1.392C13.242,1.388 13.232,1.377 13.211,1.367C13.189,1.357 13.171,1.356 13.167,1.358C13.16,1.363 13.151,1.368 13.143,1.373C13.127,1.382 13.112,1.391 13.1,1.402C12.891,1.597 12.741,1.842 12.595,2.078C12.544,2.162 12.491,2.248 12.436,2.331C12.415,2.363 12.427,2.39 12.449,2.43C12.456,2.443 12.463,2.455 12.469,2.469C12.517,2.583 12.469,2.798 12.378,2.88C12.373,2.884 12.37,2.887 12.368,2.889C12.365,2.895 12.36,2.899 12.353,2.901L12.339,2.904L12.332,2.891C12.329,2.884 12.329,2.879 12.324,2.87C12.301,2.863 12.279,2.844 12.263,2.815C12.245,2.782 12.239,2.745 12.247,2.716C12.252,2.702 12.258,2.687 12.265,2.67C12.273,2.653 12.285,2.624 12.283,2.616C12.237,2.558 12.192,2.497 12.147,2.437C11.981,2.216 11.81,1.988 11.59,1.809C11.575,1.797 11.549,1.79 11.522,1.794C11.496,1.797 11.474,1.808 11.462,1.824C11.423,1.874 11.386,1.927 11.349,1.978C11.313,2.029 11.276,2.082 11.231,2.14C11.211,2.168 11.177,2.213 11.115,2.187C11.084,2.174 11.047,2.127 11.035,2.085C11.026,2.056 11.033,2.038 11.039,2.028C11.094,1.951 11.101,1.883 11.062,1.809C11.056,1.799 11.05,1.789 11.044,1.779C11.025,1.748 11.005,1.716 11.008,1.683C11.019,1.588 10.988,1.504 10.955,1.416C10.934,1.358 10.912,1.297 10.903,1.234C10.893,1.172 10.862,1.109 10.833,1.05C10.799,0.983 10.765,0.913 10.758,0.841C10.75,0.76 10.726,0.683 10.702,0.609C10.68,0.538 10.657,0.464 10.648,0.388C10.643,0.342 10.611,0.321 10.539,0.316C10.485,0.312 10.43,0.313 10.369,0.313C10.165,0.314 10.136,0.341 10.089,0.57C10.077,0.63 10.065,0.684 10.047,0.736C9.971,0.941 9.91,1.155 9.852,1.362C9.805,1.526 9.756,1.696 9.701,1.86C9.69,1.895 9.697,1.911 9.707,1.937C9.71,1.942 9.713,1.948 9.715,1.955C9.733,2.002 9.743,2.044 9.746,2.083C9.748,2.114 9.735,2.152 9.715,2.174C9.695,2.194 9.641,2.184 9.622,2.167L9.608,2.155C9.506,2.063 9.401,1.968 9.352,1.827C9.35,1.821 9.338,1.809 9.305,1.799C9.256,1.783 9.202,1.785 9.187,1.797C9.178,1.804 9.168,1.81 9.158,1.817C9.121,1.843 9.083,1.87 9.064,1.903C8.973,2.065 8.845,2.198 8.721,2.326C8.678,2.371 8.634,2.416 8.592,2.462C8.553,2.506 8.535,2.551 8.535,2.604L8.535,2.629C8.535,2.692 8.536,2.757 8.53,2.821C8.528,2.841 8.506,2.859 8.465,2.875C8.448,2.882 8.432,2.868 8.41,2.85C8.368,2.817 8.32,2.769 8.322,2.692C8.323,2.656 8.324,2.62 8.326,2.585C8.329,2.521 8.332,2.455 8.33,2.392C8.328,2.333 8.323,2.275 8.297,2.241C8.228,2.148 8.164,2.05 8.102,1.954C7.982,1.769 7.858,1.577 7.685,1.427C7.677,1.421 7.67,1.413 7.662,1.406C7.625,1.371 7.6,1.35 7.558,1.362C7.508,1.375 7.506,1.411 7.506,1.467L7.506,1.481C7.506,1.52 7.505,1.559 7.505,1.599C7.504,1.701 7.503,1.807 7.506,1.911C7.508,2.006 7.506,2.102 7.505,2.196C7.501,2.379 7.498,2.569 7.528,2.754L7.727,2.854C7.91,2.946 8.093,3.038 8.277,3.129L8.305,3.143C8.383,3.182 8.456,3.218 8.548,3.223C8.626,3.228 8.688,3.315 8.697,3.395C8.705,3.471 8.701,3.549 8.698,3.624C8.697,3.648 8.696,3.673 8.695,3.698C8.694,3.717 8.682,3.733 8.67,3.748C8.663,3.756 8.656,3.765 8.649,3.775C8.627,3.805 8.605,3.835 8.573,3.843C8.531,3.854 8.475,3.784 8.462,3.765C8.441,3.732 8.419,3.68 8.423,3.634C8.438,3.468 8.376,3.376 8.223,3.335C8.186,3.325 8.153,3.305 8.121,3.285C8.104,3.274 8.087,3.264 8.069,3.254C7.942,3.19 7.815,3.126 7.689,3.061C7.367,2.898 7.035,2.729 6.705,2.568C6.243,2.342 5.79,2.123 5.327,1.919C5.128,1.832 4.907,1.688 4.962,1.346C4.985,1.205 4.92,1.081 4.853,0.955C4.834,0.919 4.804,0.889 4.773,0.857C4.753,0.837 4.733,0.817 4.716,0.795C4.685,0.756 4.653,0.718 4.622,0.68C4.535,0.577 4.446,0.47 4.378,0.352C4.371,0.34 4.364,0.328 4.356,0.316C4.299,0.225 4.229,0.111 4.341,-0.022C4.363,-0.048 4.359,-0.104 4.356,-0.157C4.354,-0.179 4.352,-0.199 4.353,-0.219C4.353,-1.743 4.353,-3.266 4.352,-4.79C4.352,-4.831 4.346,-4.873 4.34,-4.914C4.34,-4.916 4.337,-4.921 4.334,-4.925C4.327,-4.921 4.319,-4.913 4.315,-4.909C4.191,-4.796 4.135,-4.639 4.082,-4.487L4.063,-4.435C3.977,-4.195 3.867,-3.985 3.728,-3.794L3.721,-3.785C3.649,-3.686 3.574,-3.584 3.542,-3.473C3.527,-3.423 3.512,-3.374 3.497,-3.325C3.426,-3.097 3.353,-2.862 3.362,-2.613C3.367,-2.453 3.363,-2.29 3.359,-2.132C3.358,-2.091 3.356,-2.05 3.355,-2.009L3.355,-1.959C3.356,-1.898 3.358,-1.835 3.327,-1.79C3.266,-1.702 3.298,-1.639 3.339,-1.559L3.351,-1.534C3.415,-1.403 3.488,-1.265 3.602,-1.15C3.628,-1.123 3.651,-1.101 3.671,-1.082C3.795,-0.96 3.798,-0.954 3.798,-0.737L3.798,-0.644C3.799,-0.627 3.799,-0.61 3.798,-0.593C3.798,-0.567 3.798,-0.541 3.799,-0.516C3.81,-0.099 3.787,-0.081 3.541,-0.014C3.483,0.002 3.411,0.021 3.324,0.052C3.295,0.062 3.264,0.062 3.233,0.061C3.219,0.06 3.205,0.06 3.19,0.061C3.127,0.065 3.1,0.089 3.099,0.143L3.099,0.338C3.1,0.472 3.1,0.611 3.095,0.747C3.084,1.03 3.089,1.261 3.266,1.461C3.281,1.478 3.274,1.508 3.269,1.523C3.256,1.554 3.243,1.578 3.228,1.598C3.213,1.616 3.178,1.611 3.167,1.608C3.161,1.606 3.156,1.605 3.151,1.604C3.126,1.597 3.098,1.59 3.082,1.57C2.945,1.394 2.8,1.183 2.813,0.904C2.82,0.736 2.82,0.6 2.812,0.476C2.809,0.432 2.812,0.389 2.816,0.346C2.824,0.255 2.831,0.169 2.778,0.09C2.647,0.174 2.497,0.128 2.369,0.154C2.365,0.155 2.356,0.164 2.35,0.169L2.341,0.179C2.336,0.183 2.328,0.19 2.327,0.194C2.334,0.285 2.328,0.381 2.322,0.474C2.309,0.681 2.297,0.876 2.406,1.064C2.423,1.092 2.42,1.132 2.415,1.161C2.412,1.176 2.401,1.225 2.37,1.244C2.343,1.261 2.31,1.268 2.283,1.261C2.261,1.255 2.243,1.242 2.232,1.222C2.11,1.017 2.046,0.819 2.038,0.616C2.036,0.566 2.035,0.516 2.035,0.465C2.034,0.402 2.033,0.336 2.029,0.272C2.029,0.261 2.003,0.235 1.993,0.234C1.813,0.238 1.63,0.245 1.452,0.253L1.314,0.258C1.228,0.32 1.133,0.319 1.041,0.318C1.006,0.318 0.969,0.317 0.935,0.32C0.898,0.323 0.86,0.322 0.823,0.321C0.756,0.318 0.693,0.316 0.645,0.341C0.505,0.414 0.365,0.413 0.259,0.402C0.144,0.391 0.031,0.421 -0.076,0.449C-0.142,0.466 -0.21,0.484 -0.279,0.493C-0.331,0.5 -0.353,0.529 -0.354,0.593C-0.355,0.656 -0.346,0.694 -0.295,0.713C-0.196,0.751 -0.098,0.788 0,0.826" style="fill:rgb(113,102,84);fill-rule:nonzero;"/>
            </g>
            <g transform="matrix(1,0,0,1,6.28236,9.23542)">
                <path d="M0,-0.756C-0.016,-0.772 -0.044,-0.779 -0.065,-0.784C-0.072,-0.786 -0.078,-0.788 -0.084,-0.79C-0.234,-0.788 -0.382,-0.652 -0.389,-0.509C-0.391,-0.472 -0.376,-0.424 -0.36,-0.415C-0.272,-0.363 -0.179,-0.317 -0.089,-0.272C-0.054,-0.255 -0.02,-0.238 0.014,-0.221L0.144,-0.154C0.262,-0.095 0.383,-0.033 0.503,0.026C0.52,0.034 0.553,0.034 0.56,0.029C0.582,-0.001 0.597,-0.039 0.598,-0.071C0.599,-0.104 0.59,-0.15 0.568,-0.174C0.389,-0.363 0.198,-0.559 0,-0.756" style="fill:rgb(161,152,129);fill-rule:nonzero;"/>
            </g>
            <g transform="matrix(1,0,0,1,7.40536,18.4154)">
                <path d="M0,-1.443C0.121,-1.297 0.26,-1.152 0.454,-1.076C0.554,-1.038 0.644,-0.993 0.722,-0.942C0.919,-0.814 1.108,-0.664 1.07,-0.38C1.063,-0.332 1.082,-0.293 1.104,-0.248L1.113,-0.23C1.128,-0.198 1.146,-0.167 1.163,-0.138C1.209,-0.06 1.256,0.02 1.257,0.127C1.257,0.188 1.327,0.256 1.421,0.257C1.464,0.256 1.511,0.255 1.556,0.254C1.597,0.252 1.639,0.251 1.681,0.251C1.739,0.251 1.797,0.254 1.854,0.263C2.028,0.292 2.218,0.343 2.279,0.583C2.313,0.719 2.366,0.872 2.496,0.973C2.545,1.011 2.573,1.012 2.62,0.981C2.637,0.969 2.654,0.961 2.671,0.953C2.715,0.933 2.749,0.916 2.76,0.861C2.77,0.811 2.793,0.765 2.815,0.72C2.824,0.7 2.833,0.681 2.842,0.662C2.978,0.346 3.151,0.219 3.398,0.256C3.474,0.267 3.555,0.263 3.634,0.259C3.654,0.258 3.675,0.257 3.695,0.257C3.799,0.253 3.85,0.204 3.873,0.088L3.877,0.063C3.889,0 3.9,-0.064 3.958,-0.113C4.019,-0.166 4.05,-0.231 4.056,-0.323C4.076,-0.603 4.22,-0.824 4.485,-0.979C4.537,-1.009 4.592,-1.037 4.645,-1.064C4.679,-1.081 4.714,-1.098 4.748,-1.117C4.772,-1.13 4.797,-1.142 4.821,-1.155C4.884,-1.186 4.949,-1.218 5.003,-1.261C5.18,-1.397 5.263,-1.559 5.256,-1.754C5.253,-1.813 5.254,-1.874 5.255,-1.933L5.255,-1.994L5.254,-2.013L5.255,-2.112C5.255,-2.207 5.255,-2.304 5.253,-2.4C5.252,-2.409 5.242,-2.422 5.233,-2.434L5.228,-2.441C5.222,-2.437 5.216,-2.433 5.21,-2.429C5.126,-2.357 5.071,-2.267 5.012,-2.172L4.985,-2.129C4.934,-2.048 4.887,-1.961 4.841,-1.878C4.726,-1.668 4.608,-1.452 4.417,-1.287C4.364,-1.16 4.272,-1.064 4.182,-0.97C4.108,-0.894 4.031,-0.814 3.979,-0.717C3.903,-0.578 3.781,-0.46 3.635,-0.387C3.501,-0.318 3.326,-0.239 3.152,-0.229C2.755,-0.205 2.363,-0.206 1.989,-0.229C1.738,-0.245 1.564,-0.316 1.442,-0.454C1.346,-0.562 1.251,-0.669 1.155,-0.776C0.96,-0.995 0.758,-1.222 0.562,-1.447C0.531,-1.482 0.51,-1.525 0.489,-1.566C0.478,-1.588 0.466,-1.612 0.453,-1.633C0.391,-1.735 0.329,-1.837 0.267,-1.938C0.175,-2.09 0.083,-2.241 -0.008,-2.393L-0.011,-2.398C-0.034,-2.436 -0.047,-2.455 -0.083,-2.45C-0.113,-2.446 -0.132,-2.432 -0.132,-2.381L-0.132,-2.308C-0.131,-2.134 -0.13,-1.955 -0.133,-1.778C-0.135,-1.664 -0.09,-1.551 0,-1.443" style="fill:rgb(135,115,127);fill-rule:nonzero;"/>
            </g>
            <g transform="matrix(1,0,0,1,8.13736,17.7004)">
                <path d="M0,-5.095C-0.086,-5.104 -0.171,-5.103 -0.256,-5.104C-0.342,-5.104 -0.416,-5.151 -0.444,-5.225C-0.489,-5.339 -0.555,-5.379 -0.684,-5.372C-0.83,-5.365 -0.978,-5.366 -1.122,-5.368C-1.192,-5.368 -1.26,-5.37 -1.331,-5.369L-1.424,-5.369C-1.542,-5.371 -1.608,-5.37 -1.633,-5.345C-1.657,-5.321 -1.657,-5.261 -1.655,-5.153L-1.655,-5.042C-1.656,-4.902 -1.655,-4.761 -1.655,-4.621L-1.655,-4.2L-1.652,-4.181C-1.652,-4.078 -1.652,-3.975 -1.651,-3.873C-1.65,-3.62 -1.649,-3.359 -1.655,-3.103C-1.657,-2.985 -1.621,-2.899 -1.532,-2.814C-1.435,-2.72 -1.339,-2.623 -1.245,-2.529C-1.149,-2.434 -1.049,-2.334 -0.95,-2.238C-0.634,-1.934 -0.401,-1.62 -0.238,-1.279L-0.228,-1.258C-0.202,-1.202 -0.174,-1.145 -0.138,-1.096C0.161,-0.69 0.503,-0.284 0.878,0.11C0.985,0.223 1.13,0.28 1.309,0.28L1.334,0.28C1.507,0.276 1.684,0.272 1.861,0.272C2.014,0.272 2.167,0.275 2.319,0.283C2.327,0.284 2.336,0.284 2.344,0.284C2.448,0.284 2.542,0.25 2.634,0.217C2.675,0.202 2.719,0.186 2.762,0.173C2.825,0.156 2.879,0.092 2.932,0.03C2.956,0.003 2.98,-0.025 3.005,-0.049C3.025,-0.069 3.044,-0.089 3.051,-0.11C3.081,-0.201 3.144,-0.265 3.205,-0.326C3.234,-0.355 3.265,-0.385 3.29,-0.417C3.318,-0.453 3.345,-0.49 3.371,-0.527C3.427,-0.605 3.485,-0.686 3.557,-0.752C3.638,-0.827 3.697,-0.921 3.754,-1.011C3.801,-1.084 3.85,-1.161 3.91,-1.228C4.082,-1.648 4.388,-1.963 4.712,-2.275C4.86,-2.418 5.034,-2.587 5.2,-2.761C5.321,-2.889 5.38,-3.021 5.38,-3.164L5.38,-5.275C5.38,-5.355 5.333,-5.365 5.299,-5.365C5.205,-5.366 5.111,-5.366 5.016,-5.365C4.812,-5.366 4.601,-5.364 4.393,-5.373C4.256,-5.376 4.179,-5.334 4.139,-5.229C4.108,-5.147 4.055,-5.11 3.963,-5.104C3.861,-5.098 3.746,-5.091 3.634,-5.078C3.607,-5.019 3.783,-4.852 3.8,-4.783C3.836,-4.636 3.786,-4.395 3.794,-4.238C3.797,-4.174 3.8,-4.1 3.821,-4.036C3.83,-4.007 3.872,-3.969 3.895,-3.969C3.905,-3.969 3.928,-3.978 3.974,-4.04C4.009,-4.086 4.005,-4.14 4.002,-4.197C4,-4.224 3.998,-4.252 4,-4.28C4.016,-4.448 4.042,-4.496 4.248,-4.545C4.346,-4.568 4.403,-4.609 4.43,-4.677C4.435,-4.686 4.438,-4.696 4.442,-4.705C4.459,-4.749 4.476,-4.795 4.518,-4.83C4.611,-4.907 4.729,-4.922 4.86,-4.873C4.948,-4.84 4.997,-4.757 4.995,-4.647C4.993,-4.533 4.992,-4.419 4.992,-4.305C4.991,-4.218 4.991,-4.131 4.99,-4.044C4.987,-3.81 4.913,-3.72 4.661,-3.643C4.502,-3.594 4.469,-3.557 4.475,-3.433C4.48,-3.34 4.457,-3.255 4.435,-3.172C4.42,-3.119 4.406,-3.069 4.4,-3.017C4.383,-2.894 4.321,-2.818 4.208,-2.785C4.154,-2.769 4.131,-2.738 4.131,-2.679C4.128,-2.392 4.126,-2.15 4.128,-1.904C4.129,-1.788 4.056,-1.722 3.992,-1.679C3.917,-1.627 3.85,-1.607 3.787,-1.621C3.724,-1.634 3.669,-1.68 3.62,-1.761C3.602,-1.79 3.593,-1.824 3.585,-1.856C3.582,-1.866 3.58,-1.875 3.577,-1.885C3.574,-1.896 3.572,-1.908 3.571,-1.921C3.569,-1.937 3.567,-1.952 3.561,-1.961C3.536,-1.999 3.496,-2.01 3.427,-2.001C3.403,-1.998 3.363,-1.985 3.362,-1.939C3.358,-1.647 3.352,-1.317 3.354,-0.992C3.354,-0.886 3.323,-0.808 3.255,-0.748C3.237,-0.731 3.219,-0.715 3.202,-0.699C3.157,-0.657 3.11,-0.614 3.059,-0.576C2.96,-0.503 2.809,-0.535 2.709,-0.65C2.667,-0.7 2.622,-0.723 2.578,-0.716C2.54,-0.711 2.508,-0.679 2.486,-0.627C2.478,-0.607 2.467,-0.587 2.457,-0.567C2.429,-0.512 2.404,-0.461 2.409,-0.397C2.422,-0.252 2.331,-0.173 2.231,-0.108C2.064,-0.001 1.889,-0.012 1.718,-0.023C1.677,-0.025 1.635,-0.028 1.595,-0.029C1.572,-0.029 1.552,-0.044 1.544,-0.051C1.524,-0.068 1.503,-0.085 1.482,-0.102C1.357,-0.202 1.228,-0.306 1.244,-0.509C1.247,-0.545 1.242,-0.583 1.238,-0.619L1.237,-0.634C1.234,-0.662 1.208,-0.691 1.171,-0.709C1.132,-0.727 1.092,-0.727 1.067,-0.709C1.026,-0.682 0.99,-0.643 0.955,-0.606L0.945,-0.596C0.889,-0.537 0.811,-0.52 0.726,-0.549C0.649,-0.574 0.569,-0.616 0.495,-0.668C0.446,-0.703 0.389,-0.763 0.389,-0.816C0.389,-0.905 0.367,-0.994 0.344,-1.079C0.317,-1.183 0.29,-1.29 0.3,-1.404C0.313,-1.547 0.305,-1.694 0.298,-1.836C0.296,-1.878 0.294,-1.92 0.292,-1.961C0.291,-1.969 0.268,-1.99 0.25,-1.996C0.23,-2.002 0.201,-1.998 0.186,-1.988C0.132,-1.95 0.081,-1.905 0.081,-1.832C0.082,-1.746 0.047,-1.677 -0.019,-1.633C-0.047,-1.614 -0.118,-1.572 -0.152,-1.594L-0.169,-1.605C-0.287,-1.677 -0.409,-1.752 -0.403,-1.934C-0.398,-2.054 -0.399,-2.177 -0.4,-2.296C-0.401,-2.389 -0.401,-2.485 -0.399,-2.58C-0.398,-2.661 -0.432,-2.719 -0.512,-2.775C-0.517,-2.778 -0.525,-2.78 -0.534,-2.782C-0.538,-2.783 -0.542,-2.784 -0.547,-2.785C-0.726,-2.841 -0.745,-2.986 -0.741,-3.106C-0.74,-3.164 -0.741,-3.223 -0.743,-3.281C-0.744,-3.336 -0.746,-3.394 -0.744,-3.45C-0.742,-3.524 -0.783,-3.548 -0.854,-3.583C-0.913,-3.612 -0.973,-3.633 -1.049,-3.651C-1.198,-3.686 -1.255,-3.755 -1.26,-3.906C-1.263,-3.948 -1.262,-3.99 -1.262,-4.033C-1.262,-4.077 -1.262,-4.12 -1.264,-4.164C-1.265,-4.197 -1.264,-4.232 -1.263,-4.266C-1.26,-4.348 -1.257,-4.433 -1.291,-4.489C-1.355,-4.592 -1.317,-4.666 -1.283,-4.732C-1.268,-4.761 -1.253,-4.79 -1.248,-4.82C-1.242,-4.85 -1.199,-4.882 -1.169,-4.885C-1.054,-4.9 -0.926,-4.917 -0.833,-4.807C-0.785,-4.75 -0.737,-4.694 -0.709,-4.628C-0.686,-4.575 -0.654,-4.561 -0.595,-4.55C-0.383,-4.511 -0.275,-4.388 -0.273,-4.184C-0.273,-4.141 -0.273,-4.099 -0.261,-4.063C-0.26,-4.059 -0.252,-4.048 -0.209,-4.03C-0.198,-4.025 -0.177,-4.03 -0.159,-4.042C-0.145,-4.051 -0.137,-4.062 -0.137,-4.068L-0.136,-4.131C-0.135,-4.201 -0.14,-5.11 0,-5.095" style="fill:rgb(113,102,84);fill-rule:nonzero;"/>
            </g>
            <g transform="matrix(1,0,0,1,7.19936,11.0544)">
                <path d="M0,-0.08C0.003,-0.087 0,-0.1 -0.01,-0.114C-0.027,-0.138 -0.041,-0.167 -0.05,-0.196C-0.103,-0.37 -0.103,-0.37 -0.244,-0.373C-0.313,-0.374 -0.382,-0.374 -0.451,-0.373L-0.525,-0.373L-0.544,-0.368L-0.671,-0.369L-0.798,-0.369C-0.856,-0.369 -0.914,-0.369 -0.972,-0.368C-1.006,-0.367 -1.05,-0.357 -1.05,-0.276L-1.05,-0.212C-1.051,-0.149 -1.051,-0.084 -1.05,-0.02C-1.046,0.118 -0.973,0.194 -0.834,0.208C-0.792,0.212 -0.75,0.214 -0.709,0.215C-0.613,0.218 -0.513,0.222 -0.411,0.261C-0.326,0.294 -0.219,0.283 -0.116,0.273C-0.077,0.269 -0.037,0.265 0.002,0.263C0.019,0.263 0.047,0.231 0.056,0.221C0.069,0.207 0.078,0.186 0.084,0.168C0.08,0.164 0.075,0.161 0.072,0.16C-0.019,0.157 -0.112,0.156 -0.204,0.154C-0.311,0.152 -0.419,0.15 -0.525,0.147C-0.587,0.146 -0.643,0.137 -0.695,0.122C-0.725,0.113 -0.739,0.058 -0.737,0.032C-0.734,0.005 -0.713,-0.039 -0.683,-0.049C-0.643,-0.061 -0.601,-0.061 -0.56,-0.061L-0.55,-0.061C-0.381,-0.063 -0.208,-0.061 -0.036,-0.066C-0.018,-0.066 -0.004,-0.072 0,-0.08" style="fill:rgb(199,112,39);fill-rule:nonzero;"/>
            </g>
            <g transform="matrix(1,0,0,1,6.20136,12.6604)">
                <path d="M0,-0.37C-0.077,-0.459 -0.177,-0.51 -0.283,-0.563C-0.305,-0.574 -0.326,-0.585 -0.348,-0.596C-0.633,-0.745 -0.905,-0.898 -1.116,-1.136C-1.172,-1.2 -1.224,-1.272 -1.223,-1.377C-1.223,-1.399 -1.229,-1.415 -1.24,-1.426C-1.255,-1.442 -1.283,-1.45 -1.32,-1.45C-1.673,-1.451 -1.991,-1.452 -2.311,-1.449C-2.36,-1.448 -2.415,-1.437 -2.467,-1.416L-2.641,-1.347C-2.905,-1.242 -3.178,-1.134 -3.442,-1.017C-3.768,-0.875 -4.041,-0.763 -4.302,-0.668C-4.432,-0.62 -4.558,-0.554 -4.68,-0.489C-4.731,-0.462 -4.782,-0.436 -4.834,-0.41C-4.883,-0.385 -4.886,-0.341 -4.885,-0.282C-4.884,-0.226 -4.857,-0.201 -4.796,-0.201C-4.449,-0.2 -4.104,-0.2 -3.757,-0.2L-3.441,-0.2L-3.441,-0.198L-2.341,-0.198C-2.255,-0.198 -2.168,-0.198 -2.083,-0.2C-2.02,-0.201 -1.992,-0.225 -1.992,-0.278C-1.991,-0.305 -1.992,-0.331 -1.992,-0.358C-1.992,-0.417 -1.993,-0.478 -1.988,-0.538C-1.973,-0.747 -2.004,-0.9 -2.207,-0.964C-2.221,-0.969 -2.228,-0.982 -2.233,-0.993C-2.235,-0.997 -2.237,-1.001 -2.239,-1.004C-2.255,-1.024 -2.248,-1.061 -2.236,-1.089C-2.229,-1.104 -2.211,-1.14 -2.182,-1.143C-2.172,-1.143 -2.163,-1.144 -2.153,-1.146C-2.115,-1.151 -2.076,-1.155 -2.044,-1.139C-1.913,-1.073 -1.828,-0.98 -1.784,-0.854C-1.723,-0.684 -1.698,-0.502 -1.702,-0.262C-1.702,-0.24 -1.695,-0.214 -1.636,-0.201C-1.609,-0.196 -1.58,-0.197 -1.555,-0.198C-1.54,-0.199 -1.527,-0.199 -1.513,-0.199C-1.286,-0.199 -1.136,-0.114 -1.045,0.068C-1.016,0.127 -0.949,0.146 -0.881,0.158C-0.643,0.198 -0.471,0.341 -0.367,0.583C-0.318,0.697 -0.252,0.818 -0.167,0.952C-0.143,0.989 -0.106,1.019 -0.068,1.05C-0.055,1.061 -0.041,1.071 -0.029,1.082C0.002,1.05 0,1.01 -0.001,0.964C-0.001,0.946 -0.002,0.928 -0.001,0.911C0.002,0.869 0,0.824 -0.001,0.781C-0.005,0.669 -0.008,0.554 0.063,0.448L0.064,0.261C0.065,0.098 0.065,-0.07 0.068,-0.235C0.069,-0.29 0.039,-0.325 0.004,-0.366L0,-0.37Z" style="fill:rgb(199,112,39);fill-rule:nonzero;"/>
            </g>
            <g transform="matrix(1,0,0,1,3.24736,11.5284)">
                <path d="M0,-2.319C0.001,-2.355 0.002,-2.392 0.001,-2.428C-0.037,-2.45 -0.076,-2.473 -0.114,-2.496C-0.204,-2.549 -0.297,-2.606 -0.395,-2.639C-0.451,-2.659 -0.508,-2.677 -0.565,-2.696C-0.733,-2.75 -0.907,-2.806 -1.069,-2.892C-1.108,-2.914 -1.178,-2.915 -1.214,-2.896C-1.408,-2.794 -1.614,-2.715 -1.813,-2.639C-1.95,-2.587 -2.092,-2.532 -2.228,-2.471L-2.251,-2.461C-2.584,-2.311 -2.928,-2.156 -3.277,-2.025C-3.291,-2.02 -3.306,-2.014 -3.321,-2.009C-3.41,-1.977 -3.503,-1.945 -3.554,-1.859C-3.565,-1.84 -3.569,-1.813 -3.564,-1.796C-3.558,-1.777 -3.538,-1.755 -3.527,-1.753C-3.482,-1.746 -3.433,-1.745 -3.388,-1.747L-3.358,-1.747C-3.169,-1.746 -2.98,-1.747 -2.791,-1.747L-1.805,-1.747C-1.782,-1.747 -1.758,-1.745 -1.734,-1.742C-1.684,-1.737 -1.631,-1.732 -1.608,-1.751C-1.503,-1.841 -1.41,-1.805 -1.327,-1.773C-1.295,-1.761 -1.265,-1.75 -1.233,-1.744C-0.98,-1.702 -0.817,-1.569 -0.75,-1.35C-0.736,-1.306 -0.717,-1.262 -0.699,-1.22C-0.673,-1.161 -0.646,-1.099 -0.632,-1.031C-0.598,-0.872 -0.499,-0.729 -0.329,-0.594C-0.277,-0.553 -0.235,-0.535 -0.186,-0.535C0.403,-0.536 0.992,-0.535 1.581,-0.536C1.617,-0.537 1.653,-0.548 1.654,-0.633C1.654,-0.647 1.655,-0.662 1.655,-0.676C1.655,-0.705 1.656,-0.733 1.656,-0.762C1.655,-0.82 1.683,-0.855 1.741,-0.869C1.75,-0.871 1.758,-0.871 1.767,-0.871C1.789,-0.871 1.811,-0.864 1.828,-0.85C1.847,-0.835 1.857,-0.812 1.856,-0.789C1.853,-0.713 1.875,-0.64 1.897,-0.569C1.916,-0.507 1.935,-0.443 1.938,-0.376C1.943,-0.257 1.981,-0.17 2.065,-0.087C2.216,0.061 2.356,0.164 2.506,0.236C2.548,0.256 2.59,0.28 2.629,0.302C2.699,0.341 2.77,0.382 2.845,0.405C2.904,0.423 2.947,0.463 2.989,0.501C3.031,0.54 3.072,0.578 3.126,0.585C3.213,0.596 3.305,0.595 3.393,0.592C3.432,0.591 3.472,0.59 3.511,0.59L3.813,0.59C3.885,0.59 3.956,0.591 4.028,0.59L4.05,0.59C4.113,0.59 4.179,0.589 4.243,0.586C4.279,0.585 4.286,0.577 4.288,0.575C4.293,0.567 4.284,0.543 4.275,0.523L4.268,0.504C4.22,0.376 4.185,0.245 4.148,0.098C4.134,0.044 4.102,0.02 4.045,0.019C3.786,0.016 3.528,0.018 3.269,0.016L3.268,0.016C3.253,0.016 3.238,0.017 3.222,0.018C3.176,0.021 3.127,0.025 3.091,0.003C2.974,-0.066 2.863,-0.135 2.785,-0.228C2.733,-0.291 2.673,-0.393 2.685,-0.518C2.694,-0.617 2.705,-0.725 2.669,-0.804C2.645,-0.855 2.601,-0.856 2.529,-0.849C2.488,-0.846 2.445,-0.843 2.406,-0.858C2.377,-0.87 2.354,-0.907 2.347,-0.936C2.341,-0.962 2.346,-1.004 2.366,-1.028C2.423,-1.095 2.487,-1.127 2.562,-1.127L2.565,-1.127C2.767,-1.125 2.979,-1.125 3.211,-1.128C3.224,-1.128 3.239,-1.127 3.254,-1.126C3.306,-1.121 3.343,-1.121 3.35,-1.147C3.362,-1.192 3.329,-1.225 3.238,-1.26C3.172,-1.284 3.109,-1.316 3.048,-1.347C2.973,-1.385 2.897,-1.424 2.814,-1.449C2.648,-1.5 2.486,-1.574 2.328,-1.645C2.295,-1.66 2.261,-1.676 2.227,-1.691C2.147,-1.727 2.063,-1.757 1.982,-1.786C1.855,-1.832 1.723,-1.879 1.601,-1.949C1.476,-2.021 1.339,-2.077 1.207,-2.132C1.152,-2.155 1.098,-2.177 1.044,-2.201C0.975,-2.077 0.985,-1.948 0.997,-1.811C1.003,-1.742 1.008,-1.672 1.003,-1.602C0.989,-1.401 0.934,-1.157 0.64,-1.058C0.636,-1.057 0.629,-1.051 0.626,-1.048C0.615,-1.039 0.602,-1.029 0.588,-1.038C0.558,-1.058 0.531,-1.08 0.503,-1.102L0.49,-1.114C0.474,-1.126 0.466,-1.138 0.465,-1.152C0.462,-1.173 0.476,-1.191 0.492,-1.211C0.524,-1.25 0.565,-1.276 0.606,-1.301C0.67,-1.342 0.73,-1.379 0.754,-1.465C0.779,-1.554 0.78,-1.644 0.78,-1.731C0.78,-1.768 0.781,-1.804 0.782,-1.841C0.785,-1.896 0.784,-1.952 0.783,-2.007C0.783,-2.066 0.781,-2.126 0.785,-2.186C0.789,-2.242 0.772,-2.296 0.741,-2.331C0.722,-2.352 0.7,-2.363 0.677,-2.364C0.613,-2.366 0.555,-2.398 0.499,-2.429C0.412,-2.477 0.337,-2.518 0.256,-2.449C0.198,-2.399 0.208,-2.315 0.218,-2.227C0.223,-2.182 0.229,-2.135 0.225,-2.092C0.222,-2.059 0.222,-2.025 0.222,-1.991C0.223,-1.968 0.223,-1.944 0.222,-1.921C0.216,-1.73 0.093,-1.588 -0.098,-1.549C-0.112,-1.546 -0.125,-1.556 -0.134,-1.565C-0.137,-1.568 -0.142,-1.572 -0.145,-1.574C-0.177,-1.588 -0.203,-1.624 -0.209,-1.664C-0.213,-1.694 -0.206,-1.721 -0.187,-1.737C-0.169,-1.753 -0.15,-1.768 -0.13,-1.783C-0.042,-1.853 0.034,-1.913 0.011,-2.049C-0.004,-2.138 -0.002,-2.23 0,-2.319" style="fill:rgb(135,115,127);fill-rule:nonzero;"/>
            </g>
            <g transform="matrix(1,0,0,1,12.7894,16.7184)">
                <path d="M0,-2.881C0.065,-2.894 0.117,-2.953 0.119,-3.015C0.127,-3.229 0.121,-3.448 0.115,-3.659C0.112,-3.664 0.086,-3.681 0.07,-3.683C0.057,-3.684 0.03,-3.675 0.021,-3.669C0.005,-3.463 -0.147,-3.397 -0.294,-3.359C-0.307,-3.355 -0.32,-3.355 -0.333,-3.355L-0.341,-3.354C-0.411,-3.351 -0.44,-3.315 -0.438,-3.23C-0.438,-3.203 -0.438,-3.177 -0.439,-3.151C-0.44,-3.12 -0.44,-3.089 -0.439,-3.058C-0.438,-2.979 -0.479,-2.911 -0.554,-2.866C-0.591,-2.844 -0.635,-2.827 -0.677,-2.812C-0.745,-2.786 -0.809,-2.762 -0.841,-2.717C-0.861,-2.687 -0.883,-2.659 -0.906,-2.63C-0.952,-2.57 -1,-2.509 -1.03,-2.441C-1.057,-2.377 -1.103,-2.35 -1.147,-2.325C-1.161,-2.317 -1.175,-2.309 -1.189,-2.299C-1.284,-2.233 -1.358,-2.142 -1.421,-2.014C-1.529,-1.796 -1.613,-1.564 -1.694,-1.339C-1.73,-1.24 -1.767,-1.136 -1.806,-1.036C-1.82,-0.999 -1.833,-0.962 -1.847,-0.924C-1.861,-0.883 -1.877,-0.841 -1.893,-0.8C-1.949,-0.657 -2.043,-0.593 -2.197,-0.593L-2.204,-0.593L-2.314,-0.594C-2.659,-0.598 -3.016,-0.603 -3.366,-0.592C-3.508,-0.586 -3.62,-0.646 -3.704,-0.773C-3.763,-0.863 -3.797,-0.969 -3.831,-1.072L-3.835,-1.087C-3.931,-1.384 -4.039,-1.72 -4.195,-2.028C-4.247,-2.13 -4.294,-2.212 -4.398,-2.272C-4.556,-2.362 -4.663,-2.481 -4.715,-2.627C-4.729,-2.668 -4.775,-2.762 -4.887,-2.765L-4.888,-2.765C-4.901,-2.766 -4.911,-2.774 -4.919,-2.78C-4.922,-2.784 -4.927,-2.787 -4.93,-2.788C-5.096,-2.84 -5.163,-2.935 -5.14,-3.086C-5.134,-3.129 -5.135,-3.171 -5.142,-3.208C-5.156,-3.274 -5.2,-3.342 -5.257,-3.347C-5.458,-3.36 -5.583,-3.457 -5.652,-3.651C-5.655,-3.653 -5.668,-3.658 -5.675,-3.661C-5.677,-3.662 -5.678,-3.662 -5.679,-3.663C-5.68,-3.661 -5.682,-3.658 -5.683,-3.656C-5.69,-3.64 -5.698,-3.625 -5.699,-3.612C-5.701,-3.54 -5.701,-3.466 -5.7,-3.394L-5.699,-3.312L-5.7,-3.211C-5.7,-3.13 -5.7,-3.049 -5.699,-2.968C-5.698,-2.934 -5.689,-2.907 -5.672,-2.892C-5.659,-2.881 -5.64,-2.877 -5.619,-2.879C-5.538,-2.888 -5.476,-2.854 -5.416,-2.82C-5.387,-2.804 -5.36,-2.789 -5.332,-2.779C-5.243,-2.746 -5.186,-2.659 -5.186,-2.558C-5.186,-2.488 -5.184,-2.417 -5.183,-2.347C-5.182,-2.288 -5.181,-2.229 -5.181,-2.171C-5.18,-2.086 -5.163,-2.038 -5.069,-1.997C-4.9,-1.924 -4.822,-1.776 -4.838,-1.555C-4.849,-1.395 -4.844,-1.231 -4.839,-1.073L-4.837,-0.997C-4.836,-0.975 -4.825,-0.952 -4.812,-0.927C-4.811,-0.925 -4.81,-0.923 -4.809,-0.921C-4.8,-0.934 -4.791,-0.947 -4.782,-0.96C-4.77,-0.979 -4.758,-0.998 -4.746,-1.017C-4.722,-1.058 -4.696,-1.1 -4.664,-1.137C-4.573,-1.242 -4.323,-1.283 -4.204,-1.213C-4.128,-1.168 -4.132,-1.088 -4.136,-1.018C-4.137,-0.998 -4.138,-0.979 -4.137,-0.96C-4.135,-0.928 -4.138,-0.895 -4.141,-0.863C-4.146,-0.806 -4.15,-0.753 -4.132,-0.711C-4.063,-0.559 -4.065,-0.402 -4.067,-0.25C-4.068,-0.191 -4.068,-0.131 -4.065,-0.072L-4.063,-0.026C-4.062,0.002 -4.06,0.029 -4.058,0.057C-4.052,0.087 -3.892,0.211 -3.858,0.211L-3.857,0.211C-3.857,0.205 -3.855,0.198 -3.853,0.19C-3.813,0.069 -3.726,0.051 -3.638,0.05L-3.563,0.05C-3.516,0.05 -3.469,0.051 -3.422,0.053C-3.353,0.057 -3.31,0.087 -3.278,0.154C-3.227,0.259 -3.182,0.363 -3.19,0.489C-3.196,0.571 -3.13,0.621 -3.09,0.643C-2.926,0.736 -2.747,0.803 -2.551,0.671C-2.543,0.666 -2.535,0.662 -2.528,0.657C-2.481,0.628 -2.456,0.609 -2.461,0.57C-2.475,0.482 -2.443,0.406 -2.412,0.334C-2.387,0.274 -2.363,0.219 -2.362,0.156C-2.362,0.132 -2.34,0.099 -2.325,0.086C-2.314,0.076 -2.304,0.075 -2.296,0.073C-2.253,0.077 -2.212,0.062 -2.169,0.045C-2.1,0.018 -2.021,-0.014 -1.928,0.046C-1.892,0.07 -1.859,0.096 -1.827,0.122C-1.793,0.149 -1.761,0.175 -1.726,0.197C-1.709,0.209 -1.702,0.209 -1.677,0.188C-1.581,0.107 -1.502,0.029 -1.51,-0.118C-1.52,-0.303 -1.516,-0.491 -1.513,-0.672C-1.512,-0.746 -1.511,-0.82 -1.51,-0.894L-1.51,-0.907C-1.51,-0.96 -1.51,-1.014 -1.505,-1.068C-1.501,-1.121 -1.394,-1.23 -1.342,-1.233C-1.279,-1.238 -1.211,-1.239 -1.125,-1.237C-0.989,-1.235 -0.903,-1.162 -0.868,-1.022L-0.864,-1.003C-0.856,-0.97 -0.848,-0.936 -0.832,-0.91C-0.826,-0.905 -0.794,-0.905 -0.78,-0.905L-0.772,-0.905C-0.77,-0.906 -0.762,-0.913 -0.761,-0.916L-0.759,-0.926C-0.749,-0.962 -0.74,-0.999 -0.74,-1.034L-0.739,-1.099C-0.737,-1.303 -0.735,-1.515 -0.74,-1.722C-0.743,-1.861 -0.693,-1.953 -0.595,-1.988C-0.444,-2.043 -0.422,-2.168 -0.399,-2.299L-0.398,-2.306C-0.385,-2.381 -0.387,-2.461 -0.39,-2.538C-0.391,-2.56 -0.392,-2.582 -0.392,-2.603C-0.394,-2.718 -0.336,-2.768 -0.246,-2.81C-0.166,-2.847 -0.088,-2.863 -0.006,-2.88L0,-2.881Z" style="fill:rgb(218,145,65);fill-rule:nonzero;"/>
            </g>
            <g transform="matrix(1,0,0,1,11.7164,13.8074)">
                <path d="M0,-0.337L0,-0.474C0,-0.593 0,-0.711 -0.001,-0.83C-0.001,-0.905 -0.029,-0.944 -0.1,-0.966C-0.252,-1.014 -0.345,-1.124 -0.393,-1.311C-0.405,-1.36 -0.413,-1.408 -0.421,-1.455C-0.427,-1.49 -0.432,-1.526 -0.44,-1.561C-0.459,-1.653 -0.51,-1.726 -0.582,-1.767C-0.653,-1.807 -0.74,-1.813 -0.829,-1.784C-0.904,-1.758 -0.96,-1.751 -1.041,-1.783C-1.18,-1.84 -1.321,-1.929 -1.301,-2.152C-1.297,-2.202 -1.307,-2.256 -1.316,-2.308L-1.318,-2.316C-1.326,-2.358 -1.413,-2.432 -1.455,-2.432C-1.674,-2.43 -1.872,-2.43 -2.057,-2.426C-2.068,-2.425 -2.103,-2.425 -2.121,-2.358C-2.13,-2.326 -2.14,-2.295 -2.151,-2.264C-2.173,-2.2 -2.194,-2.14 -2.197,-2.079C-2.204,-1.938 -2.292,-1.867 -2.378,-1.798L-2.387,-1.791C-2.452,-1.738 -2.51,-1.732 -2.566,-1.772C-2.68,-1.854 -2.783,-1.802 -2.893,-1.749L-2.904,-1.743C-2.984,-1.703 -3.009,-1.63 -3.035,-1.552C-3.044,-1.526 -3.052,-1.501 -3.063,-1.476C-3.075,-1.449 -3.077,-1.409 -3.07,-1.358C-3.049,-1.197 -3.144,-1.099 -3.251,-1.017C-3.276,-0.998 -3.305,-0.985 -3.333,-0.973C-3.357,-0.963 -3.381,-0.953 -3.401,-0.938C-3.469,-0.89 -3.499,-0.843 -3.498,-0.779C-3.497,-0.673 -3.497,-0.567 -3.498,-0.461C-3.498,-0.311 -3.499,-0.156 -3.496,-0.004C-3.495,0.039 -3.477,0.085 -3.461,0.129L-3.453,0.15C-3.394,0.305 -3.297,0.411 -3.154,0.474C-3.066,0.514 -3.018,0.591 -2.978,0.668C-2.814,0.994 -2.691,1.341 -2.572,1.677L-2.555,1.726C-2.547,1.749 -2.539,1.771 -2.531,1.794C-2.512,1.85 -2.492,1.908 -2.469,1.963C-2.433,2.045 -2.433,2.045 -2.316,2.041L-2.265,2.039C-2.06,2.032 -1.853,2.031 -1.648,2.031L-1.275,2.031C-1.255,2.031 -1.238,2.039 -1.221,2.048C-1.211,2.053 -1.201,2.058 -1.192,2.06C-1.053,2.095 -1.053,2.094 -1.004,1.964C-0.952,1.83 -0.904,1.692 -0.857,1.558C-0.803,1.406 -0.747,1.248 -0.688,1.094C-0.58,0.819 -0.462,0.558 -0.205,0.396C-0.065,0.307 0.003,0.189 0,0.032C-0.001,-0.057 -0.001,-0.146 0,-0.236L0,-0.337M-2.372,0.371C-2.378,0.48 -2.385,0.592 -2.395,0.702C-2.398,0.732 -2.457,0.75 -2.481,0.75L-2.483,0.75C-2.51,0.75 -2.557,0.731 -2.568,0.702C-2.584,0.661 -2.586,0.613 -2.587,0.571C-2.588,0.483 -2.588,0.395 -2.588,0.307C-2.588,0.223 -2.588,0.139 -2.589,0.055C-2.591,-0.113 -2.591,-0.113 -2.771,-0.245L-2.789,-0.258C-2.81,-0.271 -2.835,-0.288 -2.84,-0.317C-2.843,-0.335 -2.837,-0.355 -2.822,-0.375C-2.779,-0.434 -2.665,-0.498 -2.613,-0.463C-2.497,-0.385 -2.367,-0.298 -2.374,-0.112C-2.378,-0.023 -2.377,0.067 -2.376,0.154C-2.376,0.189 -2.375,0.222 -2.375,0.256L-2.366,0.257L-2.372,0.371ZM-0.616,-0.286C-0.628,-0.277 -0.64,-0.269 -0.652,-0.26C-0.685,-0.235 -0.72,-0.209 -0.759,-0.194C-0.869,-0.151 -0.914,-0.076 -0.911,0.056C-0.906,0.214 -0.909,0.376 -0.911,0.532L-0.911,0.571C-0.911,0.615 -0.914,0.661 -0.93,0.703C-0.94,0.731 -0.986,0.75 -1.014,0.751L-1.015,0.751C-1.041,0.751 -1.099,0.733 -1.102,0.702C-1.113,0.586 -1.119,0.471 -1.123,0.409L-1.124,0.376C-1.124,0.301 -1.126,0.238 -1.127,0.183C-1.129,0.08 -1.13,0.006 -1.123,-0.069C-1.104,-0.254 -1.002,-0.385 -0.82,-0.458C-0.734,-0.492 -0.681,-0.444 -0.634,-0.401L-0.616,-0.385C-0.602,-0.373 -0.584,-0.354 -0.585,-0.33C-0.587,-0.313 -0.597,-0.299 -0.616,-0.286" style="fill:rgb(135,115,127);fill-rule:nonzero;"/>
            </g>
            <g transform="matrix(1,0,0,1,15.1564,13.8064)">
                <path d="M0,-2.601L-0.009,-2.601C-0.098,-2.601 -0.193,-2.553 -0.2,-2.46C-0.214,-2.264 -0.345,-2.164 -0.441,-2.105C-0.491,-2.076 -0.541,-2.043 -0.589,-2.011C-0.704,-1.936 -0.823,-1.858 -0.957,-1.806C-1.092,-1.754 -1.219,-1.666 -1.334,-1.545C-1.401,-1.477 -1.427,-1.415 -1.427,-1.333C-1.424,-1.088 -1.423,-0.839 -1.423,-0.597C-1.423,-0.426 -1.423,-0.254 -1.422,-0.083C-1.422,-0.059 -1.414,-0.034 -1.404,-0.006C-1.403,0 -1.401,0.006 -1.399,0.012C-1.304,-0.069 -1.224,-0.148 -1.179,-0.263C-1.154,-0.327 -1.119,-0.388 -1.085,-0.447C-1.049,-0.509 -1.012,-0.573 -0.988,-0.64C-0.919,-0.827 -0.781,-0.94 -0.566,-0.985C-0.476,-1.004 -0.411,-1.028 -0.358,-1.092C-0.201,-1.282 -0.008,-1.368 0.22,-1.344C0.228,-1.344 0.237,-1.344 0.245,-1.345C0.25,-1.345 0.255,-1.346 0.26,-1.346C0.321,-1.349 0.347,-1.374 0.347,-1.43C0.346,-1.468 0.348,-1.506 0.349,-1.543C0.351,-1.619 0.353,-1.697 0.346,-1.773C0.331,-1.924 0.401,-2.041 0.468,-2.154L0.483,-2.18C0.525,-2.252 0.593,-2.293 0.668,-2.293C0.684,-2.294 0.699,-2.292 0.715,-2.292C0.768,-2.292 0.823,-2.292 0.853,-2.262C0.87,-2.244 0.878,-2.227 0.877,-2.209C0.875,-2.177 0.847,-2.154 0.822,-2.134C0.812,-2.126 0.802,-2.118 0.795,-2.11C0.765,-2.075 0.73,-2.043 0.697,-2.012C0.677,-1.995 0.658,-1.977 0.64,-1.959C0.582,-1.901 0.559,-1.849 0.564,-1.785C0.568,-1.728 0.567,-1.671 0.566,-1.615C0.565,-1.585 0.565,-1.555 0.565,-1.525C0.567,-1.345 0.567,-1.345 0.73,-1.344L3.273,-1.344C3.316,-1.344 3.359,-1.346 3.401,-1.349C3.417,-1.349 3.429,-1.359 3.435,-1.368C3.455,-1.39 3.466,-1.426 3.463,-1.458C3.457,-1.52 3.435,-1.562 3.394,-1.587C3.375,-1.599 3.357,-1.611 3.338,-1.623C3.274,-1.664 3.208,-1.706 3.139,-1.726C2.979,-1.77 2.825,-1.837 2.678,-1.901C2.61,-1.931 2.54,-1.961 2.47,-1.989C2.398,-2.018 2.326,-2.046 2.254,-2.073C2.105,-2.13 1.951,-2.19 1.803,-2.258L1.756,-2.28C1.583,-2.36 1.405,-2.443 1.223,-2.504L1.178,-2.518C1.039,-2.565 0.894,-2.613 0.735,-2.603C0.498,-2.585 0.262,-2.591 0,-2.601" style="fill:rgb(199,112,39);fill-rule:nonzero;"/>
            </g>
        </g>
    </g>
</svg>
