<?xml version="1.0" encoding="UTF-8" standalone="no"?>
<!DOCTYPE svg PUBLIC "-//W3C//DTD SVG 1.1//EN" "http://www.w3.org/Graphics/SVG/1.1/DTD/svg11.dtd">
<svg width="100%" height="100%" viewBox="0 0 20 20" version="1.1" xmlns="http://www.w3.org/2000/svg" xmlns:xlink="http://www.w3.org/1999/xlink" xml:space="preserve" xmlns:serif="http://www.serif.com/" style="fill-rule:evenodd;clip-rule:evenodd;stroke-linejoin:round;stroke-miterlimit:2;">
    <g transform="matrix(1.0077,0,0,1.0077,-0.077044,-0.077044)">
        <g id="Felaxir">
            <g transform="matrix(1,0,0,1,13.9628,10.4685)">
                <path d="M0,-0.027C0.037,-0.16 0.071,-0.285 0.04,-0.42C0.037,-0.435 0.02,-0.453 -0.001,-0.466C-0.027,-0.481 -0.055,-0.487 -0.073,-0.48C-0.084,-0.477 -0.094,-0.475 -0.105,-0.473C-0.123,-0.469 -0.139,-0.466 -0.153,-0.458C-0.323,-0.364 -0.507,-0.292 -0.685,-0.223C-0.93,-0.126 -1.183,-0.027 -1.402,0.131L-1.407,0.135L-1.414,0.134C-1.421,0.134 -1.428,0.133 -1.435,0.133C-1.536,0.133 -1.608,0.193 -1.684,0.256C-1.738,0.302 -1.795,0.349 -1.864,0.372C-1.877,0.376 -1.889,0.401 -1.9,0.422C-1.902,0.428 -1.905,0.433 -1.908,0.438C-1.906,0.439 -1.904,0.44 -1.902,0.441C-1.885,0.448 -1.869,0.455 -1.855,0.455C-1.672,0.457 -1.488,0.457 -1.305,0.457L-1.129,0.457L-1.129,0.459L-0.917,0.46C-0.744,0.459 -0.57,0.46 -0.397,0.459C-0.255,0.458 -0.061,0.341 -0.051,0.218C-0.044,0.134 -0.022,0.052 0,-0.027M-0.376,0.28C-0.392,0.301 -0.415,0.313 -0.439,0.313C-0.539,0.316 -0.639,0.317 -0.74,0.317C-0.829,0.317 -0.918,0.317 -1.006,0.316L-1.1,0.315C-1.118,0.315 -1.143,0.304 -1.153,0.285C-1.168,0.259 -1.185,0.229 -1.183,0.2C-1.18,0.173 -1.156,0.119 -1.125,0.116C-1.024,0.107 -0.922,0.102 -0.823,0.098L-0.736,0.094C-0.706,0.095 -0.679,0.096 -0.652,0.098C-0.572,0.101 -0.497,0.105 -0.421,0.114C-0.382,0.118 -0.361,0.192 -0.361,0.193C-0.352,0.224 -0.358,0.256 -0.376,0.28" style="fill:rgb(87,200,223);fill-rule:nonzero;"/>
            </g>
            <g transform="matrix(1,0,0,1,19.3378,10.1705)">
                <path d="M0,-2.12C-0.185,-2.165 -0.348,-2.117 -0.549,-1.959C-0.609,-1.913 -0.668,-1.861 -0.725,-1.811C-0.844,-1.708 -0.966,-1.601 -1.105,-1.528C-1.256,-1.449 -1.402,-1.354 -1.543,-1.261C-1.761,-1.119 -1.986,-0.971 -2.238,-0.879C-2.248,-0.875 -2.257,-0.868 -2.259,-0.864C-2.264,-0.846 -2.273,-0.81 -2.27,-0.802C-2.221,-0.759 -2.165,-0.717 -2.111,-0.677L-2.069,-0.647C-2.046,-0.63 -2.027,-0.608 -2.009,-0.588C-1.974,-0.549 -1.944,-0.515 -1.897,-0.513L-1.794,-0.6C-1.566,-0.791 -1.343,-0.978 -1.121,-1.164C-1.111,-1.173 -1.099,-1.174 -1.089,-1.175C-1.085,-1.176 -1.079,-1.176 -1.077,-1.178C-1.058,-1.186 -1.034,-1.184 -1.012,-1.172C-0.982,-1.156 -0.96,-1.125 -0.956,-1.093C-0.949,-1.032 -0.938,-0.949 -1.009,-0.913C-1.116,-0.861 -1.202,-0.778 -1.286,-0.697C-1.378,-0.608 -1.474,-0.516 -1.598,-0.461C-1.635,-0.445 -1.665,-0.409 -1.696,-0.37C-1.708,-0.357 -1.719,-0.343 -1.731,-0.33C-1.697,-0.296 -1.665,-0.264 -1.633,-0.232C-1.55,-0.148 -1.471,-0.069 -1.39,0.009C-1.365,0.034 -1.341,0.045 -1.321,0.042C-1.299,0.039 -1.276,0.017 -1.254,-0.022L-1.206,-0.104C-1.043,-0.39 -0.874,-0.684 -0.647,-0.928C-0.436,-1.155 -0.283,-1.424 -0.136,-1.683C-0.073,-1.795 -0.007,-1.909 0.062,-2.02C0.074,-2.039 0.071,-2.056 0.066,-2.068C0.056,-2.092 0.03,-2.112 0,-2.12" style="fill:rgb(159,151,151);fill-rule:nonzero;"/>
            </g>
            <g transform="matrix(1,0,0,1,13.6818,11.8625)">
                <path d="M0,1.183C0.098,1.186 0.166,1.156 0.215,1.091C0.306,0.971 0.395,0.845 0.471,0.738C0.489,0.712 0.499,0.688 0.499,0.669C0.499,0.429 0.496,0.216 0.489,0.016C0.481,0.009 0.454,-0.003 0.445,-0.002C0.028,0.165 -0.519,0.396 -1.044,0.695C-1.075,0.712 -1.112,0.736 -1.134,0.767C-1.198,0.857 -1.262,0.954 -1.323,1.057C-1.338,1.082 -1.379,1.151 -1.37,1.167C-1.363,1.18 -1.303,1.181 -1.283,1.181C-1.112,1.182 -0.939,1.182 -0.767,1.181L-0.664,1.181C-0.539,1.181 -0.414,1.18 -0.286,1.18C-0.191,1.18 -0.095,1.18 0,1.183M-0.621,0.836C-0.633,0.822 -0.646,0.796 -0.64,0.757C-0.63,0.7 -0.593,0.666 -0.538,0.663C-0.476,0.659 -0.413,0.661 -0.353,0.661C-0.333,0.661 -0.314,0.661 -0.295,0.662L-0.295,0.652L-0.275,0.653C-0.249,0.654 -0.224,0.656 -0.199,0.657C-0.123,0.66 -0.046,0.663 0.03,0.671C0.068,0.675 0.09,0.747 0.091,0.749C0.1,0.779 0.096,0.809 0.079,0.833C0.064,0.854 0.04,0.868 0.015,0.869C-0.081,0.872 -0.177,0.874 -0.273,0.874C-0.366,0.874 -0.46,0.872 -0.553,0.869C-0.58,0.868 -0.605,0.856 -0.621,0.836" style="fill:rgb(87,200,223);fill-rule:nonzero;"/>
            </g>
            <g transform="matrix(1,0,0,1,5.81178,12.6205)">
                <path d="M0,-0.323L-0.002,-0.29C-0.01,-0.1 0.055,0.066 0.209,0.249C0.328,0.391 0.448,0.445 0.609,0.426C0.722,0.414 0.838,0.417 0.951,0.42C0.999,0.422 1.047,0.423 1.096,0.423C1.301,0.423 1.507,0.423 1.712,0.422C1.776,0.422 1.817,0.419 1.825,0.362C1.832,0.308 1.828,0.268 1.814,0.25C1.695,0.104 1.564,-0.048 1.375,-0.158C1.157,-0.284 0.922,-0.384 0.695,-0.48C0.491,-0.567 0.281,-0.655 0.083,-0.764C0.076,-0.768 0.058,-0.767 0.05,-0.766C0.04,-0.766 0.029,-0.766 0.018,-0.767C-0.017,-0.768 -0.038,-0.768 -0.052,-0.743C-0.066,-0.715 -0.071,-0.689 -0.068,-0.683C0.012,-0.57 0.006,-0.444 0,-0.323M0.418,-0.02C0.44,-0.062 0.46,-0.091 0.485,-0.091L0.507,-0.091C0.694,-0.091 0.89,-0.087 1.092,-0.078C1.123,-0.076 1.144,-0.015 1.144,0.009C1.144,0.034 1.125,0.093 1.094,0.097C1.005,0.109 0.914,0.116 0.826,0.123L0.729,0.13L0.728,0.114L0.676,0.115C0.612,0.115 0.548,0.115 0.485,0.114C0.466,0.114 0.446,0.099 0.431,0.073C0.415,0.046 0.404,0.007 0.418,-0.02" style="fill:rgb(87,200,223);fill-rule:nonzero;"/>
            </g>
            <g transform="matrix(1,0,0,1,13.0598,7.76745)">
                <path d="M0,0.412C0.107,0.436 0.216,0.456 0.321,0.476C0.366,0.484 0.41,0.492 0.453,0.5L0.504,0.5C0.555,0.501 0.563,0.495 0.565,0.493C0.566,0.491 0.568,0.481 0.544,0.435C0.535,0.417 0.527,0.398 0.52,0.38C0.506,0.343 0.492,0.309 0.469,0.289C0.418,0.243 0.386,0.183 0.356,0.125C0.312,0.041 0.271,-0.037 0.177,-0.068C0.113,-0.089 0.056,-0.063 -0.005,-0.034C-0.064,-0.006 -0.124,0.023 -0.194,0.01C-0.201,0.008 -0.21,0.009 -0.22,0.011C-0.224,0.012 -0.228,0.012 -0.233,0.013L-0.248,0.013C-0.255,0.013 -0.264,0.013 -0.267,0.016C-0.28,0.023 -0.306,0.041 -0.31,0.049C-0.3,0.166 -0.115,0.386 0,0.412" style="fill:rgb(30,71,84);fill-rule:nonzero;"/>
            </g>
            <g transform="matrix(1,0,0,1,6.67078,8.20045)">
                <path d="M0,-0.443C-0.095,-0.357 -0.15,-0.244 -0.204,-0.135C-0.23,-0.081 -0.258,-0.025 -0.29,0.028C-0.301,0.046 -0.301,0.051 -0.3,0.052C-0.3,0.052 -0.297,0.056 -0.28,0.06C-0.272,0.062 -0.265,0.063 -0.248,0.066C-0.237,0.068 -0.221,0.07 -0.2,0.073L-0.194,0.075C-0.172,0.086 -0.146,0.071 -0.106,0.046C-0.076,0.026 -0.041,0.005 -0.001,-0.002C0.051,-0.011 0.104,-0.013 0.155,-0.015C0.204,-0.017 0.255,-0.019 0.303,-0.027C0.332,-0.032 0.372,-0.062 0.391,-0.095C0.435,-0.167 0.471,-0.246 0.507,-0.322L0.524,-0.359C0.528,-0.369 0.529,-0.377 0.526,-0.384C0.522,-0.394 0.511,-0.4 0.502,-0.403C0.467,-0.416 0.432,-0.424 0.394,-0.432C0.335,-0.445 0.273,-0.459 0.214,-0.493C0.151,-0.529 0.074,-0.51 0,-0.443" style="fill:rgb(30,71,84);fill-rule:nonzero;"/>
            </g>
            <g transform="matrix(1,0,0,1,7.51878,10.2495)">
                <path d="M0,0.376C-0.259,0.255 -0.524,0.133 -0.779,0.016C-1.006,-0.088 -1.232,-0.192 -1.458,-0.297C-1.477,-0.305 -1.489,-0.308 -1.497,-0.308C-1.502,-0.308 -1.505,-0.307 -1.507,-0.306C-1.514,-0.302 -1.515,-0.289 -1.515,-0.281C-1.519,-0.193 -1.518,-0.103 -1.517,-0.015C-1.517,0.043 -1.516,0.101 -1.517,0.16C-1.519,0.291 -1.469,0.412 -1.361,0.541C-1.299,0.616 -1.224,0.684 -1.102,0.684C-1.093,0.684 -1.085,0.684 -1.076,0.683C-0.921,0.672 -0.762,0.675 -0.608,0.676C-0.543,0.678 -0.477,0.679 -0.412,0.679L-0.246,0.679C-0.082,0.679 0.084,0.679 0.251,0.678C0.315,0.677 0.35,0.672 0.356,0.662C0.375,0.629 0.358,0.609 0.308,0.576C0.301,0.571 0.294,0.566 0.288,0.562C0.2,0.495 0.104,0.425 0,0.376M-0.351,0.522C-0.45,0.532 -0.551,0.538 -0.657,0.544L-0.764,0.55L-0.765,0.55L-0.829,0.545C-0.925,0.538 -1.034,0.529 -1.14,0.516C-1.172,0.513 -1.19,0.45 -1.189,0.426C-1.187,0.397 -1.164,0.342 -1.134,0.339C-0.821,0.303 -0.57,0.305 -0.342,0.345C-0.311,0.351 -0.295,0.411 -0.296,0.435C-0.297,0.461 -0.319,0.519 -0.351,0.522" style="fill:rgb(87,200,223);fill-rule:nonzero;"/>
            </g>
            <g transform="matrix(1,0,0,1,1.83278,8.16145)">
                <path d="M0,1.881C0.029,1.936 0.064,1.987 0.09,2.026C0.095,2.034 0.103,2.043 0.112,2.044C0.118,2.046 0.126,2.043 0.134,2.036C0.169,2.01 0.204,1.984 0.24,1.957C0.308,1.906 0.378,1.854 0.445,1.8C0.483,1.77 0.503,1.729 0.502,1.687C0.502,1.643 0.479,1.602 0.438,1.571L0.289,1.46C0.154,1.358 0.017,1.255 -0.118,1.151C-0.193,1.093 -0.226,1.023 -0.216,0.945C-0.212,0.914 -0.196,0.885 -0.184,0.861C-0.174,0.844 -0.142,0.838 -0.125,0.846C-0.108,0.855 -0.091,0.862 -0.074,0.871C-0.025,0.894 0.026,0.919 0.069,0.953C0.231,1.085 0.389,1.217 0.555,1.358C0.615,1.408 0.676,1.46 0.738,1.512L1.115,1.152C0.62,0.941 0.204,0.666 -0.172,0.401C-0.28,0.325 -0.387,0.246 -0.491,0.17C-0.617,0.078 -0.748,-0.018 -0.878,-0.109C-0.932,-0.146 -0.984,-0.165 -1.034,-0.165C-1.081,-0.165 -1.125,-0.148 -1.17,-0.115C-1.221,-0.077 -1.259,-0.002 -1.232,0.041C-1.204,0.088 -1.172,0.133 -1.141,0.178C-1.082,0.264 -1.02,0.353 -0.98,0.451C-0.888,0.683 -0.73,0.872 -0.576,1.055C-0.548,1.09 -0.519,1.124 -0.49,1.159C-0.289,1.406 -0.129,1.642 0,1.881" style="fill:rgb(159,151,151);fill-rule:nonzero;"/>
            </g>
            <g transform="matrix(1,0,0,1,4.43078,17.1445)">
                <path d="M0,-12.359C0.006,-12.335 0.013,-12.311 0.02,-12.287C0.041,-12.214 0.063,-12.139 0.061,-12.059C0.058,-11.947 0.087,-11.837 0.114,-11.73C0.143,-11.617 0.173,-11.5 0.168,-11.378C0.232,-11.289 0.233,-11.188 0.233,-11.091C0.233,-11.027 0.234,-10.967 0.251,-10.91C0.297,-10.76 0.341,-10.6 0.327,-10.433C0.315,-10.29 0.345,-10.149 0.374,-10.013C0.395,-9.913 0.417,-9.809 0.423,-9.704C0.423,-9.694 0.426,-9.686 0.431,-9.684C0.436,-9.681 0.443,-9.683 0.451,-9.688C0.482,-9.709 0.515,-9.729 0.548,-9.748C0.613,-9.787 0.68,-9.827 0.738,-9.881C1.016,-10.146 1.035,-10.197 0.999,-10.56C0.993,-10.614 0.969,-10.656 0.944,-10.701C0.935,-10.718 0.925,-10.735 0.916,-10.752C0.841,-10.905 0.767,-11.059 0.694,-11.213C0.581,-11.447 0.464,-11.69 0.345,-11.926C0.295,-12.024 0.281,-12.122 0.302,-12.234C0.307,-12.265 0.345,-12.295 0.374,-12.302C0.403,-12.308 0.464,-12.296 0.472,-12.267C0.521,-12.088 0.609,-11.923 0.693,-11.764C0.715,-11.722 0.737,-11.681 0.758,-11.64C0.786,-11.586 0.814,-11.532 0.843,-11.479C0.955,-11.265 1.07,-11.044 1.154,-10.815C1.183,-10.736 1.208,-10.672 1.23,-10.618C1.344,-10.327 1.343,-10.321 1.153,-9.966L1.121,-9.909C1.072,-9.816 1.023,-9.761 0.971,-9.739C0.867,-9.695 0.794,-9.621 0.716,-9.543C0.69,-9.516 0.664,-9.491 0.637,-9.466C0.582,-9.414 0.526,-9.362 0.47,-9.31C0.304,-9.155 0.132,-8.995 -0.044,-8.844C-0.258,-8.661 -0.467,-8.466 -0.669,-8.277C-0.836,-8.121 -1.008,-7.96 -1.181,-7.806C-1.566,-7.467 -1.944,-7.109 -2.31,-6.763C-2.472,-6.61 -2.633,-6.457 -2.796,-6.305C-2.805,-6.296 -2.814,-6.286 -2.823,-6.276C-2.846,-6.251 -2.869,-6.226 -2.9,-6.213C-3.051,-6.154 -3.134,-6.035 -3.222,-5.908C-3.259,-5.855 -3.297,-5.8 -3.34,-5.751C-3.366,-5.722 -3.361,-5.7 -3.341,-5.66C-3.323,-5.626 -3.307,-5.591 -3.29,-5.557C-3.233,-5.438 -3.174,-5.314 -3.075,-5.219C-3.033,-5.179 -3.01,-5.176 -2.951,-5.202C-2.845,-5.252 -2.759,-5.334 -2.676,-5.414C-2.582,-5.505 -2.485,-5.598 -2.356,-5.648C-2.341,-5.653 -2.328,-5.668 -2.314,-5.684C-2.309,-5.69 -2.304,-5.697 -2.298,-5.702L-2.285,-5.715C-2.241,-5.763 -2.198,-5.807 -2.181,-5.873C-2.165,-5.932 -2.135,-5.988 -2.106,-6.041L-2.088,-6.074C-2.075,-6.099 -2.053,-6.117 -2.026,-6.125C-2,-6.133 -1.971,-6.131 -1.949,-6.119C-1.91,-6.098 -1.89,-6.035 -1.886,-5.999C-1.881,-5.95 -1.898,-5.898 -1.911,-5.863C-1.993,-5.65 -2.152,-5.465 -2.371,-5.329C-2.482,-5.261 -2.576,-5.174 -2.667,-5.091C-2.712,-5.049 -2.758,-5.007 -2.806,-4.967C-2.825,-4.95 -2.835,-4.935 -2.836,-4.921C-2.836,-4.9 -2.815,-4.876 -2.794,-4.854C-2.738,-4.798 -2.694,-4.731 -2.651,-4.666C-2.6,-4.587 -2.547,-4.506 -2.471,-4.444C-2.395,-4.382 -2.331,-4.357 -2.252,-4.357L-2.246,-4.357C-2.078,-4.359 -1.907,-4.358 -1.741,-4.358C-1.629,-4.359 -1.517,-4.358 -1.405,-4.359C-1.384,-4.359 -1.359,-4.365 -1.329,-4.375C-1.318,-4.38 -1.31,-4.386 -1.307,-4.395C-1.303,-4.404 -1.307,-4.414 -1.311,-4.421C-1.338,-4.469 -1.368,-4.518 -1.404,-4.562C-1.582,-4.774 -1.626,-5.037 -1.542,-5.368C-1.424,-5.825 -1.182,-6.237 -0.962,-6.58C-0.928,-6.632 -0.873,-6.673 -0.829,-6.705C-0.805,-6.723 -0.757,-6.703 -0.737,-6.688L-0.728,-6.682C-0.698,-6.66 -0.651,-6.626 -0.676,-6.566L-0.686,-6.54C-0.704,-6.492 -0.723,-6.442 -0.757,-6.405C-0.866,-6.283 -0.938,-6.137 -1.007,-5.995C-1.051,-5.907 -1.096,-5.815 -1.149,-5.73C-1.215,-5.626 -1.239,-5.507 -1.262,-5.393C-1.281,-5.299 -1.301,-5.203 -1.342,-5.114C-1.374,-5.044 -1.361,-4.95 -1.311,-4.88C-1.29,-4.852 -1.274,-4.82 -1.259,-4.789C-1.241,-4.754 -1.225,-4.722 -1.203,-4.694C-1.111,-4.577 -1.035,-4.45 -0.962,-4.326C-0.918,-4.253 -0.873,-4.177 -0.825,-4.105L-0.789,-4.05C-0.652,-3.842 -0.51,-3.627 -0.328,-3.448C-0.217,-3.339 -0.104,-3.29 0.039,-3.29L0.048,-3.29C0.402,-3.296 0.762,-3.295 1.111,-3.293C1.214,-3.292 1.317,-3.292 1.42,-3.291C1.432,-3.291 1.445,-3.292 1.458,-3.293C1.471,-3.293 1.486,-3.294 1.499,-3.294C1.536,-3.294 1.572,-3.29 1.601,-3.273C1.746,-3.183 1.879,-3.09 1.994,-2.995C2.197,-2.825 2.281,-2.584 2.362,-2.351C2.39,-2.27 2.412,-2.186 2.433,-2.105C2.475,-1.94 2.519,-1.769 2.618,-1.623C2.629,-1.606 2.628,-1.586 2.628,-1.567C2.628,-1.554 2.628,-1.541 2.631,-1.534C2.699,-1.386 2.739,-1.229 2.778,-1.077C2.802,-0.982 2.827,-0.883 2.859,-0.788C2.912,-0.628 2.965,-0.464 3.015,-0.305C3.065,-0.151 3.114,0.003 3.165,0.157L3.174,0.184C3.198,0.258 3.223,0.335 3.272,0.379C3.302,0.408 3.349,0.42 3.398,0.433C3.434,0.443 3.471,0.453 3.504,0.47C3.573,0.505 3.643,0.503 3.716,0.499C3.744,0.498 3.771,0.496 3.799,0.497C3.857,0.497 3.895,0.49 3.906,0.471C3.917,0.454 3.908,0.42 3.882,0.373L3.876,0.363C3.794,0.218 3.708,0.067 3.617,-0.076C3.582,-0.132 3.545,-0.215 3.629,-0.296C3.775,-0.438 3.836,-0.619 3.824,-0.883C3.816,-1.057 3.817,-1.235 3.819,-1.406C3.82,-1.498 3.821,-1.589 3.82,-1.68C3.819,-1.841 3.816,-1.841 3.628,-1.848C3.499,-1.85 3.409,-1.813 3.336,-1.721C3.32,-1.702 3.302,-1.691 3.282,-1.689L3.276,-1.689C3.248,-1.689 3.222,-1.707 3.201,-1.726C3.135,-1.781 3.132,-1.826 3.187,-1.895C3.293,-2.029 3.402,-2.083 3.542,-2.068C3.595,-2.063 3.651,-2.07 3.711,-2.08C3.754,-2.085 3.814,-2.167 3.82,-2.228C3.829,-2.315 3.81,-2.371 3.759,-2.408C3.742,-2.421 3.718,-2.431 3.709,-2.432C3.626,-2.369 3.529,-2.371 3.444,-2.379C3.433,-2.38 3.423,-2.38 3.413,-2.38C3.291,-2.38 3.209,-2.311 3.127,-2.208C3.11,-2.187 3.096,-2.164 3.083,-2.138C3.068,-2.113 3.053,-2.086 3.034,-2.062C3.014,-2.038 2.966,-2.029 2.936,-2.037C2.906,-2.046 2.872,-2.078 2.865,-2.107C2.854,-2.158 2.836,-2.236 2.892,-2.292C2.918,-2.318 2.944,-2.348 2.968,-2.377C3.034,-2.454 3.102,-2.533 3.189,-2.561C3.224,-2.572 3.259,-2.586 3.296,-2.6C3.39,-2.637 3.486,-2.675 3.595,-2.675L3.613,-2.675C3.711,-2.671 3.772,-2.67 3.797,-2.694C3.823,-2.72 3.822,-2.784 3.821,-2.901L3.82,-2.936C3.819,-3.041 3.818,-3.14 3.753,-3.237L3.742,-3.254C3.704,-3.311 3.679,-3.349 3.613,-3.349L3.334,-3.348C3.102,-3.348 2.87,-3.348 2.638,-3.347L2.637,-3.347C2.574,-3.347 2.523,-3.371 2.472,-3.425C2.449,-3.449 2.439,-3.48 2.444,-3.507C2.448,-3.529 2.462,-3.547 2.484,-3.557L2.5,-3.564C2.631,-3.624 2.779,-3.691 2.919,-3.624C3.033,-3.57 3.144,-3.571 3.262,-3.575C3.303,-3.576 3.345,-3.577 3.387,-3.575C3.42,-3.572 3.449,-3.59 3.468,-3.62C3.49,-3.655 3.493,-3.699 3.474,-3.736C3.423,-3.835 3.354,-3.879 3.251,-3.879L3.248,-3.879C2.892,-3.875 2.531,-3.876 2.18,-3.876L1.744,-3.876C1.714,-3.876 1.685,-3.875 1.655,-3.875C1.586,-3.875 1.52,-3.882 1.475,-3.927C1.439,-3.964 1.422,-4.021 1.424,-4.102C1.425,-4.124 1.394,-4.155 1.366,-4.181C1.351,-4.196 1.335,-4.212 1.323,-4.227C1.309,-4.244 1.293,-4.26 1.277,-4.277C1.231,-4.325 1.183,-4.374 1.175,-4.452C1.169,-4.51 1.151,-4.563 1.132,-4.62C1.104,-4.701 1.076,-4.784 1.086,-4.879C1.099,-5.013 1.092,-5.153 1.085,-5.288L1.081,-5.362C1.079,-5.4 1.055,-5.449 1.04,-5.454C0.932,-5.492 0.813,-5.523 0.668,-5.555C0.621,-5.564 0.566,-5.565 0.498,-5.555C0.238,-5.52 0.098,-5.696 -0.027,-5.85C-0.047,-5.875 -0.06,-5.911 -0.06,-5.942C-0.06,-6.089 -0.056,-6.217 -0.049,-6.337C-0.047,-6.359 -0.02,-6.371 0.025,-6.386L0.033,-6.389C0.057,-6.398 0.082,-6.396 0.1,-6.385C0.116,-6.375 0.127,-6.359 0.13,-6.339C0.142,-6.257 0.149,-6.175 0.156,-6.078C0.165,-5.953 0.222,-5.889 0.351,-5.858C0.39,-5.848 0.428,-5.837 0.465,-5.826C0.581,-5.793 0.691,-5.762 0.811,-5.775C0.886,-5.782 0.953,-5.76 1.031,-5.723C1.146,-5.669 1.266,-5.619 1.382,-5.571C1.502,-5.521 1.627,-5.469 1.747,-5.412C1.949,-5.317 2.16,-5.235 2.363,-5.155C2.451,-5.12 2.539,-5.086 2.627,-5.05C2.953,-4.918 3.179,-4.741 3.341,-4.493C3.43,-4.355 3.508,-4.209 3.583,-4.068C3.641,-3.959 3.701,-3.846 3.766,-3.739C4.042,-3.28 4.042,-3.25 4.042,-2.753L4.042,-0.84C4.043,-0.817 4.043,-0.775 4.051,-0.77C4.062,-0.762 4.114,-0.783 4.134,-0.791C4.206,-0.819 4.278,-0.819 4.347,-0.817C4.394,-0.817 4.44,-0.817 4.485,-0.825C4.503,-0.828 4.529,-0.851 4.531,-0.863C4.539,-0.91 4.539,-0.96 4.538,-1.008L4.538,-1.036C4.538,-2.319 4.538,-3.602 4.537,-4.885C4.537,-4.902 4.538,-4.919 4.539,-4.936C4.539,-4.977 4.541,-5.019 4.535,-5.058C4.527,-5.106 4.517,-5.172 4.486,-5.211C4.334,-5.4 4.161,-5.614 3.976,-5.811C3.861,-5.934 3.712,-5.997 3.534,-5.997L3.52,-5.997C3.216,-5.991 2.906,-5.991 2.607,-5.992C2.384,-5.992 2.153,-5.993 1.927,-5.991L1.923,-5.991C1.795,-5.991 1.708,-6.027 1.641,-6.109C1.609,-6.148 1.57,-6.187 1.518,-6.231C1.396,-6.336 1.34,-6.468 1.347,-6.635C1.353,-6.777 1.348,-6.919 1.341,-7.076C1.337,-7.166 1.254,-7.242 1.156,-7.247C1.12,-7.248 1.072,-7.249 1.025,-7.247C0.778,-7.233 0.569,-7.335 0.366,-7.566C0.27,-7.675 0.283,-7.797 0.295,-7.913C0.298,-7.946 0.347,-7.973 0.373,-7.978C0.403,-7.985 0.445,-7.974 0.467,-7.953C0.486,-7.935 0.494,-7.908 0.501,-7.884L0.505,-7.868C0.583,-7.616 0.658,-7.549 0.87,-7.541C1.018,-7.535 1.142,-7.533 1.267,-7.541C1.396,-7.549 1.524,-7.52 1.654,-7.452C1.702,-7.427 1.75,-7.399 1.797,-7.372C1.912,-7.304 2.031,-7.234 2.156,-7.207C2.246,-7.188 2.327,-7.147 2.405,-7.107C2.509,-7.055 2.607,-7.005 2.724,-7.003L2.729,-7.003L2.732,-7.001C2.821,-6.951 2.915,-6.907 3.006,-6.863C3.189,-6.776 3.378,-6.686 3.532,-6.551C3.833,-6.288 4.116,-5.995 4.391,-5.713C4.441,-5.661 4.491,-5.609 4.541,-5.558C4.632,-5.465 4.7,-5.359 4.732,-5.258C4.762,-5.168 4.761,-5.066 4.759,-4.968C4.759,-4.946 4.758,-4.925 4.758,-4.903C4.759,-4.37 4.759,-3.837 4.759,-3.305C4.759,-2.673 4.759,-2.04 4.76,-1.408C4.76,-1.278 4.767,-1.146 4.773,-1.018C4.776,-0.963 4.778,-0.908 4.78,-0.853C4.899,-0.805 5.021,-0.811 5.148,-0.817C5.22,-0.822 5.295,-0.826 5.369,-0.818C5.405,-0.815 5.442,-0.815 5.478,-0.816L5.657,-0.816C5.84,-0.817 6.024,-0.817 6.207,-0.819C6.29,-0.82 6.31,-0.843 6.312,-0.937C6.313,-1.009 6.312,-1.082 6.312,-1.153L6.312,-1.247C6.312,-1.569 6.313,-1.892 6.314,-2.214C6.315,-3.072 6.317,-3.958 6.304,-4.83C6.3,-5.113 6.412,-5.323 6.582,-5.551C6.6,-5.575 6.623,-5.596 6.645,-5.616C6.656,-5.626 6.667,-5.636 6.678,-5.646C6.755,-5.724 6.832,-5.8 6.91,-5.877C7.101,-6.067 7.3,-6.263 7.488,-6.462C7.607,-6.587 7.75,-6.669 7.887,-6.738C8.319,-6.955 8.771,-7.147 9.208,-7.332C9.309,-7.375 9.411,-7.418 9.512,-7.461C9.625,-7.51 9.724,-7.542 9.836,-7.542C9.843,-7.542 9.849,-7.542 9.855,-7.541C10.008,-7.536 10.163,-7.543 10.314,-7.549L10.384,-7.551C10.446,-7.554 10.498,-7.593 10.536,-7.667C10.548,-7.689 10.551,-7.717 10.555,-7.746C10.558,-7.776 10.563,-7.807 10.576,-7.835C10.602,-7.89 10.647,-7.941 10.696,-7.972C10.718,-7.987 10.756,-7.976 10.772,-7.97C10.79,-7.965 10.822,-7.951 10.831,-7.929C10.853,-7.869 10.857,-7.8 10.842,-7.748C10.736,-7.385 10.426,-7.291 10.168,-7.25C10.122,-7.242 10.074,-7.244 10.027,-7.245C10,-7.247 9.971,-7.248 9.945,-7.247C9.811,-7.243 9.803,-7.229 9.8,-7.121C9.799,-7.094 9.798,-7.067 9.797,-7.04C9.794,-6.95 9.791,-6.858 9.794,-6.768C9.806,-6.526 9.72,-6.324 9.526,-6.131C9.425,-6.032 9.321,-5.991 9.167,-5.991L9.16,-5.991C8.917,-5.993 8.671,-5.994 8.431,-5.993C8.162,-5.993 7.884,-5.993 7.611,-5.996L7.602,-5.996C7.443,-5.996 7.307,-5.943 7.187,-5.836C7.122,-5.777 7.06,-5.712 7,-5.649C6.951,-5.596 6.899,-5.541 6.845,-5.491C6.676,-5.331 6.599,-5.137 6.6,-4.878C6.605,-4.08 6.605,-3.268 6.605,-2.483C6.604,-2.027 6.604,-1.572 6.605,-1.118C6.605,-1.092 6.602,-1.063 6.599,-1.037C6.59,-0.96 6.582,-0.887 6.64,-0.846C6.693,-0.807 6.8,-0.832 6.885,-0.814C6.917,-0.807 6.947,-0.791 6.975,-0.775C6.998,-0.763 7.02,-0.751 7.043,-0.744C7.052,-0.743 7.08,-0.758 7.084,-0.767C7.093,-0.826 7.097,-0.893 7.097,-0.981C7.098,-1.674 7.098,-2.367 7.097,-3.061C7.097,-3.186 7.105,-3.319 7.191,-3.448C7.327,-3.65 7.438,-3.871 7.545,-4.085C7.579,-4.152 7.612,-4.219 7.647,-4.285C7.83,-4.642 8.119,-4.901 8.48,-5.037C8.779,-5.149 9.076,-5.279 9.362,-5.405C9.582,-5.501 9.81,-5.601 10.037,-5.692C10.146,-5.736 10.265,-5.779 10.398,-5.779C10.421,-5.778 10.445,-5.777 10.47,-5.774C10.514,-5.77 10.559,-5.765 10.586,-5.782C10.632,-5.81 10.682,-5.823 10.731,-5.835C10.781,-5.848 10.828,-5.86 10.864,-5.888C10.901,-5.916 10.917,-5.982 10.932,-6.045C10.938,-6.068 10.943,-6.09 10.949,-6.111C10.959,-6.142 10.965,-6.176 10.972,-6.209C10.979,-6.246 10.987,-6.285 10.999,-6.322C11.008,-6.349 11.025,-6.371 11.049,-6.383C11.072,-6.394 11.098,-6.396 11.125,-6.387C11.126,-6.387 11.199,-6.361 11.201,-6.322C11.203,-6.298 11.205,-6.274 11.208,-6.249C11.216,-6.167 11.224,-6.081 11.198,-6.007C11.191,-5.99 11.185,-5.973 11.18,-5.954C11.136,-5.823 11.086,-5.675 10.906,-5.639C10.825,-5.553 10.725,-5.553 10.625,-5.556C10.606,-5.557 10.586,-5.556 10.567,-5.556C10.423,-5.554 10.281,-5.569 10.154,-5.479C10.144,-5.472 10.133,-5.466 10.123,-5.459C10.081,-5.434 10.058,-5.417 10.06,-5.376C10.07,-5.225 10.045,-5.077 10.022,-4.933C10.006,-4.837 9.991,-4.737 9.985,-4.639C9.979,-4.54 9.942,-4.459 9.906,-4.382C9.894,-4.357 9.882,-4.331 9.872,-4.305C9.853,-4.26 9.82,-4.224 9.789,-4.19C9.751,-4.149 9.715,-4.111 9.701,-4.056C9.656,-3.895 9.519,-3.874 9.416,-3.874L9.41,-3.874C9.13,-3.877 8.846,-3.877 8.572,-3.877C8.324,-3.877 8.068,-3.877 7.817,-3.879L7.815,-3.879C7.721,-3.879 7.686,-3.836 7.648,-3.746C7.628,-3.7 7.629,-3.647 7.649,-3.613C7.662,-3.594 7.68,-3.583 7.702,-3.581C7.798,-3.576 7.897,-3.575 7.992,-3.574C8.042,-3.574 8.092,-3.573 8.142,-3.572L8.191,-3.571C8.32,-3.567 8.452,-3.564 8.582,-3.556C8.615,-3.554 8.638,-3.495 8.64,-3.472C8.643,-3.442 8.63,-3.393 8.602,-3.379C8.564,-3.36 8.516,-3.349 8.47,-3.349C8.318,-3.347 8.165,-3.347 8.012,-3.348C7.884,-3.349 7.757,-3.349 7.63,-3.348L7.628,-3.348C7.611,-3.348 7.593,-3.35 7.574,-3.351C7.506,-3.357 7.461,-3.359 7.44,-3.322C7.428,-3.3 7.414,-3.28 7.4,-3.258C7.358,-3.195 7.318,-3.136 7.321,-3.058C7.323,-3.006 7.323,-2.953 7.322,-2.902L7.322,-2.792C7.324,-2.698 7.328,-2.688 7.431,-2.676C7.616,-2.655 7.782,-2.594 7.958,-2.53L7.974,-2.523C8.12,-2.47 8.176,-2.359 8.231,-2.252C8.24,-2.233 8.25,-2.214 8.26,-2.195C8.269,-2.179 8.269,-2.152 8.201,-2.072C8.185,-2.054 8.168,-2.044 8.149,-2.043L8.146,-2.043C8.115,-2.043 8.09,-2.066 8.068,-2.086L8.061,-2.093C8.051,-2.101 8.039,-2.111 8.033,-2.124C7.954,-2.295 7.814,-2.376 7.594,-2.381C7.537,-2.383 7.453,-2.391 7.375,-2.424C7.35,-2.435 7.341,-2.433 7.338,-2.431C7.332,-2.427 7.33,-2.41 7.328,-2.397C7.327,-2.391 7.327,-2.387 7.326,-2.382C7.318,-2.341 7.32,-2.296 7.322,-2.255C7.328,-2.142 7.386,-2.078 7.489,-2.068C7.526,-2.065 7.564,-2.065 7.601,-2.063C7.651,-2.062 7.704,-2.061 7.755,-2.053C7.869,-2.037 7.954,-1.9 7.937,-1.761C7.933,-1.734 7.897,-1.699 7.883,-1.692L7.874,-1.687L7.861,-1.692C7.831,-1.709 7.786,-1.735 7.751,-1.772C7.658,-1.868 7.526,-1.885 7.36,-1.824C7.301,-1.803 7.305,-1.74 7.316,-1.646C7.32,-1.616 7.324,-1.586 7.323,-1.558C7.321,-1.4 7.321,-1.239 7.321,-1.083C7.322,-0.934 7.322,-0.781 7.319,-0.629C7.318,-0.531 7.344,-0.465 7.406,-0.409C7.564,-0.264 7.504,-0.098 7.446,0.014C7.361,0.178 7.294,0.313 7.235,0.44C7.235,0.446 7.248,0.472 7.256,0.48C7.284,0.482 7.313,0.486 7.342,0.489C7.428,0.499 7.517,0.509 7.592,0.486C7.753,0.434 7.88,0.381 7.925,0.204C7.985,-0.034 8.078,-0.266 8.168,-0.49C8.24,-0.669 8.288,-0.858 8.335,-1.04C8.383,-1.228 8.434,-1.422 8.508,-1.605C8.523,-1.642 8.537,-1.678 8.551,-1.715C8.583,-1.798 8.617,-1.885 8.657,-1.967C8.683,-2.018 8.688,-2.075 8.693,-2.135C8.701,-2.221 8.708,-2.31 8.78,-2.381C8.852,-2.744 9.065,-3.016 9.432,-3.211C9.526,-3.261 9.611,-3.294 9.718,-3.294L9.727,-3.294C9.92,-3.291 10.118,-3.291 10.31,-3.293C10.524,-3.294 10.747,-3.295 10.965,-3.29L10.99,-3.29C11.276,-3.29 11.473,-3.406 11.628,-3.664C11.747,-3.861 11.881,-4.053 12.01,-4.238C12.094,-4.358 12.18,-4.481 12.261,-4.605C12.341,-4.726 12.423,-4.851 12.457,-4.984C12.471,-5.043 12.455,-5.111 12.437,-5.182C12.427,-5.224 12.416,-5.267 12.412,-5.309C12.405,-5.378 12.386,-5.44 12.351,-5.508C12.284,-5.637 12.22,-5.77 12.157,-5.898C12.095,-6.027 12.031,-6.159 11.965,-6.288C11.943,-6.331 11.911,-6.37 11.879,-6.41C11.856,-6.438 11.832,-6.468 11.812,-6.499C11.797,-6.522 11.785,-6.585 11.81,-6.606C11.839,-6.633 11.887,-6.662 11.932,-6.662L11.933,-6.662C11.972,-6.662 12.038,-6.645 12.063,-6.607C12.091,-6.565 12.113,-6.519 12.135,-6.474C12.164,-6.413 12.192,-6.355 12.232,-6.306C12.443,-6.047 12.54,-5.735 12.634,-5.434C12.651,-5.38 12.668,-5.326 12.685,-5.273C12.767,-5.019 12.736,-4.824 12.589,-4.676C12.548,-4.635 12.519,-4.577 12.491,-4.522C12.48,-4.5 12.469,-4.478 12.457,-4.457C12.445,-4.436 12.445,-4.411 12.456,-4.392C12.467,-4.372 12.487,-4.361 12.511,-4.361C12.577,-4.36 12.642,-4.36 12.708,-4.359C12.919,-4.357 13.137,-4.355 13.351,-4.36C13.504,-4.365 13.637,-4.439 13.701,-4.556C13.746,-4.64 13.806,-4.708 13.869,-4.78C13.91,-4.827 13.953,-4.875 13.991,-4.929C13.974,-4.945 13.957,-4.962 13.94,-4.977C13.894,-5.021 13.85,-5.063 13.803,-5.1C13.761,-5.132 13.721,-5.166 13.679,-5.2C13.564,-5.295 13.446,-5.393 13.316,-5.463C13.138,-5.56 13.087,-5.719 13.039,-5.873C13.02,-5.935 12.999,-6 12.971,-6.058L12.966,-6.067L12.971,-6.076C12.978,-6.088 13.023,-6.121 13.05,-6.126C13.089,-6.134 13.209,-6.158 13.244,-6.027C13.295,-5.833 13.419,-5.671 13.601,-5.56C13.735,-5.477 13.849,-5.374 13.958,-5.274L14.011,-5.226C14.063,-5.179 14.101,-5.158 14.137,-5.162C14.168,-5.166 14.198,-5.192 14.232,-5.243C14.257,-5.281 14.281,-5.32 14.304,-5.358C14.326,-5.394 14.347,-5.43 14.37,-5.465C14.495,-5.655 14.488,-5.753 14.335,-5.902C14.251,-5.985 14.169,-6.069 14.086,-6.152C13.844,-6.398 13.593,-6.652 13.308,-6.863C13.113,-7.007 12.946,-7.185 12.764,-7.387C12.686,-7.474 12.591,-7.545 12.5,-7.614C12.407,-7.683 12.311,-7.755 12.232,-7.844C12.165,-7.917 12.086,-7.98 12.01,-8.041C11.897,-8.13 11.78,-8.222 11.7,-8.353C11.665,-8.41 11.608,-8.465 11.549,-8.499C11.382,-8.597 11.247,-8.732 11.117,-8.862C11.063,-8.916 11.008,-8.971 10.951,-9.023C10.869,-9.098 10.789,-9.179 10.713,-9.257C10.547,-9.425 10.377,-9.599 10.169,-9.725C10.111,-9.761 10.053,-9.817 10.007,-9.885C9.924,-10.006 9.836,-10.15 9.838,-10.336C9.841,-10.559 9.923,-10.748 10.006,-10.923C10.227,-11.386 10.447,-11.837 10.652,-12.255C10.665,-12.281 10.679,-12.295 10.698,-12.298C10.724,-12.303 10.747,-12.282 10.765,-12.265C10.77,-12.261 10.775,-12.256 10.78,-12.252C10.843,-12.204 10.864,-12.138 10.836,-12.075C10.677,-11.73 10.502,-11.354 10.287,-10.894C10.225,-10.761 10.16,-10.63 10.093,-10.503C10.058,-10.434 10.055,-10.368 10.084,-10.311C10.097,-10.285 10.11,-10.258 10.122,-10.231C10.158,-10.152 10.192,-10.077 10.259,-10.019C10.328,-9.96 10.396,-9.897 10.46,-9.836C10.513,-9.787 10.565,-9.738 10.619,-9.691C10.632,-9.679 10.662,-9.672 10.681,-9.677C10.698,-9.682 10.719,-9.706 10.72,-9.718C10.722,-9.747 10.724,-9.777 10.727,-9.807C10.736,-9.908 10.745,-10.012 10.732,-10.111C10.719,-10.2 10.748,-10.277 10.775,-10.352C10.797,-10.414 10.819,-10.473 10.818,-10.538C10.816,-10.743 10.838,-10.904 10.889,-11.06C10.94,-11.218 10.973,-11.397 10.982,-11.563C10.989,-11.681 11.014,-11.796 11.039,-11.908C11.073,-12.061 11.109,-12.22 11.093,-12.381C11.089,-12.416 11.11,-12.455 11.124,-12.474C11.173,-12.549 11.173,-12.63 11.172,-12.716C11.171,-12.746 11.171,-12.777 11.173,-12.808C11.174,-12.826 11.167,-12.85 11.156,-12.868C11.145,-12.868 11.123,-12.861 11.115,-12.854C11.057,-12.803 11,-12.749 10.945,-12.697C10.811,-12.571 10.674,-12.44 10.51,-12.341C10.442,-12.299 10.377,-12.247 10.314,-12.197C10.242,-12.139 10.167,-12.079 10.085,-12.034C9.933,-11.949 9.811,-11.835 9.71,-11.686C9.545,-11.445 9.332,-11.246 9.126,-11.054C9.088,-11.019 9.05,-10.983 9.012,-10.948C8.875,-10.818 8.724,-10.759 8.56,-10.775C8.503,-10.78 8.444,-10.778 8.388,-10.777C8.343,-10.776 8.297,-10.775 8.252,-10.776C8.13,-10.78 8.039,-10.767 7.946,-10.678C7.819,-10.556 7.647,-10.499 7.451,-10.51C7.313,-10.518 7.172,-10.515 7.035,-10.512C6.983,-10.512 6.93,-10.511 6.878,-10.51C6.812,-10.51 6.785,-10.485 6.785,-10.429C6.786,-10.34 6.786,-10.25 6.786,-10.16C6.786,-9.999 6.786,-9.838 6.788,-9.677C6.788,-9.616 6.815,-9.587 6.873,-9.587C6.975,-9.588 7.077,-9.589 7.179,-9.59C7.427,-9.594 7.685,-9.598 7.936,-9.58C8.045,-9.571 8.152,-9.599 8.254,-9.626C8.359,-9.653 8.466,-9.683 8.582,-9.672C8.621,-9.669 8.668,-9.693 8.712,-9.715L8.733,-9.726C8.816,-9.766 8.875,-9.728 8.914,-9.696C9.102,-9.536 9.239,-9.368 9.333,-9.183C9.363,-9.123 9.399,-9.065 9.434,-9.008C9.466,-8.956 9.499,-8.902 9.528,-8.847C9.548,-8.809 9.545,-8.759 9.519,-8.717C9.496,-8.678 9.46,-8.654 9.422,-8.654C9.366,-8.653 9.309,-8.655 9.253,-8.657C9.148,-8.659 9.041,-8.662 8.937,-8.653C8.854,-8.645 8.781,-8.674 8.712,-8.701C8.646,-8.727 8.582,-8.754 8.514,-8.747C8.403,-8.74 8.314,-8.8 8.257,-8.92C8.247,-8.941 8.237,-8.962 8.227,-8.984C8.178,-9.091 8.127,-9.202 8.037,-9.286L8.028,-9.295C7.989,-9.33 7.956,-9.362 7.901,-9.362L7.9,-9.362C7.754,-9.361 7.608,-9.36 7.462,-9.36C7.254,-9.359 7.047,-9.358 6.839,-9.356C6.825,-9.356 6.796,-9.333 6.794,-9.323C6.768,-9.083 6.775,-8.806 7.015,-8.578C7.349,-8.262 7.347,-8.238 7.327,-7.831L7.325,-7.797C7.321,-7.719 7.302,-7.652 7.263,-7.582C7.193,-7.456 7.127,-7.325 7.064,-7.198C7.031,-7.132 6.998,-7.067 6.964,-7.002L6.952,-6.979C6.93,-6.934 6.907,-6.887 6.871,-6.851C6.836,-6.815 6.769,-6.809 6.742,-6.808L6.74,-6.808C6.709,-6.808 6.668,-6.851 6.665,-6.88C6.651,-7.003 6.608,-7.121 6.567,-7.235C6.536,-7.321 6.504,-7.409 6.484,-7.5C6.475,-7.537 6.467,-7.575 6.459,-7.612C6.422,-7.782 6.384,-7.958 6.319,-8.123C6.303,-8.164 6.312,-8.224 6.346,-8.304C6.37,-8.362 6.4,-8.417 6.428,-8.471C6.447,-8.506 6.467,-8.541 6.484,-8.578C6.524,-8.66 6.553,-8.736 6.502,-8.838C6.475,-8.892 6.481,-8.961 6.487,-9.027C6.49,-9.054 6.492,-9.083 6.492,-9.109L6.492,-9.429C6.492,-9.701 6.492,-9.982 6.489,-10.259C6.488,-10.28 6.491,-10.303 6.492,-10.325C6.499,-10.391 6.506,-10.453 6.451,-10.488C6.424,-10.506 6.384,-10.508 6.343,-10.51C6.31,-10.512 6.277,-10.514 6.246,-10.524C6.189,-10.542 6.133,-10.576 6.093,-10.618C6.067,-10.645 6.05,-10.68 6.034,-10.714C6.024,-10.733 6.015,-10.753 6.003,-10.77C5.911,-10.916 5.804,-10.973 5.659,-10.955C5.581,-10.945 5.499,-10.947 5.421,-10.949C5.382,-10.95 5.343,-10.95 5.303,-10.951C5.252,-10.95 5.222,-10.931 5.188,-10.873C5.08,-10.695 4.969,-10.511 4.71,-10.506C4.647,-10.505 4.601,-10.436 4.588,-10.369C4.578,-10.318 4.579,-10.262 4.58,-10.209C4.58,-10.19 4.581,-10.171 4.581,-10.153C4.58,-10.021 4.581,-9.89 4.581,-9.759C4.582,-9.467 4.583,-9.166 4.578,-8.869C4.576,-8.746 4.58,-8.617 4.662,-8.508C4.754,-8.384 4.763,-8.243 4.76,-8.121C4.756,-7.988 4.725,-7.868 4.692,-7.74L4.679,-7.692C4.667,-7.645 4.648,-7.601 4.63,-7.559C4.596,-7.482 4.565,-7.409 4.571,-7.323C4.576,-7.249 4.549,-7.179 4.524,-7.113C4.498,-7.045 4.471,-6.976 4.478,-6.902C4.482,-6.851 4.439,-6.808 4.375,-6.8C4.295,-6.789 4.238,-6.81 4.202,-6.863C4.19,-6.88 4.185,-6.899 4.18,-6.918C4.178,-6.929 4.175,-6.939 4.171,-6.949C4.086,-7.153 3.983,-7.388 3.839,-7.601C3.681,-7.835 3.679,-8.214 3.952,-8.416C4.006,-8.457 4.054,-8.508 4.101,-8.558C4.124,-8.582 4.147,-8.607 4.171,-8.631C4.201,-8.66 4.221,-8.697 4.241,-8.734C4.255,-8.759 4.269,-8.784 4.286,-8.807C4.37,-8.921 4.362,-9.04 4.353,-9.165C4.35,-9.212 4.346,-9.26 4.348,-9.308C4.349,-9.322 4.342,-9.331 4.336,-9.337C4.323,-9.351 4.3,-9.36 4.276,-9.36L4.275,-9.36C4.146,-9.359 4.016,-9.359 3.886,-9.359C3.651,-9.359 3.408,-9.359 3.17,-9.356C3.141,-9.356 3.099,-9.332 3.079,-9.305C3.055,-9.271 3.036,-9.233 3.017,-9.192C3.004,-9.166 2.991,-9.14 2.977,-9.115C2.813,-8.833 2.716,-8.76 2.396,-8.68C2.343,-8.667 2.285,-8.66 2.218,-8.658C2.048,-8.653 1.867,-8.648 1.687,-8.652C1.641,-8.653 1.586,-8.677 1.559,-8.71C1.527,-8.748 1.532,-8.808 1.573,-8.853C1.583,-8.865 1.594,-8.877 1.606,-8.889C1.635,-8.919 1.665,-8.951 1.679,-8.985C1.754,-9.185 1.886,-9.349 2.014,-9.507C2.031,-9.528 2.049,-9.549 2.066,-9.571C2.135,-9.658 2.239,-9.788 2.404,-9.683C2.51,-9.684 2.609,-9.66 2.707,-9.635C2.791,-9.613 2.872,-9.592 2.955,-9.589C3.269,-9.578 3.59,-9.582 3.899,-9.585C4.026,-9.587 4.154,-9.588 4.281,-9.589C4.32,-9.589 4.343,-9.61 4.35,-9.65C4.356,-9.692 4.358,-9.735 4.355,-9.778C4.348,-9.865 4.352,-9.954 4.356,-10.04C4.362,-10.191 4.368,-10.347 4.32,-10.495C4.253,-10.497 4.187,-10.5 4.121,-10.502C3.961,-10.508 3.795,-10.514 3.631,-10.509C3.473,-10.503 3.306,-10.52 3.183,-10.679C3.123,-10.756 3.042,-10.787 2.927,-10.777C2.884,-10.774 2.839,-10.775 2.797,-10.776C2.753,-10.777 2.707,-10.779 2.662,-10.775C2.426,-10.75 2.222,-10.835 2.024,-11.04C1.805,-11.267 1.603,-11.473 1.405,-11.672C1.369,-11.709 1.333,-11.747 1.297,-11.785C1.203,-11.886 1.105,-11.99 0.993,-12.066C0.627,-12.309 0.344,-12.536 0.103,-12.78C0.068,-12.817 0.022,-12.82 -0.02,-12.816L-0.016,-12.804L-0.024,-12.807C-0.023,-12.768 -0.023,-12.729 -0.024,-12.69C-0.025,-12.579 -0.027,-12.463 0,-12.359" style="fill:rgb(134,128,153);fill-rule:nonzero;"/>
            </g>
            <g transform="matrix(1,0,0,1,10.1768,19.1265)">
                <path d="M0,0.012C0,0.011 0.002,0.01 0.003,0.008C0.002,0.008 0.002,0.005 0.001,0.002C0.001,0.002 0.001,0.001 0,0C-0.002,0.002 -0.003,0.004 -0.005,0.005C-0.003,0.009 -0.001,0.011 0,0.012" style="fill:rgb(123,127,129);fill-rule:nonzero;"/>
            </g>
            <g transform="matrix(1,0,0,1,6.82278,13.8965)">
                <path d="M0,2.255C0.02,2.29 0.039,2.326 0.058,2.361C0.077,2.397 0.104,2.427 0.133,2.46C0.143,2.471 0.153,2.482 0.162,2.493C0.166,2.498 0.175,2.503 0.179,2.503C0.18,2.502 0.188,2.492 0.189,2.484L0.193,2.469C0.197,2.448 0.203,2.424 0.197,2.41C0.143,2.277 0.105,2.135 0.069,1.998C0.025,1.835 -0.019,1.667 -0.093,1.511C-0.117,1.461 -0.132,1.411 -0.146,1.361C-0.152,1.343 -0.157,1.324 -0.163,1.305C-0.233,1.087 -0.311,0.87 -0.396,0.659C-0.504,0.39 -0.716,0.251 -1.027,0.248C-1.485,0.242 -1.87,0.24 -2.261,0.25L-2.282,0.25C-2.462,0.25 -2.617,0.192 -2.753,0.075C-2.839,0.001 -2.921,-0.08 -3.001,-0.158C-3.032,-0.187 -3.063,-0.217 -3.094,-0.248C-3.187,-0.157 -3.278,-0.068 -3.367,0.02C-3.591,0.238 -3.802,0.444 -4.018,0.65C-4.11,0.737 -4.1,0.841 -4.089,0.952L-4.088,0.96C-4.087,0.972 -4.065,0.994 -4.045,1.004C-4.028,1.012 -4.003,1.011 -3.98,1.011L-3.966,1.011C-3.055,1.011 -2.144,1.012 -1.233,1.011C-1.182,1.011 -1.129,1.002 -1.078,0.994L-1.063,0.992C-1.022,0.985 -0.983,0.982 -0.946,0.982C-0.779,0.982 -0.649,1.048 -0.565,1.175C-0.549,1.201 -0.528,1.227 -0.508,1.251C-0.459,1.312 -0.409,1.375 -0.406,1.442C-0.402,1.552 -0.344,1.627 -0.283,1.707C-0.239,1.765 -0.193,1.825 -0.169,1.898C-0.13,2.022 -0.064,2.14 0,2.255" style="fill:rgb(71,72,114);fill-rule:nonzero;"/>
            </g>
            <g transform="matrix(1,0,0,1,8.20478,19.8375)">
                <path d="M0,-1.884L0,-1.822C-0.001,-1.683 -0.002,-1.54 0.001,-1.4C0.003,-1.324 0.018,-1.26 0.05,-1.2C0.185,-0.94 0.317,-0.672 0.444,-0.414L0.534,-0.231C0.592,-0.115 0.679,-0.018 0.818,0.084C0.821,0.086 0.829,0.087 0.832,0.085C0.839,0.081 0.847,0.071 0.847,0.068C0.848,-0.152 0.848,-0.372 0.848,-0.592L0.848,-0.744L0.858,-0.744C0.858,-0.815 0.857,-0.887 0.856,-0.959C0.854,-1.142 0.851,-1.331 0.862,-1.518C0.87,-1.66 0.802,-1.71 0.689,-1.746C0.673,-1.751 0.658,-1.758 0.643,-1.764C0.618,-1.776 0.595,-1.786 0.572,-1.788C0.481,-1.795 0.428,-1.835 0.397,-1.923C0.391,-1.94 0.345,-1.962 0.307,-1.966C0.277,-1.97 0.246,-1.971 0.215,-1.971C0.192,-1.971 0.169,-1.971 0.145,-1.97C0.127,-1.97 0.109,-1.969 0.09,-1.969C0.029,-1.968 0,-1.941 0,-1.884" style="fill:rgb(159,151,151);fill-rule:nonzero;"/>
            </g>
            <g transform="matrix(1,0,0,1,17.2578,15.1735)">
                <path d="M0,-0.297C0.018,-0.321 0.025,-0.355 0.018,-0.385C-0.015,-0.532 -0.081,-0.651 -0.183,-0.75C-0.367,-0.927 -0.55,-1.105 -0.742,-1.292C-0.821,-1.37 -0.903,-1.449 -0.986,-1.531C-1.006,-1.511 -1.026,-1.491 -1.046,-1.471C-1.174,-1.342 -1.306,-1.209 -1.476,-1.117C-1.576,-1.063 -1.659,-1.029 -1.765,-1.029L-1.768,-1.029C-1.92,-1.03 -2.071,-1.029 -2.222,-1.029C-2.478,-1.028 -2.743,-1.027 -3.003,-1.035C-3.013,-1.036 -3.024,-1.036 -3.034,-1.036C-3.192,-1.036 -3.331,-0.995 -3.444,-0.914C-3.58,-0.818 -3.748,-0.698 -3.75,-0.48L-3.752,-0.473C-3.889,-0.125 -4.007,0.237 -4.121,0.588C-4.186,0.788 -4.253,0.994 -4.323,1.196C-4.33,1.215 -4.33,1.222 -4.328,1.225C-4.328,1.225 -4.325,1.228 -4.312,1.231C-4.29,1.234 -4.262,1.23 -4.243,1.219C-4.175,1.181 -4.146,1.114 -4.116,1.044C-4.106,1.021 -4.096,0.997 -4.085,0.976C-3.976,0.765 -3.868,0.548 -3.764,0.339C-3.709,0.229 -3.654,0.118 -3.599,0.007C-3.534,-0.12 -3.435,-0.211 -3.277,-0.288C-3.164,-0.343 -3.088,-0.326 -2.98,-0.274C-2.941,-0.256 -2.887,-0.259 -2.833,-0.262C-2.812,-0.264 -2.791,-0.265 -2.77,-0.265L-0.213,-0.265C-0.155,-0.265 -0.096,-0.269 -0.039,-0.273C-0.025,-0.274 -0.011,-0.282 0,-0.297" style="fill:rgb(71,72,114);fill-rule:nonzero;"/>
            </g>
            <g transform="matrix(1,0,0,1,11.5888,18.4415)">
                <path d="M0,-1.627L-0.05,-1.678C-0.202,-1.833 -0.37,-1.902 -0.58,-1.895C-0.808,-1.887 -1.04,-1.888 -1.263,-1.89C-1.468,-1.892 -1.672,-1.892 -1.876,-1.891C-2.131,-1.89 -2.395,-1.89 -2.655,-1.893L-2.666,-1.893C-2.825,-1.893 -2.956,-1.841 -3.077,-1.73C-3.329,-1.501 -3.334,-1.455 -3.131,-1.186C-3.095,-1.139 -3.052,-1.127 -3.003,-1.153C-2.968,-1.17 -2.934,-1.19 -2.9,-1.209C-2.858,-1.233 -2.816,-1.256 -2.773,-1.278C-2.699,-1.314 -2.466,-1.255 -2.354,-1.185C-2.339,-1.175 -2.333,-1.153 -2.33,-1.137C-2.329,-1.124 -2.326,-1.093 -2.34,-1.076C-2.403,-1.004 -2.485,-1.009 -2.557,-1.015C-2.577,-1.017 -2.596,-1.018 -2.615,-1.018C-2.624,-1.018 -2.633,-1.018 -2.642,-1.017C-2.656,-1.015 -2.671,-1.017 -2.685,-1.015C-2.759,-1.005 -2.833,-0.933 -2.843,-0.86C-2.855,-0.766 -2.825,-0.69 -2.757,-0.647C-2.713,-0.619 -2.664,-0.599 -2.612,-0.579C-2.57,-0.561 -2.525,-0.543 -2.484,-0.521C-2.364,-0.453 -2.227,-0.352 -2.233,-0.164C-2.235,-0.084 -2.202,-0.017 -2.168,0.052C-2.152,0.085 -2.135,0.119 -2.122,0.155C-2.094,0.234 -2.027,0.275 -1.934,0.274C-1.781,0.269 -1.625,0.27 -1.474,0.271L-1.228,0.271C-1.173,0.271 -1.136,0.259 -1.111,0.199C-1.092,0.153 -1.07,0.107 -1.049,0.063C-1.003,-0.032 -0.956,-0.13 -0.935,-0.238C-0.901,-0.411 -0.778,-0.537 -0.579,-0.602C-0.558,-0.608 -0.535,-0.61 -0.514,-0.612C-0.505,-0.612 -0.497,-0.613 -0.488,-0.614C-0.432,-0.621 -0.416,-0.656 -0.406,-0.719C-0.401,-0.759 -0.391,-0.799 -0.376,-0.848C-0.364,-0.886 -0.372,-0.931 -0.396,-0.967C-0.413,-0.993 -0.437,-1.009 -0.462,-1.01C-0.51,-1.014 -0.56,-1.015 -0.607,-1.017C-0.661,-1.018 -0.716,-1.02 -0.77,-1.025C-0.802,-1.027 -0.833,-1.071 -0.839,-1.098C-0.846,-1.121 -0.841,-1.186 -0.811,-1.197C-0.784,-1.208 -0.756,-1.223 -0.727,-1.239C-0.631,-1.292 -0.522,-1.352 -0.396,-1.237C-0.367,-1.211 -0.326,-1.194 -0.287,-1.177C-0.274,-1.172 -0.261,-1.167 -0.248,-1.161C-0.172,-1.126 -0.07,-1.109 -0.013,-1.229C0.022,-1.303 0.053,-1.355 0.076,-1.393C0.135,-1.491 0.135,-1.491 0,-1.627" style="fill:rgb(30,71,84);fill-rule:nonzero;"/>
            </g>
            <g transform="matrix(1,0,0,1,10.9458,19.1845)">
                <path d="M0,-0.6C0.002,-0.464 0.001,-0.328 0.001,-0.192L0.001,-0.01L-0.002,-0.01L-0.002,0.14C-0.002,0.3 -0.003,0.467 0,0.629C0,0.684 0.013,0.726 0.022,0.73C0.052,0.742 0.068,0.728 0.099,0.69C0.109,0.678 0.12,0.666 0.131,0.656C0.17,0.622 0.196,0.592 0.213,0.563L0.263,0.476C0.345,0.333 0.43,0.185 0.504,0.036C0.588,-0.135 0.667,-0.312 0.744,-0.482C0.771,-0.544 0.799,-0.606 0.827,-0.667C0.838,-0.691 0.849,-0.718 0.849,-0.742C0.851,-0.897 0.852,-1.08 0.848,-1.267C0.848,-1.279 0.824,-1.307 0.815,-1.31C0.78,-1.31 0.743,-1.315 0.708,-1.319C0.612,-1.331 0.519,-1.342 0.451,-1.276C0.356,-1.185 0.244,-1.133 0.136,-1.082C0.116,-1.074 0.097,-1.064 0.078,-1.055C-0.059,-0.989 -0.061,-0.984 -0.018,-0.774C-0.007,-0.719 -0.001,-0.66 0,-0.6" style="fill:rgb(159,151,151);fill-rule:nonzero;"/>
            </g>
            <g transform="matrix(1,0,0,1,2.71978,7.24245)">
                <path d="M0,0.051C0.026,0.104 0.064,0.153 0.099,0.201L0.12,0.228C0.162,0.285 0.205,0.341 0.248,0.398C0.494,0.722 0.748,1.057 0.911,1.453C1.023,1.339 1.129,1.231 1.236,1.123L1.261,1.096C1.145,0.869 0.965,0.683 0.76,0.481L0.711,0.433C0.644,0.367 0.574,0.3 0.513,0.227C0.467,0.172 0.43,0.11 0.395,0.049C0.387,0.035 0.378,0.02 0.369,0.005C0.362,-0.006 0.339,-0.049 0.349,-0.083C0.36,-0.116 0.389,-0.144 0.413,-0.16C0.435,-0.174 0.48,-0.185 0.505,-0.17C0.595,-0.114 0.649,-0.028 0.701,0.055C0.734,0.107 0.768,0.161 0.81,0.205C0.873,0.271 0.939,0.336 1.003,0.398C1.166,0.557 1.336,0.722 1.457,0.926C1.464,0.933 1.499,0.938 1.508,0.934C1.528,0.916 1.55,0.899 1.571,0.881C1.707,0.769 1.835,0.663 1.831,0.462C1.83,0.422 1.849,0.384 1.868,0.347C1.877,0.329 1.886,0.311 1.893,0.294C1.928,0.197 1.887,0.118 1.843,0.035C1.827,0.005 1.811,-0.027 1.798,-0.058C1.794,-0.065 1.762,-0.075 1.744,-0.072C1.575,-0.045 1.439,-0.131 1.325,-0.214C1.085,-0.386 0.817,-0.547 0.507,-0.704C0.471,-0.721 0.439,-0.745 0.407,-0.768C0.392,-0.78 0.377,-0.791 0.361,-0.802C0.294,-0.847 0.226,-0.892 0.16,-0.938C-0.058,-1.085 -0.283,-1.237 -0.508,-1.382C-0.53,-1.396 -0.562,-1.402 -0.596,-1.402C-0.618,-1.402 -0.641,-1.399 -0.661,-1.395C-0.695,-1.387 -0.727,-1.367 -0.76,-1.346C-0.777,-1.335 -0.793,-1.325 -0.81,-1.316C-0.847,-1.296 -0.867,-1.276 -0.871,-1.256C-0.875,-1.235 -0.863,-1.209 -0.834,-1.175C-0.477,-0.757 -0.204,-0.356 0,0.051" style="fill:rgb(71,72,114);fill-rule:nonzero;"/>
            </g>
            <g transform="matrix(1,0,0,1,9.39278,0.951455)">
                <path d="M0,3.028C-0.088,3.388 -0.072,3.446 0.189,3.712L0.282,3.808C0.324,3.85 0.366,3.871 0.423,3.871C0.445,3.87 0.468,3.869 0.492,3.869C0.532,3.869 0.577,3.87 0.636,3.87C0.797,3.903 0.94,3.841 1.045,3.694C1.079,3.646 1.122,3.6 1.171,3.562C1.254,3.497 1.281,3.401 1.243,3.306C1.172,3.126 1.181,2.948 1.171,2.761C1.161,2.551 1.117,2.34 1.092,2.132C1.041,1.726 0.997,1.318 0.981,0.909C0.98,0.886 0.979,0.859 0.969,0.845C0.901,0.751 0.902,0.648 0.904,0.548C0.905,0.515 0.905,0.482 0.903,0.45C0.9,0.408 0.903,0.365 0.905,0.323C0.909,0.243 0.913,0.168 0.887,0.105C0.82,-0.059 0.818,-0.227 0.815,-0.389C0.814,-0.456 0.813,-0.526 0.807,-0.594C0.806,-0.609 0.806,-0.624 0.806,-0.64C0.806,-0.654 0.806,-0.668 0.805,-0.682C0.794,-0.808 0.724,-0.873 0.596,-0.875C0.57,-0.875 0.539,-0.875 0.511,-0.871C0.442,-0.864 0.415,-0.84 0.414,-0.786C0.413,-0.743 0.415,-0.697 0.417,-0.653C0.423,-0.545 0.428,-0.434 0.389,-0.341C0.283,-0.081 0.32,0.262 0.296,0.538C0.256,0.978 0.154,1.416 0.136,1.853C0.13,1.995 0.123,2.143 0.074,2.293C0.035,2.416 0.039,2.557 0.043,2.694C0.046,2.763 0.048,2.834 0.044,2.903C0.043,2.93 0.031,2.955 0.019,2.98C0.012,2.996 0.004,3.012 0,3.028" style="fill:rgb(134,128,153);fill-rule:nonzero;"/>
            </g>
            <g transform="matrix(1,0,0,1,11.0538,9.30645)">
                <path d="M0,-0.097C0.049,0.004 0.075,0.115 0.099,0.221C0.123,0.322 0.146,0.426 0.191,0.523C0.207,0.496 0.224,0.468 0.24,0.441C0.289,0.356 0.339,0.268 0.4,0.19C0.494,0.07 0.49,-0.063 0.475,-0.21C0.46,-0.368 0.218,-0.62 0.112,-0.62L0.108,-0.62C0.107,-0.62 0.1,-0.619 0.089,-0.605C0.033,-0.538 -0.029,-0.304 -0.012,-0.176C-0.011,-0.168 -0.01,-0.159 -0.01,-0.15C-0.008,-0.13 -0.007,-0.111 0,-0.097" style="fill:rgb(87,200,223);fill-rule:nonzero;"/>
            </g>
            <g transform="matrix(1,0,0,1,13.7368,6.09345)">
                <path d="M0,-5.317C-0.026,-5.328 -0.053,-5.339 -0.078,-5.352C-0.115,-5.372 -0.143,-5.366 -0.224,-5.217C-0.287,-5.101 -0.35,-4.986 -0.413,-4.87C-0.51,-4.694 -0.606,-4.518 -0.701,-4.341C-0.807,-4.144 -0.909,-3.939 -1.006,-3.741C-1.174,-3.403 -1.347,-3.054 -1.549,-2.727C-1.594,-2.654 -1.639,-2.565 -1.629,-2.453C-1.624,-2.393 -1.625,-2.331 -1.626,-2.272C-1.626,-2.229 -1.627,-2.186 -1.626,-2.143C-1.623,-2.079 -1.586,-2.029 -1.513,-1.992C-1.502,-1.987 -1.487,-1.985 -1.471,-1.983C-1.459,-1.982 -1.445,-1.981 -1.432,-1.977C-1.231,-1.918 -1.19,-1.871 -1.189,-1.699C-1.187,-1.511 -1.187,-1.321 -1.188,-1.138L-1.188,-0.923L-1.187,-0.905C-1.187,-0.832 -1.186,-0.76 -1.186,-0.687C-1.186,-0.527 -1.185,-0.362 -1.187,-0.199L-1.188,-0.161C-1.189,-0.055 -1.19,0.004 -1.165,0.029C-1.139,0.055 -1.075,0.055 -0.951,0.053C-0.878,0.053 -0.805,0.049 -0.733,0.043C-0.712,0.041 -0.698,0.028 -0.691,0.017C-0.669,-0.014 -0.664,-0.067 -0.679,-0.12C-0.721,-0.27 -0.716,-0.407 -0.664,-0.516C-0.613,-0.624 -0.61,-0.73 -0.608,-0.849C-0.607,-0.909 -0.584,-0.96 -0.562,-1.009C-0.537,-1.064 -0.513,-1.117 -0.518,-1.181C-0.527,-1.292 -0.497,-1.398 -0.468,-1.501C-0.439,-1.605 -0.409,-1.712 -0.415,-1.835C-0.338,-1.928 -0.337,-2.036 -0.349,-2.11C-0.367,-2.217 -0.303,-2.337 -0.281,-2.44C-0.165,-3.001 -0.12,-3.612 0.044,-4.159C0.077,-4.269 0.108,-4.372 0.101,-4.486C0.096,-4.553 0.095,-4.622 0.125,-4.668C0.187,-4.763 0.187,-4.864 0.188,-4.97C0.188,-5.009 0.188,-5.048 0.192,-5.087C0.204,-5.232 0.109,-5.271 0,-5.317" style="fill:rgb(71,72,114);fill-rule:nonzero;"/>
            </g>
            <g transform="matrix(1,0,0,1,8.35678,5.18745)">
                <path d="M0,-0.778C0.305,-0.503 0.546,-0.171 0.779,0.151L0.87,0.276C0.897,0.373 0.963,0.443 1.033,0.517C1.094,0.582 1.158,0.65 1.193,0.738C1.2,0.754 1.247,0.773 1.286,0.776C1.359,0.781 1.434,0.78 1.507,0.779C1.529,0.779 1.552,0.778 1.575,0.778L1.594,0.776C1.617,0.776 1.64,0.775 1.663,0.774C1.686,0.773 1.709,0.772 1.733,0.772C1.761,0.772 1.79,0.773 1.818,0.778C1.951,0.798 2.053,0.754 2.142,0.639C2.212,0.549 2.268,0.471 2.32,0.393C2.711,-0.198 2.73,-0.218 3.223,-0.71L3.286,-0.773C3.352,-0.839 3.42,-0.907 3.481,-0.979C3.507,-1.009 3.525,-1.051 3.526,-1.083C3.532,-1.253 3.531,-1.393 3.523,-1.523C3.521,-1.548 3.484,-1.57 3.442,-1.572C3.384,-1.573 3.33,-1.572 3.295,-1.531C3.243,-1.469 3.183,-1.412 3.125,-1.358C3.017,-1.255 2.904,-1.148 2.843,-1.004L2.839,-0.998L2.658,-0.81C2.483,-0.628 2.309,-0.447 2.133,-0.267C2.104,-0.237 2.071,-0.212 2.038,-0.188C2.023,-0.178 2.009,-0.167 1.994,-0.156L1.99,-0.152L1.985,-0.151L1.603,-0.101L1.597,-0.105C1.536,-0.144 1.466,-0.142 1.395,-0.142C1.335,-0.142 1.272,-0.14 1.214,-0.165C1.126,-0.202 1.08,-0.28 1.036,-0.355C1.006,-0.407 0.975,-0.46 0.93,-0.498C0.853,-0.564 0.785,-0.637 0.71,-0.719C0.676,-0.756 0.641,-0.792 0.607,-0.828C0.501,-0.937 0.392,-1.05 0.309,-1.188C0.253,-1.283 0.167,-1.363 0.083,-1.441C0.049,-1.473 0.014,-1.505 -0.018,-1.538C-0.039,-1.559 -0.107,-1.576 -0.157,-1.574C-0.181,-1.573 -0.192,-1.567 -0.194,-1.565C-0.217,-1.536 -0.229,-1.497 -0.24,-1.458C-0.244,-1.442 -0.243,-1.424 -0.243,-1.404C-0.242,-1.394 -0.241,-1.385 -0.242,-1.375L-0.242,-1.339C-0.246,-1.014 -0.246,-1.001 0,-0.778" style="fill:rgb(30,71,84);fill-rule:nonzero;"/>
            </g>
            <g transform="matrix(1,0,0,1,11.4088,5.72345)">
                <path d="M0,-0.73C-0.114,-0.591 -0.217,-0.438 -0.317,-0.29C-0.432,-0.12 -0.551,0.057 -0.689,0.216C-0.726,0.258 -0.752,0.312 -0.777,0.365L-0.794,0.399C-0.804,0.42 -0.807,0.449 -0.802,0.47C-0.782,0.552 -0.612,0.685 -0.528,0.685C-0.344,0.686 -0.161,0.686 0.022,0.685L0.272,0.685C0.401,0.685 0.53,0.685 0.659,0.686C0.71,0.686 0.75,0.661 0.786,0.607C0.863,0.49 0.933,0.371 0.924,0.219C0.913,0.064 0.916,-0.093 0.918,-0.244C0.919,-0.304 0.92,-0.363 0.92,-0.422L0.915,-0.442L0.915,-0.659C0.916,-0.847 0.916,-1.042 0.914,-1.232C0.912,-1.316 0.84,-1.359 0.797,-1.377C0.754,-1.395 0.673,-1.416 0.613,-1.356C0.559,-1.302 0.503,-1.249 0.448,-1.195C0.295,-1.048 0.136,-0.895 0,-0.73" style="fill:rgb(87,200,223);fill-rule:nonzero;"/>
            </g>
            <g transform="matrix(1,0,0,1,4.34278,4.27345)">
                <path d="M0,-0.01C-0.002,-0.012 -0.003,-0.012 -0.003,-0.012L-0.004,-0.012C-0.003,-0.012 -0.004,-0.009 -0.002,-0.004C0,-0.002 0.003,0 0.008,0.002C0.006,-0.003 0.003,-0.008 0,-0.01" style="fill:rgb(123,127,129);fill-rule:nonzero;"/>
            </g>
            <g transform="matrix(1,0,0,1,7.68378,3.70245)">
                <path d="M0,-0.539C-0.235,-0.964 -0.465,-1.402 -0.686,-1.825L-0.715,-1.88C-0.772,-1.988 -0.826,-2.098 -0.878,-2.206C-0.932,-2.316 -0.988,-2.43 -1.046,-2.54C-1.091,-2.626 -1.142,-2.71 -1.192,-2.792C-1.224,-2.845 -1.256,-2.898 -1.287,-2.952C-1.301,-2.978 -1.305,-2.976 -1.331,-2.965C-1.37,-2.949 -1.411,-2.937 -1.451,-2.925C-1.493,-2.913 -1.536,-2.9 -1.576,-2.883C-1.616,-2.866 -1.653,-2.826 -1.672,-2.78C-1.685,-2.747 -1.687,-2.716 -1.677,-2.692C-1.641,-2.608 -1.63,-2.519 -1.62,-2.433C-1.611,-2.36 -1.603,-2.291 -1.58,-2.227C-1.552,-2.149 -1.545,-2.069 -1.537,-1.991C-1.53,-1.909 -1.522,-1.832 -1.492,-1.762C-1.44,-1.642 -1.432,-1.522 -1.424,-1.406C-1.421,-1.366 -1.418,-1.326 -1.414,-1.286L-1.412,-1.27C-1.41,-1.249 -1.408,-1.225 -1.398,-1.213C-1.344,-1.145 -1.34,-1.069 -1.336,-0.996C-1.334,-0.967 -1.332,-0.937 -1.328,-0.909C-1.32,-0.865 -1.306,-0.819 -1.293,-0.775C-1.147,-0.287 -1.06,0.216 -0.988,0.72C-0.952,0.969 -0.94,1.231 -0.887,1.477C-0.869,1.56 -0.813,1.624 -0.797,1.703C-0.775,1.816 -0.813,1.898 -0.762,2.011C-0.745,2.05 -0.727,2.09 -0.718,2.133C-0.703,2.213 -0.741,2.271 -0.779,2.327L-0.791,2.346C-0.8,2.36 -0.803,2.388 -0.794,2.407C-0.789,2.417 -0.782,2.422 -0.771,2.424C-0.6,2.438 -0.462,2.439 -0.339,2.43C-0.312,2.428 -0.281,2.404 -0.259,2.368C-0.234,2.328 -0.226,2.281 -0.239,2.25C-0.347,1.987 -0.316,1.72 -0.268,1.423C-0.263,1.399 -0.258,1.374 -0.254,1.349C-0.242,1.291 -0.23,1.231 -0.229,1.172L-0.229,0.952C-0.23,0.863 -0.23,0.775 -0.229,0.686C-0.226,0.544 -0.191,0.45 -0.021,0.421C0.101,0.399 0.151,0.371 0.141,0.255C0.137,0.206 0.138,0.157 0.139,0.096C0.14,0.065 0.14,0.031 0.14,-0.007C0.175,-0.193 0.083,-0.389 0,-0.539" style="fill:rgb(71,72,114);fill-rule:nonzero;"/>
            </g>
            <g transform="matrix(1,0,0,1,16.0118,6.07745)">
                <path d="M0,2.332C0.065,2.41 0.143,2.48 0.218,2.545C0.234,2.559 0.267,2.564 0.302,2.557C0.339,2.549 0.371,2.531 0.382,2.511C0.528,2.227 0.711,1.944 0.925,1.668C1.189,1.327 1.395,1.004 1.553,0.681C1.613,0.56 1.702,0.452 1.79,0.348C1.824,0.306 1.859,0.264 1.892,0.222C1.916,0.191 1.943,0.161 1.97,0.133C1.993,0.108 2.017,0.082 2.038,0.056C2.069,0.018 2.081,-0.023 2.073,-0.062C2.065,-0.102 2.035,-0.137 1.989,-0.161C1.975,-0.168 1.962,-0.177 1.948,-0.185C1.925,-0.2 1.902,-0.215 1.878,-0.221C1.842,-0.229 1.793,-0.232 1.774,-0.217C1.625,-0.102 1.463,-0.004 1.305,0.091C1.169,0.173 1.028,0.259 0.896,0.355C0.725,0.48 0.536,0.584 0.353,0.686C0.224,0.758 0.091,0.832 -0.035,0.913L-0.042,0.917C-0.206,1.022 -0.359,1.121 -0.57,1.094C-0.581,1.092 -0.593,1.095 -0.602,1.103C-0.616,1.114 -0.625,1.135 -0.626,1.16C-0.627,1.175 -0.627,1.189 -0.627,1.204C-0.626,1.235 -0.626,1.265 -0.633,1.296C-0.657,1.401 -0.625,1.494 -0.591,1.593C-0.573,1.645 -0.555,1.698 -0.546,1.754C-0.532,1.837 -0.477,1.886 -0.419,1.938C-0.391,1.962 -0.363,1.987 -0.339,2.017C-0.322,2.037 -0.3,2.055 -0.275,2.075C-0.267,2.082 -0.258,2.089 -0.25,2.096C-0.218,2.063 -0.185,2.032 -0.152,2.001C-0.073,1.926 0.01,1.848 0.068,1.758C0.185,1.575 0.338,1.423 0.487,1.277C0.575,1.19 0.665,1.101 0.747,1.006C0.751,1.001 0.775,0.98 0.796,0.98C0.801,0.98 0.806,0.981 0.81,0.984C0.836,1.002 0.866,1.023 0.869,1.051C0.889,1.234 0.774,1.362 0.672,1.476L0.665,1.484C0.556,1.605 0.438,1.724 0.325,1.838C0.264,1.899 0.202,1.961 0.142,2.024C0.089,2.078 0.039,2.13 0.001,2.189C-0.025,2.229 -0.034,2.292 0,2.332" style="fill:rgb(71,72,114);fill-rule:nonzero;"/>
            </g>
            <g transform="matrix(1,0,0,1,7.75578,6.35045)">
                <path d="M0,-1.981C-0.042,-1.947 -0.08,-1.912 -0.08,-1.853C-0.079,-1.662 -0.079,-1.471 -0.079,-1.28L-0.079,-1.041L-0.082,-1.041C-0.082,-0.968 -0.083,-0.895 -0.083,-0.822C-0.084,-0.641 -0.084,-0.453 -0.081,-0.268C-0.077,-0.081 0.07,0.057 0.269,0.058C0.384,0.058 0.499,0.057 0.613,0.057C0.699,0.056 0.787,0.055 0.875,0.055C1.01,0.055 1.147,0.057 1.282,0.062L1.305,0.062C1.458,0.062 1.541,0.001 1.589,-0.145C1.593,-0.157 1.598,-0.167 1.603,-0.178C1.618,-0.214 1.627,-0.236 1.597,-0.275L1.519,-0.377C1.37,-0.57 1.215,-0.769 1.084,-0.978C0.903,-1.265 0.658,-1.496 0.421,-1.72C0.325,-1.81 0.226,-1.903 0.133,-1.999C0.09,-2.043 0.032,-2.007 0,-1.981" style="fill:rgb(87,200,223);fill-rule:nonzero;"/>
            </g>
            <g transform="matrix(1,0,0,1,8.69178,9.68645)">
                <path d="M0,-0.931C-0.029,-0.903 -0.058,-0.874 -0.091,-0.848C-0.199,-0.764 -0.241,-0.658 -0.222,-0.521C-0.236,-0.387 -0.208,-0.27 -0.136,-0.161C-0.109,-0.121 -0.088,-0.078 -0.068,-0.036C-0.051,-0.002 -0.034,0.034 -0.014,0.067C-0.009,0.075 0.019,0.084 0.04,0.082C0.057,0.079 0.083,0.06 0.086,0.048C0.11,-0.03 0.13,-0.112 0.149,-0.19C0.179,-0.315 0.21,-0.445 0.26,-0.569C0.321,-0.721 0.239,-0.856 0.16,-0.986L0.154,-0.995C0.147,-1.008 0.135,-1.012 0.126,-1.014C0.108,-1.015 0.086,-1.01 0.07,-0.997C0.046,-0.976 0.022,-0.953 0,-0.931" style="fill:rgb(87,200,223);fill-rule:nonzero;"/>
            </g>
        </g>
    </g>
</svg>
