<?xml version="1.0" encoding="UTF-8" standalone="no"?>
<!DOCTYPE svg PUBLIC "-//W3C//DTD SVG 1.1//EN" "http://www.w3.org/Graphics/SVG/1.1/DTD/svg11.dtd">
<svg width="100%" height="100%" viewBox="0 0 20 20" version="1.1" xmlns="http://www.w3.org/2000/svg" xmlns:xlink="http://www.w3.org/1999/xlink" xml:space="preserve" xmlns:serif="http://www.serif.com/" style="fill-rule:evenodd;clip-rule:evenodd;stroke-linejoin:round;stroke-miterlimit:2;">
    <g transform="matrix(-2.52192e-19,-0.00137287,-0.00137287,2.52192e-19,20.6876,15.7173)">
        <g id="Great-sword" serif:id="Great sword">
            <path d="M3012,15061C2993,15049 3001,15009 3025,14996C3051,14981 3069,14958 3070,14939C3070,14931 3084,14903 3100,14877C3117,14851 3130,14820 3130,14810C3130,14799 3136,14790 3144,14790C3163,14790 3170,14758 3170,14668C3170,14583 3176,14560 3196,14560C3204,14560 3220,14544 3231,14525C3243,14506 3258,14490 3266,14490C3274,14490 3280,14480 3280,14468C3281,14427 3342,14370 3386,14370C3398,14370 3426,14352 3448,14330C3470,14308 3492,14290 3497,14290C3503,14290 3525,14270 3548,14245L3589,14200L3665,14200C3770,14200 3785,14185 3793,14069C3799,13978 3828,13870 3846,13870C3864,13870 3950,13589 3950,13529C3950,13514 3955,13500 3962,13498C3984,13490 3992,13376 3997,13035C4001,12656 3994,12578 3952,12572L3930,12569L3930,12873C3930,13113 3927,13187 3915,13226C3907,13253 3900,13300 3900,13330C3900,13361 3894,13410 3886,13440C3879,13470 3869,13521 3865,13553C3861,13592 3854,13610 3844,13610C3836,13610 3830,13620 3830,13634C3830,13663 3773,13841 3759,13855C3754,13860 3750,13872 3750,13881C3750,13890 3741,13904 3729,13911C3706,13927 3691,13983 3690,14051C3690,14114 3665,14140 3602,14140C3571,14140 3547,14147 3530,14160C3516,14171 3500,14180 3493,14180C3487,14180 3465,14200 3444,14225C3424,14250 3401,14270 3393,14270C3370,14270 3240,14341 3239,14353C3239,14360 3235,14355 3230,14344C3222,14323 3246,14232 3263,14219C3271,14213 3283,14173 3301,14093C3306,14069 3314,14031 3319,14008C3344,13896 3360,13801 3360,13763C3360,13734 3365,13718 3377,13711C3388,13705 3397,13682 3402,13643C3418,13524 3439,13373 3449,13305C3455,13265 3460,13073 3460,12855C3460,12547 3457,12466 3445,12426C3434,12391 3430,12328 3430,12211C3429,12120 3425,12025 3420,12000C3415,11975 3408,11890 3404,11811C3398,11695 3394,11665 3380,11651C3363,11636 3351,11577 3330,11405C3325,11367 3317,11319 3311,11300C3306,11281 3296,11232 3289,11193C3282,11153 3272,11120 3266,11120C3253,11120 3221,11031 3228,11012C3230,11006 3242,11000 3255,11000C3300,11000 3341,10987 3336,10975C3334,10968 3344,10957 3358,10949C3401,10928 3419,10909 3413,10893C3408,10881 3391,10879 3321,10882L3235,10885L3224,10830C3217,10800 3205,10741 3196,10700C3187,10659 3175,10571 3170,10506C3165,10438 3156,10384 3150,10380C3119,10361 3119,10240 3150,10240C3168,10240 3240,10178 3240,10163C3240,10156 3250,10146 3263,10141C3275,10136 3294,10122 3305,10110C3328,10084 3372,10060 3395,10060C3404,10060 3427,10044 3447,10025C3467,10006 3488,9990 3495,9990C3501,9990 3528,9946 3556,9893C3583,9839 3611,9791 3618,9785C3633,9773 3683,9640 3700,9567C3707,9539 3719,9510 3728,9503C3736,9496 3747,9467 3752,9438C3774,9310 3779,9280 3789,9200C3795,9153 3805,9090 3810,9059C3816,9029 3820,8967 3820,8922C3820,8852 3818,8841 3804,8847C3794,8851 3790,8860 3794,8875C3797,8887 3793,8919 3785,8946C3777,8973 3770,9011 3770,9030C3769,9080 3745,9175 3726,9202C3717,9214 3710,9236 3710,9250C3710,9285 3676,9442 3643,9558C3633,9592 3621,9620 3615,9620C3604,9620 3570,9675 3570,9694C3570,9701 3556,9728 3538,9756C3520,9783 3507,9808 3508,9813C3509,9817 3504,9820 3496,9820C3489,9820 3475,9836 3466,9855C3449,9890 3416,9920 3392,9920C3379,9920 3367,9928 3330,9962C3299,9990 3270,10001 3248,9994C3229,9988 3228,9983 3234,9931C3238,9900 3243,9849 3247,9818C3250,9786 3256,9763 3260,9765C3271,9772 3292,9660 3301,9540C3305,9482 3313,9401 3319,9360C3325,9318 3329,9064 3329,8780C3329,8365 3327,8268 3315,8235C3306,8212 3300,8156 3300,8100C3299,7995 3280,7888 3262,7882C3254,7880 3250,7850 3250,7797C3249,7752 3244,7695 3239,7670C3233,7645 3224,7582 3220,7530C3215,7478 3207,7421 3202,7403C3196,7386 3194,7369 3198,7366C3201,7363 3196,7334 3187,7303C3178,7271 3168,7215 3165,7178C3161,7140 3154,7110 3149,7110C3135,7110 3100,7033 3100,7002C3100,6972 3117,6950 3143,6946C3167,6943 3190,6919 3190,6899C3190,6871 3265,6872 3280,6900C3289,6916 3301,6920 3345,6920C3382,6920 3402,6915 3407,6905C3412,6897 3446,6879 3484,6866C3522,6852 3564,6831 3576,6819C3601,6796 3607,6766 3590,6755C3576,6746 3510,6772 3510,6786C3510,6793 3483,6800 3443,6804C3311,6817 3318,6818 3300,6785C3287,6761 3276,6754 3246,6752L3208,6749L3215,6702C3219,6676 3226,6648 3231,6639C3236,6630 3243,6597 3246,6566C3250,6535 3257,6510 3261,6510C3266,6510 3270,6501 3270,6490C3270,6479 3266,6470 3261,6470C3252,6470 3235,6349 3237,6295C3239,6236 3253,6170 3261,6176C3266,6179 3270,6178 3271,6173C3275,6098 3283,6044 3290,6029C3296,6019 3300,5908 3300,5781C3300,5550 3290,5465 3263,5447C3247,5437 3245,5260 3260,5260C3273,5260 3273,5225 3260,5202C3249,5182 3231,5035 3221,4890C3214,4790 3197,4732 3170,4715C3165,4712 3160,4700 3160,4689C3160,4679 3155,4670 3149,4670C3143,4670 3128,4657 3114,4640C3100,4624 3075,4606 3057,4599C3018,4585 2990,4535 2990,4481C2990,4459 2983,4433 2973,4421C2957,4403 2891,4381 2797,4363C2782,4360 2765,4350 2760,4341C2755,4331 2732,4318 2708,4312C2684,4305 2643,4293 2615,4285C2513,4256 2443,4240 2416,4240C2395,4240 2389,4236 2394,4225C2398,4213 2390,4210 2354,4210C2313,4210 2303,4205 2262,4165C2237,4140 2213,4120 2208,4120C2204,4120 2200,4109 2200,4096C2200,4066 2222,4062 2380,4061C2464,4060 2503,4064 2524,4075C2539,4083 2568,4090 2586,4090C2608,4090 2623,4096 2626,4105C2634,4126 2722,4150 2789,4150C2820,4150 2867,4157 2894,4165C2956,4184 3057,4184 3090,4165C3106,4156 3145,4151 3197,4150C3283,4150 3398,4126 3415,4105C3420,4098 3454,4085 3490,4075C3673,4027 3727,4021 3774,4044C3816,4064 3987,4067 4013,4047C4022,4041 4037,4008 4045,3975C4054,3942 4067,3910 4075,3904C4083,3898 4095,3870 4101,3842C4107,3813 4116,3788 4121,3784C4126,3781 4130,3771 4130,3761C4130,3749 4142,3738 4163,3730C4180,3724 4221,3705 4252,3689C4283,3673 4316,3660 4324,3660C4333,3660 4340,3653 4340,3645C4340,3629 4486,3556 4505,3564C4514,3567 4519,3609 4523,3707C4528,3840 4529,3847 4564,3918C4584,3958 4600,3995 4600,4000C4600,4005 4610,4011 4623,4014C4635,4016 4670,4023 4700,4029C4827,4056 4860,4060 4960,4061C5031,4062 5075,4067 5094,4078C5117,4089 5131,4090 5154,4082C5171,4077 5203,4069 5225,4065C5246,4061 5277,4052 5293,4043C5314,4032 5366,4028 5493,4025C5675,4022 5706,4017 5730,3991C5751,3967 5810,3927 5843,3912C5859,3905 5874,3892 5877,3882C5879,3873 5904,3849 5933,3830C5964,3808 5992,3780 6002,3758C6012,3738 6036,3709 6056,3694C6076,3679 6096,3656 6101,3643C6118,3597 6133,3618 6128,3683C6122,3768 6082,3889 6049,3922C6034,3938 6017,3965 6010,3984C6003,4007 5988,4023 5962,4036C5909,4063 5860,4100 5860,4114C5860,4126 5735,4184 5687,4194C5672,4198 5651,4209 5642,4218C5632,4228 5593,4251 5557,4268C5520,4285 5490,4304 5490,4309C5490,4315 5483,4320 5475,4320C5455,4320 5456,4350 5475,4364C5493,4377 5505,4439 5496,4473C5492,4490 5481,4499 5459,4504C5442,4507 5412,4518 5392,4527C5360,4543 5326,4545 5145,4544C5019,4544 4921,4539 4900,4532C4881,4526 4793,4520 4704,4518C4551,4516 4542,4517 4512,4539C4494,4551 4480,4567 4480,4575C4480,4601 4430,4623 4381,4617C4297,4606 4246,4592 4234,4576C4219,4555 4150,4554 4150,4575C4150,4586 4134,4590 4083,4592L4015,4595L3995,4665C3984,4704 3969,4740 3961,4746C3947,4757 3918,4849 3879,5007C3866,5061 3852,5100 3845,5100C3831,5100 3831,5099 3784,5370C3745,5598 3743,5610 3729,5610C3724,5610 3720,5622 3720,5636C3720,5650 3724,5659 3730,5655C3736,5651 3740,5664 3740,5687C3740,5743 3756,5760 3763,5713C3767,5692 3778,5644 3790,5605C3801,5567 3815,5513 3821,5487C3828,5455 3836,5440 3845,5444C3862,5450 3900,5330 3900,5270C3901,5202 3942,5050 3960,5050C3972,5050 4012,4924 4044,4788C4048,4770 4062,4755 4086,4744C4105,4735 4135,4713 4152,4697C4180,4668 4187,4666 4262,4666C4334,4665 4343,4667 4359,4689C4374,4708 4382,4711 4408,4705C4426,4702 4440,4693 4440,4685C4440,4663 4517,4601 4554,4594C4574,4591 4590,4582 4590,4575C4590,4557 4692,4536 4739,4545C4796,4555 4810,4560 4810,4573C4810,4587 4930,4617 5035,4629C5074,4634 5132,4647 5165,4659C5197,4670 5226,4680 5228,4680C5230,4680 5229,4684 5226,4689C5219,4700 5297,4720 5349,4720C5371,4720 5391,4724 5394,4729C5403,4744 5390,4769 5370,4775C5350,4781 5290,4896 5269,4969C5262,4993 5250,5014 5243,5017C5236,5020 5230,5032 5230,5045C5230,5057 5223,5090 5215,5116C5195,5184 5163,5366 5150,5481C5136,5615 5147,5902 5171,6023C5202,6181 5220,6213 5318,6288C5335,6301 5350,6318 5350,6325C5350,6332 5356,6341 5363,6344C5386,6354 5336,6375 5275,6381C5242,6384 5188,6394 5155,6403C5110,6416 5053,6420 4915,6420C4748,6420 4733,6422 4718,6439C4709,6450 4683,6464 4660,6470C4638,6476 4622,6485 4625,6489C4627,6494 4788,6501 4982,6505C5176,6509 5344,6516 5356,6520C5369,6525 5380,6540 5383,6557C5401,6650 5419,6713 5431,6725C5439,6733 5472,6742 5505,6745C5606,6755 5610,6757 5610,6790C5610,6809 5603,6823 5591,6830C5580,6835 5562,6865 5551,6895C5539,6926 5524,6961 5516,6973C5508,6985 5498,7012 5495,7033C5491,7055 5482,7070 5474,7070C5463,7070 5460,7092 5460,7173C5460,7251 5455,7294 5439,7346C5427,7384 5414,7420 5410,7425C5405,7431 5395,7459 5386,7489C5377,7518 5364,7548 5357,7554C5331,7575 5307,7711 5300,7885C5295,7979 5287,8074 5280,8096C5270,8130 5271,8149 5284,8200C5295,8241 5300,8306 5300,8393C5300,8485 5306,8555 5320,8623C5331,8678 5340,8735 5340,8750C5340,8766 5347,8783 5356,8788C5365,8793 5381,8836 5396,8896C5433,9047 5464,9140 5478,9140C5485,9140 5490,9154 5490,9176C5490,9204 5487,9211 5475,9207C5467,9203 5453,9211 5443,9225C5426,9247 5292,9308 5228,9324C5212,9327 5200,9336 5200,9343C5200,9355 5147,9390 5128,9390C5111,9390 5030,9453 5030,9467C5030,9474 5024,9480 5016,9480C5009,9480 4983,9497 4959,9518C4935,9539 4908,9559 4900,9562C4892,9565 4877,9582 4867,9599L4849,9630L4880,9630C4919,9630 4990,9594 4990,9575C4990,9567 4997,9560 5005,9560C5013,9560 5041,9547 5067,9532C5094,9516 5127,9500 5142,9497C5157,9493 5180,9479 5192,9466C5216,9441 5318,9400 5357,9400C5369,9400 5382,9405 5385,9411C5397,9430 5379,9530 5360,9548C5339,9569 5329,9650 5325,9835C5324,9907 5318,9978 5311,9993C5280,10072 5324,10518 5366,10534C5374,10537 5380,10548 5380,10559C5380,10570 5384,10589 5389,10602C5394,10615 5411,10665 5426,10715C5442,10764 5462,10812 5472,10822C5521,10871 5515,10995 5463,11016C5404,11039 5205,11065 5100,11062C4967,11059 4919,11066 4913,11091C4910,11103 4899,11110 4884,11110C4871,11110 4856,11119 4849,11131C4832,11163 4849,11173 4901,11161C4959,11147 5340,11147 5340,11160C5340,11166 5347,11170 5355,11170C5366,11170 5370,11182 5370,11218C5370,11244 5378,11293 5387,11325C5402,11376 5405,11431 5405,11700C5405,12025 5400,12078 5362,12107C5337,12127 5307,12216 5274,12373C5265,12415 5252,12450 5245,12450C5239,12450 5226,12487 5216,12533C5182,12692 5144,12800 5124,12800C5116,12800 5110,12808 5110,12819C5110,12836 5091,12885 5040,12998C5029,13021 5013,13040 5005,13040C4997,13040 4990,13049 4990,13059C4990,13069 4975,13101 4956,13129C4937,13157 4918,13189 4915,13200C4912,13211 4903,13220 4895,13220C4881,13220 4847,13262 4819,13315C4810,13331 4791,13351 4777,13358C4763,13365 4738,13395 4721,13424C4705,13454 4681,13485 4670,13493C4649,13508 4578,13619 4566,13655C4563,13666 4550,13680 4538,13685C4526,13691 4502,13722 4485,13755C4467,13788 4444,13819 4434,13825C4413,13837 4381,13871 4380,13883C4380,13893 4333,13958 4308,13983C4294,13997 4290,14017 4290,14073C4290,14141 4287,14149 4248,14212C4224,14249 4200,14280 4193,14280C4180,14280 4130,14340 4130,14356C4129,14369 4093,14410 4083,14410C4070,14410 4033,14451 4026,14475C4018,14501 3979,14544 3957,14553C3947,14557 3936,14570 3931,14582C3921,14609 3866,14660 3847,14660C3832,14660 3800,14691 3800,14706C3800,14717 3776,14733 3698,14773C3666,14789 3640,14809 3640,14816C3640,14824 3634,14830 3627,14830C3620,14830 3590,14841 3562,14855C3533,14869 3506,14880 3500,14880C3479,14880 3400,14925 3400,14937C3400,14944 3391,14950 3380,14950C3369,14950 3341,14958 3318,14969C3262,14993 3219,15006 3143,15021C3105,15028 3080,15038 3080,15045C3080,15052 3070,15060 3058,15064C3029,15071 3028,15071 3012,15061Z" style="fill-rule:nonzero;"/>
            <path d="M4142,3598C4134,3590 4130,3551 4130,3493C4130,3393 4146,3340 4177,3340C4212,3340 4325,3306 4335,3293C4346,3278 4367,3275 4450,3278C4505,3280 4506,3281 4519,3316C4531,3348 4530,3357 4514,3391C4498,3423 4482,3436 4413,3471C4367,3493 4330,3518 4330,3526C4330,3534 4323,3540 4315,3540C4307,3540 4279,3553 4253,3569C4195,3604 4157,3613 4142,3598Z" style="fill-rule:nonzero;"/>
            <path d="M4134,3232C4117,3221 4100,3184 4100,3157C4100,3144 4111,3099 4124,3059C4137,3018 4156,2939 4165,2883C4178,2812 4187,2780 4197,2780C4204,2780 4210,2771 4210,2759C4210,2745 4223,2733 4255,2719C4280,2708 4300,2695 4300,2690C4300,2684 4305,2680 4312,2680C4318,2680 4346,2669 4374,2656C4463,2615 4480,2610 4524,2610C4576,2610 4591,2628 4608,2706C4618,2752 4617,2764 4594,2826C4580,2864 4566,2904 4563,2915C4560,2926 4551,2940 4543,2946C4536,2953 4525,2984 4518,3016C4512,3049 4502,3093 4496,3115C4486,3153 4483,3155 4441,3158C4412,3160 4392,3168 4381,3181C4361,3205 4305,3219 4225,3220C4191,3220 4160,3224 4154,3230C4149,3235 4140,3236 4134,3232Z" style="fill-rule:nonzero;"/>
            <path d="M4170,2591C4155,2562 4157,2333 4173,2323C4191,2311 4470,2306 4482,2318C4499,2335 4504,2483 4488,2501C4481,2510 4442,2527 4402,2540C4361,2553 4326,2569 4323,2576C4319,2588 4240,2610 4200,2610C4189,2610 4176,2601 4170,2591Z" style="fill-rule:nonzero;"/>
            <path d="M4230,2230C4230,2225 4219,2220 4206,2220C4193,2220 4178,2214 4172,2208C4166,2201 4160,2128 4158,2045C4155,1924 4151,1888 4136,1858C4106,1796 4116,1789 4217,1794C4266,1797 4332,1806 4365,1814C4398,1822 4442,1827 4463,1826C4495,1825 4502,1828 4506,1847C4510,1860 4509,1882 4505,1898C4501,1913 4496,1983 4495,2053C4492,2168 4490,2184 4471,2204C4459,2216 4453,2230 4457,2233C4460,2237 4411,2240 4347,2240C4276,2240 4230,2236 4230,2230Z" style="fill-rule:nonzero;"/>
            <path d="M4505,1724C4483,1717 4423,1710 4370,1709C4318,1708 4262,1705 4245,1701C4217,1695 4215,1692 4212,1640C4210,1610 4214,1568 4221,1546C4236,1502 4276,1480 4380,1459C4413,1453 4443,1443 4446,1439C4449,1434 4460,1430 4470,1430C4481,1430 4494,1422 4499,1411C4505,1401 4524,1389 4542,1386C4618,1370 4641,1368 4666,1374C4691,1381 4692,1384 4687,1422C4684,1445 4673,1471 4663,1479C4653,1488 4629,1542 4610,1600C4568,1733 4559,1743 4505,1724Z" style="fill-rule:nonzero;"/>
            <path d="M4202,1392C4188,1390 4172,1374 4158,1347C4140,1312 4136,1281 4131,1165C4126,1053 4121,1020 4106,998C4096,982 4084,970 4079,970C4059,970 4073,945 4123,893C4151,863 4177,834 4178,829C4180,824 4188,820 4195,820C4211,820 4278,746 4290,714C4295,701 4305,690 4312,690C4325,690 4345,660 4388,577C4401,551 4418,530 4425,530C4432,530 4443,523 4450,515C4468,493 4496,497 4518,525C4529,539 4542,550 4547,550C4557,550 4560,555 4612,667C4630,707 4649,739 4653,739C4668,740 4760,825 4760,838C4760,844 4766,850 4774,850C4781,850 4799,859 4814,871C4829,883 4860,902 4883,914C4914,931 4926,943 4928,964C4932,994 4915,1020 4893,1020C4870,1020 4740,1160 4740,1185C4740,1220 4715,1243 4664,1256C4637,1263 4593,1274 4565,1281C4538,1288 4513,1297 4510,1301C4500,1314 4441,1340 4421,1340C4396,1340 4307,1363 4260,1382C4241,1390 4215,1394 4202,1392Z" style="fill-rule:nonzero;"/>
        </g>
    </g>
</svg>
