<?xml version="1.0" encoding="UTF-8" standalone="no"?>
<!DOCTYPE svg PUBLIC "-//W3C//DTD SVG 1.1//EN" "http://www.w3.org/Graphics/SVG/1.1/DTD/svg11.dtd">
<svg width="100%" height="100%" viewBox="0 0 20 20" version="1.1" xmlns="http://www.w3.org/2000/svg" xmlns:xlink="http://www.w3.org/1999/xlink" xml:space="preserve" xmlns:serif="http://www.serif.com/" style="fill-rule:evenodd;clip-rule:evenodd;stroke-linejoin:round;stroke-miterlimit:2;">
    <g transform="matrix(1.03638e-19,-0.00169254,-0.00169254,-1.03638e-19,20.8828,20.4768)">
        <g id="Great-Bow" serif:id="Great Bow">
            <path d="M5419,12300C5398,12278 5380,12251 5380,12240C5380,12230 5371,12219 5361,12215C5315,12201 5290,12061 5319,11977C5326,11956 5350,11918 5372,11892C5427,11829 5539,11730 5572,11716C5587,11710 5608,11693 5619,11678C5630,11664 5660,11643 5684,11631C5709,11620 5739,11597 5752,11580C5782,11539 5814,11543 5842,11591C5866,11634 5861,11671 5827,11701C5815,11711 5780,11742 5750,11768C5720,11794 5683,11821 5669,11827C5654,11834 5635,11857 5620,11889C5606,11917 5590,11940 5583,11940C5567,11940 5528,11994 5504,12050C5482,12102 5481,12162 5500,12243C5524,12341 5485,12369 5419,12300Z" style="fill:rgb(64,64,64);fill-rule:nonzero;"/>
            <path d="M5950,11570C5944,11558 5928,11545 5914,11540C5896,11533 5890,11523 5890,11501C5890,11484 5896,11466 5903,11461C5909,11455 5934,11435 5956,11416C5989,11387 6006,11380 6038,11380C6061,11380 6082,11385 6085,11390C6089,11396 6109,11412 6131,11426C6152,11439 6170,11457 6170,11465C6170,11472 6141,11498 6105,11522C6069,11546 6040,11571 6040,11578C6040,11585 6025,11590 6000,11590C5971,11590 5958,11585 5950,11570Z" style="fill:rgb(64,64,64);fill-rule:nonzero;"/>
            <path d="M6148,11364C6100,11328 6094,11314 6099,11250C6100,11236 6114,11212 6130,11197C6147,11182 6172,11145 6186,11115C6201,11085 6220,11053 6229,11043C6257,11011 6297,10945 6320,10892C6332,10863 6348,10840 6355,10840C6367,10840 6369,10837 6425,10718C6444,10676 6466,10640 6473,10637C6480,10634 6494,10610 6503,10584C6545,10462 6558,10429 6573,10412C6593,10390 6630,10292 6630,10260C6630,10215 6669,10086 6685,10074C6710,10056 6767,9895 6777,9815C6780,9793 6789,9768 6796,9759C6804,9750 6819,9712 6831,9674C6842,9636 6857,9583 6866,9555C6874,9528 6884,9493 6887,9477C6890,9462 6900,9444 6909,9437C6928,9422 6944,9398 6965,9350C6974,9331 6998,9299 7018,9279C7038,9259 7062,9232 7071,9219C7080,9205 7108,9184 7133,9171C7158,9158 7180,9140 7183,9131C7185,9122 7200,9109 7216,9101C7232,9094 7257,9081 7272,9074C7312,9053 7382,9056 7408,9080C7428,9099 7430,9110 7430,9215C7430,9357 7423,9380 7376,9380C7341,9380 7200,9444 7200,9461C7200,9473 7147,9520 7132,9520C7119,9520 7103,9553 7076,9635C7058,9692 7044,9780 7054,9780C7062,9780 7107,9709 7111,9688C7118,9662 7210,9589 7234,9592C7260,9596 7269,9639 7246,9652C7237,9657 7230,9671 7230,9683C7230,9696 7226,9710 7221,9716C7217,9721 7207,9768 7200,9820C7193,9872 7179,9946 7169,9985C7156,10032 7150,10088 7150,10157L7150,10259L7190,10305C7212,10330 7230,10355 7230,10361C7230,10366 7235,10370 7241,10370C7247,10370 7268,10384 7287,10400C7305,10417 7327,10430 7335,10430C7343,10430 7369,10448 7392,10471C7415,10493 7451,10520 7472,10531C7519,10555 7547,10612 7530,10648C7521,10669 7515,10671 7485,10666C7466,10662 7426,10648 7398,10635C7369,10621 7340,10610 7333,10610C7326,10610 7307,10597 7290,10580C7273,10564 7253,10550 7246,10550C7239,10550 7198,10534 7155,10514L7076,10478L7034,10498C7006,10512 6981,10535 6960,10569C6942,10597 6918,10622 6908,10626C6898,10629 6877,10659 6861,10695C6845,10729 6823,10767 6811,10779C6799,10791 6772,10835 6749,10878C6727,10920 6700,10962 6690,10970C6680,10978 6663,11006 6652,11033C6626,11092 6540,11179 6478,11208C6451,11220 6430,11236 6430,11243C6430,11256 6384,11295 6345,11315C6334,11321 6320,11336 6313,11350C6282,11412 6219,11417 6148,11364Z" style="fill:rgb(64,64,64);fill-rule:nonzero;"/>
            <path d="M6947,9153C6934,9132 6929,8993 6940,8965C6947,8949 6956,8895 6962,8845C6967,8796 6974,8736 6977,8714C6980,8684 6976,8658 6961,8625C6949,8599 6940,8571 6940,8564C6940,8556 6929,8540 6915,8528C6883,8500 6881,8449 6911,8421C6928,8406 6935,8379 6946,8293C6973,8086 6974,8047 6954,7970C6936,7901 6937,7898 6955,7842C6978,7772 6984,7763 7029,7740C7049,7730 7080,7708 7097,7691C7115,7674 7136,7660 7143,7660C7159,7660 7230,7602 7230,7588C7230,7582 7241,7567 7254,7555C7271,7540 7281,7517 7285,7484C7289,7457 7299,7413 7307,7386C7327,7323 7320,7133 7296,7076C7287,7055 7280,7030 7280,7020C7280,7010 7260,6986 7235,6966C7210,6945 7190,6924 7190,6918C7190,6913 7181,6897 7171,6883C7155,6864 7152,6849 7157,6811C7162,6770 7159,6759 7140,6740C7128,6728 7114,6703 7109,6685C7104,6666 7091,6641 7081,6628L7062,6605L5418,6602C3924,6600 3768,6601 3700,6616C3659,6625 3598,6638 3565,6645C3532,6653 3471,6661 3431,6664C3390,6668 3342,6678 3326,6686C3303,6698 3248,6705 3120,6711C3024,6715 2922,6723 2893,6729C2864,6734 2774,6741 2693,6745C2612,6748 2530,6756 2512,6761C2494,6767 2418,6773 2342,6775C2187,6778 2114,6787 2085,6806C2070,6817 2004,6820 1778,6820C1529,6820 1490,6818 1490,6805C1490,6797 1482,6790 1471,6790C1452,6790 1423,6764 1432,6755C1437,6750 1515,6728 1588,6710C1607,6705 1629,6695 1639,6686C1649,6677 1668,6670 1683,6670C1717,6670 1846,6622 1862,6603C1870,6593 1871,6584 1863,6572C1854,6557 1827,6554 1679,6550L1505,6545L1502,6436C1500,6365 1503,6323 1511,6314C1520,6303 1559,6300 1691,6300C1783,6300 1861,6296 1864,6292C1874,6275 1831,6220 1807,6220C1794,6220 1780,6216 1775,6211C1764,6202 1709,6188 1615,6169C1582,6162 1546,6148 1534,6138C1522,6128 1496,6117 1476,6113C1434,6106 1428,6100 1440,6080C1457,6052 2439,6068 2510,6097C2524,6103 2614,6110 2710,6114C2856,6120 2887,6124 2898,6138C2909,6152 2942,6156 3113,6162C3224,6166 3325,6174 3338,6180C3351,6185 3390,6190 3426,6190C3462,6190 3503,6196 3518,6204C3533,6211 3583,6220 3630,6224C3680,6228 3721,6237 3730,6245C3767,6278 3873,6280 5458,6278L7032,6275L7063,6239C7145,6145 7143,6149 7149,6070C7154,6003 7159,5990 7193,5945C7214,5918 7239,5892 7248,5889C7270,5881 7284,5850 7300,5775C7327,5651 7325,5563 7290,5405C7285,5383 7279,5353 7275,5337C7272,5322 7256,5298 7240,5283C7223,5269 7210,5252 7210,5246C7210,5231 7148,5190 7126,5190C7116,5190 7090,5172 7068,5150C7045,5128 7022,5110 7015,5110C6995,5110 6961,5067 6945,5021C6932,4982 6932,4971 6945,4920C6964,4846 6964,4728 6945,4620C6937,4573 6930,4514 6930,4488C6930,4451 6926,4438 6910,4430C6885,4416 6881,4343 6905,4333C6942,4320 6984,4195 6977,4126C6962,3996 6949,3909 6940,3885C6928,3853 6927,3723 6939,3716C6955,3706 7033,3770 7091,3843C7108,3863 7127,3880 7133,3880C7139,3880 7163,3900 7187,3925C7210,3950 7236,3970 7245,3970C7253,3970 7275,3979 7295,3990C7315,4001 7337,4010 7344,4010C7351,4010 7369,4021 7383,4034C7415,4064 7501,4090 7567,4090C7628,4090 7646,4107 7654,4170C7657,4195 7665,4247 7671,4285C7682,4347 7681,4363 7665,4412C7641,4491 7615,4529 7576,4545C7558,4553 7529,4570 7514,4583C7497,4597 7453,4614 7406,4625C7339,4640 7319,4641 7282,4631C7258,4625 7234,4622 7229,4625C7212,4636 7220,4650 7248,4661C7263,4667 7289,4684 7305,4699C7361,4751 7492,4751 7550,4699C7567,4683 7586,4670 7591,4670C7597,4670 7621,4657 7645,4640C7669,4624 7693,4610 7699,4610C7704,4610 7711,4602 7714,4593C7718,4583 7739,4554 7763,4529C7816,4471 7830,4441 7830,4385C7830,4345 7843,4320 7857,4333C7873,4349 7883,4435 7889,4594C7893,4724 7898,4774 7908,4778C7914,4780 7920,4788 7920,4796C7920,4804 7929,4819 7940,4830C7959,4849 7973,4850 8279,4850C8529,4850 8600,4853 8608,4863C8626,4884 8602,4942 8566,4965C8548,4977 8523,5009 8507,5042C8491,5073 8470,5100 8459,5103C8449,5106 8436,5119 8431,5132C8419,5163 8383,5195 8337,5214C8316,5222 8296,5239 8291,5252C8286,5265 8259,5290 8231,5308C8203,5326 8174,5350 8167,5360C8153,5380 8097,5404 8012,5425C7955,5440 7930,5455 7930,5476C7930,5483 7922,5494 7912,5499C7902,5504 7888,5528 7881,5552C7873,5576 7861,5615 7854,5639C7844,5671 7840,5741 7840,5880C7840,6102 7852,6166 7897,6197C7911,6207 7936,6229 7951,6245L7980,6275L9062,6275L9082,6250C9101,6227 9106,6226 9258,6222C9468,6217 9488,6208 9519,6111C9538,6053 9533,6005 9505,5972C9478,5940 9472,5901 9493,5899C9520,5896 9546,5903 9561,5916C9569,5924 9583,5930 9591,5930C9599,5930 9610,5934 9616,5939C9626,5949 9719,5977 9785,5989C9837,5999 9880,6017 9880,6028C9880,6033 9915,6045 9958,6054C10000,6064 10071,6081 10115,6092C10159,6103 10219,6113 10249,6115C10291,6117 10308,6122 10321,6139C10333,6153 10350,6160 10374,6160C10394,6160 10443,6169 10482,6180C10522,6191 10571,6200 10592,6200C10612,6200 10631,6204 10635,6209C10638,6214 10666,6222 10698,6225C10729,6229 10764,6238 10775,6245C10806,6264 10941,6300 10983,6300C11003,6300 11037,6306 11057,6314C11078,6322 11115,6331 11139,6334C11163,6338 11194,6350 11208,6360C11223,6373 11248,6380 11274,6380C11297,6380 11343,6387 11375,6396C11408,6405 11453,6416 11475,6419C11520,6427 11513,6430 11413,6450C11378,6457 11345,6469 11339,6476C11333,6484 11316,6490 11303,6490C11289,6490 11248,6497 11211,6505C11114,6526 11045,6539 10958,6553C10914,6560 10873,6573 10862,6583C10851,6593 10819,6605 10789,6610C10759,6615 10715,6623 10690,6628C10492,6670 10433,6685 10419,6697C10410,6704 10340,6724 10264,6740C10188,6757 10106,6775 10082,6780C10059,6786 10031,6790 10021,6790C10011,6790 9997,6796 9991,6804C9984,6812 9935,6828 9882,6840C9829,6852 9763,6871 9736,6881C9709,6891 9680,6900 9671,6900C9662,6900 9649,6909 9643,6919C9626,6946 9485,6979 9467,6961C9458,6950 9458,6947 9468,6943C9474,6940 9480,6933 9480,6927C9480,6921 9490,6906 9501,6894C9531,6862 9537,6794 9514,6733C9479,6638 9461,6630 9270,6630C9161,6630 9113,6626 9087,6615C9056,6602 8970,6600 8527,6600L8003,6600L7959,6630C7935,6646 7909,6660 7902,6660C7895,6660 7879,6684 7865,6714C7842,6765 7841,6777 7840,6966C7839,7143 7841,7173 7861,7235C7872,7274 7884,7317 7887,7333C7895,7375 7952,7416 8021,7429C8058,7437 8090,7450 8106,7466C8121,7479 8136,7490 8140,7490C8144,7490 8165,7504 8186,7521C8208,7538 8235,7556 8248,7561C8260,7566 8270,7574 8270,7580C8270,7595 8327,7642 8363,7657C8379,7664 8394,7678 8397,7687C8399,7697 8422,7721 8446,7740C8471,7759 8493,7786 8497,7800C8500,7814 8516,7844 8532,7867C8547,7890 8560,7913 8560,7919C8560,7924 8568,7931 8578,7934C8587,7937 8601,7949 8608,7961C8620,7979 8620,7984 8608,7991C8591,8002 8579,8002 8255,8000C8107,7999 7977,8002 7968,8005C7958,8009 7950,8018 7950,8026C7950,8034 7946,8040 7941,8040C7936,8040 7922,8059 7911,8083C7893,8120 7890,8145 7890,8266C7889,8420 7873,8513 7847,8518C7833,8521 7830,8513 7830,8472C7830,8433 7824,8415 7805,8392C7791,8375 7780,8357 7780,8351C7780,8335 7676,8234 7632,8207C7612,8195 7577,8178 7555,8171C7533,8164 7506,8150 7495,8140C7461,8111 7412,8107 7373,8131C7321,8163 7246,8200 7233,8200C7216,8200 7217,8212 7234,8235C7247,8253 7249,8253 7275,8236C7305,8216 7358,8221 7394,8246C7405,8254 7428,8260 7445,8260C7483,8261 7600,8319 7614,8345C7620,8355 7635,8381 7648,8402C7660,8423 7670,8445 7670,8451C7670,8457 7677,8478 7686,8497C7699,8523 7700,8536 7692,8553C7682,8574 7657,8658 7646,8710C7636,8754 7625,8762 7579,8761C7522,8760 7450,8780 7439,8801C7435,8810 7409,8823 7383,8830C7304,8850 7231,8890 7184,8936C7160,8960 7134,8980 7126,8980C7117,8980 7097,9002 7079,9028C7062,9054 7035,9083 7019,9092C7003,9102 6985,9121 6978,9135C6967,9160 6955,9167 6947,9153Z" style="fill:rgb(64,64,64);fill-rule:nonzero;"/>
            <path d="M8810,7986C8783,7976 8768,7961 8745,7916C8728,7884 8702,7848 8687,7836C8672,7824 8660,7809 8660,7804C8660,7798 8644,7772 8625,7747C8606,7722 8590,7699 8590,7697C8590,7694 8574,7676 8554,7656C8517,7619 8513,7593 8546,7598C8556,7599 8613,7605 8672,7610C8730,7614 8804,7625 8837,7634C8869,7642 8927,7657 8965,7666C9004,7676 9040,7689 9045,7695C9055,7706 9072,7712 9200,7750C9241,7762 9302,7784 9335,7800C9368,7815 9436,7838 9485,7849C9678,7896 9710,7905 9710,7912C9710,7922 9779,7940 9820,7940C9870,7940 9884,7951 9866,7976C9852,7994 9834,7995 9348,7997C8964,7998 8837,7996 8810,7986Z" style="fill:rgb(64,64,64);fill-rule:nonzero;"/>
            <path d="M928,6514C893,6488 880,6471 879,6452C877,6407 880,6396 901,6378C911,6369 920,6357 920,6351C920,6328 998,6300 1062,6300C1161,6300 1170,6310 1170,6425C1170,6476 1167,6525 1164,6534C1159,6547 1141,6550 1066,6550C977,6549 974,6548 928,6514Z" style="fill:rgb(64,64,64);fill-rule:nonzero;"/>
            <path d="M1279,6508C1273,6483 1271,6441 1275,6403C1281,6348 1285,6337 1312,6319C1336,6301 1346,6299 1366,6309C1389,6319 1390,6323 1390,6421C1390,6535 1383,6549 1323,6550C1294,6550 1290,6546 1279,6508Z" style="fill:rgb(64,64,64);fill-rule:nonzero;"/>
            <path d="M8532,5273C8518,5247 8542,5193 8574,5178C8588,5172 8603,5158 8606,5146C8610,5134 8643,5084 8681,5035C8718,4985 8753,4932 8759,4918C8765,4901 8784,4884 8807,4874C8841,4859 8897,4858 9330,4860C9729,4861 9819,4864 9842,4876C9895,4903 9870,4940 9799,4940C9773,4940 9748,4945 9745,4950C9742,4956 9727,4960 9713,4960C9672,4960 9426,5023 9412,5037C9405,5044 9387,5052 9372,5055C9357,5058 9307,5072 9260,5086C9213,5100 9161,5115 9143,5120C9125,5124 9104,5135 9095,5143C9074,5165 8917,5211 8845,5217C8812,5220 8770,5231 8751,5242C8721,5259 8713,5260 8693,5249C8674,5239 8665,5239 8652,5248C8631,5263 8597,5278 8565,5286C8548,5290 8539,5286 8532,5273Z" style="fill:rgb(64,64,64);fill-rule:nonzero;"/>
            <path d="M7240,3762C7170,3727 7040,3621 7040,3597C7040,3592 7022,3569 6999,3547C6977,3525 6952,3491 6944,3472C6936,3452 6921,3430 6910,3423C6899,3415 6890,3401 6890,3392C6890,3383 6874,3326 6855,3265C6836,3205 6820,3146 6820,3134C6820,3122 6811,3103 6800,3090C6789,3077 6780,3057 6780,3045C6780,3005 6707,2804 6685,2785C6670,2771 6640,2667 6631,2600C6626,2559 6614,2529 6583,2482C6560,2448 6539,2405 6535,2388C6519,2311 6484,2223 6458,2197C6443,2181 6430,2162 6430,2155C6430,2147 6417,2118 6400,2090C6384,2062 6370,2033 6370,2025C6370,2017 6364,2010 6357,2010C6350,2010 6334,1989 6321,1963C6308,1936 6292,1905 6286,1893C6280,1881 6264,1858 6252,1843C6219,1804 6160,1710 6160,1698C6160,1693 6144,1674 6125,1656C6097,1629 6090,1615 6090,1586C6090,1538 6103,1514 6134,1506C6148,1503 6164,1491 6170,1480C6181,1459 6237,1444 6268,1454C6279,1458 6291,1471 6294,1483C6297,1495 6320,1518 6344,1534C6369,1550 6401,1577 6414,1595C6427,1612 6460,1638 6487,1651C6514,1665 6541,1688 6548,1704C6556,1719 6572,1735 6585,1740C6600,1746 6619,1772 6640,1817C6658,1854 6679,1892 6687,1900C6704,1918 6770,2029 6770,2040C6770,2045 6788,2067 6810,2090C6832,2113 6850,2140 6850,2151C6850,2161 6867,2187 6888,2208C6908,2229 6932,2258 6940,2274C6960,2312 7052,2390 7077,2390C7088,2390 7103,2383 7110,2375C7122,2361 7183,2330 7265,2296C7287,2286 7314,2271 7325,2261C7351,2238 7457,2192 7494,2188C7536,2183 7548,2209 7530,2262C7518,2296 7505,2310 7470,2329C7445,2343 7415,2366 7403,2381C7390,2395 7368,2410 7353,2413C7325,2419 7260,2473 7260,2491C7260,2496 7254,2500 7246,2500C7219,2500 7162,2576 7155,2622C7142,2706 7163,2910 7196,3026C7204,3054 7210,3093 7210,3114C7210,3157 7234,3220 7250,3220C7256,3220 7260,3232 7258,3248C7256,3269 7249,3276 7229,3278C7208,3280 7198,3274 7181,3247C7169,3228 7148,3205 7135,3196C7121,3187 7102,3163 7092,3143C7075,3106 7050,3088 7050,3112C7050,3119 7060,3163 7072,3209C7090,3280 7100,3299 7132,3329C7153,3349 7170,3370 7170,3375C7170,3389 7227,3425 7282,3445C7308,3455 7335,3469 7341,3476C7347,3484 7360,3490 7369,3490C7378,3490 7394,3497 7405,3506C7423,3519 7425,3535 7428,3644C7431,3764 7431,3768 7409,3784C7373,3809 7322,3802 7240,3762Z" style="fill:rgb(64,64,64);fill-rule:nonzero;"/>
            <path d="M5995,1469C5984,1458 5954,1439 5928,1427C5901,1415 5877,1397 5874,1388C5868,1369 5885,1330 5900,1330C5904,1330 5922,1318 5939,1304C5964,1283 5977,1279 6003,1284C6037,1290 6137,1350 6152,1372C6165,1394 6161,1420 6143,1427C6133,1431 6109,1446 6090,1462C6050,1495 6023,1497 5995,1469Z" style="fill:rgb(64,64,64);fill-rule:nonzero;"/>
            <path d="M5747,1282C5737,1272 5730,1259 5730,1253C5730,1247 5715,1235 5698,1227C5680,1218 5645,1194 5621,1173C5573,1132 5523,1099 5473,1075C5455,1067 5440,1053 5440,1046C5440,1038 5416,1010 5387,983C5340,940 5333,928 5317,863C5299,793 5299,791 5320,722C5332,683 5348,649 5356,646C5364,643 5379,621 5389,598C5413,542 5441,518 5477,522C5503,525 5505,528 5508,577C5510,610 5505,640 5496,659C5487,676 5480,703 5480,720C5480,770 5555,915 5610,972C5638,1001 5662,1032 5666,1042C5669,1052 5676,1060 5682,1060C5701,1060 5819,1150 5846,1185C5873,1220 5874,1257 5848,1287C5832,1307 5766,1303 5747,1282Z" style="fill:rgb(64,64,64);fill-rule:nonzero;"/>
        </g>
    </g>
</svg>
