<?xml version="1.0" encoding="UTF-8" standalone="no"?>
<!DOCTYPE svg PUBLIC "-//W3C//DTD SVG 1.1//EN" "http://www.w3.org/Graphics/SVG/1.1/DTD/svg11.dtd">
<svg width="100%" height="100%" viewBox="0 0 20 20" version="1.1" xmlns="http://www.w3.org/2000/svg" xmlns:xlink="http://www.w3.org/1999/xlink" xml:space="preserve" xmlns:serif="http://www.serif.com/" style="fill-rule:evenodd;clip-rule:evenodd;stroke-linejoin:round;stroke-miterlimit:2;">
    <g transform="matrix(-1.62059e-18,0.00151192,0.00151192,1.62059e-18,-0.982749,1.43597)">
        <g id="Hammer">
            <path d="M5588,13854C5582,13841 5571,13830 5565,13830C5552,13830 5500,13758 5500,13740C5500,13721 5455,13661 5438,13656C5428,13654 5420,13644 5420,13635C5420,13626 5404,13598 5385,13573C5366,13548 5350,13521 5350,13514C5350,13507 5338,13495 5323,13488C5289,13471 5261,13432 5251,13387C5240,13343 5264,13233 5290,13205C5300,13194 5311,13175 5315,13163C5318,13150 5326,13140 5331,13140C5336,13140 5340,13130 5340,13119C5340,13099 5364,12985 5392,12870C5398,12845 5402,12780 5401,12724C5399,12643 5401,12620 5414,12607C5423,12599 5430,12587 5430,12582C5430,12577 5451,12569 5478,12565C5504,12561 5533,12554 5543,12548C5553,12543 5598,12537 5643,12535C5688,12533 5745,12526 5770,12519C5795,12513 5838,12505 5865,12503C5944,12496 5948,12504 5953,12695C5957,12849 5964,12908 5996,13032C6004,13064 6010,13099 6010,13109C6010,13120 6016,13133 6023,13137C6029,13141 6042,13159 6051,13175C6059,13192 6071,13214 6077,13225C6101,13269 6112,13347 6100,13389C6088,13434 6046,13490 6024,13490C6016,13490 6010,13497 6010,13505C6010,13513 5996,13535 5979,13554C5962,13574 5944,13605 5939,13625C5933,13645 5921,13664 5912,13667C5891,13675 5876,13694 5851,13745C5827,13792 5812,13811 5785,13826C5774,13832 5761,13846 5756,13857C5748,13874 5737,13877 5673,13878C5604,13879 5598,13877 5588,13854Z" style="fill:rgb(51,51,51);fill-rule:nonzero;stroke:black;stroke-width:132.28px;"/>
            <path d="M5409,12399C5392,12366 5401,12092 5420,12080C5451,12060 5580,12072 5580,12095C5580,12109 5665,12130 5723,12130C5746,12130 5787,12137 5814,12145C5841,12153 5877,12160 5895,12160C5940,12160 5950,12176 5950,12245C5950,12310 5939,12330 5903,12330C5891,12330 5877,12337 5873,12345C5862,12363 5792,12380 5680,12390C5633,12394 5575,12403 5550,12409C5473,12427 5422,12423 5409,12399Z" style="fill:rgb(51,51,51);fill-rule:nonzero;stroke:black;stroke-width:132.28px;"/>
            <path d="M5735,12004C5714,11996 5693,11986 5690,11981C5687,11977 5651,11968 5610,11962C5538,11952 5422,11926 5414,11918C5407,11910 5434,11850 5445,11850C5450,11850 5466,11844 5480,11837C5494,11830 5553,11809 5612,11790C5672,11771 5720,11750 5720,11743C5720,11736 5739,11726 5763,11719C5786,11713 5824,11701 5846,11693C5869,11685 5898,11680 5911,11682C5935,11685 5935,11687 5940,11820C5947,11982 5944,11999 5913,12011C5877,12024 5781,12021 5735,12004Z" style="fill:rgb(51,51,51);fill-rule:nonzero;stroke:black;stroke-width:132.28px;"/>
            <path d="M5419,11683C5398,11658 5399,11396 5420,11377C5461,11338 5521,11327 5675,11329C5830,11330 5920,11348 5941,11381C5959,11409 5951,11474 5927,11500C5898,11531 5759,11591 5680,11607C5666,11610 5648,11620 5640,11629C5632,11639 5605,11652 5580,11659C5555,11667 5524,11676 5510,11680C5451,11699 5432,11700 5419,11683Z" style="fill:rgb(51,51,51);fill-rule:nonzero;stroke:black;stroke-width:132.28px;"/>
            <path d="M5595,11205C5562,11197 5509,11187 5478,11184C5446,11180 5420,11172 5420,11166C5420,11160 5411,11149 5400,11143C5381,11130 5366,11090 5355,11016C5351,10992 5342,10976 5331,10973C5319,10970 5310,10950 5301,10911C5284,10832 5289,10798 5321,10783C5336,10776 5352,10758 5358,10743C5379,10685 5399,10593 5405,10530C5413,10440 5428,10390 5445,10390C5458,10390 5460,10361 5460,10210C5460,10045 5459,10030 5443,10030C5428,10030 5427,10028 5440,10020C5448,10015 5450,10010 5444,10010C5419,10010 5403,9887 5401,9695C5399,9547 5402,9501 5413,9486C5425,9470 5444,9467 5566,9463C5642,9461 5735,9452 5771,9445C5844,9429 5906,9428 5933,9442C5948,9450 5950,9471 5950,9674C5950,9855 5947,9906 5933,9946C5924,9973 5912,9998 5906,10002C5899,10007 5894,10076 5892,10196C5889,10374 5889,10383 5909,10401C5922,10414 5930,10433 5930,10455C5930,10473 5937,10522 5946,10562C5955,10602 5966,10653 5969,10675C5979,10729 6001,10769 6030,10783C6061,10799 6075,10852 6061,10900C6056,10919 6048,10947 6045,10963C6042,10978 6034,10990 6027,10990C6020,10990 6008,11012 6001,11040C5994,11067 5977,11106 5964,11125C5951,11145 5940,11165 5940,11170C5940,11176 5921,11180 5898,11180C5874,11180 5831,11186 5803,11194C5717,11217 5659,11220 5595,11205Z" style="fill:rgb(51,51,51);fill-rule:nonzero;stroke:black;stroke-width:132.28px;"/>
            <path d="M5400,9253C5383,9200 5376,9154 5372,9050C5369,8964 5363,8905 5354,8888C5339,8859 5336,8822 5346,8796C5354,8776 5403,8775 5419,8794C5426,8802 5446,8811 5465,8814C5484,8818 5500,8827 5500,8834C5500,8842 5515,8853 5533,8860C5550,8866 5587,8881 5614,8891C5641,8901 5670,8910 5679,8910C5711,8910 5787,8945 5783,8958C5780,8965 5788,8970 5802,8970C5815,8970 5830,8974 5836,8978C5844,8985 5868,8993 5948,9016C5983,9026 5988,9167 5954,9231C5938,9263 5929,9266 5816,9279C5761,9286 5734,9293 5728,9304C5720,9317 5695,9320 5571,9320L5423,9320L5400,9253Z" style="fill:rgb(51,51,51);fill-rule:nonzero;stroke:black;stroke-width:132.28px;"/>
            <path d="M5913,8868C5878,8858 5850,8844 5850,8837C5850,8830 5792,8806 5715,8781C5640,8757 5576,8732 5572,8725C5568,8718 5534,8701 5495,8686C5384,8644 5357,8628 5349,8597C5343,8576 5346,8568 5360,8560C5381,8549 5846,8548 5945,8559L6005,8565L6008,8717C6011,8898 6011,8898 5913,8868Z" style="fill:rgb(51,51,51);fill-rule:nonzero;stroke:black;stroke-width:132.28px;"/>
            <path d="M5358,8399C5342,8390 5340,8373 5340,8275C5340,8206 5336,8160 5330,8160C5325,8160 5318,8148 5314,8133C5302,8079 5266,7985 5248,7958C5238,7943 5221,7928 5210,7925C5199,7921 5190,7913 5190,7906C5190,7899 5183,7879 5174,7861C5149,7811 5176,7710 5214,7710C5227,7710 5245,7683 5242,7669C5241,7665 5263,7641 5290,7616C5365,7546 5378,7496 5375,7300C5373,7195 5376,7124 5386,7080C5394,7044 5402,6998 5404,6976C5407,6955 5411,6935 5414,6932C5419,6927 5540,6945 5583,6956C5592,6959 5600,6967 5600,6974C5600,6987 5754,7030 5800,7030C5832,7031 5953,7072 5951,7083C5950,7087 5956,7103 5965,7120C5977,7142 5980,7186 5980,7311C5980,7439 5984,7485 5998,7527C6007,7556 6019,7580 6024,7580C6036,7580 6109,7663 6110,7677C6110,7683 6123,7698 6138,7709C6154,7720 6175,7747 6185,7769C6203,7809 6203,7811 6184,7846C6174,7866 6157,7885 6148,7888C6138,7890 6130,7898 6130,7906C6130,7914 6117,7942 6100,7968C6084,7995 6070,8023 6070,8030C6070,8054 6035,8145 6023,8153C6014,8159 6010,8195 6010,8274C6010,8357 6006,8391 5997,8399C5979,8413 5383,8414 5358,8399Z" style="fill:rgb(51,51,51);fill-rule:nonzero;stroke:black;stroke-width:132.28px;"/>
            <path d="M5855,6911C5849,6906 5805,6895 5757,6887C5708,6878 5663,6865 5657,6857C5643,6841 5593,6826 5490,6807C5419,6794 5415,6792 5409,6764C5393,6685 5437,6671 5610,6696C5673,6705 5771,6715 5826,6717L5927,6722L5939,6760C5953,6807 5953,6875 5940,6901C5929,6921 5872,6928 5855,6911Z" style="fill:rgb(51,51,51);fill-rule:nonzero;stroke:black;stroke-width:132.28px;"/>
            <path d="M5773,6599C5768,6594 5716,6585 5659,6579C5602,6574 5540,6565 5521,6559C5502,6552 5464,6545 5437,6541L5389,6535L5362,6455C5348,6411 5332,6373 5328,6372C5311,6365 5296,6323 5289,6260C5285,6224 5278,6182 5274,6165C5266,6127 5224,6070 5204,6070C5197,6070 5190,6061 5190,6051C5190,6026 5177,6018 5120,6005C5077,5995 5074,5992 5035,5917C5013,5874 4987,5834 4978,5829C4968,5823 4960,5811 4960,5802C4960,5783 4894,5710 4878,5710C4872,5710 4870,5703 4874,5695C4877,5685 4873,5680 4862,5680C4819,5681 4731,5644 4717,5620C4689,5571 4687,5534 4711,5506C4724,5492 4739,5480 4746,5480C4752,5480 4765,5469 4774,5455C4783,5441 4824,5413 4865,5393C4931,5361 4940,5353 4940,5330C4940,5309 4930,5296 4900,5276C4878,5262 4856,5250 4850,5250C4845,5250 4840,5246 4840,5240C4840,5225 4801,5193 4761,5174C4708,5150 4690,5130 4690,5098C4690,5062 4650,5020 4616,5020C4582,5020 4560,5010 4560,4996C4560,4989 4548,4978 4533,4971C4517,4963 4498,4955 4490,4951C4482,4947 4464,4922 4450,4895C4436,4868 4411,4839 4395,4830C4371,4817 4362,4802 4351,4755C4339,4704 4339,4686 4353,4606C4362,4556 4371,4477 4374,4430C4378,4376 4385,4341 4393,4335C4408,4324 4430,4226 4430,4170C4430,4149 4438,4122 4449,4109C4459,4096 4470,4075 4474,4063C4478,4052 4496,4030 4514,4016C4533,4002 4550,3980 4554,3967C4565,3922 4622,3810 4633,3810C4645,3809 4699,3739 4713,3707C4717,3696 4729,3686 4740,3683C4771,3675 4763,3660 4728,3660C4710,3660 4684,3669 4670,3680C4656,3691 4637,3700 4628,3700C4618,3700 4610,3705 4610,3711C4610,3717 4592,3742 4570,3767C4548,3792 4530,3821 4530,3831C4530,3842 4524,3850 4517,3850C4503,3850 4451,3927 4431,3977C4424,3994 4411,4010 4402,4012C4393,4015 4380,4028 4374,4041C4350,4092 4321,4167 4309,4210C4302,4235 4291,4260 4284,4266C4277,4272 4266,4294 4261,4316C4256,4337 4246,4373 4241,4395C4235,4417 4230,4469 4230,4510C4230,4552 4223,4612 4215,4643C4207,4676 4200,4744 4200,4801C4200,4867 4205,4913 4215,4937C4247,5013 4222,5124 4170,5136C4156,5140 4125,5153 4100,5165C4075,5178 4047,5191 4037,5194C4028,5197 4015,5211 4010,5224C3995,5264 3956,5284 3909,5276C3862,5269 3830,5251 3830,5232C3830,5225 3826,5222 3820,5225C3800,5237 3720,5134 3720,5095C3720,5086 3711,5076 3701,5073C3690,5070 3677,5055 3671,5039C3665,5023 3656,4998 3650,4983C3645,4967 3631,4906 3619,4845C3600,4749 3597,4698 3596,4450C3595,4174 3596,4164 3617,4125C3644,4076 3660,4018 3660,3968C3660,3932 3687,3859 3703,3852C3707,3850 3710,3832 3710,3812C3710,3785 3704,3771 3689,3762C3662,3745 3648,3757 3616,3825C3602,3854 3585,3880 3577,3883C3564,3888 3553,3917 3526,4020C3499,4124 3490,4170 3483,4242C3480,4282 3471,4320 3465,4325C3438,4347 3422,4687 3442,4800C3448,4836 3453,4871 3453,4878C3453,4884 3457,4890 3462,4890C3466,4890 3470,4884 3471,4878C3471,4871 3480,4899 3489,4940C3518,5063 3558,5171 3584,5195C3615,5223 3627,5282 3611,5325C3600,5357 3602,5373 3629,5435C3654,5494 3659,5511 3654,5524C3648,5539 3608,5560 3585,5560C3577,5560 3566,5568 3561,5578C3556,5587 3530,5606 3503,5619C3415,5661 3405,5668 3389,5697C3380,5712 3365,5727 3354,5729C3329,5734 3292,5776 3270,5826C3250,5872 3211,5888 3164,5870C3130,5857 3093,5857 3053,5872C3026,5882 3010,5881 2972,5870C2910,5852 2586,5856 2520,5876C2495,5884 2463,5890 2448,5890C2404,5890 2330,5913 2330,5927C2330,5934 2313,5944 2291,5950C2270,5955 2241,5969 2227,5980C2213,5991 2196,6000 2188,6000C2172,6001 2139,6029 2124,6055C2116,6069 2100,6076 2067,6078C2027,6081 2021,6078 2015,6058C2011,6045 2000,6016 1989,5993C1979,5969 1970,5941 1970,5930C1970,5919 1964,5910 1956,5910C1943,5910 1924,5859 1900,5760C1878,5668 1858,5611 1842,5592C1831,5580 1803,5530 1779,5480C1755,5431 1729,5390 1722,5390C1715,5390 1707,5382 1704,5373C1701,5363 1686,5328 1670,5295C1655,5262 1640,5227 1637,5217C1633,5208 1618,5195 1603,5189C1560,5173 1500,5129 1500,5114C1500,5106 1494,5100 1486,5100C1464,5100 1400,5023 1400,4995C1400,4977 1411,4963 1440,4945C1462,4931 1483,4920 1488,4920C1493,4920 1516,4902 1540,4880C1564,4858 1593,4840 1605,4840C1616,4840 1630,4836 1635,4832C1650,4819 1717,4803 1802,4791C1858,4783 1886,4774 1901,4759C1919,4741 1931,4738 1977,4742C2015,4745 2035,4752 2042,4763C2047,4773 2057,4780 2064,4780C2072,4780 2091,4787 2106,4795C2148,4817 2160,4814 2160,4782C2160,4739 2105,4688 2043,4672C2015,4664 1989,4652 1986,4644C1978,4623 1820,4624 1820,4644C1820,4665 1807,4670 1735,4681C1700,4686 1656,4696 1638,4704C1620,4712 1586,4726 1563,4736C1539,4745 1520,4759 1520,4765C1520,4772 1508,4781 1493,4785C1477,4788 1448,4802 1428,4816C1407,4829 1385,4840 1378,4840C1361,4841 1330,4865 1330,4877C1330,4894 1232,4960 1206,4960C1186,4960 1121,4890 1126,4875C1130,4867 1135,4862 1140,4865C1150,4871 1165,4834 1197,4723C1222,4633 1224,4610 1225,4440C1226,4258 1231,4220 1254,4220C1260,4220 1286,4175 1313,4121C1339,4067 1366,4020 1373,4017C1380,4014 1392,3993 1400,3969C1450,3807 1474,3744 1489,3738C1494,3737 1501,3699 1504,3655C1507,3611 1516,3546 1524,3510C1532,3474 1544,3419 1551,3386C1559,3348 1573,3319 1590,3301C1617,3274 1668,3169 1691,3091C1698,3067 1709,3046 1716,3043C1723,3041 1736,3006 1747,2967C1762,2908 1765,2861 1763,2712C1762,2506 1750,2440 1708,2397C1678,2366 1674,2349 1690,2303C1710,2246 1811,2236 1885,2284C1903,2295 1921,2313 1923,2322C1926,2333 1938,2340 1953,2340C1967,2340 1982,2345 1985,2350C1993,2362 2207,2363 2214,2351C2217,2346 2236,2339 2255,2336C2274,2332 2290,2325 2290,2320C2290,2314 2306,2310 2325,2310C2344,2310 2360,2315 2360,2320C2360,2326 2369,2330 2380,2330C2391,2330 2400,2326 2400,2320C2400,2315 2416,2310 2435,2310C2454,2310 2470,2314 2470,2320C2470,2325 2487,2334 2508,2341C2529,2347 2569,2374 2598,2401C2627,2428 2658,2450 2668,2450C2696,2450 2734,2499 2754,2562C2757,2572 2774,2582 2796,2586C2816,2590 2857,2606 2889,2623C2945,2653 2945,2653 3111,2653C3266,2654 3336,2645 3395,2619C3423,2607 3579,2570 3601,2570C3612,2570 3620,2564 3620,2557C3620,2550 3639,2536 3663,2527C3742,2494 3754,2485 3777,2438C3790,2411 3807,2390 3814,2390C3826,2390 3870,2338 3870,2323C3870,2310 3916,2260 3928,2260C3943,2260 3993,2209 3985,2202C3976,2193 4032,2140 4050,2140C4068,2140 4110,2100 4110,2084C4110,2074 4123,2066 4186,2038C4198,2032 4234,2031 4266,2034C4299,2037 4372,2044 4430,2049C4543,2059 4570,2065 4570,2084C4570,2090 4587,2104 4608,2115C4658,2140 4698,2178 4716,2217C4725,2234 4739,2250 4749,2253C4776,2260 4794,2355 4781,2426C4775,2458 4770,2500 4770,2521C4770,2567 4762,2590 4745,2590C4737,2590 4729,2608 4725,2633C4721,2656 4708,2691 4696,2710C4683,2729 4668,2762 4661,2783C4654,2803 4643,2820 4636,2820C4603,2820 4534,2929 4558,2944C4571,2952 4610,2921 4610,2904C4610,2896 4616,2890 4623,2890C4641,2890 4707,2820 4719,2788C4725,2772 4736,2760 4743,2760C4758,2760 4785,2726 4820,2663C4833,2639 4851,2618 4861,2615C4878,2609 4887,2591 4910,2513C4923,2472 4921,2434 4900,2335C4894,2308 4887,2264 4883,2238C4880,2211 4872,2190 4866,2190C4860,2190 4833,2152 4805,2105C4778,2058 4749,2020 4743,2020C4736,2020 4730,2014 4730,2006C4730,1998 4727,1985 4724,1976C4720,1966 4725,1958 4736,1954C4747,1950 4776,1930 4802,1909C4828,1887 4856,1870 4864,1870C4873,1870 4880,1864 4880,1856C4880,1849 4911,1823 4950,1799C4988,1775 5020,1750 5020,1744C5020,1729 5084,1660 5098,1660C5104,1660 5112,1650 5115,1638C5119,1625 5135,1594 5151,1569C5167,1544 5180,1516 5180,1506C5180,1497 5191,1478 5205,1464C5233,1436 5237,1412 5215,1404C5207,1400 5200,1393 5200,1386C5200,1379 5180,1354 5155,1330C5130,1306 5110,1280 5110,1273C5110,1266 5104,1260 5097,1260C5080,1260 5042,1220 5040,1200C5036,1167 5054,1141 5097,1119C5122,1106 5157,1079 5174,1058C5192,1037 5213,1020 5219,1020C5246,1020 5292,976 5348,897C5380,852 5409,807 5412,798C5416,789 5434,774 5452,766C5490,748 5540,707 5540,694C5540,677 5625,650 5675,650C5727,650 5810,678 5810,695C5811,707 5894,770 5909,770C5915,770 5927,782 5937,797C5965,843 6012,895 6032,902C6042,906 6050,918 6050,927C6050,952 6118,1020 6142,1020C6153,1020 6164,1028 6167,1039C6173,1061 6242,1120 6263,1120C6282,1120 6310,1153 6310,1176C6310,1199 6268,1289 6257,1290C6252,1290 6238,1302 6225,1318C6213,1333 6186,1352 6167,1359C6143,1369 6130,1381 6127,1398C6121,1430 6129,1460 6145,1460C6151,1460 6163,1479 6170,1502C6177,1526 6191,1557 6201,1572C6212,1587 6226,1613 6231,1630C6237,1646 6248,1660 6256,1660C6274,1660 6329,1720 6330,1740C6330,1759 6349,1780 6366,1780C6386,1780 6470,1840 6470,1854C6470,1861 6485,1875 6503,1886C6599,1942 6610,1951 6610,1982C6610,2001 6599,2025 6580,2047C6564,2065 6550,2088 6550,2098C6549,2119 6527,2150 6512,2150C6493,2150 6481,2183 6465,2276C6457,2325 6446,2382 6441,2404C6429,2451 6444,2552 6468,2595C6478,2612 6496,2629 6508,2635C6520,2640 6533,2653 6536,2664C6540,2675 6557,2704 6575,2729C6592,2754 6610,2783 6613,2793C6617,2802 6624,2810 6629,2810C6642,2810 6719,2892 6720,2906C6720,2915 6780,2950 6795,2950C6798,2950 6800,2938 6800,2923C6799,2894 6766,2848 6738,2838C6730,2834 6703,2792 6679,2743C6655,2695 6632,2653 6627,2652C6609,2643 6590,2587 6590,2538C6590,2509 6585,2469 6580,2450C6573,2430 6572,2384 6576,2341C6581,2273 6585,2263 6619,2229C6639,2209 6672,2174 6693,2151C6714,2128 6739,2110 6751,2110C6763,2110 6774,2102 6777,2091C6783,2066 6847,2050 6942,2050C6993,2049 7025,2044 7049,2031C7076,2016 7091,2015 7119,2022C7191,2040 7250,2070 7250,2087C7250,2106 7308,2154 7338,2160C7352,2163 7368,2174 7374,2185C7399,2230 7432,2270 7444,2270C7451,2270 7463,2282 7471,2297C7504,2363 7552,2430 7560,2425C7566,2421 7570,2425 7570,2434C7570,2450 7623,2498 7655,2510C7666,2515 7690,2524 7708,2530C7725,2537 7740,2548 7740,2555C7740,2567 7786,2581 7870,2594C7890,2598 7941,2612 7985,2626C8058,2651 8079,2653 8235,2653C8402,2654 8406,2654 8457,2626C8485,2611 8521,2595 8537,2591C8555,2587 8570,2573 8579,2552C8587,2534 8598,2520 8604,2520C8610,2520 8625,2504 8638,2485C8650,2466 8666,2450 8674,2450C8682,2450 8690,2443 8694,2435C8697,2427 8707,2420 8717,2420C8726,2420 8753,2401 8777,2378L8820,2336L8932,2332C9008,2329 9075,2333 9138,2344C9259,2365 9340,2365 9387,2343C9408,2333 9430,2320 9435,2314C9465,2281 9514,2258 9558,2256C9621,2254 9680,2283 9680,2315C9680,2348 9670,2370 9655,2370C9641,2370 9629,2397 9606,2479C9585,2552 9584,2881 9604,2960C9611,2990 9620,3027 9624,3041C9627,3055 9641,3079 9655,3094C9669,3109 9680,3127 9680,3135C9680,3143 9691,3173 9704,3202C9718,3231 9736,3271 9744,3291C9753,3311 9766,3330 9774,3333C9781,3336 9790,3351 9793,3367C9796,3382 9803,3413 9809,3435C9815,3457 9825,3509 9830,3550C9847,3678 9872,3780 9886,3780C9894,3780 9902,3792 9906,3808C9916,3855 9951,3963 9971,4008C9981,4031 9990,4057 9990,4065C9990,4073 9996,4080 10004,4080C10011,4080 10020,4088 10023,4098C10027,4107 10046,4144 10067,4180L10104,4245L10108,4420C10110,4516 10116,4598 10121,4601C10126,4604 10133,4624 10136,4646C10139,4667 10148,4699 10156,4717C10164,4734 10170,4754 10170,4762C10170,4769 10177,4789 10186,4805C10223,4874 10196,4960 10138,4960C10112,4960 10096,4950 10058,4910C10032,4883 10007,4860 10002,4860C9998,4860 9973,4847 9947,4830C9921,4814 9893,4800 9885,4800C9877,4800 9855,4784 9836,4765C9816,4746 9794,4730 9787,4730C9779,4730 9751,4721 9724,4711C9697,4700 9639,4684 9595,4674C9551,4665 9511,4651 9507,4643C9495,4623 9361,4625 9354,4645C9351,4653 9330,4665 9308,4670C9287,4676 9252,4697 9231,4716C9210,4734 9187,4750 9181,4750C9175,4750 9170,4764 9170,4780C9170,4797 9175,4810 9183,4810C9209,4810 9290,4776 9290,4764C9290,4752 9343,4740 9402,4740C9425,4740 9446,4747 9457,4759C9480,4782 9533,4800 9579,4800C9647,4800 9806,4854 9813,4879C9815,4888 9842,4909 9873,4925C9904,4940 9939,4963 9950,4975L9972,4998L9935,5039C9915,5061 9890,5082 9879,5085C9868,5089 9855,5102 9850,5115C9845,5128 9818,5151 9788,5167C9747,5188 9729,5206 9710,5244C9696,5270 9674,5303 9662,5317C9650,5331 9640,5346 9640,5351C9640,5371 9545,5540 9534,5540C9528,5540 9517,5561 9510,5588C9490,5666 9478,5703 9459,5754C9448,5781 9440,5811 9440,5821C9440,5831 9432,5844 9422,5849C9411,5855 9400,5880 9392,5917C9375,5995 9332,6072 9300,6081C9268,6088 9224,6067 9217,6040C9214,6029 9205,6020 9196,6020C9187,6020 9160,6004 9134,5985C9109,5966 9077,5950 9063,5950C9047,5950 9036,5943 9033,5932C9031,5921 9013,5910 8987,5903C8799,5853 8553,5840 8388,5872C8346,5880 8319,5879 8281,5870C8245,5862 8221,5861 8201,5868C8155,5884 8110,5870 8090,5832C8066,5788 8051,5772 8022,5757C8007,5751 7989,5732 7980,5715C7972,5699 7956,5679 7946,5671C7911,5645 7817,5600 7798,5600C7788,5600 7777,5593 7774,5585C7771,5577 7752,5562 7733,5550C7700,5531 7699,5528 7705,5488C7709,5465 7721,5433 7731,5416C7753,5380 7755,5352 7738,5315C7723,5282 7751,5187 7786,5155C7799,5143 7810,5126 7810,5118C7810,5109 7817,5085 7826,5064C7849,5009 7879,4886 7886,4812C7890,4777 7899,4742 7906,4735C7927,4714 7926,4494 7905,4486C7897,4483 7890,4468 7890,4453C7890,4418 7873,4288 7849,4135C7831,4017 7805,3930 7789,3930C7779,3930 7740,3857 7740,3839C7740,3817 7710,3765 7689,3752C7671,3741 7666,3741 7654,3757C7629,3790 7646,3930 7675,3930C7682,3930 7692,3963 7699,4013C7706,4058 7721,4110 7732,4127C7745,4149 7754,4190 7760,4252C7766,4316 7774,4348 7784,4356C7807,4372 7817,4430 7797,4430C7772,4430 7762,4479 7756,4620C7752,4732 7727,4908 7707,4970C7704,4978 7699,4997 7696,5013C7692,5028 7684,5040 7677,5040C7665,5040 7640,5084 7640,5104C7640,5124 7585,5192 7562,5201C7549,5206 7536,5219 7533,5229C7528,5250 7470,5280 7434,5280C7402,5280 7350,5250 7350,5233C7350,5225 7340,5215 7328,5210C7315,5205 7292,5192 7275,5180C7259,5169 7229,5155 7209,5150C7187,5144 7162,5125 7141,5100L7109,5059L7125,4982C7151,4860 7156,4709 7136,4602C7127,4552 7118,4479 7116,4438C7112,4378 7108,4363 7091,4351C7079,4344 7070,4328 7070,4316C7070,4304 7061,4270 7050,4240C7039,4210 7030,4179 7030,4172C7030,4165 7021,4140 7010,4118C6999,4095 6990,4070 6990,4063C6990,4056 6984,4050 6977,4050C6970,4050 6944,4011 6920,3963C6895,3916 6868,3875 6858,3872C6849,3870 6837,3855 6831,3839C6818,3802 6760,3730 6743,3730C6736,3730 6730,3723 6730,3715C6730,3696 6659,3660 6620,3660C6604,3660 6590,3663 6590,3666C6590,3669 6612,3694 6639,3722C6666,3749 6696,3788 6706,3808C6717,3828 6737,3857 6752,3871C6767,3885 6782,3910 6786,3926C6795,3967 6849,4050 6866,4050C6874,4050 6880,4058 6880,4067C6880,4076 6888,4092 6897,4102C6907,4113 6918,4148 6922,4183C6926,4217 6935,4268 6941,4295C6947,4323 6954,4378 6957,4418C6960,4469 6965,4490 6975,4490C6983,4490 6991,4498 6993,4508C7017,4593 7009,4797 6982,4808C6961,4816 6921,4862 6920,4878C6920,4904 6887,4940 6844,4960C6820,4972 6795,4991 6789,5001C6783,5013 6769,5020 6750,5020C6705,5020 6670,5040 6670,5065C6670,5102 6649,5150 6633,5150C6625,5150 6596,5166 6570,5185C6544,5204 6520,5220 6518,5220C6515,5220 6496,5236 6476,5255C6455,5274 6434,5290 6429,5290C6423,5290 6420,5307 6422,5328C6425,5363 6428,5367 6504,5405C6555,5431 6586,5453 6591,5468C6596,5480 6610,5494 6623,5499C6653,5511 6662,5533 6654,5574C6647,5614 6601,5652 6538,5669C6511,5677 6490,5688 6490,5694C6490,5701 6470,5726 6445,5750C6420,5774 6400,5803 6400,5813C6400,5823 6392,5834 6383,5837C6363,5842 6310,5911 6310,5932C6310,5948 6292,5962 6230,5993C6205,6005 6181,6024 6175,6035C6170,6047 6149,6072 6129,6092C6088,6132 6060,6203 6060,6263C6060,6316 6040,6380 6023,6380C6016,6380 6010,6391 6010,6405C6010,6419 6002,6447 5992,6468C5982,6488 5968,6524 5960,6547C5949,6583 5941,6591 5911,6600C5864,6613 5787,6613 5773,6599ZM4818,3632C4820,3625 4815,3620 4806,3620C4797,3620 4790,3627 4790,3636C4790,3653 4812,3650 4818,3632ZM6565,3641C6572,3629 6553,3617 6540,3625C6529,3632 6536,3650 6550,3650C6555,3650 6561,3646 6565,3641Z" style="fill:rgb(51,51,51);fill-rule:nonzero;stroke:black;stroke-width:132.28px;"/>
        </g>
    </g>
</svg>
