<?xml version="1.0" encoding="UTF-8" standalone="no"?>
<!DOCTYPE svg PUBLIC "-//W3C//DTD SVG 1.1//EN" "http://www.w3.org/Graphics/SVG/1.1/DTD/svg11.dtd">
<svg width="100%" height="100%" viewBox="0 0 20 20" version="1.1" xmlns="http://www.w3.org/2000/svg" xmlns:xlink="http://www.w3.org/1999/xlink" xml:space="preserve" xmlns:serif="http://www.serif.com/" style="fill-rule:evenodd;clip-rule:evenodd;stroke-linejoin:round;stroke-miterlimit:2;">
    <g transform="matrix(-5.66806e-19,-0.00308555,-0.00308555,5.66806e-19,22.4071,16.4656)">
        <path id="Heavy-gun" serif:id="Heavy gun" d="M1473,7253C1438,7235 1430,7223 1430,7184C1430,7164 1441,7139 1460,7115C1477,7094 1490,7074 1490,7070C1490,7066 1500,7060 1512,7057C1524,7053 1532,7049 1529,7046C1520,7037 1455,7065 1398,7104C1342,7141 1340,7142 1315,7126C1272,7098 1282,7066 1354,6994C1389,6959 1423,6930 1428,6930C1443,6930 1656,6714 1699,6655C1747,6589 1792,6492 1814,6405C1832,6334 1870,6186 1876,6162C1884,6136 1924,6155 1947,6194C1991,6274 1985,6404 1934,6446C1900,6474 1896,6524 1927,6528C1956,6532 2004,6481 2026,6423C2051,6359 2041,6240 2006,6176C1992,6149 1980,6115 1980,6101C1979,6087 1973,6064 1965,6050C1943,6012 1947,5987 1980,5950C2020,5906 2023,5882 2016,5684C2012,5591 2009,5482 2007,5442C2005,5373 2003,5367 1975,5344C1933,5310 1898,5313 1851,5355C1799,5402 1760,5491 1758,5569C1756,5628 1757,5630 1803,5679C1855,5735 1859,5756 1839,5865C1823,5952 1797,5995 1706,6087C1606,6187 1576,6197 1494,6157C1411,6116 1406,6050 1490,6084C1541,6104 1561,6104 1604,6083C1641,6066 1668,6018 1691,5927C1704,5872 1690,5776 1662,5731C1644,5703 1597,5656 1563,5633C1532,5612 1497,5533 1504,5498C1520,5418 1603,5294 1731,5158C1777,5110 1794,5099 1848,5084C1894,5071 1910,5062 1908,5051C1903,5025 1792,5024 1746,5050C1688,5082 1664,5077 1640,5028C1618,4983 1615,4949 1629,4922C1649,4884 1651,4778 1633,4707C1604,4595 1568,4603 1565,4722C1560,4886 1540,4950 1493,4950C1484,4950 1454,4929 1426,4903C1398,4876 1356,4839 1332,4820L1290,4785L1288,4463C1285,4174 1287,4139 1302,4124C1316,4110 1349,4107 1522,4104C1757,4099 1766,4096 1750,4025C1744,4003 1738,3968 1735,3948C1731,3923 1711,3886 1678,3843L1626,3776L1628,3665C1629,3605 1635,3527 1642,3493C1652,3438 1651,3424 1632,3359C1594,3234 1509,3176 1498,3268C1496,3290 1489,3296 1465,3298C1351,3310 1232,3378 1163,3470C1143,3497 1104,3533 1076,3551C1048,3568 1002,3598 973,3616C894,3667 786,3684 697,3659C645,3645 627,3608 658,3577C677,3559 692,3555 753,3555C821,3555 829,3552 902,3507C1005,3443 1087,3360 1128,3277C1184,3167 1276,3099 1452,3040C1525,3016 1562,2997 1600,2964C1629,2940 1656,2920 1662,2920C1675,2920 1760,2970 1785,2993C1852,3053 1872,3080 1887,3128C1906,3188 1898,3228 1853,3288C1810,3346 1843,3371 1900,3324C2019,3223 1982,3073 1805,2940C1777,2919 1740,2899 1723,2896C1659,2882 1660,2889 1655,2494C1650,2053 1650,2057 1656,2050C1659,2047 1693,2045 1731,2044C1800,2044 1800,2044 1850,1995C1899,1946 1914,1910 1885,1910C1877,1910 1856,1923 1838,1940C1821,1956 1796,1970 1783,1970C1753,1970 1681,1934 1674,1915C1663,1888 1720,1783 1758,1758C1823,1716 1829,1676 1829,1292L1830,959L1886,907C1962,837 1976,838 1973,915C1971,948 1971,1009 1972,1050C1974,1222 1972,1361 1965,1462C1956,1585 1962,1620 1990,1620C2000,1620 2012,1616 2015,1610C2018,1605 2021,1430 2021,1223L2021,846L2046,813C2079,769 2112,769 2139,814C2159,846 2160,860 2160,1214C2160,1581 2163,1620 2195,1620C2226,1620 2229,1581 2228,1227C2227,1031 2229,868 2232,865C2242,855 2271,874 2314,918C2351,957 2353,961 2357,1042C2362,1137 2362,1143 2354,1383C2349,1532 2351,1574 2365,1633C2386,1719 2403,1748 2439,1761C2458,1768 2474,1788 2497,1836C2515,1872 2526,1908 2523,1916C2516,1935 2444,1970 2413,1970C2400,1970 2379,1959 2367,1947C2355,1934 2335,1918 2322,1911C2304,1901 2299,1902 2294,1914C2287,1931 2313,1971 2360,2015C2388,2042 2397,2045 2463,2045L2535,2045L2535,2335C2535,2495 2531,2656 2526,2693C2520,2743 2521,2772 2530,2801C2542,2837 2542,2842 2521,2864C2509,2877 2481,2893 2459,2899C2430,2908 2394,2935 2335,2993C2243,3084 2213,3143 2225,3210C2233,3252 2295,3336 2323,3344C2367,3355 2372,3326 2334,3280C2282,3219 2293,3103 2356,3039C2406,2988 2420,2978 2482,2946C2536,2918 2539,2917 2564,2934C2578,2943 2590,2955 2590,2960C2590,2976 2681,3030 2707,3030C2736,3030 2875,3085 2911,3111C2926,3121 2943,3130 2948,3130C2965,3130 3016,3195 3050,3259C3096,3345 3186,3439 3283,3502L3365,3555L3441,3553C3506,3551 3521,3554 3535,3570C3561,3599 3547,3638 3505,3656C3463,3673 3357,3674 3308,3656C3222,3625 3104,3545 3025,3464C2924,3360 2846,3316 2741,3301C2701,3296 2695,3292 2688,3263C2681,3237 2674,3230 2656,3230C2626,3230 2575,3291 2565,3340C2562,3359 2553,3390 2547,3407C2539,3431 2539,3452 2548,3487C2555,3514 2560,3582 2561,3640L2562,3745L2512,3790C2425,3868 2430,3842 2430,4236C2430,4428 2431,4592 2432,4600C2438,4661 2411,4667 2377,4613C2365,4592 2345,4544 2333,4505C2280,4328 2269,4278 2267,4197C2265,4121 2267,4109 2288,4088C2311,4062 2317,4035 2300,4025C2270,4006 2212,4092 2196,4178C2187,4229 2187,4259 2197,4319C2221,4460 2292,4650 2359,4755C2400,4820 2420,4858 2436,4908C2445,4934 2472,4981 2495,5012C2535,5066 2537,5071 2530,5112C2525,5136 2523,5205 2524,5265C2526,5394 2521,5408 2479,5377C2434,5345 2417,5361 2407,5446C2402,5484 2395,5695 2390,5915C2380,6389 2380,6294 2386,6638C2391,6911 2391,6920 2372,6920C2361,6920 2341,6911 2327,6900C2294,6874 2214,6840 2185,6840C2160,6840 2135,6864 2144,6878C2147,6884 2179,6898 2215,6911C2370,6965 2457,7150 2342,7179C2199,7215 2212,7214 2105,7185C2017,7161 1994,7158 1910,7163C1820,7169 1706,7196 1553,7249C1507,7265 1498,7266 1473,7253ZM1854,2814C1878,2791 1878,2380 1855,2380C1846,2380 1828,2392 1815,2408C1791,2434 1791,2439 1790,2617C1790,2794 1791,2799 1812,2814C1839,2833 1835,2833 1854,2814ZM2137,2800C2162,2750 2143,2302 2115,2271C2097,2252 2060,2266 2059,2293C2059,2305 2058,2427 2058,2563C2057,2768 2059,2813 2071,2821C2094,2836 2124,2827 2137,2800ZM2394,2808C2407,2790 2410,2755 2410,2635C2410,2553 2405,2469 2400,2449C2388,2406 2345,2361 2329,2377C2314,2392 2314,2796 2330,2815C2348,2837 2376,2833 2394,2808Z" style="fill:rgb(51,51,51);fill-rule:nonzero;"/>
    </g>
</svg>
