<?xml version="1.0" encoding="UTF-8" standalone="no"?>
<!DOCTYPE svg PUBLIC "-//W3C//DTD SVG 1.1//EN" "http://www.w3.org/Graphics/SVG/1.1/DTD/svg11.dtd">
<svg width="100%" height="100%" viewBox="0 0 20 20" version="1.1" xmlns="http://www.w3.org/2000/svg" xmlns:xlink="http://www.w3.org/1999/xlink" xml:space="preserve" xmlns:serif="http://www.serif.com/" style="fill-rule:evenodd;clip-rule:evenodd;stroke-linejoin:round;stroke-miterlimit:2;">
    <g transform="matrix(1.02626,0,0,1.02626,-0.262577,-0.262577)">
        <g id="Hurom">
            <g transform="matrix(1,0,0,1,5.72714,9.52971)">
                <path d="M0,0.494C-0.003,0.591 0.047,0.62 0.133,0.662C0.213,0.7 0.287,0.717 0.372,0.717L0.379,0.717C0.473,0.716 0.566,0.716 0.66,0.716L0.831,0.716C0.932,0.716 1.015,0.717 1.082,0.717C1.208,0.717 1.279,0.712 1.3,0.684C1.323,0.653 1.298,0.577 1.257,0.45C1.237,0.386 1.211,0.306 1.184,0.21C1.168,0.152 1.149,0.094 1.133,0.045C1.045,-0.22 1.042,-0.222 0.789,-0.222C0.557,-0.223 0.302,-0.221 -0.012,-0.218C-0.051,-0.217 -0.075,-0.195 -0.077,-0.156C-0.078,-0.141 -0.079,-0.125 -0.081,-0.11C-0.086,-0.066 -0.091,-0.02 -0.075,0.01C0.01,0.167 0.005,0.333 0,0.494M0.174,0.138C0.189,0.118 0.212,0.106 0.237,0.103L0.272,0.1C0.363,0.09 0.458,0.081 0.548,0.099C0.578,0.105 0.614,0.099 0.652,0.092C0.737,0.077 0.845,0.059 0.89,0.212L0.892,0.22L0.888,0.227C0.844,0.304 0.782,0.318 0.72,0.318C0.702,0.318 0.683,0.317 0.665,0.315C0.631,0.313 0.598,0.311 0.569,0.317C0.557,0.319 0.546,0.318 0.535,0.317L0.502,0.317L0.502,0.312L0.443,0.312C0.381,0.312 0.32,0.312 0.26,0.311C0.201,0.311 0.165,0.278 0.155,0.22C0.15,0.189 0.157,0.16 0.174,0.138" style="fill:rgb(81,57,61);fill-rule:nonzero;"/>
            </g>
            <g transform="matrix(1,0,0,1,13.4941,9.30871)">
                <path d="M0,0.933L0,0.935C0.097,0.935 0.195,0.936 0.294,0.936C0.368,0.936 0.444,0.935 0.518,0.933C0.627,0.93 0.696,0.878 0.728,0.772C0.737,0.743 0.748,0.715 0.758,0.687C0.785,0.621 0.81,0.557 0.804,0.484C0.798,0.413 0.802,0.341 0.805,0.271C0.807,0.237 0.809,0.203 0.809,0.168C0.811,0.081 0.809,0.038 0.791,0.02C0.774,0.003 0.737,0 0.665,-0.001C0.418,-0.003 0.177,-0.003 -0.052,-0.002C-0.251,-0.001 -0.366,0.094 -0.403,0.288C-0.433,0.443 -0.48,0.645 -0.569,0.836C-0.581,0.861 -0.581,0.886 -0.569,0.904C-0.558,0.922 -0.537,0.932 -0.513,0.932C-0.395,0.933 -0.279,0.933 -0.16,0.933L0,0.933ZM-0.131,0.418C-0.123,0.409 -0.114,0.4 -0.106,0.39C-0.081,0.361 -0.055,0.331 -0.023,0.329C0.121,0.321 0.267,0.321 0.406,0.322L0.501,0.322C0.527,0.322 0.547,0.349 0.556,0.364C0.572,0.391 0.585,0.431 0.57,0.458C0.551,0.494 0.529,0.527 0.502,0.529C0.425,0.533 0.348,0.532 0.273,0.532L0.213,0.532L0.212,0.548L0.115,0.539C0.04,0.531 -0.035,0.523 -0.109,0.515C-0.128,0.512 -0.154,0.491 -0.156,0.471C-0.157,0.451 -0.143,0.43 -0.131,0.418" style="fill:rgb(81,57,61);fill-rule:nonzero;"/>
            </g>
            <g transform="matrix(1,0,0,1,8.62814,16.3727)">
                <path d="M0,0.68L0.011,0.68C0.06,0.677 0.108,0.676 0.157,0.676C0.246,0.676 0.335,0.68 0.422,0.682C0.692,0.692 0.971,0.701 1.242,0.618C1.299,0.601 1.444,0.567 1.561,0.643C1.624,0.684 1.691,0.683 1.759,0.682C1.776,0.681 1.793,0.681 1.81,0.682C1.9,0.683 1.99,0.682 2.081,0.682C2.125,0.682 2.169,0.683 2.211,0.682C2.303,0.682 2.395,0.683 2.488,0.683C2.544,0.683 2.601,0.683 2.657,0.682C2.857,0.677 2.99,0.538 2.987,0.335C2.986,0.255 2.984,0.161 2.974,0.069C2.972,0.052 2.953,0.025 2.935,0.016C2.888,-0.01 2.815,-0.011 2.743,0.013C2.679,0.034 2.629,0.07 2.61,0.109C2.599,0.132 2.593,0.157 2.587,0.184C2.583,0.2 2.58,0.216 2.575,0.232C2.517,0.414 2.464,0.455 2.276,0.461L2.268,0.461C2.241,0.462 2.213,0.463 2.186,0.462C2.032,0.46 1.971,0.413 1.913,0.256C1.905,0.235 1.899,0.213 1.894,0.192C1.889,0.17 1.884,0.15 1.877,0.131C1.875,0.126 1.863,0.119 1.845,0.117C1.82,0.115 1.801,0.121 1.796,0.129C1.78,0.154 1.764,0.18 1.748,0.206C1.727,0.242 1.704,0.28 1.678,0.315C1.605,0.415 1.506,0.463 1.367,0.463C1.363,0.463 1.359,0.463 1.355,0.462C1.177,0.459 1.049,0.418 0.999,0.231C0.994,0.212 0.975,0.194 0.954,0.175C0.942,0.163 0.929,0.151 0.918,0.138C0.906,0.123 0.899,0.12 0.896,0.12C0.89,0.12 0.883,0.126 0.874,0.136C0.864,0.149 0.852,0.161 0.839,0.172C0.819,0.192 0.799,0.211 0.795,0.23C0.746,0.469 0.564,0.473 0.4,0.46C0.37,0.458 0.34,0.46 0.308,0.454C0.229,0.438 0.164,0.381 0.134,0.301C0.118,0.257 0.115,0.21 0.113,0.164C0.111,0.135 0.109,0.106 0.105,0.078C0.101,0.058 0.084,0.032 0.066,0.021C0.005,-0.019 -0.081,-0.021 -0.158,0.015C-0.231,0.05 -0.279,0.11 -0.286,0.178C-0.292,0.225 -0.292,0.274 -0.292,0.322L-0.292,0.354C-0.291,0.445 -0.251,0.538 -0.183,0.602C-0.13,0.653 -0.065,0.68 0,0.68" style="fill:rgb(157,161,183);fill-rule:nonzero;"/>
            </g>
            <g transform="matrix(1,0,0,1,8.14814,4.62571)">
                <path d="M0,-0.284C-0.001,-0.225 -0.002,-0.164 0.003,-0.105C0.005,-0.082 0.005,-0.059 0.007,-0.036C0.009,0.029 0.011,0.09 0.033,0.152C0.122,0.405 0.245,0.646 0.364,0.879C0.435,1.018 0.508,1.16 0.573,1.304C0.578,1.309 0.61,1.316 0.629,1.311C0.646,1.307 0.672,1.287 0.675,1.279C0.661,1.149 0.695,1.025 0.728,0.905C0.76,0.786 0.791,0.673 0.776,0.56C0.776,0.526 0.777,0.496 0.778,0.465C0.784,0.334 0.788,0.22 0.698,0.125L0.694,0.121L0.693,0.115C0.656,-0.073 0.582,-0.253 0.511,-0.427C0.457,-0.559 0.401,-0.694 0.362,-0.833C0.334,-0.931 0.291,-1.025 0.25,-1.116C0.196,-1.235 0.14,-1.358 0.116,-1.491C0.109,-1.522 0.071,-1.554 0.041,-1.58C0.025,-1.594 -0.004,-1.6 -0.022,-1.595C-0.042,-1.59 -0.068,-1.571 -0.071,-1.563C-0.074,-1.316 -0.074,-1.064 -0.073,-0.82L-0.073,-0.719C0.005,-0.579 0.002,-0.429 0,-0.284" style="fill:rgb(76,89,122);fill-rule:nonzero;"/>
            </g>
            <g transform="matrix(1,0,0,1,11.1121,3.29371)">
                <path d="M0,2.396C0.003,2.448 0.005,2.5 0.009,2.552C0.01,2.557 0.01,2.563 0.009,2.569C0.009,2.575 0.009,2.584 0.011,2.587L0.015,2.595C0.027,2.614 0.04,2.636 0.055,2.643C0.089,2.659 0.125,2.649 0.147,2.618L0.161,2.6C0.191,2.559 0.222,2.518 0.226,2.477C0.236,2.355 0.289,2.231 0.366,2.147C0.45,2.056 0.489,1.941 0.527,1.83C0.562,1.725 0.599,1.618 0.672,1.528C0.676,1.451 0.699,1.378 0.721,1.307C0.751,1.213 0.779,1.123 0.766,1.022C0.75,0.898 0.754,0.771 0.757,0.648C0.759,0.594 0.761,0.54 0.761,0.485L0.761,0.466L0.771,0.466L0.771,0.319C0.771,0.169 0.771,0.014 0.769,-0.138C0.769,-0.177 0.758,-0.219 0.741,-0.253C0.737,-0.258 0.716,-0.263 0.696,-0.263C0.693,-0.263 0.689,-0.263 0.686,-0.262C0.655,-0.258 0.645,-0.236 0.63,-0.197L0.625,-0.182C0.575,-0.055 0.524,0.071 0.474,0.197C0.305,0.615 0.132,1.048 -0.008,1.485C-0.016,1.51 -0.025,1.535 -0.033,1.56C-0.079,1.694 -0.122,1.819 -0.075,1.938C-0.014,2.091 -0.007,2.246 0,2.396" style="fill:rgb(76,89,122);fill-rule:nonzero;"/>
            </g>
            <g transform="matrix(1,0,0,1,10.9951,14.5277)">
                <path d="M0,-0.946C-0.011,-1.042 -0.023,-1.151 0.048,-1.242L0.014,-1.313C-0.021,-1.389 -0.057,-1.467 -0.091,-1.546C-0.101,-1.568 -0.102,-1.592 -0.104,-1.615C-0.104,-1.624 -0.104,-1.632 -0.105,-1.64C-0.112,-1.704 -0.148,-1.755 -0.22,-1.801C-0.239,-1.801 -0.311,-1.707 -0.325,-1.614C-0.328,-1.596 -0.328,-1.576 -0.328,-1.555C-0.329,-1.53 -0.329,-1.505 -0.334,-1.48C-0.357,-1.356 -0.442,-1.284 -0.567,-1.28L-0.597,-1.279C-0.692,-1.274 -0.797,-1.27 -0.832,-1.42C-0.843,-1.467 -0.871,-1.51 -0.9,-1.556C-0.911,-1.573 -0.922,-1.591 -0.932,-1.608C-0.94,-1.622 -0.958,-1.631 -0.986,-1.633C-1.014,-1.633 -1.04,-1.622 -1.053,-1.603C-1.087,-1.555 -1.119,-1.508 -1.141,-1.457C-1.201,-1.316 -1.308,-1.259 -1.49,-1.279C-1.607,-1.293 -1.692,-1.379 -1.706,-1.498C-1.711,-1.54 -1.714,-1.583 -1.716,-1.625C-1.718,-1.671 -1.721,-1.719 -1.727,-1.766C-1.729,-1.775 -1.752,-1.798 -1.771,-1.802C-1.789,-1.806 -1.821,-1.798 -1.827,-1.792L-1.855,-1.73C-1.966,-1.495 -2.07,-1.272 -2.037,-1.03C-2.037,-1 -2.036,-0.975 -2.035,-0.952C-2.034,-0.904 -2.033,-0.863 -2.038,-0.822C-2.051,-0.721 -1.997,-0.687 -1.905,-0.665C-1.838,-0.647 -1.685,-0.592 -1.7,-0.501C-1.71,-0.436 -1.793,-0.421 -1.85,-0.389C-1.868,-0.39 -1.888,-0.389 -1.908,-0.388C-1.924,-0.387 -1.94,-0.386 -1.956,-0.386L-1.968,-0.386C-2.024,-0.386 -2.035,-0.379 -2.036,-0.243C-2.038,-0.037 -2.038,0.153 -2.035,0.337C-2.034,0.367 -2.034,0.423 -2.012,0.451C-1.854,0.65 -1.668,0.834 -1.371,0.84C-1.29,0.841 -1.208,0.841 -1.126,0.841C-1.061,0.84 -0.997,0.84 -0.931,0.838C-0.904,0.838 -0.875,0.837 -0.847,0.837C-0.813,0.837 -0.778,0.838 -0.744,0.842C-0.603,0.86 -0.488,0.809 -0.364,0.755C-0.34,0.745 -0.317,0.734 -0.293,0.724C-0.064,0.63 0.025,0.476 0,0.223C-0.012,0.105 -0.01,-0.016 -0.008,-0.132C-0.007,-0.193 -0.007,-0.254 -0.007,-0.313C-0.008,-0.332 -0.008,-0.386 -0.109,-0.391C-0.138,-0.391 -0.158,-0.387 -0.178,-0.382C-0.192,-0.382 -0.206,-0.382 -0.22,-0.384C-0.287,-0.393 -0.315,-0.485 -0.286,-0.547C-0.198,-0.744 0.034,-0.644 0,-0.946" style="fill:rgb(81,57,61);fill-rule:nonzero;"/>
            </g>
            <g transform="matrix(1,0,0,1,8.74214,13.7317)">
                <path d="M0,2.387C0.141,2.443 0.224,2.564 0.228,2.718C0.229,2.751 0.264,2.791 0.295,2.825C0.302,2.834 0.309,2.842 0.316,2.85C0.33,2.867 0.357,2.876 0.389,2.873C0.412,2.87 0.431,2.859 0.437,2.845C0.456,2.807 0.473,2.768 0.49,2.729C0.508,2.686 0.527,2.645 0.547,2.603C0.569,2.558 0.61,2.533 0.669,2.529C0.805,2.522 0.921,2.525 1.008,2.643C1.046,2.694 1.092,2.747 1.154,2.809C1.196,2.851 1.235,2.872 1.272,2.872L1.281,2.872C1.325,2.867 1.369,2.832 1.412,2.766C1.424,2.748 1.431,2.729 1.439,2.707C1.446,2.687 1.454,2.666 1.466,2.647C1.549,2.507 1.696,2.52 1.802,2.53C1.925,2.542 1.997,2.62 2.012,2.756L2.014,2.77C2.016,2.795 2.019,2.818 2.026,2.839C2.031,2.853 2.045,2.86 2.057,2.864C2.085,2.874 2.126,2.869 2.151,2.854C2.228,2.803 2.257,2.721 2.286,2.642C2.296,2.615 2.306,2.586 2.318,2.56C2.38,2.423 2.463,2.36 2.597,2.349C2.655,2.344 2.683,2.314 2.682,2.253L2.682,-0.39C2.682,-0.423 2.673,-0.448 2.655,-0.463C2.635,-0.482 2.6,-0.489 2.556,-0.484C2.526,-0.481 2.503,-0.47 2.489,-0.451C2.47,-0.428 2.464,-0.392 2.469,-0.345C2.474,-0.303 2.489,-0.265 2.505,-0.224C2.526,-0.17 2.548,-0.113 2.545,-0.046C2.539,0.168 2.54,0.387 2.541,0.598C2.541,0.739 2.542,0.885 2.541,1.029C2.539,1.204 2.449,1.345 2.362,1.482C2.346,1.507 2.33,1.532 2.315,1.557L2.308,1.563C2.267,1.589 2.226,1.615 2.186,1.641C1.961,1.788 1.728,1.938 1.438,1.938C1.402,1.938 1.365,1.936 1.328,1.931C1.266,1.923 1.196,1.923 1.109,1.931C0.882,1.955 0.686,1.872 0.508,1.781C0.388,1.719 0.294,1.631 0.203,1.547C0.177,1.523 0.152,1.499 0.125,1.475C0.032,1.393 -0.008,1.289 -0.007,1.14C-0.002,0.709 -0.003,0.269 -0.004,-0.156L-0.005,-0.293C-0.005,-0.349 -0.012,-0.406 -0.026,-0.458C-0.032,-0.465 -0.058,-0.474 -0.076,-0.474L-0.079,-0.474C-0.102,-0.473 -0.129,-0.457 -0.132,-0.449C-0.145,-0.41 -0.145,-0.365 -0.145,-0.324C-0.146,0.079 -0.146,0.482 -0.146,0.885C-0.146,0.999 -0.145,1.113 -0.145,1.227C-0.144,1.526 -0.143,1.836 -0.149,2.14C-0.151,2.266 -0.129,2.335 0,2.387" style="fill:rgb(116,138,161);fill-rule:nonzero;"/>
            </g>
            <g transform="matrix(1,0,0,1,8.42914,12.3557)">
                <path d="M0,0.597C0.001,0.619 0.018,0.647 0.027,0.651C0.14,0.692 0.256,0.677 0.365,0.656C0.373,0.654 0.391,0.628 0.397,0.601C0.409,0.557 0.429,0.518 0.449,0.481C0.47,0.442 0.49,0.403 0.501,0.359C0.553,0.144 0.657,0.115 0.85,0.137C0.934,0.147 1.049,0.235 1.059,0.316C1.065,0.368 1.067,0.42 1.07,0.471C1.073,0.523 1.076,0.577 1.083,0.629C1.084,0.636 1.11,0.657 1.131,0.661C1.149,0.666 1.179,0.659 1.195,0.647C1.248,0.606 1.277,0.55 1.307,0.474C1.351,0.361 1.446,0.302 1.576,0.315L1.603,0.317C1.685,0.322 1.769,0.328 1.798,0.451C1.812,0.51 1.849,0.566 1.885,0.62L1.898,0.64C1.905,0.651 1.932,0.661 1.952,0.661L1.956,0.661C1.976,0.659 2.004,0.643 2.007,0.635C2.05,0.49 2.082,0.369 2.106,0.256C2.125,0.163 2.187,0.144 2.245,0.138C2.271,0.135 2.297,0.134 2.324,0.134C2.433,0.134 2.538,0.167 2.593,0.311C2.604,0.341 2.619,0.371 2.633,0.4C2.65,0.436 2.669,0.474 2.682,0.513C2.725,0.644 2.812,0.692 2.979,0.673C3.044,0.667 3.081,0.66 3.094,0.602C3.108,0.544 3.126,0.486 3.143,0.431L3.155,0.391C3.192,0.267 3.179,0.154 3.114,0.024C3.069,-0.066 3.027,-0.094 2.934,-0.094L2.932,-0.094C2.629,-0.092 2.325,-0.093 2.023,-0.092L0.827,-0.092C0.766,-0.092 0.705,-0.092 0.644,-0.091C0.498,-0.09 0.348,-0.088 0.2,-0.095L0.193,-0.095C0.145,-0.095 0.095,-0.073 0.054,-0.033C0.012,0.008 -0.013,0.061 -0.012,0.105C-0.01,0.164 -0.009,0.223 -0.008,0.282C-0.006,0.386 -0.004,0.492 0,0.597" style="fill:rgb(157,161,183);fill-rule:nonzero;"/>
            </g>
            <g transform="matrix(1,0,0,1,8.13414,18.3597)">
                <path d="M0,-1.308C-0.011,-1.323 -0.015,-1.34 -0.018,-1.358C-0.021,-1.371 -0.024,-1.383 -0.029,-1.392C-0.044,-1.415 -0.068,-1.431 -0.095,-1.434C-0.119,-1.435 -0.136,-1.43 -0.148,-1.417C-0.163,-1.402 -0.178,-1.387 -0.194,-1.372C-0.233,-1.337 -0.272,-1.3 -0.294,-1.257C-0.338,-1.168 -0.385,-1.08 -0.431,-0.993C-0.581,-0.711 -0.736,-0.42 -0.829,-0.108C-0.834,-0.091 -0.837,-0.074 -0.839,-0.059L-0.841,-0.048C-0.836,-0.026 -0.801,0.004 -0.759,0.023C-0.725,0.038 -0.697,0.04 -0.689,0.035C-0.619,-0.009 -0.55,-0.054 -0.481,-0.099C-0.356,-0.181 -0.225,-0.266 -0.095,-0.346C0.016,-0.413 0.134,-0.476 0.258,-0.531C0.334,-0.566 0.401,-0.583 0.459,-0.583C0.495,-0.583 0.527,-0.576 0.556,-0.563C0.629,-0.529 0.683,-0.452 0.72,-0.326C0.766,-0.17 0.819,-0.045 0.889,0.069C0.914,0.109 0.948,0.131 0.98,0.129C1.01,0.127 1.037,0.104 1.054,0.065C1.098,-0.038 1.138,-0.145 1.178,-0.248L1.198,-0.3C1.238,-0.404 1.289,-0.533 1.408,-0.594C1.516,-0.649 1.633,-0.689 1.746,-0.727L1.816,-0.751C1.884,-0.774 1.936,-0.742 1.982,-0.713C2.011,-0.694 2.04,-0.677 2.071,-0.673C2.247,-0.654 2.37,-0.557 2.448,-0.376C2.504,-0.245 2.569,-0.115 2.632,0.01L2.657,0.059C2.674,0.091 2.703,0.112 2.733,0.112C2.759,0.112 2.781,0.098 2.794,0.073C2.843,-0.02 2.89,-0.115 2.936,-0.208C2.967,-0.271 2.998,-0.335 3.03,-0.397C3.115,-0.565 3.253,-0.624 3.42,-0.566C3.522,-0.53 3.627,-0.489 3.697,-0.418C3.836,-0.276 4.011,-0.189 4.18,-0.105C4.255,-0.068 4.332,-0.029 4.406,0.013C4.446,0.038 4.462,0.021 4.487,-0.008C4.512,-0.036 4.526,-0.07 4.54,-0.103L4.546,-0.116C4.547,-0.12 4.546,-0.132 4.54,-0.141C4.47,-0.27 4.414,-0.408 4.36,-0.541C4.291,-0.714 4.218,-0.894 4.112,-1.054C4.071,-1.116 4.031,-1.181 3.994,-1.244C3.958,-1.304 3.92,-1.366 3.881,-1.425C3.874,-1.433 3.838,-1.439 3.828,-1.435C3.759,-1.376 3.696,-1.314 3.641,-1.251C3.538,-1.129 3.414,-1.075 3.244,-1.075L3.238,-1.075C2.422,-1.081 1.456,-1.086 0.467,-1.074L0.456,-1.074C0.258,-1.074 0.117,-1.146 0,-1.308" style="fill:rgb(140,177,171);fill-rule:nonzero;"/>
            </g>
            <g transform="matrix(1,0,0,1,8.05714,11.0117)">
                <path d="M0,0.061C-0.002,0.094 -0.003,0.127 -0.002,0.16C0.005,0.402 0.005,0.651 -0.001,0.923C-0.003,1.017 0.023,1.101 0.086,1.201L0.095,1.216C0.111,1.242 0.128,1.27 0.135,1.271C0.144,1.271 0.175,1.238 0.197,1.215C0.208,1.203 0.219,1.191 0.23,1.179C0.31,1.092 0.395,1.002 0.547,1.02C0.557,1.021 0.561,1.018 0.568,1.013C0.584,0.999 0.596,0.973 0.599,0.944C0.628,0.614 0.598,0.352 0.361,0.145C0.336,0.124 0.331,0.074 0.337,0.047C0.342,0.019 0.367,-0.018 0.398,-0.029C0.426,-0.039 0.473,-0.037 0.5,-0.017C0.733,0.163 0.835,0.36 0.822,0.6C0.818,0.681 0.82,0.762 0.822,0.823C0.826,0.963 0.887,1.025 1.018,1.026L1.238,1.027C1.651,1.029 2.077,1.031 2.496,1.024C2.544,1.022 2.596,1.027 2.646,1.031C2.769,1.04 2.887,1.05 2.999,0.989C3,0.948 3.001,0.905 3.003,0.864C3.006,0.748 3.009,0.629 3.016,0.512C3.021,0.435 3.035,0.378 3.059,0.336C3.123,0.224 3.18,0.146 3.242,0.083C3.281,0.043 3.334,0.02 3.386,-0.003C3.404,-0.011 3.422,-0.018 3.448,-0.029C3.47,-0.029 3.492,0.007 3.494,0.012C3.502,0.027 3.513,0.053 3.504,0.072C3.489,0.099 3.475,0.125 3.46,0.152C3.421,0.228 3.38,0.306 3.326,0.374C3.256,0.46 3.228,0.544 3.235,0.646C3.238,0.685 3.237,0.725 3.236,0.763C3.236,0.784 3.235,0.805 3.235,0.826C3.237,0.994 3.237,0.994 3.444,1.029C3.528,1.043 3.592,1.082 3.64,1.148C3.657,1.171 3.668,1.198 3.679,1.223C3.686,1.238 3.692,1.254 3.7,1.268C3.704,1.277 3.707,1.278 3.709,1.278C3.711,1.278 3.72,1.277 3.736,1.26C3.854,1.138 3.909,1.017 3.908,0.88C3.906,0.756 3.906,0.632 3.907,0.508C3.907,0.508 3.907,0.323 3.91,0.323L3.91,0.208C3.91,0.049 3.897,-0.099 3.945,-0.245C3.955,-0.275 3.951,-0.311 3.927,-0.331C3.879,-0.37 3.73,-0.363 3.667,-0.379C3.544,-0.408 3.416,-0.44 3.291,-0.447C2.858,-0.475 2.852,-0.479 2.605,-0.85C2.479,-1.041 2.297,-1.104 2.073,-1.165C1.883,-1.217 1.699,-1.146 1.523,-1.077L1.485,-1.062C1.351,-1.01 1.236,-0.886 1.169,-0.721C1.11,-0.574 0.984,-0.53 0.861,-0.487C0.843,-0.481 0.825,-0.474 0.807,-0.468C0.766,-0.452 0.719,-0.453 0.675,-0.454C0.643,-0.455 0.611,-0.456 0.582,-0.451C0.414,-0.421 0.218,-0.386 0.026,-0.338C-0.002,-0.331 -0.042,-0.303 -0.054,-0.275C-0.059,-0.263 -0.058,-0.252 -0.052,-0.241C0.009,-0.141 0.005,-0.038 0,0.061" style="fill:rgb(76,89,122);fill-rule:nonzero;"/>
            </g>
            <g transform="matrix(1,0,0,1,13.8981,5.23171)">
                <path d="M0,1.11L-0.001,1.142C-0.005,1.278 -0.009,1.418 -0.088,1.543C-0.074,1.651 -0.105,1.752 -0.135,1.849C-0.151,1.901 -0.164,1.953 -0.173,2.004C-0.102,2.038 -0.077,2.146 -0.013,2.191C0.081,2.254 0.215,2.253 0.313,2.202C0.341,2.188 0.367,2.169 0.398,2.162C0.409,2.16 0.422,2.162 0.433,2.164C0.534,2.078 0.654,2.027 0.771,1.978C0.845,1.948 0.896,1.907 0.93,1.849C1.009,1.718 1.086,1.587 1.164,1.456C1.258,1.297 1.352,1.137 1.448,0.978C1.53,0.84 1.614,0.703 1.698,0.566C1.841,0.331 1.99,0.088 2.13,-0.155C2.183,-0.247 2.24,-0.339 2.295,-0.428C2.407,-0.609 2.523,-0.797 2.612,-0.995C2.63,-1.034 2.611,-1.051 2.574,-1.08C2.562,-1.09 2.549,-1.1 2.539,-1.112C2.511,-1.144 2.471,-1.137 2.445,-1.118C2.376,-1.067 2.31,-1.01 2.246,-0.955C2.178,-0.896 2.108,-0.835 2.032,-0.781C1.913,-0.695 1.806,-0.586 1.703,-0.48C1.642,-0.417 1.578,-0.352 1.512,-0.291C1.413,-0.201 1.309,-0.113 1.209,-0.028C1.131,0.037 1.051,0.105 0.974,0.173C0.877,0.258 0.785,0.352 0.695,0.443C0.516,0.622 0.332,0.809 0.104,0.943C0.067,0.965 0.004,1.016 0,1.11" style="fill:rgb(140,177,171);fill-rule:nonzero;"/>
            </g>
            <g transform="matrix(1,0,0,1,4.12114,6.22671)">
                <path d="M0,-0.872C0.061,-0.773 0.122,-0.673 0.182,-0.573C0.248,-0.464 0.315,-0.356 0.381,-0.248C0.544,0.015 0.712,0.287 0.859,0.565C0.998,0.828 1.118,1.019 1.387,1.084C1.411,1.09 1.431,1.105 1.451,1.12C1.468,1.134 1.484,1.146 1.501,1.15C1.523,1.155 1.541,1.163 1.556,1.174C1.572,1.167 1.59,1.163 1.608,1.167C1.638,1.174 1.664,1.193 1.692,1.207C1.79,1.258 1.925,1.259 2.018,1.195C2.065,1.163 2.091,1.097 2.128,1.049C2.113,0.979 2.1,0.909 2.093,0.838C2.085,0.738 2.061,0.634 2.04,0.533C2.027,0.478 2.015,0.422 2.005,0.366C1.996,0.321 1.983,0.278 1.969,0.232C1.949,0.166 1.929,0.097 1.923,0.024C1.917,-0.056 1.857,-0.082 1.789,-0.112C1.748,-0.13 1.705,-0.149 1.673,-0.181C1.534,-0.32 1.382,-0.451 1.235,-0.579C1.095,-0.7 0.95,-0.826 0.814,-0.959C0.528,-1.24 0.223,-1.512 -0.073,-1.774C-0.139,-1.833 -0.205,-1.892 -0.271,-1.952C-0.337,-2.011 -0.417,-2.058 -0.494,-2.103L-0.526,-2.122C-0.541,-2.131 -0.578,-2.126 -0.584,-2.119C-0.609,-2.092 -0.634,-2.051 -0.632,-2.019C-0.628,-1.975 -0.61,-1.922 -0.58,-1.864C-0.4,-1.525 -0.197,-1.193 0,-0.872" style="fill:rgb(140,177,171);fill-rule:nonzero;"/>
            </g>
            <g transform="matrix(1,0,0,1,16.4461,5.46671)">
                <path d="M0,1.108C-0.034,1.133 -0.069,1.158 -0.109,1.166C-0.2,1.183 -0.288,1.229 -0.374,1.273C-0.404,1.289 -0.435,1.304 -0.465,1.319C-0.557,1.362 -0.648,1.405 -0.74,1.448C-1.029,1.584 -1.328,1.725 -1.617,1.873L-1.639,1.884C-1.81,1.972 -1.987,2.062 -2.051,2.268C-2.06,2.3 -2.126,2.308 -2.151,2.302C-2.157,2.301 -2.164,2.296 -2.171,2.292C-2.23,2.326 -2.304,2.333 -2.373,2.324C-2.552,2.302 -2.831,2.117 -2.833,2.432C-2.834,2.591 -2.925,2.746 -3.103,2.892C-3.141,2.922 -3.193,2.942 -3.236,2.942C-3.455,2.941 -3.678,2.934 -3.894,2.928L-3.951,2.926C-3.971,2.925 -3.997,2.906 -4.003,2.886C-4.009,2.867 -3.995,2.849 -3.984,2.834C-3.949,2.787 -3.903,2.728 -3.826,2.726C-3.675,2.723 -3.526,2.726 -3.377,2.723C-3.227,2.72 -3.161,2.673 -3.134,2.55C-3.112,2.454 -3.085,2.359 -3.057,2.266C-2.992,2.041 -2.924,1.809 -2.949,1.565C-2.955,1.498 -2.959,1.402 -2.92,1.336C-2.885,1.276 -2.878,1.215 -2.87,1.149C-2.866,1.114 -2.862,1.077 -2.853,1.042C-2.843,1.003 -2.828,0.967 -2.814,0.931C-2.785,0.857 -2.758,0.789 -2.766,0.696C-2.702,0.603 -2.693,0.498 -2.684,0.387C-2.678,0.306 -2.671,0.223 -2.642,0.145C-2.587,0.001 -2.559,-0.154 -2.532,-0.304C-2.508,-0.436 -2.483,-0.574 -2.44,-0.705C-2.429,-0.737 -2.46,-0.772 -2.53,-0.808C-2.54,-0.814 -2.593,-0.839 -2.622,-0.792C-2.656,-0.739 -2.688,-0.684 -2.72,-0.63C-2.756,-0.571 -2.791,-0.512 -2.828,-0.454C-2.938,-0.279 -3.046,-0.098 -3.15,0.076C-3.298,0.324 -3.451,0.581 -3.615,0.825C-3.786,1.081 -3.916,1.32 -4.012,1.556C-4.041,1.627 -4.068,1.697 -4.096,1.768C-4.122,1.834 -4.147,1.899 -4.174,1.965C-4.196,2.02 -4.247,2.044 -4.304,2.024C-4.333,2.015 -4.369,1.983 -4.374,1.952C-4.418,1.709 -4.385,1.509 -4.274,1.339C-4.251,1.303 -4.228,1.267 -4.206,1.231C-4.16,1.156 -4.112,1.078 -4.053,1.005C-3.922,0.842 -3.805,0.663 -3.691,0.491C-3.654,0.433 -3.616,0.375 -3.577,0.318C-3.572,0.31 -3.566,0.301 -3.559,0.293C-3.532,0.253 -3.5,0.208 -3.503,0.173C-3.513,0.057 -3.482,-0.053 -3.453,-0.159C-3.428,-0.254 -3.403,-0.343 -3.405,-0.436C-3.407,-0.548 -3.378,-0.655 -3.35,-0.758C-3.316,-0.885 -3.284,-1.003 -3.298,-1.145C-3.223,-1.256 -3.218,-1.38 -3.214,-1.512C-3.209,-1.632 -3.204,-1.757 -3.142,-1.871C-3.118,-1.914 -3.123,-1.976 -3.128,-2.036C-3.132,-2.101 -3.137,-2.169 -3.108,-2.221C-3.065,-2.299 -3.06,-2.385 -3.056,-2.468C-3.053,-2.544 -3.049,-2.623 -3.013,-2.693C-2.961,-2.796 -2.958,-2.899 -2.954,-3.008C-2.952,-3.06 -2.951,-3.113 -2.943,-3.167C-2.937,-3.207 -2.927,-3.235 -2.913,-3.257C-2.857,-3.341 -2.858,-3.436 -2.859,-3.537C-2.861,-3.642 -2.862,-3.75 -2.796,-3.844C-2.805,-3.854 -2.813,-3.863 -2.822,-3.872C-2.848,-3.903 -2.874,-3.931 -2.904,-3.949C-2.917,-3.956 -2.933,-3.958 -2.951,-3.952C-2.968,-3.947 -2.981,-3.935 -2.988,-3.918C-3.042,-3.8 -3.094,-3.681 -3.146,-3.562C-3.182,-3.48 -3.218,-3.397 -3.255,-3.315C-3.326,-3.155 -3.398,-2.995 -3.47,-2.835C-3.584,-2.58 -3.699,-2.326 -3.811,-2.07C-3.868,-1.94 -3.93,-1.81 -3.989,-1.683C-4.071,-1.51 -4.155,-1.329 -4.229,-1.15C-4.298,-0.982 -4.369,-0.814 -4.44,-0.647C-4.556,-0.375 -4.676,-0.094 -4.784,0.185C-4.898,0.477 -4.978,0.568 -5.197,0.773C-5.252,0.826 -5.245,0.89 -5.237,0.958C-5.234,0.988 -5.23,1.02 -5.232,1.051C-5.162,1.153 -5.155,1.269 -5.148,1.382C-5.142,1.491 -5.136,1.593 -5.08,1.685C-5.044,1.744 -5.061,1.86 -5.099,1.917C-5.19,2.055 -5.297,2.184 -5.4,2.309L-5.452,2.372C-5.467,2.39 -5.487,2.401 -5.511,2.403C-5.54,2.405 -5.57,2.394 -5.597,2.373C-5.62,2.352 -5.639,2.301 -5.627,2.273L-5.613,2.241C-5.566,2.129 -5.517,2.013 -5.417,1.93C-5.376,1.895 -5.358,1.848 -5.364,1.786C-5.371,1.708 -5.372,1.628 -5.373,1.55C-5.375,1.368 -5.377,1.179 -5.457,0.994C-5.441,0.828 -5.474,0.662 -5.506,0.503C-5.536,0.349 -5.568,0.189 -5.557,0.027C-5.554,-0.021 -5.561,-0.064 -5.578,-0.089C-5.636,-0.175 -5.636,-0.268 -5.637,-0.358C-5.637,-0.387 -5.637,-0.417 -5.639,-0.445C-5.642,-0.485 -5.642,-0.526 -5.641,-0.566C-5.64,-0.649 -5.638,-0.727 -5.668,-0.791C-5.717,-0.9 -5.722,-1.007 -5.726,-1.111C-5.728,-1.137 -5.729,-1.163 -5.731,-1.19C-5.733,-1.216 -5.731,-1.243 -5.729,-1.27C-5.727,-1.321 -5.724,-1.369 -5.744,-1.402C-5.835,-1.558 -5.83,-1.723 -5.816,-1.891C-5.808,-1.984 -5.835,-2.069 -5.86,-2.151C-5.881,-2.22 -5.903,-2.29 -5.906,-2.364L-5.909,-2.43C-5.913,-2.512 -5.917,-2.596 -5.914,-2.679C-5.912,-2.736 -5.934,-2.786 -5.956,-2.838C-5.98,-2.893 -6.005,-2.95 -6.004,-3.02C-6.002,-3.144 -6.046,-3.285 -6.113,-3.378C-6.154,-3.433 -6.227,-3.465 -6.304,-3.499C-6.338,-3.514 -6.374,-3.53 -6.415,-3.552C-6.426,-3.558 -6.439,-3.564 -6.448,-3.575C-6.46,-3.589 -6.465,-3.587 -6.488,-3.578C-6.493,-3.575 -6.499,-3.573 -6.506,-3.571C-6.742,-3.492 -6.897,-3.312 -6.931,-3.074C-6.942,-3.001 -6.957,-2.927 -6.971,-2.856C-7,-2.714 -7.029,-2.568 -7.026,-2.426C-7.023,-2.263 -7.054,-2.103 -7.083,-1.948C-7.116,-1.775 -7.15,-1.595 -7.135,-1.414C-7.132,-1.381 -7.141,-1.343 -7.158,-1.318C-7.235,-1.198 -7.225,-1.063 -7.215,-0.931L-7.213,-0.894C-7.207,-0.813 -7.233,-0.741 -7.259,-0.672C-7.285,-0.603 -7.309,-0.538 -7.302,-0.465C-7.283,-0.288 -7.318,-0.114 -7.351,0.054C-7.384,0.215 -7.417,0.381 -7.402,0.549C-7.4,0.568 -7.398,0.616 -7.421,0.647C-7.482,0.73 -7.482,0.822 -7.481,0.92C-7.481,0.955 -7.481,0.991 -7.483,1.027C-7.486,1.061 -7.485,1.099 -7.483,1.135C-7.479,1.208 -7.476,1.284 -7.508,1.343C-7.558,1.435 -7.561,1.528 -7.564,1.626C-7.565,1.674 -7.567,1.723 -7.575,1.772C-7.585,1.838 -7.562,1.893 -7.496,1.956C-7.442,2.007 -7.387,2.059 -7.349,2.123C-7.319,2.173 -7.314,2.238 -7.31,2.296C-7.307,2.331 -7.334,2.383 -7.364,2.391C-7.397,2.399 -7.465,2.416 -7.503,2.351C-7.515,2.331 -7.526,2.311 -7.537,2.291C-7.562,2.246 -7.585,2.203 -7.615,2.166C-7.668,2.102 -7.726,2.041 -7.783,1.981C-7.808,1.956 -7.833,1.93 -7.857,1.904L-7.868,1.892L-7.858,1.878C-7.802,1.806 -7.799,1.723 -7.798,1.636C-7.797,1.605 -7.796,1.576 -7.793,1.546C-7.791,1.528 -7.791,1.509 -7.79,1.49C-7.787,1.431 -7.785,1.37 -7.757,1.322C-7.714,1.251 -7.712,1.178 -7.71,1.1C-7.71,1.061 -7.709,1.021 -7.703,0.981C-7.678,0.826 -7.733,0.732 -7.872,0.695C-7.955,0.673 -7.975,0.607 -7.99,0.553C-7.995,0.539 -7.999,0.524 -8.004,0.51C-8.072,0.348 -8.141,0.186 -8.21,0.023C-8.3,-0.192 -8.391,-0.407 -8.48,-0.622C-8.63,-0.984 -8.791,-1.347 -8.947,-1.698C-9.077,-1.992 -9.211,-2.295 -9.338,-2.596C-9.363,-2.654 -9.388,-2.712 -9.413,-2.771C-9.445,-2.847 -9.478,-2.923 -9.51,-2.999C-9.561,-3.119 -9.618,-3.239 -9.673,-3.355C-9.755,-3.525 -9.839,-3.702 -9.904,-3.884C-9.906,-3.888 -9.912,-3.893 -9.918,-3.899C-9.922,-3.902 -9.926,-3.906 -9.93,-3.91C-9.961,-3.943 -9.983,-3.947 -10.011,-3.92C-10.05,-3.884 -10.087,-3.85 -10.091,-3.787C-10.097,-3.701 -10.073,-3.616 -10.051,-3.534C-10.031,-3.462 -10.01,-3.388 -10.01,-3.314C-10.009,-3.186 -9.98,-3.06 -9.952,-2.938C-9.918,-2.791 -9.882,-2.638 -9.897,-2.48C-9.899,-2.458 -9.891,-2.429 -9.877,-2.41C-9.824,-2.336 -9.824,-2.254 -9.825,-2.175C-9.825,-2.119 -9.825,-2.065 -9.805,-2.018C-9.755,-1.898 -9.73,-1.773 -9.726,-1.624C-9.725,-1.606 -9.726,-1.587 -9.727,-1.567C-9.73,-1.526 -9.732,-1.483 -9.716,-1.459C-9.632,-1.342 -9.63,-1.214 -9.639,-1.104C-9.645,-1.036 -9.621,-0.971 -9.598,-0.909C-9.576,-0.849 -9.552,-0.786 -9.557,-0.72C-9.564,-0.629 -9.537,-0.543 -9.51,-0.459C-9.484,-0.377 -9.457,-0.292 -9.462,-0.202C-9.473,0.002 -9.413,0.202 -9.277,0.412C-9.123,0.651 -8.956,0.903 -8.768,1.131C-8.571,1.37 -8.509,1.647 -8.58,1.977C-8.586,2.008 -8.642,2.026 -8.671,2.026C-8.698,2.026 -8.754,2.005 -8.76,1.974C-8.779,1.87 -8.818,1.777 -8.858,1.69C-9.032,1.303 -9.253,0.933 -9.465,0.575C-9.511,0.498 -9.557,0.42 -9.603,0.342C-9.677,0.217 -9.759,0.092 -9.837,-0.028C-9.973,-0.234 -10.113,-0.448 -10.22,-0.678C-10.233,-0.705 -10.253,-0.73 -10.267,-0.746C-10.287,-0.771 -10.305,-0.792 -10.325,-0.802C-10.348,-0.814 -10.377,-0.818 -10.392,-0.812C-10.411,-0.807 -10.435,-0.784 -10.438,-0.771C-10.471,-0.612 -10.426,-0.467 -10.368,-0.307C-10.349,-0.253 -10.346,-0.196 -10.344,-0.141C-10.34,-0.067 -10.336,0.009 -10.294,0.077C-10.262,0.129 -10.259,0.188 -10.257,0.245C-10.254,0.307 -10.252,0.366 -10.216,0.417C-10.177,0.473 -10.174,0.539 -10.172,0.602C-10.17,0.674 -10.168,0.741 -10.11,0.808C-10.11,0.931 -10.078,1.052 -10.048,1.17C-10.009,1.319 -9.97,1.474 -9.991,1.638C-10.011,1.79 -9.96,1.926 -9.906,2.07C-9.861,2.19 -9.815,2.313 -9.814,2.446C-9.813,2.477 -9.794,2.51 -9.774,2.545C-9.764,2.563 -9.754,2.58 -9.746,2.597L-9.742,2.607C-9.736,2.618 -9.73,2.629 -9.729,2.642C-9.718,2.695 -9.684,2.718 -9.615,2.72C-9.517,2.722 -9.421,2.723 -9.324,2.724C-9.257,2.724 -9.189,2.724 -9.122,2.726C-9.046,2.726 -9,2.777 -8.962,2.824C-8.95,2.837 -8.938,2.856 -8.938,2.875C-8.939,2.897 -8.963,2.919 -8.98,2.922C-9.231,2.966 -9.485,2.951 -9.73,2.935L-9.741,2.935C-9.787,2.932 -9.838,2.895 -9.865,2.86C-9.94,2.763 -10.022,2.662 -10.065,2.547C-10.087,2.49 -10.075,2.288 -10.117,2.262C-10.208,2.207 -10.398,2.312 -10.494,2.324C-10.575,2.334 -10.665,2.332 -10.733,2.271C-10.746,2.282 -10.758,2.296 -10.772,2.297C-10.788,2.3 -10.816,2.294 -10.844,2.265L-10.956,2.151C-11.023,2.082 -11.09,2.014 -11.157,1.945C-11.221,1.879 -11.303,1.855 -11.39,1.829C-11.444,1.814 -11.499,1.797 -11.55,1.771C-11.908,1.584 -12.277,1.405 -12.634,1.232L-12.894,1.106C-12.939,1.084 -12.992,1.068 -13.055,1.056C-13.067,1.054 -13.089,1.065 -13.113,1.089C-13.103,1.107 -13.094,1.126 -13.084,1.145C-13.062,1.191 -13.038,1.239 -13.006,1.278C-12.941,1.359 -12.876,1.441 -12.81,1.522C-12.582,1.805 -12.348,2.098 -12.101,2.373C-11.956,2.536 -11.89,2.728 -11.83,2.916C-11.801,2.916 -11.772,2.919 -11.744,2.926C-11.535,2.98 -11.342,3.094 -11.225,3.284C-11.206,3.292 -11.19,3.302 -11.186,3.319C-11.176,3.358 -11.173,3.4 -11.169,3.44C-11.167,3.458 -11.165,3.477 -11.163,3.495C-11.15,3.601 -11.138,3.615 -11.053,3.615C-10.635,3.616 -10.217,3.615 -9.798,3.617C-9.569,3.618 -9.426,3.72 -9.382,3.912C-9.37,3.964 -9.351,4.012 -9.331,4.063C-9.304,4.135 -9.275,4.209 -9.267,4.293C-9.255,4.423 -9.201,4.552 -9.148,4.678C-9.139,4.699 -9.13,4.722 -9.121,4.743C-9.091,4.816 -9.05,4.887 -9.011,4.955C-8.995,4.983 -8.978,5.011 -8.963,5.039C-8.924,5.041 -8.885,5.044 -8.847,5.048C-8.755,5.057 -8.659,5.066 -8.583,5.036C-8.46,4.989 -8.343,4.972 -8.218,4.953L-8.195,4.95C-8.131,4.94 -8.057,4.846 -8.055,4.774C-8.055,4.732 -8.056,4.69 -8.057,4.647C-8.06,4.57 -8.063,4.491 -8.052,4.413C-8.014,4.138 -8.129,3.917 -8.272,3.678C-8.288,3.651 -8.311,3.628 -8.334,3.603C-8.353,3.584 -8.371,3.565 -8.387,3.543C-8.404,3.52 -8.409,3.491 -8.415,3.455C-8.418,3.441 -8.417,3.407 -8.392,3.39C-8.367,3.373 -8.334,3.352 -8.308,3.359C-8.268,3.37 -8.226,3.392 -8.188,3.422C-8.068,3.518 -8.002,3.65 -7.938,3.778C-7.896,3.859 -7.854,3.944 -7.798,4.017C-7.734,4.103 -7.744,4.212 -7.755,4.318C-7.759,4.367 -7.764,4.418 -7.761,4.464C-7.756,4.543 -7.758,4.622 -7.761,4.69C-7.765,4.78 -7.753,4.83 -7.725,4.848C-7.694,4.867 -7.638,4.855 -7.555,4.811C-7.396,4.726 -7.363,4.599 -7.351,4.474C-7.334,4.298 -7.341,4.152 -7.288,3.981C-7.282,3.961 -7.274,3.939 -7.257,3.927C-7.221,3.903 -7.172,3.932 -7.152,3.97C-7.101,4.063 -7.123,4.169 -7.118,4.271C-7.117,4.282 -7.115,4.295 -7.107,4.3C-7.1,4.305 -7.082,4.302 -7.059,4.292C-6.969,4.251 -6.871,4.216 -6.766,4.188C-6.656,4.158 -6.617,4.107 -6.617,3.992C-6.62,2.86 -6.62,1.71 -6.62,0.597L-6.619,-0.402L-6.619,-0.544C-6.619,-0.631 -6.618,-0.718 -6.619,-0.805C-6.62,-0.876 -6.587,-0.927 -6.55,-0.977C-6.523,-1.012 -6.494,-1.02 -6.472,-1.02C-6.44,-1.02 -6.406,-1.001 -6.377,-0.967C-6.321,-0.899 -6.321,-0.825 -6.321,-0.754L-6.321,3.74C-6.321,3.844 -6.321,3.949 -6.319,4.053C-6.318,4.11 -6.305,4.146 -6.242,4.163C-6.119,4.195 -6.007,4.234 -5.907,4.279L-5.893,4.285C-5.87,4.295 -5.842,4.308 -5.833,4.302C-5.831,4.301 -5.822,4.293 -5.821,4.255C-5.817,4.165 -5.846,3.937 -5.706,3.93C-5.554,3.924 -5.576,4.489 -5.525,4.607C-5.485,4.698 -5.424,4.769 -5.334,4.833C-5.309,4.85 -5.274,4.857 -5.24,4.864L-5.216,4.868C-5.191,4.873 -5.161,4.866 -5.14,4.849C-5.123,4.835 -5.113,4.817 -5.113,4.799C-5.112,4.715 -5.112,4.629 -5.112,4.544C-5.111,4.42 -5.111,4.296 -5.108,4.172L-5.108,4.136C-5.107,4.069 -5.107,4 -5.078,3.945C-4.968,3.736 -4.864,3.55 -4.713,3.389C-4.688,3.362 -4.643,3.337 -4.57,3.371C-4.509,3.4 -4.515,3.46 -4.519,3.509C-4.527,3.603 -4.588,3.662 -4.646,3.719C-4.664,3.736 -4.682,3.754 -4.698,3.772C-4.833,3.926 -4.895,4.094 -4.888,4.286C-4.883,4.386 -4.884,4.489 -4.885,4.588C-4.886,4.651 -4.886,4.715 -4.885,4.779C-4.884,4.846 -4.804,4.942 -4.742,4.951C-4.704,4.957 -4.663,4.96 -4.623,4.962C-4.543,4.967 -4.46,4.972 -4.389,5.004C-4.316,5.038 -4.245,5.041 -4.171,5.044C-4.145,5.045 -4.119,5.046 -4.092,5.048C-4.081,5.05 -4.071,5.05 -4.06,5.05C-3.957,5.05 -3.89,4.998 -3.841,4.881C-3.768,4.706 -3.699,4.533 -3.664,4.345C-3.63,4.154 -3.557,3.972 -3.484,3.801C-3.431,3.676 -3.335,3.616 -3.185,3.616C-2.761,3.619 -2.336,3.618 -1.975,3.616C-1.918,3.616 -1.859,3.614 -1.811,3.593C-1.782,3.58 -1.78,3.556 -1.78,3.513C-1.78,3.49 -1.779,3.466 -1.771,3.445C-1.752,3.396 -1.721,3.348 -1.668,3.287C-1.551,3.096 -1.357,2.98 -1.145,2.926C-1.125,2.921 -1.104,2.921 -1.084,2.919C-1.07,2.874 -1.06,2.826 -1.062,2.777C-1.065,2.705 -1.026,2.657 -0.989,2.61C-0.646,2.179 -0.306,1.75 0.033,1.322C0.051,1.299 0.072,1.28 0.091,1.26C0.142,1.212 0.19,1.166 0.184,1.088C0.111,1.026 0.062,1.063 0,1.108" style="fill:rgb(157,161,183);fill-rule:nonzero;"/>
            </g>
            <g transform="matrix(1,0,0,1,8.27114,11.5477)">
                <path d="M0,1.548C-0.052,1.47 -0.073,1.385 -0.066,1.282C-0.059,1.169 -0.094,1.081 -0.188,0.981C-0.438,0.714 -0.542,0.433 -0.508,0.121C-0.501,0.067 -0.504,0.009 -0.515,-0.052C-0.537,-0.179 -0.911,-0.019 -0.931,-0.234C-0.955,-0.488 -0.576,-0.316 -0.522,-0.43C-0.517,-0.542 -0.518,-0.66 -0.525,-0.778C-0.529,-0.783 -0.559,-0.802 -0.577,-0.804C-0.64,-0.81 -0.705,-0.809 -0.769,-0.81L-0.799,-0.81C-0.884,-0.81 -0.941,-0.834 -0.974,-0.885C-1.105,-1.09 -1.308,-1.084 -1.506,-1.079C-1.725,-1.073 -1.947,-1.075 -2.161,-1.077C-2.23,-1.078 -2.301,-1.079 -2.366,-1.079C-2.389,-1.079 -2.414,-1.078 -2.439,-1.078C-2.489,-1.078 -2.539,-1.08 -2.586,-1.094C-2.668,-1.117 -2.755,-1.18 -2.752,-1.262C-2.748,-1.384 -2.776,-1.505 -2.802,-1.622C-2.833,-1.76 -2.866,-1.904 -2.847,-2.053C-2.838,-2.133 -2.847,-2.184 -2.876,-2.214C-2.903,-2.244 -2.951,-2.255 -3.027,-2.251C-3.106,-2.25 -3.176,-2.331 -3.194,-2.41C-3.212,-2.495 -3.226,-2.592 -3.21,-2.69C-3.248,-2.748 -3.293,-2.8 -3.348,-2.84C-3.434,-2.901 -3.527,-2.9 -3.617,-2.93C-3.62,-2.898 -3.624,-2.866 -3.63,-2.834C-3.634,-2.809 -3.638,-2.784 -3.641,-2.759C-3.645,-2.728 -3.705,-2.71 -3.733,-2.71C-3.759,-2.71 -3.799,-2.729 -3.813,-2.745C-3.819,-2.752 -3.822,-2.759 -3.822,-2.766C-3.814,-2.89 -3.852,-3.008 -3.889,-3.121C-3.901,-3.157 -3.913,-3.194 -3.923,-3.23C-3.965,-3.377 -4.026,-3.482 -4.113,-3.56C-4.151,-3.594 -4.197,-3.603 -4.262,-3.589C-4.313,-3.579 -4.333,-3.547 -4.333,-3.475L-4.333,-3.356C-4.332,-3.277 -4.332,-3.196 -4.334,-3.116C-4.337,-3.041 -4.303,-3.015 -4.223,-2.983C-4.184,-2.967 -4.161,-2.939 -4.159,-2.904C-4.156,-2.86 -4.186,-2.815 -4.237,-2.786C-4.388,-2.7 -4.554,-2.689 -4.712,-2.686C-4.812,-2.608 -4.929,-2.6 -5.042,-2.592C-5.117,-2.588 -5.195,-2.583 -5.266,-2.557C-5.375,-2.516 -5.494,-2.497 -5.609,-2.478C-5.694,-2.464 -5.782,-2.449 -5.866,-2.427C-5.981,-2.396 -6.099,-2.374 -6.214,-2.352C-6.298,-2.337 -6.384,-2.321 -6.467,-2.301C-6.57,-2.278 -6.673,-2.259 -6.769,-2.242C-6.814,-2.235 -6.859,-2.221 -6.903,-2.207C-6.971,-2.186 -7.041,-2.165 -7.114,-2.165C-7.216,-2.165 -7.315,-2.136 -7.411,-2.109C-7.525,-2.077 -7.643,-2.045 -7.77,-2.055C-7.786,-2.055 -7.808,-2.041 -7.829,-2.027C-7.844,-2.018 -7.86,-2.007 -7.876,-2.001C-8.012,-1.944 -8.017,-1.936 -8.015,-1.794C-8.013,-1.689 -7.976,-1.667 -7.913,-1.666C-7.794,-1.662 -7.674,-1.661 -7.555,-1.66C-7.495,-1.659 -7.435,-1.658 -7.375,-1.657C-7.324,-1.656 -7.273,-1.654 -7.222,-1.652C-7.111,-1.647 -6.996,-1.642 -6.885,-1.652C-6.783,-1.661 -6.691,-1.636 -6.601,-1.611C-6.522,-1.59 -6.449,-1.57 -6.362,-1.57C-6.131,-1.575 -5.896,-1.57 -5.669,-1.565C-5.571,-1.562 -5.473,-1.561 -5.371,-1.559C-5.349,-1.559 -5.327,-1.561 -5.304,-1.563C-5.25,-1.568 -5.192,-1.572 -5.145,-1.55C-4.982,-1.474 -4.807,-1.478 -4.639,-1.481C-4.577,-1.482 -4.513,-1.483 -4.45,-1.48C-4.244,-1.471 -4.074,-1.474 -3.916,-1.489C-3.898,-1.49 -3.879,-1.491 -3.862,-1.491C-3.707,-1.491 -3.584,-1.424 -3.477,-1.284C-3.463,-1.266 -3.45,-1.245 -3.455,-1.222C-3.459,-1.207 -3.471,-1.195 -3.501,-1.181C-3.512,-1.175 -3.524,-1.169 -3.538,-1.168C-3.605,-1.159 -3.662,-1.172 -3.72,-1.208C-3.876,-1.304 -4.011,-1.286 -4.133,-1.153C-4.336,-0.93 -4.539,-0.708 -4.743,-0.487C-4.892,-0.325 -5.04,-0.163 -5.188,-0.001C-5.25,0.066 -5.241,0.15 -5.225,0.236C-5.218,0.276 -5.195,0.301 -5.155,0.312C-5.13,0.32 -5.102,0.327 -5.075,0.324C-5.012,0.317 -4.948,0.317 -4.886,0.317C-4.742,0.317 -4.605,0.316 -4.47,0.244C-4.415,0.215 -4.347,0.219 -4.278,0.221C-4.236,0.223 -4.193,0.225 -4.155,0.219C-4.11,0.212 -4.063,0.198 -4.019,0.184C-3.955,0.164 -3.89,0.144 -3.824,0.144C-3.815,0.144 -3.806,0.145 -3.797,0.144C-3.723,0.144 -3.654,0.12 -3.587,0.097C-3.507,0.069 -3.426,0.04 -3.335,0.05C-3.217,0.063 -3.107,0.032 -2.991,-0C-2.878,-0.031 -2.761,-0.063 -2.636,-0.051C-2.633,-0.051 -2.627,-0.055 -2.622,-0.057C-2.616,-0.06 -2.61,-0.063 -2.604,-0.064C-2.564,-0.078 -2.525,-0.114 -2.5,-0.162C-2.477,-0.206 -2.471,-0.254 -2.483,-0.291C-2.494,-0.324 -2.51,-0.356 -2.525,-0.387C-2.541,-0.419 -2.557,-0.452 -2.569,-0.487C-2.573,-0.499 -2.57,-0.513 -2.561,-0.53C-2.551,-0.549 -2.532,-0.573 -2.512,-0.578C-2.441,-0.599 -2.358,-0.583 -2.291,-0.535C-2.231,-0.493 -2.193,-0.433 -2.188,-0.37C-2.181,-0.286 -2.18,-0.211 -2.185,-0.144C-2.192,-0.044 -2.16,0.034 -2.07,0.12C-1.954,0.233 -1.851,0.332 -1.681,0.332C-1.665,0.332 -1.648,0.331 -1.631,0.329C-1.62,0.328 -1.608,0.328 -1.597,0.328C-1.445,0.328 -1.315,0.431 -1.23,0.522C-1.213,0.54 -1.206,0.555 -1.206,0.569C-1.168,0.618 -1.138,0.675 -1.114,0.73C-1.083,0.801 -1.076,0.881 -1.084,0.958C-1.074,0.962 -1.065,0.965 -1.054,0.97C-1.037,0.979 -1.022,1.004 -1.023,1.03C-1.023,1.06 -1.022,1.092 -1.037,1.119C-1.134,1.299 -1.137,1.449 -1.046,1.604C-1.011,1.663 -0.998,1.752 -1.011,1.832C-1.061,2.137 -0.958,2.386 -0.695,2.591C-0.653,2.624 -0.624,2.672 -0.596,2.72C-0.585,2.738 -0.574,2.756 -0.563,2.772C-0.544,2.801 -0.524,2.817 -0.502,2.82C-0.478,2.824 -0.446,2.814 -0.405,2.785C-0.401,2.782 -0.398,2.78 -0.395,2.777C-0.386,2.77 -0.376,2.762 -0.363,2.757C-0.357,2.754 -0.342,2.749 -0.326,2.749C-0.32,2.749 -0.314,2.75 -0.308,2.752L-0.295,2.755C-0.268,2.763 -0.238,2.77 -0.222,2.793C-0.206,2.814 -0.188,2.883 -0.215,2.902C-0.402,3.035 -0.4,3.229 -0.398,3.443C-0.394,3.758 -0.394,4.078 -0.395,4.388C-0.396,4.551 -0.396,4.715 -0.396,4.878C-0.396,4.942 -0.393,5.013 -0.388,5.1C-0.387,5.114 -0.376,5.127 -0.358,5.136C-0.33,5.151 -0.297,5.151 -0.277,5.139C-0.196,5.088 -0.144,5.036 -0.154,4.944C-0.167,4.818 -0.11,4.717 -0.056,4.619C-0.045,4.601 -0.035,4.582 -0.011,4.554C0.106,4.533 0.106,4.454 0.105,4.354L0.104,3.97C0.102,3.325 0.101,2.658 0.106,2.002C0.107,1.858 0.096,1.691 0,1.548" style="fill:rgb(116,138,161);fill-rule:nonzero;"/>
            </g>
            <g transform="matrix(1,0,0,1,6.97314,12.5767)">
                <path d="M0,-0.059C0.015,-0.165 -0.041,-0.277 -0.134,-0.329C-0.15,-0.338 -0.163,-0.35 -0.176,-0.361C-0.293,-0.424 -0.415,-0.416 -0.546,-0.401C-0.584,-0.397 -0.623,-0.394 -0.662,-0.392C-0.757,-0.315 -0.865,-0.318 -0.97,-0.317C-0.999,-0.317 -1.027,-0.317 -1.055,-0.316C-1.156,-0.311 -1.252,-0.277 -1.344,-0.243C-1.399,-0.223 -1.456,-0.202 -1.515,-0.188C-1.538,-0.182 -1.576,-0.132 -1.575,-0.109C-1.573,-0.085 -1.534,-0.054 -1.498,-0.025C-1.484,-0.014 -1.462,-0.009 -1.441,-0.003L-1.423,0.002C-1.336,0.025 -1.25,0.049 -1.163,0.073C-1.025,0.111 -0.886,0.148 -0.748,0.187C-0.655,0.213 -0.562,0.24 -0.47,0.267C-0.366,0.298 -0.263,0.328 -0.16,0.356C-0.128,0.365 -0.098,0.363 -0.076,0.348C-0.052,0.333 -0.036,0.304 -0.03,0.265C-0.026,0.244 -0.026,0.221 -0.025,0.199C-0.024,0.161 -0.023,0.122 -0.009,0.088C-0.023,0.044 -0.007,-0.01 0,-0.059" style="fill:rgb(140,177,171);fill-rule:nonzero;"/>
            </g>
            <g transform="matrix(1,0,0,1,19.7041,14.9787)">
                <path d="M0,-5.299C-0.014,-5.349 -0.026,-5.393 -0.081,-5.408C-0.121,-5.418 -0.159,-5.434 -0.196,-5.449C-0.251,-5.472 -0.307,-5.495 -0.37,-5.501C-0.59,-5.524 -0.81,-5.571 -1.023,-5.617L-1.063,-5.626C-1.157,-5.646 -1.251,-5.668 -1.344,-5.69C-1.476,-5.72 -1.612,-5.752 -1.746,-5.779C-1.807,-5.79 -1.868,-5.8 -1.929,-5.81C-2.054,-5.83 -2.184,-5.851 -2.306,-5.891C-2.383,-5.915 -2.456,-5.927 -2.533,-5.939C-2.557,-5.942 -2.581,-5.946 -2.605,-5.95C-2.652,-5.958 -2.699,-5.973 -2.744,-5.987C-2.812,-6.008 -2.876,-6.028 -2.941,-6.028C-3.051,-6.028 -3.156,-6.056 -3.256,-6.084C-3.365,-6.114 -3.479,-6.145 -3.593,-6.138C-3.648,-6.135 -3.697,-6.165 -3.748,-6.194C-3.767,-6.204 -3.786,-6.215 -3.804,-6.224C-3.843,-6.242 -3.865,-6.273 -3.866,-6.309C-3.867,-6.351 -3.836,-6.392 -3.785,-6.418C-3.721,-6.451 -3.693,-6.468 -3.693,-6.523C-3.694,-6.566 -3.694,-6.608 -3.695,-6.651C-3.695,-6.756 -3.696,-6.864 -3.701,-6.97C-3.701,-6.982 -3.722,-7.006 -3.742,-7.015C-3.763,-7.024 -3.797,-7.025 -3.807,-7.017C-3.99,-6.877 -4.153,-6.711 -4.117,-6.44C-4.112,-6.403 -4.107,-6.347 -4.121,-6.299C-4.134,-6.253 -4.166,-6.213 -4.194,-6.179C-4.211,-6.16 -4.23,-6.149 -4.251,-6.147C-4.282,-6.144 -4.312,-6.166 -4.331,-6.182C-4.382,-6.228 -4.409,-6.285 -4.414,-6.344C-4.486,-6.328 -4.558,-6.319 -4.626,-6.271C-4.673,-6.237 -4.714,-6.196 -4.748,-6.149C-4.749,-6.145 -4.745,-6.141 -4.746,-6.136C-4.767,-6.03 -4.797,-5.889 -4.842,-5.753C-4.854,-5.714 -4.913,-5.694 -4.961,-5.679C-5.166,-5.611 -5.172,-5.604 -5.178,-5.433C-5.186,-5.2 -5.19,-5.02 -5.189,-4.851C-5.189,-4.767 -5.226,-4.706 -5.282,-4.64C-5.355,-4.552 -5.446,-4.511 -5.57,-4.511C-5.759,-4.512 -5.948,-4.512 -6.137,-4.51C-6.322,-4.509 -6.506,-4.508 -6.691,-4.509C-6.803,-4.511 -6.889,-4.504 -6.951,-4.414C-7.039,-4.287 -7.166,-4.229 -7.354,-4.237C-7.425,-4.239 -7.471,-4.237 -7.492,-4.217C-7.511,-4.199 -7.515,-4.16 -7.518,-4.084C-7.522,-3.956 -7.524,-3.885 -7.498,-3.856C-7.417,-3.768 -6.941,-3.878 -7.175,-3.65C-7.232,-3.595 -7.373,-3.633 -7.44,-3.576C-7.559,-3.474 -7.528,-3.277 -7.517,-3.133C-7.5,-2.916 -7.57,-2.728 -7.731,-2.555C-7.766,-2.518 -7.798,-2.477 -7.83,-2.438C-7.843,-2.421 -7.857,-2.405 -7.87,-2.388L-8.058,-1.63L-8.057,-0.985C-8.057,-0.335 -8.058,0.316 -8.057,0.966C-8.057,1.027 -8.05,1.063 -8.036,1.073C-7.871,1.199 -7.863,1.375 -7.869,1.531C-7.871,1.597 -7.834,1.618 -7.782,1.646C-7.771,1.652 -7.76,1.658 -7.749,1.665C-7.672,1.711 -7.62,1.726 -7.595,1.711C-7.57,1.697 -7.558,1.654 -7.559,1.578C-7.559,1.474 -7.56,1.369 -7.561,1.264C-7.563,0.853 -7.566,0.427 -7.556,0.009C-7.55,-0.233 -7.611,-0.372 -7.766,-0.473C-7.791,-0.49 -7.813,-0.527 -7.817,-0.559C-7.821,-0.588 -7.807,-0.618 -7.791,-0.65C-7.782,-0.668 -7.757,-0.68 -7.726,-0.679C-7.698,-0.678 -7.665,-0.676 -7.643,-0.659C-7.565,-0.602 -7.506,-0.585 -7.437,-0.663C-7.397,-0.709 -7.352,-0.752 -7.31,-0.794C-7.259,-0.845 -7.206,-0.898 -7.159,-0.954C-7.054,-1.081 -7.008,-1.21 -7.017,-1.346C-7.021,-1.402 -7.019,-1.459 -7.017,-1.513C-7.016,-1.562 -7.014,-1.611 -7.016,-1.66C-7.021,-1.76 -6.987,-1.843 -6.911,-1.913C-6.865,-1.955 -6.86,-1.985 -6.892,-2.037C-6.917,-2.079 -6.925,-2.126 -6.932,-2.172C-6.942,-2.228 -6.951,-2.281 -6.99,-2.325C-7.004,-2.341 -7.01,-2.364 -7.009,-2.389C-7.007,-2.398 -6.998,-2.404 -6.995,-2.412C-7.02,-2.508 -7.014,-2.611 -6.974,-2.701C-6.926,-2.81 -6.859,-2.925 -6.744,-2.973C-6.735,-2.977 -6.728,-2.977 -6.719,-2.98C-6.713,-2.982 -6.709,-2.988 -6.703,-2.989C-6.649,-3 -6.595,-3.023 -6.544,-3.044C-6.467,-3.077 -6.387,-3.11 -6.297,-3.11C-6.291,-3.11 -6.286,-3.11 -6.269,-3.109C-6.234,-3.107 -6.184,-3.104 -6.163,-3.121C-5.994,-3.259 -5.802,-3.415 -5.771,-3.671C-5.766,-3.713 -5.764,-3.756 -5.763,-3.797C-5.762,-3.829 -5.76,-3.862 -5.757,-3.894C-5.749,-3.988 -5.672,-4.005 -5.614,-4.011C-5.57,-4.014 -5.522,-4.018 -5.477,-4.011C-5.454,-4.008 -5.434,-3.995 -5.415,-3.984C-5.408,-3.979 -5.4,-3.974 -5.393,-3.97L-5.375,-3.961L-5.385,-3.943C-5.388,-3.939 -5.39,-3.935 -5.392,-3.93C-5.398,-3.921 -5.403,-3.911 -5.41,-3.902C-5.424,-3.883 -5.44,-3.864 -5.455,-3.846C-5.486,-3.808 -5.517,-3.769 -5.543,-3.728C-5.556,-3.707 -5.554,-3.663 -5.538,-3.622C-5.526,-3.592 -5.509,-3.57 -5.494,-3.567C-5.456,-3.556 -5.42,-3.538 -5.386,-3.52C-5.33,-3.491 -5.278,-3.463 -5.209,-3.471C-5.122,-3.48 -5.034,-3.486 -4.977,-3.447C-4.894,-3.39 -4.799,-3.388 -4.699,-3.385C-4.591,-3.381 -4.48,-3.378 -4.387,-3.302C-4.225,-3.31 -4.063,-3.273 -3.909,-3.238C-3.867,-3.228 -3.823,-3.218 -3.781,-3.209C-3.741,-3.201 -3.702,-3.195 -3.662,-3.188C-3.588,-3.175 -3.512,-3.161 -3.436,-3.139C-3.316,-3.105 -3.182,-3.108 -3.054,-3.108C-3.004,-3.109 -2.955,-3.109 -2.906,-3.108C-2.853,-3.108 -2.737,-3.198 -2.725,-3.248C-2.711,-3.301 -2.741,-3.336 -2.786,-3.384C-2.821,-3.421 -2.857,-3.457 -2.895,-3.492C-2.976,-3.571 -3.06,-3.653 -3.124,-3.748C-3.267,-3.964 -3.455,-4.147 -3.636,-4.323C-3.737,-4.422 -3.842,-4.524 -3.938,-4.631C-4.001,-4.701 -4.081,-4.698 -4.169,-4.687C-4.222,-4.681 -4.276,-4.652 -4.322,-4.625C-4.378,-4.592 -4.437,-4.586 -4.509,-4.607C-4.531,-4.613 -4.55,-4.646 -4.555,-4.66C-4.557,-4.665 -4.563,-4.68 -4.555,-4.691C-4.486,-4.797 -4.382,-4.918 -4.176,-4.918C-3.909,-4.912 -3.638,-4.913 -3.375,-4.915C-3.298,-4.916 -3.222,-4.916 -3.143,-4.916C-3.124,-4.916 -3.103,-4.915 -3.082,-4.914C-3.028,-4.91 -2.972,-4.907 -2.936,-4.928C-2.824,-4.997 -2.705,-4.994 -2.596,-4.991C-2.56,-4.99 -2.524,-4.989 -2.491,-4.991C-2.295,-4.998 -2.096,-5 -1.903,-5.001C-1.815,-5.002 -1.727,-5.003 -1.638,-5.004C-1.616,-5.004 -1.589,-5.002 -1.565,-5C-1.514,-4.996 -1.46,-4.992 -1.426,-5.011C-1.294,-5.086 -1.157,-5.085 -1.022,-5.081C-0.98,-5.081 -0.936,-5.08 -0.894,-5.081C-0.761,-5.087 -0.626,-5.088 -0.496,-5.089C-0.391,-5.09 -0.283,-5.091 -0.176,-5.094C-0.116,-5.096 -0.06,-5.109 -0.016,-5.132C0.004,-5.142 0.033,-5.187 0.04,-5.205C0.018,-5.233 0.009,-5.266 0,-5.299" style="fill:rgb(116,138,161);fill-rule:nonzero;"/>
            </g>
            <g transform="matrix(1,0,0,1,14.2311,12.7647)">
                <path d="M0,-0.458C-0.118,-0.494 -0.231,-0.528 -0.361,-0.513C-0.652,-0.631 -0.912,-0.633 -1.157,-0.517C-1.168,-0.512 -1.178,-0.513 -1.188,-0.512C-1.277,-0.458 -1.329,-0.351 -1.315,-0.248C-1.313,-0.234 -1.311,-0.22 -1.308,-0.206C-1.308,-0.206 -1.306,-0.206 -1.306,-0.204C-1.272,-0.143 -1.249,-0.092 -1.233,-0.043C-1.163,0.175 -1.163,0.175 -0.963,0.11C-0.916,0.096 -0.868,0.093 -0.821,0.091C-0.75,0.089 -0.683,0.086 -0.616,0.034C-0.474,0.017 -0.337,-0.03 -0.204,-0.077C-0.051,-0.13 0.107,-0.185 0.276,-0.195C0.282,-0.195 0.291,-0.2 0.306,-0.209C0.336,-0.227 0.345,-0.258 0.336,-0.308C0.329,-0.346 0.304,-0.393 0.294,-0.399C0.194,-0.399 0.095,-0.429 0,-0.458" style="fill:rgb(140,177,171);fill-rule:nonzero;"/>
            </g>
        </g>
    </g>
</svg>
