<?xml version="1.0" encoding="UTF-8" standalone="no"?>
<!DOCTYPE svg PUBLIC "-//W3C//DTD SVG 1.1//EN" "http://www.w3.org/Graphics/SVG/1.1/DTD/svg11.dtd">
<svg width="100%" height="100%" viewBox="0 0 20 20" version="1.1" xmlns="http://www.w3.org/2000/svg" xmlns:xlink="http://www.w3.org/1999/xlink" xml:space="preserve" xmlns:serif="http://www.serif.com/" style="fill-rule:evenodd;clip-rule:evenodd;stroke-linejoin:round;stroke-miterlimit:2;">
    <g transform="matrix(0.953602,0,0,0.953602,-16.0677,0.463978)">
        <g id="Hydar">
            <g transform="matrix(1,0,0,1,35.487,8.56966)">
                <path d="M0,1.107C0.133,1.166 0.245,1.153 0.342,1.064C0.371,1.038 0.406,1.016 0.439,0.994C0.538,0.931 0.623,0.876 0.58,0.728L0.578,0.721L0.582,0.714C0.664,0.561 0.663,0.392 0.652,0.263L0.652,0.182C0.653,0.119 0.653,0.058 0.652,-0.004C0.651,-0.018 0.641,-0.035 0.625,-0.046C0.611,-0.055 0.597,-0.059 0.587,-0.056C0.424,0.003 0.293,0.115 0.167,0.223C0.09,0.289 0.011,0.356 -0.075,0.413C-0.077,0.414 -0.08,0.421 -0.083,0.426C-0.085,0.432 -0.089,0.438 -0.092,0.443C-0.175,0.566 -0.185,0.708 -0.194,0.845C-0.205,1.003 -0.121,1.053 0,1.107" style="fill:rgb(190,204,57);fill-rule:nonzero;"/>
            </g>
            <g transform="matrix(1,0,0,1,33.126,6.98166)">
                <path d="M0,1.012L0.002,1.025C0.004,1.029 0.018,1.04 0.043,1.046C0.066,1.052 0.079,1.05 0.082,1.048C0.093,1.037 0.105,1.026 0.117,1.015C0.149,0.987 0.179,0.96 0.197,0.927C0.235,0.857 0.27,0.784 0.304,0.713C0.331,0.656 0.358,0.597 0.388,0.541C0.524,0.281 0.723,0.128 0.964,0.098C1.027,0.091 1.088,0.068 1.146,0.046C1.22,0.019 1.296,-0.009 1.38,-0.009L1.383,-0.009C1.387,-0.012 1.402,-0.031 1.403,-0.039C1.397,-0.054 1.377,-0.073 1.359,-0.091L1.355,-0.094C1.318,-0.131 1.267,-0.131 1.215,-0.131L1.206,-0.131C0.91,-0.13 0.614,-0.13 0.319,-0.13L0.004,-0.133C-0.1,-0.133 -0.205,-0.132 -0.309,-0.131C-0.573,-0.129 -0.847,-0.127 -1.116,-0.137L-1.139,-0.137C-1.28,-0.137 -1.408,-0.089 -1.54,0.015C-1.684,0.128 -1.772,0.24 -1.823,0.377C-1.888,0.552 -1.976,0.705 -2.085,0.83C-2.122,0.873 -2.148,0.929 -2.174,0.984C-2.184,1.007 -2.195,1.03 -2.207,1.052C-2.21,1.06 -2.207,1.081 -2.195,1.102C-2.184,1.12 -2.173,1.128 -2.169,1.129C-2.111,1.131 -2.052,1.128 -1.992,1.134C-1.868,1.146 -1.783,1.102 -1.729,0.992C-1.695,0.924 -1.659,0.857 -1.624,0.79C-1.573,0.693 -1.521,0.593 -1.474,0.493C-1.442,0.422 -1.41,0.359 -1.354,0.307C-1.309,0.266 -1.25,0.26 -1.212,0.292C-1.179,0.322 -1.15,0.387 -1.164,0.426C-1.206,0.537 -1.261,0.645 -1.31,0.737C-1.345,0.802 -1.382,0.865 -1.418,0.927C-1.446,0.975 -1.474,1.023 -1.501,1.073C-1.502,1.075 -1.506,1.081 -1.5,1.092C-1.492,1.11 -1.468,1.127 -1.442,1.131C-1.352,1.149 -1.278,1.118 -1.237,1.045C-1.145,0.879 -1.012,0.747 -0.884,0.619C-0.839,0.575 -0.793,0.529 -0.75,0.483C-0.599,0.322 -0.411,0.249 -0.19,0.263C-0.02,0.274 0.069,0.364 0.067,0.525L0.067,0.533C0.065,0.603 0.064,0.675 0.02,0.744C-0.031,0.826 -0.016,0.916 0,1.012" style="fill:rgb(95,58,46);fill-rule:nonzero;"/>
            </g>
            <g transform="matrix(1,0,0,1,17.467,11.9027)">
                <path d="M0,-0.489C-0.042,-0.5 -0.089,-0.498 -0.11,-0.497L-0.258,-0.497C-0.269,-0.498 -0.279,-0.499 -0.29,-0.499C-0.404,-0.499 -0.477,-0.443 -0.535,-0.314C-0.603,-0.161 -0.635,-0.071 -0.608,-0.032C-0.58,0.008 -0.478,0.011 -0.312,0.002C-0.269,0 -0.223,0.004 -0.187,-0.007C-0.138,-0.023 -0.103,-0.045 -0.092,-0.066C-0.076,-0.097 -0.058,-0.126 -0.041,-0.155C0.008,-0.235 0.054,-0.312 0.052,-0.41C0.051,-0.451 0.032,-0.481 0,-0.489" style="fill:rgb(104,123,50);fill-rule:nonzero;"/>
            </g>
            <g transform="matrix(1,0,0,1,20.908,5.59566)">
                <path d="M0,-0.218C-0.008,-0.203 -0.016,-0.182 -0.008,-0.161C0.016,-0.09 0.067,-0.049 0.169,-0.017L0.226,0.001C0.448,0.069 0.678,0.14 0.901,0.218C0.934,0.229 0.965,0.241 0.998,0.253C1.15,0.311 1.307,0.371 1.476,0.318L1.481,0.317L1.487,0.318C1.718,0.383 1.871,0.291 1.955,0.037C1.975,-0.024 2.011,-0.072 2.046,-0.118C2.072,-0.152 2.097,-0.185 2.114,-0.222C2.138,-0.271 2.152,-0.341 2.135,-0.368C2.058,-0.494 1.982,-0.598 1.836,-0.598C1.83,-0.598 1.824,-0.597 1.817,-0.597C1.783,-0.594 1.746,-0.597 1.711,-0.599C1.687,-0.6 1.663,-0.601 1.64,-0.601C1.596,-0.601 1.557,-0.597 1.524,-0.58C1.412,-0.521 1.301,-0.519 1.192,-0.516C1.173,-0.516 1.154,-0.516 1.134,-0.515C0.836,-0.504 0.545,-0.429 0.263,-0.356L0.17,-0.333C0.094,-0.313 0.027,-0.268 0,-0.218" style="fill:rgb(190,204,57);fill-rule:nonzero;"/>
            </g>
            <g transform="matrix(1,0,0,1,23.437,0.593663)">
                <path d="M0,0.888C-0.002,0.923 -0.002,0.959 0,0.994L0,1.018C0.002,1.107 0.007,1.157 0.032,1.18C0.057,1.204 0.114,1.205 0.216,1.2C0.513,1.184 0.685,1.047 0.755,0.768C0.763,0.736 0.766,0.702 0.768,0.665C0.771,0.628 0.774,0.59 0.784,0.553C0.864,0.243 0.872,0.06 0.82,-0.317C0.764,-0.284 0.715,-0.24 0.669,-0.197C0.619,-0.152 0.567,-0.105 0.505,-0.07C0.339,0.025 0.153,0.143 0.043,0.3C-0.031,0.405 -0.02,0.538 -0.008,0.68C-0.001,0.749 0.005,0.82 0,0.888" style="fill:rgb(190,204,57);fill-rule:nonzero;"/>
            </g>
            <g transform="matrix(1,0,0,1,25.28,4.84566)">
                <path d="M0,0.038C-0.079,0.172 -0.067,0.299 0.039,0.449C0.083,0.51 0.139,0.565 0.194,0.618C0.211,0.635 0.228,0.652 0.245,0.669C0.317,0.743 0.337,0.741 0.438,0.66C0.594,0.537 0.668,0.382 0.666,0.188C0.664,0.097 0.664,0.006 0.665,-0.085L0.665,-0.224L0.671,-0.224L0.671,-0.301C0.671,-0.429 0.671,-0.558 0.67,-0.685C0.669,-0.688 0.662,-0.697 0.653,-0.705L0.643,-0.705C0.603,-0.666 0.561,-0.625 0.518,-0.584C0.447,-0.514 0.374,-0.443 0.298,-0.375C0.179,-0.268 0.102,-0.135 0.02,0.005L0,0.038Z" style="fill:rgb(150,147,100);fill-rule:nonzero;"/>
            </g>
            <g transform="matrix(1,0,0,1,21.969,3.48866)">
                <path d="M0,-0.866L0,-0.871L-0.094,-0.871C-0.114,-0.871 -0.136,-0.871 -0.156,-0.872C-0.175,-0.873 -0.193,-0.873 -0.21,-0.873C-0.299,-0.873 -0.348,-0.861 -0.363,-0.837C-0.381,-0.806 -0.346,-0.737 -0.288,-0.643C-0.264,-0.604 -0.241,-0.566 -0.218,-0.527C-0.169,-0.444 -0.119,-0.358 -0.061,-0.281C0.123,-0.038 0.232,0.007 0.558,-0.026C0.625,-0.033 0.716,-0.102 0.723,-0.171C0.734,-0.268 0.738,-0.357 0.692,-0.454C0.666,-0.509 0.627,-0.556 0.59,-0.602C0.546,-0.655 0.501,-0.71 0.475,-0.778C0.448,-0.85 0.403,-0.864 0.324,-0.866C0.254,-0.867 0.183,-0.866 0.112,-0.866L0,-0.866Z" style="fill:rgb(104,123,50);fill-rule:nonzero;"/>
            </g>
            <g transform="matrix(1,0,0,1,29.857,4.19566)">
                <path d="M0,2.003C0.002,2.173 0.08,2.255 0.245,2.262C0.258,2.263 0.271,2.266 0.282,2.27L0.291,2.273C0.352,2.291 0.404,2.29 0.438,2.267C0.462,2.252 0.476,2.227 0.48,2.195C0.485,2.157 0.487,2.115 0.487,2.066C0.482,1.737 0.615,1.508 0.906,1.344L0.934,1.329C1.086,1.244 1.243,1.156 1.356,1.017L1.36,1.012C1.415,0.945 1.462,0.886 1.454,0.799C1.443,0.666 1.473,0.537 1.503,0.413C1.532,0.288 1.563,0.159 1.549,0.028L1.548,0.021L1.552,0.015C1.607,-0.071 1.613,-0.167 1.621,-0.269C1.627,-0.356 1.633,-0.445 1.672,-0.525C1.71,-0.606 1.717,-0.691 1.725,-0.781C1.733,-0.878 1.741,-0.977 1.792,-1.072C1.822,-1.129 1.815,-1.207 1.807,-1.298C1.803,-1.343 1.799,-1.389 1.799,-1.437L1.799,-1.443C1.848,-1.593 1.803,-1.741 1.754,-1.897C1.727,-1.984 1.7,-2.073 1.688,-2.165C1.678,-2.171 1.649,-2.181 1.637,-2.177C1.624,-2.174 1.606,-2.148 1.595,-2.133C1.592,-2.129 1.592,-2.116 1.594,-2.11C1.687,-1.927 1.691,-1.782 1.607,-1.639C1.589,-1.609 1.587,-1.566 1.587,-1.523C1.586,-1.404 1.554,-1.298 1.519,-1.187L1.505,-1.14C1.49,-1.092 1.487,-1.04 1.485,-0.986C1.48,-0.896 1.475,-0.803 1.413,-0.721C1.413,-0.573 1.364,-0.436 1.317,-0.304C1.269,-0.172 1.22,-0.035 1.222,0.109L1.222,0.114L1.219,0.119C1.176,0.187 1.153,0.262 1.129,0.343C1.099,0.442 1.069,0.546 0.994,0.632C0.863,0.783 0.697,0.884 0.54,0.974C0.389,1.059 0.238,1.148 0.092,1.234C-0.103,1.349 -0.305,1.468 -0.506,1.579C-0.677,1.674 -0.781,1.765 -0.805,1.951C-0.817,2.042 -0.86,2.128 -0.901,2.212C-0.918,2.246 -0.934,2.279 -0.949,2.313C-0.982,2.391 -1.016,2.47 -1.049,2.548C-1.143,2.77 -1.241,2.999 -1.344,3.22C-1.395,3.33 -1.42,3.447 -1.443,3.562C-1.456,3.625 -1.47,3.691 -1.488,3.755C-1.51,3.832 -1.477,3.902 -1.443,3.977C-1.417,4.034 -1.389,4.093 -1.385,4.157C-1.373,4.167 -1.324,4.183 -1.292,4.184L-1.286,4.184C-1.185,4.184 -1.117,4.125 -1.099,4.022C-1.034,3.627 -0.738,3.44 -0.487,3.321L-0.479,3.319C-0.37,3.319 -0.282,3.269 -0.189,3.216C-0.131,3.184 -0.072,3.15 -0.007,3.129C0.002,3.127 0.018,3.106 0.019,3.099C0.014,3.086 -0.002,3.066 -0.028,3.045C-0.046,3.029 -0.072,3.007 -0.089,3.007L-0.102,3.007C-0.257,3.007 -0.344,2.904 -0.429,2.805C-0.487,2.736 -0.482,2.679 -0.408,2.589C-0.384,2.558 -0.357,2.543 -0.329,2.543L-0.323,2.543C-0.303,2.544 -0.272,2.555 -0.245,2.601C-0.173,2.722 -0.057,2.76 0.064,2.799C0.119,2.817 0.175,2.835 0.227,2.861C0.24,2.867 0.256,2.867 0.271,2.86C0.287,2.853 0.299,2.839 0.304,2.823C0.35,2.648 0.317,2.582 0.154,2.517C0.013,2.46 -0.088,2.386 -0.167,2.284C-0.234,2.199 -0.227,2.088 -0.151,1.982C-0.134,1.959 -0.101,1.932 -0.067,1.928C-0.056,1.929 -0.047,1.931 -0.036,1.94C-0.022,1.952 0,1.98 0,2.003" style="fill:rgb(95,58,46);fill-rule:nonzero;"/>
            </g>
            <g transform="matrix(1,0,0,1,29.261,5.04466)">
                <path d="M0,-0.398L-0.512,-0.916C-0.516,-0.91 -0.519,-0.906 -0.522,-0.901C-0.533,-0.885 -0.542,-0.871 -0.542,-0.861C-0.542,-0.763 -0.541,-0.665 -0.54,-0.567C-0.539,-0.434 -0.538,-0.297 -0.54,-0.162C-0.542,-0.086 -0.52,-0.015 -0.496,0.06C-0.473,0.136 -0.448,0.215 -0.45,0.301C-0.452,0.381 -0.354,0.423 -0.267,0.46L-0.244,0.471C-0.232,0.476 -0.222,0.481 -0.211,0.487C-0.175,0.508 -0.157,0.518 -0.125,0.481C-0.104,0.457 -0.08,0.435 -0.057,0.413C-0.027,0.384 0.002,0.356 0.025,0.324C0.25,0.014 0.267,-0.032 0.023,-0.373C0.016,-0.382 0.008,-0.39 0,-0.398" style="fill:rgb(150,147,100);fill-rule:nonzero;"/>
            </g>
            <g transform="matrix(1,0,0,1,31.713,5.50066)">
                <path d="M0,-0.056C0.062,0.071 0.126,0.201 0.194,0.327C0.213,0.363 0.259,0.423 0.346,0.423L0.354,0.423C0.378,0.422 0.401,0.422 0.428,0.422L0.588,0.422L0.595,0.423C0.698,0.464 0.828,0.42 0.965,0.372C1,0.36 1.036,0.348 1.072,0.336C1.135,0.317 1.199,0.294 1.261,0.272C1.411,0.219 1.565,0.163 1.732,0.147C1.8,0.14 1.869,0.099 1.935,0.059C1.955,0.047 1.976,0.035 1.995,0.024C2.035,0.001 2.059,-0.039 2.057,-0.085C2.056,-0.13 2.03,-0.169 1.987,-0.19L1.956,-0.204C1.851,-0.255 1.743,-0.307 1.635,-0.315C1.52,-0.324 1.407,-0.348 1.297,-0.371C1.13,-0.406 0.957,-0.443 0.783,-0.425C0.749,-0.421 0.662,-0.416 0.604,-0.453C0.541,-0.494 0.475,-0.495 0.405,-0.497C0.376,-0.498 0.346,-0.498 0.316,-0.502C0.168,-0.52 0.054,-0.471 -0.043,-0.346C-0.084,-0.292 -0.1,-0.258 -0.076,-0.21C-0.051,-0.159 -0.025,-0.107 0,-0.056" style="fill:rgb(190,204,57);fill-rule:nonzero;"/>
            </g>
            <g transform="matrix(1,0,0,1,31.975,2.78366)">
                <path d="M0,0.528C0.008,0.6 0.095,0.671 0.16,0.677C0.191,0.68 0.223,0.682 0.247,0.682L0.271,0.683C0.533,0.687 0.534,0.688 0.695,0.522C0.855,0.357 0.965,0.152 1.072,-0.046L1.092,-0.082C1.096,-0.09 1.093,-0.115 1.081,-0.137C1.071,-0.154 1.062,-0.16 1.06,-0.16L0.956,-0.16C0.762,-0.16 0.561,-0.16 0.363,-0.156C0.327,-0.155 0.282,-0.135 0.267,-0.113C0.215,-0.036 0.165,0.045 0.118,0.124C0.084,0.178 0.051,0.233 0.017,0.287C-0.023,0.35 -0.015,0.416 -0.005,0.486C-0.003,0.5 -0.002,0.514 0,0.528" style="fill:rgb(104,123,50);fill-rule:nonzero;"/>
            </g>
            <g transform="matrix(1,0,0,1,30.578,1.68466)">
                <path d="M0,-1.274L-0.179,-1.404C-0.182,-1.401 -0.185,-1.397 -0.186,-1.395C-0.222,-0.961 -0.2,-0.692 -0.098,-0.33C-0.068,-0.222 -0.03,-0.086 0.079,-0.007C0.219,0.095 0.386,0.13 0.605,0.103C0.618,0.102 0.643,0.074 0.644,0.064C0.648,-0.205 0.649,-0.473 0.649,-0.724C0.648,-0.799 0.589,-0.843 0.537,-0.881C0.359,-1.014 0.179,-1.144 0,-1.274" style="fill:rgb(190,204,57);fill-rule:nonzero;"/>
            </g>
            <g transform="matrix(1,0,0,1,24.8,3.03966)">
                <path d="M0,4.25C-0.01,4.275 -0.007,4.283 -0.006,4.285C-0.002,4.292 0.022,4.295 0.039,4.296C0.059,4.298 0.079,4.3 0.095,4.309C0.222,4.39 0.362,4.441 0.483,4.481C0.767,4.573 0.973,4.764 1.081,5.034C1.094,5.069 1.112,5.104 1.129,5.138C1.149,5.181 1.171,5.225 1.187,5.271C1.207,5.328 1.245,5.34 1.304,5.341L1.313,5.341C1.364,5.341 1.396,5.329 1.422,5.275C1.519,5.071 1.531,4.875 1.458,4.66C1.359,4.368 1.236,4.081 1.117,3.803L1.109,3.784C1.082,3.723 1.055,3.663 1.028,3.602C0.951,3.429 0.871,3.25 0.815,3.066C0.779,2.946 0.72,2.861 0.631,2.798C0.483,2.693 0.324,2.583 0.156,2.505C-0.099,2.387 -0.338,2.236 -0.569,2.089C-0.638,2.046 -0.707,2.002 -0.777,1.959C-0.954,1.849 -1.07,1.689 -1.132,1.471C-1.145,1.425 -1.158,1.379 -1.171,1.333C-1.221,1.161 -1.272,0.984 -1.302,0.805C-1.311,0.749 -1.333,0.694 -1.354,0.641C-1.39,0.549 -1.428,0.454 -1.406,0.345C-1.467,0.266 -1.469,0.174 -1.472,0.085C-1.474,0.014 -1.476,-0.052 -1.506,-0.107C-1.551,-0.187 -1.554,-0.272 -1.556,-0.354C-1.558,-0.433 -1.56,-0.507 -1.601,-0.567C-1.68,-0.681 -1.644,-0.782 -1.612,-0.871C-1.593,-0.926 -1.574,-0.977 -1.579,-1.031C-1.58,-1.035 -1.58,-1.04 -1.58,-1.044C-1.58,-1.054 -1.58,-1.062 -1.583,-1.069C-1.587,-1.08 -1.592,-1.088 -1.596,-1.091C-1.6,-1.09 -1.606,-1.086 -1.61,-1.083C-1.618,-1.074 -1.629,-1.065 -1.64,-1.055C-1.661,-1.037 -1.688,-1.015 -1.688,-1C-1.689,-0.902 -1.719,-0.808 -1.747,-0.717C-1.788,-0.586 -1.827,-0.463 -1.789,-0.329L-1.788,-0.324L-1.789,-0.319C-1.812,-0.202 -1.785,-0.088 -1.758,0.023C-1.739,0.105 -1.718,0.19 -1.719,0.276C-1.719,0.388 -1.69,0.497 -1.662,0.603C-1.629,0.729 -1.594,0.859 -1.608,0.996C-1.549,1.073 -1.546,1.162 -1.543,1.247C-1.541,1.306 -1.539,1.362 -1.519,1.412C-1.462,1.552 -1.44,1.698 -1.448,1.887C-1.453,2.023 -1.404,2.13 -1.298,2.214C-1.273,2.234 -1.248,2.254 -1.223,2.274C-1.114,2.362 -1.002,2.454 -0.879,2.516C-0.609,2.652 -0.479,2.861 -0.481,3.156C-0.481,3.229 -0.455,3.288 -0.427,3.352C-0.415,3.379 -0.402,3.408 -0.392,3.437C-0.386,3.456 -0.378,3.467 -0.37,3.47C-0.358,3.475 -0.341,3.467 -0.329,3.459C-0.291,3.437 -0.245,3.421 -0.2,3.416C-0.071,3.4 -0.006,3.335 0.005,3.211C0.008,3.177 0.011,3.143 0.029,3.118C0.047,3.095 0.083,3.077 0.113,3.077L0.115,3.077C0.141,3.078 0.194,3.097 0.203,3.128C0.256,3.332 0.211,3.468 0.054,3.568C-0.007,3.607 -0.076,3.637 -0.142,3.666C-0.181,3.682 -0.22,3.699 -0.258,3.718C-0.292,3.735 -0.308,3.765 -0.305,3.805C-0.303,3.825 -0.303,3.846 -0.302,3.867C-0.301,3.905 -0.299,3.942 -0.291,3.977C-0.287,3.994 -0.274,4.009 -0.257,4.017C-0.243,4.023 -0.229,4.023 -0.218,4.017C-0.158,3.984 -0.089,3.965 -0.023,3.947C0.116,3.908 0.246,3.872 0.309,3.716C0.316,3.697 0.347,3.69 0.375,3.69C0.389,3.69 0.402,3.692 0.411,3.694C0.44,3.705 0.47,3.739 0.475,3.768C0.485,3.82 0.499,3.891 0.448,3.951C0.362,4.053 0.275,4.156 0.117,4.165C0.078,4.167 0.016,4.211 0,4.25" style="fill:rgb(95,58,46);fill-rule:nonzero;"/>
            </g>
            <g transform="matrix(1,0,0,1,23.093,7.35466)">
                <path d="M0,0.265C0.026,0.312 0.051,0.361 0.075,0.409C0.123,0.499 0.171,0.593 0.224,0.682C0.245,0.718 0.282,0.759 0.339,0.759L0.349,0.759C0.357,0.758 0.364,0.758 0.372,0.758C0.399,0.758 0.427,0.761 0.455,0.764C0.526,0.772 0.593,0.779 0.627,0.736C0.676,0.675 0.646,0.623 0.59,0.545C0.569,0.516 0.547,0.486 0.535,0.455C0.51,0.396 0.473,0.341 0.436,0.287C0.416,0.258 0.397,0.229 0.379,0.2C0.366,0.179 0.351,0.158 0.335,0.137C0.296,0.082 0.255,0.026 0.253,-0.034C0.247,-0.159 0.17,-0.218 0.089,-0.28C0.063,-0.3 0.037,-0.321 0.013,-0.343C-0.116,-0.462 -0.27,-0.514 -0.493,-0.508C-0.751,-0.502 -1.014,-0.503 -1.268,-0.505C-1.369,-0.505 -1.47,-0.505 -1.571,-0.506L-1.59,-0.504L-2.719,-0.504C-2.766,-0.504 -2.813,-0.505 -2.858,-0.497C-2.866,-0.496 -2.887,-0.472 -2.892,-0.45C-2.896,-0.437 -2.89,-0.408 -2.885,-0.399C-2.841,-0.386 -2.801,-0.366 -2.762,-0.347C-2.7,-0.317 -2.642,-0.288 -2.57,-0.284C-2.309,-0.266 -2.104,-0.123 -1.942,0.154C-1.902,0.224 -1.868,0.297 -1.836,0.369C-1.81,0.426 -1.783,0.486 -1.752,0.542C-1.727,0.589 -1.682,0.63 -1.641,0.665C-1.629,0.675 -1.597,0.679 -1.58,0.672C-1.565,0.666 -1.544,0.64 -1.544,0.626L-1.543,0.592C-1.54,0.504 -1.537,0.42 -1.58,0.337C-1.612,0.278 -1.613,0.2 -1.614,0.131L-1.614,0.119C-1.616,0.005 -1.527,-0.096 -1.415,-0.108C-1.167,-0.135 -0.962,-0.063 -0.807,0.103C-0.762,0.151 -0.714,0.198 -0.667,0.244C-0.54,0.369 -0.408,0.499 -0.318,0.664C-0.276,0.739 -0.206,0.775 -0.116,0.759C-0.088,0.754 -0.062,0.736 -0.051,0.712C-0.046,0.701 -0.042,0.684 -0.053,0.666C-0.095,0.597 -0.133,0.525 -0.169,0.455C-0.231,0.337 -0.295,0.216 -0.377,0.107C-0.411,0.062 -0.407,-0.025 -0.347,-0.079C-0.329,-0.095 -0.299,-0.102 -0.266,-0.097C-0.224,-0.09 -0.186,-0.067 -0.168,-0.036C-0.109,0.062 -0.055,0.162 0,0.265" style="fill:rgb(95,58,46);fill-rule:nonzero;"/>
            </g>
            <g transform="matrix(1,0,0,1,31.586,13.6407)">
                <path d="M0,0.539L-0.013,0.527C-0.049,0.491 -0.088,0.454 -0.129,0.428C-0.539,0.166 -0.857,-0.023 -1.162,-0.187C-1.167,-0.189 -1.172,-0.192 -1.177,-0.196C-1.18,-0.199 -1.186,-0.202 -1.189,-0.204C-1.197,-0.202 -1.207,-0.2 -1.216,-0.198C-1.245,-0.192 -1.278,-0.185 -1.289,-0.17C-1.345,-0.094 -1.392,-0.007 -1.437,0.076L-1.442,0.085C-1.453,0.106 -1.458,0.137 -1.452,0.15C-1.438,0.179 -1.425,0.207 -1.412,0.236C-1.365,0.336 -1.318,0.439 -1.251,0.523C-1.215,0.567 -1.123,0.582 -1.049,0.594L-1.026,0.597C-0.931,0.613 -0.838,0.639 -0.749,0.663C-0.6,0.705 -0.459,0.743 -0.342,0.727L-0.209,0.727C-0.143,0.727 -0.096,0.727 -0.05,0.726C0.012,0.724 0.054,0.719 0.069,0.663C0.083,0.615 0.052,0.587 0.017,0.555C0.011,0.549 0.006,0.544 0,0.539" style="fill:rgb(104,123,50);fill-rule:nonzero;"/>
            </g>
            <g transform="matrix(1,0,0,1,26.962,18.9307)">
                <path d="M0,-0.494C-0.097,-0.494 -0.194,-0.494 -0.291,-0.495C-0.527,-0.497 -0.77,-0.497 -1.009,-0.491L-1.033,-0.491C-1.149,-0.491 -1.275,-0.513 -1.368,-0.642C-1.376,-0.654 -1.387,-0.664 -1.4,-0.675C-1.41,-0.683 -1.42,-0.692 -1.428,-0.702C-1.464,-0.741 -1.487,-0.728 -1.532,-0.699C-1.538,-0.695 -1.544,-0.691 -1.55,-0.687C-1.562,-0.68 -1.574,-0.674 -1.586,-0.667C-1.621,-0.648 -1.652,-0.633 -1.675,-0.593C-1.839,-0.308 -1.948,0.007 -2.053,0.311C-2.073,0.366 -2.091,0.421 -2.111,0.476C-2.128,0.523 -2.116,0.585 -2.069,0.602C-2.028,0.616 -1.958,0.615 -1.921,0.592C-1.831,0.533 -1.742,0.467 -1.657,0.402C-1.605,0.363 -1.554,0.325 -1.501,0.287C-1.438,0.242 -1.363,0.19 -1.279,0.149C-1.181,0.1 -1.091,0.075 -1.011,0.075C-0.964,0.075 -0.92,0.083 -0.88,0.1C-0.766,0.147 -0.678,0.261 -0.619,0.438C-0.604,0.484 -0.589,0.529 -0.574,0.575C-0.559,0.625 -0.543,0.674 -0.526,0.724C-0.52,0.743 -0.499,0.763 -0.471,0.776C-0.437,0.793 -0.399,0.797 -0.371,0.788C-0.334,0.775 -0.315,0.754 -0.3,0.712C-0.265,0.613 -0.224,0.515 -0.186,0.42C-0.165,0.371 -0.146,0.322 -0.126,0.272C-0.084,0.166 -0.003,0.118 0.098,0.066C0.204,0.012 0.319,-0.007 0.447,0.01C0.627,0.033 0.821,0.089 0.891,0.326C0.914,0.404 0.948,0.481 0.98,0.556C1.004,0.61 1.028,0.666 1.049,0.724C1.069,0.781 1.105,0.79 1.165,0.79C1.22,0.787 1.252,0.766 1.281,0.712C1.312,0.652 1.331,0.587 1.348,0.523C1.361,0.479 1.374,0.434 1.391,0.389C1.451,0.239 1.535,0.142 1.641,0.102C1.75,0.06 1.884,0.079 2.039,0.157C2.112,0.195 2.174,0.231 2.226,0.269C2.324,0.339 2.422,0.413 2.516,0.484C2.559,0.517 2.601,0.549 2.644,0.581C2.699,0.622 2.789,0.625 2.823,0.597C2.862,0.566 2.859,0.527 2.857,0.48C2.857,0.471 2.856,0.461 2.856,0.452L2.856,0.432C2.857,0.41 2.857,0.388 2.85,0.373C2.781,0.24 2.726,0.098 2.672,-0.039C2.603,-0.217 2.531,-0.401 2.429,-0.569C2.4,-0.617 2.363,-0.642 2.324,-0.667C2.31,-0.677 2.295,-0.687 2.28,-0.698C2.228,-0.738 2.2,-0.736 2.161,-0.691C2.136,-0.661 2.107,-0.633 2.079,-0.606C2.065,-0.592 2.051,-0.579 2.037,-0.565C1.991,-0.517 1.935,-0.494 1.869,-0.494C1.731,-0.494 1.595,-0.493 1.456,-0.494C1.174,-0.494 0.883,-0.494 0.597,-0.499C0.555,-0.499 0.516,-0.528 0.479,-0.555C0.466,-0.565 0.453,-0.574 0.44,-0.582C0.419,-0.596 0.408,-0.611 0.406,-0.628C0.404,-0.646 0.411,-0.664 0.429,-0.682C0.479,-0.735 0.537,-0.783 0.628,-0.783L0.63,-0.783C0.873,-0.781 1.111,-0.781 1.332,-0.783C1.553,-0.784 1.734,-0.787 1.901,-0.793C1.92,-0.793 1.95,-0.811 1.952,-0.82C1.992,-0.963 1.99,-1.083 1.947,-1.188C1.929,-1.233 1.885,-1.265 1.826,-1.275C1.734,-1.291 1.622,-1.262 1.599,-1.16C1.561,-0.996 1.444,-0.944 1.331,-0.893C1.302,-0.88 1.271,-0.867 1.244,-0.852C1.205,-0.831 1.158,-0.826 1.111,-0.841C1.048,-0.86 0.992,-0.908 0.96,-0.968C0.946,-0.994 0.941,-1.022 0.936,-1.05C0.934,-1.065 0.931,-1.081 0.926,-1.095C0.909,-1.154 0.884,-1.191 0.856,-1.197C0.827,-1.204 0.803,-1.18 0.785,-1.159C0.697,-1.06 0.615,-0.999 0.474,-1.005C0.446,-1.006 0.417,-1.007 0.389,-1.008C0.218,-1.011 0.04,-1.014 -0.085,-1.189C-0.103,-1.187 -0.152,-1.171 -0.164,-1.155C-0.174,-1.141 -0.176,-1.119 -0.178,-1.095C-0.18,-1.075 -0.182,-1.055 -0.188,-1.036C-0.219,-0.945 -0.263,-0.887 -0.322,-0.86C-0.383,-0.833 -0.457,-0.837 -0.55,-0.875C-0.685,-0.93 -0.82,-0.998 -0.858,-1.175C-0.863,-1.199 -0.899,-1.224 -0.928,-1.245L-0.941,-1.254C-0.983,-1.285 -1.057,-1.285 -1.123,-1.256C-1.183,-1.23 -1.222,-1.186 -1.227,-1.142C-1.233,-1.084 -1.231,-1.024 -1.229,-0.965C-1.229,-0.937 -1.228,-0.909 -1.228,-0.881C-1.228,-0.822 -1.198,-0.791 -1.141,-0.79C-0.992,-0.788 -0.841,-0.788 -0.695,-0.788L-0.508,-0.788L-0.508,-0.782L-0.352,-0.782C-0.177,-0.783 -0.001,-0.783 0.175,-0.781C0.228,-0.78 0.306,-0.705 0.326,-0.659C0.337,-0.633 0.331,-0.617 0.323,-0.609C0.281,-0.564 0.234,-0.519 0.18,-0.501C0.139,-0.486 0.094,-0.489 0.051,-0.492C0.034,-0.493 0.016,-0.494 0,-0.494" style="fill:rgb(190,204,57);fill-rule:nonzero;"/>
            </g>
            <g transform="matrix(1,0,0,1,30.642,17.7917)">
                <path d="M0,-5.325C-0.017,-5.296 -0.035,-5.265 -0.058,-5.243C-0.19,-5.117 -0.322,-5.058 -0.474,-5.058C-0.482,-5.058 -0.489,-5.058 -0.497,-5.059C-0.561,-5.062 -0.627,-5.062 -0.691,-5.062C-0.769,-5.062 -0.846,-5.061 -0.921,-5.06C-0.97,-5.059 -1.018,-5.058 -1.067,-5.058C-1.105,-5.057 -1.129,-5.035 -1.134,-4.997C-1.137,-4.966 -1.137,-4.934 -1.137,-4.902C-1.137,-4.876 -1.137,-4.849 -1.14,-4.823C-1.143,-4.776 -1.14,-4.727 -1.137,-4.68C-1.13,-4.581 -1.123,-4.479 -1.175,-4.385C-1.229,-4.29 -1.297,-4.201 -1.363,-4.116C-1.384,-4.088 -1.406,-4.06 -1.428,-4.031C-1.441,-4.013 -1.458,-3.997 -1.473,-3.982C-1.49,-3.967 -1.505,-3.953 -1.517,-3.936L-1.521,-3.93C-1.542,-3.9 -1.568,-3.864 -1.567,-3.835C-1.561,-3.631 -1.612,-3.453 -1.723,-3.291C-1.75,-3.252 -1.75,-3.185 -1.75,-3.136L-1.75,-1.98C-1.75,-1.487 -1.75,-0.995 -1.751,-0.503C-1.752,-0.405 -1.723,-0.364 -1.632,-0.333C-1.538,-0.3 -1.482,-0.214 -1.485,-0.108C-1.487,-0.038 -1.487,0.036 -1.476,0.108C-1.468,0.16 -1.427,0.171 -1.361,0.172L-1.358,0.172C-1.323,0.172 -1.298,0.165 -1.284,0.15C-1.272,0.139 -1.266,0.121 -1.266,0.096C-1.265,-0.183 -1.265,-0.463 -1.265,-0.742C-1.264,-1.091 -1.264,-1.441 -1.263,-1.79C-1.263,-1.842 -1.28,-1.885 -1.322,-1.934C-1.341,-1.957 -1.364,-1.977 -1.389,-1.999C-1.442,-2.046 -1.497,-2.095 -1.513,-2.175C-1.518,-2.205 -1.497,-2.257 -1.469,-2.268C-1.423,-2.286 -1.361,-2.302 -1.329,-2.279C-1.226,-2.205 -1.175,-2.233 -1.068,-2.321C-0.871,-2.482 -0.795,-2.68 -0.822,-2.961C-0.842,-3.166 -0.805,-3.333 -0.709,-3.472C-0.62,-3.6 -0.617,-3.722 -0.699,-3.856C-0.754,-3.946 -0.759,-4.057 -0.713,-4.168C-0.658,-4.298 -0.589,-4.419 -0.512,-4.553C-0.454,-4.654 -0.352,-4.687 -0.223,-4.642C-0.203,-4.635 -0.185,-4.623 -0.168,-4.611C-0.132,-4.587 -0.109,-4.573 -0.085,-4.589C-0.063,-4.602 -0.048,-4.63 -0.033,-4.659C-0.021,-4.68 -0.01,-4.702 0.006,-4.721L0.021,-4.74C0.063,-4.792 0.106,-4.844 0.16,-4.883C0.288,-4.976 0.338,-5.096 0.329,-5.286C0.326,-5.345 0.35,-5.404 0.374,-5.461C0.379,-5.473 0.384,-5.485 0.389,-5.497L0.388,-5.497C0.326,-5.497 0.269,-5.473 0.209,-5.447C0.162,-5.428 0.113,-5.407 0.062,-5.398C0.041,-5.395 0.02,-5.359 0,-5.325" style="fill:rgb(95,58,46);fill-rule:nonzero;"/>
            </g>
            <g transform="matrix(1,0,0,1,26.095,13.5217)">
                <path d="M0,0.76C0.1,0.756 0.111,0.72 0.111,0.693C0.111,0.616 0.142,0.555 0.173,0.496C0.188,0.465 0.203,0.436 0.214,0.405C0.241,0.328 0.304,0.313 0.368,0.308C0.416,0.304 0.463,0.304 0.501,0.306C0.679,0.312 0.723,0.351 0.777,0.549C0.781,0.562 0.783,0.575 0.785,0.588C0.788,0.603 0.791,0.618 0.795,0.632C0.798,0.64 0.803,0.65 0.813,0.655C0.822,0.658 0.834,0.656 0.841,0.653C0.864,0.643 0.886,0.629 0.903,0.614C0.903,0.613 0.903,0.607 0.904,0.602C0.904,0.595 0.905,0.588 0.906,0.582C0.909,0.57 0.911,0.559 0.914,0.546C0.92,0.515 0.926,0.482 0.943,0.454C0.977,0.398 1.037,0.398 1.084,0.401L1.117,0.401C1.171,0.398 1.224,0.399 1.275,0.399C1.301,0.399 1.327,0.398 1.353,0.4C1.361,0.4 1.37,0.401 1.379,0.4C1.44,0.395 1.485,0.405 1.517,0.433C1.565,0.475 1.575,0.547 1.578,0.605C1.579,0.621 1.587,0.636 1.599,0.645C1.611,0.654 1.628,0.656 1.646,0.652C1.663,0.646 1.681,0.627 1.698,0.608L1.698,0.597C1.698,0.59 1.698,0.581 1.7,0.573C1.763,0.345 1.8,0.312 1.999,0.304C2.131,0.297 2.272,0.317 2.315,0.501C2.32,0.523 2.328,0.545 2.334,0.567C2.345,0.599 2.356,0.633 2.361,0.668C2.37,0.748 2.42,0.756 2.5,0.759C2.506,0.759 2.511,0.76 2.516,0.76C2.628,0.76 2.72,0.711 2.73,0.645L2.737,0.6C2.761,0.444 2.784,0.296 2.705,0.149L2.702,0.143C2.655,0.054 2.624,-0.004 2.513,-0.004L2.506,-0.004C2.2,0.002 1.89,0.001 1.588,0C1.471,-0.001 1.354,-0.001 1.236,-0.001L0.064,-0.001C0.017,-0.001 -0.03,-0.001 -0.077,0.001C-0.144,0.002 -0.176,0.024 -0.188,0.074L-0.194,0.099C-0.205,0.147 -0.216,0.197 -0.239,0.242C-0.294,0.354 -0.293,0.465 -0.234,0.601C-0.171,0.747 -0.153,0.764 0,0.76" style="fill:rgb(190,204,57);fill-rule:nonzero;"/>
            </g>
            <g transform="matrix(1,0,0,1,35.038,12.1237)">
                <path d="M0,-0.075C-0.001,-0.046 -0.002,-0.016 -0.003,0.013L0.015,0.013L0.015,0.032C0.015,0.076 0.014,0.12 0.014,0.164C0.013,0.277 0.013,0.394 0.016,0.507C0.017,0.525 0.024,0.541 0.037,0.553C0.049,0.563 0.064,0.566 0.081,0.568C0.116,0.566 0.16,0.561 0.195,0.545C0.206,0.54 0.215,0.515 0.223,0.497L0.227,0.485C0.248,0.435 0.267,0.383 0.285,0.333C0.325,0.225 0.366,0.113 0.425,0.013C0.489,-0.096 0.492,-0.205 0.494,-0.322L0.495,-0.351C0.495,-0.383 0.479,-0.425 0.456,-0.454C0.429,-0.487 0.396,-0.517 0.365,-0.546C0.344,-0.565 0.323,-0.584 0.304,-0.604C0.266,-0.643 0.226,-0.623 0.21,-0.613C0.195,-0.603 0.178,-0.593 0.162,-0.583C0.064,-0.523 -0.029,-0.466 -0.006,-0.317C0.006,-0.237 0.003,-0.155 0,-0.075" style="fill:rgb(95,58,46);fill-rule:nonzero;"/>
            </g>
            <g transform="matrix(1,0,0,1,32.819,12.4327)">
                <path d="M0,-0.748C-0.009,-0.748 -0.017,-0.746 -0.022,-0.743C-0.108,-0.692 -0.192,-0.632 -0.225,-0.542C-0.268,-0.424 -0.256,-0.303 -0.193,-0.2C-0.127,-0.093 -0.014,-0.022 0.119,-0.006C0.163,0 0.209,-0.001 0.274,-0.002C0.311,-0.004 0.353,-0.004 0.404,-0.004C0.413,-0.006 0.477,-0.016 0.548,-0.026L0.564,-0.029C0.547,-0.123 0.495,-0.198 0.451,-0.256C0.419,-0.296 0.388,-0.339 0.357,-0.382C0.313,-0.442 0.268,-0.504 0.22,-0.562C0.166,-0.628 0.1,-0.686 0.036,-0.74C0.029,-0.745 0.014,-0.748 0,-0.748" style="fill:rgb(190,204,57);fill-rule:nonzero;"/>
            </g>
            <g transform="matrix(1,0,0,1,21.435,11.6997)">
                <path d="M0,0.728L0.02,0.73L0.023,0.73C0.061,0.73 0.096,0.731 0.128,0.732C0.188,0.735 0.235,0.736 0.279,0.728C0.409,0.701 0.552,0.656 0.626,0.522C0.713,0.366 0.644,0.131 0.477,0.011C0.45,-0.008 0.445,-0.008 0.423,0.008C0.4,0.024 0.373,0.037 0.347,0.049C0.305,0.069 0.266,0.088 0.249,0.117C0.198,0.205 0.132,0.281 0.067,0.356C-0.016,0.453 -0.103,0.554 -0.152,0.677L-0.156,0.686C-0.16,0.694 -0.164,0.705 -0.165,0.71C-0.164,0.71 -0.16,0.712 -0.15,0.713C-0.092,0.721 -0.034,0.725 0,0.728" style="fill:rgb(190,204,57);fill-rule:nonzero;"/>
            </g>
            <g transform="matrix(1,0,0,1,26.487,14.5067)">
                <path d="M0,0.637C0.037,0.646 0.078,0.645 0.125,0.642C0.137,0.641 0.149,0.64 0.16,0.64C0.287,0.64 0.365,0.691 0.417,0.806C0.445,0.865 0.498,0.916 0.549,0.966C0.571,0.987 0.593,1.008 0.614,1.03C0.649,1.069 0.696,1.089 0.752,1.089L0.755,1.089L0.799,1.088C0.872,1.087 0.945,1.085 1.018,1.085C1.082,1.085 1.136,1.054 1.184,0.989C1.204,0.961 1.219,0.931 1.236,0.9C1.253,0.867 1.27,0.834 1.293,0.804C1.361,0.711 1.453,0.622 1.603,0.641C1.654,0.648 1.694,0.644 1.716,0.63C1.777,0.591 1.815,0.55 1.82,0.519C1.867,0.205 1.79,-0.101 1.714,-0.362C1.707,-0.384 1.682,-0.404 1.656,-0.424C1.647,-0.431 1.638,-0.438 1.629,-0.445C1.625,-0.449 1.607,-0.452 1.582,-0.445C1.561,-0.439 1.549,-0.43 1.548,-0.426C1.544,-0.403 1.541,-0.379 1.538,-0.356C1.534,-0.323 1.53,-0.289 1.522,-0.255L1.52,-0.246C1.506,-0.186 1.493,-0.139 1.461,-0.129C1.429,-0.119 1.399,-0.102 1.368,-0.083C1.312,-0.05 1.253,-0.015 1.173,-0.025C1.085,-0.035 1.059,-0.094 1.036,-0.146C1.025,-0.171 1.015,-0.195 0.998,-0.212C0.975,-0.235 0.964,-0.271 0.957,-0.299C0.943,-0.356 0.907,-0.366 0.843,-0.365C0.774,-0.364 0.745,-0.343 0.737,-0.291L0.734,-0.268C0.729,-0.231 0.724,-0.192 0.707,-0.159C0.672,-0.093 0.614,-0.047 0.544,-0.03C0.475,-0.015 0.403,-0.03 0.346,-0.073C0.246,-0.147 0.145,-0.246 0.155,-0.416C0.156,-0.427 0.144,-0.435 0.136,-0.438C0.107,-0.452 0.063,-0.449 0.045,-0.433C-0.008,-0.383 -0.053,-0.336 -0.052,-0.264L-0.052,0.192L-0.061,0.192L-0.061,0.286C-0.061,0.38 -0.06,0.473 -0.062,0.567C-0.063,0.605 -0.044,0.626 0,0.637" style="fill:rgb(97,86,43);fill-rule:nonzero;"/>
            </g>
            <g transform="matrix(1,0,0,1,19.489,12.6167)">
                <path d="M0,-1.068C-0.031,-1.081 -0.063,-1.094 -0.089,-1.113C-0.128,-1.14 -0.186,-1.08 -0.209,-1.053C-0.226,-1.033 -0.247,-1.015 -0.267,-0.998C-0.311,-0.96 -0.353,-0.923 -0.352,-0.862C-0.352,-0.841 -0.352,-0.82 -0.351,-0.8C-0.351,-0.706 -0.351,-0.618 -0.311,-0.53C-0.298,-0.501 -0.285,-0.473 -0.271,-0.445C-0.23,-0.359 -0.187,-0.27 -0.162,-0.171C-0.147,-0.109 -0.093,-0.054 -0.041,0.001C-0.023,0.021 -0.005,0.04 0.012,0.059C0.019,0.067 0.047,0.072 0.073,0.07C0.119,0.065 0.128,0.029 0.129,0L0.129,-0.497L0.142,-0.497C0.142,-0.536 0.142,-0.574 0.143,-0.613C0.143,-0.711 0.144,-0.813 0.142,-0.914C0.14,-1.009 0.075,-1.036 0,-1.068" style="fill:rgb(95,58,46);fill-rule:nonzero;"/>
            </g>
            <g transform="matrix(1,0,0,1,18.615,8.76866)">
                <path d="M0,0.696C0.001,0.721 0.025,0.742 0.076,0.764C0.137,0.791 0.197,0.824 0.254,0.856C0.284,0.873 0.314,0.889 0.344,0.905C0.367,0.917 0.393,0.927 0.421,0.936C0.474,0.953 0.732,0.84 0.746,0.806C0.749,0.796 0.749,0.784 0.749,0.772C0.75,0.728 0.75,0.687 0.75,0.641L0.75,0.574C0.814,0.351 0.669,0.203 0.519,0.088C0.404,0.001 0.281,-0.078 0.161,-0.155C0.113,-0.186 0.065,-0.216 0.017,-0.248C0.014,-0.25 0.008,-0.25 0.002,-0.251C-0.005,-0.252 -0.012,-0.253 -0.019,-0.256C-0.021,-0.257 -0.024,-0.257 -0.026,-0.257C-0.036,-0.257 -0.047,-0.253 -0.058,-0.245C-0.074,-0.234 -0.085,-0.218 -0.085,-0.205C-0.086,-0.162 -0.088,-0.119 -0.091,-0.075C-0.096,0.027 -0.103,0.132 -0.08,0.227C-0.043,0.385 -0.008,0.535 0,0.696" style="fill:rgb(190,204,57);fill-rule:nonzero;"/>
            </g>
            <g transform="matrix(1,0,0,1,28.67,17.5907)">
                <path d="M0,-2.808L0,-2.819C0,-2.872 0,-2.927 -0.01,-2.978C-0.012,-2.984 -0.033,-2.998 -0.062,-3.008C-0.077,-3.012 -0.089,-3.012 -0.1,-3.007C-0.113,-2.999 -0.123,-2.982 -0.129,-2.959C-0.136,-2.929 -0.135,-2.896 -0.134,-2.863L-0.134,-2.488C-0.181,-2.453 -0.211,-2.387 -0.24,-2.332C-0.357,-2.113 -0.599,-2.308 -0.73,-2.08C-0.754,-2.039 -0.778,-1.996 -0.809,-1.958C-0.993,-1.735 -1.234,-1.648 -1.488,-1.715C-1.713,-1.774 -1.861,-1.893 -1.929,-2.067C-1.945,-2.108 -1.979,-2.146 -2.012,-2.182C-2.005,-2.174 -2.535,-2.304 -2.464,-2.346C-2.516,-2.315 -2.531,-2.25 -2.539,-2.187C-2.539,-2.337 -2.538,-2.488 -2.538,-2.635L-2.539,-2.774C-2.539,-2.857 -2.544,-2.924 -2.553,-2.986C-2.557,-2.991 -2.585,-3.006 -2.602,-3.006C-2.62,-3.008 -2.649,-2.993 -2.654,-2.987C-2.665,-2.921 -2.672,-2.85 -2.672,-2.779L-2.672,-1.918C-2.672,-1.424 -2.672,-0.914 -2.674,-0.411L-2.674,-0.385C-2.675,-0.241 -2.676,-0.146 -2.488,-0.133C-2.376,-0.126 -2.323,0.002 -2.32,0.125C-2.319,0.143 -2.318,0.197 -2.215,0.2L-2.21,0.2C-2.128,0.2 -2.115,0.158 -2.112,0.126C-2.106,0.05 -2.096,-0.022 -2.029,-0.082C-1.963,-0.141 -1.888,-0.147 -1.816,-0.151C-1.713,-0.16 -1.633,-0.126 -1.568,-0.05L-1.553,-0.032C-1.521,0.005 -1.488,0.044 -1.452,0.077C-1.404,0.122 -1.279,0.126 -1.233,0.086C-1.197,0.054 -1.152,0.011 -1.116,-0.038C-1.011,-0.185 -0.851,-0.166 -0.739,-0.139C-0.623,-0.11 -0.553,-0.012 -0.561,0.112L-0.562,0.117C-0.562,0.123 -0.563,0.135 -0.562,0.14L-0.549,0.15C-0.522,0.17 -0.495,0.191 -0.468,0.197C-0.433,0.204 -0.399,0.199 -0.379,0.183C-0.365,0.173 -0.357,0.158 -0.355,0.14C-0.339,-0.053 -0.248,-0.148 -0.07,-0.16C-0.021,-0.163 -0.001,-0.192 -0.001,-0.265L-0.001,-1.252L0,-1.931L0,-2.808" style="fill:rgb(150,147,100);fill-rule:nonzero;"/>
            </g>
            <g transform="matrix(1,0,0,1,25.519,11.2787)">
                <path d="M0,2.154C0.018,2.188 0.037,2.223 0.051,2.259C0.058,2.278 0.079,2.282 0.088,2.283L0.095,2.283C0.118,2.283 0.145,2.273 0.159,2.251C0.173,2.23 0.185,2.208 0.197,2.185C0.212,2.157 0.227,2.129 0.245,2.102C0.295,2.03 0.371,2.023 0.445,2.017L0.454,2.016C0.477,2.014 0.515,2.002 0.518,1.951C0.52,1.923 0.522,1.894 0.525,1.866C0.545,1.587 0.564,1.324 0.278,1.148C0.257,1.134 0.258,1.101 0.263,1.055L0.263,1.048C0.265,1.027 0.285,1.011 0.3,1.001C0.329,0.984 0.371,0.971 0.398,0.983C0.7,1.106 0.838,1.306 0.818,1.594C0.814,1.665 0.816,1.738 0.819,1.809L0.821,1.855C0.823,1.924 0.9,2.011 0.965,2.018C0.986,2.02 1.006,2.02 1.028,2.019L1.051,2.019C1.607,2.018 2.163,2.018 2.72,2.018L2.751,2.018L2.757,2.013C2.772,2.002 2.797,1.982 2.798,1.971C2.807,1.846 2.815,1.734 2.81,1.622C2.797,1.313 2.931,1.101 3.207,0.993C3.285,0.962 3.327,0.989 3.348,1.018C3.385,1.068 3.384,1.12 3.347,1.158C3.321,1.186 3.293,1.212 3.265,1.237C3.229,1.271 3.192,1.305 3.159,1.341C3.136,1.368 3.11,1.408 3.109,1.441C3.106,1.591 3.108,1.753 3.115,1.966C3.116,1.98 3.138,2.008 3.147,2.011L3.165,2.011C3.319,2.011 3.421,2.092 3.483,2.265C3.485,2.269 3.495,2.277 3.514,2.28C3.538,2.285 3.558,2.28 3.562,2.277C3.577,2.253 3.593,2.229 3.609,2.205C3.714,2.05 3.812,1.903 3.768,1.699C3.755,1.639 3.758,1.576 3.762,1.514C3.763,1.487 3.765,1.46 3.765,1.433L3.766,1.413L3.766,1.299C3.766,1.199 3.765,1.095 3.767,0.993C3.771,0.863 3.721,0.786 3.606,0.743C3.579,0.733 3.552,0.722 3.526,0.71C3.461,0.682 3.4,0.655 3.326,0.65C3.242,0.645 3.159,0.623 3.079,0.603C3.008,0.585 2.936,0.566 2.861,0.559C2.622,0.533 2.473,0.423 2.419,0.231C2.36,0.022 2.228,-0.069 2.022,-0.052C2.02,-0.052 2.018,-0.051 2.016,-0.051C1.991,-0.051 1.967,-0.068 1.944,-0.084C1.929,-0.094 1.913,-0.105 1.899,-0.109L1.892,-0.112C1.867,-0.12 1.833,-0.131 1.809,-0.131C1.802,-0.131 1.795,-0.13 1.79,-0.127C1.663,-0.056 1.531,-0.039 1.407,-0.03C1.394,-0.029 1.372,-0.01 1.357,0.012C1.323,0.063 1.293,0.109 1.274,0.16C1.175,0.418 0.977,0.551 0.648,0.579C0.474,0.593 0.302,0.629 0.15,0.682C0.023,0.727 -0.129,0.826 -0.137,1.041C-0.137,1.062 -0.137,1.084 -0.136,1.106C-0.135,1.143 -0.133,1.181 -0.139,1.218C-0.158,1.335 -0.131,1.451 -0.105,1.562C-0.079,1.672 -0.052,1.786 -0.069,1.904C-0.082,2 -0.042,2.075 0,2.154" style="fill:rgb(97,86,43);fill-rule:nonzero;"/>
            </g>
            <g transform="matrix(1,0,0,1,24.353,14.3507)">
                <path d="M0,-0.901C-0.028,-0.923 -0.059,-0.923 -0.099,-0.901C-0.563,-0.654 -0.954,-0.406 -1.297,-0.142C-1.332,-0.116 -1.352,-0.091 -1.34,-0.052C-1.326,-0.008 -1.304,0.01 -1.268,0.01L-1.024,0.01L-1.024,0.001L-1.005,0.001C-0.968,0.001 -0.929,0.004 -0.892,0.008C-0.808,0.015 -0.73,0.022 -0.666,-0.005C-0.581,-0.041 -0.492,-0.058 -0.406,-0.074C-0.312,-0.091 -0.216,-0.109 -0.129,-0.152C-0.107,-0.162 -0.083,-0.168 -0.059,-0.174C-0.013,-0.185 0.027,-0.194 0.046,-0.236C0.057,-0.26 0.07,-0.286 0.082,-0.31C0.128,-0.401 0.174,-0.495 0.172,-0.583C0.17,-0.697 0.104,-0.819 0,-0.901" style="fill:rgb(104,123,50);fill-rule:nonzero;"/>
            </g>
            <g transform="matrix(1,0,0,1,23.747,17.4767)">
                <path d="M0,-4.693L0.099,-4.592C0.199,-4.491 0.299,-4.39 0.4,-4.289C0.42,-4.269 0.427,-4.274 0.45,-4.295C0.462,-4.305 0.474,-4.316 0.49,-4.321C0.648,-4.367 0.741,-4.337 0.81,-4.215C0.831,-4.176 0.849,-4.135 0.866,-4.094C0.889,-4.041 0.91,-3.991 0.94,-3.946C1.036,-3.801 1.044,-3.661 0.967,-3.519C0.9,-3.396 0.904,-3.286 0.978,-3.171C1.078,-3.018 1.121,-2.848 1.105,-2.665L1.101,-2.622C1.091,-2.503 1.079,-2.38 1.121,-2.286C1.159,-2.201 1.234,-2.128 1.306,-2.058C1.338,-2.027 1.371,-1.995 1.4,-1.961C1.405,-1.957 1.409,-1.953 1.413,-1.948C1.42,-1.942 1.426,-1.937 1.432,-1.93C1.467,-1.886 1.492,-1.901 1.541,-1.936L1.548,-1.941C1.569,-1.956 1.602,-1.973 1.634,-1.973C1.636,-1.973 1.639,-1.972 1.641,-1.972C1.683,-1.969 1.736,-1.963 1.769,-1.935C1.809,-1.901 1.809,-1.841 1.77,-1.793L1.759,-1.781C1.734,-1.751 1.708,-1.719 1.677,-1.694C1.579,-1.616 1.538,-1.518 1.54,-1.367C1.546,-0.98 1.545,-0.587 1.544,-0.206C1.544,-0.053 1.543,0.101 1.543,0.254L1.543,0.293C1.543,0.338 1.542,0.383 1.548,0.427C1.554,0.467 1.576,0.487 1.614,0.487L1.625,0.487C1.689,0.486 1.735,0.484 1.749,0.444C1.77,0.382 1.768,0.31 1.763,0.235C1.756,0.105 1.819,0.005 1.927,-0.026C2.03,-0.055 2.03,-0.112 2.03,-0.198L2.03,-0.777C2.03,-1.393 2.03,-2.03 2.034,-2.656C2.035,-2.828 2.027,-2.994 1.923,-3.139C1.871,-3.21 1.849,-3.281 1.857,-3.355C1.87,-3.492 1.824,-3.606 1.706,-3.723C1.649,-3.78 1.603,-3.85 1.559,-3.917C1.532,-3.957 1.504,-3.999 1.475,-4.037C1.438,-4.084 1.421,-4.135 1.417,-4.208C1.414,-4.268 1.417,-4.328 1.42,-4.387C1.424,-4.495 1.429,-4.606 1.399,-4.713C1.288,-4.756 1.176,-4.75 1.057,-4.745C0.991,-4.742 0.923,-4.74 0.857,-4.745C0.834,-4.747 0.81,-4.747 0.785,-4.746C0.766,-4.745 0.746,-4.745 0.726,-4.746C0.565,-4.752 0.469,-4.806 0.358,-4.952C0.243,-5.105 0.091,-5.18 -0.106,-5.18L-0.108,-5.18C-0.052,-5.058 -0.031,-4.949 -0.041,-4.839C-0.048,-4.776 -0.034,-4.728 0,-4.693" style="fill:rgb(95,58,46);fill-rule:nonzero;"/>
            </g>
            <g transform="matrix(1,0,0,1,30.78,10.6097)">
                <path d="M0,0.848C0.093,0.848 0.186,0.849 0.28,0.849C0.355,0.849 0.43,0.848 0.505,0.847C0.622,0.845 0.698,0.77 0.708,0.648C0.711,0.619 0.713,0.59 0.712,0.562C0.708,0.424 0.705,0.285 0.7,0.146L0.698,0.053C0.596,-0.001 0.49,0.007 0.377,0.015C0.321,0.019 0.262,0.023 0.205,0.019C0.065,0.009 -0.08,0.014 -0.22,0.018L-0.229,0.019C-0.304,0.021 -0.365,0.079 -0.372,0.13C-0.406,0.367 -0.486,0.591 -0.557,0.789C-0.561,0.801 -0.561,0.811 -0.555,0.82C-0.545,0.833 -0.523,0.843 -0.499,0.843C-0.384,0.845 -0.266,0.845 -0.153,0.845L0,0.845L0,0.848ZM-0.108,0.601C-0.146,0.598 -0.174,0.561 -0.202,0.525C-0.214,0.51 -0.226,0.495 -0.237,0.483L-0.251,0.468L-0.236,0.455C-0.223,0.444 -0.211,0.431 -0.198,0.417C-0.168,0.383 -0.136,0.349 -0.097,0.342C-0.025,0.33 0.049,0.333 0.121,0.335C0.144,0.336 0.167,0.337 0.19,0.337L0.19,0.332L0.209,0.332C0.258,0.332 0.306,0.331 0.354,0.331C0.378,0.331 0.402,0.331 0.427,0.332C0.479,0.334 0.517,0.347 0.541,0.372C0.558,0.392 0.567,0.416 0.566,0.444C0.563,0.514 0.516,0.549 0.475,0.579L0.461,0.59C0.445,0.601 0.429,0.613 0.411,0.613L0.262,0.613C0.14,0.613 0.015,0.612 -0.108,0.601" style="fill:rgb(190,204,57);fill-rule:nonzero;"/>
            </g>
            <g transform="matrix(1,0,0,1,23.175,10.9947)">
                <path d="M0,0.089C-0.001,0.142 0.002,0.199 0.007,0.262C0.016,0.384 0.092,0.459 0.209,0.461C0.321,0.463 0.435,0.462 0.545,0.462L0.67,0.462L0.689,0.459L0.847,0.459C0.969,0.46 1.091,0.459 1.214,0.459C1.238,0.459 1.257,0.449 1.268,0.432C1.279,0.413 1.279,0.388 1.267,0.363C1.183,0.183 1.131,0.008 1.107,-0.173C1.091,-0.299 1.018,-0.369 0.9,-0.371C0.746,-0.374 0.593,-0.372 0.464,-0.369C0.373,-0.367 0.298,-0.369 0.237,-0.369L0.163,-0.369C0.087,-0.369 0.042,-0.366 0.022,-0.345C-0.005,-0.318 -0.003,-0.251 -0.001,-0.13C0,-0.072 0.002,0.001 0,0.089M0.211,0.006C0.219,0.001 0.226,-0.005 0.234,-0.012C0.251,-0.027 0.27,-0.042 0.293,-0.043C0.466,-0.048 0.641,-0.048 0.814,-0.043C0.836,-0.043 0.855,-0.027 0.872,-0.012C0.88,-0.005 0.888,0.001 0.896,0.006C0.928,0.026 0.947,0.058 0.946,0.092C0.946,0.125 0.928,0.154 0.897,0.172C0.887,0.177 0.879,0.183 0.869,0.189C0.84,0.207 0.809,0.226 0.776,0.23C0.738,0.234 0.7,0.235 0.661,0.235C0.609,0.235 0.555,0.233 0.494,0.233C0.471,0.23 0.449,0.232 0.425,0.233C0.355,0.236 0.278,0.238 0.208,0.174C0.179,0.146 0.163,0.11 0.166,0.076C0.169,0.047 0.185,0.022 0.211,0.006" style="fill:rgb(190,204,57);fill-rule:nonzero;"/>
            </g>
            <g transform="matrix(1,0,0,1,37.701,11.8077)">
                <path d="M0,-0.296C-0.044,-0.368 -0.092,-0.401 -0.153,-0.401L-0.156,-0.401C-0.189,-0.4 -0.222,-0.4 -0.255,-0.4L-0.307,-0.4L-0.307,-0.403L-0.419,-0.403C-0.478,-0.402 -0.52,-0.385 -0.542,-0.354C-0.562,-0.325 -0.564,-0.284 -0.546,-0.234C-0.448,0.053 -0.397,0.09 -0.099,0.1C-0.083,0.101 -0.069,0.1 -0.054,0.102C0.031,0.107 0.084,0.096 0.107,0.065C0.13,0.034 0.126,-0.022 0.093,-0.106C0.066,-0.177 0.034,-0.24 0,-0.296" style="fill:rgb(104,123,50);fill-rule:nonzero;"/>
            </g>
            <g transform="matrix(1,0,0,1,25.163,9.56166)">
                <path d="M0,2.541C0.001,2.502 -0.02,2.488 -0.065,2.471C-0.072,2.469 -0.08,2.469 -0.09,2.469L-0.102,2.469C-0.115,2.469 -0.128,2.469 -0.14,2.468C-0.171,2.467 -0.202,2.466 -0.232,2.467C-0.244,2.469 -0.255,2.469 -0.266,2.469C-0.395,2.469 -0.485,2.407 -0.527,2.289C-0.571,2.163 -0.644,2.112 -0.784,2.112L-0.806,2.112C-0.982,2.119 -1.161,2.118 -1.333,2.117C-1.492,2.116 -1.655,2.116 -1.816,2.119C-1.821,2.12 -1.825,2.12 -1.83,2.12C-2.025,2.12 -2.134,1.995 -2.171,1.876C-2.183,1.839 -2.198,1.802 -2.213,1.764C-2.252,1.667 -2.293,1.568 -2.282,1.455C-2.275,1.381 -2.279,1.304 -2.282,1.229C-2.283,1.203 -2.284,1.177 -2.285,1.15C-2.286,1.095 -2.313,1.07 -2.378,1.065C-2.425,1.06 -2.471,1.045 -2.506,1.023C-2.529,1.009 -2.531,0.973 -2.534,0.932C-2.536,0.912 -2.519,0.888 -2.497,0.877C-2.473,0.864 -2.445,0.85 -2.416,0.85C-2.182,0.847 -1.947,0.846 -1.713,0.845C-1.589,0.844 -1.465,0.843 -1.341,0.842C-1.27,0.842 -1.168,0.874 -1.103,0.835C-1.019,0.785 -1.12,0.626 -1.147,0.557C-1.183,0.466 -1.215,0.373 -1.237,0.277C-1.268,0.136 -1.4,0.181 -1.513,0.182L-1.888,0.182C-1.898,0.182 -1.909,0.183 -1.92,0.184C-1.957,0.186 -1.995,0.187 -2.027,0.172C-2.115,0.127 -2.211,0.092 -2.304,0.058C-2.45,0.005 -2.601,-0.051 -2.734,-0.146C-2.805,-0.197 -2.885,-0.242 -2.962,-0.285C-3.021,-0.318 -3.082,-0.353 -3.14,-0.39C-3.167,-0.408 -3.192,-0.414 -3.211,-0.408C-3.231,-0.401 -3.242,-0.381 -3.248,-0.366C-3.29,-0.254 -3.363,-0.132 -3.56,-0.174C-3.608,-0.184 -3.661,-0.182 -3.713,-0.18C-3.892,-0.171 -4.577,-0.334 -4.625,-0.069C-4.649,0.069 -4.702,0.185 -4.787,0.287C-4.812,0.319 -4.859,0.341 -4.901,0.344C-4.929,0.342 -4.953,0.337 -4.968,0.323C-5.01,0.281 -5.018,0.227 -4.989,0.182C-4.949,0.12 -4.922,0.063 -4.916,-0.009C-4.911,-0.08 -4.919,-0.124 -4.942,-0.147C-4.963,-0.169 -5.001,-0.177 -5.058,-0.175C-5.15,-0.17 -5.223,-0.154 -5.284,-0.092C-5.315,-0.059 -5.346,-0.026 -5.377,0.008C-5.465,0.104 -5.556,0.204 -5.665,0.276C-5.91,0.44 -6.118,0.651 -6.318,0.856C-6.368,0.907 -6.418,0.958 -6.469,1.008C-6.686,1.222 -6.856,1.298 -7.17,1.319L-7.186,1.32C-7.237,1.324 -7.289,1.327 -7.332,1.345C-7.361,1.358 -7.387,1.397 -7.407,1.433C-7.408,1.435 -7.406,1.448 -7.391,1.47C-7.37,1.504 -7.339,1.53 -7.314,1.534C-7.276,1.541 -7.237,1.547 -7.199,1.547L-7.065,1.548C-6.735,1.549 -6.394,1.55 -6.058,1.549C-5.865,1.547 -5.715,1.466 -5.637,1.321C-5.557,1.174 -5.438,1.068 -5.344,0.992C-5.24,0.909 -5.126,0.835 -4.977,0.843C-4.908,0.847 -4.845,0.827 -4.778,0.804C-4.709,0.781 -4.64,0.757 -4.557,0.761C-4.136,0.779 -3.722,0.772 -3.373,0.763L-3.359,0.763C-3.231,0.763 -3.128,0.806 -3.033,0.851C-2.995,0.868 -2.985,0.891 -2.983,0.908C-2.981,0.924 -2.984,0.949 -3.014,0.975C-3.02,0.981 -3.026,0.988 -3.033,0.995C-3.049,1.014 -3.066,1.033 -3.089,1.036C-3.204,1.053 -3.223,1.119 -3.218,1.235C-3.212,1.394 -3.206,1.557 -3.22,1.72C-3.232,1.85 -3.182,1.937 -3.072,1.978C-2.912,2.039 -2.846,2.151 -2.856,2.342C-2.86,2.421 -2.859,2.492 -2.851,2.558C-2.85,2.568 -2.829,2.589 -2.805,2.601C-2.785,2.61 -2.758,2.61 -2.73,2.61C-2.671,2.611 -2.616,2.612 -2.56,2.614C-2.428,2.618 -2.29,2.623 -2.159,2.606C-2.052,2.593 -1.954,2.62 -1.859,2.646C-1.772,2.67 -1.69,2.693 -1.603,2.687C-1.599,2.687 -1.594,2.686 -1.59,2.676C-1.591,2.642 -1.592,2.606 -1.575,2.578C-1.554,2.542 -1.497,2.523 -1.454,2.517C-1.425,2.513 -1.396,2.511 -1.369,2.511C-1.214,2.511 -1.086,2.572 -0.972,2.698C-0.741,2.955 -0.739,2.955 -0.57,2.948C-0.522,2.947 -0.463,2.945 -0.383,2.947C-0.318,2.948 -0.251,2.948 -0.186,2.948L-0.165,2.948C-0.002,2.946 -0.002,2.946 0,2.804C0.001,2.759 0.001,2.714 0,2.669C0,2.626 -0.001,2.584 0,2.541" style="fill:rgb(95,58,46);fill-rule:nonzero;"/>
            </g>
            <g transform="matrix(1,0,0,1,29.572,6.86566)">
                <path d="M0,4.95C0.152,4.95 0.253,4.875 0.328,4.707C0.34,4.679 0.347,4.649 0.355,4.617C0.364,4.579 0.373,4.54 0.392,4.502C0.465,4.353 0.525,4.217 0.52,4.058C0.519,4.007 0.532,3.954 0.551,3.901C0.54,3.862 0.54,3.819 0.549,3.777C0.589,3.583 0.758,3.197 0.681,3.003C0.592,2.779 0.336,2.903 0.144,2.868C0.114,2.862 0.088,2.815 0.085,2.786C0.082,2.76 0.094,2.703 0.123,2.693C0.186,2.672 0.244,2.661 0.296,2.661C0.765,2.658 1.233,2.659 1.702,2.658C1.946,2.658 1.99,2.616 1.998,2.38L1.999,2.354C2,2.304 2.001,2.253 2.011,2.203C2.018,2.172 2.067,2.148 2.092,2.144C2.122,2.139 2.164,2.153 2.184,2.174C2.2,2.191 2.206,2.217 2.21,2.24C2.212,2.247 2.213,2.254 2.215,2.26C2.243,2.362 2.263,2.429 2.292,2.44C2.318,2.452 2.374,2.419 2.448,2.374L2.501,2.341C2.617,2.27 2.737,2.197 2.859,2.133C3.061,2.029 3.189,1.913 3.162,1.671C3.223,1.613 3.229,1.535 3.235,1.453C3.241,1.376 3.247,1.295 3.302,1.23L3.306,1.125C3.312,0.99 3.318,0.851 3.319,0.713C3.318,0.705 3.291,0.68 3.276,0.679C3.167,0.665 3.054,0.66 2.971,0.759C2.935,0.802 2.899,0.846 2.863,0.89C2.762,1.011 2.658,1.137 2.549,1.256C2.428,1.387 2.31,1.533 2.303,1.736C2.303,1.752 2.288,1.766 2.276,1.775C2.267,1.782 2.246,1.797 2.226,1.793C2.197,1.786 2.174,1.763 2.148,1.738C2.097,1.689 2.092,1.628 2.091,1.563C2.09,1.503 2.063,1.475 2.005,1.474L1.807,1.473C1.61,1.471 1.412,1.469 1.214,1.468C1.151,1.468 1.113,1.486 1.081,1.529C1.014,1.619 0.945,1.709 0.878,1.797C0.798,1.901 0.715,2.008 0.637,2.116C0.512,2.288 0.347,2.364 0.132,2.351C0.033,2.344 -0.071,2.346 -0.17,2.347C-0.244,2.348 -0.319,2.349 -0.393,2.347C-0.433,2.346 -0.511,2.327 -0.524,2.288C-0.532,2.261 -0.549,2.236 -0.566,2.209C-0.598,2.16 -0.631,2.11 -0.615,2.041C-0.609,2.012 -0.573,1.983 -0.544,1.975C-0.513,1.967 -0.471,1.974 -0.448,1.991C-0.237,2.144 -0.03,2.167 0.182,2.059C0.202,2.049 0.226,2.051 0.248,2.051C0.257,2.051 0.267,2.052 0.276,2.052C0.349,2.047 0.402,2.038 0.43,1.961C0.447,1.914 0.482,1.875 0.518,1.838L0.538,1.816C0.916,1.398 1.208,0.967 1.429,0.497C1.434,0.487 1.439,0.476 1.444,0.466C1.457,0.439 1.471,0.41 1.48,0.383C1.492,0.348 1.482,0.307 1.454,0.276C1.428,0.247 1.392,0.235 1.361,0.243C1.33,0.25 1.299,0.261 1.268,0.271L1.24,0.281C0.901,0.398 0.578,0.566 0.265,0.728C0.064,0.833 -0.145,0.941 -0.357,1.035C-0.439,1.071 -0.486,1.137 -0.517,1.257C-0.543,1.36 -0.591,1.457 -0.638,1.552C-0.656,1.587 -0.673,1.621 -0.689,1.655C-0.712,1.705 -0.753,1.731 -0.809,1.731L-0.838,1.731C-0.886,1.731 -0.935,1.731 -0.981,1.739C-1.026,1.748 -1.067,1.78 -1.089,1.824C-1.109,1.864 -1.109,1.906 -1.091,1.942C-0.998,2.126 -1.019,2.28 -1.161,2.441C-1.254,2.546 -1.303,2.66 -1.308,2.782C-1.309,2.826 -1.345,2.866 -1.379,2.904C-1.388,2.914 -1.397,2.925 -1.405,2.935C-1.439,2.977 -1.487,2.978 -1.546,2.938C-1.57,2.923 -1.597,2.865 -1.581,2.839C-1.539,2.774 -1.528,2.698 -1.515,2.617C-1.496,2.495 -1.476,2.369 -1.35,2.285C-1.341,2.279 -1.332,2.249 -1.332,2.222C-1.333,2.165 -1.331,2.107 -1.33,2.048C-1.326,1.903 -1.322,1.754 -1.348,1.613L-1.358,1.554C-1.392,1.365 -1.428,1.17 -1.446,0.973C-1.454,0.897 -1.515,0.814 -1.559,0.754C-1.592,0.708 -1.634,0.668 -1.676,0.63C-1.698,0.609 -1.72,0.589 -1.74,0.567C-1.811,0.495 -1.85,0.424 -1.868,0.334C-1.886,0.25 -1.922,0.167 -1.956,0.087C-1.97,0.055 -1.983,0.023 -1.996,-0.008L-2.114,-0.012C-2.201,-0.015 -2.289,-0.018 -2.375,-0.02C-2.39,-0.021 -2.403,-0.021 -2.417,-0.02C-2.472,-0.016 -2.505,-0.002 -2.523,0.06C-2.532,0.093 -2.541,0.127 -2.549,0.161C-2.589,0.323 -2.63,0.491 -2.776,0.609C-2.988,0.781 -3.029,1.029 -3.05,1.247C-3.053,1.271 -3.054,1.294 -3.056,1.318C-3.061,1.394 -3.066,1.472 -3.097,1.551C-3.161,1.712 -3.152,1.886 -3.144,2.054C-3.141,2.114 -3.138,2.176 -3.138,2.236C-3.138,2.263 -3.112,2.295 -3.087,2.326C-3.075,2.341 -3.063,2.355 -3.054,2.369C-3,2.449 -2.886,2.776 -2.889,2.861C-2.89,2.892 -2.912,2.936 -2.94,2.949C-3,2.977 -3.05,2.968 -3.081,2.925C-3.088,2.915 -3.095,2.905 -3.103,2.895C-3.133,2.855 -3.164,2.815 -3.169,2.769C-3.185,2.606 -3.274,2.484 -3.35,2.396C-3.415,2.32 -3.491,2.201 -3.397,2.057C-3.364,2.006 -3.364,1.951 -3.363,1.893C-3.363,1.881 -3.362,1.868 -3.362,1.856C-3.36,1.804 -3.367,1.772 -3.385,1.755C-3.4,1.741 -3.426,1.736 -3.463,1.741C-3.71,1.77 -3.844,1.659 -3.888,1.392C-3.893,1.364 -3.905,1.337 -3.919,1.309C-3.924,1.298 -3.929,1.288 -3.933,1.277C-3.985,1.158 -4.046,1.066 -4.173,1.008C-4.554,0.834 -4.932,0.642 -5.299,0.456L-5.414,0.397C-5.538,0.334 -5.673,0.296 -5.803,0.258L-5.855,0.243C-5.876,0.238 -5.901,0.245 -5.922,0.265C-5.95,0.291 -5.964,0.329 -5.957,0.36C-5.955,0.37 -5.953,0.38 -5.952,0.391C-5.95,0.409 -5.948,0.425 -5.941,0.438C-5.632,1 -5.349,1.458 -4.974,1.866C-4.851,2 -4.711,2.057 -4.539,2.102C-4.333,2.155 -4.169,2.159 -4.041,2C-4.032,1.988 -4.019,1.981 -4,1.971C-3.978,1.958 -3.949,1.961 -3.919,1.978C-3.886,1.996 -3.853,2.034 -3.852,2.076C-3.848,2.223 -3.938,2.342 -4.056,2.346C-4.122,2.348 -4.19,2.346 -4.255,2.344C-4.363,2.342 -4.474,2.339 -4.581,2.353C-4.862,2.388 -5.026,2.229 -5.15,2.068C-5.165,2.049 -5.174,2.027 -5.183,2.007C-5.191,1.987 -5.199,1.968 -5.21,1.954C-5.256,1.894 -5.309,1.839 -5.359,1.786C-5.444,1.696 -5.533,1.604 -5.593,1.49L-5.724,1.485C-5.865,1.481 -6.006,1.476 -6.147,1.472C-6.209,1.47 -6.266,1.471 -6.321,1.472C-6.341,1.473 -6.361,1.473 -6.383,1.473C-6.434,1.473 -6.487,1.471 -6.529,1.489C-6.565,1.504 -6.567,1.536 -6.568,1.585C-6.568,1.616 -6.569,1.647 -6.582,1.674C-6.597,1.705 -6.622,1.73 -6.645,1.754C-6.653,1.762 -6.661,1.77 -6.668,1.778C-6.689,1.801 -6.717,1.81 -6.737,1.802C-6.755,1.796 -6.766,1.779 -6.766,1.757C-6.773,1.573 -6.836,1.431 -6.967,1.314C-7.103,1.19 -7.201,1.072 -7.275,0.942C-7.328,0.848 -7.424,0.775 -7.515,0.704C-7.599,0.64 -7.71,0.667 -7.754,0.681C-7.805,0.698 -7.806,0.743 -7.802,0.815C-7.801,0.828 -7.8,0.841 -7.8,0.852L-7.799,0.872C-7.796,1.055 -7.794,1.228 -7.718,1.398C-7.658,1.532 -7.6,1.693 -7.618,1.869C-7.624,1.93 -7.581,1.972 -7.543,1.996C-7.288,2.163 -7.049,2.313 -6.812,2.456C-6.802,2.456 -6.76,2.432 -6.734,2.406C-6.699,2.372 -6.696,2.326 -6.693,2.278C-6.691,2.256 -6.689,2.233 -6.685,2.21C-6.678,2.18 -6.654,2.154 -6.62,2.143C-6.581,2.131 -6.54,2.138 -6.513,2.163C-6.507,2.168 -6.5,2.174 -6.493,2.179C-6.449,2.216 -6.389,2.266 -6.449,2.361C-6.503,2.448 -6.488,2.532 -6.404,2.61C-6.354,2.657 -6.297,2.659 -6.223,2.659L-6.134,2.659C-5.685,2.659 -5.221,2.659 -4.765,2.661C-4.714,2.661 -4.658,2.674 -4.593,2.698C-4.569,2.706 -4.564,2.743 -4.558,2.788C-4.556,2.807 -4.569,2.833 -4.593,2.846C-4.617,2.86 -4.643,2.875 -4.672,2.875C-4.805,2.876 -5.153,2.812 -5.223,2.963C-5.28,3.085 -5.055,3.623 -5.024,3.777C-5.015,3.82 -5.014,3.864 -5.027,3.904C-5.011,3.952 -4.998,4.001 -4.995,4.052C-4.986,4.182 -4.939,4.303 -4.893,4.419C-4.857,4.512 -4.82,4.607 -4.801,4.708C-4.779,4.824 -4.687,4.922 -4.586,4.935C-4.309,4.971 -4.042,4.91 -3.781,4.825C-3.576,4.757 -3.24,4.762 -3.075,4.626C-3.033,4.591 -3.01,4.544 -3.007,4.487C-2.992,4.218 -3.001,3.905 -3.188,3.624C-3.204,3.6 -3.22,3.574 -3.234,3.546C-3.245,3.523 -3.24,3.506 -3.234,3.494C-3.22,3.47 -3.188,3.455 -3.143,3.452C-3.056,3.445 -2.984,3.478 -2.938,3.549C-2.852,3.678 -2.774,3.822 -2.789,4.004C-2.796,4.079 -2.79,4.121 -2.771,4.14C-2.746,4.164 -2.69,4.161 -2.6,4.153C-2.538,4.147 -2.483,4.129 -2.449,4.104C-2.393,4.062 -2.336,4.086 -2.287,4.108C-2.223,4.136 -2.186,4.148 -2.144,4.092C-2.13,4.073 -2.099,4.083 -2.06,4.094L-2.043,4.099C-2.03,4.103 -2.019,4.111 -2.009,4.117C-2.006,4.12 -2.003,4.122 -2,4.124C-1.944,4.158 -1.882,4.158 -1.815,4.157C-1.795,4.157 -1.773,4.156 -1.75,4.157C-1.708,4.157 -1.693,4.124 -1.688,4.096C-1.681,4.057 -1.68,4.014 -1.683,3.969C-1.699,3.789 -1.61,3.648 -1.511,3.523C-1.482,3.486 -1.428,3.463 -1.389,3.458C-1.346,3.451 -1.292,3.463 -1.255,3.487C-1.232,3.502 -1.219,3.525 -1.216,3.552C-1.214,3.581 -1.225,3.61 -1.246,3.63C-1.483,3.851 -1.488,4.142 -1.459,4.423C-1.411,4.869 -0.354,4.932 -0.02,4.95L0,4.95" style="fill:rgb(104,123,50);fill-rule:nonzero;"/>
            </g>
            <g transform="matrix(1,0,0,1,36.847,10.7577)">
                <path d="M0,0.129C-0.029,0.127 -0.06,0.128 -0.09,0.129C-0.147,0.13 -0.209,0.131 -0.266,0.117C-0.299,0.108 -0.333,0.101 -0.367,0.094C-0.517,0.063 -0.671,0.03 -0.782,-0.101C-0.989,-0.342 -1.233,-0.552 -1.47,-0.754C-1.647,-0.906 -1.83,-1.062 -1.996,-1.232C-2.04,-1.276 -2.08,-1.315 -2.127,-1.337C-2.245,-1.393 -2.332,-1.395 -2.393,-1.344C-2.446,-1.3 -2.444,-1.23 -2.386,-1.131C-2.382,-1.123 -2.376,-1.116 -2.37,-1.108C-2.358,-1.09 -2.345,-1.072 -2.341,-1.05C-2.329,-0.993 -2.315,-0.923 -2.378,-0.87C-2.398,-0.855 -2.427,-0.85 -2.462,-0.857C-2.508,-0.866 -2.565,-0.898 -2.59,-0.947C-2.606,-0.979 -2.618,-1.013 -2.63,-1.046L-2.637,-1.068C-2.648,-1.098 -2.658,-1.129 -2.668,-1.159C-2.792,-1.552 -3.188,-1.367 -3.537,-1.374C-3.645,-1.374 -3.755,-1.371 -3.861,-1.369C-3.861,-1.369 -3.922,-1.367 -3.925,-1.367C-3.983,-1.367 -4.008,-1.407 -4.034,-1.449C-4.141,-1.621 -4.141,-1.622 -4.283,-1.542C-4.341,-1.51 -4.398,-1.474 -4.453,-1.439C-4.505,-1.405 -4.56,-1.371 -4.615,-1.34C-4.94,-1.157 -5.3,-0.99 -5.724,-1.009C-5.821,-1.013 -6.027,-1.069 -6.09,-0.967C-6.112,-0.931 -6.114,-0.875 -6.125,-0.835C-6.141,-0.78 -6.16,-0.725 -6.181,-0.672C-6.2,-0.622 -6.216,-0.571 -6.236,-0.522C-6.252,-0.478 -6.299,-0.42 -6.257,-0.375C-6.226,-0.342 -6.153,-0.356 -6.112,-0.355C-5.941,-0.353 -5.77,-0.353 -5.599,-0.352L-5.28,-0.352C-5.143,-0.35 -5.004,-0.346 -4.885,-0.342C-4.86,-0.342 -4.834,-0.324 -4.817,-0.296C-4.8,-0.269 -4.797,-0.24 -4.807,-0.219C-4.822,-0.188 -4.844,-0.164 -4.859,-0.149C-4.874,-0.135 -4.896,-0.139 -4.911,-0.136C-4.924,-0.134 -4.937,-0.131 -4.95,-0.129C-4.979,-0.125 -5.007,-0.121 -5.028,-0.108C-5.063,-0.087 -5.063,-0.055 -5.06,-0.004C-5.059,0.01 -5.058,0.023 -5.059,0.036L-5.06,0.088C-5.063,0.255 -5.066,0.427 -5.136,0.597C-5.225,0.81 -5.315,0.919 -5.561,0.92C-5.933,0.922 -6.24,0.922 -6.527,0.919C-6.654,0.92 -6.655,0.918 -6.769,1.068C-6.846,1.17 -6.931,1.282 -7.104,1.273C-7.222,1.266 -7.296,1.268 -7.323,1.295C-7.345,1.317 -7.344,1.363 -7.342,1.441C-7.342,1.463 -7.341,1.488 -7.341,1.516L-7.34,1.541C-7.34,1.59 -7.34,1.641 -7.335,1.69C-7.33,1.737 -7.296,1.748 -7.267,1.749L-7.255,1.75C-7.23,1.751 -7.206,1.751 -7.181,1.751C-7.055,1.749 -6.929,1.745 -6.803,1.742L-6.62,1.737C-6.589,1.707 -6.556,1.678 -6.524,1.648C-6.441,1.572 -6.356,1.493 -6.275,1.413C-6.205,1.344 -6.127,1.314 -6.023,1.32C-5.989,1.321 -5.955,1.322 -5.922,1.321C-5.868,1.322 -5.813,1.321 -5.759,1.328C-5.734,1.331 -5.716,1.342 -5.708,1.359C-5.697,1.381 -5.703,1.411 -5.726,1.449C-5.733,1.462 -5.738,1.477 -5.74,1.492C-5.71,1.495 -5.682,1.498 -5.661,1.489C-5.469,1.411 -5.269,1.413 -5.077,1.415C-5.025,1.415 -4.974,1.416 -4.923,1.415L-4.881,1.414C-4.766,1.412 -4.647,1.41 -4.53,1.403C-4.519,1.402 -4.492,1.377 -4.489,1.363C-4.48,1.306 -4.479,1.248 -4.485,1.193C-4.508,0.973 -4.428,0.836 -4.234,0.761C-4.159,0.733 -4.118,0.663 -4.122,0.569C-4.131,0.355 -4.131,0.168 -4.121,-0.003C-4.116,-0.103 -4.165,-0.128 -4.253,-0.163C-4.279,-0.174 -4.298,-0.198 -4.303,-0.23C-4.31,-0.271 -4.296,-0.316 -4.267,-0.342C-4.218,-0.386 -4.156,-0.431 -4.06,-0.431C-3.838,-0.429 -3.611,-0.429 -3.391,-0.429L-3.138,-0.429C-3.097,-0.429 -3.057,-0.428 -3.016,-0.427C-2.926,-0.423 -2.834,-0.42 -2.747,-0.434C-2.665,-0.446 -2.596,-0.419 -2.531,-0.392C-2.479,-0.371 -2.43,-0.351 -2.376,-0.351C-2.367,-0.35 -2.359,-0.351 -2.35,-0.351C-2.172,-0.351 -2.04,-0.249 -1.933,-0.149C-1.831,-0.052 -1.731,0.057 -1.637,0.176C-1.543,0.296 -1.428,0.353 -1.285,0.353C-0.977,0.353 -0.671,0.353 -0.363,0.352L-0.322,0.351C-0.207,0.351 -0.087,0.35 0.03,0.342C0.06,0.34 0.081,0.31 0.083,0.266C0.087,0.15 0.046,0.132 0,0.129" style="fill:rgb(95,58,46);fill-rule:nonzero;"/>
            </g>
        </g>
    </g>
</svg>
