<?xml version="1.0" encoding="UTF-8" standalone="no"?>
<!DOCTYPE svg PUBLIC "-//W3C//DTD SVG 1.1//EN" "http://www.w3.org/Graphics/SVG/1.1/DTD/svg11.dtd">
<svg width="100%" height="100%" viewBox="0 0 20 20" version="1.1" xmlns="http://www.w3.org/2000/svg" xmlns:xlink="http://www.w3.org/1999/xlink" xml:space="preserve" xmlns:serif="http://www.serif.com/" style="fill-rule:evenodd;clip-rule:evenodd;stroke-linejoin:round;stroke-miterlimit:2;">
    <g transform="matrix(1.042,0,0,1.042,-0.41998,-0.41998)">
        <g id="Jekoros">
            <g transform="matrix(1,0,0,1,1.11787,2.68261)">
                <path d="M0,6.357L0.012,6.363C0.28,6.489 0.559,6.604 0.83,6.715C1.141,6.842 1.461,6.974 1.766,7.124C1.998,7.238 2.21,7.283 2.431,7.264C2.536,7.255 2.642,7.258 2.746,7.261C2.782,7.262 2.819,7.263 2.855,7.263C2.905,7.263 2.956,7.268 3.005,7.272L3.024,7.274C3.051,7.276 3.078,7.293 3.094,7.317C3.107,7.338 3.109,7.361 3.1,7.379C3.085,7.408 3.067,7.437 3.04,7.442C2.982,7.453 2.922,7.454 2.87,7.455C2.707,7.456 2.516,7.457 2.317,7.455C2.256,7.455 2.196,7.47 2.138,7.485C2.108,7.492 2.076,7.5 2.044,7.506C1.903,7.531 1.775,7.591 1.651,7.649C1.535,7.703 1.414,7.76 1.28,7.789C1.22,7.801 1.164,7.841 1.109,7.88C1.087,7.896 1.064,7.911 1.041,7.925C1.015,7.942 1.003,8.004 1.016,8.053C1.022,8.077 1.034,8.092 1.045,8.093C1.113,8.101 1.179,8.119 1.243,8.137C1.329,8.161 1.417,8.185 1.51,8.185L1.526,8.185C1.736,8.178 1.949,8.18 2.155,8.18C2.283,8.181 2.411,8.182 2.548,8.181C2.758,8.181 2.919,8.255 3.017,8.397L3.028,8.415C3.084,8.496 3.141,8.581 3.224,8.613C3.301,8.642 3.371,8.601 3.444,8.555C3.475,8.537 3.508,8.517 3.541,8.503C3.571,8.491 3.6,8.478 3.63,8.465C3.674,8.445 3.72,8.424 3.767,8.407C3.811,8.391 3.828,8.374 3.832,8.343C3.837,8.306 3.833,8.266 3.83,8.227C3.823,8.149 3.816,8.068 3.87,8.003C3.916,7.948 3.982,7.908 4.045,7.869C4.085,7.844 4.127,7.819 4.163,7.79L4.188,7.771C4.251,7.72 4.324,7.663 4.341,7.601C4.357,7.544 4.322,7.53 4.253,7.509C4.214,7.498 4.174,7.486 4.148,7.459C4.128,7.439 4.107,7.42 4.086,7.4C3.991,7.314 3.893,7.226 3.916,7.065C3.921,7.035 3.913,7.009 3.894,6.988C3.865,6.956 3.809,6.935 3.738,6.93C3.705,6.928 3.669,6.928 3.634,6.929C3.552,6.929 3.47,6.929 3.401,6.901C3.282,6.852 3.172,6.758 3.09,6.637C3.074,6.614 3.087,6.57 3.104,6.549C3.122,6.528 3.164,6.508 3.193,6.515C3.236,6.525 3.277,6.546 3.305,6.571C3.437,6.686 3.594,6.74 3.799,6.74L3.823,6.74C4.194,6.732 4.572,6.733 4.937,6.735C5.086,6.736 5.234,6.736 5.383,6.736C5.404,6.736 5.426,6.735 5.447,6.734C5.498,6.731 5.55,6.729 5.598,6.74C5.61,6.743 5.621,6.746 5.633,6.748C5.741,6.774 5.852,6.8 5.906,6.923C5.982,7.096 6.129,7.227 6.272,7.354C6.305,7.384 6.339,7.414 6.372,7.445C6.411,7.481 6.448,7.505 6.501,7.505L6.522,7.505C6.568,7.505 6.614,7.506 6.661,7.507C6.762,7.51 6.865,7.512 6.964,7.503C7.063,7.494 7.156,7.517 7.245,7.54C7.313,7.558 7.383,7.576 7.455,7.578L7.472,7.578C7.586,7.578 7.661,7.539 7.712,7.451C7.833,7.247 7.891,7.051 7.891,6.853C7.89,6.481 7.891,6.11 7.892,5.738C7.892,5.552 7.893,5.366 7.893,5.181C7.893,5.175 7.894,5.168 7.894,5.161C7.895,5.143 7.895,5.125 7.889,5.112C7.878,5.086 7.86,5.049 7.833,5.027C7.811,5.01 7.785,4.996 7.758,4.982C7.737,4.971 7.715,4.959 7.695,4.945C7.678,4.933 7.666,4.916 7.655,4.899C7.651,4.893 7.648,4.888 7.643,4.882C7.627,4.862 7.642,4.83 7.649,4.817C7.661,4.794 7.684,4.768 7.711,4.767C7.72,4.766 7.729,4.765 7.738,4.764C7.755,4.763 7.772,4.761 7.788,4.761C7.809,4.761 7.828,4.764 7.845,4.771C8.001,4.842 8.086,4.97 8.149,5.086C8.196,5.173 8.165,5.244 8.133,5.319L8.12,5.349C8.1,5.398 8.101,5.457 8.102,5.515C8.103,5.532 8.103,5.55 8.103,5.567C8.102,5.684 8.101,5.801 8.1,5.917C8.096,6.313 8.093,6.722 8.096,7.124C8.097,7.314 8.041,7.452 7.923,7.546C7.829,7.622 7.785,7.686 7.786,7.747C7.786,7.838 7.984,8.141 8.08,8.152C8.16,8.162 8.24,8.119 8.295,8.06C8.35,8 8.385,7.926 8.421,7.853C8.56,7.576 8.728,7.313 8.921,7.07C8.932,7.056 8.943,7.042 8.959,7.035C9.013,7.009 9.064,7.075 9.089,7.13C9.247,7.47 9.441,7.793 9.669,8.091C9.683,8.111 9.699,8.131 9.721,8.141C9.846,8.197 9.914,7.953 9.956,7.881C10.032,7.752 10.018,7.653 9.911,7.559L9.9,7.55C9.843,7.5 9.779,7.443 9.754,7.377C9.736,7.328 9.735,7.277 9.734,7.227C9.732,7.152 9.731,7.081 9.675,7.018C9.655,6.995 9.658,6.962 9.661,6.929C9.662,6.918 9.663,6.906 9.663,6.897L9.66,6.46C9.658,6.023 9.656,5.586 9.654,5.148C9.653,5.069 9.678,5.011 9.732,4.966C9.756,4.947 9.778,4.928 9.801,4.908C9.849,4.867 9.898,4.824 9.952,4.787C9.978,4.768 10.017,4.767 10.054,4.765C10.063,4.765 10.072,4.765 10.089,4.764C10.143,4.764 10.18,4.793 10.186,4.841C10.189,4.864 10.176,4.913 10.148,4.922C10.049,4.953 9.983,5.017 9.914,5.086L9.896,5.103C9.87,5.129 9.863,5.165 9.88,5.185C9.946,5.264 9.943,5.35 9.941,5.434C9.94,5.451 9.94,5.469 9.94,5.487L9.943,5.859C9.946,6.248 9.95,6.65 9.946,7.045C9.944,7.223 10.01,7.37 10.155,7.505C10.208,7.556 10.253,7.584 10.321,7.577C10.347,7.574 10.376,7.575 10.402,7.575C10.447,7.577 10.491,7.578 10.522,7.563C10.641,7.503 10.764,7.504 10.885,7.506C10.916,7.506 10.948,7.507 10.981,7.506C11.077,7.504 11.178,7.502 11.277,7.507C11.36,7.512 11.418,7.477 11.482,7.421C11.649,7.274 11.772,7.097 11.871,6.942C11.961,6.8 12.096,6.73 12.285,6.73C12.291,6.73 12.297,6.731 12.303,6.731C12.618,6.737 12.939,6.737 13.248,6.736C13.505,6.736 13.771,6.735 14.032,6.739C14.039,6.739 14.046,6.74 14.053,6.74C14.187,6.74 14.322,6.719 14.426,6.601C14.469,6.552 14.529,6.496 14.618,6.507C14.655,6.512 14.698,6.532 14.733,6.562C14.754,6.58 14.744,6.633 14.726,6.653C14.686,6.7 14.638,6.753 14.581,6.794C14.433,6.902 14.255,6.946 14.018,6.932C13.969,6.929 13.943,6.933 13.93,6.944C13.917,6.955 13.911,6.977 13.91,7.023C13.906,7.259 13.788,7.416 13.551,7.503C13.524,7.513 13.5,7.521 13.477,7.532C13.44,7.549 13.419,7.57 13.415,7.591C13.412,7.609 13.422,7.628 13.443,7.648C13.546,7.744 13.67,7.853 13.824,7.93C13.966,8.001 14.027,8.108 13.996,8.232C13.993,8.248 13.993,8.265 13.994,8.283L13.994,8.304C13.994,8.354 14.005,8.387 14.058,8.409C14.201,8.468 14.347,8.534 14.505,8.611C14.539,8.627 14.572,8.634 14.593,8.627C14.606,8.622 14.615,8.614 14.622,8.601C14.665,8.504 14.743,8.437 14.819,8.372C14.853,8.342 14.889,8.312 14.92,8.279C14.986,8.212 15.071,8.18 15.188,8.18C15.224,8.182 15.265,8.181 15.304,8.181C15.382,8.181 15.46,8.18 15.536,8.179C15.729,8.177 15.929,8.175 16.125,8.186C16.269,8.195 16.404,8.164 16.534,8.136C16.585,8.124 16.638,8.112 16.691,8.103C16.712,8.1 16.732,8.079 16.745,8.049C16.762,8.009 16.76,7.965 16.737,7.937C16.714,7.91 16.689,7.88 16.659,7.866C16.599,7.837 16.538,7.809 16.478,7.781C16.297,7.694 16.109,7.605 15.916,7.541L15.89,7.532C15.749,7.485 15.604,7.436 15.439,7.451C15.297,7.464 15.151,7.46 15.011,7.456C14.956,7.455 14.902,7.453 14.848,7.452C14.802,7.452 14.765,7.438 14.743,7.414C14.727,7.394 14.722,7.37 14.728,7.344C14.742,7.294 14.776,7.268 14.832,7.268C14.894,7.267 14.956,7.266 15.018,7.264C15.151,7.261 15.288,7.257 15.423,7.264C15.44,7.266 15.458,7.266 15.476,7.266C15.646,7.266 15.817,7.226 16.012,7.141C16.631,6.87 17.232,6.604 17.799,6.35C17.843,6.331 17.88,6.294 17.917,6.254C17.926,6.245 17.928,6.217 17.921,6.2C17.914,6.185 17.89,6.168 17.879,6.167L17.783,6.165C17.635,6.16 17.483,6.155 17.333,6.163C17.325,6.164 17.317,6.164 17.31,6.164C17.22,6.164 17.145,6.134 17.071,6.105C17.038,6.092 17.005,6.079 16.961,6.063C16.854,5.926 16.695,5.927 16.522,5.928C16.48,5.931 16.437,5.927 16.395,5.925C16.311,5.922 16.226,5.919 16.146,5.931C16.031,5.948 15.925,5.92 15.824,5.894C15.755,5.875 15.684,5.856 15.611,5.853C15.53,5.849 15.452,5.809 15.376,5.771C15.352,5.759 15.327,5.746 15.302,5.735C14.913,5.56 14.525,5.383 14.136,5.207L13.597,4.962C13.548,4.94 13.505,4.95 13.477,4.993C13.416,5.083 13.35,5.254 13.264,5.319C13.181,5.382 13.062,5.38 13.061,5.247C13.06,5.117 13.211,4.988 13.271,4.878L13.277,4.867C13.282,4.858 13.271,4.827 13.262,4.822C13.177,4.776 13.11,4.746 13.044,4.722C12.723,4.609 12.722,4.609 12.513,4.875C12.481,4.915 12.451,4.953 12.419,4.991C12.385,5.033 12.351,5.076 12.317,5.119C12.294,5.148 12.273,5.178 12.252,5.208C12.213,5.262 12.174,5.317 12.127,5.366C12.077,5.421 12.054,5.482 12.052,5.565C12.052,5.599 12.051,5.633 12.051,5.667C12.049,5.758 12.048,5.852 12.044,5.944C12.043,5.971 11.986,5.993 11.963,5.995C11.957,5.995 11.954,5.996 11.952,5.996C11.952,6 11.951,6.004 11.948,6.008L11.939,6.018L11.926,6.013C11.921,6.011 11.918,6.007 11.916,6.004C11.915,6.002 11.912,5.998 11.905,5.989C11.754,5.816 11.725,5.634 11.818,5.448C11.935,5.214 12.086,5.001 12.268,4.815C12.284,4.799 12.299,4.783 12.316,4.768C12.375,4.711 12.432,4.656 12.462,4.579C12.466,4.57 12.469,4.562 12.472,4.555C12.49,4.513 12.49,4.513 12.423,4.479C12.38,4.457 12.334,4.437 12.29,4.417C12.185,4.37 12.077,4.321 11.99,4.252C11.809,4.108 11.636,3.951 11.469,3.799C11.391,3.729 11.313,3.658 11.234,3.589C11.188,3.548 11.167,3.502 11.168,3.443C11.168,3.362 11.167,3.281 11.166,3.2C11.165,3.042 11.163,2.88 11.172,2.72C11.18,2.555 11.1,2.427 11.015,2.291C10.999,2.266 10.984,2.241 10.969,2.215C10.963,2.215 10.953,2.215 10.948,2.217L10.935,2.22C10.916,2.224 10.895,2.23 10.886,2.239C10.876,2.25 10.87,2.271 10.87,2.298C10.869,2.467 10.965,2.933 10.829,3.054C10.535,3.316 10.586,2.55 10.586,2.452C10.584,2.2 10.584,1.947 10.582,1.695C10.58,1.49 10.483,1.303 10.314,1.182C10.171,1.079 10.102,0.969 10.079,0.801C10.056,0.643 10.032,0.479 9.969,0.334C9.94,0.267 9.93,0.2 9.92,0.136C9.915,0.104 9.91,0.071 9.902,0.039C9.892,-0.006 9.812,-0.07 9.774,-0.071C9.726,-0.071 9.627,0.005 9.618,0.058C9.611,0.096 9.61,0.136 9.609,0.169C9.607,0.297 9.606,0.409 9.606,0.511L9.606,3.665C9.606,3.739 9.605,3.813 9.604,3.887L9.603,3.932C9.602,4.022 9.511,4.033 9.477,4.037C9.441,4.042 9.396,4.03 9.366,4.008C9.344,3.991 9.331,3.969 9.331,3.948C9.327,3.837 9.326,3.738 9.326,3.644L9.326,0.755C9.326,0.721 9.328,0.686 9.33,0.651C9.334,0.573 9.337,0.492 9.322,0.417C9.307,0.346 9.335,0.289 9.363,0.233C9.385,0.185 9.408,0.141 9.401,0.091C9.38,-0.067 9.49,-0.158 9.611,-0.233C9.634,-0.247 9.662,-0.257 9.689,-0.268C9.744,-0.288 9.791,-0.306 9.795,-0.348C9.798,-0.374 9.785,-0.404 9.772,-0.435C9.756,-0.472 9.738,-0.513 9.742,-0.565C9.745,-0.583 9.748,-0.61 9.739,-0.62C9.686,-0.679 9.68,-0.748 9.674,-0.814C9.669,-0.862 9.665,-0.907 9.644,-0.945C9.595,-1.033 9.587,-1.122 9.578,-1.207C9.575,-1.232 9.573,-1.255 9.569,-1.279C9.566,-1.298 9.558,-1.316 9.549,-1.335C9.541,-1.349 9.534,-1.365 9.529,-1.381C9.498,-1.491 9.446,-1.596 9.396,-1.698C9.347,-1.796 9.297,-1.898 9.265,-2.004C9.221,-2.15 9.096,-2.2 8.965,-2.254C8.948,-2.26 8.931,-2.267 8.914,-2.274C8.889,-2.285 8.837,-2.279 8.813,-2.262C8.798,-2.253 8.783,-2.243 8.769,-2.233C8.637,-2.145 8.512,-2.061 8.503,-1.886C8.463,-1.842 8.446,-1.787 8.429,-1.728C8.406,-1.653 8.383,-1.575 8.305,-1.517C8.279,-1.498 8.273,-1.445 8.267,-1.402L8.266,-1.39C8.264,-1.374 8.262,-1.359 8.26,-1.344C8.25,-1.262 8.241,-1.177 8.191,-1.093C8.17,-1.058 8.167,-1.016 8.163,-0.971C8.157,-0.915 8.152,-0.858 8.115,-0.804C8.087,-0.764 8.083,-0.716 8.079,-0.665C8.076,-0.616 8.071,-0.565 8.046,-0.516C8.006,-0.44 7.996,-0.392 8.011,-0.357C8.025,-0.324 8.064,-0.296 8.141,-0.265C8.36,-0.177 8.408,-0.014 8.425,0.135C8.438,0.237 8.438,0.342 8.437,0.443L8.437,0.516C8.438,0.878 8.438,1.24 8.438,1.602L8.437,2.02L8.438,2.036L8.438,2.441C8.438,2.914 8.438,3.387 8.436,3.86C8.436,3.869 8.437,3.879 8.438,3.89C8.441,3.939 8.446,4.008 8.35,4.029C8.322,4.036 8.296,4.032 8.277,4.018C8.241,3.993 8.224,3.94 8.223,3.848C8.222,3.786 8.223,3.724 8.223,3.662L8.223,3.583L8.224,0.466C8.224,0.428 8.223,0.389 8.223,0.35C8.222,0.3 8.222,0.25 8.222,0.2C8.223,0.105 8.167,0.032 8.108,-0.045L8.096,-0.06C8.084,-0.076 8.023,-0.081 7.978,-0.069C7.954,-0.063 7.945,-0.055 7.945,-0.052C7.943,0.012 7.917,0.07 7.891,0.125C7.863,0.185 7.837,0.241 7.839,0.306C7.842,0.432 7.802,0.553 7.762,0.669C7.746,0.718 7.729,0.768 7.716,0.817C7.659,1.028 7.645,1.042 7.504,1.173L7.472,1.203C7.46,1.214 7.448,1.224 7.435,1.235C7.406,1.26 7.379,1.283 7.36,1.311C7.351,1.324 7.342,1.337 7.332,1.351C7.294,1.403 7.255,1.456 7.26,1.501C7.271,1.616 7.244,1.724 7.217,1.829C7.196,1.916 7.173,2.006 7.174,2.095C7.174,2.281 7.283,2.941 7.084,3.056C6.915,3.154 6.961,2.653 6.961,2.597L6.961,2.338C6.962,2.308 6.963,2.276 6.954,2.249C6.951,2.238 6.927,2.222 6.908,2.217C6.888,2.212 6.857,2.215 6.848,2.224C6.72,2.334 6.659,2.46 6.66,2.61C6.662,2.732 6.662,2.854 6.661,2.976C6.661,3.118 6.661,3.264 6.663,3.408C6.665,3.494 6.634,3.557 6.562,3.618C6.404,3.751 6.252,3.886 6.112,4.018C5.93,4.19 5.757,4.302 5.568,4.369C5.51,4.389 5.455,4.422 5.401,4.453C5.386,4.462 5.371,4.471 5.355,4.48C5.335,4.491 5.321,4.511 5.317,4.533C5.313,4.552 5.318,4.571 5.33,4.585C5.375,4.637 5.421,4.688 5.467,4.74C5.551,4.834 5.637,4.931 5.72,5.028C5.955,5.308 6.039,5.567 5.985,5.844C5.973,5.905 5.929,5.942 5.883,5.973C5.868,5.983 5.854,5.993 5.833,5.993C5.812,5.99 5.793,5.967 5.792,5.951C5.79,5.937 5.788,5.922 5.786,5.907C5.779,5.859 5.772,5.81 5.778,5.762C5.798,5.595 5.748,5.443 5.619,5.283C5.577,5.231 5.532,5.179 5.489,5.13C5.43,5.063 5.37,4.994 5.317,4.923C5.063,4.585 5.062,4.586 4.767,4.732C4.734,4.748 4.699,4.765 4.659,4.784C4.651,4.788 4.641,4.79 4.633,4.791C4.628,4.792 4.622,4.793 4.618,4.795C4.58,4.813 4.553,4.844 4.545,4.879C4.525,4.974 4.952,5.265 4.642,5.322C4.501,5.347 4.414,5.133 4.355,5.04C4.339,5.013 4.322,4.986 4.305,4.959C4.208,4.963 4.128,5.004 4.043,5.048C4.012,5.064 3.98,5.081 3.947,5.095C3.393,5.339 2.969,5.529 2.573,5.711C2.436,5.774 2.288,5.838 2.109,5.872C1.956,5.901 1.791,5.928 1.615,5.928C1.549,5.928 1.483,5.93 1.418,5.93C1.317,5.932 1.212,5.933 1.103,5.932C1.009,5.932 0.936,5.959 0.858,6.02C0.735,6.115 0.587,6.164 0.416,6.164C0.405,6.164 0.394,6.164 0.383,6.163C0.229,6.158 0.071,6.163 -0.082,6.168L-0.121,6.17C-0.13,6.17 -0.153,6.189 -0.159,6.206C-0.164,6.221 -0.159,6.247 -0.148,6.26C-0.111,6.305 -0.057,6.331 0,6.357" style="fill:rgb(116,106,146);fill-rule:nonzero;"/>
            </g>
            <g transform="matrix(1,0,0,1,6.30287,9.61261)">
                <path d="M0,0.412L0.158,0.412C0.297,0.412 0.433,0.413 0.571,0.412C0.622,0.411 0.653,0.404 0.664,0.389C0.676,0.375 0.672,0.345 0.653,0.298C0.562,0.071 0.353,0.029 0.109,0C0.101,-0.001 0.092,0 0.084,0L-0.151,0C-0.385,0 -0.621,0 -0.856,0.001C-0.894,0.002 -0.932,0.013 -0.971,0.024C-0.996,0.032 -1.022,0.056 -1.036,0.087C-1.048,0.113 -1.049,0.139 -1.039,0.156C-0.961,0.289 -0.862,0.412 -0.66,0.412L-0.65,0.412C-0.504,0.409 -0.356,0.41 -0.213,0.411L-0.018,0.411L0,0.412ZM-0.096,0.296L-0.096,0.308L-0.193,0.302C-0.276,0.297 -0.362,0.291 -0.446,0.283C-0.469,0.28 -0.48,0.254 -0.492,0.227L-0.497,0.214C-0.505,0.196 -0.506,0.178 -0.499,0.164C-0.491,0.149 -0.476,0.137 -0.455,0.131L-0.441,0.126C-0.419,0.119 -0.396,0.111 -0.372,0.111C-0.195,0.11 -0.012,0.111 0.172,0.113C0.214,0.114 0.253,0.13 0.274,0.158C0.29,0.179 0.294,0.204 0.286,0.226C0.268,0.273 0.232,0.297 0.18,0.297L0.179,0.297C0.108,0.296 0.037,0.296 -0.034,0.296L-0.096,0.296Z" style="fill:rgb(48,65,104);fill-rule:nonzero;"/>
            </g>
            <g transform="matrix(1,0,0,1,17.2589,18.4116)">
                <path d="M0,-5.959C0.053,-5.959 0.096,-5.975 0.135,-6.01C0.141,-6.015 0.146,-6.021 0.15,-6.028C0.153,-6.031 0.155,-6.035 0.158,-6.038C0.163,-6.044 0.165,-6.049 0.165,-6.052C0.164,-6.054 0.161,-6.06 0.141,-6.069C0.039,-6.113 -0.062,-6.158 -0.164,-6.202C-0.431,-6.319 -0.707,-6.439 -0.975,-6.564C-1.045,-6.597 -1.115,-6.629 -1.185,-6.66C-1.396,-6.756 -1.613,-6.855 -1.816,-6.974C-2.083,-7.131 -2.145,-7.14 -2.422,-7.14L-2.894,-7.14C-2.931,-7.141 -2.966,-7.14 -3.002,-7.141C-3.091,-7.141 -3.183,-7.143 -3.271,-7.133C-3.448,-7.115 -3.361,-6.834 -3.448,-6.73C-3.54,-6.621 -3.703,-6.599 -3.83,-6.552C-4.021,-6.481 -4.248,-6.321 -4.247,-6.094C-4.246,-5.941 -4.246,-5.788 -4.246,-5.635C-4.247,-5.387 -4.247,-5.131 -4.243,-4.879C-4.24,-4.746 -4.27,-4.617 -4.337,-4.473C-4.38,-4.381 -4.424,-4.29 -4.468,-4.198C-4.56,-4.009 -4.654,-3.813 -4.736,-3.617C-4.747,-3.59 -4.753,-3.563 -4.759,-3.534C-4.769,-3.49 -4.779,-3.445 -4.807,-3.4C-4.859,-3.317 -4.927,-3.268 -5.015,-3.22C-5.077,-3.185 -5.146,-3.171 -5.226,-3.177C-5.3,-3.18 -5.331,-3.161 -5.348,-3.093C-5.386,-2.941 -5.429,-2.768 -5.659,-2.711C-5.724,-2.695 -5.766,-2.629 -5.765,-2.544C-5.763,-2.461 -5.764,-2.377 -5.765,-2.296C-5.766,-2.178 -5.767,-2.056 -5.762,-1.937C-5.756,-1.82 -5.801,-1.733 -5.903,-1.662C-5.935,-1.64 -5.965,-1.615 -5.995,-1.59C-6.016,-1.572 -6.038,-1.555 -6.061,-1.537C-6.086,-1.518 -6.118,-1.512 -6.149,-1.519C-6.182,-1.527 -6.209,-1.549 -6.223,-1.58C-6.24,-1.621 -6.255,-1.662 -6.27,-1.703C-6.294,-1.767 -6.319,-1.832 -6.349,-1.894C-6.365,-1.927 -6.396,-1.966 -6.459,-1.966C-6.487,-1.965 -6.507,-1.958 -6.519,-1.944C-6.532,-1.93 -6.536,-1.909 -6.531,-1.885C-6.513,-1.804 -6.543,-1.735 -6.572,-1.668C-6.594,-1.617 -6.615,-1.569 -6.617,-1.516C-6.62,-1.433 -6.706,-1.363 -6.809,-1.362C-7.048,-1.358 -7.29,-1.359 -7.524,-1.361L-7.694,-1.362C-7.763,-1.362 -7.808,-1.391 -7.835,-1.452C-7.843,-1.472 -7.854,-1.491 -7.865,-1.51C-7.892,-1.558 -7.92,-1.607 -7.914,-1.671C-7.91,-1.72 -7.912,-1.77 -7.915,-1.818C-7.917,-1.845 -7.919,-1.871 -7.919,-1.897C-7.92,-1.942 -7.946,-1.963 -8.012,-1.97C-8.075,-1.978 -8.112,-1.959 -8.126,-1.917C-8.146,-1.858 -8.164,-1.797 -8.181,-1.738C-8.195,-1.69 -8.209,-1.642 -8.224,-1.595C-8.24,-1.545 -8.269,-1.527 -8.291,-1.52C-8.314,-1.513 -8.355,-1.512 -8.412,-1.551C-8.427,-1.56 -8.439,-1.573 -8.452,-1.585C-8.468,-1.601 -8.485,-1.616 -8.503,-1.624C-8.678,-1.7 -8.757,-1.831 -8.753,-2.036C-8.749,-2.204 -8.753,-2.374 -8.756,-2.539L-8.758,-2.643C-8.76,-2.694 -8.786,-2.721 -8.842,-2.725C-9.052,-2.738 -9.091,-2.875 -9.101,-2.993C-9.113,-3.139 -9.14,-3.161 -9.322,-3.174C-9.495,-3.186 -9.591,-3.282 -9.669,-3.385C-9.72,-3.454 -9.748,-3.539 -9.764,-3.597C-9.807,-3.753 -9.876,-3.903 -9.943,-4.049C-9.985,-4.139 -10.028,-4.232 -10.064,-4.326C-10.087,-4.385 -10.12,-4.442 -10.152,-4.498C-10.196,-4.574 -10.242,-4.653 -10.262,-4.737C-10.286,-4.84 -10.281,-4.95 -10.276,-5.057C-10.273,-5.102 -10.271,-5.149 -10.271,-5.194L-10.271,-5.688L-10.272,-5.749C-10.273,-6.002 -10.225,-6.228 -10.433,-6.4C-10.523,-6.475 -10.625,-6.543 -10.735,-6.584C-10.819,-6.615 -10.914,-6.614 -10.991,-6.663C-11.163,-6.773 -11.062,-6.959 -11.143,-7.107C-11.172,-7.158 -11.241,-7.151 -11.316,-7.143C-11.344,-7.14 -11.376,-7.138 -11.4,-7.138C-11.485,-7.14 -11.572,-7.14 -11.657,-7.138C-11.779,-7.137 -11.907,-7.135 -12.033,-7.144C-12.049,-7.145 -12.066,-7.146 -12.082,-7.146C-12.241,-7.146 -12.377,-7.095 -12.5,-7.04C-12.985,-6.823 -13.469,-6.589 -13.937,-6.362C-14.131,-6.268 -14.325,-6.175 -14.519,-6.082C-14.533,-6.076 -14.547,-6.07 -14.562,-6.065C-14.586,-6.056 -14.608,-6.048 -14.625,-6.035C-14.627,-6.03 -14.623,-5.999 -14.614,-5.988C-14.587,-5.956 -14.545,-5.958 -14.501,-5.959C-14.492,-5.959 -14.482,-5.96 -14.474,-5.96C-13.963,-5.959 -13.37,-5.959 -12.784,-5.96C-12.759,-5.96 -12.734,-5.959 -12.709,-5.959C-12.597,-5.955 -12.49,-5.952 -12.39,-6.012C-12.35,-6.037 -12.275,-6.019 -12.214,-5.999C-12.038,-5.944 -11.916,-5.855 -11.854,-5.736C-11.763,-5.562 -11.64,-5.486 -11.446,-5.486C-11.43,-5.486 -11.414,-5.487 -11.397,-5.487C-11.27,-5.487 -11.143,-5.428 -11.038,-5.318C-10.984,-5.261 -10.935,-5.197 -10.888,-5.136C-10.873,-5.116 -10.857,-5.096 -10.841,-5.076L-10.827,-5.057C-10.768,-4.982 -10.708,-4.906 -10.652,-4.828C-10.622,-4.785 -10.593,-4.739 -10.565,-4.695C-10.512,-4.611 -10.458,-4.524 -10.388,-4.453C-10.274,-4.338 -10.227,-4.223 -10.229,-4.067C-10.233,-3.741 -10.233,-3.409 -10.234,-3.088C-10.234,-2.824 -10.234,-2.551 -10.237,-2.281C-10.238,-2.132 -10.195,-2.036 -10.088,-1.957C-10.012,-1.902 -9.933,-1.844 -9.88,-1.77C-9.835,-1.708 -9.806,-1.637 -9.777,-1.568C-9.767,-1.544 -9.758,-1.52 -9.748,-1.497C-9.723,-1.441 -9.699,-1.385 -9.675,-1.329C-9.64,-1.248 -9.604,-1.164 -9.566,-1.082C-9.548,-1.042 -9.518,-1.004 -9.489,-0.968L-9.482,-0.958C-9.471,-0.944 -9.45,-0.938 -9.428,-0.937C-9.404,-0.938 -9.381,-0.948 -9.37,-0.963C-9.365,-0.972 -9.362,-0.982 -9.358,-0.992C-9.353,-1.006 -9.348,-1.021 -9.337,-1.033C-9.24,-1.15 -9.123,-1.287 -9.005,-1.42C-8.968,-1.461 -8.912,-1.477 -8.836,-1.47C-8.801,-1.466 -8.771,-1.45 -8.759,-1.428C-8.75,-1.413 -8.751,-1.395 -8.762,-1.38C-8.773,-1.365 -8.783,-1.348 -8.794,-1.333C-8.834,-1.274 -8.875,-1.215 -8.921,-1.16C-8.951,-1.123 -8.986,-1.089 -9.02,-1.055C-9.061,-1.015 -9.102,-0.974 -9.137,-0.929C-9.198,-0.849 -9.227,-0.806 -9.218,-0.774C-9.209,-0.738 -9.148,-0.705 -9.049,-0.655C-8.821,-0.54 -8.646,-0.431 -8.499,-0.312C-8.473,-0.291 -8.451,-0.281 -8.427,-0.281C-8.406,-0.283 -8.384,-0.298 -8.36,-0.327C-8.324,-0.371 -8.289,-0.417 -8.255,-0.462C-8.22,-0.507 -8.184,-0.556 -8.146,-0.601C-8.13,-0.621 -8.108,-0.63 -8.082,-0.63C-8.06,-0.63 -8.035,-0.622 -8.009,-0.607C-7.986,-0.592 -7.964,-0.546 -7.976,-0.523C-8.04,-0.389 -8.095,-0.281 -8.151,-0.185L-8.157,-0.173C-8.18,-0.137 -8.192,-0.116 -8.165,-0.073C-8.063,0.093 -8.002,0.276 -7.942,0.452C-7.923,0.511 -7.904,0.569 -7.882,0.627C-7.846,0.728 -7.792,0.823 -7.741,0.915C-7.719,0.954 -7.697,0.992 -7.677,1.031C-7.65,1.082 -7.594,1.114 -7.523,1.119L-7.496,1.121C-7.432,1.124 -7.367,1.128 -7.315,1.155C-7.249,1.19 -7.208,1.199 -7.148,1.159C-7.113,1.136 -7.064,1.123 -7.014,1.123C-6.907,1.123 -6.845,1.059 -6.798,0.997C-6.735,0.912 -6.685,0.824 -6.651,0.736C-6.534,0.442 -6.443,0.216 -6.355,0.003C-6.314,-0.099 -6.305,-0.167 -6.372,-0.259C-6.424,-0.33 -6.452,-0.416 -6.479,-0.505C-6.489,-0.539 -6.461,-0.598 -6.426,-0.618C-6.406,-0.628 -6.377,-0.632 -6.35,-0.625C-6.324,-0.619 -6.303,-0.604 -6.291,-0.583C-6.27,-0.546 -6.249,-0.51 -6.229,-0.472C-6.201,-0.421 -6.172,-0.368 -6.14,-0.318C-6.124,-0.294 -6.107,-0.28 -6.09,-0.277C-6.076,-0.273 -6.057,-0.28 -6.035,-0.295C-6.014,-0.31 -5.988,-0.319 -5.964,-0.328C-5.936,-0.338 -5.91,-0.348 -5.892,-0.364C-5.762,-0.478 -5.607,-0.571 -5.403,-0.657C-5.37,-0.671 -5.342,-0.695 -5.313,-0.721C-5.302,-0.731 -5.29,-0.741 -5.278,-0.75C-5.236,-0.783 -5.236,-0.806 -5.277,-0.85C-5.31,-0.885 -5.337,-0.925 -5.364,-0.963C-5.388,-0.998 -5.413,-1.034 -5.441,-1.066C-5.484,-1.114 -5.534,-1.16 -5.581,-1.204C-5.611,-1.232 -5.64,-1.26 -5.669,-1.288C-5.68,-1.3 -5.706,-1.329 -5.71,-1.361C-5.714,-1.386 -5.705,-1.422 -5.683,-1.441C-5.663,-1.459 -5.632,-1.462 -5.591,-1.466C-5.574,-1.466 -5.556,-1.458 -5.546,-1.448C-5.511,-1.416 -5.474,-1.385 -5.438,-1.355C-5.332,-1.266 -5.222,-1.175 -5.164,-1.043C-5.156,-1.023 -5.137,-1.006 -5.116,-0.988C-5.106,-0.979 -5.096,-0.97 -5.088,-0.96C-5.072,-0.944 -5.041,-0.933 -5.014,-0.939C-4.995,-0.941 -4.982,-0.948 -4.976,-0.959C-4.96,-0.992 -4.943,-1.025 -4.925,-1.059C-4.88,-1.148 -4.832,-1.24 -4.798,-1.334C-4.736,-1.499 -4.645,-1.653 -4.553,-1.809C-4.548,-1.816 -4.545,-1.823 -4.541,-1.829C-4.521,-1.867 -4.499,-1.906 -4.437,-1.924C-4.307,-1.962 -4.281,-2.054 -4.281,-2.18C-4.283,-2.484 -4.284,-2.794 -4.284,-3.093C-4.284,-3.384 -4.284,-3.675 -4.286,-3.965C-4.287,-4.126 -4.262,-4.26 -4.138,-4.391C-4.046,-4.488 -3.973,-4.603 -3.901,-4.713C-3.856,-4.783 -3.809,-4.855 -3.759,-4.923C-3.669,-5.041 -3.568,-5.154 -3.47,-5.264L-3.428,-5.311C-3.331,-5.418 -3.195,-5.482 -3.055,-5.484C-2.862,-5.489 -2.725,-5.526 -2.641,-5.702C-2.609,-5.769 -2.543,-5.821 -2.479,-5.873C-2.456,-5.891 -2.432,-5.91 -2.411,-5.929C-2.294,-6.034 -2.177,-6.051 -2.05,-5.981C-2.025,-5.967 -1.984,-5.959 -1.941,-5.959C-1.571,-5.958 -1.202,-5.959 -0.833,-5.959L0,-5.959" style="fill:rgb(116,106,146);fill-rule:nonzero;"/>
            </g>
            <g transform="matrix(1,0,0,1,14.1629,9.61161)">
                <path d="M0,0.413C0.086,0.413 0.173,0.413 0.258,0.411C0.351,0.41 0.431,0.38 0.49,0.324C0.553,0.265 0.586,0.18 0.583,0.084C0.58,0.012 0.537,0.004 0.504,0.004C0.14,0.002 -0.222,0.003 -0.585,0L-0.587,0C-0.638,0 -0.684,0.014 -0.731,0.029C-0.747,0.034 -0.762,0.038 -0.778,0.043C-0.957,0.091 -1.036,0.218 -1.101,0.343C-1.124,0.387 -1.126,0.402 -1.123,0.405C-1.122,0.406 -1.117,0.412 -1.082,0.412C-0.922,0.412 -0.763,0.413 -0.603,0.412L-0.412,0.412C-0.275,0.412 -0.139,0.413 0,0.413M-0.671,0.257C-0.688,0.237 -0.693,0.212 -0.684,0.187C-0.669,0.139 -0.633,0.114 -0.58,0.114C-0.5,0.113 -0.421,0.113 -0.341,0.113L-0.262,0.113L-0.261,0.102L-0.243,0.104C-0.219,0.106 -0.194,0.107 -0.17,0.109C-0.099,0.113 -0.026,0.118 0.046,0.127C0.075,0.131 0.096,0.178 0.097,0.201C0.099,0.226 0.084,0.267 0.057,0.278C0.021,0.292 -0.023,0.3 -0.069,0.301L-0.182,0.301C-0.319,0.301 -0.454,0.299 -0.571,0.298C-0.614,0.297 -0.65,0.283 -0.671,0.257" style="fill:rgb(48,65,104);fill-rule:nonzero;"/>
            </g>
            <g transform="matrix(1,0,0,1,12.7969,16.4816)">
                <path d="M0,-3.514C0.001,-3.59 0.003,-3.667 0.002,-3.743C0.002,-3.755 0.003,-3.767 0.003,-3.78C0.006,-3.823 0.008,-3.865 -0.022,-3.904C-0.067,-3.864 -0.112,-3.824 -0.157,-3.784C-0.32,-3.642 -0.393,-3.481 -0.378,-3.294C-0.373,-3.219 -0.384,-3.132 -0.412,-3.03C-0.425,-2.982 -0.439,-2.934 -0.454,-2.887C-0.503,-2.723 -0.554,-2.554 -0.555,-2.378C-0.555,-2.315 -0.577,-2.254 -0.599,-2.196C-0.62,-2.138 -0.642,-2.078 -0.642,-2.016C-0.642,-1.972 -0.698,-1.929 -0.752,-1.891C-0.775,-1.875 -0.805,-1.87 -0.834,-1.866C-0.848,-1.863 -0.862,-1.86 -0.874,-1.856C-0.896,-1.85 -0.917,-1.843 -0.938,-1.835C-1.028,-1.801 -1.13,-1.763 -1.23,-1.863C-1.242,-1.863 -1.271,-1.855 -1.276,-1.849C-1.31,-1.805 -1.334,-1.761 -1.347,-1.722C-1.388,-1.593 -1.45,-1.47 -1.51,-1.352C-1.529,-1.314 -1.548,-1.276 -1.566,-1.239C-1.613,-1.144 -1.691,-1.094 -1.793,-1.094L-1.814,-1.094C-1.894,-1.1 -1.971,-1.083 -2.042,-1.043C-2.079,-1.022 -2.149,-1.052 -2.176,-1.068C-2.271,-1.127 -2.365,-1.195 -2.361,-1.322C-2.36,-1.381 -2.402,-1.421 -2.454,-1.462L-2.832,-1.519C-2.882,-1.488 -2.939,-1.488 -2.993,-1.488C-3.035,-1.487 -3.076,-1.488 -3.11,-1.472C-3.158,-1.449 -3.164,-1.405 -3.171,-1.354C-3.178,-1.304 -3.186,-1.247 -3.241,-1.202C-3.242,-1.195 -3.244,-1.188 -3.247,-1.181C-3.27,-1.141 -3.381,-1.071 -3.45,-1.054C-3.473,-1.048 -3.491,-1.048 -3.503,-1.055C-3.602,-1.113 -3.712,-1.084 -3.823,-1.099C-3.891,-1.108 -3.93,-1.133 -3.961,-1.188C-4.064,-1.368 -4.147,-1.562 -4.217,-1.779C-4.239,-1.848 -4.258,-1.879 -4.281,-1.887C-4.307,-1.895 -4.351,-1.879 -4.433,-1.829C-4.491,-1.792 -4.541,-1.788 -4.602,-1.811C-4.809,-1.89 -4.997,-2.001 -4.974,-2.273C-4.967,-2.363 -4.994,-2.448 -5.021,-2.539C-5.049,-2.628 -5.077,-2.72 -5.07,-2.816C-5.128,-2.872 -5.132,-2.938 -5.135,-3.003C-5.138,-3.052 -5.14,-3.097 -5.164,-3.135C-5.217,-3.218 -5.216,-3.303 -5.216,-3.385C-5.215,-3.427 -5.215,-3.469 -5.221,-3.51C-5.225,-3.536 -5.239,-3.561 -5.253,-3.588C-5.263,-3.606 -5.273,-3.624 -5.279,-3.643C-5.31,-3.725 -5.371,-3.785 -5.443,-3.85C-5.448,-3.855 -5.453,-3.861 -5.459,-3.867C-5.482,-3.893 -5.491,-3.9 -5.511,-3.888C-5.519,-3.884 -5.528,-3.86 -5.528,-3.835C-5.53,-3.533 -5.53,-3.227 -5.529,-2.925C-5.529,-2.844 -5.501,-2.77 -5.471,-2.691L-5.466,-2.678C-5.399,-2.499 -5.317,-2.322 -5.239,-2.151C-5.163,-1.986 -5.084,-1.814 -5.018,-1.641C-5.006,-1.61 -4.981,-1.581 -4.954,-1.554C-4.945,-1.545 -4.923,-1.533 -4.91,-1.529C-4.82,-1.617 -4.736,-1.576 -4.662,-1.541C-4.639,-1.53 -4.618,-1.52 -4.597,-1.513C-4.487,-1.478 -4.429,-1.4 -4.433,-1.295C-4.44,-1.124 -4.406,-1.009 -4.217,-0.962C-4.023,-0.914 -4.065,-0.63 -3.985,-0.503C-3.979,-0.494 -3.97,-0.489 -3.963,-0.482C-3.997,-0.471 -4.008,-0.446 -4.009,-0.389C-4.01,-0.347 -4.01,-0.306 -4.01,-0.243L-4.01,-0.121C-4.009,-0.113 -4.002,-0.026 -3.993,0.061C-3.992,0.063 -3.986,0.071 -3.983,0.073C-3.982,0.071 -3.974,0.065 -3.968,0.062L-3.962,0.057C-3.897,0.015 -3.878,-0.045 -3.869,-0.129C-3.862,-0.195 -3.808,-0.251 -3.726,-0.279C-3.577,-0.329 -3.441,-0.271 -3.315,-0.207C-3.24,-0.169 -3.241,-0.101 -3.243,-0.041C-3.243,-0.022 -3.244,-0.005 -3.242,0.012C-3.238,0.053 -3.239,0.093 -3.241,0.128C-3.245,0.237 -3.166,0.298 -3.078,0.356C-3.029,0.388 -2.989,0.372 -2.939,0.351C-2.927,0.346 -2.915,0.341 -2.903,0.337C-2.868,0.324 -2.826,0.318 -2.782,0.318C-2.765,0.318 -2.749,0.319 -2.731,0.321C-2.706,0.324 -2.685,0.337 -2.664,0.35C-2.649,0.359 -2.633,0.368 -2.618,0.372C-2.546,0.39 -2.479,0.382 -2.431,0.35C-2.384,0.319 -2.357,0.266 -2.354,0.203C-2.35,0.124 -2.35,0.044 -2.35,-0.024C-2.351,-0.109 -2.288,-0.161 -2.241,-0.193C-2.205,-0.217 -2.163,-0.232 -2.122,-0.247C-2.11,-0.251 -2.099,-0.255 -2.088,-0.259C-1.939,-0.316 -1.853,-0.299 -1.735,-0.186C-1.677,-0.13 -1.647,-0.065 -1.638,0.028C-1.636,0.044 -1.62,0.068 -1.607,0.074C-1.593,0.08 -1.562,0.076 -1.547,0.066C-1.512,0.043 -1.514,0.008 -1.518,-0.032C-1.518,-0.042 -1.519,-0.051 -1.519,-0.06C-1.521,-0.157 -1.526,-0.257 -1.531,-0.353C-1.533,-0.389 -1.534,-0.426 -1.536,-0.462C-1.54,-0.464 -1.545,-0.463 -1.55,-0.466C-1.504,-0.579 -1.545,-0.734 -1.491,-0.843C-1.406,-1.012 -1.214,-1 -1.132,-1.194L-1.127,-1.208C-1.103,-1.265 -1.096,-1.33 -1.093,-1.385C-1.088,-1.46 -1.038,-1.485 -0.985,-1.512C-0.976,-1.516 -0.967,-1.521 -0.957,-1.526C-0.86,-1.579 -0.774,-1.599 -0.673,-1.522C-0.664,-1.517 -0.616,-1.527 -0.585,-1.546C-0.552,-1.566 -0.524,-1.598 -0.517,-1.624C-0.449,-1.863 -0.342,-2.092 -0.238,-2.312C-0.195,-2.405 -0.15,-2.502 -0.108,-2.597L-0.102,-2.612C-0.041,-2.752 0.021,-2.897 0.007,-3.059C-0.005,-3.21 -0.003,-3.365 0,-3.514" style="fill:rgb(217,120,136);fill-rule:nonzero;"/>
            </g>
            <g transform="matrix(1,0,0,1,14.2179,13.9166)">
                <path d="M0,0.653C-0.177,0.556 -0.544,0.262 -0.74,0.059C-0.752,0.046 -0.761,0.043 -0.764,0.043C-0.766,0.043 -0.769,0.044 -0.772,0.051C-0.795,0.099 -0.829,0.143 -0.862,0.186C-0.93,0.275 -0.995,0.359 -0.967,0.48C-0.959,0.518 -0.958,0.558 -0.957,0.596C-0.956,0.646 -0.956,0.693 -0.938,0.735C-0.911,0.804 -0.844,0.814 -0.766,0.827C-0.731,0.833 -0.695,0.839 -0.662,0.851C-0.624,0.865 -0.586,0.882 -0.55,0.898C-0.478,0.929 -0.403,0.962 -0.322,0.977C-0.238,0.994 -0.158,1.022 -0.081,1.049C0.017,1.084 0.118,1.12 0.226,1.13C0.327,1.14 0.421,1.175 0.512,1.208C0.609,1.243 0.71,1.279 0.817,1.285L0.823,1.285L0.827,1.288C0.92,1.355 1.031,1.358 1.148,1.361C1.176,1.362 1.205,1.363 1.234,1.365C1.237,1.364 1.247,1.363 1.258,1.362C1.281,1.361 1.31,1.359 1.326,1.348C1.347,1.333 1.367,1.286 1.363,1.275C1.268,1.155 1.16,1.029 1.034,0.891C1.007,0.862 0.975,0.834 0.945,0.808C0.894,0.764 0.841,0.718 0.809,0.662C0.757,0.573 0.68,0.502 0.606,0.433C0.567,0.396 0.526,0.359 0.49,0.319C0.455,0.28 0.42,0.243 0.386,0.204C0.307,0.118 0.226,0.029 0.144,-0.057C0.114,-0.089 0.079,-0.119 0.046,-0.149C-0.01,-0.199 -0.069,-0.25 -0.111,-0.311C-0.16,-0.382 -0.155,-0.464 -0.149,-0.542C-0.146,-0.59 -0.143,-0.641 -0.153,-0.687C-0.155,-0.694 -0.173,-0.705 -0.186,-0.712C-0.191,-0.709 -0.198,-0.703 -0.202,-0.699C-0.234,-0.662 -0.265,-0.624 -0.297,-0.586C-0.347,-0.525 -0.4,-0.461 -0.454,-0.4C-0.585,-0.252 -0.579,-0.071 -0.437,0.05L-0.383,0.096C-0.294,0.174 -0.202,0.253 -0.089,0.313C0.001,0.359 0.074,0.435 0.143,0.507C0.166,0.532 0.189,0.556 0.213,0.578C0.233,0.598 0.219,0.648 0.203,0.668C0.187,0.688 0.144,0.707 0.115,0.701C0.075,0.693 0.039,0.675 0,0.653" style="fill:rgb(190,154,188);fill-rule:nonzero;"/>
            </g>
            <g transform="matrix(1,0,0,1,5.31987,14.2466)">
                <path d="M0,-0.003C-0.124,0.135 -0.253,0.277 -0.4,0.401C-0.462,0.511 -0.555,0.601 -0.645,0.687C-0.705,0.744 -0.767,0.804 -0.818,0.868C-0.839,0.895 -0.837,0.953 -0.824,0.997C-0.82,1.008 -0.774,1.028 -0.738,1.031C-0.558,1.045 -0.389,0.994 -0.224,0.946C-0.184,0.933 -0.143,0.921 -0.103,0.91C0.255,0.812 0.617,0.705 0.967,0.602C1.092,0.564 1.218,0.527 1.343,0.49C1.368,0.483 1.393,0.474 1.41,0.461L1.427,0.449C1.451,0.43 1.482,0.407 1.485,0.387C1.513,0.166 1.503,-0.013 1.36,-0.171C1.321,-0.213 1.288,-0.234 1.258,-0.234C1.234,-0.234 1.21,-0.221 1.185,-0.194C1.062,-0.06 0.909,0.045 0.761,0.146C0.669,0.209 0.573,0.275 0.487,0.347C0.456,0.372 0.403,0.375 0.36,0.377C0.329,0.378 0.291,0.366 0.27,0.347C0.251,0.329 0.264,0.281 0.282,0.265C0.326,0.227 0.369,0.187 0.411,0.147C0.551,0.017 0.695,-0.118 0.878,-0.211C1.003,-0.274 1.042,-0.401 1.069,-0.516C1.081,-0.568 1.048,-0.601 1.009,-0.64C0.991,-0.657 0.973,-0.676 0.959,-0.697C0.879,-0.818 0.782,-0.955 0.629,-1.048C0.596,-0.984 0.602,-0.918 0.608,-0.848C0.61,-0.823 0.612,-0.799 0.612,-0.774C0.614,-0.636 0.57,-0.539 0.468,-0.462C0.291,-0.327 0.143,-0.162 0,-0.003" style="fill:rgb(190,154,188);fill-rule:nonzero;"/>
            </g>
            <g transform="matrix(1,0,0,1,9.88887,11.6256)">
                <path d="M0,2.662C-0.044,2.63 -0.086,2.595 -0.127,2.559C-0.225,2.472 -0.322,2.383 -0.419,2.295C-0.625,2.108 -0.838,1.914 -1.057,1.734C-1.262,1.565 -1.34,1.38 -1.303,1.152C-1.297,1.119 -1.299,1.083 -1.3,1.048C-1.301,1.033 -1.302,1.018 -1.302,1.002C-1.302,0.948 -1.299,0.892 -1.295,0.838C-1.288,0.716 -1.281,0.59 -1.313,0.477C-1.342,0.373 -1.434,0.301 -1.532,0.225C-1.587,0.183 -1.644,0.14 -1.689,0.089C-1.732,0.042 -1.773,-0.009 -1.814,-0.058C-1.847,-0.098 -1.88,-0.139 -1.915,-0.178C-2.037,-0.317 -2.165,-0.373 -2.328,-0.355C-2.444,-0.344 -2.564,-0.346 -2.679,-0.349C-2.731,-0.35 -2.782,-0.351 -2.836,-0.351L-3.116,-0.351C-3.234,-0.35 -3.351,-0.348 -3.468,-0.347C-3.49,-0.346 -3.516,-0.33 -3.53,-0.307C-3.534,-0.3 -3.544,-0.282 -3.534,-0.267C-3.515,-0.239 -3.501,-0.207 -3.487,-0.176C-3.454,-0.102 -3.423,-0.034 -3.333,-0.007C-3.008,0.092 -2.819,0.312 -2.62,0.545L-2.588,0.583C-2.515,0.668 -2.443,0.757 -2.374,0.843C-2.219,1.037 -2.059,1.237 -1.866,1.408C-1.637,1.613 -1.691,1.885 -1.698,2.163C-1.699,2.182 -1.699,2.203 -1.693,2.222C-1.684,2.25 -1.664,2.271 -1.644,2.292C-1.545,2.391 -1.446,2.491 -1.347,2.592C-1.328,2.612 -1.304,2.633 -1.277,2.629C-1.177,2.615 -1.223,2.519 -1.096,2.559C-1.028,2.58 -0.905,2.625 -0.85,2.663C-0.77,2.717 -0.766,2.813 -0.714,2.889C-0.642,2.996 -0.492,3.011 -0.362,3.015C-0.253,3.019 -0.124,3.013 -0.06,2.923C-0.037,2.89 -0.025,2.849 -0.002,2.816C0.035,2.763 0.103,2.734 0.166,2.745C0.229,2.756 0.284,2.805 0.302,2.866C0.311,2.898 0.312,2.932 0.328,2.961C0.359,3.016 0.434,3.025 0.497,3.028C0.574,3.031 0.654,3.035 0.728,3.014C0.803,2.993 0.875,2.945 0.902,2.872C0.914,2.84 0.917,2.805 0.928,2.772C0.97,2.643 1.316,2.411 1.421,2.576C1.445,2.612 1.472,2.656 1.515,2.659C1.544,2.661 1.571,2.641 1.594,2.623C1.692,2.542 1.78,2.449 1.855,2.346C1.876,2.318 1.895,2.288 1.904,2.255C1.913,2.216 1.906,2.176 1.901,2.137C1.864,1.814 2.007,1.471 2.253,1.261C2.412,1.126 2.538,0.964 2.66,0.805C2.781,0.65 2.905,0.49 3.061,0.355C3.169,0.127 3.394,0.043 3.577,-0.004C3.738,-0.046 3.766,-0.088 3.758,-0.271C3.756,-0.326 3.731,-0.349 3.677,-0.349C3.565,-0.35 3.452,-0.35 3.34,-0.35C3.064,-0.35 2.778,-0.35 2.493,-0.353C2.415,-0.353 2.353,-0.326 2.292,-0.265C2.212,-0.183 2.131,-0.102 2.049,-0.02C1.891,0.139 1.727,0.304 1.568,0.467C1.543,0.492 1.526,0.528 1.526,0.557C1.526,0.602 1.524,0.648 1.522,0.692C1.516,0.811 1.51,0.934 1.548,1.04C1.629,1.261 1.561,1.416 1.415,1.608C1.165,1.938 0.83,2.194 0.506,2.441C0.412,2.514 0.314,2.588 0.221,2.663C0.175,2.7 0.051,2.7 0,2.662" style="fill:rgb(74,40,106);fill-rule:nonzero;"/>
            </g>
            <g transform="matrix(1,0,0,1,14.8379,13.2646)">
                <path d="M0,-2.472L-0.008,-2.479C-0.021,-2.49 -0.036,-2.497 -0.052,-2.506C-0.06,-2.51 -0.068,-2.514 -0.075,-2.518C-0.257,-2.625 -0.443,-2.746 -0.534,-2.95C-0.562,-3.016 -0.621,-3.05 -0.703,-3.05L-0.715,-3.05C-0.793,-3.047 -0.872,-3.046 -0.949,-3.046C-1.024,-3.046 -1.102,-3.046 -1.178,-3.043C-1.21,-3.042 -1.231,-3.019 -1.234,-2.983C-1.243,-2.881 -1.243,-2.791 -1.15,-2.72C-1.102,-2.683 -1.055,-2.637 -1.005,-2.579C-0.987,-2.557 -0.996,-2.511 -1.011,-2.491C-1.031,-2.464 -1.074,-2.453 -1.091,-2.449C-1.133,-2.441 -1.165,-2.442 -1.187,-2.453C-1.326,-2.522 -1.454,-2.61 -1.449,-2.783C-1.447,-2.867 -1.45,-2.941 -1.457,-3.008C-1.458,-3.018 -1.483,-3.041 -1.494,-3.042C-1.534,-3.044 -1.576,-3.044 -1.616,-3.043C-1.687,-3.041 -1.763,-3.04 -1.832,-3.057L-1.863,-3.065C-1.955,-3.088 -2.016,-3.104 -2.09,-3.019C-2.254,-2.83 -2.274,-2.825 -2.48,-2.824L-2.498,-2.824C-2.558,-2.824 -2.618,-2.822 -2.678,-2.82C-2.814,-2.817 -2.953,-2.813 -3.089,-2.825C-3.107,-2.826 -3.125,-2.827 -3.141,-2.827C-3.377,-2.827 -3.501,-2.687 -3.601,-2.534C-3.624,-2.498 -3.639,-2.458 -3.655,-2.415C-3.666,-2.387 -3.677,-2.357 -3.691,-2.329L-3.711,-2.289C-3.733,-2.243 -3.76,-2.197 -3.786,-2.151C-3.844,-2.097 -3.922,-2.06 -3.994,-2.09C-4.052,-2.114 -4.086,-2.172 -4.117,-2.226C-4.237,-2.436 -4.357,-2.647 -4.476,-2.857C-4.539,-2.969 -4.634,-3.273 -4.812,-3.191C-4.86,-3.169 -4.891,-3.123 -4.918,-3.079C-5.021,-2.909 -5.111,-2.732 -5.202,-2.556C-5.268,-2.427 -5.325,-2.241 -5.426,-2.139C-5.492,-2.071 -5.602,-2.038 -5.684,-2.084C-5.706,-2.097 -5.725,-2.114 -5.744,-2.131C-5.879,-2.254 -5.986,-2.39 -6.057,-2.559C-6.128,-2.726 -6.267,-2.809 -6.496,-2.818C-6.74,-2.828 -6.981,-2.829 -7.211,-2.821L-7.232,-2.821C-7.358,-2.821 -7.445,-2.861 -7.514,-2.949C-7.588,-3.042 -7.671,-3.074 -7.784,-3.055C-7.851,-3.042 -7.923,-3.044 -7.992,-3.046C-8.021,-3.047 -8.051,-3.047 -8.081,-3.047C-8.132,-3.046 -8.153,-3.025 -8.159,-2.965C-8.162,-2.938 -8.16,-2.911 -8.157,-2.882C-8.153,-2.819 -8.148,-2.754 -8.198,-2.698C-8.27,-2.617 -8.357,-2.546 -8.442,-2.476L-8.466,-2.456C-8.48,-2.445 -8.505,-2.446 -8.521,-2.447C-8.535,-2.448 -8.559,-2.453 -8.57,-2.466C-8.578,-2.478 -8.63,-2.559 -8.6,-2.583C-8.466,-2.686 -8.414,-2.814 -8.441,-2.972C-8.45,-3.026 -8.476,-3.047 -8.53,-3.047L-8.646,-3.047C-8.761,-3.048 -8.878,-3.048 -8.994,-3.047C-9.052,-3.047 -9.081,-3.024 -9.084,-2.975C-9.087,-2.922 -9.09,-2.865 -9.141,-2.825L-9.158,-2.811C-9.245,-2.741 -9.334,-2.669 -9.424,-2.601C-9.456,-2.576 -9.489,-2.553 -9.522,-2.529C-9.564,-2.499 -9.609,-2.468 -9.649,-2.435C-9.686,-2.405 -9.679,-2.361 -9.67,-2.308C-9.663,-2.264 -9.632,-2.246 -9.566,-2.244C-9.309,-2.24 -9.052,-2.242 -8.795,-2.241C-8.343,-2.239 -7.877,-2.239 -7.416,-2.247C-7.334,-2.247 -7.261,-2.227 -7.19,-2.207C-7.117,-2.186 -7.046,-2.167 -6.959,-2.165C-6.935,-2.147 -6.912,-2.128 -6.888,-2.11C-6.838,-2.071 -6.787,-2.031 -6.74,-1.988C-6.723,-1.971 -6.706,-1.956 -6.688,-1.94C-6.599,-1.859 -6.507,-1.775 -6.443,-1.667C-6.401,-1.595 -6.316,-1.539 -6.239,-1.491C-6.1,-1.406 -6.037,-1.29 -6.039,-1.128L-6.04,-1.062C-6.043,-0.885 -6.046,-0.701 -6.038,-0.521C-6.029,-0.344 -5.932,-0.141 -5.78,-0.043C-5.769,-0.036 -5.757,-0.029 -5.744,-0.03C-5.729,-0.031 -5.716,-0.041 -5.705,-0.051C-5.596,-0.147 -5.495,-0.251 -5.402,-0.362C-5.393,-0.373 -5.384,-0.385 -5.38,-0.399C-5.371,-0.427 -5.384,-0.456 -5.393,-0.484C-5.401,-0.512 -5.401,-0.549 -5.377,-0.564C-5.357,-0.576 -5.331,-0.568 -5.314,-0.553C-5.298,-0.538 -5.289,-0.516 -5.281,-0.495C-5.266,-0.458 -5.25,-0.421 -5.235,-0.384C-5.231,-0.373 -5.227,-0.363 -5.228,-0.351C-5.228,-0.339 -5.234,-0.329 -5.241,-0.319C-5.318,-0.187 -5.399,-0.052 -5.524,0.037C-5.553,0.058 -5.588,0.079 -5.601,0.113C-5.635,0.196 -5.294,0.474 -5.23,0.533C-5.137,0.618 -4.942,0.793 -4.807,0.798C-4.75,0.801 -4.701,0.76 -4.659,0.722C-4.551,0.626 -4.444,0.529 -4.336,0.432C-4.262,0.365 -4.112,0.281 -4.06,0.199C-4.039,0.167 -4.045,0.124 -4.062,0.089C-4.079,0.055 -4.107,0.028 -4.131,-0.001C-4.191,-0.072 -4.236,-0.153 -4.265,-0.241C-4.278,-0.281 -4.287,-0.322 -4.282,-0.364C-4.275,-0.428 -4.235,-0.482 -4.197,-0.534C-4.181,-0.555 -4.164,-0.578 -4.139,-0.588C-4.114,-0.598 -4.08,-0.591 -4.071,-0.566C-4.06,-0.537 -4.086,-0.509 -4.102,-0.484C-4.151,-0.4 -4.102,-0.296 -4.054,-0.213C-4.02,-0.153 -3.986,-0.094 -3.951,-0.034C-3.944,-0.022 -3.936,-0.009 -3.925,-0C-3.788,0.104 -3.628,-0.396 -3.633,-0.477C-3.639,-0.577 -3.637,-0.678 -3.636,-0.776C-3.635,-0.865 -3.633,-0.956 -3.637,-1.046C-3.645,-1.185 -3.593,-1.308 -3.476,-1.432C-3.445,-1.464 -3.411,-1.493 -3.378,-1.521C-3.351,-1.544 -3.323,-1.568 -3.297,-1.594C-3.25,-1.641 -3.198,-1.687 -3.148,-1.732C-3.033,-1.835 -2.915,-1.941 -2.834,-2.073C-2.808,-2.115 -2.743,-2.161 -2.688,-2.164C-2.6,-2.17 -2.512,-2.188 -2.427,-2.205C-2.314,-2.229 -2.196,-2.252 -2.073,-2.249C-1.729,-2.235 -1.378,-2.237 -1.039,-2.24C-0.907,-2.241 -0.775,-2.242 -0.643,-2.242C-0.464,-2.242 -0.279,-2.242 -0.097,-2.244C-0.034,-2.246 0.052,-2.312 0.061,-2.368C0.069,-2.413 0.036,-2.442 0,-2.472" style="fill:rgb(190,154,188);fill-rule:nonzero;"/>
            </g>
        </g>
    </g>
</svg>
