<?xml version="1.0" encoding="UTF-8" standalone="no"?>
<!DOCTYPE svg PUBLIC "-//W3C//DTD SVG 1.1//EN" "http://www.w3.org/Graphics/SVG/1.1/DTD/svg11.dtd">
<svg width="100%" height="100%" viewBox="0 0 20 20" version="1.1" xmlns="http://www.w3.org/2000/svg" xmlns:xlink="http://www.w3.org/1999/xlink" xml:space="preserve" xmlns:serif="http://www.serif.com/" style="fill-rule:evenodd;clip-rule:evenodd;stroke-linejoin:round;stroke-miterlimit:2;">
    <g transform="matrix(1.03009,0,0,1.03009,-0.300909,-9.05782)">
        <g id="Kharja">
            <g transform="matrix(1,0,0,1,13.6734,17.991)">
                <path d="M0,-1.649C-0.078,-1.649 -0.142,-1.608 -0.209,-1.565C-0.24,-1.546 -0.271,-1.526 -0.303,-1.51L-0.392,-1.467C-0.835,-1.252 -1.292,-1.029 -1.739,-0.803C-1.764,-0.79 -1.79,-0.778 -1.816,-0.767C-1.903,-0.728 -1.985,-0.692 -2.04,-0.614C-2.048,-0.602 -2.057,-0.591 -2.067,-0.579C-2.087,-0.555 -2.108,-0.531 -2.11,-0.509C-2.12,-0.364 -2.118,-0.218 -2.114,-0.094C-2.113,-0.083 -2.086,-0.055 -2.072,-0.054C-2.008,-0.045 -1.943,-0.043 -1.853,-0.04C-1.816,-0.039 -1.773,-0.037 -1.726,-0.035C-1.653,-0.024 -1.407,0 -1.209,-0.196C-0.985,-0.417 -0.721,-0.588 -0.467,-0.753C-0.404,-0.793 -0.343,-0.834 -0.281,-0.875C-0.183,-0.94 -0.093,-1.022 -0.007,-1.102L0,-1.108C0.031,-1.136 0.062,-1.179 0.062,-1.209C0.061,-1.253 0.064,-1.297 0.067,-1.34C0.074,-1.446 0.081,-1.547 0.04,-1.646C0.026,-1.648 0.013,-1.649 0,-1.649M-0.775,-0.742L-0.791,-0.741C-0.798,-0.741 -0.805,-0.74 -0.812,-0.74L-0.825,-0.74L-0.837,-0.741L-1.064,-0.742C-1.102,-0.745 -1.173,-0.75 -1.244,-0.761C-1.277,-0.767 -1.3,-0.822 -1.301,-0.85C-1.303,-0.876 -1.284,-0.941 -1.252,-0.944C-1.088,-0.96 -0.943,-0.969 -0.805,-0.973C-0.736,-0.972 -0.682,-0.957 -0.654,-0.922C-0.634,-0.899 -0.628,-0.869 -0.635,-0.836C-0.655,-0.751 -0.722,-0.746 -0.775,-0.742" style="fill:rgb(196,135,72);fill-rule:nonzero;"/>
            </g>
            <g transform="matrix(1,0,0,1,9.55241,14.265)">
                <path d="M0,-1.611L0,-1.883C0,-1.913 -0.002,-1.943 -0.004,-1.974C-0.006,-1.999 -0.021,-2.019 -0.036,-2.028C-0.042,-2.032 -0.054,-2.037 -0.066,-2.031L-0.079,-2.025C-0.096,-2.017 -0.121,-2.005 -0.125,-1.994C-0.301,-1.532 -0.301,-1.532 -0.639,-1.219L-0.651,-1.207C-0.704,-1.159 -0.759,-1.109 -0.786,-1.049L-0.814,-0.99C-0.931,-0.74 -1.052,-0.482 -1.145,-0.219C-1.198,-0.067 -1.196,0.043 -1.139,0.116C-1.09,0.177 -0.99,0.218 -0.913,0.23C-0.787,0.25 -0.678,0.306 -0.573,0.359C-0.544,0.373 -0.516,0.388 -0.487,0.402C-0.46,0.414 -0.421,0.426 -0.395,0.412C-0.37,0.398 -0.362,0.362 -0.36,0.335C-0.352,0.238 -0.335,0.141 -0.318,0.048C-0.29,-0.108 -0.262,-0.268 -0.276,-0.431C-0.295,-0.635 -0.287,-0.845 -0.107,-1.001C-0.097,-1.01 -0.093,-1.034 -0.09,-1.057C-0.087,-1.079 -0.084,-1.102 -0.074,-1.122C0.007,-1.291 0.008,-1.472 0,-1.611" style="fill:rgb(190,75,84);fill-rule:nonzero;"/>
            </g>
            <g transform="matrix(1,0,0,1,14.3044,16.698)">
                <path d="M0,-1.82C0.003,-1.954 0.007,-2.092 -0.005,-2.226C-0.008,-2.257 -0.005,-2.289 -0.003,-2.32C0.001,-2.369 0.005,-2.416 -0.012,-2.449C-0.114,-2.646 -0.101,-2.854 -0.088,-3.054L-0.086,-3.094C-0.075,-3.279 -0.108,-3.462 -0.139,-3.639C-0.168,-3.803 -0.198,-3.973 -0.194,-4.144C-0.195,-4.152 -0.221,-4.175 -0.24,-4.18C-0.262,-4.187 -0.295,-4.182 -0.307,-4.172C-0.35,-4.136 -0.397,-4.093 -0.423,-4.043C-0.532,-3.839 -0.621,-3.604 -0.698,-3.326C-0.781,-3.022 -0.951,-2.816 -1.216,-2.7C-1.311,-2.657 -1.404,-2.604 -1.494,-2.552C-1.529,-2.531 -1.563,-2.511 -1.598,-2.491C-1.577,-2.445 -1.555,-2.4 -1.534,-2.352C-1.477,-2.23 -1.418,-2.102 -1.363,-1.975C-1.321,-1.878 -1.297,-1.774 -1.274,-1.674C-1.25,-1.571 -1.226,-1.465 -1.182,-1.366C-1.125,-1.24 -1.157,-1.096 -1.261,-1C-1.314,-0.953 -1.402,-0.923 -1.449,-0.959C-1.503,-1 -1.51,-1.068 -1.486,-1.11C-1.414,-1.236 -1.447,-1.359 -1.487,-1.474C-1.571,-1.717 -1.672,-2.003 -1.78,-2.286C-1.8,-2.34 -1.863,-2.348 -1.913,-2.333C-1.967,-2.316 -2.02,-2.29 -2.071,-2.264C-2.087,-2.256 -2.102,-2.249 -2.118,-2.241C-2.416,-2.097 -2.416,-2.097 -2.291,-1.814C-2.207,-1.623 -2.12,-1.422 -2.042,-1.221C-2.006,-1.126 -1.994,-1.047 -2.007,-0.987C-2.046,-0.807 -2.123,-0.676 -2.24,-0.587C-2.266,-0.567 -2.314,-0.559 -2.345,-0.571C-2.403,-0.592 -2.431,-0.641 -2.42,-0.699C-2.418,-0.712 -2.416,-0.725 -2.415,-0.738C-2.411,-0.779 -2.406,-0.82 -2.379,-0.841C-2.192,-0.983 -2.266,-1.128 -2.351,-1.297C-2.363,-1.32 -2.375,-1.343 -2.387,-1.366C-2.445,-1.476 -2.505,-1.59 -2.526,-1.724C-2.537,-1.792 -2.584,-1.858 -2.63,-1.922C-2.647,-1.946 -2.663,-1.969 -2.678,-1.992C-2.688,-2.007 -2.713,-2.018 -2.734,-2.026C-2.736,-2.024 -2.738,-2.022 -2.739,-2.021C-2.746,-2.015 -2.754,-2.009 -2.763,-2.005C-2.889,-1.951 -3.015,-1.898 -3.141,-1.845C-3.267,-1.792 -3.393,-1.739 -3.519,-1.685C-3.605,-1.648 -3.657,-1.587 -3.678,-1.497C-3.692,-1.436 -3.714,-1.375 -3.733,-1.322C-3.777,-1.197 -3.851,-1.121 -3.957,-1.09C-3.96,-1.089 -3.964,-1.085 -3.969,-1.082C-3.976,-1.076 -3.985,-1.068 -3.997,-1.066C-4.128,-1.036 -4.152,-0.957 -4.15,-0.812C-4.145,-0.235 -4.146,0.352 -4.147,0.919L-4.148,1.42C-4.148,1.538 -4.149,1.644 -4.153,1.746C-4.154,1.776 -4.168,1.805 -4.193,1.827C-4.224,1.854 -4.264,1.865 -4.309,1.862C-4.343,1.857 -4.45,1.846 -4.455,1.739C-4.46,1.63 -4.46,1.518 -4.46,1.41L-4.46,1.366C-4.461,0.607 -4.461,-0.152 -4.461,-0.912C-4.461,-0.975 -4.473,-1.015 -4.533,-1.034C-4.752,-1.099 -4.841,-1.284 -4.918,-1.484C-4.979,-1.64 -5.072,-1.737 -5.181,-1.759C-5.294,-1.782 -5.397,-1.831 -5.496,-1.878C-5.599,-1.927 -5.705,-1.978 -5.821,-1.997L-5.842,-2.001C-5.891,-2.012 -5.897,-2.011 -5.927,-1.96C-6.027,-1.788 -6.101,-1.602 -6.174,-1.422C-6.223,-1.297 -6.275,-1.168 -6.335,-1.045C-6.352,-1.008 -6.342,-0.995 -6.324,-0.97C-6.32,-0.964 -6.315,-0.957 -6.31,-0.95C-6.256,-0.863 -6.199,-0.77 -6.144,-0.676C-6.13,-0.652 -6.13,-0.625 -6.144,-0.603C-6.159,-0.577 -6.19,-0.564 -6.223,-0.564L-6.244,-0.565C-6.291,-0.566 -6.344,-0.566 -6.367,-0.596C-6.455,-0.708 -6.539,-0.819 -6.596,-0.941C-6.637,-1.028 -6.597,-1.102 -6.558,-1.174C-6.536,-1.214 -6.513,-1.256 -6.507,-1.298C-6.498,-1.368 -6.467,-1.434 -6.438,-1.498C-6.429,-1.518 -6.42,-1.539 -6.411,-1.559C-6.326,-1.761 -6.249,-1.939 -6.176,-2.103C-6.169,-2.118 -6.17,-2.128 -6.172,-2.131C-6.174,-2.134 -6.181,-2.137 -6.19,-2.137C-6.301,-2.142 -6.395,-2.19 -6.485,-2.237C-6.517,-2.254 -6.548,-2.27 -6.58,-2.284C-6.656,-2.318 -6.707,-2.327 -6.745,-2.312C-6.782,-2.297 -6.812,-2.26 -6.841,-2.194L-6.881,-2.1C-6.944,-1.953 -7.009,-1.802 -7.061,-1.646C-7.134,-1.426 -7.163,-1.238 -7.069,-1.04C-7.057,-1.014 -7.056,-0.993 -7.065,-0.975C-7.08,-0.948 -7.117,-0.943 -7.146,-0.939L-7.157,-0.937C-7.203,-0.931 -7.238,-0.934 -7.261,-0.948C-7.379,-1.021 -7.486,-1.258 -7.423,-1.373C-7.352,-1.509 -7.31,-1.661 -7.269,-1.807C-7.21,-2.022 -7.148,-2.244 -6.992,-2.425C-6.986,-2.432 -6.984,-2.445 -6.986,-2.458C-6.99,-2.475 -7.001,-2.498 -7.025,-2.511L-7.055,-2.527C-7.11,-2.558 -7.168,-2.59 -7.227,-2.612C-7.623,-2.759 -7.86,-3.036 -7.952,-3.457C-7.958,-3.484 -7.966,-3.509 -7.973,-3.536C-7.987,-3.582 -8.001,-3.63 -8.005,-3.68C-8.017,-3.81 -8.08,-3.915 -8.147,-4.027C-8.175,-4.073 -8.203,-4.12 -8.227,-4.168C-8.233,-4.177 -8.28,-4.181 -8.301,-4.183C-8.314,-4.184 -8.327,-4.185 -8.338,-4.187C-8.359,-4.19 -8.378,-4.186 -8.392,-4.174C-8.405,-4.164 -8.413,-4.149 -8.415,-4.134L-8.421,-4.072C-8.432,-3.955 -8.443,-3.835 -8.427,-3.721C-8.413,-3.626 -8.443,-3.544 -8.471,-3.464C-8.495,-3.4 -8.516,-3.339 -8.517,-3.271L-8.518,-3.144C-8.521,-2.794 -8.524,-2.433 -8.594,-2.075C-8.632,-1.883 -8.626,-1.678 -8.621,-1.48C-8.619,-1.372 -8.616,-1.26 -8.62,-1.151C-8.624,-1.039 -8.585,-0.96 -8.492,-0.894C-8.48,-0.884 -8.468,-0.876 -8.456,-0.867C-8.42,-0.84 -8.383,-0.812 -8.344,-0.792C-8.241,-0.74 -8.137,-0.685 -8.037,-0.631C-7.793,-0.501 -7.54,-0.367 -7.279,-0.268C-7.009,-0.165 -6.749,-0.033 -6.497,0.094C-6.268,0.21 -6.032,0.329 -5.79,0.426C-5.734,0.449 -5.655,0.514 -5.652,0.571C-5.65,0.64 -5.625,0.703 -5.599,0.769C-5.569,0.845 -5.537,0.925 -5.543,1.015C-5.544,1.036 -5.546,1.057 -5.548,1.078C-5.556,1.183 -5.565,1.293 -5.526,1.372C-5.454,1.514 -5.454,1.657 -5.454,1.796C-5.454,1.853 -5.454,1.911 -5.449,1.969C-5.443,2.027 -5.443,2.086 -5.443,2.143C-5.443,2.178 -5.442,2.213 -5.441,2.248C-5.438,2.349 -5.42,2.367 -5.325,2.368C-4.863,2.369 -4.256,2.37 -3.652,2.367C-3.546,2.366 -3.439,2.361 -3.335,2.356C-3.291,2.353 -3.248,2.351 -3.204,2.349C-3.151,2.257 -3.156,2.158 -3.161,2.054C-3.164,1.994 -3.168,1.933 -3.159,1.872C-3.156,1.856 -3.158,1.837 -3.16,1.819C-3.162,1.786 -3.164,1.753 -3.148,1.726C-3.062,1.587 -3.067,1.43 -3.073,1.278L-3.074,1.244C-3.077,1.151 -3.05,1.066 -3.024,0.984C-2.994,0.891 -2.967,0.803 -2.978,0.707C-2.998,0.532 -2.87,0.453 -2.772,0.409C-2.65,0.355 -2.529,0.291 -2.412,0.23C-2.249,0.145 -2.08,0.057 -1.906,-0.01C-1.577,-0.136 -1.258,-0.298 -0.949,-0.455C-0.751,-0.555 -0.546,-0.659 -0.34,-0.752C-0.197,-0.817 -0.081,-0.905 0.015,-1.023C0.02,-1.029 0.025,-1.034 0.03,-1.04C0.055,-1.068 0.07,-1.086 0.06,-1.119C-0.011,-1.351 -0.006,-1.589 0,-1.82" style="fill:rgb(103,51,90);fill-rule:nonzero;"/>
            </g>
            <g transform="matrix(1,0,0,1,7.79641,12.856)">
                <path d="M0,-0.177C0.001,-0.203 0.002,-0.235 -0.008,-0.261C-0.043,-0.356 -0.075,-0.455 -0.106,-0.551C-0.185,-0.793 -0.267,-1.044 -0.406,-1.266C-0.409,-1.27 -0.42,-1.276 -0.424,-1.277C-0.463,-1.273 -0.479,-1.269 -0.485,-1.267L-0.492,-1.231C-0.507,-1.142 -0.523,-1.051 -0.52,-0.962C-0.513,-0.7 -0.608,-0.482 -0.811,-0.298C-0.939,-0.181 -1.065,-0.058 -1.186,0.062L-1.211,0.087C-1.24,0.115 -1.251,0.138 -1.228,0.179C-1.198,0.23 -1.187,0.291 -1.177,0.35L-1.175,0.358C-1.136,0.579 -1.065,0.793 -0.814,0.866C-0.73,0.89 -0.665,0.941 -0.603,0.99C-0.556,1.026 -0.513,1.06 -0.462,1.084C-0.431,1.099 -0.381,1.1 -0.34,1.088C-0.329,1.084 -0.321,1.08 -0.319,1.076C-0.316,1.068 -0.324,1.051 -0.33,1.037C-0.334,1.029 -0.338,1.02 -0.341,1.012C-0.409,0.812 -0.388,0.614 -0.278,0.423L-0.259,0.39C-0.204,0.296 -0.149,0.198 -0.079,0.113C-0.015,0.035 -0.001,-0.048 0,-0.148L0,-0.177" style="fill:rgb(158,54,35);fill-rule:nonzero;"/>
            </g>
            <g transform="matrix(1,0,0,1,8.45441,21.719)">
                <path d="M0,0.706L0.011,0.706C1.109,0.693 2.197,0.697 3.117,0.704L3.123,0.704C3.271,0.704 3.372,0.659 3.461,0.553C3.5,0.506 3.507,0.483 3.474,0.423C3.41,0.303 3.326,0.202 3.217,0.113C3.202,0.101 3.182,0.098 3.163,0.103C3.137,0.11 3.116,0.131 3.106,0.159C3.104,0.164 3.104,0.17 3.103,0.177C3.102,0.186 3.101,0.195 3.098,0.204C3.024,0.416 2.993,0.457 2.804,0.461C2.684,0.464 2.563,0.463 2.445,0.462C2.379,0.462 2.314,0.462 2.247,0.461L2.245,0.461C2.15,0.461 2.058,0.443 2.019,0.312C1.995,0.232 1.947,0.155 1.894,0.077C1.873,0.045 1.831,0.008 1.801,0.007C1.632,0 1.462,0 1.294,0.008C1.27,0.009 1.236,0.036 1.2,0.08C1.179,0.106 1.166,0.141 1.155,0.176L1.148,0.195C1.063,0.431 1.029,0.459 0.813,0.462C0.702,0.464 0.59,0.463 0.482,0.462C0.407,0.461 0.333,0.461 0.256,0.461C0.163,0.461 0.108,0.419 0.073,0.321C0.053,0.268 0.02,0.219 -0.014,0.166C-0.026,0.148 -0.039,0.129 -0.051,0.11L-0.418,0.475C-0.312,0.638 -0.189,0.706 0,0.706" style="fill:rgb(196,135,72);fill-rule:nonzero;"/>
            </g>
            <g transform="matrix(1,0,0,1,12.4434,21.652)">
                <path d="M0,-0.181C-0.053,-0.234 -0.107,-0.289 -0.159,-0.346C-0.254,-0.452 -0.36,-0.499 -0.5,-0.499L-0.507,-0.499C-0.971,-0.494 -1.443,-0.494 -1.9,-0.495C-2.063,-0.495 -2.226,-0.496 -2.39,-0.496L-2.41,-0.495L-2.909,-0.494C-3.408,-0.495 -3.907,-0.494 -4.405,-0.496L-4.408,-0.496C-4.531,-0.496 -4.612,-0.464 -4.68,-0.391C-4.733,-0.332 -4.79,-0.276 -4.845,-0.222C-4.877,-0.19 -4.909,-0.158 -4.941,-0.125C-5.004,-0.062 -4.979,-0.02 -4.955,0.006C-4.869,0.099 -4.798,0.173 -4.73,0.238C-4.678,0.287 -4.637,0.311 -4.6,0.311L-4.594,0.311C-4.554,0.308 -4.512,0.277 -4.462,0.214L-4.44,0.186C-4.391,0.123 -4.34,0.059 -4.282,0.002C-4.167,-0.108 -3.951,-0.105 -3.836,0.011C-3.769,0.079 -3.706,0.148 -3.675,0.246C-3.661,0.291 -3.612,0.297 -3.589,0.297L-3.587,0.297C-3.489,0.296 -3.392,0.298 -3.297,0.299L-3.259,0.3C-3.194,0.3 -3.143,0.266 -3.095,0.189C-3.081,0.168 -3.072,0.143 -3.062,0.117C-3.05,0.085 -3.038,0.052 -3.016,0.024C-2.93,-0.085 -2.829,-0.184 -2.649,-0.169C-2.525,-0.158 -2.397,-0.159 -2.274,-0.161L-2.094,-0.161C-1.917,-0.159 -1.853,-0.037 -1.818,0.07C-1.743,0.298 -1.734,0.298 -1.52,0.3C-1.453,0.3 -1.385,0.299 -1.318,0.298L-1.289,0.297C-1.227,0.296 -1.187,0.252 -1.157,0.209C-1.145,0.193 -1.139,0.172 -1.132,0.15C-1.125,0.128 -1.119,0.104 -1.106,0.084C-1.048,-0.007 -0.958,-0.067 -0.858,-0.08C-0.764,-0.091 -0.672,-0.063 -0.599,0.004C-0.545,0.054 -0.492,0.109 -0.441,0.161C-0.407,0.197 -0.372,0.233 -0.337,0.267C-0.289,0.314 -0.244,0.318 -0.203,0.281C-0.117,0.201 -0.028,0.114 0.059,0.021C0.12,-0.044 0.093,-0.086 0.068,-0.112C0.045,-0.135 0.023,-0.158 0,-0.181" style="fill:rgb(113,104,133);fill-rule:nonzero;"/>
            </g>
            <g transform="matrix(1,0,0,1,13.5084,20.773)">
                <path d="M0,0.236C-0.042,0.277 -0.084,0.32 -0.126,0.362L-0.196,0.433L-1.309,1.55C-1.329,1.571 -1.35,1.592 -1.37,1.613C-1.393,1.636 -1.416,1.659 -1.439,1.682C-1.492,1.735 -1.506,1.805 -1.477,1.873C-1.397,2.06 -1.311,2.215 -1.079,2.215C-1.064,2.215 -1.049,2.214 -1.033,2.213C-1.018,2.212 -1.004,2.211 -0.99,2.211C-0.785,2.211 -0.599,2.332 -0.489,2.542C-0.423,2.664 -0.335,2.759 -0.241,2.86C-0.214,2.889 -0.187,2.918 -0.161,2.948C0.022,2.791 0.134,2.588 0.241,2.391C0.268,2.342 0.295,2.293 0.323,2.245C0.434,2.054 0.532,1.852 0.627,1.656C0.65,1.609 0.673,1.562 0.696,1.515C0.726,1.455 0.753,1.392 0.779,1.331C0.824,1.226 0.87,1.118 0.932,1.02C0.968,0.962 0.973,0.897 0.979,0.827C0.985,0.746 0.991,0.662 1.053,0.593C0.971,0.458 0.978,0.312 0.985,0.172C0.989,0.103 0.992,0.033 0.985,-0.035C0.979,-0.095 0.983,-0.159 0.987,-0.221C0.992,-0.319 0.998,-0.411 0.966,-0.488C0.904,-0.635 0.901,-0.781 0.898,-0.921C0.897,-0.96 0.897,-0.998 0.895,-1.037C0.892,-1.101 0.895,-1.168 0.898,-1.233C0.904,-1.359 0.909,-1.478 0.872,-1.584C0.815,-1.749 0.81,-1.912 0.805,-2.07C0.803,-2.121 0.802,-2.172 0.798,-2.224C0.791,-2.334 0.79,-2.445 0.789,-2.554L0.789,-2.596C0.788,-2.655 0.76,-2.683 0.693,-2.691C0.528,-2.712 0.509,-2.693 0.436,-2.544C0.403,-2.475 0.385,-2.41 0.377,-2.333C0.371,-2.281 0.37,-2.228 0.368,-2.177C0.364,-2.064 0.361,-1.947 0.318,-1.829C0.281,-1.728 0.279,-1.611 0.278,-1.497C0.277,-1.443 0.276,-1.387 0.271,-1.333C0.269,-1.307 0.263,-1.268 0.244,-1.238C0.191,-1.154 0.191,-1.063 0.191,-0.968C0.191,-0.91 0.191,-0.851 0.179,-0.794C0.169,-0.748 0.157,-0.702 0.145,-0.657C0.113,-0.54 0.084,-0.429 0.093,-0.309C0.097,-0.25 0.095,-0.191 0.094,-0.134C0.092,-0.084 0.091,-0.033 0.093,0.017C0.098,0.101 0.069,0.168 0,0.236" style="fill:rgb(158,54,35);fill-rule:nonzero;"/>
            </g>
            <g transform="matrix(1,0,0,1,10.8044,12.589)">
                <path d="M0,1.769C0.001,1.812 0.001,1.856 0.002,1.9C0.002,1.941 0.003,1.985 0.007,2.038C0.008,2.063 0.023,2.084 0.045,2.095C0.067,2.106 0.091,2.104 0.111,2.091C0.227,2.013 0.356,1.969 0.481,1.926C0.528,1.911 0.574,1.895 0.619,1.878C0.818,1.801 0.841,1.779 0.801,1.561C0.781,1.453 0.743,1.346 0.706,1.243C0.683,1.178 0.659,1.11 0.64,1.044C0.563,0.778 0.459,0.602 0.302,0.473C0.023,0.245 -0.152,-0.016 -0.231,-0.325C-0.232,-0.328 -0.237,-0.333 -0.242,-0.337C-0.244,-0.335 -0.246,-0.334 -0.248,-0.332C-0.256,-0.325 -0.272,-0.312 -0.272,-0.307C-0.276,-0.214 -0.276,-0.12 -0.275,-0.029L-0.275,0.085L-0.281,0.085C-0.281,0.102 -0.28,0.119 -0.28,0.137C-0.279,0.189 -0.277,0.245 -0.283,0.299C-0.298,0.452 -0.262,0.601 -0.169,0.769C-0.045,0.996 0.011,1.214 0.001,1.436C-0.003,1.546 -0.002,1.659 0,1.769" style="fill:rgb(190,75,84);fill-rule:nonzero;"/>
            </g>
            <g transform="matrix(1,0,0,1,14.5284,14.01)">
                <path d="M0,0.674C0,0.708 -0.001,0.743 0.001,0.776C0.002,0.796 0.003,0.818 0.004,0.838L0.005,0.868C0.009,0.935 0.036,0.965 0.094,0.966L0.247,0.966L0.324,0.965C0.386,0.965 0.447,0.966 0.51,0.966C0.555,0.966 0.6,0.966 0.645,0.963C0.68,0.961 0.703,0.934 0.707,0.891C0.73,0.665 0.677,0.444 0.556,0.252C0.429,0.05 0.234,-0.105 0.046,-0.256L0.004,-0.29C0.001,-0.292 -0.013,-0.292 -0.038,-0.285C-0.064,-0.277 -0.079,-0.265 -0.081,-0.261C-0.078,-0.076 -0.074,0.111 -0.069,0.298L-0.068,0.371C0.003,0.466 0.002,0.572 0,0.674" style="fill:rgb(196,135,72);fill-rule:nonzero;"/>
            </g>
            <g transform="matrix(1,0,0,1,17.6614,14.454)">
                <path d="M0,-1.776C-0.003,-1.789 -0.005,-1.802 -0.011,-1.81C-0.036,-1.845 -0.066,-1.877 -0.094,-1.907C-0.102,-1.916 -0.11,-1.924 -0.118,-1.933C-0.127,-1.924 -0.136,-1.917 -0.146,-1.909C-0.177,-1.884 -0.207,-1.861 -0.218,-1.833C-0.313,-1.586 -0.478,-1.4 -0.64,-1.231C-0.676,-1.193 -0.706,-1.147 -0.736,-1.103C-0.773,-1.046 -0.812,-0.987 -0.865,-0.942C-1.122,-0.725 -1.219,-0.435 -1.183,-0.002C-1.181,0.013 -1.181,0.029 -1.18,0.044C-1.179,0.06 -1.178,0.075 -1.177,0.09C-1.176,0.104 -1.166,0.12 -1.149,0.132C-1.124,0.15 -1.09,0.157 -1.062,0.151C-1.017,0.139 -0.972,0.125 -0.934,0.112C-0.65,0.017 -0.38,-0.121 -0.118,-0.254L-0.029,-0.299C0.129,-0.38 0.204,-0.452 0.176,-0.625C0.165,-0.689 0.168,-0.755 0.171,-0.82C0.172,-0.848 0.173,-0.876 0.173,-0.905L0.173,-0.925L0.176,-0.925C0.176,-0.933 0.176,-0.941 0.175,-0.948C0.174,-0.981 0.172,-1.014 0.178,-1.047C0.219,-1.3 0.167,-1.522 0.018,-1.725C0.007,-1.74 0.003,-1.759 0,-1.776" style="fill:rgb(158,54,35);fill-rule:nonzero;"/>
            </g>
            <g transform="matrix(1,0,0,1,12.5754,11.789)">
                <path d="M0,1.897C0.011,1.931 0.005,1.968 0,2.004C-0.008,2.058 -0.014,2.104 0.028,2.136C0.082,2.175 0.118,2.153 0.177,2.107C0.214,2.079 0.252,2.05 0.3,2.046C0.32,2.045 0.342,2.024 0.365,2.001C0.389,1.977 0.412,1.954 0.442,1.943C0.677,1.857 0.756,1.66 0.803,1.478C0.817,1.424 0.839,1.368 0.87,1.306C0.897,1.249 0.891,1.203 0.85,1.162C0.773,1.086 0.695,1.01 0.617,0.935C0.562,0.883 0.507,0.83 0.453,0.776C0.28,0.609 0.166,0.357 0.154,0.12C0.151,0.068 0.149,0.015 0.148,-0.038C0.145,-0.107 0.143,-0.179 0.138,-0.249C0.137,-0.256 0.12,-0.269 0.108,-0.278C0.102,-0.274 0.094,-0.267 0.09,-0.262C-0.06,-0.081 -0.139,0.141 -0.214,0.356C-0.227,0.393 -0.239,0.429 -0.253,0.465C-0.422,0.935 -0.428,0.98 -0.158,1.375C-0.038,1.549 0.03,1.697 0,1.897" style="fill:rgb(158,54,35);fill-rule:nonzero;"/>
            </g>
            <g transform="matrix(1,0,0,1,16.4714,11.088)">
                <path d="M0,2.362C0.049,2.295 0.111,2.226 0.188,2.152C0.249,2.095 0.249,2.028 0.249,1.951C0.25,1.937 0.25,1.922 0.25,1.908C0.252,1.861 0.23,1.821 0.206,1.778C0.178,1.725 0.148,1.671 0.161,1.6C0.178,1.493 0.144,1.396 0.106,1.293C0.091,1.252 0.076,1.21 0.064,1.167C0,0.928 -0.09,0.745 -0.214,0.607C-0.487,0.303 -0.758,0.065 -1.041,-0.122C-1.093,-0.156 -1.148,-0.187 -1.202,-0.217C-1.294,-0.268 -1.389,-0.321 -1.468,-0.391C-1.543,-0.458 -1.605,-0.541 -1.664,-0.622C-1.703,-0.676 -1.744,-0.731 -1.788,-0.781C-1.862,-0.862 -1.893,-0.947 -1.888,-1.047C-1.878,-1.238 -1.915,-1.398 -2.002,-1.535C-2.098,-1.422 -2.127,-1.279 -2.154,-1.139C-2.167,-1.071 -2.181,-1.001 -2.203,-0.935C-2.242,-0.812 -2.235,-0.669 -2.227,-0.531C-2.223,-0.468 -2.22,-0.403 -2.221,-0.341C-2.221,-0.279 -2.202,-0.229 -2.16,-0.189C-1.972,-0.008 -1.842,0.217 -1.717,0.434C-1.647,0.557 -1.573,0.683 -1.49,0.8C-1.431,0.885 -1.368,0.985 -1.377,1.111C-1.382,1.19 -1.38,1.272 -1.377,1.353C-1.373,1.49 -1.369,1.63 -1.403,1.762C-1.45,1.943 -1.461,2.118 -1.473,2.303L-1.476,2.346C-1.487,2.532 -1.483,2.697 -1.309,2.82C-1.191,2.904 -1.142,3.046 -1.106,3.186C-1.097,3.22 -1.082,3.253 -1.067,3.284C-1.05,3.321 -1.033,3.36 -1.026,3.4C-1.011,3.486 -1.008,3.575 -1.005,3.661C-1.004,3.712 -1.002,3.766 -0.997,3.818C-0.994,3.859 -0.968,3.884 -0.929,3.885C-0.91,3.886 -0.892,3.887 -0.873,3.889C-0.828,3.893 -0.786,3.897 -0.752,3.884C-0.625,3.834 -0.49,3.77 -0.343,3.689C-0.322,3.676 -0.303,3.626 -0.3,3.589C-0.294,3.485 -0.288,3.374 -0.302,3.267C-0.318,3.139 -0.282,3.019 -0.248,2.904C-0.226,2.83 -0.204,2.755 -0.195,2.679C-0.185,2.591 -0.12,2.51 -0.056,2.433C-0.037,2.409 -0.017,2.386 0,2.362" style="fill:rgb(190,75,84);fill-rule:nonzero;"/>
            </g>
            <g transform="matrix(1,0,0,1,17.3024,22.112)">
                <path d="M0,-2.626C-0.015,-2.614 -0.032,-2.602 -0.049,-2.59C-0.093,-2.559 -0.138,-2.526 -0.167,-2.485C-0.238,-2.384 -0.341,-2.361 -0.439,-2.338C-0.491,-2.327 -0.541,-2.316 -0.585,-2.294C-0.695,-2.241 -0.823,-2.249 -0.956,-2.317C-1.009,-2.344 -1.065,-2.358 -1.121,-2.358C-1.213,-2.358 -1.309,-2.322 -1.41,-2.251L-1.424,-2.241C-1.615,-2.106 -1.813,-1.966 -2.022,-1.85C-2.07,-1.823 -2.124,-1.769 -2.11,-1.662C-2.109,-1.65 -2.111,-1.637 -2.112,-1.624C-2.116,-1.598 -2.121,-1.565 -2.109,-1.548C-2.045,-1.444 -2.035,-1.327 -2.026,-1.214C-2.017,-1.097 -2.008,-0.987 -1.943,-0.891L-1.939,-0.885L-1.94,-0.877C-1.951,-0.757 -1.92,-0.644 -1.887,-0.524C-1.854,-0.407 -1.82,-0.285 -1.833,-0.157C-1.838,-0.099 -1.799,-0.061 -1.757,-0.02C-1.744,-0.008 -1.733,-0.001 -1.724,0.002C-1.724,0.002 -1.722,-0 -1.72,-0.001C-1.718,-0.011 -1.715,-0.021 -1.713,-0.031C-1.704,-0.063 -1.696,-0.095 -1.7,-0.123C-1.741,-0.382 -1.573,-0.564 -1.423,-0.693C-1.397,-0.715 -1.372,-0.737 -1.347,-0.759C-1.213,-0.877 -1.075,-0.998 -0.899,-1.07C-0.684,-1.157 -0.488,-1.298 -0.318,-1.49C-0.242,-1.574 -0.15,-1.679 -0.131,-1.787C-0.102,-1.945 -0.061,-2.103 -0.022,-2.255C0.005,-2.361 0.034,-2.47 0.057,-2.579C0.057,-2.589 0.028,-2.617 0.019,-2.627C0.017,-2.628 0.004,-2.628 0,-2.626" style="fill:rgb(158,54,35);fill-rule:nonzero;"/>
            </g>
            <g transform="matrix(1,0,0,1,19.6054,21.244)">
                <path d="M0,-7.874C-0.057,-7.91 -0.123,-7.942 -0.202,-7.973C-0.363,-8.035 -0.418,-8.019 -0.485,-7.885C-0.584,-7.685 -0.735,-7.515 -0.946,-7.365C-0.996,-7.329 -1.054,-7.305 -1.11,-7.281C-1.197,-7.244 -1.279,-7.209 -1.333,-7.139C-1.405,-7.045 -1.501,-7.013 -1.594,-6.983C-1.643,-6.966 -1.69,-6.951 -1.733,-6.926C-1.763,-6.91 -1.784,-6.884 -1.788,-6.858C-1.79,-6.842 -1.786,-6.829 -1.775,-6.818C-1.615,-6.648 -1.5,-6.445 -1.39,-6.249L-1.365,-6.204C-1.352,-6.182 -1.352,-6.153 -1.366,-6.124C-1.386,-6.082 -1.427,-6.049 -1.469,-6.042C-1.518,-6.034 -1.584,-6.039 -1.621,-6.069C-1.638,-6.082 -1.647,-6.101 -1.648,-6.122C-1.653,-6.263 -1.735,-6.352 -1.823,-6.445L-1.84,-6.463C-2.067,-6.707 -2.067,-6.707 -2.393,-6.596C-2.428,-6.584 -2.452,-6.563 -2.461,-6.539C-2.468,-6.521 -2.466,-6.503 -2.456,-6.486C-2.443,-6.465 -2.431,-6.444 -2.418,-6.423C-2.377,-6.352 -2.336,-6.28 -2.283,-6.219C-2.203,-6.126 -2.154,-6.017 -2.106,-5.911C-2.085,-5.865 -2.064,-5.819 -2.041,-5.774C-2.01,-5.716 -2.001,-5.637 -2.017,-5.583C-2.044,-5.495 -2.095,-5.415 -2.145,-5.338C-2.162,-5.312 -2.203,-5.312 -2.239,-5.311L-2.248,-5.311C-2.27,-5.311 -2.298,-5.335 -2.302,-5.356C-2.304,-5.371 -2.307,-5.385 -2.31,-5.399C-2.32,-5.447 -2.331,-5.495 -2.321,-5.541C-2.28,-5.742 -2.358,-5.901 -2.489,-6.077C-2.513,-6.109 -2.54,-6.139 -2.567,-6.168C-2.622,-6.229 -2.679,-6.292 -2.711,-6.378C-2.717,-6.393 -2.729,-6.405 -2.746,-6.412C-2.773,-6.425 -2.815,-6.424 -2.849,-6.411C-2.91,-6.387 -2.972,-6.363 -3.034,-6.341C-3.238,-6.264 -3.449,-6.186 -3.641,-6.071C-3.775,-5.991 -3.909,-5.953 -4.051,-5.953C-4.063,-5.953 -4.075,-5.953 -4.087,-5.954C-4.304,-5.964 -4.525,-5.961 -4.74,-5.957C-4.816,-5.956 -4.892,-5.955 -4.969,-5.954C-4.984,-5.954 -5.021,-5.954 -5.027,-5.945C-5.035,-5.935 -5.027,-5.893 -5.023,-5.872C-4.947,-5.498 -5.012,-5.356 -5.339,-5.185C-5.362,-5.173 -5.386,-5.162 -5.41,-5.152C-5.441,-5.137 -5.473,-5.123 -5.502,-5.106C-5.593,-5.052 -5.633,-4.99 -5.631,-4.903C-5.629,-4.826 -5.63,-4.749 -5.631,-4.675C-5.632,-4.582 -5.633,-4.486 -5.629,-4.392C-5.624,-4.275 -5.67,-4.182 -5.775,-4.098C-5.803,-4.076 -5.834,-4.057 -5.864,-4.038C-5.885,-4.025 -5.907,-4.011 -5.928,-3.996C-6.028,-3.926 -6.134,-3.86 -6.236,-3.795C-6.439,-3.669 -6.648,-3.538 -6.823,-3.363C-6.968,-3.216 -7.11,-3.12 -7.243,-3.078C-7.357,-3.043 -7.483,-3.05 -7.606,-3.055C-7.654,-3.058 -7.703,-3.061 -7.75,-3.061L-7.78,-3.061C-7.819,-3.061 -7.857,-3.061 -7.896,-3.062C-7.943,-3.063 -7.99,-3.064 -8.035,-3.063C-8.115,-3.063 -8.14,-3.046 -8.146,-2.938C-8.155,-2.755 -8.171,-2.6 -8.216,-2.439C-8.256,-2.293 -8.286,-2.083 -8.202,-1.906C-8.164,-1.827 -8.192,-1.765 -8.216,-1.711C-8.233,-1.674 -8.248,-1.64 -8.246,-1.601C-8.237,-1.507 -8.321,-1.484 -8.382,-1.467C-8.398,-1.462 -8.414,-1.458 -8.427,-1.453C-8.544,-1.405 -8.638,-1.321 -8.73,-1.24C-8.819,-1.161 -8.91,-1.079 -9.024,-1.028C-9.094,-0.996 -9.159,-0.947 -9.222,-0.899C-9.255,-0.874 -9.289,-0.848 -9.325,-0.824C-9.423,-0.759 -9.457,-0.668 -9.44,-0.519C-9.429,-0.421 -9.406,-0.398 -9.32,-0.398C-9.138,-0.397 -8.958,-0.397 -8.778,-0.397C-8.523,-0.398 -8.271,-0.397 -8.018,-0.396C-7.999,-0.395 -7.976,-0.396 -7.955,-0.397C-7.855,-0.399 -7.751,-0.401 -7.648,-0.341C-7.615,-0.322 -7.587,-0.318 -7.565,-0.33C-7.542,-0.344 -7.528,-0.377 -7.528,-0.421C-7.526,-0.597 -7.525,-0.773 -7.525,-0.95C-7.525,-1.052 -7.524,-1.155 -7.524,-1.257C-7.524,-1.275 -7.525,-1.293 -7.527,-1.312C-7.53,-1.36 -7.534,-1.409 -7.514,-1.449C-7.501,-1.476 -7.488,-1.502 -7.475,-1.529C-7.361,-1.764 -7.243,-2.007 -7.013,-2.167C-7,-2.175 -6.977,-2.18 -6.955,-2.18C-6.931,-2.18 -6.908,-2.174 -6.898,-2.161C-6.874,-2.127 -6.864,-2.085 -6.854,-2.044L-6.852,-2.033C-6.848,-2.016 -6.86,-2.001 -6.871,-1.988C-6.874,-1.985 -6.877,-1.981 -6.879,-1.978C-6.912,-1.932 -6.95,-1.887 -6.987,-1.843C-7.067,-1.745 -7.151,-1.644 -7.186,-1.532C-7.227,-1.402 -7.223,-1.253 -7.219,-1.109C-7.218,-1.053 -7.216,-0.996 -7.217,-0.94C-7.219,-0.845 -7.219,-0.75 -7.219,-0.655C-7.218,-0.564 -7.218,-0.473 -7.219,-0.382C-7.221,-0.313 -7.204,-0.254 -7.161,-0.177C-7.109,-0.084 -7.046,-0.002 -6.97,0.074C-6.885,0.158 -6.84,0.161 -6.765,0.088C-6.733,0.057 -6.701,0.024 -6.67,-0.008C-6.616,-0.065 -6.56,-0.124 -6.5,-0.174C-6.313,-0.33 -6.268,-0.546 -6.236,-0.771C-6.231,-0.805 -6.233,-0.843 -6.235,-0.88C-6.238,-0.94 -6.241,-1.003 -6.215,-1.054C-6.151,-1.175 -6.128,-1.31 -6.141,-1.49C-6.147,-1.586 -6.12,-1.672 -6.092,-1.756C-6.068,-1.833 -6.045,-1.905 -6.046,-1.984C-6.049,-2.132 -6.019,-2.276 -5.99,-2.417C-5.958,-2.571 -5.925,-2.73 -5.936,-2.892C-5.94,-2.959 -5.913,-3.026 -5.887,-3.09C-5.872,-3.127 -5.856,-3.165 -5.847,-3.202C-5.819,-3.317 -5.717,-3.415 -5.576,-3.464C-5.471,-3.501 -5.349,-3.482 -5.249,-3.415C-5.149,-3.348 -5.086,-3.242 -5.079,-3.133C-5.071,-2.993 -5.069,-2.851 -5.067,-2.714C-5.066,-2.654 -5.065,-2.593 -5.064,-2.533C-4.972,-2.362 -4.976,-2.18 -4.979,-2.004C-4.981,-1.923 -4.983,-1.839 -4.975,-1.758C-4.972,-1.723 -4.971,-1.687 -4.97,-1.653C-4.969,-1.626 -4.969,-1.599 -4.967,-1.572C-4.966,-1.556 -4.949,-1.539 -4.925,-1.529C-4.903,-1.52 -4.873,-1.518 -4.857,-1.533C-4.668,-1.708 -4.444,-1.838 -4.229,-1.963C-4.1,-2.038 -3.966,-2.116 -3.842,-2.202C-3.901,-2.285 -3.958,-2.371 -4.014,-2.454C-4.17,-2.689 -4.332,-2.932 -4.554,-3.123C-4.603,-3.165 -4.64,-3.237 -4.643,-3.295C-4.652,-3.518 -4.647,-3.745 -4.643,-3.945C-4.643,-3.974 -4.611,-3.996 -4.572,-4.019C-4.553,-4.031 -4.521,-4.029 -4.489,-4.012C-4.463,-3.998 -4.434,-3.973 -4.433,-3.944C-4.431,-3.917 -4.429,-3.89 -4.427,-3.863C-4.421,-3.782 -4.415,-3.699 -4.419,-3.617C-4.427,-3.424 -4.364,-3.267 -4.225,-3.138C-4.044,-2.969 -3.907,-2.764 -3.774,-2.565C-3.738,-2.512 -3.703,-2.459 -3.666,-2.407C-3.65,-2.384 -3.626,-2.371 -3.598,-2.37L-3.596,-2.37C-3.561,-2.37 -3.527,-2.388 -3.504,-2.418L-3.495,-2.43C-3.47,-2.461 -3.445,-2.493 -3.44,-2.524C-3.434,-2.561 -3.435,-2.6 -3.435,-2.64C-3.436,-2.678 -3.437,-2.717 -3.431,-2.756C-3.404,-2.96 -3.464,-3.106 -3.621,-3.218C-3.688,-3.266 -3.722,-3.323 -3.72,-3.387L-3.719,-3.465C-3.716,-3.591 -3.714,-3.723 -3.706,-3.852C-3.704,-3.881 -3.671,-3.901 -3.641,-3.92L-3.634,-3.924C-3.615,-3.937 -3.584,-3.935 -3.555,-3.92C-3.53,-3.907 -3.5,-3.879 -3.499,-3.846C-3.498,-3.806 -3.498,-3.766 -3.497,-3.726C-3.497,-3.659 -3.497,-3.59 -3.492,-3.522C-3.489,-3.474 -3.475,-3.432 -3.455,-3.409C-3.363,-3.304 -3.192,-3.27 -3.065,-3.332C-3.035,-3.347 -3.006,-3.364 -2.978,-3.381C-2.927,-3.411 -2.875,-3.442 -2.818,-3.458C-2.721,-3.486 -2.685,-3.537 -2.688,-3.639C-2.689,-3.677 -2.688,-3.716 -2.688,-3.754C-2.686,-3.823 -2.685,-3.894 -2.696,-3.961C-2.733,-4.188 -2.651,-4.366 -2.451,-4.492C-2.22,-4.638 -2.026,-4.832 -1.838,-5.019C-1.77,-5.088 -1.699,-5.159 -1.627,-5.227C-1.56,-5.29 -1.487,-5.345 -1.415,-5.399C-1.389,-5.417 -1.364,-5.436 -1.339,-5.456C-1.281,-5.5 -1.224,-5.543 -1.166,-5.586C-0.92,-5.769 -0.666,-5.958 -0.466,-6.202C-0.401,-6.282 -0.323,-6.361 -0.235,-6.435C-0.029,-6.611 0.046,-6.772 0.015,-6.976C0.008,-7.023 -0.002,-7.087 0.024,-7.127C0.102,-7.247 0.099,-7.374 0.096,-7.509C0.095,-7.574 0.093,-7.641 0.101,-7.707C0.11,-7.773 0.078,-7.826 0,-7.874" style="fill:rgb(113,104,133);fill-rule:nonzero;"/>
            </g>
            <g transform="matrix(1,0,0,1,6.68841,18.079)">
                <path d="M0,5.644C0.026,5.643 0.05,5.626 0.07,5.595C0.103,5.543 0.134,5.489 0.165,5.436C0.203,5.373 0.242,5.307 0.283,5.244C0.429,5.024 0.625,4.908 0.869,4.899C0.884,4.899 0.899,4.898 0.914,4.898C0.96,4.897 1.007,4.897 1.05,4.888C1.095,4.879 1.16,4.812 1.215,4.718C1.275,4.615 1.306,4.508 1.29,4.46C1.284,4.438 1.272,4.407 1.254,4.387C1.201,4.329 1.144,4.272 1.089,4.217L0.79,3.916C0.466,3.59 0.142,3.264 -0.184,2.939C-0.258,2.864 -0.291,2.785 -0.289,2.679C-0.288,2.635 -0.287,2.591 -0.285,2.546C-0.279,2.375 -0.273,2.199 -0.312,2.037C-0.318,2.013 -0.324,1.988 -0.331,1.963C-0.361,1.84 -0.393,1.714 -0.384,1.585C-0.379,1.505 -0.404,1.429 -0.427,1.356C-0.449,1.287 -0.472,1.216 -0.471,1.141C-0.468,0.996 -0.499,0.853 -0.528,0.713C-0.565,0.543 -0.602,0.367 -0.581,0.185C-0.579,0.173 -0.582,0.159 -0.584,0.146C-0.601,0.071 -0.709,0 -0.805,0L-0.813,0C-0.822,0.004 -0.832,0.006 -0.842,0.009C-0.854,0.012 -0.874,0.017 -0.878,0.022C-0.89,0.059 -0.908,0.096 -0.926,0.131C-0.962,0.203 -0.995,0.27 -0.992,0.353C-0.989,0.429 -0.992,0.505 -0.996,0.58C-1,0.672 -1.004,0.769 -0.996,0.861C-0.986,0.967 -1.013,1.063 -1.039,1.156C-1.057,1.225 -1.075,1.289 -1.08,1.357C-1.088,1.488 -1.091,1.623 -1.093,1.752C-1.099,2.029 -1.105,2.314 -1.168,2.596C-1.205,2.762 -1.198,2.942 -1.192,3.116C-1.19,3.186 -1.187,3.26 -1.187,3.332L-1.188,3.361C-1.188,3.428 -1.189,3.497 -1.166,3.552C-1.138,3.62 -1.112,3.691 -1.087,3.76C-1.026,3.929 -0.963,4.105 -0.852,4.25C-0.771,4.358 -0.711,4.476 -0.653,4.591C-0.629,4.637 -0.605,4.684 -0.581,4.729C-0.531,4.82 -0.485,4.914 -0.439,5.004C-0.391,5.101 -0.341,5.201 -0.288,5.297C-0.228,5.405 -0.15,5.507 -0.082,5.595C-0.057,5.628 -0.026,5.644 0,5.644" style="fill:rgb(158,54,35);fill-rule:nonzero;"/>
            </g>
            <g transform="matrix(1,0,0,1,19.0824,18.596)">
                <path d="M0,-1.992C-0.112,-1.995 -0.219,-1.999 -0.32,-1.918C-0.437,-1.825 -0.561,-1.737 -0.681,-1.653C-0.781,-1.582 -0.885,-1.509 -0.983,-1.433C-1.072,-1.365 -1.164,-1.352 -1.249,-1.345C-1.418,-1.332 -1.565,-1.365 -1.701,-1.447C-1.711,-1.453 -1.722,-1.458 -1.732,-1.463C-1.749,-1.47 -1.767,-1.479 -1.783,-1.491C-1.815,-1.518 -1.84,-1.515 -1.871,-1.485C-1.912,-1.445 -1.956,-1.388 -1.931,-1.35C-1.857,-1.236 -1.857,-1.115 -1.857,-0.998L-1.857,-0.939C-1.856,-0.856 -1.901,-0.798 -1.935,-0.762C-1.999,-0.694 -2.064,-0.631 -2.161,-0.594C-2.234,-0.566 -2.305,-0.528 -2.374,-0.491C-2.424,-0.464 -2.475,-0.437 -2.528,-0.413C-2.583,-0.388 -2.596,-0.348 -2.6,-0.283C-2.601,-0.262 -2.6,-0.241 -2.6,-0.22L-2.6,-0.211L-2.598,-0.191C-2.598,-0.177 -2.598,-0.163 -2.599,-0.148C-2.6,-0.116 -2.602,-0.086 -2.596,-0.057C-2.591,-0.029 -2.576,-0.004 -2.561,0.003C-2.556,0.005 -2.548,0.007 -2.535,-0.001C-2.441,-0.062 -2.338,-0.069 -2.238,-0.076C-2.17,-0.081 -2.106,-0.085 -2.047,-0.106C-1.891,-0.16 -1.742,-0.169 -1.585,-0.177L-1.5,-0.183C-1.422,-0.188 -1.342,-0.193 -1.264,-0.182C-1.125,-0.159 -1.009,-0.226 -0.893,-0.3C-0.698,-0.423 -0.567,-0.612 -0.49,-0.874L-0.485,-0.894C-0.391,-1.218 -0.294,-1.553 -0.075,-1.83C-0.06,-1.849 -0.044,-1.867 -0.029,-1.886C-0.007,-1.912 0.015,-1.937 0.034,-1.964C0.029,-1.974 0.017,-1.99 0.011,-1.992L0,-1.992Z" style="fill:rgb(190,75,84);fill-rule:nonzero;"/>
            </g>
            <g transform="matrix(1,0,0,1,5.58641,14.875)">
                <path d="M0,-5.223L-0.03,-5.3C-0.034,-5.31 -0.042,-5.32 -0.052,-5.328L-0.058,-5.328C-0.071,-5.316 -0.074,-5.31 -0.074,-5.309C-0.07,-5.197 -0.101,-5.088 -0.131,-4.984C-0.159,-4.886 -0.188,-4.785 -0.186,-4.682L-0.186,-4.675L-0.191,-4.669C-0.238,-4.609 -0.283,-4.545 -0.326,-4.482C-0.455,-4.294 -0.588,-4.1 -0.827,-4.01C-0.972,-3.955 -1.088,-3.851 -1.194,-3.75C-1.255,-3.691 -1.326,-3.634 -1.41,-3.576C-1.813,-3.293 -1.959,-3.094 -2.089,-2.646C-2.098,-2.612 -2.109,-2.578 -2.119,-2.544C-2.168,-2.378 -2.22,-2.207 -2.227,-2.03C-2.229,-1.983 -2.252,-1.941 -2.273,-1.9C-2.304,-1.842 -2.33,-1.793 -2.302,-1.737C-2.27,-1.674 -2.219,-1.617 -2.169,-1.563C-2.147,-1.539 -2.125,-1.514 -2.104,-1.49C-2.096,-1.48 -2.087,-1.471 -2.078,-1.463C-2.065,-1.45 -2.051,-1.436 -2.04,-1.421C-1.893,-1.207 -1.728,-0.964 -1.756,-0.651C-1.764,-0.558 -1.762,-0.461 -1.76,-0.368C-1.76,-0.324 -1.759,-0.279 -1.759,-0.235C-1.759,-0.158 -1.753,-0.105 -1.667,-0.08C-1.581,-0.054 -1.494,-0.011 -1.416,0.045C-1.337,0.103 -1.251,0.105 -1.165,0.103C-1.092,0.1 -1.062,0.077 -1.058,0.022L-1.056,-0.001C-1.053,-0.038 -1.05,-0.077 -1.053,-0.114C-1.06,-0.209 -1.029,-0.296 -0.998,-0.381C-0.966,-0.47 -0.935,-0.555 -0.949,-0.649L-0.95,-0.657L-0.945,-0.663C-0.921,-0.698 -0.899,-0.735 -0.877,-0.771C-0.827,-0.854 -0.775,-0.938 -0.705,-1.004C-0.605,-1.098 -0.568,-1.2 -0.579,-1.359C-0.584,-1.43 -0.585,-1.503 -0.586,-1.574C-0.586,-1.64 -0.587,-1.709 -0.591,-1.777C-0.594,-1.822 -0.592,-1.868 -0.591,-1.913C-0.588,-2.037 -0.584,-2.154 -0.664,-2.258L-0.668,-2.263L-0.668,-2.269C-0.687,-2.525 -0.675,-2.739 -0.56,-2.949C-0.376,-3.283 -0.168,-3.607 0.059,-3.913C0.139,-4.02 0.172,-4.117 0.168,-4.238C0.167,-4.28 0.167,-4.321 0.167,-4.374L0.167,-4.464C0.203,-4.715 0.104,-4.962 0,-5.223" style="fill:rgb(190,75,84);fill-rule:nonzero;"/>
            </g>
            <g transform="matrix(1,0,0,1,5.50841,14.972)">
                <path d="M0,-1.228C-0.192,-1.143 -0.362,-1.001 -0.519,-0.795C-0.648,-0.625 -0.698,-0.405 -0.735,-0.212C-0.751,-0.125 -0.761,-0.06 -0.734,-0.028C-0.711,-0.001 -0.654,0.009 -0.547,0.008C-0.421,0.006 -0.274,0.003 -0.129,0.006L-0.127,0.006C-0.082,0.006 -0.049,-0.021 -0.048,-0.047C-0.042,-0.165 -0.016,-0.279 0.01,-0.389C0.043,-0.537 0.075,-0.676 0.053,-0.8L0.053,-0.944C0.053,-1.037 0.053,-1.112 0.052,-1.186C0.052,-1.209 0.047,-1.226 0.038,-1.232C0.03,-1.237 0.017,-1.236 0,-1.228" style="fill:rgb(196,135,72);fill-rule:nonzero;"/>
            </g>
            <g transform="matrix(1,0,0,1,6.42041,17.371)">
                <path d="M0,-0.397C0.082,-0.337 0.17,-0.275 0.263,-0.221C0.517,-0.077 0.785,0.085 1.004,0.32C1.215,0.545 1.43,0.625 1.683,0.573C1.714,0.572 1.74,0.573 1.767,0.574C1.831,0.575 1.898,0.577 1.961,0.569C1.992,0.566 2.026,0.537 2.055,0.512L2.064,0.505C2.084,0.488 2.103,0.463 2.07,0.416C2.021,0.349 2.024,0.274 2.027,0.202C2.027,0.18 2.028,0.157 2.027,0.136C2.024,0.039 1.993,-0.007 1.902,-0.051C1.432,-0.279 0.96,-0.518 0.502,-0.749C0.33,-0.836 0.159,-0.923 -0.013,-1.009C-0.03,-1.017 -0.043,-1.022 -0.054,-1.022C-0.058,-1.022 -0.062,-1.021 -0.065,-1.019C-0.072,-1.014 -0.083,-1 -0.084,-0.949L-0.084,-0.801C-0.083,-0.728 -0.082,-0.653 -0.085,-0.579C-0.088,-0.501 -0.06,-0.441 0,-0.397M0.592,-0.325C0.804,-0.375 0.994,-0.372 1.173,-0.317C1.204,-0.307 1.215,-0.243 1.21,-0.218C1.206,-0.192 1.18,-0.139 1.146,-0.135C1.081,-0.126 1.013,-0.123 0.942,-0.12C0.915,-0.118 0.887,-0.117 0.859,-0.116C0.838,-0.117 0.82,-0.118 0.801,-0.12C0.74,-0.125 0.67,-0.13 0.602,-0.141C0.577,-0.146 0.564,-0.178 0.551,-0.21L0.546,-0.223C0.535,-0.247 0.535,-0.271 0.545,-0.29C0.554,-0.308 0.571,-0.32 0.592,-0.325" style="fill:rgb(196,135,72);fill-rule:nonzero;"/>
            </g>
            <g transform="matrix(1,0,0,1,16.0824,23.493)">
                <path d="M0,0.53C-0.133,-0.106 -0.211,-0.299 -0.519,-0.761C-0.529,-0.777 -0.543,-0.791 -0.558,-0.806C-0.576,-0.825 -0.595,-0.846 -0.608,-0.87C-0.626,-0.902 -0.644,-0.934 -0.663,-0.966C-0.764,-1.145 -0.869,-1.33 -0.856,-1.561C-0.853,-1.606 -0.873,-1.653 -0.893,-1.703C-0.908,-1.739 -0.924,-1.776 -0.931,-1.814C-0.94,-1.857 -0.94,-1.902 -0.941,-1.945C-0.943,-2.013 -0.944,-2.076 -0.971,-2.125C-1.015,-2.206 -1.016,-2.29 -1.018,-2.372C-1.019,-2.445 -1.02,-2.514 -1.052,-2.573C-1.12,-2.695 -1.12,-2.818 -1.12,-2.937C-1.12,-2.984 -1.12,-3.031 -1.125,-3.078C-1.129,-3.127 -1.13,-3.177 -1.13,-3.225L-1.131,-3.265C-1.132,-3.337 -1.168,-3.394 -1.238,-3.435C-1.24,-3.435 -1.244,-3.436 -1.253,-3.432C-1.296,-3.409 -1.359,-3.318 -1.363,-3.261C-1.365,-3.228 -1.366,-3.199 -1.364,-3.171C-1.358,-3.096 -1.359,-3.019 -1.36,-2.945C-1.364,-2.772 -1.367,-2.609 -1.28,-2.445C-1.162,-1.972 -1.466,-1.366 -1.681,-0.966C-1.825,-0.697 -1.99,-0.441 -2.146,-0.18C-2.247,-0.012 -2.401,0.467 -2.595,0.539C-2.798,0.616 -2.978,0.281 -3.092,0.151C-3.25,-0.027 -3.424,-0.197 -3.662,-0.255C-3.7,-0.264 -3.737,-0.273 -3.774,-0.283C-3.855,-0.307 -3.947,-0.303 -4.035,-0.298C-4.109,-0.295 -4.18,-0.295 -4.252,-0.295C-4.522,-0.295 -4.792,-0.294 -5.062,-0.294C-5.158,-0.294 -5.253,-0.294 -5.348,-0.295C-5.412,-0.295 -5.475,-0.304 -5.533,-0.32C-5.566,-0.329 -5.583,-0.387 -5.583,-0.414C-5.583,-0.443 -5.563,-0.493 -5.533,-0.505C-5.484,-0.524 -5.429,-0.526 -5.391,-0.526C-5.26,-0.527 -5.129,-0.527 -4.997,-0.527C-4.88,-0.526 -4.763,-0.526 -4.647,-0.527L-4.568,-0.527C-4.488,-0.527 -4.405,-0.528 -4.326,-0.538C-4.298,-0.541 -4.267,-0.573 -4.24,-0.601L-4.229,-0.613C-4.219,-0.623 -4.214,-0.631 -4.214,-0.639C-4.214,-0.652 -4.229,-0.666 -4.243,-0.68C-4.25,-0.686 -4.256,-0.693 -4.261,-0.699C-4.348,-0.8 -4.436,-0.844 -4.564,-0.844C-4.934,-0.836 -5.311,-0.837 -5.676,-0.839C-5.817,-0.84 -5.958,-0.84 -6.099,-0.84L-6.751,-0.84C-6.833,-0.84 -6.915,-0.839 -6.998,-0.838C-7.191,-0.836 -7.391,-0.833 -7.589,-0.844L-7.611,-0.844C-7.751,-0.844 -7.838,-0.775 -7.924,-0.672C-7.952,-0.638 -7.943,-0.622 -7.91,-0.585C-7.88,-0.551 -7.829,-0.514 -7.764,-0.528C-7.735,-0.535 -7.705,-0.546 -7.677,-0.558C-7.634,-0.575 -7.59,-0.593 -7.545,-0.594C-7.325,-0.602 -7.065,-0.608 -6.799,-0.593C-6.732,-0.59 -6.666,-0.556 -6.604,-0.524C-6.582,-0.513 -6.56,-0.502 -6.539,-0.492C-6.52,-0.483 -6.513,-0.47 -6.511,-0.46C-6.507,-0.439 -6.515,-0.415 -6.539,-0.389C-6.594,-0.323 -6.661,-0.292 -6.756,-0.292C-7.115,-0.296 -7.479,-0.295 -7.833,-0.296L-8.012,-0.296C-8.042,-0.294 -8.072,-0.296 -8.102,-0.297C-8.194,-0.299 -8.29,-0.3 -8.381,-0.284C-8.503,-0.265 -8.645,-0.237 -8.765,-0.174C-8.848,-0.131 -8.928,0.03 -8.98,0.109C-9.074,0.249 -9.152,0.384 -9.275,0.502C-9.302,0.528 -9.331,0.554 -9.367,0.563C-9.44,0.584 -9.513,0.533 -9.568,0.482C-9.904,0.172 -10.085,-0.256 -10.28,-0.659C-10.48,-1.073 -10.686,-1.464 -10.828,-1.903L-10.848,-1.964C-10.884,-2.073 -10.909,-2.173 -10.845,-2.286C-10.826,-2.319 -10.814,-2.364 -10.813,-2.407C-10.808,-2.596 -10.806,-2.784 -10.803,-2.973C-10.802,-3.063 -10.8,-3.154 -10.798,-3.244C-10.798,-3.321 -10.843,-3.371 -10.899,-3.424C-10.918,-3.442 -10.927,-3.443 -10.928,-3.443C-10.928,-3.443 -10.931,-3.441 -10.935,-3.431C-10.947,-3.398 -10.96,-3.366 -10.973,-3.335C-11.013,-3.241 -11.05,-3.153 -11.042,-3.045C-11.03,-2.886 -11.026,-2.72 -11.077,-2.58C-11.118,-2.464 -11.128,-2.355 -11.137,-2.226C-11.141,-2.158 -11.164,-2.096 -11.186,-2.036C-11.21,-1.971 -11.234,-1.903 -11.235,-1.829C-11.236,-1.709 -11.265,-1.59 -11.293,-1.475C-11.315,-1.386 -11.338,-1.293 -11.347,-1.2C-11.355,-1.12 -11.413,-1.048 -11.469,-0.977C-11.494,-0.946 -11.52,-0.914 -11.541,-0.882L-11.572,-0.833C-11.677,-0.669 -11.782,-0.506 -11.885,-0.341C-11.922,-0.281 -11.949,-0.232 -11.97,-0.185C-12.024,-0.058 -12.057,0.08 -12.089,0.212C-12.106,0.282 -12.123,0.354 -12.144,0.423C-12.224,0.701 -12.174,0.899 -11.989,1.028C-11.955,1.053 -11.932,1.092 -11.91,1.129C-11.9,1.146 -11.89,1.164 -11.878,1.18C-11.595,1.573 -11.356,1.822 -10.996,2.1C-10.936,2.146 -10.886,2.17 -10.847,2.17C-10.809,2.17 -10.77,2.173 -10.732,2.176C-10.617,2.184 -10.507,2.191 -10.403,2.131C-10.318,2.081 -10.223,2.084 -10.12,2.14L-10.109,2.145C-10.096,2.152 -10.066,2.168 -10.055,2.168C-9.964,2.108 -9.858,2.093 -9.756,2.078C-9.681,2.067 -9.603,2.056 -9.531,2.026C-9.243,1.907 -9.002,1.704 -8.773,1.386C-8.643,1.206 -8.494,1.055 -8.34,0.904C-8.223,0.79 -8.116,0.724 -8.02,0.708C-7.941,0.696 -7.859,0.678 -7.781,0.66C-7.578,0.615 -7.368,0.568 -7.151,0.609C-7.114,0.616 -7.081,0.639 -7.05,0.662L-7.027,0.678C-6.997,0.699 -6.98,0.733 -6.984,0.765C-6.987,0.79 -7.001,0.809 -7.024,0.818C-7.052,0.828 -7.08,0.841 -7.108,0.854C-7.191,0.892 -7.277,0.931 -7.385,0.914C-7.429,0.906 -7.475,0.91 -7.522,0.914C-7.569,0.917 -7.616,0.92 -7.663,0.914C-7.844,0.887 -7.973,0.974 -8.111,1.067C-8.148,1.092 -8.186,1.117 -8.225,1.14C-8.309,1.296 -8.433,1.417 -8.554,1.534C-8.629,1.607 -8.706,1.682 -8.772,1.764C-8.791,1.788 -8.8,1.818 -8.795,1.845C-8.792,1.859 -8.784,1.878 -8.763,1.891L-8.097,2.271C-7.94,2.197 -7.825,2.068 -7.714,1.944C-7.658,1.881 -7.601,1.816 -7.538,1.759C-7.376,1.611 -7.201,1.61 -7.052,1.627C-7.019,1.631 -6.987,1.653 -6.97,1.683C-6.957,1.706 -6.955,1.732 -6.965,1.754C-6.99,1.806 -7.008,1.839 -7.032,1.835C-7.158,1.823 -7.263,1.889 -7.361,1.955C-7.462,2.025 -7.552,2.119 -7.638,2.21C-7.668,2.241 -7.698,2.273 -7.728,2.303C-7.805,2.38 -7.841,2.423 -7.839,2.454C-7.837,2.484 -7.8,2.517 -7.723,2.576C-7.686,2.604 -7.646,2.631 -7.606,2.657C-7.544,2.698 -7.48,2.74 -7.425,2.792C-7.243,2.963 -7.064,3.033 -6.861,3.012C-6.852,3.011 -6.841,3.011 -6.831,3.011C-6.727,3.011 -6.646,3.069 -6.585,3.186C-6.524,3.303 -6.466,3.423 -6.41,3.539C-6.374,3.613 -6.338,3.687 -6.301,3.761L-6.295,3.774C-6.27,3.823 -6.245,3.873 -6.21,3.913C-6.158,3.973 -6.087,3.965 -6.012,3.956C-5.997,3.954 -5.982,3.953 -5.967,3.952C-5.912,3.948 -5.892,3.914 -5.871,3.844C-5.809,3.634 -5.704,3.44 -5.603,3.252C-5.583,3.214 -5.562,3.176 -5.543,3.138C-5.5,3.059 -5.431,3.014 -5.353,3.014C-5.347,3.014 -5.34,3.014 -5.333,3.015C-5.064,3.041 -4.874,2.971 -4.735,2.793C-4.712,2.765 -4.678,2.75 -4.644,2.735C-4.618,2.725 -4.594,2.714 -4.576,2.699C-4.512,2.643 -4.45,2.581 -4.39,2.521C-4.366,2.498 -4.342,2.473 -4.318,2.449C-4.337,2.375 -4.392,2.329 -4.45,2.28C-4.48,2.256 -4.511,2.229 -4.537,2.199C-4.669,2.043 -4.822,1.893 -5.048,1.844C-5.083,1.836 -5.11,1.807 -5.136,1.779C-5.145,1.771 -5.154,1.761 -5.162,1.754C-5.177,1.74 -5.188,1.719 -5.19,1.701C-5.193,1.683 -5.177,1.654 -5.157,1.648C-4.998,1.603 -4.815,1.579 -4.664,1.73C-4.617,1.776 -4.571,1.822 -4.525,1.868C-4.408,1.984 -4.287,2.104 -4.171,2.224C-4.115,2.28 -4.069,2.284 -3.995,2.239C-3.858,2.156 -3.717,2.075 -3.581,1.996C-3.521,1.962 -3.462,1.927 -3.402,1.893C-3.381,1.881 -3.365,1.857 -3.36,1.834C-3.358,1.822 -3.359,1.811 -3.364,1.806C-3.6,1.518 -3.785,1.302 -3.963,1.105C-4.077,0.98 -4.233,0.916 -4.428,0.916L-4.447,0.916C-4.597,0.919 -4.755,0.921 -4.914,0.907C-4.969,0.902 -5.02,0.863 -5.065,0.83L-5.081,0.818C-5.102,0.803 -5.115,0.771 -5.121,0.725C-5.129,0.665 -5.095,0.624 -5.025,0.61C-4.818,0.568 -4.62,0.611 -4.428,0.654C-4.338,0.674 -4.246,0.693 -4.154,0.705C-4.027,0.72 -3.91,0.821 -3.865,0.863L-3.821,0.906C-3.624,1.092 -3.421,1.286 -3.25,1.5C-2.906,1.934 -2.861,1.962 -2.294,2.103C-2.273,2.108 -2.253,2.114 -2.233,2.12C-2.139,2.146 -2.065,2.168 -1.97,2.11C-1.918,2.078 -1.852,2.101 -1.788,2.123C-1.77,2.129 -1.752,2.136 -1.734,2.141C-1.417,2.229 -1.154,2.164 -0.911,1.934C-0.751,1.783 -0.612,1.609 -0.477,1.441C-0.337,1.266 -0.191,1.085 -0.023,0.929C-0.017,0.923 -0.013,0.908 -0.01,0.895C-0.006,0.879 -0.001,0.862 0.009,0.848C0.068,0.764 0.101,0.702 0.037,0.623C0.016,0.596 0.006,0.559 0,0.53" style="fill:rgb(113,104,133);fill-rule:nonzero;"/>
            </g>
            <g transform="matrix(1,0,0,1,3.51541,13.158)">
                <path d="M0,0.818C0.004,0.723 -0.043,0.653 -0.096,0.584C-0.2,0.445 -0.316,0.311 -0.428,0.182C-0.639,-0.063 -0.858,-0.317 -1.013,-0.613C-1.022,-0.629 -1.036,-0.64 -1.05,-0.64L-1.051,-0.64C-1.063,-0.64 -1.074,-0.633 -1.081,-0.62C-1.105,-0.577 -1.128,-0.532 -1.15,-0.488C-1.189,-0.412 -1.229,-0.333 -1.278,-0.261C-1.376,-0.118 -1.389,0.033 -1.322,0.245C-1.247,0.483 -1.248,0.52 -1.331,0.74C-1.363,0.824 -1.35,0.874 -1.289,0.91C-0.955,1.109 -0.672,1.249 -0.398,1.349L-0.352,1.366C-0.27,1.396 -0.186,1.428 -0.101,1.443C-0.021,1.458 0.025,1.453 0.052,1.429C0.076,1.408 0.085,1.367 0.081,1.31C0.08,1.3 0.08,1.29 0.081,1.275L0.082,1.233C0.105,1.164 0.077,1.094 0.049,1.021C0.023,0.957 -0.003,0.891 0,0.818" style="fill:rgb(158,54,35);fill-rule:nonzero;"/>
            </g>
            <g transform="matrix(1,0,0,1,11.1004,20.061)">
                <path d="M0,-0.537C0.046,-0.554 0.047,-0.604 0.043,-0.674C0.04,-0.735 0.009,-0.761 -0.059,-0.761C-0.313,-0.762 -0.567,-0.762 -0.82,-0.762L-1.711,-0.762C-1.852,-0.762 -1.994,-0.762 -2.136,-0.761C-2.179,-0.761 -2.21,-0.75 -2.228,-0.729C-2.245,-0.709 -2.25,-0.679 -2.243,-0.64C-2.234,-0.589 -2.216,-0.548 -2.198,-0.539C-1.987,-0.43 -1.801,-0.28 -1.622,-0.136L-1.6,-0.118C-1.507,-0.043 -1.401,0.021 -1.299,0.082C-1.247,0.113 -1.195,0.145 -1.144,0.178C-1.093,0.211 -1.051,0.225 -1.002,0.187C-0.955,0.152 -0.909,0.113 -0.864,0.076C-0.757,-0.013 -0.646,-0.105 -0.522,-0.168C-0.437,-0.21 -0.365,-0.275 -0.295,-0.337C-0.208,-0.415 -0.118,-0.495 0,-0.537" style="fill:rgb(190,75,84);fill-rule:nonzero;"/>
            </g>
            <g transform="matrix(1,0,0,1,4.37841,19.818)">
                <path d="M0,1.972C0.011,2.022 0.032,2.069 0.053,2.114C0.075,2.163 0.098,2.214 0.108,2.27C0.112,2.275 0.128,2.282 0.139,2.286C0.143,2.282 0.146,2.277 0.147,2.273C0.137,2.14 0.17,2.011 0.203,1.885C0.234,1.762 0.267,1.636 0.258,1.507L0.257,1.5L0.261,1.493C0.321,1.41 0.327,1.314 0.334,1.212C0.339,1.13 0.344,1.045 0.382,0.968C0.423,0.883 0.426,0.8 0.429,0.713C0.43,0.68 0.431,0.648 0.434,0.615C0.442,0.534 0.394,0.481 0.341,0.437C0.329,0.426 0.316,0.415 0.303,0.403C0.269,0.372 0.237,0.342 0.2,0.328C0.012,0.257 -0.152,0.149 -0.301,-0.004C-0.339,-0.042 -0.389,-0.058 -0.455,-0.053C-0.481,-0.05 -0.508,-0.05 -0.535,-0.049C-0.599,-0.048 -0.666,-0.046 -0.719,-0.022C-0.859,0.04 -0.991,0.044 -1.132,-0.013C-1.169,-0.028 -1.208,-0.039 -1.245,-0.051C-1.353,-0.083 -1.464,-0.117 -1.54,-0.223C-1.559,-0.25 -1.588,-0.272 -1.615,-0.295C-1.623,-0.301 -1.631,-0.307 -1.638,-0.314C-1.638,-0.313 -1.644,-0.312 -1.647,-0.311C-1.657,-0.303 -1.664,-0.293 -1.665,-0.288C-1.667,-0.27 -1.667,-0.25 -1.666,-0.218L-1.666,-0.153L-1.668,-0.144C-1.704,-0.073 -1.672,-0.001 -1.634,0.083C-1.604,0.148 -1.574,0.214 -1.571,0.29C-1.563,0.462 -1.486,0.62 -1.342,0.76C-1.31,0.791 -1.277,0.824 -1.245,0.856C-1.065,1.035 -0.879,1.221 -0.625,1.312C-0.562,1.334 -0.509,1.377 -0.457,1.418C-0.424,1.444 -0.39,1.471 -0.355,1.491C-0.168,1.603 -0.045,1.77 0,1.972" style="fill:rgb(158,54,35);fill-rule:nonzero;"/>
            </g>
            <g transform="matrix(1,0,0,1,1.05141,19.416)">
                <path d="M0,-4.187C0.142,-4.043 0.29,-3.893 0.478,-3.798C0.674,-3.697 0.831,-3.541 0.983,-3.391C1.005,-3.369 1.028,-3.347 1.05,-3.325C1.094,-3.282 1.137,-3.237 1.18,-3.193C1.286,-3.082 1.395,-2.968 1.52,-2.883C1.612,-2.821 1.694,-2.749 1.773,-2.679C1.818,-2.639 1.865,-2.598 1.912,-2.56C2.01,-2.482 2.051,-2.387 2.044,-2.261C2.034,-2.113 2.033,-1.952 2.04,-1.753C2.041,-1.723 2.069,-1.678 2.096,-1.662C2.162,-1.624 2.233,-1.591 2.302,-1.56C2.329,-1.548 2.356,-1.536 2.383,-1.523C2.395,-1.517 2.408,-1.51 2.42,-1.504C2.449,-1.49 2.475,-1.476 2.503,-1.467C2.586,-1.444 2.669,-1.457 2.732,-1.502C2.795,-1.546 2.832,-1.615 2.838,-1.697C2.84,-1.725 2.839,-1.753 2.838,-1.781C2.837,-1.814 2.836,-1.849 2.839,-1.884C2.845,-1.927 2.861,-1.975 2.885,-2.018C2.902,-2.048 2.936,-2.074 2.969,-2.083C2.997,-2.09 3.044,-2.057 3.052,-2.03C3.06,-2.005 3.063,-1.978 3.066,-1.952C3.07,-1.916 3.074,-1.882 3.09,-1.858C3.186,-1.698 3.159,-1.56 3.006,-1.424C2.944,-1.369 2.89,-1.316 2.84,-1.263C2.744,-1.16 2.748,-0.715 2.848,-0.593C2.875,-0.56 2.912,-0.541 2.948,-0.541C2.967,-0.54 2.993,-0.546 3.014,-0.572C3.035,-0.599 3.055,-0.629 3.073,-0.658C3.087,-0.68 3.101,-0.701 3.116,-0.722C3.146,-0.764 3.176,-0.806 3.206,-0.848C3.29,-0.966 3.377,-1.088 3.469,-1.204C3.503,-1.247 3.544,-1.285 3.584,-1.323C3.649,-1.383 3.71,-1.439 3.739,-1.51C3.773,-1.589 3.77,-1.688 3.766,-1.784C3.765,-1.828 3.763,-1.872 3.766,-1.914L3.766,-1.95C3.767,-1.969 3.767,-1.989 3.768,-2.008C3.77,-2.025 3.772,-2.049 3.786,-2.064C3.817,-2.096 3.85,-2.126 3.882,-2.156L3.929,-2.201L3.976,-2.15C4.006,-2.117 4.036,-2.083 4.064,-2.048C4.079,-2.03 4.076,-2.001 4.072,-1.986C4.064,-1.945 4.055,-1.904 4.046,-1.863C4.012,-1.715 3.978,-1.562 3.982,-1.406L3.983,-1.397L3.976,-1.39C3.949,-1.364 3.932,-1.33 3.914,-1.293C3.886,-1.233 3.856,-1.171 3.778,-1.138C3.717,-1.112 3.662,-1.045 3.622,-0.99C3.532,-0.866 3.445,-0.737 3.36,-0.613C3.326,-0.563 3.292,-0.513 3.258,-0.463C3.231,-0.424 3.246,-0.363 3.291,-0.331C3.302,-0.323 3.313,-0.315 3.324,-0.308C3.349,-0.289 3.376,-0.27 3.403,-0.254C3.675,-0.091 3.991,0.106 4.313,0.393C4.314,0.319 4.313,0.25 4.312,0.182C4.309,0.012 4.307,-0.136 4.336,-0.28L4.347,-0.331C4.38,-0.495 4.412,-0.651 4.412,-0.816C4.412,-0.859 4.414,-0.902 4.416,-0.944C4.418,-1.009 4.421,-1.076 4.417,-1.14C4.409,-1.276 4.468,-1.386 4.525,-1.493C4.533,-1.508 4.541,-1.522 4.549,-1.537C4.57,-1.577 4.621,-1.624 4.669,-1.632C4.716,-1.64 4.764,-1.647 4.813,-1.647C4.888,-1.647 4.964,-1.63 5.036,-1.573C5.18,-1.459 5.264,-1.305 5.28,-1.127C5.295,-0.954 5.327,-0.782 5.358,-0.615L5.372,-0.544C5.389,-0.449 5.4,-0.351 5.41,-0.257C5.423,-0.144 5.436,-0.027 5.461,0.087L5.463,0.097C5.503,0.286 5.546,0.482 5.556,0.673C5.561,0.774 5.584,0.871 5.606,0.965C5.628,1.06 5.65,1.158 5.655,1.258C5.663,1.408 5.743,1.521 5.818,1.614C5.888,1.702 5.972,1.782 6.054,1.858C6.084,1.886 6.113,1.914 6.142,1.942C6.182,1.982 6.222,1.978 6.279,1.934C6.301,1.917 6.325,1.897 6.345,1.873C6.378,1.833 6.417,1.797 6.455,1.762C6.53,1.691 6.601,1.625 6.636,1.53C6.657,1.473 6.632,1.422 6.607,1.367C6.586,1.324 6.565,1.279 6.565,1.229L6.565,1.09C6.564,1.052 6.563,1.014 6.563,0.976C6.56,0.891 6.558,0.802 6.566,0.716C6.598,0.379 6.501,0.111 6.271,-0.101C6.24,-0.129 6.214,-0.175 6.199,-0.225C6.19,-0.255 6.21,-0.307 6.238,-0.325C6.314,-0.375 6.429,-0.361 6.474,-0.295C6.49,-0.273 6.507,-0.25 6.523,-0.226C6.577,-0.151 6.633,-0.072 6.678,0.011C6.792,0.218 6.901,0.443 6.874,0.717C6.858,0.883 6.863,1.055 6.869,1.221C6.87,1.284 6.872,1.347 6.873,1.411C6.874,1.451 6.886,1.48 6.906,1.493C6.928,1.506 6.959,1.502 6.996,1.483C7.09,1.435 7.181,1.431 7.273,1.431L7.924,1.431C8.172,1.429 8.44,1.427 8.713,1.422C8.73,1.421 8.758,1.403 8.767,1.386C8.819,1.296 8.78,1.093 8.702,1.034C8.454,0.847 8.199,0.662 7.952,0.483L7.888,0.436C7.854,0.412 7.817,0.388 7.782,0.366C7.742,0.339 7.7,0.312 7.66,0.283C7.602,0.237 7.572,0.177 7.574,0.106L7.575,0.063C7.578,-0.014 7.58,-0.094 7.579,-0.172C7.578,-0.231 7.578,-0.29 7.578,-0.349C7.578,-0.519 7.578,-0.696 7.564,-0.867C7.554,-1 7.518,-1.118 7.464,-1.2C7.425,-1.259 7.359,-1.25 7.282,-1.239C7.247,-1.234 7.209,-1.229 7.175,-1.232C7.099,-1.238 7.022,-1.236 6.947,-1.227C6.689,-1.198 6.466,-1.281 6.267,-1.484C6.071,-1.685 5.833,-1.827 5.603,-1.964L5.594,-1.969C5.442,-2.06 5.285,-2.153 5.138,-2.257C5.016,-2.345 4.961,-2.454 4.973,-2.59C4.98,-2.681 4.978,-2.774 4.977,-2.865C4.975,-2.942 4.974,-3.022 4.978,-3.101C4.984,-3.212 4.944,-3.268 4.825,-3.314L4.795,-3.326C4.676,-3.372 4.541,-3.424 4.46,-3.516C4.38,-3.607 4.391,-3.726 4.401,-3.841C4.405,-3.886 4.409,-3.934 4.407,-3.977C4.402,-4.108 4.383,-4.129 4.276,-4.129C4.06,-4.13 3.843,-4.131 3.625,-4.13L3.346,-4.13C3.325,-4.13 3.304,-4.129 3.283,-4.129C3.224,-4.129 3.166,-4.135 3.114,-4.184C2.973,-4.318 2.802,-4.375 2.593,-4.436C2.521,-4.457 2.449,-4.486 2.381,-4.515C2.338,-4.533 2.296,-4.55 2.253,-4.567C2.137,-4.609 2.115,-4.606 2.026,-4.472C1.99,-4.418 1.951,-4.365 1.913,-4.314C1.879,-4.269 1.845,-4.222 1.813,-4.174L1.797,-4.151C1.686,-3.989 1.59,-3.848 1.724,-3.658C1.735,-3.643 1.733,-3.61 1.72,-3.595L1.708,-3.582C1.681,-3.551 1.653,-3.519 1.618,-3.497C1.587,-3.478 1.533,-3.522 1.521,-3.537L1.512,-3.545C1.482,-3.578 1.447,-3.616 1.44,-3.659C1.393,-3.957 1.447,-4.182 1.612,-4.367C1.683,-4.447 1.745,-4.533 1.808,-4.62C1.816,-4.633 1.818,-4.66 1.811,-4.689C1.803,-4.721 1.787,-4.748 1.772,-4.756C1.728,-4.779 1.681,-4.8 1.636,-4.82L1.608,-4.833C1.475,-4.892 1.44,-4.887 1.341,-4.794C1.174,-4.64 1.058,-4.471 0.986,-4.275C0.97,-4.23 0.87,-4.225 0.85,-4.224L0.848,-4.224C0.815,-4.224 0.785,-4.286 0.781,-4.311C0.769,-4.411 0.765,-4.556 0.885,-4.67C0.938,-4.722 0.99,-4.779 1.04,-4.834L1.075,-4.872C1.129,-4.932 1.151,-4.984 1.14,-5.028C1.128,-5.074 1.079,-5.114 0.998,-5.142C0.981,-5.149 0.958,-5.149 0.936,-5.147C0.891,-5.148 0.838,-5.145 0.816,-5.198C0.764,-5.319 0.661,-5.361 0.552,-5.405C0.524,-5.417 0.495,-5.429 0.467,-5.442C0.194,-5.572 0.002,-5.76 -0.122,-6.02C-0.129,-6.035 -0.135,-6.052 -0.14,-6.07C-0.161,-6.131 -0.176,-6.169 -0.236,-6.169L-0.239,-6.169C-0.328,-6.167 -0.398,-6.158 -0.458,-6.139C-0.52,-6.121 -0.583,-6.091 -0.659,-6.043C-0.731,-5.999 -0.763,-5.943 -0.758,-5.872C-0.755,-5.84 -0.756,-5.806 -0.758,-5.773C-0.76,-5.71 -0.763,-5.649 -0.738,-5.608C-0.663,-5.481 -0.666,-5.351 -0.669,-5.226C-0.67,-5.199 -0.67,-5.173 -0.67,-5.146C-0.669,-4.955 -0.605,-4.798 -0.472,-4.664C-0.406,-4.598 -0.34,-4.531 -0.274,-4.464C-0.198,-4.387 -0.123,-4.311 -0.047,-4.234L0,-4.187Z" style="fill:rgb(113,104,133);fill-rule:nonzero;"/>
            </g>
            <g transform="matrix(1,0,0,1,3.02141,16.724)">
                <path d="M0,1.748C0.094,1.772 0.191,1.799 0.291,1.793L0.296,1.793C0.332,1.793 0.367,1.812 0.401,1.831C0.41,1.836 0.418,1.84 0.426,1.844L0.436,1.849C0.498,1.882 0.529,1.892 0.557,1.845C0.575,1.815 0.581,1.765 0.571,1.729C0.528,1.572 0.481,1.449 0.319,1.403C0.253,1.385 0.192,1.352 0.133,1.319C0.099,1.301 0.063,1.282 0.028,1.266C-0.112,1.203 -0.177,1.103 -0.172,0.96C-0.168,0.881 -0.168,0.801 -0.168,0.723C-0.168,0.662 -0.168,0.603 -0.166,0.542C-0.165,0.471 -0.167,0.372 -0.205,0.352C-0.224,0.341 -0.265,0.343 -0.354,0.406C-0.363,0.413 -0.373,0.416 -0.382,0.419C-0.387,0.421 -0.393,0.422 -0.398,0.425C-0.663,0.58 -0.923,0.562 -1.191,0.37C-1.263,0.317 -1.34,0.267 -1.413,0.218C-1.528,0.142 -1.646,0.063 -1.754,-0.024C-1.871,-0.119 -1.986,-0.144 -2.136,-0.107C-1.871,0.222 -1.739,0.438 -1.622,0.872C-1.586,1.006 -1.526,1.128 -1.469,1.247C-1.456,1.274 -1.443,1.301 -1.43,1.329C-1.356,1.486 -1.239,1.578 -1.063,1.617C-1.027,1.625 -0.992,1.635 -0.956,1.645C-0.877,1.668 -0.802,1.689 -0.719,1.689L-0.713,1.689C-0.546,1.687 -0.371,1.687 -0.199,1.706C-0.132,1.714 -0.065,1.731 0,1.748" style="fill:rgb(190,75,84);fill-rule:nonzero;"/>
            </g>
        </g>
    </g>
</svg>
