<?xml version="1.0" encoding="UTF-8" standalone="no"?>
<!DOCTYPE svg PUBLIC "-//W3C//DTD SVG 1.1//EN" "http://www.w3.org/Graphics/SVG/1.1/DTD/svg11.dtd">
<svg width="100%" height="100%" viewBox="0 0 20 20" version="1.1" xmlns="http://www.w3.org/2000/svg" xmlns:xlink="http://www.w3.org/1999/xlink" xml:space="preserve" xmlns:serif="http://www.serif.com/" style="fill-rule:evenodd;clip-rule:evenodd;stroke-linejoin:round;stroke-miterlimit:2;">
    <g transform="matrix(1.07573,0,0,1.07573,-0.757316,-0.757316)">
        <g id="Korowon">
            <g transform="matrix(1,0,0,1,15.0254,16.5943)">
                <path d="M0,-0.627C-0.029,-0.703 -0.081,-0.756 -0.137,-0.811C-0.151,-0.825 -0.164,-0.838 -0.177,-0.852C-0.259,-0.937 -0.341,-1.021 -0.424,-1.104C-0.511,-1.193 -0.598,-1.281 -0.683,-1.371L-0.703,-1.391C-0.763,-1.454 -0.826,-1.52 -0.868,-1.608C-0.932,-1.741 -1.004,-1.88 -1.125,-1.982C-1.177,-2.027 -1.204,-2.083 -1.202,-2.146C-1.194,-2.35 -1.322,-2.442 -1.492,-2.542C-1.588,-2.598 -1.682,-2.594 -1.756,-2.591C-1.785,-2.59 -1.809,-2.589 -1.831,-2.592C-1.874,-2.591 -1.917,-2.592 -1.954,-2.593C-2.033,-2.593 -2.09,-2.594 -2.147,-2.59C-2.156,-2.589 -2.162,-2.587 -2.164,-2.583C-2.166,-2.579 -2.164,-2.571 -2.16,-2.563C-2.144,-2.536 -2.129,-2.51 -2.115,-2.483C-2.09,-2.437 -2.064,-2.389 -2.034,-2.346C-1.975,-2.263 -1.914,-2.181 -1.853,-2.099C-1.749,-1.957 -1.641,-1.812 -1.544,-1.662C-1.495,-1.586 -1.428,-1.487 -1.348,-1.393C-1.272,-1.304 -1.174,-1.185 -1.087,-1.06C-0.928,-0.828 -0.878,-0.583 -0.938,-0.329C-0.943,-0.311 -0.952,-0.293 -0.961,-0.276C-0.972,-0.255 -0.983,-0.235 -0.98,-0.221C-0.927,0.107 -1.07,0.319 -1.416,0.425C-1.419,0.427 -1.424,0.431 -1.428,0.435C-1.433,0.44 -1.438,0.445 -1.444,0.449C-1.706,0.618 -2.023,0.805 -2.383,0.916C-2.563,0.97 -2.7,1.078 -2.793,1.237C-2.899,1.42 -3.024,1.597 -3.145,1.767C-3.184,1.823 -3.223,1.879 -3.262,1.935C-3.273,1.951 -3.275,1.957 -3.275,1.958C-3.274,1.958 -3.271,1.962 -3.257,1.966C-3.244,1.971 -3.233,1.97 -3.231,1.969C-3.14,1.92 -3.048,1.871 -2.956,1.822C-2.72,1.695 -2.475,1.565 -2.24,1.427C-2.09,1.339 -1.94,1.243 -1.796,1.151C-1.603,1.028 -1.405,0.901 -1.202,0.79C-1.062,0.714 -0.926,0.625 -0.795,0.54C-0.58,0.4 -0.358,0.256 -0.112,0.159C-0.043,0.132 -0.003,0.063 -0.004,-0.03C-0.004,-0.051 -0.004,-0.073 -0.005,-0.095C-0.008,-0.192 -0.01,-0.292 0.029,-0.372C0.072,-0.458 0.049,-0.513 0.019,-0.582C0.012,-0.597 0.006,-0.611 0,-0.627" style="fill:rgb(21,90,105);fill-rule:nonzero;"/>
            </g>
            <g transform="matrix(1,0,0,1,12.0434,16.2463)">
                <path d="M0,-1.225L0.009,-1.221C0.095,-1.145 0.18,-1.069 0.266,-0.993C0.456,-0.826 0.645,-0.658 0.837,-0.492C0.988,-0.361 1.067,-0.227 1.093,-0.057C1.095,-0.046 1.097,-0.034 1.099,-0.023C1.11,0.033 1.12,0.085 1.077,0.148C0.967,0.311 0.837,0.506 0.714,0.712C0.672,0.782 0.639,0.861 0.606,0.936C0.594,0.965 0.581,0.992 0.569,1.02C0.645,1.037 0.702,1 0.763,0.96C0.798,0.937 0.834,0.913 0.875,0.9C0.993,0.861 1.098,0.792 1.2,0.725C1.258,0.686 1.319,0.647 1.382,0.612C1.785,0.393 1.785,0.369 1.781,0.145C1.78,0.093 1.779,0.029 1.782,-0.048C1.782,-0.081 1.782,-0.114 1.781,-0.146C1.781,-0.218 1.78,-0.286 1.783,-0.354C1.786,-0.456 1.755,-0.536 1.684,-0.605C1.665,-0.624 1.645,-0.643 1.626,-0.661C1.542,-0.741 1.456,-0.823 1.389,-0.918C1.096,-1.337 0.834,-1.723 0.589,-2.101C0.523,-2.204 0.464,-2.262 0.339,-2.252C0.231,-2.243 0.121,-2.239 0.014,-2.236C-0.029,-2.234 -0.071,-2.233 -0.114,-2.231C-0.163,-2.135 -0.157,-2.033 -0.151,-1.926C-0.149,-1.869 -0.145,-1.811 -0.151,-1.753C-0.155,-1.71 -0.154,-1.664 -0.154,-1.619C-0.152,-1.58 -0.151,-1.539 -0.154,-1.498C-0.164,-1.353 -0.141,-1.257 0,-1.225" style="fill:rgb(100,129,117);fill-rule:nonzero;"/>
            </g>
            <g transform="matrix(1,0,0,1,8.0654,17.2603)">
                <path d="M0,-3.244L-0.102,-3.249C-0.205,-3.254 -0.307,-3.26 -0.41,-3.264C-0.435,-3.264 -0.461,-3.265 -0.488,-3.265C-0.517,-3.265 -0.547,-3.264 -0.578,-3.263C-0.634,-3.261 -0.67,-3.249 -0.693,-3.195C-0.784,-2.979 -0.925,-2.79 -1.049,-2.623C-1.127,-2.518 -1.204,-2.412 -1.281,-2.306C-1.44,-2.088 -1.604,-1.862 -1.777,-1.647C-1.785,-1.637 -1.795,-1.627 -1.804,-1.617C-1.814,-1.607 -1.824,-1.596 -1.833,-1.584C-1.966,-1.405 -2.003,-1.206 -1.94,-1.009C-1.911,-0.917 -1.888,-0.839 -1.896,-0.756C-1.909,-0.632 -1.844,-0.585 -1.736,-0.523C-1.407,-0.331 -1.083,-0.146 -0.745,0.015C-0.732,0.021 -0.706,0.02 -0.679,0.012C-0.672,0.01 -0.67,0.008 -0.67,0.008C-0.671,0.007 -0.672,0.001 -0.687,-0.021C-0.765,-0.14 -0.843,-0.261 -0.922,-0.381C-1.01,-0.519 -1.099,-0.656 -1.19,-0.793C-1.225,-0.846 -1.243,-0.899 -1.245,-0.96C-1.256,-1.208 -1.166,-1.404 -0.986,-1.527C-0.844,-1.623 -0.72,-1.731 -0.628,-1.815L-0.585,-1.855C-0.477,-1.953 -0.365,-2.055 -0.239,-2.142C0.037,-2.332 0.037,-2.339 0.036,-2.696L0.036,-2.834C0.023,-2.885 0.028,-2.939 0.034,-2.997C0.041,-3.08 0.05,-3.165 0,-3.244" style="fill:rgb(100,129,117);fill-rule:nonzero;"/>
            </g>
            <g transform="matrix(0.664364,-0.747409,-0.747409,-0.664364,8.1734,18.5423)">
                <path d="M-0.008,-0.004C-0.008,-0.004 -0.005,-0.004 -0.004,-0C-0.003,0.005 -0.006,0.012 -0.008,0.02C-0.012,0.013 -0.014,0.007 -0.014,0.003C-0.013,-0.001 -0.009,-0.004 -0.008,-0.004" style="fill:rgb(123,127,129);fill-rule:nonzero;"/>
            </g>
            <g transform="matrix(1,0,0,1,4.8994,16.1043)">
                <path d="M0,0.271C-0.001,0.295 -0.002,0.318 0.005,0.335C0.019,0.367 0.029,0.401 0.04,0.433C0.076,0.544 0.11,0.649 0.248,0.676L0.255,0.679C0.339,0.731 0.423,0.783 0.507,0.835C0.985,1.132 1.48,1.438 1.983,1.71C2.102,1.818 2.242,1.888 2.377,1.956C2.512,2.024 2.651,2.094 2.768,2.199C2.838,2.215 2.898,2.253 2.957,2.29C3.035,2.34 3.11,2.388 3.203,2.382C3.203,2.378 3.204,2.373 3.204,2.369C3.206,2.351 3.207,2.334 3.202,2.322C3.108,2.11 2.97,1.92 2.849,1.758C2.706,1.568 2.532,1.444 2.317,1.38C2.157,1.331 2.014,1.271 1.891,1.201C1.803,1.15 1.718,1.091 1.635,1.034C1.524,0.957 1.409,0.877 1.287,0.82C1.037,0.701 0.994,0.495 0.985,0.289C0.983,0.224 0.983,0.158 0.984,0.094C0.986,0.018 0.987,-0.061 0.982,-0.137C0.968,-0.349 1.039,-0.528 1.198,-0.683C1.418,-0.899 1.592,-1.157 1.76,-1.407C1.862,-1.558 1.968,-1.714 2.083,-1.86C2.088,-1.868 2.095,-1.875 2.102,-1.884C2.145,-1.936 2.199,-2.001 2.17,-2.064C2.146,-2.117 2.099,-2.117 2.027,-2.11C2.003,-2.108 1.979,-2.107 1.959,-2.107C1.873,-2.111 1.782,-2.111 1.662,-2.106C1.635,-2.105 1.579,-2.103 1.555,-2.081C1.531,-2.06 1.506,-2.04 1.481,-2.021C1.376,-1.937 1.277,-1.859 1.264,-1.704C1.255,-1.603 1.184,-1.501 1.132,-1.434C1.061,-1.344 0.992,-1.25 0.925,-1.159C0.71,-0.87 0.489,-0.571 0.206,-0.331C0.032,-0.182 -0.034,-0.01 0,0.213C0.002,0.233 0.001,0.252 0,0.271" style="fill:rgb(21,90,105);fill-rule:nonzero;"/>
            </g>
            <g transform="matrix(1,0,0,1,11.5474,13.1323)">
                <path d="M0,0.845C-0.039,0.802 -0.092,0.747 -0.153,0.705C-0.353,0.567 -0.553,0.43 -0.753,0.293C-0.991,0.131 -1.229,-0.032 -1.466,-0.197C-1.534,-0.244 -1.575,-0.246 -1.63,-0.205C-1.667,-0.179 -1.706,-0.155 -1.744,-0.132C-1.776,-0.112 -1.81,-0.092 -1.842,-0.07C-1.939,-0.002 -2.036,0.068 -2.133,0.137C-2.34,0.285 -2.554,0.439 -2.772,0.579C-2.88,0.649 -2.978,0.723 -3.07,0.806L-3.075,0.81C-3.102,0.836 -3.134,0.865 -3.143,0.894C-3.158,0.948 -3.158,1.004 -3.144,1.046C-3.141,1.056 -3.094,1.077 -3.056,1.077C-2.852,1.081 -2.655,1.08 -2.418,1.078C-2.388,1.078 -2.357,1.055 -2.339,1.02C-2.326,0.994 -2.318,0.954 -2.339,0.924C-2.378,0.87 -2.424,0.819 -2.468,0.771C-2.489,0.748 -2.51,0.725 -2.529,0.702L-2.534,0.696C-2.559,0.669 -2.599,0.623 -2.544,0.572C-2.539,0.568 -2.535,0.563 -2.531,0.559C-2.498,0.527 -2.452,0.484 -2.381,0.537C-2.363,0.55 -2.345,0.561 -2.325,0.571C-2.275,0.599 -2.223,0.627 -2.19,0.7C-2.14,0.81 -2.119,0.897 -2.118,0.989C-2.117,1.049 -2.093,1.076 -2.039,1.077L-1.594,1.077L-1.594,1.08C-1.519,1.08 -1.443,1.081 -1.366,1.081C-1.307,1.081 -1.248,1.081 -1.189,1.08C-1.178,1.079 -1.168,1.079 -1.158,1.079C-1.091,1.079 -1.077,1.08 -1.046,0.959C-1.001,0.786 -0.95,0.59 -0.718,0.537C-0.711,0.536 -0.702,0.531 -0.693,0.527C-0.675,0.517 -0.653,0.505 -0.632,0.514C-0.616,0.52 -0.606,0.534 -0.598,0.556C-0.584,0.594 -0.579,0.651 -0.598,0.693C-0.615,0.731 -0.658,0.757 -0.697,0.779C-0.752,0.811 -0.76,0.863 -0.769,0.923C-0.776,0.969 -0.784,1.017 -0.815,1.055C-0.773,1.091 -0.722,1.086 -0.67,1.082C-0.649,1.08 -0.629,1.077 -0.609,1.079C-0.434,1.082 -0.256,1.08 -0.083,1.078L-0.014,1.077C0.007,1.077 0.027,1.065 0.042,1.043C0.061,1.014 0.066,0.977 0.054,0.947C0.04,0.91 0.025,0.872 0,0.845" style="fill:rgb(100,129,117);fill-rule:nonzero;"/>
            </g>
            <g transform="matrix(1,0,0,1,8.5254,14.6593)">
                <path d="M0,0.611C0.005,0.602 0.008,0.591 0.011,0.579C0.016,0.563 0.021,0.546 0.031,0.531C0.118,0.407 0.238,0.283 0.435,0.315C0.466,0.319 0.497,0.319 0.528,0.318C0.539,0.317 0.549,0.317 0.559,0.317L0.561,0.317C0.67,0.317 0.727,0.377 0.73,0.496C0.732,0.571 0.784,0.587 0.844,0.606C0.863,0.611 0.883,0.618 0.9,0.626C0.919,0.635 0.931,0.635 0.933,0.633C0.94,0.629 0.943,0.607 0.945,0.591C0.948,0.57 0.951,0.549 0.961,0.534C0.985,0.501 1.005,0.464 1.024,0.429C1.044,0.392 1.065,0.354 1.09,0.32C1.129,0.265 1.19,0.239 1.256,0.246C1.295,0.25 1.333,0.261 1.37,0.271C1.462,0.296 1.548,0.319 1.635,0.253L1.644,0.246L1.655,0.251C1.677,0.26 1.702,0.269 1.725,0.277C1.819,0.309 1.925,0.344 1.924,0.495C1.924,0.542 1.952,0.571 1.984,0.605C1.99,0.611 1.996,0.618 2.002,0.624C2.017,0.64 2.025,0.642 2.03,0.643C2.029,0.642 2.035,0.644 2.043,0.635C2.06,0.617 2.079,0.6 2.099,0.582C2.143,0.543 2.188,0.502 2.205,0.454C2.244,0.341 2.312,0.315 2.402,0.315C2.405,0.315 2.409,0.315 2.412,0.316C2.444,0.316 2.474,0.317 2.5,0.317C2.757,0.319 2.764,0.324 2.914,0.605L2.919,0.615C2.928,0.631 2.933,0.648 2.939,0.665C2.942,0.675 2.945,0.685 2.949,0.695C2.997,0.81 3.08,0.852 3.216,0.832L3.337,0.832C3.342,0.832 3.35,0.832 3.355,0.831L3.372,0.807C3.412,0.752 3.453,0.696 3.482,0.637C3.474,0.623 3.438,0.585 3.411,0.572C3.26,0.502 3.157,0.412 3.089,0.291L3.086,0.285L3.086,0.279C3.094,0.211 3.086,-0.174 3.061,-0.201C3.025,-0.241 2.954,-0.239 2.878,-0.237C2.862,-0.236 2.847,-0.236 2.831,-0.236C2.264,-0.235 1.697,-0.235 1.129,-0.235L0.545,-0.236C0.37,-0.236 0.197,-0.236 0.023,-0.235C-0.128,-0.234 -0.179,0.126 -0.203,0.259C-0.226,0.396 -0.285,0.478 -0.4,0.53C-0.435,0.547 -0.468,0.575 -0.499,0.601C-0.509,0.61 -0.52,0.618 -0.53,0.627C-0.562,0.652 -0.556,0.69 -0.541,0.714C-0.508,0.769 -0.47,0.831 -0.4,0.831C-0.379,0.831 -0.358,0.832 -0.338,0.833C-0.26,0.836 -0.18,0.84 -0.119,0.811C-0.082,0.793 -0.057,0.736 -0.033,0.68C-0.022,0.656 -0.012,0.632 0,0.611" style="fill:rgb(147,141,126);fill-rule:nonzero;"/>
            </g>
            <g transform="matrix(1,0,0,1,12.3904,10.1303)">
                <path d="M0,0.528C-0.079,0.525 -0.14,0.558 -0.203,0.595C-0.233,0.612 -0.264,0.63 -0.298,0.644C-0.297,0.644 -0.298,0.645 -0.298,0.646C-0.294,0.652 -0.287,0.658 -0.279,0.662C-0.271,0.666 -0.259,0.668 -0.249,0.669C-0.133,0.685 -0.014,0.679 0.1,0.673C0.161,0.67 0.224,0.667 0.286,0.667C0.416,0.667 0.547,0.681 0.675,0.739C0.683,0.742 0.704,0.736 0.719,0.73C0.726,0.728 0.734,0.725 0.741,0.723C1.009,0.65 1.009,0.65 1.012,0.381L1.012,0.269L1.01,0.103C1.01,0.013 1.01,-0.078 1.009,-0.169C1.009,-0.189 1.003,-0.204 0.994,-0.21C0.984,-0.214 0.972,-0.208 0.965,-0.204C0.724,-0.051 0.486,0.101 0.306,0.218L0.306,0.222C0.313,0.234 0.32,0.24 0.322,0.24C0.455,0.235 0.591,0.268 0.731,0.338C0.747,0.346 0.757,0.36 0.759,0.378C0.763,0.406 0.746,0.441 0.716,0.467C0.668,0.511 0.616,0.531 0.553,0.531L0.551,0.531C0.489,0.53 0.427,0.532 0.365,0.532C0.246,0.534 0.122,0.536 0,0.528" style="fill:rgb(100,129,117);fill-rule:nonzero;"/>
            </g>
            <g transform="matrix(1,0,0,1,7.2244,10.4083)">
                <path d="M0,-0.048C0.004,-0.048 0.013,-0.055 0.015,-0.058C0.013,-0.058 0.007,-0.066 0,-0.071C-0.071,-0.121 -0.141,-0.17 -0.212,-0.22C-0.337,-0.307 -0.461,-0.394 -0.584,-0.482C-0.618,-0.507 -0.648,-0.509 -0.676,-0.491C-0.687,-0.484 -0.697,-0.457 -0.698,-0.435C-0.701,-0.362 -0.7,-0.287 -0.7,-0.215L-0.702,-0.117L-0.702,0.077C-0.699,0.307 -0.637,0.391 -0.424,0.452C-0.393,0.461 -0.347,0.455 -0.323,0.439C-0.255,0.392 -0.183,0.395 -0.113,0.396C-0.097,0.396 -0.081,0.397 -0.065,0.397C0.023,0.395 0.109,0.395 0.197,0.394C0.324,0.394 0.449,0.393 0.575,0.391C0.582,0.389 0.597,0.37 0.604,0.36C0.601,0.355 0.595,0.348 0.589,0.342C0.547,0.295 0.498,0.252 0.424,0.252L0.184,0.252C0.063,0.252 -0.055,0.252 -0.174,0.254L-0.177,0.254C-0.252,0.254 -0.314,0.223 -0.371,0.156C-0.383,0.143 -0.397,0.123 -0.394,0.099C-0.391,0.083 -0.38,0.068 -0.36,0.056C-0.348,0.048 -0.336,0.041 -0.324,0.033C-0.289,0.009 -0.252,-0.015 -0.211,-0.026C-0.166,-0.037 -0.12,-0.04 -0.075,-0.042C-0.049,-0.044 -0.025,-0.045 0,-0.048" style="fill:rgb(100,129,117);fill-rule:nonzero;"/>
            </g>
            <g transform="matrix(1,0,0,1,8.1644,12.8213)">
                <path d="M0,-0.33C0.002,-0.336 0.002,-0.342 0,-0.346C-0.003,-0.352 -0.016,-0.356 -0.028,-0.359C-0.039,-0.362 -0.05,-0.365 -0.06,-0.371C-0.135,-0.413 -0.211,-0.45 -0.301,-0.45L-0.326,-0.45C-0.417,-0.443 -0.51,-0.444 -0.601,-0.445C-0.637,-0.446 -0.672,-0.446 -0.709,-0.446L-0.754,-0.446C-0.855,-0.445 -0.87,-0.428 -0.872,-0.308C-0.873,-0.251 -0.873,-0.195 -0.872,-0.138C-0.869,0.056 -0.81,0.113 -0.606,0.118C-0.509,0.12 -0.409,0.12 -0.314,0.119L-0.029,0.119C0.091,0.118 0.212,0.119 0.332,0.12L0.335,0.12C0.404,0.12 0.438,0.093 0.464,0.019C0.473,-0.005 0.483,-0.027 0.493,-0.049C0.519,-0.101 0.542,-0.151 0.529,-0.209C0.523,-0.236 0.511,-0.259 0.5,-0.265C0.486,-0.273 0.456,-0.273 0.44,-0.264C0.41,-0.248 0.361,-0.222 0.353,-0.197C0.314,-0.062 0.234,-0.01 0.083,-0.019C-0.033,-0.026 -0.151,-0.025 -0.267,-0.024C-0.335,-0.024 -0.402,-0.023 -0.471,-0.025C-0.542,-0.026 -0.585,-0.078 -0.62,-0.126C-0.632,-0.144 -0.644,-0.161 -0.639,-0.179C-0.634,-0.2 -0.609,-0.214 -0.594,-0.219C-0.52,-0.242 -0.442,-0.241 -0.367,-0.24C-0.26,-0.238 -0.156,-0.238 -0.064,-0.303C-0.053,-0.311 -0.038,-0.316 -0.024,-0.32C-0.016,-0.323 -0.003,-0.327 0,-0.33" style="fill:rgb(21,90,105);fill-rule:nonzero;"/>
            </g>
            <g transform="matrix(1,0,0,1,11.6874,12.4913)">
                <path d="M0,0.311C-0.128,0.311 -0.211,0.248 -0.253,0.119C-0.265,0.082 -0.285,0.068 -0.328,0.063C-0.331,0.062 -0.334,0.062 -0.337,0.062C-0.349,0.062 -0.358,0.066 -0.366,0.073C-0.382,0.087 -0.39,0.117 -0.39,0.159C-0.391,0.446 -0.391,0.446 -0.108,0.449C-0.02,0.45 0.067,0.45 0.155,0.45L0.275,0.448C0.373,0.448 0.469,0.449 0.568,0.449C0.626,0.449 0.685,0.449 0.743,0.448C0.934,0.443 0.947,0.43 0.945,0.247C0.944,0.185 0.946,0.134 0.946,0.09C0.948,-0.013 0.949,-0.07 0.926,-0.093C0.902,-0.117 0.836,-0.116 0.719,-0.117C0.681,-0.116 0.637,-0.116 0.584,-0.117C0.565,-0.117 0.547,-0.116 0.529,-0.115C0.49,-0.112 0.449,-0.111 0.41,-0.119C0.318,-0.139 0.244,-0.099 0.168,-0.058C0.135,-0.041 0.102,-0.023 0.067,-0.01C0.066,-0.01 0.064,-0.007 0.062,-0.005C0.066,0.001 0.071,0.006 0.073,0.007C0.21,0.014 0.353,0.021 0.493,0.023C0.558,0.024 0.612,0.045 0.659,0.088L0.669,0.097C0.697,0.122 0.732,0.154 0.719,0.212C0.702,0.286 0.653,0.303 0.615,0.303C0.418,0.307 0.218,0.301 0.019,0.311L0,0.311" style="fill:rgb(21,90,105);fill-rule:nonzero;"/>
            </g>
            <g transform="matrix(1,0,0,1,2.8254,7.46434)">
                <path d="M0,-1.289C0.128,-1.28 0.257,-1.282 0.383,-1.284C0.438,-1.285 0.493,-1.286 0.548,-1.286L0.554,-1.286C0.828,-1.286 1.103,-1.285 1.383,-1.285C1.576,-1.285 1.77,-1.285 1.962,-1.287L1.968,-1.287C2.074,-1.287 2.153,-1.248 2.233,-1.157C2.3,-1.079 2.329,-1.004 2.324,-0.912C2.322,-0.857 2.323,-0.8 2.324,-0.745C2.325,-0.688 2.326,-0.629 2.323,-0.571C2.319,-0.481 2.346,-0.415 2.411,-0.363C2.465,-0.32 2.518,-0.276 2.57,-0.232C2.689,-0.133 2.812,-0.03 2.942,0.053C3.22,0.23 3.348,0.485 3.345,0.852C3.344,1.144 3.344,1.456 3.347,1.834C3.348,1.96 3.374,2.009 3.525,2.044C3.607,2.063 3.665,2.089 3.721,2.13C3.878,2.246 4.045,2.355 4.206,2.461C4.438,2.612 4.678,2.769 4.896,2.95C4.939,2.986 4.992,3.009 5.048,3.033C5.083,3.048 5.119,3.064 5.152,3.083C5.352,3.198 5.498,3.186 5.624,3.047L5.632,3.042C5.919,2.927 5.958,2.685 5.957,2.441C5.955,2.006 5.955,1.571 5.956,1.136L5.956,0.434C5.956,0.081 5.85,-0.204 5.632,-0.436C5.625,-0.443 5.619,-0.45 5.612,-0.457C5.587,-0.481 5.562,-0.507 5.547,-0.539C5.53,-0.576 5.527,-0.614 5.533,-0.651C5.533,-0.651 5.532,-0.652 5.532,-0.653L5.555,-4.483L3.167,-4.487L3.075,-4.486C3.006,-4.486 2.936,-4.486 2.868,-4.487L2.864,-4.487C2.802,-4.487 2.762,-4.47 2.732,-4.434C2.602,-4.272 2.433,-4.175 2.255,-4.073L2.222,-4.054C2.005,-3.929 1.789,-3.802 1.574,-3.676C1.44,-3.597 1.305,-3.518 1.171,-3.44C0.944,-3.308 0.718,-3.167 0.5,-3.029C0.217,-2.851 -0.076,-2.667 -0.374,-2.503C-0.473,-2.449 -0.566,-2.379 -0.656,-2.311C-0.677,-2.295 -0.698,-2.28 -0.719,-2.264C-0.803,-2.202 -0.839,-2.129 -0.838,-2.029C-0.834,-1.615 -0.834,-1.193 -0.834,-0.786C-0.834,-0.617 -0.834,-0.447 -0.833,-0.278C-0.833,-0.268 -0.833,-0.259 -0.834,-0.249C-0.834,-0.216 -0.835,-0.184 -0.827,-0.156C-0.804,-0.076 -0.75,-0.025 -0.668,-0.002C-0.632,0.007 -0.598,0.002 -0.573,-0.016C-0.554,-0.031 -0.543,-0.053 -0.543,-0.079L-0.54,-0.255C-0.537,-0.463 -0.534,-0.679 -0.534,-0.89C-0.535,-1.032 -0.482,-1.126 -0.368,-1.184C-0.266,-1.236 -0.16,-1.29 -0.031,-1.29C-0.021,-1.29 -0.01,-1.29 0,-1.289" style="fill:rgb(195,214,140);fill-rule:nonzero;"/>
            </g>
            <g transform="matrix(1,0,0,1,17.2304,10.3353)">
                <path d="M0,-3.914C-0.047,-3.928 -0.103,-3.936 -0.159,-3.936C-0.446,-3.938 -0.748,-3.938 -1.141,-3.935C-1.172,-3.935 -1.197,-3.928 -1.201,-3.922C-1.206,-3.912 -1.205,-3.906 -1.204,-3.901C-1.201,-3.892 -1.19,-3.879 -1.158,-3.862C-0.983,-3.773 -0.843,-3.635 -0.727,-3.513C-0.67,-3.454 -0.641,-3.406 -0.636,-3.361C-0.624,-3.267 -0.633,-3.169 -0.64,-3.075L-0.642,-3.062C-0.644,-3.03 -0.7,-3.008 -0.724,-3.006C-0.75,-3.004 -0.801,-3.018 -0.814,-3.046C-0.835,-3.09 -0.844,-3.138 -0.84,-3.176C-0.829,-3.279 -0.866,-3.359 -0.95,-3.415C-1.034,-3.47 -1.115,-3.531 -1.194,-3.591C-1.323,-3.688 -1.458,-3.789 -1.606,-3.867C-1.737,-3.935 -1.867,-3.936 -2.004,-3.937L-2.048,-3.938C-2.076,-3.938 -2.166,-3.845 -2.167,-3.806C-2.168,-3.753 -2.168,-3.698 -2.168,-3.644C-2.167,-3.557 -2.166,-3.467 -2.173,-3.379C-2.182,-3.273 -2.15,-3.199 -2.07,-3.138C-2.001,-3.084 -1.869,-2.985 -1.969,-2.891C-2.046,-2.818 -2.139,-2.894 -2.198,-2.947C-2.279,-3.017 -2.322,-3.019 -2.444,-2.958C-2.577,-2.892 -2.694,-2.797 -2.807,-2.706C-2.865,-2.659 -2.926,-2.611 -2.988,-2.567C-3.126,-2.467 -3.195,-2.31 -3.193,-2.1C-3.19,-1.876 -3.191,-1.648 -3.193,-1.429C-3.194,-1.268 -3.195,-1.108 -3.194,-0.947C-3.194,-0.866 -3.222,-0.802 -3.283,-0.745C-3.295,-0.734 -3.307,-0.721 -3.318,-0.708C-3.348,-0.674 -3.38,-0.639 -3.42,-0.631C-3.536,-0.605 -3.545,-0.534 -3.544,-0.429C-3.542,-0.291 -3.542,-0.153 -3.542,-0.015L-3.542,0.34C-3.541,0.395 -3.547,0.457 -3.597,0.51C-3.76,0.679 -3.926,0.758 -4.119,0.758L-4.132,0.758L-4.288,0.756C-4.53,0.75 -4.781,0.746 -5.027,0.755C-5.038,0.755 -5.047,0.756 -5.057,0.756C-5.194,0.756 -5.311,0.719 -5.398,0.649C-5.481,0.582 -5.578,0.531 -5.671,0.481C-5.786,0.42 -5.905,0.357 -6.003,0.262C-6.017,0.25 -6.036,0.246 -6.055,0.254C-6.071,0.261 -6.091,0.278 -6.091,0.304L-6.091,0.699C-6.091,0.975 -6.09,1.262 -6.098,1.543C-6.102,1.677 -6.059,1.775 -5.953,1.867C-5.922,1.893 -5.892,1.919 -5.863,1.947C-5.802,2.005 -5.733,2.014 -5.652,1.976C-5.618,1.96 -5.585,1.94 -5.553,1.921C-5.476,1.874 -5.396,1.826 -5.3,1.824C-5.026,1.817 -4.762,1.822 -4.445,1.827C-4.363,1.829 -4.316,1.872 -4.315,1.947C-4.315,1.991 -4.316,2.034 -4.317,2.077C-4.319,2.188 -4.321,2.304 -4.309,2.415C-4.293,2.569 -4.374,2.658 -4.455,2.724C-4.591,2.836 -4.725,2.889 -4.874,2.889L-4.89,2.889C-5.068,2.885 -5.248,2.885 -5.421,2.886C-5.529,2.887 -5.638,2.887 -5.744,2.887C-5.975,2.885 -6.111,2.77 -6.139,2.555C-6.147,2.491 -6.165,2.427 -6.183,2.365C-6.214,2.255 -6.246,2.142 -6.226,2.021C-6.324,1.883 -6.319,1.729 -6.314,1.579C-6.314,1.548 -6.312,1.516 -6.312,1.485C-6.311,0.673 -6.31,-0.138 -6.308,-0.949L-6.306,-1.76C-6.306,-1.811 -6.304,-1.862 -6.303,-1.913C-6.3,-2.031 -6.296,-2.153 -6.31,-2.27C-6.322,-2.37 -6.295,-2.46 -6.269,-2.548C-6.248,-2.622 -6.228,-2.692 -6.23,-2.766C-6.235,-2.95 -6.155,-3.099 -6.077,-3.244C-6.063,-3.271 -6.048,-3.298 -6.035,-3.325C-5.992,-3.407 -5.928,-3.474 -5.855,-3.533L-5.878,-7.353C-6.059,-7.352 -6.241,-7.352 -6.422,-7.352L-6.443,-7.351L-6.488,-7.351C-6.667,-7.351 -6.848,-7.364 -6.97,-7.547C-6.986,-7.571 -7.008,-7.589 -7.021,-7.591C-7.051,-7.594 -7.082,-7.598 -7.113,-7.603C-7.276,-7.625 -7.431,-7.647 -7.553,-7.497C-7.643,-7.386 -7.756,-7.339 -7.909,-7.352C-7.927,-7.354 -7.944,-7.354 -7.963,-7.353C-7.974,-7.353 -7.986,-7.354 -7.993,-7.353L-8.551,-7.354L-8.574,-3.521C-8.574,-3.511 -8.578,-3.501 -8.58,-3.491C-8.551,-3.461 -8.523,-3.429 -8.502,-3.392C-8.314,-3.054 -8.227,-2.76 -8.229,-2.468C-8.232,-2.123 -8.231,-1.772 -8.23,-1.433L-8.23,-0.973C-8.23,-0.946 -8.233,-0.918 -8.235,-0.89C-8.241,-0.829 -8.246,-0.771 -8.225,-0.728C-8.143,-0.559 -8.15,-0.383 -8.157,-0.213C-8.159,-0.161 -8.16,-0.106 -8.16,-0.052C-8.156,0.214 -8.157,0.485 -8.157,0.747C-8.157,0.975 -8.157,1.211 -8.155,1.443C-8.153,1.655 -8.16,1.845 -8.276,2.021C-8.303,2.062 -8.309,2.125 -8.313,2.172C-8.321,2.257 -8.323,2.343 -8.319,2.425C-8.313,2.564 -8.382,2.671 -8.455,2.785C-8.484,2.83 -8.552,2.88 -8.607,2.881C-8.679,2.883 -8.752,2.885 -8.824,2.887C-9.104,2.895 -9.395,2.903 -9.676,2.878C-9.844,2.863 -10.002,2.782 -10.089,2.667C-10.156,2.578 -10.18,2.473 -10.159,2.361C-10.148,2.3 -10.151,2.236 -10.153,2.168C-10.155,2.134 -10.156,2.1 -10.156,2.066C-10.154,1.839 -10.139,1.823 -9.932,1.821C-9.866,1.819 -9.8,1.821 -9.734,1.821C-9.631,1.823 -9.524,1.824 -9.42,1.818C-9.184,1.804 -9.001,1.85 -8.845,1.96C-8.784,2.004 -8.735,2.002 -8.677,1.957C-8.658,1.942 -8.637,1.933 -8.616,1.924L-8.598,1.916C-8.488,1.866 -8.439,1.79 -8.441,1.67C-8.443,1.415 -8.444,1.156 -8.444,0.906C-8.445,0.705 -8.445,0.504 -8.447,0.303C-8.447,0.295 -8.464,0.278 -8.475,0.267C-8.48,0.271 -8.488,0.276 -8.493,0.28C-8.504,0.289 -8.515,0.299 -8.525,0.309C-8.546,0.329 -8.568,0.349 -8.594,0.364C-8.657,0.4 -8.721,0.434 -8.785,0.469C-8.904,0.532 -9.026,0.598 -9.14,0.673C-9.225,0.729 -9.295,0.752 -9.384,0.752L-9.488,0.752C-9.733,0.75 -9.988,0.749 -10.237,0.76C-10.25,0.76 -10.263,0.761 -10.276,0.761C-10.425,0.761 -10.571,0.722 -10.731,0.641C-10.86,0.575 -10.939,0.502 -10.931,0.337C-10.923,0.142 -10.925,-0.058 -10.927,-0.251C-10.928,-0.339 -10.929,-0.427 -10.929,-0.516C-10.929,-0.555 -10.944,-0.582 -10.977,-0.6C-10.991,-0.607 -11.005,-0.615 -11.019,-0.623C-11.066,-0.648 -11.113,-0.674 -11.163,-0.693C-11.186,-0.703 -11.258,-0.732 -11.257,-0.797C-11.256,-0.883 -11.279,-0.963 -11.302,-1.047C-11.328,-1.138 -11.354,-1.233 -11.349,-1.334C-11.34,-1.511 -11.342,-1.692 -11.344,-1.867C-11.345,-1.986 -11.346,-2.109 -11.344,-2.231C-11.343,-2.333 -11.385,-2.405 -11.45,-2.482C-11.531,-2.579 -11.636,-2.652 -11.737,-2.723C-11.817,-2.78 -11.9,-2.838 -11.973,-2.909C-12.037,-2.971 -12.095,-3.002 -12.155,-3.002C-12.274,-2.999 -12.33,-2.822 -12.46,-2.906C-12.565,-2.974 -12.519,-3.09 -12.44,-3.147C-12.364,-3.202 -12.289,-3.198 -12.295,-3.324C-12.298,-3.378 -12.297,-3.434 -12.297,-3.488C-12.296,-3.546 -12.294,-3.606 -12.299,-3.665C-12.311,-3.866 -12.38,-3.931 -12.593,-3.941C-12.605,-3.942 -12.618,-3.942 -12.63,-3.942C-12.768,-3.942 -12.872,-3.901 -12.962,-3.812C-12.989,-3.785 -13.025,-3.769 -13.061,-3.754C-13.078,-3.746 -13.097,-3.739 -13.113,-3.729C-13.357,-3.593 -13.619,-3.408 -13.703,-3.07C-13.706,-3.057 -13.717,-3.031 -13.738,-3.023C-13.767,-3.013 -13.799,-3.001 -13.827,-3.009C-13.852,-3.015 -13.899,-3.043 -13.901,-3.075C-13.902,-3.088 -13.903,-3.101 -13.904,-3.114C-13.91,-3.199 -13.917,-3.286 -13.872,-3.376C-13.808,-3.502 -13.721,-3.641 -13.555,-3.72C-13.467,-3.763 -13.396,-3.826 -13.329,-3.924C-13.339,-3.926 -13.347,-3.927 -13.356,-3.928C-13.395,-3.932 -13.432,-3.937 -13.468,-3.937L-13.617,-3.938C-13.888,-3.938 -14.172,-3.94 -14.45,-3.935C-14.584,-3.932 -14.723,-3.786 -14.726,-3.645C-14.731,-3.39 -14.73,-3.129 -14.73,-2.877C-14.729,-2.717 -14.729,-2.717 -14.569,-2.657L-14.533,-2.644C-14.417,-2.6 -14.297,-2.555 -14.175,-2.534C-13.968,-2.497 -13.76,-2.423 -13.542,-2.308L-13.518,-2.295C-13.294,-2.178 -13.062,-2.057 -12.843,-1.921C-12.551,-1.739 -12.412,-1.507 -12.418,-1.213C-12.418,-1.179 -12.417,-1.146 -12.416,-1.112C-12.414,-1.061 -12.412,-1.008 -12.417,-0.956C-12.436,-0.745 -12.374,-0.559 -12.228,-0.388L-12.206,-0.363C-12.128,-0.271 -12.045,-0.176 -12.014,-0.067C-11.986,0.029 -11.99,0.134 -11.993,0.235C-11.994,0.277 -11.995,0.32 -11.995,0.362C-11.994,0.378 -11.993,0.394 -11.992,0.41C-11.99,0.452 -11.987,0.495 -11.996,0.537C-12.04,0.73 -11.934,0.816 -11.763,0.885C-11.743,0.893 -11.722,0.902 -11.702,0.911C-11.647,0.934 -11.59,0.958 -11.532,0.974C-11.427,1.002 -11.33,1.054 -11.237,1.103C-11.124,1.164 -11.008,1.225 -10.876,1.246C-10.824,1.254 -10.78,1.295 -10.737,1.334C-10.713,1.356 -10.688,1.379 -10.663,1.395C-10.501,1.498 -10.495,1.496 -10.338,1.31C-10.328,1.297 -10.316,1.287 -10.297,1.272C-10.284,1.261 -10.27,1.25 -10.252,1.254C-10.231,1.261 -10.218,1.286 -10.214,1.302C-10.189,1.418 -10.174,1.539 -10.285,1.635C-10.374,1.712 -10.391,1.801 -10.337,1.916C-10.311,1.972 -10.296,2.032 -10.295,2.085C-10.292,2.385 -10.292,2.701 -10.296,3.025C-10.296,3.068 -10.32,3.11 -10.342,3.147C-10.343,3.15 -10.382,3.213 -10.424,3.212C-10.465,3.202 -10.514,3.178 -10.533,3.142C-10.56,3.091 -10.575,3.03 -10.575,2.974C-10.579,2.569 -10.579,2.206 -10.576,1.863C-10.575,1.742 -10.624,1.662 -10.731,1.613L-10.753,1.603C-10.784,1.589 -10.817,1.574 -10.847,1.556C-10.858,1.55 -10.868,1.549 -10.872,1.551C-10.876,1.554 -10.876,1.561 -10.876,1.564C-10.876,1.61 -10.878,1.656 -10.879,1.703C-10.883,1.826 -10.888,1.953 -10.853,2.063C-10.806,2.213 -10.809,2.363 -10.812,2.508C-10.813,2.598 -10.815,2.692 -10.804,2.783C-10.8,2.81 -10.815,2.839 -10.833,2.872C-10.841,2.888 -10.85,2.905 -10.858,2.922C-10.9,3.008 -10.945,3.098 -11.047,3.141C-11.143,3.182 -11.211,3.254 -11.282,3.33C-11.308,3.358 -11.333,3.386 -11.361,3.412C-11.39,3.439 -11.406,3.473 -11.406,3.509C-11.406,3.554 -11.384,3.602 -11.342,3.644C-11.264,3.722 -11.227,3.724 -11.155,3.655C-10.991,3.498 -10.797,3.426 -10.563,3.44C-10.525,3.442 -10.486,3.445 -10.447,3.448C-10.315,3.459 -10.177,3.471 -10.062,3.432C-9.92,3.383 -9.779,3.383 -9.643,3.382C-9.573,3.381 -9.501,3.381 -9.43,3.374C-9.309,3.362 -9.21,3.396 -9.096,3.451C-9.031,3.481 -9.031,3.481 -8.936,3.412L-8.911,3.395C-8.725,3.263 -8.533,3.131 -8.348,3.003C-8.236,2.926 -8.124,2.849 -8.012,2.771C-7.965,2.738 -7.915,2.706 -7.867,2.674C-7.73,2.584 -7.589,2.492 -7.473,2.372C-7.43,2.327 -7.412,2.287 -7.413,2.237C-7.415,2.18 -7.414,2.123 -7.413,2.066L-7.413,1.98L-7.414,-5.492C-7.414,-5.521 -7.415,-5.549 -7.416,-5.578C-7.417,-5.634 -7.418,-5.692 -7.414,-5.75C-7.407,-5.852 -7.453,-5.931 -7.543,-5.972L-7.561,-5.981C-7.634,-6.014 -7.709,-6.048 -7.754,-6.124C-7.77,-6.151 -7.763,-6.198 -7.747,-6.224C-7.732,-6.247 -7.682,-6.277 -7.654,-6.268C-7.548,-6.227 -7.463,-6.188 -7.387,-6.145C-7.363,-6.132 -7.343,-6.112 -7.324,-6.092C-7.303,-6.07 -7.282,-6.049 -7.26,-6.041C-7.215,-6.028 -7.19,-6.051 -7.149,-6.09C-7.134,-6.104 -7.118,-6.12 -7.099,-6.131C-7.017,-6.186 -6.944,-6.225 -6.874,-6.251C-6.842,-6.262 -6.797,-6.235 -6.753,-6.203C-6.725,-6.182 -6.718,-6.159 -6.717,-6.144C-6.716,-6.119 -6.729,-6.094 -6.754,-6.072C-6.759,-6.067 -6.764,-6.063 -6.768,-6.058C-6.785,-6.042 -6.805,-6.023 -6.828,-6.016C-7.076,-5.932 -7.127,-5.751 -7.126,-5.504C-7.121,-3.89 -7.12,-2.248 -7.12,-0.661L-7.12,2.011C-7.12,2.042 -7.123,2.073 -7.127,2.104C-7.135,2.188 -7.144,2.266 -7.091,2.328C-7.051,2.374 -6.998,2.408 -6.94,2.444C-6.913,2.461 -6.885,2.478 -6.86,2.497C-6.828,2.52 -6.801,2.547 -6.774,2.573C-6.72,2.625 -6.669,2.675 -6.585,2.694C-6.444,2.817 -6.282,2.919 -6.126,3.018C-5.943,3.134 -5.753,3.254 -5.592,3.409C-5.564,3.436 -5.527,3.456 -5.501,3.455C-5.392,3.433 -5.279,3.438 -5.171,3.443C-5.009,3.451 -4.857,3.458 -4.709,3.385C-4.659,3.361 -4.574,3.366 -4.527,3.395C-4.453,3.442 -4.373,3.442 -4.291,3.441L-4.249,3.441C-4.094,3.444 -3.917,3.447 -3.735,3.446C-3.642,3.446 -3.563,3.478 -3.494,3.545L-3.468,3.569C-3.427,3.609 -3.384,3.651 -3.338,3.688C-3.281,3.733 -3.185,3.705 -3.102,3.621C-3.053,3.57 -3.057,3.522 -3.114,3.466C-3.215,3.365 -3.317,3.267 -3.419,3.167C-3.47,3.118 -3.522,3.068 -3.573,3.018C-3.62,2.971 -3.669,2.911 -3.668,2.82C-3.667,2.7 -3.666,2.581 -3.665,2.462C-3.663,2.243 -3.661,2.017 -3.655,1.795C-3.654,1.751 -3.636,1.71 -3.619,1.67C-3.609,1.645 -3.597,1.619 -3.591,1.594C-3.589,1.586 -3.597,1.57 -3.606,1.551C-3.612,1.555 -3.619,1.558 -3.626,1.561C-3.64,1.567 -3.654,1.573 -3.667,1.579C-3.693,1.589 -3.717,1.598 -3.74,1.611C-3.902,1.702 -3.97,1.824 -3.963,2.008C-3.953,2.247 -3.956,2.491 -3.958,2.726C-3.958,2.814 -3.959,2.902 -3.959,2.991C-3.959,3.047 -3.96,3.106 -3.972,3.164C-3.978,3.194 -4.024,3.218 -4.062,3.222C-4.091,3.222 -4.132,3.21 -4.144,3.185C-4.163,3.148 -4.174,3.102 -4.175,3.057C-4.176,2.758 -4.175,2.454 -4.175,2.16L-4.175,2.079C-4.175,1.979 -4.175,1.876 -4.168,1.774C-4.162,1.688 -4.203,1.62 -4.244,1.548C-4.273,1.5 -4.303,1.45 -4.317,1.394C-4.321,1.378 -4.313,1.347 -4.295,1.34L-4.281,1.334C-4.251,1.321 -4.22,1.307 -4.199,1.323C-4.172,1.342 -4.147,1.366 -4.124,1.389C-4.085,1.427 -4.049,1.463 -4.008,1.474C-3.948,1.49 -3.911,1.451 -3.867,1.406C-3.84,1.378 -3.812,1.349 -3.778,1.333C-3.744,1.316 -3.711,1.298 -3.677,1.28C-3.587,1.232 -3.493,1.182 -3.393,1.156C-3.233,1.114 -3.086,1.037 -2.943,0.962C-2.83,0.904 -2.714,0.843 -2.59,0.799C-2.516,0.773 -2.473,0.705 -2.474,0.617C-2.475,0.533 -2.474,0.449 -2.474,0.365C-2.473,0.266 -2.472,0.163 -2.474,0.062C-2.477,-0.052 -2.463,-0.183 -2.339,-0.296C-2.163,-0.457 -2.087,-0.662 -2.121,-0.888C-2.139,-1.009 -2.109,-1.121 -2.08,-1.229C-2.058,-1.307 -2.036,-1.389 -2.034,-1.471C-2.033,-1.516 -2.003,-1.565 -1.974,-1.595C-1.938,-1.631 -1.902,-1.671 -1.868,-1.71C-1.778,-1.811 -1.684,-1.915 -1.569,-1.978L-1.534,-1.997C-1.062,-2.255 -0.574,-2.522 -0.023,-2.619C0.035,-2.628 0.092,-2.654 0.148,-2.68C0.168,-2.688 0.188,-2.698 0.207,-2.705C0.241,-2.72 0.258,-2.745 0.258,-2.785C0.258,-2.877 0.259,-2.969 0.259,-3.061C0.261,-3.223 0.262,-3.39 0.259,-3.553C0.256,-3.723 0.152,-3.867 0,-3.914" style="fill:rgb(147,141,126);fill-rule:nonzero;"/>
            </g>
            <g transform="matrix(1,0,0,1,18.0034,8.17634)">
                <path d="M0,-2.745C0.001,-2.847 -0.038,-2.918 -0.127,-2.972C-0.531,-3.22 -0.937,-3.465 -1.342,-3.711L-1.562,-3.844C-1.668,-3.909 -1.774,-3.974 -1.88,-4.039C-2.256,-4.27 -2.647,-4.509 -3.042,-4.725L-3.047,-4.729C-3.107,-4.803 -3.193,-4.842 -3.284,-4.884C-3.412,-4.943 -3.544,-5.003 -3.602,-5.166C-3.616,-5.205 -3.662,-5.204 -3.732,-5.2C-3.748,-5.199 -3.764,-5.198 -3.779,-5.198L-4.132,-5.198C-4.86,-5.198 -5.607,-5.197 -6.352,-5.195L-6.33,-1.364C-6.329,-1.288 -6.387,-1.227 -6.461,-1.218C-6.683,-0.989 -6.793,-0.7 -6.793,-0.332L-6.793,0.453C-6.794,0.846 -6.794,1.239 -6.794,1.632L-6.794,1.685C-6.793,1.78 -6.793,1.877 -6.786,1.972C-6.781,2.029 -6.763,2.082 -6.738,2.117C-6.633,2.26 -6.502,2.362 -6.351,2.42C-6.251,2.46 -6.217,2.448 -6.207,2.442C-6.147,2.404 -6.081,2.382 -6.018,2.36C-5.941,2.333 -5.862,2.306 -5.792,2.252C-5.544,2.06 -5.279,1.883 -5.022,1.711C-4.921,1.644 -4.821,1.576 -4.721,1.508L-4.708,1.499C-4.598,1.424 -4.485,1.347 -4.336,1.33C-4.242,1.319 -4.186,1.248 -4.185,1.14L-4.185,1.044C-4.182,0.698 -4.18,0.339 -4.184,-0.013C-4.187,-0.208 -4.128,-0.364 -4.004,-0.488C-3.981,-0.512 -3.959,-0.536 -3.936,-0.559C-3.852,-0.649 -3.765,-0.741 -3.645,-0.795C-3.588,-0.82 -3.54,-0.859 -3.49,-0.9C-3.443,-0.939 -3.393,-0.979 -3.333,-1.009C-3.204,-1.071 -3.142,-1.189 -3.159,-1.339C-3.171,-1.446 -3.165,-1.556 -3.16,-1.663L-3.157,-1.726C-3.148,-1.907 -3.053,-1.995 -2.865,-1.996C-2.645,-1.997 -2.422,-1.996 -2.2,-1.996C-1.774,-1.995 -1.334,-1.995 -0.901,-2.002L-0.883,-2.002C-0.668,-2.002 -0.519,-1.936 -0.4,-1.79C-0.34,-1.716 -0.3,-1.646 -0.301,-1.55C-0.303,-1.364 -0.3,-1.175 -0.296,-0.992C-0.295,-0.922 -0.294,-0.852 -0.293,-0.782C-0.292,-0.721 -0.253,-0.72 -0.24,-0.72L-0.237,-0.72C-0.214,-0.72 -0.19,-0.727 -0.175,-0.738C-0.049,-0.834 0.004,-0.936 0.001,-1.079C-0.01,-1.617 -0.006,-2.152 0,-2.745" style="fill:rgb(195,214,140);fill-rule:nonzero;"/>
            </g>
            <g transform="matrix(1,0,0,1,5.6984,12.1503)">
                <path d="M0,0.206C-0.043,0.264 -0.016,0.547 0.069,0.552C0.129,0.555 0.189,0.559 0.248,0.563C0.291,0.565 0.338,0.569 0.371,0.598C0.419,0.64 0.415,0.716 0.391,0.775C0.377,0.806 0.357,0.837 0.326,0.851C0.309,0.859 0.29,0.86 0.272,0.861C0.213,0.863 0.154,0.856 0.098,0.84C0.066,0.831 0.033,0.819 0.001,0.829C-0.018,0.835 -0.033,0.849 -0.047,0.863C-0.109,0.928 -0.116,1.009 -0.163,1.079C-0.206,1.144 -0.26,1.209 -0.335,1.232C-0.41,1.254 -0.507,1.217 -0.522,1.14C-0.531,1.088 -0.502,1.037 -0.469,0.996C-0.435,0.956 -0.395,0.918 -0.375,0.869C-0.361,0.833 -0.359,0.794 -0.358,0.755C-0.354,0.634 -0.349,0.513 -0.344,0.392C-0.341,0.312 -0.318,0.183 -0.368,0.114C-0.407,0.061 -0.489,0.053 -0.545,0.085C-0.68,0.163 -0.606,0.321 -0.703,0.426C-0.749,0.475 -0.807,0.512 -0.858,0.555C-0.938,0.622 -1.046,0.665 -1.061,0.777C-1.068,0.827 -1.065,0.879 -1.075,0.928C-1.086,0.979 -1.112,1.028 -1.155,1.057C-1.198,1.086 -1.258,1.092 -1.302,1.065C-1.361,1.028 -1.374,0.947 -1.37,0.877C-1.366,0.807 -1.35,0.735 -1.373,0.669C-1.377,0.659 -1.381,0.649 -1.389,0.643C-1.399,0.634 -1.414,0.631 -1.428,0.629C-1.486,0.623 -1.545,0.628 -1.601,0.616C-1.658,0.603 -1.715,0.566 -1.727,0.509C-1.738,0.458 -1.707,0.405 -1.665,0.375C-1.622,0.344 -1.569,0.333 -1.517,0.326C-1.417,0.314 -1.316,0.314 -1.217,0.297C-1.107,0.279 -0.962,0.228 -0.919,0.114C-0.907,0.084 -0.904,0.051 -0.901,0.019C-0.884,-0.181 -0.833,-0.386 -0.92,-0.577C-0.963,-0.669 -1.03,-0.75 -1.064,-0.847C-1.074,-0.875 -1.081,-0.907 -1.071,-0.936C-1.031,-1.048 -0.803,-0.889 -0.74,-0.862C-0.57,-0.787 -0.399,-0.712 -0.229,-0.635C-0.077,-0.565 0.077,-0.523 0.232,-0.459C0.271,-0.443 0.311,-0.427 0.342,-0.399C0.412,-0.337 0.424,-0.228 0.391,-0.141C0.391,-0.063 0.258,0.045 0.2,0.082C0.136,0.123 0.047,0.143 0,0.206" style="fill:rgb(21,90,105);fill-rule:nonzero;"/>
            </g>
            <g transform="matrix(1,0,0,1,14.3744,12.1503)">
                <path d="M0,0.206C0.043,0.264 0.016,0.547 -0.069,0.552C-0.129,0.555 -0.188,0.559 -0.248,0.563C-0.291,0.565 -0.338,0.569 -0.371,0.598C-0.419,0.64 -0.415,0.716 -0.391,0.775C-0.377,0.806 -0.357,0.837 -0.326,0.851C-0.309,0.859 -0.29,0.86 -0.272,0.861C-0.213,0.863 -0.154,0.856 -0.098,0.84C-0.066,0.831 -0.033,0.819 -0.001,0.829C0.018,0.835 0.033,0.849 0.047,0.863C0.109,0.928 0.116,1.009 0.163,1.079C0.206,1.144 0.26,1.209 0.335,1.232C0.41,1.254 0.507,1.217 0.522,1.14C0.532,1.088 0.502,1.037 0.469,0.996C0.435,0.956 0.394,0.918 0.375,0.869C0.361,0.833 0.359,0.794 0.358,0.755C0.354,0.634 0.349,0.513 0.344,0.392C0.341,0.312 0.318,0.183 0.369,0.114C0.407,0.061 0.489,0.053 0.545,0.085C0.68,0.163 0.606,0.321 0.703,0.426C0.749,0.475 0.807,0.512 0.859,0.555C0.938,0.622 1.046,0.665 1.061,0.777C1.068,0.827 1.065,0.879 1.075,0.928C1.086,0.979 1.113,1.028 1.155,1.057C1.198,1.086 1.258,1.092 1.302,1.065C1.362,1.028 1.375,0.947 1.37,0.877C1.366,0.807 1.35,0.735 1.373,0.669C1.377,0.659 1.381,0.649 1.389,0.643C1.4,0.634 1.414,0.631 1.428,0.629C1.486,0.623 1.545,0.628 1.602,0.616C1.658,0.603 1.715,0.566 1.727,0.509C1.738,0.458 1.708,0.405 1.665,0.375C1.622,0.344 1.569,0.333 1.517,0.326C1.417,0.314 1.316,0.314 1.217,0.297C1.108,0.279 0.963,0.228 0.919,0.114C0.907,0.084 0.905,0.051 0.901,0.019C0.884,-0.181 0.833,-0.386 0.92,-0.577C0.963,-0.669 1.03,-0.75 1.064,-0.847C1.074,-0.875 1.081,-0.907 1.071,-0.936C1.031,-1.048 0.802,-0.889 0.741,-0.862C0.57,-0.787 0.399,-0.712 0.229,-0.635C0.077,-0.565 -0.077,-0.523 -0.232,-0.459C-0.271,-0.443 -0.311,-0.427 -0.342,-0.399C-0.412,-0.337 -0.424,-0.228 -0.391,-0.141C-0.391,-0.063 -0.258,0.045 -0.2,0.082C-0.136,0.123 -0.046,0.143 0,0.206" style="fill:rgb(21,90,105);fill-rule:nonzero;"/>
            </g>
            <g transform="matrix(1,0,0,1,1.7494,1.47034)">
                <path d="M0,4.095C0.054,4.042 0.025,3.928 0.025,3.852C0.025,3.755 0.067,3.681 0.156,3.626C0.268,3.557 0.383,3.488 0.495,3.422C0.655,3.327 0.821,3.228 0.98,3.125C1.256,2.947 1.534,2.763 1.803,2.585C2.051,2.421 2.308,2.251 2.562,2.087C2.667,2.019 2.776,1.953 2.882,1.89C3.118,1.75 3.362,1.604 3.575,1.416C3.697,1.307 3.886,1.239 4.093,1.23C4.451,1.215 4.814,1.217 5.168,1.22C5.308,1.222 5.448,1.223 5.588,1.223C5.596,1.223 5.604,1.222 5.612,1.222C5.622,1.222 5.632,1.223 5.641,1.229C5.745,1.301 5.859,1.295 5.979,1.289C6.011,1.288 6.043,1.287 6.085,1.287C6.272,1.289 6.464,1.289 6.648,1.288C6.883,1.287 7.126,1.286 7.366,1.291L7.391,1.291C7.603,1.291 7.742,1.24 7.851,1.122C7.925,1.043 8.011,1.036 8.099,1.04L8.117,1.041C8.194,1.045 8.275,1.049 8.351,1.04C8.502,1.023 8.615,1.071 8.703,1.188C8.767,1.272 8.85,1.291 8.969,1.291L8.99,1.291C9.179,1.287 9.371,1.288 9.556,1.289C9.75,1.289 9.948,1.29 10.143,1.287C10.237,1.285 10.331,1.285 10.425,1.285C10.718,1.284 11.022,1.283 11.321,1.233C11.638,1.179 11.973,1.203 12.263,1.229C12.509,1.252 12.746,1.286 12.936,1.462C13.034,1.551 13.15,1.625 13.263,1.697L13.31,1.727C13.545,1.878 13.782,2.027 14.019,2.177C14.279,2.342 14.539,2.507 14.8,2.673C14.91,2.744 15.02,2.816 15.131,2.888C15.507,3.132 15.896,3.385 16.295,3.606C16.417,3.673 16.468,3.759 16.467,3.893C16.467,3.95 16.444,4.031 16.474,4.084C16.509,4.144 16.625,4.121 16.684,4.121L16.934,4.121C16.999,4.121 17.093,4.122 17.088,4.034C17.081,3.932 17.032,3.826 17.018,3.722C17.003,3.618 16.905,3.553 16.809,3.491L16.775,3.468C16.497,3.283 16.216,3.092 15.944,2.908C15.485,2.597 15.012,2.276 14.538,1.97C14.358,1.855 14.178,1.733 14.004,1.616C13.665,1.386 13.314,1.149 12.95,0.947C12.772,0.848 12.566,0.725 12.393,0.564C12.244,0.427 12.097,0.397 11.924,0.397L11.908,0.397C11.54,0.401 11.167,0.399 10.807,0.399C10.356,0.399 9.89,0.398 9.432,0.405L9.412,0.405C9.146,0.405 8.916,0.315 8.729,0.137C8.587,0.002 8.441,-0.049 8.249,-0.031C8.185,-0.025 8.116,-0.024 8.033,-0.029C7.917,-0.037 7.842,-0.007 7.785,0.065C7.76,0.097 7.729,0.126 7.698,0.153C7.686,0.164 7.674,0.175 7.662,0.187C7.512,0.332 7.338,0.402 7.131,0.402L7.114,0.402C6.812,0.397 6.503,0.398 6.207,0.399C6.089,0.4 5.971,0.4 5.853,0.4L5.833,0.401L5.466,0.401C5.119,0.401 4.771,0.401 4.42,0.4C4.331,0.4 4.264,0.412 4.207,0.473C4.178,0.502 4.142,0.523 4.109,0.543C4.093,0.551 4.079,0.56 4.065,0.569L3.617,0.862C3.239,1.11 2.86,1.358 2.482,1.607L2.176,1.808C1.643,2.158 1.092,2.52 0.553,2.88C0.214,3.105 -0.08,3.309 -0.346,3.502C-0.5,3.614 -0.653,3.763 -0.618,4.017C-0.606,4.1 -0.579,4.12 -0.496,4.121C-0.423,4.122 -0.349,4.121 -0.275,4.121C-0.201,4.121 -0.123,4.136 -0.049,4.12C-0.028,4.115 -0.012,4.107 0,4.095" style="fill:rgb(147,141,126);fill-rule:nonzero;"/>
            </g>
            <g transform="matrix(1,0,0,1,4.7984,6.62334)">
                <path d="M0,3.475C-0.075,3.386 -0.153,3.293 -0.188,3.187C-0.224,3.075 -0.216,2.95 -0.209,2.829C-0.206,2.777 -0.203,2.724 -0.204,2.672C-0.204,2.654 -0.203,2.636 -0.202,2.618C-0.2,2.578 -0.198,2.54 -0.208,2.508C-0.214,2.488 -0.22,2.469 -0.225,2.45C-0.282,2.256 -0.336,2.073 -0.551,1.985C-0.656,1.942 -0.756,1.884 -0.854,1.828C-0.901,1.8 -0.949,1.773 -0.998,1.747C-1.012,1.74 -1.028,1.738 -1.044,1.743C-1.066,1.751 -1.086,1.772 -1.099,1.801C-1.207,2.043 -1.314,2.285 -1.421,2.528C-1.455,2.604 -1.446,2.674 -1.394,2.748C-1.37,2.781 -1.41,2.842 -1.418,2.854C-1.432,2.875 -1.461,2.91 -1.49,2.902C-1.523,2.894 -1.56,2.874 -1.597,2.844C-1.619,2.827 -1.645,2.794 -1.649,2.761L-1.651,2.738C-1.662,2.632 -1.673,2.523 -1.626,2.415C-1.588,2.328 -1.551,2.241 -1.514,2.153C-1.486,2.087 -1.458,2.021 -1.429,1.955C-1.417,1.925 -1.403,1.895 -1.389,1.865C-1.362,1.807 -1.335,1.748 -1.314,1.688C-1.307,1.667 -1.29,1.599 -1.356,1.569C-1.438,1.532 -1.514,1.502 -1.587,1.477C-1.652,1.455 -1.718,1.432 -1.783,1.409C-1.963,1.346 -2.15,1.279 -2.338,1.232C-2.456,1.203 -2.56,1.148 -2.66,1.094C-2.705,1.069 -2.752,1.044 -2.799,1.022C-2.947,0.953 -3.028,0.81 -3.026,0.62C-3.023,0.304 -3.021,-0.014 -3.021,-0.331L-3.021,-0.588C-3.021,-0.642 -3.007,-0.714 -3.022,-0.767C-3.053,-0.871 -3.176,-0.832 -3.255,-0.832C-3.339,-0.831 -3.422,-0.831 -3.506,-0.833C-3.599,-0.834 -3.651,-0.84 -3.669,-0.73C-3.681,-0.656 -3.667,-0.58 -3.667,-0.507C-3.668,-0.18 -3.668,0.157 -3.665,0.489C-3.664,0.594 -3.693,0.678 -3.763,0.771C-3.78,0.793 -3.798,0.816 -3.816,0.839C-3.919,0.973 -4.025,1.11 -4.068,1.261C-4.104,1.385 -4.095,1.527 -4.088,1.663C-4.084,1.724 -4.08,1.787 -4.08,1.848L-4.08,1.86C-4.08,1.871 -4.079,1.882 -4.081,1.894C-4.098,1.984 -4.061,2.061 -3.968,2.129C-3.87,2.2 -3.773,2.255 -3.682,2.292C-3.592,2.329 -3.497,2.361 -3.406,2.392C-3.303,2.427 -3.196,2.463 -3.094,2.506C-2.779,2.639 -2.453,2.758 -2.137,2.873C-1.835,2.982 -1.524,3.095 -1.222,3.221C-1.183,3.238 -1.142,3.251 -1.098,3.265C-1.048,3.281 -0.996,3.297 -0.947,3.319C-0.82,3.375 -0.672,3.467 -0.662,3.677C-0.661,3.71 -0.645,3.74 -0.628,3.772C-0.607,3.814 -0.582,3.862 -0.591,3.921C-0.599,3.976 -0.557,4.018 -0.518,4.038C-0.341,4.127 -0.158,4.212 0.018,4.295L0.124,4.344C0.129,4.346 0.141,4.346 0.15,4.341L0.165,4.335C0.176,4.33 0.201,4.32 0.205,4.314C0.21,4.264 0.212,4.207 0.215,4.153C0.217,4.11 0.219,4.067 0.222,4.024C0.235,3.873 0.195,3.734 0.1,3.601C0.07,3.559 0.034,3.516 0,3.475" style="fill:rgb(106,153,158);fill-rule:nonzero;"/>
            </g>
            <g transform="matrix(1,0,0,1,19.1844,8.97534)">
                <path d="M0,-1.212C-0.047,-1.259 -0.083,-1.316 -0.119,-1.371C-0.152,-1.421 -0.186,-1.473 -0.226,-1.516C-0.297,-1.592 -0.326,-1.674 -0.325,-1.799C-0.324,-1.963 -0.325,-2.126 -0.326,-2.29C-0.328,-2.517 -0.328,-2.744 -0.324,-2.971C-0.324,-3.037 -0.296,-3.144 -0.37,-3.18C-0.42,-3.203 -0.486,-3.186 -0.538,-3.187C-0.635,-3.188 -0.732,-3.189 -0.829,-3.184C-0.923,-3.18 -0.963,-3.157 -0.973,-3.06C-0.981,-2.989 -0.968,-2.92 -0.968,-2.849L-0.968,-2.389C-0.967,-2.199 -0.967,-2.009 -0.967,-1.819C-0.967,-1.808 -0.966,-1.797 -0.966,-1.785C-0.964,-1.751 -0.962,-1.717 -0.976,-1.677C-1.019,-1.55 -1.062,-1.418 -1.213,-1.347C-1.282,-1.316 -1.349,-1.283 -1.416,-1.25C-1.682,-1.12 -1.958,-0.984 -2.271,-0.943C-2.378,-0.929 -2.484,-0.879 -2.586,-0.83C-2.629,-0.81 -2.672,-0.789 -2.716,-0.771C-2.687,-0.62 -2.637,-0.472 -2.566,-0.333C-2.553,-0.307 -2.539,-0.282 -2.525,-0.257C-2.498,-0.209 -2.471,-0.159 -2.45,-0.107C-2.399,0.025 -2.36,0.136 -2.334,0.252C-2.304,0.386 -2.357,0.497 -2.479,0.559C-2.514,0.576 -2.588,0.546 -2.608,0.513C-2.632,0.476 -2.636,0.41 -2.617,0.371C-2.581,0.299 -2.586,0.246 -2.611,0.161C-2.633,0.083 -2.665,0.008 -2.696,-0.063C-2.714,-0.105 -2.732,-0.146 -2.748,-0.188C-2.764,-0.23 -2.785,-0.27 -2.805,-0.31C-2.842,-0.381 -2.879,-0.455 -2.894,-0.54C-2.898,-0.573 -2.922,-0.6 -2.956,-0.613C-2.991,-0.627 -3.029,-0.623 -3.058,-0.601C-3.142,-0.536 -3.236,-0.486 -3.326,-0.438C-3.382,-0.408 -3.44,-0.377 -3.495,-0.343C-3.686,-0.224 -3.787,-0.047 -3.785,0.167C-3.785,0.248 -3.786,0.328 -3.787,0.408C-3.789,0.511 -3.79,0.618 -3.788,0.723C-3.785,0.821 -3.813,0.893 -3.879,0.965C-4.219,1.33 -4.219,1.33 -4.213,1.813C-4.213,1.855 -4.211,1.898 -4.209,1.94C-4.208,1.953 -4.196,1.969 -4.18,1.979C-4.168,1.987 -4.155,1.991 -4.146,1.987C-4.089,1.963 -4.033,1.94 -3.976,1.917C-3.83,1.857 -3.677,1.794 -3.531,1.727C-3.433,1.682 -3.387,1.609 -3.395,1.511L-3.397,1.484C-3.401,1.432 -3.407,1.378 -3.387,1.333C-3.377,1.307 -3.367,1.281 -3.358,1.255C-3.315,1.137 -3.267,1.004 -3.106,0.972C-2.951,0.942 -2.804,0.88 -2.663,0.821C-2.553,0.774 -2.439,0.725 -2.321,0.692C-2.179,0.651 -2.037,0.591 -1.901,0.533C-1.772,0.478 -1.639,0.421 -1.503,0.38C-1.391,0.346 -1.28,0.3 -1.174,0.256C-1.027,0.196 -0.876,0.134 -0.715,0.099C-0.604,0.074 -0.495,0.021 -0.39,-0.031C-0.322,-0.064 -0.252,-0.099 -0.179,-0.126C-0.024,-0.185 0.037,-0.273 0.026,-0.422C0.018,-0.535 0.033,-0.642 0.075,-0.76C0.142,-0.945 0.117,-1.093 0,-1.212" style="fill:rgb(106,153,158);fill-rule:nonzero;"/>
            </g>
        </g>
    </g>
</svg>
