<?xml version="1.0" encoding="UTF-8" standalone="no"?>
<!DOCTYPE svg PUBLIC "-//W3C//DTD SVG 1.1//EN" "http://www.w3.org/Graphics/SVG/1.1/DTD/svg11.dtd">
<svg width="100%" height="100%" viewBox="0 0 20 20" version="1.1" xmlns="http://www.w3.org/2000/svg" xmlns:xlink="http://www.w3.org/1999/xlink" xml:space="preserve" xmlns:serif="http://www.serif.com/" style="fill-rule:evenodd;clip-rule:evenodd;stroke-linejoin:round;stroke-miterlimit:2;">
    <g transform="matrix(1.01414,0,0,1.01414,-0.141418,-0.141418)">
        <g id="Mamuraak">
            <g transform="matrix(1,0,0,1,3.43812,6.38771)">
                <path d="M0,-1.464C-0.03,-1.445 -0.122,-1.382 -0.084,-1.305C-0.017,-1.169 0.027,-1.024 0.069,-0.885C0.092,-0.808 0.116,-0.729 0.143,-0.653C0.171,-0.574 0.207,-0.497 0.242,-0.421C0.307,-0.279 0.375,-0.131 0.396,0.033C0.397,0.043 0.438,0.068 0.469,0.073C0.513,0.079 0.559,0.077 0.604,0.077C0.623,0.076 0.643,0.076 0.662,0.076L0.728,0.077C0.751,0.077 0.773,0.076 0.796,0.076C0.829,0.076 0.863,0.077 0.896,0.078L0.9,0.078C0.925,0.078 0.957,0.07 0.972,0.035C0.979,0.018 0.987,0 0.995,-0.018C1.019,-0.07 1.044,-0.124 1.042,-0.174C1.038,-0.298 1.065,-0.417 1.091,-0.534C1.122,-0.665 1.153,-0.801 1.135,-0.938C1.127,-1.002 1.153,-1.053 1.179,-1.103C1.184,-1.112 1.188,-1.121 1.193,-1.13C1.202,-1.149 1.202,-1.166 1.195,-1.181C1.186,-1.198 1.165,-1.211 1.141,-1.215C1.094,-1.223 1.047,-1.223 0.998,-1.222C0.917,-1.223 0.834,-1.221 0.753,-1.259C0.684,-1.29 0.612,-1.319 0.543,-1.346C0.436,-1.388 0.326,-1.431 0.225,-1.489C0.129,-1.543 0.078,-1.512 0,-1.464" style="fill:rgb(40,79,142);fill-rule:nonzero;"/>
            </g>
            <g transform="matrix(1,0,0,1,16.3121,6.42771)">
                <path d="M0,-1.547C-0.034,-1.528 -0.068,-1.511 -0.104,-1.495L-0.146,-1.474C-0.374,-1.365 -0.61,-1.252 -0.879,-1.252C-0.889,-1.252 -0.9,-1.252 -0.91,-1.253L-0.911,-1.253C-0.934,-1.253 -0.952,-1.226 -0.956,-1.188C-0.965,-1.107 -0.944,-1.027 -0.923,-0.95C-0.905,-0.881 -0.886,-0.81 -0.889,-0.738C-0.894,-0.613 -0.867,-0.492 -0.84,-0.374C-0.814,-0.258 -0.787,-0.139 -0.79,-0.016C-0.791,-0.003 -0.786,0.008 -0.778,0.017C-0.767,0.028 -0.75,0.034 -0.731,0.035L-0.519,0.035L-0.519,0.044L-0.24,0.025C-0.172,-0.083 -0.134,-0.176 -0.116,-0.275C-0.106,-0.331 -0.076,-0.382 -0.047,-0.432C-0.03,-0.46 -0.012,-0.49 0.001,-0.52C0.015,-0.553 0.031,-0.587 0.047,-0.62C0.095,-0.724 0.145,-0.831 0.169,-0.94C0.195,-1.063 0.223,-1.19 0.271,-1.31C0.277,-1.325 0.287,-1.34 0.297,-1.355C0.305,-1.367 0.319,-1.388 0.318,-1.394C0.305,-1.425 0.276,-1.453 0.249,-1.48C0.24,-1.489 0.231,-1.497 0.223,-1.506C0.154,-1.577 0.082,-1.591 0,-1.547" style="fill:rgb(40,79,142);fill-rule:nonzero;"/>
            </g>
            <g transform="matrix(1,0,0,1,15.5891,8.78771)">
                <path d="M0,-0.128C0.037,-0.128 0.075,-0.131 0.103,-0.111C0.161,-0.071 0.217,-0.028 0.272,0.014C0.338,0.065 0.406,0.117 0.476,0.163C0.55,0.212 0.62,0.268 0.688,0.322C0.816,0.425 0.949,0.531 1.111,0.586L1.118,0.591C1.204,0.684 1.276,0.645 1.36,0.598C1.387,0.584 1.415,0.569 1.443,0.559C1.447,0.551 1.451,0.526 1.448,0.512C1.444,0.496 1.432,0.476 1.413,0.457C1.018,0.061 0.622,-0.335 0.226,-0.731L0.222,-0.735C0.214,-0.743 0.207,-0.75 0.199,-0.757C0.142,-0.807 0.063,-0.812 0.009,-0.769L0.001,-0.763C-0.025,-0.741 -0.054,-0.719 -0.076,-0.694C-0.1,-0.667 -0.127,-0.643 -0.153,-0.619C-0.208,-0.568 -0.26,-0.519 -0.288,-0.451L-0.254,-0.414C-0.198,-0.353 -0.142,-0.292 -0.086,-0.23C-0.079,-0.222 -0.077,-0.212 -0.076,-0.202L-0.074,-0.202C-0.035,-0.191 -0.009,-0.166 0,-0.128" style="fill:rgb(142,173,219);fill-rule:nonzero;"/>
            </g>
            <g transform="matrix(1,0,0,1,10.9461,4.68971)">
                <path d="M0,0.147C-0.248,-0.003 -0.494,-0.147 -0.73,-0.28C-0.914,-0.385 -1.035,-0.413 -1.192,-0.27C-1.265,-0.204 -1.361,-0.164 -1.454,-0.125C-1.505,-0.104 -1.557,-0.082 -1.605,-0.057C-1.688,-0.011 -1.774,0.045 -1.86,0.11C-1.894,0.137 -1.933,0.182 -1.936,0.219C-1.941,0.27 -1.916,0.275 -1.863,0.281C-1.845,0.283 -1.827,0.285 -1.81,0.291C-1.741,0.315 -1.674,0.346 -1.608,0.376L-1.597,0.382C-1.401,0.472 -1.217,0.543 -0.985,0.512L-0.981,0.512L-0.978,0.513C-0.828,0.56 -0.676,0.506 -0.514,0.448C-0.482,0.437 -0.449,0.425 -0.416,0.414C-0.297,0.375 -0.18,0.32 -0.067,0.267L0.003,0.235C0.02,0.227 0.03,0.214 0.031,0.198C0.032,0.179 0.02,0.159 0,0.147" style="fill:rgb(160,213,176);fill-rule:nonzero;"/>
            </g>
            <g transform="matrix(1,0,0,1,11.6901,5.21271)">
                <path d="M0,0.213C-0.001,0.208 -0.003,0.203 -0.005,0.2C-0.158,0.001 -0.544,-0.106 -0.796,-0.02C-0.813,-0.014 -0.832,0.001 -0.848,0.022C-0.858,0.034 -0.867,0.053 -0.868,0.061C-0.782,0.171 -0.661,0.239 -0.534,0.304C-0.506,0.318 -0.457,0.319 -0.439,0.305C-0.348,0.241 -0.248,0.238 -0.151,0.235C-0.107,0.233 -0.06,0.231 -0.016,0.223C-0.012,0.222 -0.006,0.218 -0.001,0.214C-0.001,0.214 -0.001,0.213 0,0.213" style="fill:rgb(142,173,219);fill-rule:nonzero;"/>
            </g>
            <g transform="matrix(1,0,0,1,6.12612,7.98371)">
                <path d="M0,-0.548C-0.043,-0.547 -0.08,-0.529 -0.1,-0.497C-0.119,-0.466 -0.12,-0.426 -0.103,-0.387C-0.012,-0.188 0.089,-0.056 0.217,0.028C0.275,0.067 0.347,0.061 0.429,0.056C0.478,0.053 0.529,0.049 0.585,0.054L0.638,0.05C0.701,0.047 0.778,0.042 0.854,0.033C0.858,0.03 0.872,0.006 0.872,-0.002C0.793,-0.156 0.686,-0.364 0.572,-0.567C0.56,-0.589 0.543,-0.603 0.523,-0.609C0.504,-0.615 0.483,-0.61 0.464,-0.598C0.406,-0.564 0.349,-0.547 0.285,-0.547C0.28,-0.547 0.276,-0.547 0.271,-0.548C0.182,-0.551 0.092,-0.55 0,-0.548M0.295,-0.394C0.375,-0.417 0.477,-0.435 0.572,-0.382C0.597,-0.368 0.617,-0.347 0.635,-0.326C0.644,-0.317 0.652,-0.309 0.66,-0.301L0.674,-0.288L0.661,-0.275C0.65,-0.265 0.641,-0.252 0.631,-0.24C0.607,-0.21 0.583,-0.179 0.549,-0.168C0.505,-0.151 0.455,-0.15 0.412,-0.149C0.394,-0.149 0.378,-0.149 0.363,-0.147C0.345,-0.149 0.331,-0.149 0.317,-0.15C0.287,-0.152 0.258,-0.153 0.231,-0.162C0.205,-0.171 0.183,-0.206 0.177,-0.234C0.171,-0.262 0.179,-0.297 0.197,-0.317C0.224,-0.349 0.256,-0.383 0.295,-0.394" style="fill:rgb(40,79,142);fill-rule:nonzero;"/>
            </g>
            <g transform="matrix(1,0,0,1,8.73612,5.53571)">
                <path d="M0,-0.365C-0.122,-0.355 -0.223,-0.295 -0.331,-0.233C-0.365,-0.212 -0.401,-0.192 -0.437,-0.173L-0.437,-0.167C-0.437,-0.16 -0.437,-0.151 -0.44,-0.144C-0.443,-0.132 -0.443,-0.122 -0.44,-0.116C-0.437,-0.111 -0.431,-0.108 -0.422,-0.106L-0.364,-0.096C-0.261,-0.079 -0.154,-0.061 -0.051,-0.022C0.042,0.013 0.134,-0.013 0.21,-0.095C0.259,-0.148 0.318,-0.191 0.375,-0.232C0.394,-0.246 0.412,-0.259 0.43,-0.272C0.419,-0.279 0.408,-0.286 0.397,-0.294C0.355,-0.321 0.311,-0.35 0.265,-0.36C0.181,-0.378 0.089,-0.373 0,-0.365" style="fill:rgb(142,173,219);fill-rule:nonzero;"/>
            </g>
            <g transform="matrix(1,0,0,1,13.8511,7.66671)">
                <path d="M0,0.086C0.064,0.021 0.062,-0.056 0.061,-0.138L0.06,-0.154C0.059,-0.199 0.033,-0.223 -0.02,-0.23C-0.075,-0.237 -0.131,-0.233 -0.186,-0.23C-0.284,-0.225 -0.386,-0.219 -0.484,-0.267C-0.512,-0.282 -0.517,-0.284 -0.531,-0.272C-0.609,-0.211 -0.685,-0.142 -0.696,-0.036L-0.694,-0.037L-0.69,-0.02L-0.68,-0.02C-0.653,-0.022 -0.628,-0.023 -0.612,-0.034C-0.497,-0.109 -0.39,-0.111 -0.266,-0.039C-0.245,-0.027 -0.228,-0.018 -0.215,-0.011C-0.179,0.008 -0.164,0.016 -0.16,0.033C-0.157,0.048 -0.166,0.058 -0.178,0.073C-0.215,0.119 -0.255,0.162 -0.319,0.165C-0.386,0.167 -0.452,0.168 -0.516,0.166C-0.615,0.163 -0.681,0.113 -0.714,0.018L-0.719,0.018C-0.763,0.045 -0.786,0.09 -0.81,0.138C-0.834,0.184 -0.858,0.232 -0.904,0.265C-0.914,0.272 -0.92,0.282 -0.922,0.293C-0.924,0.308 -0.919,0.326 -0.907,0.341C-0.899,0.352 -0.875,0.362 -0.855,0.362C-0.676,0.366 -0.493,0.361 -0.31,0.37L-0.297,0.37C-0.208,0.37 -0.156,0.321 -0.106,0.248C-0.094,0.229 -0.082,0.209 -0.071,0.189C-0.051,0.153 -0.03,0.116 0,0.086" style="fill:rgb(40,79,142);fill-rule:nonzero;"/>
            </g>
            <g transform="matrix(1,0,0,1,15.4761,10.3537)">
                <path d="M0,-1.734C-0.009,-1.737 -0.019,-1.739 -0.028,-1.74C-0.062,-1.748 -0.098,-1.756 -0.13,-1.771C-0.178,-1.792 -0.216,-1.807 -0.238,-1.807C-0.244,-1.807 -0.249,-1.806 -0.252,-1.804C-0.269,-1.794 -0.274,-1.751 -0.276,-1.71C-0.277,-1.687 -0.277,-1.664 -0.277,-1.642C-0.277,-1.612 -0.277,-1.582 -0.28,-1.553C-0.31,-1.275 -0.31,-1.275 -0.23,-1.032L-0.226,-1.023C-0.186,-0.901 -0.152,-0.776 -0.119,-0.655C-0.102,-0.592 -0.06,-0.545 -0.005,-0.529C0.206,-0.464 0.409,-0.372 0.605,-0.283C0.728,-0.226 0.857,-0.168 0.985,-0.117C1.025,-0.101 1.064,-0.084 1.103,-0.068C1.168,-0.039 1.235,-0.01 1.303,0.011C1.435,0.052 1.576,0.073 1.717,-0.051C1.849,-0.166 2.002,-0.251 2.174,-0.342C2.469,-0.497 2.759,-0.67 3.041,-0.838L3.206,-0.936C3.211,-0.939 3.216,-0.942 3.222,-0.945C3.242,-0.956 3.27,-0.97 3.274,-0.989C3.277,-0.998 3.273,-1.009 3.264,-1.022C3.238,-1.057 3.194,-1.087 3.151,-1.1C3.107,-1.113 3.047,-1.117 3.01,-1.099C2.908,-1.05 2.8,-1.025 2.68,-1.025L2.663,-1.025C2.609,-1.025 2.562,-1.006 2.511,-0.985C2.457,-0.963 2.402,-0.94 2.337,-0.94L2.327,-0.94C2.274,-0.94 2.222,-0.922 2.167,-0.903C2.104,-0.88 2.039,-0.859 1.966,-0.861C1.904,-0.793 1.825,-0.791 1.749,-0.788C1.696,-0.787 1.646,-0.785 1.602,-0.763C1.344,-0.631 1.134,-0.76 0.98,-0.886C0.949,-0.911 0.921,-0.941 0.893,-0.969C0.847,-1.017 0.803,-1.062 0.749,-1.088C0.675,-1.125 0.618,-1.178 0.562,-1.229C0.534,-1.255 0.504,-1.282 0.473,-1.306C0.432,-1.338 0.392,-1.369 0.35,-1.4C0.29,-1.446 0.228,-1.493 0.168,-1.541L0.163,-1.545C0.129,-1.573 0.091,-1.604 0.08,-1.654L0.076,-1.654L0.076,-1.657C0.035,-1.667 0.008,-1.694 0,-1.734" style="fill:rgb(40,79,142);fill-rule:nonzero;"/>
            </g>
            <g transform="matrix(1,0,0,1,8.90312,12.8327)">
                <path d="M0,0.522C0.007,0.534 0.014,0.545 0.021,0.557C0.044,0.6 0.119,0.628 0.162,0.61C0.179,0.603 0.196,0.597 0.213,0.591C0.256,0.576 0.301,0.56 0.329,0.532C0.449,0.41 0.601,0.36 0.805,0.375L0.819,0.376C0.839,0.378 0.86,0.38 0.872,0.373C1.017,0.288 1.165,0.288 1.324,0.372C1.51,0.346 1.665,0.425 1.815,0.501C1.857,0.523 1.9,0.545 1.943,0.564C1.956,0.57 1.966,0.577 1.977,0.585C1.987,0.593 1.997,0.601 2.008,0.604C2.052,0.619 2.086,0.599 2.127,0.561C2.177,0.516 2.182,0.459 2.181,0.409C2.183,0.303 2.174,0.292 2.071,0.26C2.061,0.257 2.05,0.254 2.039,0.251C2.01,0.245 1.981,0.238 1.958,0.22C1.886,0.166 1.842,0.198 1.781,0.256C1.775,0.261 1.77,0.267 1.764,0.273C1.73,0.307 1.689,0.351 1.631,0.328C1.617,0.323 1.603,0.318 1.59,0.313C1.517,0.289 1.442,0.263 1.399,0.185C1.393,0.171 1.385,0.158 1.377,0.146C1.359,0.114 1.339,0.081 1.326,0.045L1.32,0.028C1.306,-0.014 1.296,-0.044 1.249,-0.052C1.223,-0.057 1.195,-0.066 1.169,-0.075C1.122,-0.091 1.079,-0.106 1.044,-0.095C1.03,-0.09 1.014,-0.085 0.998,-0.081C0.918,-0.057 0.834,-0.033 0.812,0.06C0.793,0.135 0.752,0.187 0.71,0.232C0.591,0.359 0.501,0.366 0.352,0.261C0.342,0.253 0.33,0.243 0.317,0.233C0.305,0.223 0.288,0.21 0.277,0.203C0.235,0.236 0.184,0.245 0.134,0.253C0.072,0.263 0.014,0.274 -0.02,0.331C-0.042,0.368 -0.052,0.403 -0.047,0.424C-0.039,0.457 -0.02,0.489 0,0.522" style="fill:rgb(160,213,176);fill-rule:nonzero;"/>
            </g>
            <g transform="matrix(1,0,0,1,11.9151,16.2357)">
                <path d="M0,-2.184C-0.015,-2.184 -0.03,-2.164 -0.044,-2.147C-0.093,-2.085 -0.25,-1.916 -0.338,-1.939C-0.393,-1.953 -0.416,-2.023 -0.4,-2.076C-0.368,-2.187 -0.247,-2.303 -0.199,-2.419C-0.171,-2.482 -0.145,-2.543 -0.136,-2.606C-0.11,-2.774 -0.084,-2.948 -0.246,-3.096C-0.334,-3.177 -0.377,-3.308 -0.369,-3.468C-0.36,-3.628 -0.362,-3.792 -0.364,-3.951C-0.365,-4.012 -0.366,-4.072 -0.366,-4.133C-0.366,-4.155 -0.369,-4.179 -0.375,-4.206C-0.378,-4.219 -0.381,-4.222 -0.381,-4.222C-0.383,-4.221 -0.398,-4.212 -0.404,-4.209C-0.44,-4.189 -0.479,-4.178 -0.518,-4.169C-0.53,-4.165 -0.542,-4.163 -0.554,-4.159C-0.643,-4.134 -0.644,-4.134 -0.646,-4.047C-0.647,-3.969 -0.646,-3.89 -0.646,-3.812L-0.646,-3.733C-0.646,-3.706 -0.645,-3.678 -0.645,-3.65C-0.644,-3.587 -0.643,-3.522 -0.647,-3.458C-0.65,-3.403 -0.665,-3.349 -0.689,-3.305C-0.706,-3.273 -0.695,-3.257 -0.67,-3.229C-0.651,-3.208 -0.628,-3.182 -0.633,-3.143C-0.639,-3.093 -0.638,-3.041 -0.636,-2.99C-0.635,-2.951 -0.635,-2.91 -0.637,-2.87C-0.639,-2.834 -0.656,-2.791 -0.682,-2.756C-0.766,-2.64 -0.869,-2.586 -1.006,-2.586L-1.029,-2.586C-1.133,-2.591 -1.216,-2.634 -1.296,-2.676L-1.325,-2.691C-1.349,-2.703 -1.371,-2.716 -1.395,-2.729C-1.474,-2.774 -1.55,-2.817 -1.635,-2.822C-1.835,-2.833 -2.04,-2.828 -2.237,-2.823L-2.26,-2.822C-2.295,-2.822 -2.332,-2.804 -2.369,-2.788C-2.378,-2.784 -2.387,-2.779 -2.397,-2.775C-2.418,-2.766 -2.441,-2.758 -2.463,-2.749C-2.524,-2.725 -2.586,-2.7 -2.636,-2.663C-2.737,-2.585 -2.846,-2.587 -2.944,-2.592C-3.1,-2.596 -3.255,-2.751 -3.263,-2.908C-3.27,-3.039 -3.27,-3.19 -3.185,-3.322L-3.188,-3.558C-3.19,-3.739 -3.191,-3.92 -3.195,-4.101C-3.195,-4.13 -3.216,-4.149 -3.255,-4.156C-3.301,-4.164 -3.35,-4.177 -3.406,-4.193C-3.419,-4.196 -3.452,-4.206 -3.46,-4.202C-3.464,-4.198 -3.467,-4.182 -3.467,-4.152C-3.468,-4.108 -3.469,-4.064 -3.469,-4.019C-3.472,-3.883 -3.474,-3.742 -3.468,-3.605C-3.457,-3.4 -3.51,-3.237 -3.634,-3.091C-3.748,-2.957 -3.847,-2.811 -3.713,-2.626C-3.698,-2.605 -3.699,-2.576 -3.7,-2.548C-3.7,-2.533 -3.701,-2.516 -3.698,-2.503C-3.668,-2.35 -3.393,-2.176 -3.42,-2.022C-3.475,-1.703 -3.792,-2.064 -3.836,-2.186C-3.943,-2.108 -4.05,-2.008 -3.959,-1.875C-3.928,-1.829 -3.931,-1.758 -3.935,-1.697L-3.936,-1.674C-3.939,-1.586 -3.908,-1.517 -3.832,-1.45C-3.807,-1.428 -3.783,-1.404 -3.759,-1.381C-3.728,-1.35 -3.695,-1.318 -3.66,-1.29C-3.574,-1.221 -3.536,-1.131 -3.538,-1.001C-3.541,-0.658 -3.54,-0.309 -3.54,0.029C-3.539,0.15 -3.539,0.271 -3.539,0.392L-3.537,0.409L-3.537,0.628C-3.537,1.065 -3.537,1.501 -3.536,1.938C-3.536,1.949 -3.529,1.962 -3.52,1.98C-3.515,1.977 -3.511,1.973 -3.506,1.97C-3.486,1.956 -3.464,1.941 -3.458,1.925C-3.438,1.868 -3.432,1.803 -3.428,1.741C-3.425,1.691 -3.426,1.638 -3.427,1.587C-3.429,1.481 -3.43,1.37 -3.397,1.272C-3.364,1.174 -3.357,1.08 -3.35,0.982C-3.348,0.953 -3.345,0.924 -3.342,0.895C-3.34,0.868 -3.342,0.838 -3.344,0.808C-3.349,0.754 -3.353,0.698 -3.328,0.656C-3.263,0.539 -3.264,0.42 -3.266,0.293C-3.267,0.239 -3.268,0.183 -3.263,0.127C-3.26,0.1 -3.263,0.068 -3.265,0.039C-3.269,-0.014 -3.274,-0.068 -3.251,-0.112C-3.134,-0.345 -3.184,-0.632 -3.141,-0.882C-3.121,-0.999 -3.084,-1.121 -2.99,-1.2C-2.864,-1.308 -2.732,-1.28 -2.742,-1.491C-2.744,-1.548 -2.742,-1.609 -2.709,-1.656C-2.676,-1.702 -2.602,-1.724 -2.561,-1.685C-2.528,-1.653 -2.529,-1.602 -2.532,-1.557C-2.542,-1.379 -2.54,-1.212 -2.487,-1.041C-2.459,-0.95 -2.429,-0.855 -2.444,-0.75C-2.453,-0.689 -2.447,-0.623 -2.441,-0.56C-2.439,-0.533 -2.437,-0.506 -2.435,-0.48C-2.435,-0.466 -2.423,-0.45 -2.407,-0.441C-2.396,-0.435 -2.385,-0.434 -2.379,-0.437C-2.344,-0.456 -2.337,-0.465 -2.336,-0.468C-2.335,-0.505 -2.332,-0.541 -2.33,-0.578C-2.322,-0.709 -2.314,-0.844 -2.324,-0.974C-2.331,-1.056 -2.306,-1.129 -2.28,-1.199C-2.258,-1.263 -2.237,-1.323 -2.238,-1.389C-2.239,-1.43 -2.188,-1.473 -2.157,-1.491L-2.139,-1.502C-2.089,-1.534 -2.032,-1.569 -1.975,-1.573L-1.961,-1.573C-1.903,-1.573 -1.845,-1.554 -1.789,-1.536C-1.777,-1.532 -1.765,-1.529 -1.754,-1.525C-1.639,-1.49 -1.579,-1.415 -1.587,-1.311C-1.598,-1.146 -1.57,-0.982 -1.542,-0.824C-1.518,-0.683 -1.493,-0.536 -1.485,-0.384C-1.479,-0.389 -1.468,-0.397 -1.467,-0.401C-1.46,-0.493 -1.44,-0.586 -1.421,-0.675C-1.393,-0.808 -1.363,-0.946 -1.378,-1.086C-1.384,-1.155 -1.357,-1.224 -1.362,-1.299C-1.367,-1.391 -1.371,-1.483 -1.373,-1.575C-1.374,-1.605 -1.374,-1.638 -1.358,-1.663C-1.33,-1.704 -1.266,-1.708 -1.225,-1.681C-1.184,-1.654 -1.163,-1.604 -1.155,-1.555C-1.117,-1.318 -0.909,-1.403 -0.783,-1.256C-0.633,-1.081 -0.746,-0.732 -0.657,-0.518C-0.626,-0.444 -0.631,-0.355 -0.635,-0.269C-0.637,-0.233 -0.639,-0.197 -0.638,-0.162C-0.638,-0.12 -0.64,-0.077 -0.643,-0.035C-0.649,0.054 -0.655,0.147 -0.625,0.22C-0.575,0.342 -0.57,0.463 -0.566,0.58C-0.564,0.627 -0.562,0.675 -0.558,0.722C-0.556,0.74 -0.556,0.76 -0.557,0.779C-0.559,0.814 -0.56,0.846 -0.546,0.867C-0.467,0.99 -0.474,1.122 -0.48,1.249C-0.482,1.278 -0.484,1.306 -0.484,1.335C-0.485,1.405 -0.464,1.472 -0.443,1.536C-0.418,1.617 -0.392,1.7 -0.405,1.791C-0.414,1.852 -0.407,1.916 -0.401,1.979C-0.399,1.993 -0.398,2.007 -0.397,2.022C-0.396,2.027 -0.386,2.037 -0.37,2.038L-0.368,1.964C-0.364,1.822 -0.359,1.676 -0.359,1.532C-0.357,0.567 -0.357,-0.17 -0.358,-0.859C-0.359,-1.057 -0.337,-1.278 -0.082,-1.388C-0.014,-1.416 0.029,-1.478 0.037,-1.556C0.04,-1.59 0.055,-1.622 0.068,-1.653C0.082,-1.682 0.094,-1.709 0.097,-1.736C0.11,-1.844 0.112,-1.948 0.103,-2.045C0.1,-2.083 0.067,-2.125 0.032,-2.164C0.02,-2.177 0.01,-2.184 0,-2.184" style="fill:rgb(73,184,182);fill-rule:nonzero;"/>
            </g>
            <g transform="matrix(1,0,0,1,12.5851,12.7407)">
                <path d="M0,-1.557L-0.012,-1.589C-0.035,-1.652 -0.056,-1.683 -0.078,-1.688C-0.1,-1.691 -0.127,-1.674 -0.166,-1.635C-0.273,-1.528 -0.36,-1.439 -0.44,-1.355C-0.535,-1.257 -0.629,-1.158 -0.724,-1.059L-0.839,-0.937L-0.839,-0.414L-0.834,-0.414L-0.834,-0.287C-0.835,-0.156 -0.835,-0.021 -0.833,0.112C-0.831,0.116 -0.82,0.125 -0.814,0.13C-0.812,0.131 -0.811,0.133 -0.809,0.134C-0.806,0.131 -0.802,0.127 -0.801,0.125C-0.793,0.085 -0.774,0.049 -0.757,0.013C-0.729,-0.043 -0.703,-0.096 -0.714,-0.16C-0.741,-0.317 -0.643,-0.422 -0.556,-0.515C-0.493,-0.582 -0.414,-0.619 -0.337,-0.655C-0.309,-0.668 -0.282,-0.682 -0.255,-0.696C-0.211,-0.72 -0.181,-0.743 -0.158,-0.79C-0.145,-0.817 -0.132,-0.843 -0.119,-0.87C-0.066,-0.982 -0.01,-1.099 0.067,-1.196C0.126,-1.269 0.108,-1.307 0.075,-1.375C0.046,-1.434 0.023,-1.496 0,-1.557" style="fill:rgb(142,173,219);fill-rule:nonzero;"/>
            </g>
            <g transform="matrix(1,0,0,1,3.11712,8.85071)">
                <path d="M0,4.917L0.018,4.913C0.104,4.913 0.19,4.912 0.276,4.911C0.474,4.909 0.679,4.907 0.88,4.916C1.04,4.924 1.143,4.85 1.209,4.678C1.218,4.658 1.225,4.638 1.232,4.618C1.247,4.579 1.261,4.539 1.279,4.499C1.438,4.156 1.598,3.801 1.769,3.413C1.812,3.315 1.859,3.217 1.905,3.122C1.985,2.955 2.068,2.783 2.129,2.608C2.171,2.49 2.229,2.378 2.284,2.27C2.366,2.11 2.451,1.944 2.483,1.762L2.486,1.757C2.577,1.597 2.65,1.426 2.72,1.26C2.773,1.136 2.828,1.009 2.889,0.887C2.942,0.783 2.974,0.672 3.005,0.565C3.029,0.481 3.055,0.394 3.09,0.31C3.118,0.243 3.085,0.178 3.049,0.109C3.036,0.084 3.023,0.057 3.012,0.032C2.998,-0.006 2.957,-0.007 2.896,-0.002C2.881,-0.001 2.865,-0.001 2.852,-0.001C2.783,-0.001 2.714,-0.002 2.644,-0.001C2.559,-0.001 2.469,-0.001 2.382,-0.003C2.318,-0.003 2.269,0.024 2.237,0.079C2.228,0.095 2.219,0.111 2.211,0.127C2.144,0.247 2.074,0.372 1.908,0.406C1.905,0.408 1.897,0.428 1.893,0.44C1.886,0.459 1.878,0.481 1.865,0.496C1.83,0.535 1.821,0.582 1.81,0.633C1.802,0.671 1.794,0.709 1.775,0.744C1.696,0.888 1.648,1.045 1.6,1.197C1.588,1.236 1.576,1.276 1.563,1.316C1.537,1.395 1.51,1.473 1.482,1.552C1.447,1.652 1.411,1.756 1.379,1.859C1.345,1.968 1.303,2.075 1.262,2.18C1.229,2.263 1.195,2.348 1.166,2.434C1.117,2.579 1.067,2.723 1.017,2.867C0.882,3.258 0.741,3.663 0.622,4.067C0.582,4.202 0.484,4.295 0.367,4.307C0.17,4.328 0.003,4.324 -0.142,4.292C-0.26,4.267 -0.317,4.153 -0.368,4.053C-0.378,4.033 -0.388,4.013 -0.398,3.995C-0.408,3.976 -0.424,3.961 -0.441,3.945C-0.453,3.933 -0.464,3.922 -0.474,3.91C-0.514,3.862 -0.554,3.815 -0.594,3.769C-0.688,3.66 -0.785,3.547 -0.866,3.426C-1.08,3.109 -1.328,2.81 -1.568,2.521C-1.693,2.371 -1.822,2.215 -1.944,2.059C-2.004,1.984 -2.065,1.908 -2.125,1.833C-2.249,1.68 -2.376,1.52 -2.496,1.358C-2.583,1.24 -2.681,1.125 -2.775,1.013C-2.813,0.968 -2.851,0.923 -2.888,0.878C-2.896,0.868 -2.906,0.859 -2.917,0.849C-2.925,0.841 -2.935,0.832 -2.943,0.823C-2.955,0.809 -2.963,0.806 -2.965,0.806C-2.965,0.806 -2.967,0.808 -2.969,0.814C-2.978,0.84 -2.98,0.862 -2.975,0.873C-2.658,1.509 -2.34,2.145 -2.022,2.78L-1.585,3.652C-1.401,4.018 -1.211,4.397 -1.027,4.771C-0.976,4.877 -0.915,4.919 -0.814,4.919L-0.805,4.919C-0.612,4.914 -0.414,4.915 -0.223,4.916C-0.149,4.917 -0.075,4.917 0,4.917" style="fill:rgb(139,158,180);fill-rule:nonzero;"/>
            </g>
            <g transform="matrix(1,0,0,1,17.2831,9.77671)">
                <path d="M0,4.251C-0.096,4.25 -0.193,4.251 -0.291,4.251L-0.509,4.251C-0.558,4.251 -0.606,4.249 -0.655,4.247C-0.762,4.244 -0.872,4.241 -0.977,4.255C-1.07,4.266 -1.156,4.242 -1.238,4.217C-1.317,4.193 -1.39,4.171 -1.472,4.18C-1.483,4.181 -1.493,4.182 -1.503,4.182C-1.603,4.182 -1.679,4.123 -1.729,4.006C-1.756,3.944 -1.783,3.887 -1.811,3.833C-1.915,3.629 -2.004,3.412 -2.089,3.203C-2.19,2.958 -2.294,2.703 -2.425,2.466L-2.427,2.459C-2.436,2.347 -2.491,2.25 -2.543,2.156C-2.583,2.085 -2.624,2.011 -2.646,1.931C-2.674,1.83 -2.72,1.735 -2.766,1.644C-2.804,1.566 -2.843,1.486 -2.871,1.402C-2.915,1.27 -2.974,1.144 -3.031,1.021C-3.053,0.972 -3.076,0.924 -3.098,0.875C-3.127,0.808 -3.156,0.74 -3.184,0.673L-3.218,0.592C-3.313,0.369 -3.408,0.146 -3.503,-0.078C-3.508,-0.09 -3.513,-0.104 -3.517,-0.118C-3.525,-0.141 -3.532,-0.164 -3.545,-0.181C-3.588,-0.241 -3.621,-0.284 -3.658,-0.288L-3.663,-0.288C-3.689,-0.288 -3.721,-0.269 -3.761,-0.231C-3.811,-0.182 -3.862,-0.132 -3.911,-0.083C-4.037,0.04 -4.165,0.167 -4.297,0.287C-4.452,0.427 -4.507,0.618 -4.56,0.803C-4.569,0.834 -4.578,0.865 -4.588,0.895C-4.602,0.943 -4.595,1.014 -4.571,1.072C-4.419,1.432 -4.258,1.795 -4.103,2.147L-4.081,2.198C-4.006,2.367 -3.923,2.536 -3.842,2.699C-3.738,2.909 -3.631,3.126 -3.541,3.348C-3.449,3.573 -3.334,3.794 -3.223,4.007C-3.159,4.131 -3.093,4.259 -3.031,4.386C-2.979,4.494 -2.905,4.539 -2.776,4.539L-2.769,4.539C-2.431,4.535 -2.087,4.536 -1.754,4.536C-1.622,4.537 -1.489,4.537 -1.357,4.537L-0.943,4.537C-0.597,4.537 -0.252,4.536 0.094,4.538L0.096,4.538C0.214,4.538 0.281,4.493 0.315,4.393C0.321,4.374 0.331,4.357 0.34,4.341C0.35,4.323 0.359,4.307 0.364,4.289C0.364,4.284 0.355,4.265 0.349,4.259C0.227,4.253 0.105,4.252 0,4.251" style="fill:rgb(40,79,142);fill-rule:nonzero;"/>
            </g>
            <g transform="matrix(1,0,0,1,19.1751,12.2027)">
                <path d="M0,-1.789C-0.178,-1.558 -0.364,-1.327 -0.543,-1.104C-0.666,-0.951 -0.793,-0.793 -0.917,-0.636C-0.963,-0.577 -1.013,-0.519 -1.062,-0.463C-1.139,-0.375 -1.218,-0.283 -1.283,-0.186C-1.37,-0.054 -1.473,0.068 -1.572,0.185C-1.645,0.271 -1.721,0.36 -1.789,0.452C-1.809,0.48 -1.831,0.507 -1.853,0.534C-1.913,0.607 -1.974,0.683 -2.001,0.766C-2.041,0.886 -2.133,0.913 -2.207,0.935L-2.213,0.937C-2.374,0.985 -2.549,0.986 -2.721,0.938C-2.83,0.908 -2.906,0.841 -2.952,0.733C-2.98,0.671 -2.99,0.608 -2.999,0.547C-3.008,0.495 -3.016,0.446 -3.033,0.397C-3.087,0.243 -3.145,0.088 -3.201,-0.062C-3.306,-0.347 -3.415,-0.643 -3.508,-0.938C-3.617,-1.285 -3.742,-1.632 -3.863,-1.968C-3.964,-2.245 -4.068,-2.532 -4.161,-2.817C-4.196,-2.922 -4.218,-2.961 -4.317,-2.965C-4.393,-2.968 -4.452,-3.036 -4.474,-3.099C-4.494,-3.158 -4.531,-3.202 -4.57,-3.249C-4.58,-3.261 -4.591,-3.274 -4.601,-3.286C-4.638,-3.333 -4.685,-3.354 -4.748,-3.354L-4.756,-3.354C-4.941,-3.35 -5.124,-3.353 -5.305,-3.35C-5.355,-3.349 -5.379,-3.327 -5.387,-3.273C-5.417,-3.083 -5.389,-2.882 -5.298,-2.637C-5.243,-2.488 -5.183,-2.347 -5.121,-2.216C-5.043,-2.057 -4.972,-1.892 -4.903,-1.733C-4.852,-1.615 -4.8,-1.494 -4.745,-1.375L-4.669,-1.211C-4.567,-0.99 -4.462,-0.762 -4.365,-0.534C-4.254,-0.275 -4.132,-0.016 -4.015,0.235C-3.966,0.34 -3.917,0.444 -3.868,0.55C-3.864,0.558 -3.859,0.566 -3.853,0.574C-3.844,0.588 -3.834,0.603 -3.829,0.62C-3.772,0.827 -3.672,1.02 -3.574,1.206C-3.532,1.287 -3.488,1.371 -3.448,1.456C-3.411,1.535 -3.372,1.561 -3.291,1.561L-3.173,1.561C-2.665,1.561 -2.152,1.563 -1.654,1.565L-1.449,1.565C-1.385,1.565 -1.366,1.532 -1.332,1.464C-0.931,0.661 -0.521,-0.153 -0.125,-0.941C0.118,-1.426 0.362,-1.912 0.605,-2.397C0.614,-2.415 0.613,-2.439 0.613,-2.466L0.613,-2.479C0.591,-2.476 0.573,-2.461 0.554,-2.44C0.498,-2.374 0.441,-2.309 0.383,-2.245C0.254,-2.098 0.12,-1.946 0,-1.789" style="fill:rgb(139,158,180);fill-rule:nonzero;"/>
            </g>
            <g transform="matrix(1,0,0,1,19.8571,9.66271)">
                <path d="M0,-0.069C-0.001,-0.071 -0.005,-0.074 -0.008,-0.077C-0.011,-0.075 -0.015,-0.071 -0.015,-0.069C-0.019,-0.045 -0.021,-0.02 -0.022,0.006L-0.023,0.008C-0.015,0.004 -0.009,-0.001 -0.005,-0.007C0.004,-0.02 0.006,-0.041 0,-0.069" style="fill:rgb(123,127,129);fill-rule:nonzero;"/>
            </g>
            <g transform="matrix(1,0,0,1,6.98212,13.7667)">
                <path d="M0,-3.717C-0.172,-3.919 -0.366,-4.091 -0.576,-4.231C-0.626,-4.264 -0.641,-4.269 -0.683,-4.234C-0.786,-4.147 -0.835,-4.03 -0.858,-3.949C-0.888,-3.838 -0.936,-3.736 -0.983,-3.638C-1.012,-3.577 -1.042,-3.515 -1.067,-3.452L-1.085,-3.406C-1.161,-3.21 -1.241,-3.008 -1.351,-2.823C-1.36,-2.708 -1.413,-2.61 -1.464,-2.516C-1.498,-2.455 -1.532,-2.392 -1.553,-2.325C-1.595,-2.195 -1.654,-2.069 -1.71,-1.948C-1.734,-1.897 -1.758,-1.846 -1.78,-1.794C-1.821,-1.7 -1.864,-1.606 -1.907,-1.513C-1.985,-1.341 -2.066,-1.164 -2.136,-0.987C-2.208,-0.808 -2.286,-0.628 -2.362,-0.454C-2.413,-0.338 -2.463,-0.221 -2.512,-0.104C-2.548,-0.018 -2.599,0.053 -2.672,0.121C-2.704,0.15 -2.741,0.185 -2.777,0.185C-2.778,0.185 -2.78,0.184 -2.782,0.184C-2.869,0.177 -2.947,0.199 -3.031,0.222C-3.109,0.245 -3.189,0.268 -3.275,0.264C-3.419,0.259 -3.564,0.257 -3.71,0.257C-3.82,0.257 -3.931,0.258 -4.04,0.259C-4.224,0.26 -4.405,0.26 -4.606,0.266C-4.619,0.266 -4.633,0.277 -4.642,0.293C-4.653,0.315 -4.654,0.34 -4.643,0.358L-4.639,0.367C-4.578,0.47 -4.529,0.552 -4.386,0.552L-4.375,0.552C-4.046,0.541 -3.711,0.543 -3.388,0.546C-3.265,0.546 -3.143,0.547 -3.02,0.547L-3.002,0.547C-2.868,0.547 -2.734,0.546 -2.599,0.545C-2.269,0.543 -1.927,0.541 -1.591,0.551C-1.585,0.551 -1.579,0.552 -1.574,0.552C-1.438,0.552 -1.344,0.497 -1.252,0.366C-1.223,0.324 -1.203,0.277 -1.182,0.228C-1.173,0.205 -1.163,0.182 -1.153,0.16L-0.825,-0.528C-0.592,-1.017 -0.359,-1.506 -0.127,-1.996C-0.102,-2.049 -0.081,-2.104 -0.06,-2.158C-0.03,-2.234 0,-2.312 0.04,-2.384C0.086,-2.466 0.118,-2.555 0.148,-2.64C0.163,-2.684 0.18,-2.729 0.198,-2.772C0.332,-3.102 0.269,-3.402 0,-3.717" style="fill:rgb(40,79,142);fill-rule:nonzero;"/>
            </g>
            <g transform="matrix(1,0,0,1,4.59412,10.3927)">
                <path d="M0,-1.844C-0.073,-1.733 -0.148,-1.618 -0.306,-1.612C-0.306,-1.611 -0.307,-1.61 -0.307,-1.608C-0.312,-1.59 -0.317,-1.57 -0.33,-1.556C-0.493,-1.389 -0.683,-1.249 -0.866,-1.113C-0.919,-1.073 -0.973,-1.033 -1.025,-0.992C-1.044,-0.978 -1.063,-0.963 -1.081,-0.948C-1.141,-0.9 -1.203,-0.85 -1.282,-0.816C-1.401,-0.764 -1.529,-0.72 -1.665,-0.795C-1.717,-0.823 -1.77,-0.825 -1.826,-0.827L-1.845,-0.829C-1.91,-0.832 -1.974,-0.836 -2.04,-0.86C-2.211,-0.921 -2.379,-0.968 -2.554,-1.002C-2.581,-1.007 -2.608,-1.013 -2.635,-1.017C-2.782,-1.045 -2.933,-1.074 -3.076,-1.134C-3.099,-1.143 -3.125,-1.146 -3.152,-1.146C-3.194,-1.146 -3.24,-1.138 -3.285,-1.13C-3.302,-1.127 -3.318,-1.124 -3.334,-1.121C-3.341,-1.115 -3.359,-1.067 -3.355,-1.055C-3.316,-1.005 -3.262,-0.94 -3.195,-0.898C-3.101,-0.838 -3.002,-0.782 -2.906,-0.728C-2.847,-0.694 -2.788,-0.66 -2.73,-0.626C-2.639,-0.572 -2.544,-0.521 -2.452,-0.471C-2.22,-0.345 -1.98,-0.215 -1.779,-0.031C-1.764,-0.018 -1.74,-0.008 -1.721,-0.007C-1.702,-0.006 -1.683,-0.005 -1.665,-0.004C-1.554,0.003 -1.451,0.01 -1.349,-0.044C-1.213,-0.118 -1.066,-0.177 -0.925,-0.234C-0.762,-0.299 -0.593,-0.367 -0.439,-0.458C-0.378,-0.494 -0.307,-0.516 -0.239,-0.537C-0.22,-0.542 -0.202,-0.547 -0.184,-0.553C-0.052,-0.595 0.023,-0.677 0.053,-0.81C0.085,-0.945 0.117,-1.051 0.157,-1.142C0.256,-1.372 0.207,-1.588 0.147,-1.768C0.118,-1.854 0.076,-1.852 0.016,-1.848L0.002,-1.847L0,-1.844Z" style="fill:rgb(40,79,142);fill-rule:nonzero;"/>
            </g>
            <g transform="matrix(1,0,0,1,10.9501,12.3367)">
                <path d="M0,-0.412C-0.01,-0.446 -0.021,-0.479 -0.03,-0.512C-0.039,-0.542 -0.059,-0.565 -0.087,-0.575C-0.12,-0.588 -0.157,-0.584 -0.19,-0.564C-0.199,-0.559 -0.207,-0.552 -0.219,-0.541C-0.228,-0.534 -0.238,-0.525 -0.247,-0.516C-0.266,-0.498 -0.287,-0.479 -0.309,-0.464C-0.351,-0.435 -0.417,-0.433 -0.488,-0.457C-0.569,-0.485 -0.633,-0.54 -0.651,-0.597C-0.666,-0.645 -0.68,-0.693 -0.693,-0.742C-0.704,-0.779 -0.715,-0.817 -0.726,-0.854C-0.759,-0.966 -0.759,-0.966 -0.862,-0.968C-0.931,-0.968 -1.013,-0.97 -1.096,-0.966C-1.159,-0.963 -1.226,-0.901 -1.24,-0.833C-1.245,-0.801 -1.246,-0.767 -1.246,-0.733L-1.246,-0.719C-1.247,-0.568 -1.354,-0.493 -1.46,-0.44C-1.546,-0.397 -1.639,-0.426 -1.726,-0.524C-1.742,-0.541 -1.758,-0.559 -1.775,-0.567C-1.798,-0.577 -1.839,-0.59 -1.854,-0.559C-1.87,-0.527 -1.887,-0.496 -1.904,-0.464C-1.954,-0.372 -2.005,-0.277 -2.018,-0.18C-2.037,-0.034 -2.031,0.118 -2.026,0.266C-2.024,0.325 -2.022,0.384 -2.021,0.443C-2.021,0.449 -2.017,0.455 -2.01,0.461C-1.991,0.479 -1.954,0.492 -1.917,0.491C-1.846,0.485 -1.795,0.445 -1.756,0.365C-1.725,0.304 -1.703,0.239 -1.681,0.176C-1.658,0.109 -1.634,0.039 -1.601,-0.027C-1.569,-0.091 -1.313,-0.446 -1.312,-0.181C-1.312,-0.144 -1.319,-0.104 -1.316,-0.067C-1.32,-0.064 -1.325,-0.062 -1.328,-0.059C-1.419,0.027 -1.57,0.413 -1.555,0.523C-1.554,0.531 -1.533,0.551 -1.517,0.554C-1.501,0.558 -1.477,0.551 -1.465,0.54C-1.453,0.529 -1.443,0.506 -1.442,0.484C-1.433,0.332 -1.337,0.285 -1.213,0.238C-1.118,0.203 -1.031,0.186 -0.946,0.186C-0.856,0.186 -0.769,0.205 -0.679,0.245C-0.668,0.25 -0.658,0.254 -0.649,0.258C-0.599,0.278 -0.552,0.297 -0.531,0.368C-0.519,0.409 -0.498,0.449 -0.476,0.49C-0.467,0.507 -0.458,0.522 -0.45,0.539C-0.448,0.542 -0.434,0.551 -0.412,0.554C-0.392,0.558 -0.379,0.555 -0.377,0.554C-0.348,0.517 -0.35,0.505 -0.351,0.504C-0.371,0.423 -0.407,0.345 -0.442,0.27C-0.47,0.209 -0.499,0.146 -0.521,0.08C-0.532,0.044 -0.553,0.011 -0.578,-0.019C-0.577,-0.024 -0.574,-0.027 -0.574,-0.032C-0.575,-0.056 -0.588,-0.076 -0.593,-0.099C-0.63,-0.278 -0.443,-0.155 -0.395,-0.113C-0.308,-0.036 -0.267,0.1 -0.232,0.206C-0.224,0.23 -0.213,0.253 -0.202,0.277C-0.186,0.313 -0.169,0.349 -0.163,0.387C-0.152,0.458 -0.106,0.474 -0.052,0.493C-0.026,0.503 0.001,0.513 0.024,0.53C0.032,0.527 0.045,0.519 0.049,0.514C0.052,0.414 0.052,0.312 0.051,0.213C0.051,0.213 0.051,0.108 0.058,0.108C0.058,0.102 0.057,0.096 0.057,0.09C0.056,0.062 0.055,0.034 0.06,0.006C0.085,-0.141 0.044,-0.272 0,-0.412" style="fill:rgb(40,79,142);fill-rule:nonzero;"/>
            </g>
            <g transform="matrix(1,0,0,1,14.3931,4.56771)">
                <path d="M0,4.02C0.07,4.02 0.127,4.042 0.191,4.068C0.314,4.119 0.393,4.197 0.441,4.313C0.446,4.325 0.458,4.329 0.467,4.331C0.49,4.334 0.521,4.324 0.541,4.3C0.546,4.294 0.551,4.288 0.555,4.282C0.583,4.249 0.607,4.221 0.607,4.176C0.605,4.082 0.607,3.982 0.613,3.856C0.615,3.817 0.617,3.768 0.643,3.74C0.686,3.692 0.722,3.637 0.757,3.583C0.826,3.478 0.898,3.369 1.026,3.303C1.089,3.27 1.151,3.232 1.212,3.195C1.292,3.145 1.374,3.095 1.463,3.055C1.603,2.993 1.742,2.921 1.876,2.852C2.025,2.775 2.164,2.73 2.318,2.669C2.459,2.614 2.577,2.527 2.568,2.361C2.567,2.341 2.567,2.322 2.567,2.303C2.567,2.27 2.567,2.238 2.562,2.207C2.559,2.197 2.536,2.176 2.521,2.174C2.465,2.166 2.404,2.161 2.329,2.161C2.112,2.16 1.896,2.161 1.679,2.161L1.192,2.161C0.917,2.161 0.643,2.161 0.368,2.16C0.354,2.16 0.34,2.161 0.325,2.162C0.285,2.163 0.243,2.166 0.207,2.152C0.172,2.139 0.144,2.11 0.117,2.083C0.106,2.071 0.095,2.06 0.084,2.05L0.07,2.038L0.082,2.024C0.092,2.013 0.102,2.001 0.112,1.989C0.136,1.96 0.16,1.93 0.193,1.914C0.23,1.897 0.273,1.898 0.318,1.899L0.353,1.899C0.475,1.898 0.596,1.897 0.717,1.897L0.863,1.896C0.898,1.896 0.92,1.877 0.924,1.845C0.927,1.821 0.926,1.798 0.924,1.773C0.923,1.745 0.922,1.716 0.926,1.687C0.937,1.613 0.915,1.546 0.891,1.474C0.87,1.411 0.848,1.345 0.852,1.274C0.858,1.14 0.831,1.007 0.805,0.878C0.776,0.735 0.745,0.586 0.761,0.433C0.711,0.357 0.707,0.271 0.702,0.188C0.698,0.117 0.695,0.049 0.664,-0.009C0.603,-0.124 0.636,-0.193 0.708,-0.268C0.771,-0.333 0.835,-0.397 0.898,-0.462C0.972,-0.537 1.047,-0.613 1.12,-0.689C1.155,-0.725 1.16,-0.761 1.134,-0.807C1.069,-0.923 1.006,-1.044 0.945,-1.161C0.925,-1.199 0.906,-1.236 0.886,-1.273L0.728,-1.278C0.306,-1.29 -0.113,-1.278 -0.536,-1.287C-0.597,-1.287 -0.63,-1.245 -0.644,-1.22C-0.676,-1.161 -0.705,-1.099 -0.734,-1.039C-0.771,-0.962 -0.808,-0.882 -0.853,-0.807C-0.984,-0.587 -1.027,-0.415 -0.999,-0.231C-0.994,-0.203 -1.005,-0.167 -1.024,-0.146C-1.042,-0.128 -1.085,-0.108 -1.111,-0.121C-1.2,-0.165 -1.27,-0.336 -1.238,-0.43C-1.145,-0.708 -1.031,-0.969 -0.893,-1.28C-1.05,-1.295 -1.203,-1.291 -1.336,-1.285C-1.36,-1.283 -1.398,-1.259 -1.415,-1.233C-1.44,-1.193 -1.467,-1.154 -1.493,-1.114C-1.568,-1.006 -1.645,-0.893 -1.688,-0.772C-1.795,-0.471 -1.944,-0.188 -2.089,0.086L-2.097,0.101C-2.119,0.144 -2.147,0.188 -2.18,0.232C-2.194,0.251 -2.21,0.262 -2.228,0.263C-2.256,0.264 -2.282,0.247 -2.301,0.229C-2.352,0.181 -2.401,0.116 -2.328,0.038C-2.252,-0.044 -2.203,-0.145 -2.156,-0.242C-2.127,-0.303 -2.098,-0.366 -2.061,-0.424C-2.048,-0.577 -1.975,-0.707 -1.904,-0.832C-1.868,-0.894 -1.832,-0.959 -1.804,-1.025C-1.738,-1.179 -1.646,-1.324 -1.557,-1.464C-1.522,-1.518 -1.487,-1.572 -1.454,-1.627C-1.443,-1.647 -1.426,-1.664 -1.411,-1.68C-1.389,-1.703 -1.369,-1.724 -1.364,-1.746C-1.333,-1.892 -1.268,-2.018 -1.197,-2.151C-1.146,-2.248 -1.093,-2.349 -1.055,-2.459L-1.082,-2.485C-1.132,-2.53 -1.186,-2.58 -1.241,-2.627C-1.247,-2.633 -1.253,-2.638 -1.259,-2.643C-1.281,-2.664 -1.304,-2.685 -1.326,-2.689C-1.448,-2.709 -1.577,-2.723 -1.698,-2.664C-1.81,-2.608 -1.928,-2.561 -2.043,-2.515C-2.197,-2.452 -2.357,-2.388 -2.504,-2.304C-2.585,-2.257 -2.669,-2.217 -2.747,-2.181C-2.857,-2.131 -2.959,-2.127 -3.15,-2.14C-3.29,-2.149 -3.419,-2.135 -3.547,-2.203C-3.707,-2.29 -3.831,-2.438 -3.974,-2.548C-4.073,-2.624 -4.18,-2.677 -4.27,-2.763C-4.289,-2.781 -4.307,-2.799 -4.326,-2.816C-4.515,-2.972 -5.093,-2.363 -5.216,-2.26C-5.264,-2.22 -5.313,-2.18 -5.37,-2.156C-5.428,-2.131 -5.493,-2.124 -5.556,-2.118C-5.695,-2.106 -5.818,-2.086 -5.949,-2.14C-5.997,-2.16 -6.045,-2.18 -6.093,-2.2C-6.279,-2.276 -6.472,-2.355 -6.652,-2.457C-6.734,-2.504 -6.827,-2.536 -6.916,-2.566C-7.006,-2.597 -7.098,-2.629 -7.184,-2.677C-7.27,-2.724 -7.401,-2.74 -7.501,-2.669C-7.58,-2.613 -7.69,-2.527 -7.734,-2.424C-7.757,-2.372 -7.72,-2.315 -7.681,-2.255C-7.662,-2.224 -7.641,-2.192 -7.628,-2.159C-7.618,-2.132 -7.6,-2.105 -7.584,-2.078C-7.558,-2.038 -7.532,-1.996 -7.524,-1.95C-7.498,-1.803 -7.421,-1.69 -7.34,-1.571C-7.327,-1.552 -7.314,-1.532 -7.301,-1.513C-7.182,-1.334 -7.071,-1.142 -6.974,-0.944C-6.91,-0.814 -6.854,-0.68 -6.799,-0.549C-6.713,-0.343 -6.624,-0.128 -6.503,0.067C-6.487,0.093 -6.489,0.127 -6.491,0.159C-6.491,0.17 -6.492,0.18 -6.492,0.19C-6.492,0.202 -6.497,0.214 -6.506,0.232C-6.515,0.253 -6.528,0.265 -6.544,0.268C-6.559,0.27 -6.578,0.263 -6.596,0.244C-6.612,0.227 -6.629,0.21 -6.647,0.194C-6.688,0.155 -6.73,0.115 -6.753,0.065C-6.798,-0.032 -6.848,-0.13 -6.898,-0.224C-6.994,-0.411 -7.095,-0.604 -7.157,-0.81C-7.184,-0.902 -7.237,-0.98 -7.288,-1.056C-7.329,-1.116 -7.37,-1.178 -7.4,-1.246C-7.406,-1.26 -7.43,-1.279 -7.442,-1.279C-7.628,-1.281 -7.794,-1.279 -7.948,-1.274C-7.957,-1.274 -7.961,-1.271 -7.961,-1.27C-7.963,-1.268 -7.961,-1.26 -7.951,-1.249C-7.837,-1.13 -7.782,-0.98 -7.73,-0.834C-7.696,-0.74 -7.661,-0.643 -7.61,-0.556C-7.556,-0.464 -7.578,-0.331 -7.607,-0.237C-7.613,-0.218 -7.626,-0.203 -7.639,-0.189C-7.645,-0.183 -7.651,-0.176 -7.656,-0.169C-7.676,-0.142 -7.712,-0.121 -7.751,-0.116C-7.777,-0.112 -7.802,-0.117 -7.818,-0.13C-7.865,-0.169 -7.864,-0.224 -7.84,-0.258C-7.774,-0.349 -7.786,-0.426 -7.83,-0.53C-7.856,-0.59 -7.884,-0.65 -7.912,-0.707C-7.954,-0.797 -7.998,-0.89 -8.034,-0.987C-8.11,-1.194 -8.215,-1.31 -8.442,-1.295C-8.704,-1.276 -8.97,-1.287 -9.235,-1.288C-9.271,-1.286 -9.31,-1.287 -9.348,-1.287C-9.426,-1.286 -9.508,-1.285 -9.589,-1.29L-9.604,-1.29C-9.675,-1.29 -9.728,-1.258 -9.765,-1.192C-9.821,-1.092 -9.886,-0.974 -9.937,-0.849C-9.963,-0.788 -9.954,-0.727 -9.913,-0.685L-9.859,-0.629C-9.76,-0.528 -9.659,-0.423 -9.555,-0.324C-9.493,-0.265 -9.468,-0.196 -9.472,-0.098C-9.473,-0.083 -9.472,-0.067 -9.472,-0.051C-9.47,-0.009 -9.469,0.033 -9.489,0.065C-9.56,0.176 -9.556,0.3 -9.553,0.42C-9.553,0.438 -9.552,0.455 -9.552,0.472C-9.551,0.545 -9.574,0.612 -9.594,0.676C-9.618,0.746 -9.639,0.813 -9.634,0.887C-9.625,1.013 -9.645,1.14 -9.694,1.274C-9.724,1.357 -9.722,1.451 -9.719,1.551C-9.718,1.599 -9.717,1.648 -9.72,1.696C-9.721,1.717 -9.733,1.736 -9.744,1.754C-9.749,1.76 -9.753,1.766 -9.756,1.772C-9.759,1.777 -9.762,1.782 -9.765,1.787C-9.769,1.793 -9.772,1.799 -9.774,1.803C-9.782,1.831 -9.78,1.857 -9.769,1.873C-9.759,1.886 -9.744,1.893 -9.725,1.893C-9.631,1.895 -9.537,1.896 -9.443,1.897C-9.302,1.899 -9.16,1.901 -9.02,1.905C-8.969,1.905 -8.935,1.938 -8.928,1.992C-8.921,2.041 -8.949,2.069 -8.973,2.092L-8.984,2.103C-9.043,2.164 -9.114,2.161 -9.184,2.161C-9.195,2.16 -9.206,2.16 -9.217,2.16C-9.439,2.16 -9.661,2.161 -9.882,2.16C-10.261,2.159 -10.642,2.159 -11.021,2.161C-11.066,2.162 -11.108,2.161 -11.143,2.161C-11.253,2.159 -11.316,2.158 -11.339,2.182C-11.362,2.205 -11.361,2.262 -11.359,2.365C-11.358,2.411 -11.357,2.466 -11.357,2.532C-11.358,2.565 -11.341,2.586 -11.303,2.6C-11.29,2.605 -11.278,2.61 -11.266,2.615C-11.178,2.651 -11.084,2.648 -10.994,2.671C-10.892,2.698 -10.855,2.746 -10.781,2.806C-10.612,2.941 -10.372,3.032 -10.175,3.119C-9.97,3.209 -9.79,3.34 -9.61,3.533C-9.452,3.701 -9.413,3.907 -9.397,4.068C-9.394,4.108 -9.394,4.148 -9.394,4.187C-9.394,4.213 -9.394,4.239 -9.392,4.265C-9.391,4.291 -9.381,4.322 -9.34,4.325C-9.32,4.328 -9.296,4.322 -9.286,4.312C-9.233,4.263 -9.181,4.21 -9.13,4.16C-9.108,4.137 -9.086,4.115 -9.063,4.092C-9.014,4.043 -8.955,4.02 -8.875,4.02C-8.676,4.02 -8.472,3.982 -8.272,4.011C-8.181,4.025 -8.074,4.048 -8.014,4.124C-7.934,4.224 -7.987,4.351 -7.985,4.465C-7.985,4.511 -7.984,4.558 -7.986,4.604C-7.988,4.672 -7.961,4.726 -7.911,4.754C-7.687,4.88 -7.514,5.067 -7.347,5.248C-7.312,5.284 -7.278,5.322 -7.243,5.358C-7.113,5.494 -6.935,5.68 -6.959,5.944C-6.964,6.001 -6.937,6.042 -6.905,6.088L-6.892,6.109C-6.744,6.335 -6.548,6.524 -6.36,6.707C-6.273,6.79 -6.184,6.877 -6.101,6.966C-6.094,6.972 -6.084,6.978 -6.076,6.981C-6.031,6.992 -6.005,6.989 -5.988,6.966C-5.98,6.957 -5.973,6.948 -5.964,6.939C-5.938,6.909 -5.912,6.879 -5.91,6.851C-5.903,6.708 -5.811,6.625 -5.713,6.556C-5.573,6.459 -5.411,6.378 -5.229,6.317C-5.156,6.291 -5.112,6.269 -5.114,6.175C-5.122,5.888 -5.12,5.596 -5.117,5.313L-5.116,5.155C-5.116,5.074 -5.125,5.008 -5.172,4.946C-5.212,4.893 -5.237,4.827 -5.259,4.769C-5.269,4.743 -5.254,4.7 -5.235,4.681C-5.2,4.646 -5.15,4.642 -5.103,4.675C-5.082,4.689 -5.059,4.706 -5.046,4.729C-4.979,4.837 -4.912,4.97 -4.915,5.136C-4.921,5.411 -4.918,5.69 -4.915,5.96L-4.914,6.156C-4.914,6.172 -4.908,6.186 -4.899,6.195C-4.889,6.204 -4.876,6.209 -4.861,6.209C-4.858,6.208 -4.852,6.209 -4.847,6.209C-4.833,6.209 -4.819,6.209 -4.804,6.21C-4.757,6.213 -4.707,6.214 -4.678,6.195C-4.585,6.13 -4.487,6.135 -4.393,6.142C-4.371,6.143 -4.349,6.144 -4.327,6.145C-4.284,6.146 -4.242,6.162 -4.203,6.177C-4.171,6.189 -4.138,6.201 -4.107,6.206C-4.018,6.218 -3.978,6.215 -3.958,6.198C-3.938,6.18 -3.934,6.139 -3.934,6.074C-3.935,5.98 -3.934,5.885 -3.933,5.791C-3.932,5.601 -3.931,5.405 -3.937,5.213C-3.943,4.992 -3.833,4.821 -3.736,4.67C-3.724,4.652 -3.695,4.654 -3.646,4.658C-3.628,4.661 -3.606,4.682 -3.603,4.7C-3.602,4.709 -3.6,4.718 -3.597,4.729C-3.589,4.763 -3.581,4.799 -3.597,4.824C-3.678,4.944 -3.677,5.076 -3.675,5.215L-3.675,5.265C-3.673,5.542 -3.673,5.774 -3.674,6.01C-3.675,6.076 -3.676,6.143 -3.693,6.206C-3.696,6.218 -3.701,6.229 -3.706,6.239C-3.713,6.254 -3.717,6.264 -3.715,6.271C-3.713,6.276 -3.704,6.285 -3.678,6.297C-3.615,6.326 -3.547,6.349 -3.482,6.372C-3.368,6.412 -3.251,6.453 -3.145,6.523L-3.123,6.537C-3.053,6.583 -2.987,6.627 -2.956,6.719C-2.931,6.792 -2.89,6.861 -2.853,6.923C-2.831,6.96 -2.796,6.984 -2.751,6.985C-2.715,6.985 -2.68,6.968 -2.656,6.935C-2.629,6.899 -2.602,6.861 -2.577,6.824C-2.553,6.788 -2.527,6.751 -2.501,6.716C-2.469,6.673 -2.426,6.644 -2.385,6.615C-2.333,6.579 -2.284,6.544 -2.252,6.485C-2.207,6.401 -2.133,6.333 -2.06,6.267C-2.044,6.252 -2.028,6.237 -2.012,6.222C-1.94,6.153 -1.904,6.078 -1.888,5.962C-1.867,5.815 -1.812,5.67 -1.723,5.529C-1.572,5.292 -1.377,5.117 -1.188,4.963C-1.079,4.874 -0.973,4.779 -0.866,4.683C-0.82,4.641 -0.8,4.589 -0.805,4.522C-0.82,4.287 -0.84,4.066 -0.568,4.015C-0.38,3.98 -0.187,4.02 0,4.02M-1.619,3.69L-1.703,3.811C-1.79,3.936 -1.879,4.064 -1.97,4.189C-2,4.23 -2.019,4.268 -2.016,4.324C-2.013,4.375 -2.01,4.427 -2.016,4.479C-2.039,4.667 -1.981,4.776 -1.827,4.832C-1.801,4.842 -1.792,4.896 -1.798,4.921C-1.804,4.947 -1.83,4.98 -1.858,4.986C-1.906,4.997 -1.954,5.005 -1.986,4.985C-2.11,4.907 -2.23,4.815 -2.215,4.632C-2.209,4.564 -2.212,4.492 -2.214,4.424C-2.215,4.402 -2.216,4.381 -2.217,4.36C-2.217,4.339 -2.223,4.324 -2.234,4.313C-2.252,4.296 -2.287,4.288 -2.341,4.292C-2.393,4.294 -2.417,4.319 -2.417,4.372C-2.417,4.45 -2.417,4.527 -2.416,4.605C-2.414,4.76 -2.413,4.921 -2.422,5.078C-2.434,5.273 -2.377,5.403 -2.237,5.501C-2.218,5.513 -2.204,5.546 -2.202,5.563C-2.201,5.573 -2.203,5.581 -2.208,5.587C-2.224,5.605 -2.253,5.619 -2.285,5.624C-2.431,5.646 -2.536,5.596 -2.597,5.475L-2.605,5.458C-2.647,5.373 -2.69,5.285 -2.684,5.173C-2.673,4.988 -2.676,4.8 -2.679,4.617C-2.68,4.568 -2.681,4.518 -2.681,4.469C-2.682,4.442 -2.691,4.414 -2.7,4.387C-2.702,4.379 -2.705,4.371 -2.707,4.363C-2.709,4.356 -2.719,4.345 -2.741,4.335C-2.766,4.323 -2.795,4.319 -2.808,4.324C-2.918,4.364 -2.985,4.442 -3.027,4.548C-3.061,4.634 -3.061,4.768 -3.139,4.829C-3.154,4.84 -3.173,4.848 -3.191,4.847C-3.24,4.841 -3.255,4.778 -3.257,4.729C-3.264,4.566 -3.243,4.461 -3.365,4.346C-3.382,4.331 -3.398,4.315 -3.414,4.299L-3.425,4.288C-3.44,4.273 -3.453,4.259 -3.469,4.248C-3.662,4.111 -3.737,3.914 -3.695,3.645C-3.687,3.59 -3.658,3.561 -3.607,3.557C-3.543,3.552 -3.523,3.589 -3.508,3.631C-3.501,3.648 -3.491,3.666 -3.48,3.683C-3.461,3.715 -3.441,3.747 -3.445,3.78C-3.469,3.967 -3.365,4.072 -3.226,4.19C-3.143,4.26 -3.138,4.265 -3.053,4.195C-2.989,4.143 -2.914,4.094 -2.796,4.095C-2.713,4.097 -2.629,4.095 -2.548,4.093C-2.463,4.091 -2.374,4.089 -2.287,4.092L-2.275,4.092C-2.178,4.092 -2.114,4.053 -2.052,3.955C-1.893,3.704 -1.734,3.446 -1.581,3.197C-1.473,3.024 -1.366,2.851 -1.258,2.678C-1.108,2.437 -0.961,2.189 -0.818,1.949C-0.619,1.612 -0.412,1.263 -0.193,0.931C-0.159,0.879 -0.129,0.823 -0.1,0.769C-0.056,0.689 -0.011,0.606 0.047,0.532C0.064,0.511 0.071,0.479 0.066,0.446C0.06,0.406 0.039,0.368 0.011,0.349C-0.001,0.34 -0.013,0.332 -0.025,0.323C-0.086,0.28 -0.148,0.235 -0.215,0.211C-0.269,0.193 -0.371,0.173 -0.455,0.251L-0.484,0.277C-0.588,0.372 -0.692,0.469 -0.795,0.565C-1.031,0.784 -1.275,1.011 -1.527,1.22C-1.817,1.462 -2.089,1.721 -2.389,2.01C-2.46,2.079 -2.53,2.148 -2.601,2.218C-2.601,2.218 -2.702,2.317 -2.709,2.317C-2.757,2.318 -2.806,2.32 -2.855,2.321C-2.962,2.324 -3.07,2.327 -3.177,2.328C-3.297,2.33 -3.414,2.33 -3.532,2.322C-3.569,2.32 -3.602,2.292 -3.638,2.262C-3.657,2.246 -3.667,2.221 -3.675,2.2L-3.683,2.182L-3.678,2.173C-3.673,2.163 -3.652,2.147 -3.637,2.144L-3.569,2.126C-3.481,2.103 -3.391,2.08 -3.301,2.062C-3.268,2.054 -3.259,2.046 -3.257,2.043C-3.253,2.033 -3.268,2.006 -3.278,1.987C-3.306,1.937 -3.313,1.875 -3.314,1.831C-3.318,1.68 -3.318,1.522 -3.315,1.36C-3.312,1.23 -3.319,1.147 -3.449,1.098C-3.502,1.078 -3.543,1.036 -3.583,0.996C-3.616,0.963 -3.651,0.928 -3.693,0.905C-3.828,0.831 -3.825,0.83 -4.023,0.832L-4.053,0.832C-4.13,0.832 -4.208,0.837 -4.284,0.841C-4.503,0.852 -4.731,0.864 -4.959,0.785C-4.981,0.777 -4.985,0.776 -5,0.789C-5.102,0.87 -5.206,0.948 -5.311,1.021C-5.446,1.116 -5.5,1.238 -5.478,1.406C-5.471,1.463 -5.473,1.521 -5.474,1.577C-5.476,1.612 -5.477,1.648 -5.476,1.682C-5.472,1.784 -5.475,1.892 -5.544,1.99C-5.551,2 -5.552,2.012 -5.548,2.025C-5.542,2.039 -5.53,2.05 -5.516,2.054C-5.478,2.063 -5.442,2.079 -5.407,2.094C-5.348,2.12 -5.293,2.144 -5.225,2.139C-5.213,2.139 -5.197,2.138 -5.168,2.208C-5.159,2.229 -5.164,2.256 -5.18,2.28C-5.196,2.305 -5.218,2.32 -5.24,2.32C-5.432,2.321 -5.623,2.322 -5.815,2.322C-5.815,2.322 -6.102,2.323 -6.103,2.323C-6.157,2.323 -6.184,2.288 -6.207,2.252C-6.338,2.042 -6.518,1.881 -6.747,1.703C-6.817,1.649 -6.887,1.59 -6.956,1.528C-7.099,1.398 -7.242,1.267 -7.385,1.136C-7.603,0.936 -7.828,0.729 -8.052,0.528C-8.143,0.446 -8.241,0.369 -8.337,0.295C-8.363,0.276 -8.388,0.256 -8.413,0.236C-8.486,0.178 -8.567,0.195 -8.658,0.221C-8.664,0.223 -8.672,0.229 -8.682,0.239C-8.753,0.31 -8.824,0.381 -8.895,0.452C-8.868,0.536 -8.822,0.608 -8.774,0.684L-8.763,0.703C-8.56,1.025 -8.359,1.357 -8.165,1.678L-8.018,1.92C-7.903,2.11 -7.789,2.299 -7.675,2.488C-7.51,2.761 -7.344,3.034 -7.178,3.307C-7.145,3.361 -7.114,3.418 -7.083,3.472C-7.028,3.572 -6.97,3.676 -6.9,3.77C-6.855,3.83 -6.808,3.893 -6.763,3.956C-6.687,4.059 -6.585,4.102 -6.439,4.092C-6.354,4.086 -6.269,4.089 -6.186,4.092C-6.139,4.094 -6.093,4.095 -6.046,4.095C-5.984,4.095 -5.926,4.11 -5.853,4.146C-5.833,4.156 -5.812,4.171 -5.792,4.185C-5.741,4.222 -5.705,4.245 -5.675,4.223C-5.651,4.205 -5.625,4.187 -5.599,4.17C-5.491,4.097 -5.378,4.021 -5.356,3.876C-5.349,3.83 -5.346,3.782 -5.343,3.736C-5.34,3.693 -5.338,3.649 -5.332,3.606C-5.328,3.577 -5.275,3.559 -5.253,3.559C-5.232,3.559 -5.18,3.573 -5.173,3.601C-5.133,3.744 -5.15,3.891 -5.165,4.031C-5.17,4.075 -5.199,4.11 -5.227,4.144C-5.236,4.153 -5.243,4.162 -5.25,4.172C-5.286,4.219 -5.334,4.257 -5.38,4.294C-5.535,4.419 -5.531,4.494 -5.573,4.677C-5.578,4.698 -5.585,4.721 -5.601,4.736C-5.628,4.76 -5.673,4.754 -5.701,4.73C-5.728,4.706 -5.742,4.67 -5.753,4.636C-5.795,4.502 -5.863,4.404 -5.994,4.348C-6.017,4.339 -6.041,4.328 -6.064,4.317C-6.084,4.306 -6.095,4.313 -6.119,4.339C-6.124,4.345 -6.13,4.352 -6.136,4.357C-6.171,4.389 -6.173,4.431 -6.173,4.487L-6.173,4.59C-6.172,4.826 -6.17,5.071 -6.173,5.311C-6.175,5.444 -6.305,5.592 -6.451,5.627C-6.462,5.629 -6.472,5.628 -6.481,5.627L-6.5,5.627C-6.55,5.627 -6.586,5.601 -6.598,5.556C-6.604,5.532 -6.596,5.477 -6.569,5.466C-6.402,5.394 -6.37,5.259 -6.372,5.065C-6.375,4.899 -6.375,4.73 -6.375,4.566L-6.375,4.358C-6.375,4.307 -6.405,4.295 -6.462,4.292C-6.502,4.29 -6.534,4.295 -6.552,4.311C-6.566,4.324 -6.574,4.344 -6.576,4.374C-6.576,4.381 -6.577,4.389 -6.578,4.396C-6.58,4.414 -6.582,4.432 -6.578,4.446C-6.529,4.627 -6.62,4.756 -6.708,4.881C-6.725,4.905 -6.742,4.928 -6.758,4.952C-6.79,5.001 -6.898,5.01 -6.961,4.97C-6.981,4.957 -6.988,4.93 -6.993,4.905L-6.995,4.894C-6.999,4.88 -6.996,4.853 -6.98,4.841C-6.817,4.723 -6.827,4.566 -6.838,4.4C-6.841,4.348 -6.844,4.295 -6.841,4.243C-6.841,4.236 -6.853,4.223 -6.861,4.213C-6.868,4.205 -6.875,4.196 -6.88,4.188C-6.886,4.179 -6.891,4.169 -6.896,4.16C-6.903,4.146 -6.909,4.134 -6.917,4.123C-6.958,4.072 -6.99,4.013 -7.022,3.956C-7.08,3.851 -7.135,3.752 -7.233,3.696C-7.327,3.641 -7.436,3.65 -7.552,3.66C-7.609,3.664 -7.668,3.668 -7.724,3.666C-7.818,3.66 -7.928,3.655 -8.035,3.667C-8.161,3.68 -8.239,3.631 -8.291,3.51C-8.305,3.478 -8.334,3.45 -8.363,3.422C-8.372,3.414 -8.38,3.406 -8.388,3.398C-8.576,3.208 -8.585,2.973 -8.568,2.769C-8.562,2.693 -8.469,2.611 -8.387,2.608C-8.305,2.607 -8.224,2.606 -8.142,2.605C-8.067,2.604 -7.992,2.604 -7.917,2.602C-7.898,2.602 -7.881,2.591 -7.873,2.574C-7.863,2.555 -7.864,2.533 -7.875,2.516C-8.083,2.204 -8.275,1.875 -8.46,1.557C-8.498,1.491 -8.537,1.425 -8.575,1.36C-8.692,1.16 -8.824,0.964 -8.951,0.775C-8.994,0.712 -9.037,0.648 -9.081,0.584C-9.127,0.513 -9.135,0.439 -9.102,0.381C-9.09,0.359 -9.078,0.335 -9.067,0.311C-9.021,0.217 -8.973,0.121 -8.847,0.088C-8.828,0.084 -8.811,0.068 -8.793,0.052C-8.781,0.041 -8.77,0.031 -8.758,0.023C-8.559,-0.116 -8.361,-0.089 -8.229,0.093C-8.149,0.203 -8.072,0.289 -7.958,0.351C-7.902,0.381 -7.857,0.429 -7.813,0.475C-7.793,0.496 -7.773,0.518 -7.752,0.537C-7.284,0.975 -6.8,1.427 -6.323,1.871C-6.298,1.894 -6.269,1.914 -6.239,1.935C-6.215,1.951 -6.191,1.967 -6.169,1.985C-6.062,2.075 -5.965,2.077 -5.84,1.995C-5.768,1.949 -5.734,1.913 -5.735,1.834L-5.735,1.595C-5.734,1.505 -5.734,1.414 -5.735,1.323C-5.736,1.159 -5.742,1.152 -5.907,1.102C-5.947,1.089 -5.994,1.081 -6.054,1.075C-6.089,1.072 -6.124,1.07 -6.159,1.069C-6.202,1.068 -6.246,1.066 -6.289,1.061C-6.362,1.053 -6.447,0.951 -6.453,0.883C-6.461,0.806 -6.432,0.742 -6.37,0.698C-6.159,0.547 -5.972,0.456 -5.781,0.41C-5.715,0.394 -5.685,0.371 -5.65,0.313C-5.541,0.132 -5.373,-0.015 -5.15,-0.124C-5.105,-0.146 -5.059,-0.167 -5.014,-0.187C-4.932,-0.224 -4.847,-0.262 -4.769,-0.307C-4.613,-0.398 -4.553,-0.502 -4.56,-0.669C-4.575,-0.985 -4.571,-1.307 -4.568,-1.619C-4.566,-1.734 -4.565,-1.849 -4.564,-1.964C-4.564,-2.013 -4.553,-2.048 -4.528,-2.071C-4.505,-2.093 -4.474,-2.102 -4.429,-2.1C-4.424,-2.099 -4.327,-2.093 -4.311,-2.051C-4.302,-2.028 -4.292,-2.006 -4.282,-1.983C-4.251,-1.913 -4.218,-1.84 -4.222,-1.75C-4.23,-1.604 -4.228,-1.455 -4.226,-1.31C-4.226,-1.248 -4.225,-1.186 -4.225,-1.124C-4.225,-1.095 -4.225,-1.067 -4.226,-1.038C-4.226,-0.975 -4.226,-0.912 -4.225,-0.85C-4.223,-0.738 -4.219,-0.627 -4.215,-0.516L-4.212,-0.429C-4.173,-0.406 -4.133,-0.382 -4.094,-0.359C-4.016,-0.312 -3.938,-0.266 -3.859,-0.221C-3.8,-0.187 -3.741,-0.155 -3.682,-0.123C-3.596,-0.076 -3.508,-0.027 -3.422,0.024C-3.341,0.073 -3.242,0.143 -3.204,0.256C-3.169,0.356 -3.096,0.38 -3.004,0.41L-2.982,0.417C-2.784,0.484 -2.534,0.59 -2.365,0.82C-2.343,0.849 -2.336,0.896 -2.349,0.933C-2.358,0.958 -2.374,0.975 -2.396,0.98C-2.427,0.989 -2.455,1.005 -2.484,1.021C-2.535,1.05 -2.589,1.078 -2.657,1.071C-2.714,1.065 -2.792,1.057 -2.838,1.083C-2.879,1.107 -2.923,1.116 -2.966,1.124C-3.012,1.133 -3.055,1.142 -3.087,1.169C-3.134,1.208 -3.128,1.268 -3.121,1.332C-3.118,1.359 -3.115,1.387 -3.117,1.415C-3.119,1.457 -3.117,1.501 -3.116,1.543C-3.114,1.605 -3.111,1.668 -3.121,1.73C-3.143,1.883 -3.043,1.958 -2.946,2.031C-2.881,2.08 -2.745,2.072 -2.676,2.016C-2.667,2.008 -2.658,2 -2.649,1.991C-2.444,1.788 -2.225,1.594 -2.013,1.405C-1.833,1.245 -1.645,1.078 -1.468,0.908C-1.348,0.794 -1.223,0.681 -1.103,0.572C-0.91,0.399 -0.711,0.219 -0.529,0.028C-0.431,-0.075 -0.3,-0.094 -0.152,-0.028C-0.018,0.032 0.103,0.128 0.218,0.264C0.315,0.379 0.32,0.513 0.233,0.631C0.045,0.89 -0.124,1.169 -0.286,1.439C-0.405,1.635 -0.528,1.838 -0.658,2.032C-0.706,2.104 -0.745,2.183 -0.783,2.261C-0.835,2.366 -0.889,2.475 -0.967,2.569C-0.973,2.577 -0.976,2.585 -0.975,2.589C-0.972,2.593 -0.96,2.602 -0.928,2.603C-0.841,2.605 -0.754,2.605 -0.668,2.606L-0.615,2.607L-0.544,2.607C-0.503,2.606 -0.46,2.606 -0.418,2.608C-0.301,2.613 -0.222,2.705 -0.22,2.835C-0.218,2.988 -0.28,3.125 -0.334,3.247C-0.365,3.317 -0.414,3.379 -0.461,3.44C-0.485,3.471 -0.51,3.503 -0.532,3.536C-0.603,3.64 -0.694,3.681 -0.817,3.666C-0.864,3.659 -0.914,3.662 -0.97,3.665C-1.048,3.669 -1.129,3.667 -1.207,3.665C-1.343,3.66 -1.483,3.656 -1.619,3.69" style="fill:rgb(73,184,182);fill-rule:nonzero;"/>
            </g>
            <g transform="matrix(1,0,0,1,11.2971,10.9687)">
                <path d="M0,0.909C0.04,0.906 0.077,0.885 0.096,0.853C0.111,0.828 0.113,0.802 0.102,0.777C0.052,0.665 -0.002,0.546 -0.063,0.433C-0.087,0.389 -0.126,0.35 -0.164,0.332C-0.544,0.15 -0.894,-0.001 -1.335,-0.002C-1.363,-0.007 -1.392,-0.009 -1.421,-0.009C-1.541,-0.009 -1.669,0.028 -1.804,0.066C-1.856,0.081 -1.909,0.096 -1.963,0.11C-2.16,0.158 -2.336,0.232 -2.486,0.327C-2.54,0.362 -2.596,0.415 -2.599,0.454C-2.607,0.56 -2.663,0.63 -2.717,0.698C-2.726,0.71 -2.736,0.721 -2.745,0.733C-2.758,0.751 -2.764,0.769 -2.762,0.789C-2.758,0.816 -2.737,0.846 -2.703,0.872C-2.658,0.905 -2.615,0.918 -2.577,0.91C-2.541,0.901 -2.509,0.872 -2.484,0.826C-2.477,0.813 -2.469,0.8 -2.46,0.787C-2.447,0.767 -2.435,0.748 -2.428,0.728C-2.39,0.602 -2.283,0.568 -2.189,0.537C-2.176,0.533 -2.164,0.529 -2.153,0.525C-2.06,0.493 -1.999,0.557 -1.945,0.613L-1.935,0.623C-1.931,0.628 -1.926,0.633 -1.922,0.639C-1.912,0.651 -1.901,0.664 -1.89,0.666C-1.884,0.667 -1.878,0.663 -1.87,0.655C-1.842,0.631 -1.812,0.602 -1.804,0.574C-1.797,0.546 -1.795,0.517 -1.793,0.486C-1.79,0.451 -1.788,0.416 -1.778,0.382C-1.762,0.331 -1.729,0.264 -1.684,0.249L-1.678,0.246C-1.547,0.2 -1.413,0.152 -1.276,0.145L-1.263,0.145C-1.184,0.145 -1.089,0.178 -0.98,0.244C-0.87,0.312 -0.812,0.401 -0.81,0.51C-0.81,0.557 -0.801,0.607 -0.786,0.654C-0.782,0.661 -0.754,0.672 -0.746,0.669C-0.716,0.659 -0.688,0.636 -0.662,0.615L-0.661,0.615L-0.658,0.612C-0.496,0.485 -0.405,0.489 -0.269,0.63C-0.266,0.633 -0.263,0.635 -0.261,0.637C-0.253,0.644 -0.244,0.652 -0.239,0.663L-0.233,0.676C-0.213,0.717 -0.193,0.759 -0.177,0.803C-0.139,0.91 -0.127,0.917 0,0.909" style="fill:rgb(160,213,176);fill-rule:nonzero;"/>
            </g>
            <g transform="matrix(1,0,0,1,4.57512,8.92371)">
                <path d="M0,-0.421C0.106,-0.626 0.104,-0.629 -0.048,-0.781C-0.084,-0.817 -0.122,-0.855 -0.161,-0.889C-0.196,-0.919 -0.233,-0.934 -0.271,-0.934C-0.309,-0.934 -0.347,-0.918 -0.38,-0.885C-0.763,-0.503 -1.146,-0.12 -1.528,0.263L-1.656,0.391C-1.66,0.395 -1.674,0.409 -1.676,0.414C-1.673,0.417 -1.654,0.43 -1.634,0.442L-1.612,0.456C-1.525,0.513 -1.458,0.513 -1.346,0.46C-1.17,0.376 -0.793,0.121 -0.487,-0.12C-0.431,-0.164 -0.375,-0.185 -0.313,-0.186C-0.245,-0.303 -0.16,-0.41 0,-0.421Z" style="fill:rgb(142,173,219);fill-rule:nonzero;"/>
            </g>
            <g transform="matrix(1,0,0,1,8.09912,11.3207)">
                <path d="M0,1.292C0.025,1.342 0.052,1.393 0.041,1.457C0.034,1.501 0.037,1.536 0.048,1.548C0.051,1.551 0.056,1.554 0.065,1.552C0.086,1.55 0.086,1.513 0.084,1.464C0.083,1.453 0.083,1.442 0.083,1.433C0.085,1.297 0.085,1.161 0.085,1.026C0.086,0.902 0.086,0.777 0.088,0.653C0.09,0.518 0.069,0.456 -0.003,0.379C-0.008,0.374 -0.014,0.369 -0.019,0.363C-0.034,0.35 -0.049,0.336 -0.058,0.317C-0.127,0.166 -0.248,0.056 -0.366,-0.05C-0.436,-0.114 -0.508,-0.179 -0.569,-0.252C-0.574,-0.257 -0.592,-0.259 -0.603,-0.26C-0.608,-0.261 -0.614,-0.261 -0.619,-0.262C-0.659,-0.256 -0.666,-0.231 -0.676,-0.196C-0.68,-0.183 -0.684,-0.169 -0.691,-0.156C-0.704,-0.131 -0.719,-0.106 -0.733,-0.081C-0.771,-0.018 -0.809,0.047 -0.814,0.112C-0.817,0.154 -0.789,0.199 -0.759,0.248C-0.74,0.278 -0.721,0.31 -0.709,0.342C-0.615,0.584 -0.504,0.755 -0.265,0.801L-0.257,0.804L-0.234,0.823C-0.127,0.906 -0.018,0.992 -0.037,1.163C-0.043,1.208 -0.022,1.249 0,1.292" style="fill:rgb(142,173,219);fill-rule:nonzero;"/>
            </g>
        </g>
    </g>
</svg>
