<?xml version="1.0" encoding="UTF-8" standalone="no"?>
<!DOCTYPE svg PUBLIC "-//W3C//DTD SVG 1.1//EN" "http://www.w3.org/Graphics/SVG/1.1/DTD/svg11.dtd">
<svg width="100%" height="100%" viewBox="0 0 20 20" version="1.1" xmlns="http://www.w3.org/2000/svg" xmlns:xlink="http://www.w3.org/1999/xlink" xml:space="preserve" xmlns:serif="http://www.serif.com/" style="fill-rule:evenodd;clip-rule:evenodd;stroke-linejoin:round;stroke-miterlimit:2;">
    <g transform="matrix(1.03492,0,0,1.03492,-0.349153,-0.349153)">
        <g id="Morkraas">
            <g transform="matrix(1,0,0,1,10.1391,12.2591)">
                <path d="M0,0.671C0.255,0.784 0.31,0.789 0.497,0.619C0.514,0.604 0.53,0.589 0.546,0.573C0.562,0.557 0.578,0.541 0.595,0.526C0.651,0.476 0.676,0.418 0.675,0.345C0.671,0.208 0.662,0.086 0.588,-0.031C0.55,-0.091 0.528,-0.117 0.476,-0.118C0.452,-0.118 0.431,-0.116 0.409,-0.115C0.371,-0.113 0.331,-0.11 0.293,-0.116C0.285,-0.117 0.276,-0.118 0.269,-0.118C0.208,-0.118 0.16,-0.086 0.109,-0.054C0.08,-0.036 0.05,-0.017 0.018,-0.004C-0.013,0.009 -0.016,0.04 -0.017,0.089C-0.019,0.124 -0.02,0.161 -0.039,0.19C-0.095,0.276 -0.103,0.368 -0.098,0.499C-0.1,0.568 -0.102,0.626 0,0.671" style="fill:rgb(215,122,133);fill-rule:nonzero;"/>
            </g>
            <g transform="matrix(1,0,0,1,12.1391,11.2691)">
                <path d="M0,-0.546C-0.019,-0.559 -0.047,-0.562 -0.077,-0.566C-0.107,-0.57 -0.137,-0.574 -0.164,-0.588C-0.25,-0.635 -0.33,-0.657 -0.414,-0.657C-0.426,-0.657 -0.438,-0.657 -0.451,-0.656C-0.552,-0.649 -0.646,-0.572 -0.651,-0.493C-0.66,-0.356 -0.662,-0.243 -0.656,-0.137C-0.654,-0.108 -0.625,-0.063 -0.597,-0.048C-0.497,0.009 -0.392,0.055 -0.283,0.102C-0.262,0.111 -0.229,0.111 -0.214,0.102C-0.093,0.03 0.007,-0.04 0.021,-0.178C0.025,-0.215 0.024,-0.254 0.023,-0.304C0.023,-0.33 0.022,-0.36 0.022,-0.395C0.02,-0.403 0.023,-0.418 0.026,-0.435C0.035,-0.482 0.039,-0.52 0,-0.546" style="fill:rgb(134,128,153);fill-rule:nonzero;"/>
            </g>
            <g transform="matrix(1,0,0,1,13.4251,7.91015)">
                <path d="M0,1.507C0.012,1.512 0.025,1.517 0.037,1.522L0.399,1.646C0.428,1.621 0.457,1.598 0.486,1.574C0.557,1.516 0.629,1.457 0.695,1.394C0.801,1.294 0.912,1.182 1.042,1.041C1.126,0.95 1.129,0.785 1.047,0.7C0.784,0.427 0.513,0.16 0.283,-0.065C0.216,-0.13 0.054,-0.139 -0.026,-0.08C-0.054,-0.059 -0.084,-0.038 -0.113,-0.017C-0.214,0.056 -0.32,0.132 -0.411,0.218C-0.518,0.318 -0.582,0.448 -0.589,0.519C-0.593,0.761 -0.446,1.2 -0.339,1.326C-0.265,1.413 -0.195,1.472 -0.093,1.479C-0.06,1.482 -0.03,1.495 0,1.507" style="fill:rgb(215,122,133);fill-rule:nonzero;"/>
            </g>
            <g transform="matrix(1,0,0,1,9.81912,4.04815)">
                <path d="M0,0.355C0.138,0.277 0.273,0.186 0.404,0.099C0.412,0.093 0.419,0.064 0.416,0.056C0.397,0.03 0.359,-0.007 0.343,-0.019C0.277,0.024 0.204,0.029 0.134,0.033C0.074,0.037 0.018,0.041 -0.031,0.067C-0.123,0.115 -0.163,0.175 -0.154,0.257C-0.154,0.3 -0.135,0.336 -0.102,0.355C-0.071,0.374 -0.034,0.374 0,0.355" style="fill:rgb(215,122,133);fill-rule:nonzero;"/>
            </g>
            <g transform="matrix(1,0,0,1,8.38812,5.35715)">
                <path d="M0,0.952C0.451,0.954 0.901,0.957 1.351,0.961L1.354,0.961C1.445,0.961 1.516,0.917 1.591,0.872C1.628,0.85 1.666,0.827 1.706,0.809C1.744,0.792 1.782,0.743 1.782,0.68C1.781,0.573 1.781,0.466 1.782,0.359L1.782,0.093C1.782,0.008 1.735,-0.002 1.7,-0.002C1.607,-0.003 1.513,-0.003 1.42,-0.003C1.23,-0.003 1.034,-0.003 0.841,-0.009L0.803,-0.009C0.582,-0.009 0.396,0.047 0.221,0.166C0.002,0.314 -0.23,0.449 -0.454,0.58L-0.538,0.629C-0.648,0.694 -0.732,0.78 -0.822,0.872C-0.841,0.892 -0.86,0.911 -0.879,0.931C-0.878,0.932 -0.876,0.934 -0.874,0.936C-0.869,0.94 -0.861,0.946 -0.859,0.947C-0.573,0.949 -0.287,0.95 0,0.952M0.348,0.355C0.449,0.352 0.551,0.352 0.65,0.353L0.733,0.353L0.733,0.348L0.753,0.348C0.813,0.348 0.873,0.346 0.935,0.346C0.98,0.346 1.025,0.347 1.069,0.35C1.109,0.353 1.147,0.374 1.181,0.393L1.197,0.402C1.235,0.422 1.258,0.454 1.26,0.49C1.262,0.522 1.245,0.554 1.214,0.576C1.207,0.581 1.2,0.588 1.193,0.594C1.175,0.612 1.155,0.63 1.131,0.63C0.954,0.636 0.767,0.64 0.576,0.64C0.522,0.64 0.469,0.64 0.415,0.639C0.37,0.639 0.32,0.595 0.291,0.555C0.269,0.522 0.258,0.473 0.262,0.421C0.264,0.389 0.318,0.356 0.348,0.355" style="fill:rgb(30,71,84);fill-rule:nonzero;"/>
            </g>
            <g transform="matrix(1,0,0,1,6.33612,9.31015)">
                <path d="M0,-0.381C-0.069,-0.39 -0.141,-0.398 -0.209,-0.398C-0.251,-0.398 -0.291,-0.395 -0.33,-0.386C-0.393,-0.373 -0.447,-0.293 -0.43,-0.182C-0.42,-0.112 -0.358,-0.035 -0.286,-0.004C-0.265,0.004 -0.226,0.017 -0.196,-0.002C-0.105,-0.063 -0.026,-0.147 0.052,-0.228C0.074,-0.251 0.095,-0.274 0.117,-0.296C0.12,-0.3 0.123,-0.318 0.125,-0.329C0.125,-0.331 0.126,-0.333 0.126,-0.335C0.123,-0.338 0.121,-0.341 0.118,-0.344C0.11,-0.353 0.096,-0.369 0.091,-0.372C0.064,-0.373 0.032,-0.377 0,-0.381" style="fill:rgb(30,71,84);fill-rule:nonzero;"/>
            </g>
            <g transform="matrix(1,0,0,1,4.59712,9.13215)">
                <path d="M0,-0.681C-0.079,-0.684 -0.156,-0.687 -0.233,-0.687C-0.29,-0.687 -0.347,-0.685 -0.403,-0.681C-0.413,-0.681 -0.429,-0.673 -0.44,-0.658C-0.447,-0.647 -0.455,-0.63 -0.449,-0.607L-0.448,-0.604L-0.448,-0.6C-0.455,-0.46 -0.405,-0.338 -0.353,-0.209C-0.333,-0.16 -0.312,-0.109 -0.295,-0.057C-0.291,-0.044 -0.274,-0.031 -0.258,-0.018C-0.251,-0.013 -0.244,-0.008 -0.239,-0.003C-0.232,0.002 -0.21,0.006 -0.184,-0.002C-0.164,-0.008 -0.156,-0.016 -0.155,-0.019C-0.091,-0.231 -0.029,-0.44 0.029,-0.653C0.027,-0.657 0.008,-0.678 0,-0.681" style="fill:rgb(30,71,84);fill-rule:nonzero;"/>
            </g>
            <g transform="matrix(1,0,0,1,3.00612,9.41915)">
                <path d="M0,-0.927C-0.007,-0.941 -0.016,-0.958 -0.023,-0.961C-0.114,-0.997 -0.279,-0.962 -0.33,-0.895C-0.361,-0.855 -0.39,-0.812 -0.419,-0.771C-0.456,-0.716 -0.496,-0.659 -0.539,-0.606C-0.56,-0.58 -0.552,-0.57 -0.536,-0.548C-0.528,-0.537 -0.519,-0.525 -0.515,-0.51C-0.512,-0.5 -0.509,-0.491 -0.506,-0.482C-0.499,-0.463 -0.492,-0.444 -0.489,-0.423C-0.473,-0.314 -0.421,-0.223 -0.366,-0.126C-0.333,-0.068 -0.299,-0.008 -0.273,0.056C-0.269,0.062 -0.236,0.07 -0.218,0.069C-0.201,0.067 -0.175,0.048 -0.171,0.035C-0.162,0.008 -0.157,-0.021 -0.153,-0.05C-0.145,-0.095 -0.138,-0.142 -0.116,-0.182C-0.066,-0.278 -0.07,-0.381 -0.075,-0.481L-0.077,-0.523C-0.079,-0.593 -0.053,-0.652 -0.027,-0.71C0,-0.774 0.027,-0.834 0.013,-0.903C0.009,-0.91 0.004,-0.918 0,-0.927" style="fill:rgb(30,71,84);fill-rule:nonzero;"/>
            </g>
            <g transform="matrix(1,0,0,1,6.06912,11.7451)">
                <path d="M0,0.663C0.083,0.543 0.168,0.419 0.3,0.329C0.08,0.205 -0.088,0.041 -0.249,-0.118C-0.302,-0.17 -0.357,-0.224 -0.412,-0.274L-0.42,-0.282C-0.427,-0.288 -0.434,-0.296 -0.439,-0.297L-0.454,-0.302C-0.47,-0.308 -0.488,-0.315 -0.502,-0.315C-0.506,-0.315 -0.508,-0.315 -0.51,-0.314C-0.543,-0.305 -0.56,-0.278 -0.562,-0.232C-0.565,-0.166 -0.551,-0.103 -0.536,-0.037C-0.531,-0.017 -0.526,0.003 -0.522,0.022C-0.497,0.147 -0.454,0.27 -0.414,0.389C-0.35,0.575 -0.284,0.767 -0.275,0.978C-0.157,0.891 -0.077,0.775 0,0.663" style="fill:rgb(30,71,84);fill-rule:nonzero;"/>
            </g>
            <g transform="matrix(1,0,0,1,4.42412,13.0651)">
                <path d="M0,0.984C0.055,1.1 0.088,1.17 0.117,1.174L0.12,1.174C0.149,1.174 0.202,1.121 0.279,1.043L0.294,1.027C0.413,0.906 0.507,0.78 0.581,0.642C0.59,0.626 0.616,0.577 0.54,0.513L0.522,0.499C0.495,0.476 0.467,0.452 0.437,0.439C-0.018,0.247 -0.047,0.226 -0.322,-0.139C-0.325,-0.143 -0.328,-0.148 -0.33,-0.153C-0.333,-0.157 -0.338,-0.166 -0.341,-0.167L-0.349,-0.171C-0.367,-0.18 -0.388,-0.19 -0.404,-0.19L-0.409,-0.19C-0.424,-0.187 -0.446,-0.168 -0.455,-0.151C-0.462,-0.138 -0.462,-0.119 -0.463,-0.099C-0.463,-0.089 -0.463,-0.08 -0.464,-0.07L-0.464,-0.051C-0.465,0.116 -0.465,0.122 -0.372,0.297C-0.326,0.386 -0.275,0.475 -0.226,0.56C-0.154,0.687 -0.079,0.819 -0.015,0.953L0,0.984Z" style="fill:rgb(30,71,84);fill-rule:nonzero;"/>
            </g>
            <g transform="matrix(1,0,0,1,5.18112,12.7681)">
                <path d="M0,0.673C0.001,0.673 0.008,0.675 0.013,0.677C0.017,0.678 0.021,0.679 0.025,0.681C0.03,0.682 0.034,0.682 0.039,0.683C0.044,0.685 0.053,0.686 0.055,0.686C0.231,0.563 0.36,0.406 0.438,0.22C0.438,0.142 0.297,0.06 0.239,0.043C0.193,0.029 0.147,0.015 0.102,0.001C0.077,-0.007 0.048,-0.013 0.027,0.002C0.004,0.021 0.007,0.056 0.012,0.085C0.034,0.211 0.046,0.34 0.047,0.468C0.048,0.558 -0.053,0.581 0,0.673" style="fill:rgb(30,71,84);fill-rule:nonzero;"/>
            </g>
            <g transform="matrix(1,0,0,1,6.87312,10.6691)">
                <path d="M0,0.564L0.002,0.608C0.004,0.649 0.025,0.696 0.036,0.7C0.079,0.713 0.104,0.694 0.14,0.624C0.169,0.566 0.209,0.513 0.246,0.461C0.302,0.386 0.355,0.315 0.381,0.227L0.295,0.144C0.199,0.05 0.099,-0.046 0,-0.137C-0.011,-0.147 -0.046,-0.149 -0.063,-0.142C-0.071,-0.139 -0.08,-0.122 -0.089,-0.106C-0.093,-0.098 -0.098,-0.09 -0.102,-0.082C-0.102,-0.066 -0.103,-0.049 -0.104,-0.033C-0.105,0.007 -0.107,0.047 -0.093,0.076C-0.014,0.234 -0.007,0.401 0,0.564" style="fill:rgb(30,71,84);fill-rule:nonzero;"/>
            </g>
            <g transform="matrix(1,0,0,1,0.348123,10.9631)">
                <path d="M0,2.384L0,2.405C0,2.432 0.001,2.461 0.003,2.488C0.006,2.551 0.009,2.616 -0.003,2.679C-0.025,2.791 0.012,2.889 0.052,2.992C0.071,3.041 0.091,3.093 0.103,3.146C0.137,3.295 0.246,3.392 0.401,3.411C0.429,3.415 0.458,3.43 0.485,3.444C0.511,3.458 0.54,3.473 0.553,3.468C0.64,3.43 0.724,3.413 0.819,3.413C1.511,3.415 2.198,3.413 2.721,3.413C2.763,3.413 2.805,3.415 2.847,3.417C2.956,3.423 3.067,3.428 3.162,3.396C3.234,3.372 3.295,3.311 3.358,3.247C3.393,3.213 3.428,3.177 3.467,3.147C3.716,2.951 3.72,2.928 3.566,2.671C3.554,2.65 3.536,2.632 3.518,2.613C3.493,2.586 3.468,2.56 3.454,2.526C3.445,2.503 3.436,2.481 3.426,2.458C3.334,2.237 3.24,2.008 3.378,1.746C3.437,1.635 3.491,1.558 3.566,1.543C3.627,1.53 3.698,1.564 3.8,1.65C3.85,1.694 3.896,1.743 3.94,1.792C3.957,1.81 3.974,1.828 3.991,1.846C4.243,2.11 4.373,2.235 4.477,2.235C4.56,2.235 4.652,2.14 4.684,2.069C4.745,1.93 4.648,1.771 4.667,1.62C4.67,1.597 4.677,1.573 4.694,1.559C4.721,1.538 4.759,1.548 4.791,1.557C4.856,1.578 4.921,1.596 4.987,1.614C5.085,1.64 5.16,1.539 5.116,1.443C5.062,1.32 5.029,1.19 4.998,1.063C4.97,0.95 4.941,0.834 4.897,0.725C4.893,0.716 4.889,0.707 4.884,0.697C4.867,0.659 4.849,0.62 4.86,0.587C4.905,0.458 4.958,0.334 5.017,0.22C5.036,0.184 5.077,0.156 5.129,0.143C5.188,0.129 5.25,0.136 5.295,0.168C5.318,0.185 5.342,0.201 5.362,0.224C5.485,0.365 5.636,0.482 5.781,0.596C5.867,0.663 5.957,0.733 6.04,0.807C6.066,0.831 6.102,0.847 6.137,0.862L6.15,0.868C6.176,0.879 6.211,0.875 6.244,0.857C6.273,0.84 6.292,0.815 6.295,0.791C6.329,0.464 6.283,0.118 6.149,-0.297C6.09,-0.479 6.12,-0.567 6.271,-0.66C6.286,-0.669 6.302,-0.673 6.317,-0.677C6.331,-0.68 6.344,-0.684 6.353,-0.69C6.413,-0.734 6.462,-0.737 6.532,-0.705C6.621,-0.663 6.69,-0.605 6.764,-0.544L6.79,-0.522C6.878,-0.45 6.977,-0.385 7.082,-0.328C7.144,-0.296 7.217,-0.297 7.277,-0.332C7.336,-0.367 7.373,-0.429 7.375,-0.499C7.378,-0.604 7.377,-0.713 7.376,-0.817C7.375,-0.877 7.375,-0.936 7.375,-0.996C7.375,-1.027 7.368,-1.05 7.353,-1.065C7.338,-1.08 7.317,-1.087 7.288,-1.087C6.879,-1.088 6.471,-1.089 6.061,-1.088L5.615,-1.088C5.516,-1.088 5.443,-1.06 5.385,-1.001C5.315,-0.929 5.241,-0.858 5.17,-0.789C5.027,-0.652 4.879,-0.51 4.756,-0.354C4.59,-0.144 4.439,0.084 4.292,0.304C4.22,0.412 4.145,0.524 4.07,0.632C3.961,0.788 3.849,0.95 3.729,1.102C3.637,1.22 3.541,1.337 3.448,1.45C3.27,1.666 3.087,1.889 2.926,2.121C2.789,2.319 2.631,2.481 2.48,2.628C2.417,2.69 2.347,2.72 2.266,2.72C2.058,2.72 1.85,2.722 1.643,2.723C1.298,2.725 0.943,2.728 0.592,2.725C0.397,2.724 0.208,2.571 0.151,2.37C0.141,2.333 0.14,2.294 0.139,2.256C0.138,2.217 0.137,2.18 0.127,2.147C0.112,2.101 0.067,2.059 0.023,2.02C0.013,2.021 -0.009,2.058 -0.01,2.133C-0.011,2.196 -0.011,2.257 -0.01,2.319C-0.01,2.319 -0.01,2.384 0,2.384" style="fill:rgb(215,122,133);fill-rule:nonzero;"/>
            </g>
            <g transform="matrix(1,0,0,1,12.3731,5.14815)">
                <path d="M0,-1.148C-0.132,-1.146 -0.271,-1.144 -0.404,-1.158C-0.476,-1.166 -0.546,-1.184 -0.613,-1.201C-0.658,-1.213 -0.704,-1.224 -0.751,-1.233C-0.76,-1.18 -0.771,-1.128 -0.764,-1.098C-0.729,-0.913 -0.576,-0.702 -0.495,-0.533C-0.422,-0.382 -0.349,-0.231 -0.241,-0.104C-0.215,-0.074 -0.188,-0.042 -0.163,-0.009C-0.16,-0.008 -0.155,-0.008 -0.153,-0.007C-0.065,0.056 0.023,0.085 0.127,0.085C0.383,0.084 0.64,0.083 0.898,0.084C1.137,0.085 1.379,0.084 1.62,0.083C1.681,0.083 1.738,0.07 1.781,0.049C2.364,-0.239 2.983,-0.548 3.732,-0.925C3.771,-0.944 3.806,-0.974 3.826,-1.005C3.844,-1.033 3.854,-1.075 3.853,-1.117C3.849,-1.122 3.82,-1.141 3.805,-1.142C3.68,-1.148 3.555,-1.148 3.444,-1.148L2.028,-1.149L0.14,-1.149C0.094,-1.149 0.047,-1.148 0,-1.148" style="fill:rgb(71,72,114);fill-rule:nonzero;"/>
            </g>
            <g transform="matrix(1,0,0,1,14.1681,12.5091)">
                <path d="M0,2.219C-0.596,1.585 -1.093,1.058 -1.61,0.513C-1.76,0.355 -1.825,0.198 -1.817,0.018C-1.814,-0.05 -1.835,-0.084 -1.888,-0.095C-2.038,-0.128 -2.086,-0.252 -2.128,-0.361C-2.158,-0.352 -2.19,-0.348 -2.22,-0.341C-2.411,-0.301 -2.482,-0.11 -2.621,0.008C-2.75,0.118 -2.901,0.2 -3.063,0.247C-3.073,0.25 -3.083,0.251 -3.093,0.253C-3.125,0.343 -3.163,0.432 -3.248,0.489C-3.332,0.545 -3.42,0.597 -3.505,0.647C-3.571,0.686 -3.639,0.727 -3.704,0.768C-3.765,0.807 -3.82,0.807 -3.891,0.769C-3.913,0.757 -3.936,0.748 -3.961,0.738C-3.992,0.726 -4.025,0.713 -4.054,0.694C-4.176,0.616 -4.176,0.616 -4.287,0.74C-4.333,0.79 -4.376,0.846 -4.417,0.9C-4.474,0.975 -4.533,1.053 -4.603,1.118C-4.798,1.304 -5.041,1.508 -5.17,1.748C-5.19,1.783 -5.205,1.833 -5.176,1.861C-5.051,1.979 -4.774,1.752 -4.633,1.798C-4.426,1.866 -4.213,1.854 -4.005,1.844C-3.924,1.84 -3.84,1.835 -3.755,1.836C-3.671,1.773 -3.576,1.774 -3.482,1.776L-3.446,1.777C-3.353,1.777 -3.26,1.778 -3.167,1.778C-2.917,1.78 -2.659,1.781 -2.406,1.774C-2.31,1.769 -2.219,1.797 -2.131,1.822C-2.032,1.85 -1.939,1.878 -1.836,1.866C-1.802,1.863 -1.768,1.88 -1.736,1.899C-1.713,1.911 -1.689,1.924 -1.667,1.927C-1.522,1.949 -1.394,2.014 -1.271,2.077C-1.199,2.114 -1.124,2.151 -1.048,2.179C-0.974,2.207 -0.899,2.233 -0.824,2.258C-0.678,2.309 -0.527,2.36 -0.384,2.426C-0.227,2.497 -0.064,2.54 0.074,2.573C0.096,2.58 0.149,2.554 0.163,2.531C0.18,2.504 0.182,2.447 0.167,2.423C0.122,2.351 0.062,2.285 0,2.219" style="fill:rgb(71,72,114);fill-rule:nonzero;"/>
            </g>
            <g transform="matrix(1,0,0,1,9.04112,8.96215)">
                <path d="M0,2.445C0.285,2.414 0.28,1.661 0.425,1.468C0.521,1.339 0.664,1.255 0.805,1.177C0.985,1.078 1.169,0.987 1.354,0.896L1.321,0.855C1.199,0.702 1.073,0.543 0.964,0.377C0.92,0.312 0.878,0.288 0.801,0.285C0.513,0.274 0.302,0.197 0.137,0.041C0.086,-0.007 0.021,-0.001 -0.049,0.006C-0.068,0.008 -0.088,0.01 -0.107,0.011C-0.147,0.012 -0.172,0.036 -0.175,0.074C-0.181,0.158 -0.18,0.244 -0.18,0.327L-0.18,0.954C-0.181,1.438 -0.181,1.937 -0.179,2.431C-0.119,2.441 -0.06,2.452 0,2.445" style="fill:rgb(71,72,114);fill-rule:nonzero;"/>
            </g>
            <g transform="matrix(1,0,0,1,18.1131,15.7021)">
                <path d="M0,-3.902C-0.016,-3.91 -0.033,-3.919 -0.049,-3.928C-0.11,-3.962 -0.173,-3.997 -0.235,-4.002C-0.385,-4.014 -0.529,-4.057 -0.668,-4.099C-0.808,-4.141 -0.952,-4.183 -1.109,-4.198C-1.2,-4.259 -1.304,-4.267 -1.414,-4.277C-1.527,-4.286 -1.643,-4.296 -1.744,-4.366C-1.916,-4.376 -2.082,-4.424 -2.242,-4.47C-2.331,-4.496 -2.424,-4.523 -2.516,-4.543C-2.566,-4.553 -2.618,-4.561 -2.668,-4.569C-2.761,-4.583 -2.857,-4.598 -2.953,-4.631C-3.004,-4.649 -3.059,-4.652 -3.117,-4.656C-3.207,-4.662 -3.3,-4.667 -3.381,-4.727C-3.493,-4.71 -3.596,-4.742 -3.696,-4.773C-3.78,-4.799 -3.859,-4.822 -3.943,-4.822C-3.95,-4.821 -3.956,-4.821 -3.962,-4.821C-4.066,-4.821 -4.163,-4.849 -4.257,-4.876C-4.339,-4.9 -4.424,-4.925 -4.513,-4.93C-4.727,-4.942 -4.901,-5.05 -5.004,-5.224C-5.069,-5.333 -5.302,-5.544 -5.42,-5.609C-5.531,-5.672 -5.676,-5.675 -5.8,-5.681C-6.074,-5.693 -6.344,-5.655 -6.616,-5.647C-6.638,-5.646 -6.66,-5.647 -6.682,-5.647C-6.809,-5.648 -6.929,-5.649 -7.044,-5.579C-7.11,-5.538 -7.169,-5.572 -7.22,-5.601C-7.262,-5.625 -7.303,-5.648 -7.345,-5.637C-7.469,-5.61 -7.558,-5.665 -7.622,-5.73C-7.67,-5.593 -7.811,-5.476 -7.95,-5.407C-8.144,-5.312 -8.373,-5.237 -8.47,-5.045C-8.522,-4.943 -8.527,-4.824 -8.548,-4.712C-8.606,-4.41 -8.918,-4.039 -9.264,-4.037C-9.279,-3.9 -9.317,-3.772 -9.397,-3.662C-9.512,-3.503 -9.647,-3.365 -9.741,-3.193C-9.771,-3.136 -9.792,-3.066 -9.764,-3.008C-9.746,-2.971 -9.711,-2.943 -9.698,-2.904C-9.677,-2.841 -9.73,-2.769 -9.795,-2.755C-9.86,-2.742 -9.929,-2.776 -9.972,-2.827C-10.015,-2.878 -10.037,-2.943 -10.053,-3.008C-10.07,-3.077 -10.08,-3.148 -10.067,-3.217C-10.042,-3.349 -9.935,-3.447 -9.835,-3.535C-9.39,-3.924 -9.484,-4.402 -9.485,-4.933C-9.486,-5.236 -9.485,-5.539 -9.484,-5.841L-9.484,-6.528C-9.483,-6.629 -9.483,-6.685 -9.507,-6.709C-9.535,-6.736 -9.608,-6.737 -9.725,-6.736L-9.88,-6.733C-10.025,-6.731 -10.185,-6.707 -10.328,-6.726C-10.36,-6.73 -10.393,-6.737 -10.425,-6.733C-10.457,-6.728 -10.49,-6.709 -10.501,-6.678C-10.512,-6.644 -10.492,-6.607 -10.465,-6.584C-10.438,-6.561 -10.404,-6.549 -10.373,-6.532C-10.064,-6.369 -10.158,-5.911 -10.158,-5.624C-10.158,-5.172 -10.157,-4.722 -10.158,-4.271C-10.158,-4.195 -10.16,-4.097 -10.171,-3.997C-10.175,-3.964 -10.229,-3.938 -10.256,-3.935C-10.289,-3.931 -10.329,-3.944 -10.351,-3.966C-10.369,-3.984 -10.375,-4.012 -10.38,-4.036C-10.382,-4.042 -10.383,-4.049 -10.385,-4.055C-10.393,-4.085 -10.4,-4.115 -10.407,-4.145C-10.407,-4.145 -10.41,-4.157 -10.414,-4.155C-10.372,-4.441 -10.353,-4.803 -10.678,-4.544C-10.822,-4.429 -10.921,-4.185 -11.035,-4.039C-11.178,-3.855 -11.335,-3.681 -11.511,-3.528C-11.671,-3.387 -11.794,-3.214 -11.905,-3.049C-11.947,-2.987 -11.987,-2.923 -12.025,-2.86C-12.109,-2.722 -12.196,-2.58 -12.313,-2.46C-12.693,-2.069 -13.044,-1.622 -13.324,-1.263C-13.365,-1.211 -13.404,-1.158 -13.443,-1.106C-13.507,-1.02 -13.75,-0.811 -13.765,-0.716C-13.774,-0.661 -13.748,-0.611 -13.716,-0.563C-13.662,-0.48 -13.592,-0.4 -13.66,-0.298C-13.68,-0.269 -13.708,-0.248 -13.728,-0.22C-13.737,-0.207 -13.74,-0.192 -13.744,-0.178C-13.777,-0.163 -13.803,-0.141 -13.837,-0.128C-13.849,-0.123 -13.868,-0.11 -13.892,-0.074C-13.897,-0.067 -13.903,-0.059 -13.908,-0.052C-13.928,-0.023 -13.949,0.006 -13.95,0.032C-13.953,0.25 -13.951,0.473 -13.949,0.688L-13.948,0.884C-13.865,1.001 -13.873,1.13 -13.881,1.255C-13.883,1.293 -13.886,1.334 -13.885,1.372C-13.881,1.655 -13.881,1.941 -13.88,2.219C-13.88,2.389 -13.88,2.56 -13.879,2.73C-13.878,2.793 -13.851,2.825 -13.794,2.825C-13.655,2.825 -13.517,2.826 -13.38,2.828C-13.041,2.832 -12.69,2.835 -12.347,2.821C-12.103,2.811 -11.926,2.735 -11.807,2.591C-11.782,2.56 -11.753,2.532 -11.726,2.504C-11.701,2.479 -11.675,2.453 -11.652,2.426C-11.454,2.191 -11.329,1.973 -11.367,1.674C-11.386,1.516 -11.383,1.353 -11.381,1.195C-11.379,1.114 -11.378,1.031 -11.379,0.949C-11.379,0.938 -11.39,0.923 -11.405,0.902C-11.411,0.905 -11.417,0.909 -11.42,0.913C-11.549,1.048 -11.711,1.13 -11.901,1.155C-11.936,1.16 -11.956,1.181 -11.976,1.228C-11.986,1.252 -11.996,1.275 -12.008,1.298C-12.04,1.368 -12.072,1.434 -12.065,1.514C-12.06,1.582 -12.064,1.651 -12.068,1.718C-12.07,1.741 -12.071,1.764 -12.072,1.788C-12.074,1.822 -12.114,1.846 -12.127,1.853C-12.139,1.859 -12.181,1.879 -12.211,1.861C-12.247,1.84 -12.279,1.818 -12.28,1.789C-12.286,1.647 -12.29,1.493 -12.284,1.336C-12.276,1.125 -12.179,0.998 -11.968,0.925C-11.94,0.915 -11.909,0.907 -11.878,0.898C-11.808,0.879 -11.736,0.86 -11.689,0.819C-11.563,0.708 -11.425,0.624 -11.265,0.563C-11.233,0.551 -11.218,0.527 -11.2,0.497C-11.196,0.491 -11.192,0.485 -11.188,0.479C-11.133,0.396 -11.066,0.313 -10.988,0.232C-10.727,-0.037 -10.431,-0.342 -10.165,-0.66C-10.014,-0.84 -9.849,-1.014 -9.69,-1.182C-9.514,-1.367 -9.332,-1.559 -9.167,-1.761C-8.984,-1.986 -8.784,-2.204 -8.59,-2.414C-8.513,-2.499 -8.435,-2.583 -8.358,-2.668C-8.316,-2.715 -8.298,-2.76 -8.298,-2.815C-8.299,-2.879 -8.298,-2.943 -8.298,-3.007C-8.297,-3.064 -8.297,-3.121 -8.297,-3.178C-8.298,-3.358 -8.241,-3.509 -8.12,-3.64C-8.029,-3.739 -7.913,-3.786 -7.758,-3.786C-7.75,-3.786 -7.742,-3.785 -7.735,-3.786C-7.695,-3.786 -7.652,-3.797 -7.61,-3.808C-7.598,-3.811 -7.585,-3.815 -7.573,-3.818C-7.38,-3.865 -7.232,-3.792 -7.174,-3.623C-7.159,-3.579 -7.146,-3.534 -7.132,-3.489C-7.108,-3.409 -7.083,-3.326 -7.049,-3.248L-7.043,-3.235C-7.034,-3.215 -7.028,-3.195 -7.021,-3.175C-6.992,-3.185 -6.963,-3.194 -6.936,-3.206C-6.763,-3.28 -6.697,-3.428 -6.563,-3.542C-6.44,-3.647 -6.283,-3.686 -6.127,-3.707C-6.131,-3.719 -6.135,-3.731 -6.139,-3.743C-6.174,-3.855 -6.207,-3.961 -6.285,-4.033C-6.373,-4.113 -6.49,-4.165 -6.604,-4.216C-6.638,-4.232 -6.672,-4.247 -6.706,-4.263C-6.878,-4.346 -6.925,-4.489 -6.942,-4.679C-6.948,-4.75 -6.921,-4.805 -6.894,-4.859C-6.881,-4.886 -6.869,-4.912 -6.861,-4.939C-6.763,-5.261 -6.691,-5.319 -6.374,-5.319C-6.329,-5.319 -6.284,-5.32 -6.239,-5.32C-6.09,-5.32 -5.938,-5.309 -5.799,-5.221C-5.714,-5.167 -5.62,-5.086 -5.646,-4.935C-5.675,-4.766 -5.705,-4.592 -5.748,-4.424C-5.758,-4.387 -5.795,-4.262 -5.872,-4.224C-5.94,-4.189 -5.98,-4.152 -5.991,-4.109C-6.005,-4.063 -5.989,-4.007 -5.94,-3.929C-5.894,-3.856 -5.855,-3.774 -5.824,-3.684C-5.783,-3.568 -5.705,-3.514 -5.57,-3.508C-5.436,-3.503 -5.318,-3.507 -5.227,-3.629C-5.14,-3.745 -5.013,-3.796 -4.85,-3.782C-4.779,-3.775 -4.705,-3.777 -4.634,-3.779C-4.601,-3.779 -4.568,-3.78 -4.535,-3.78L-3.148,-3.78C-2.222,-3.78 -1.297,-3.781 -0.372,-3.781C-0.251,-3.781 -0.13,-3.786 -0.013,-3.796C-0.008,-3.799 0.009,-3.827 0.012,-3.846C0.016,-3.867 0.007,-3.897 0,-3.902" style="fill:rgb(134,128,153);fill-rule:nonzero;"/>
            </g>
            <g transform="matrix(1,0,0,1,3.20812,5.75415)">
                <path d="M0,0.96C0.004,0.827 0.04,0.718 0.1,0.627C0.104,0.62 0.107,0.613 0.11,0.607C0.153,0.533 0.212,0.47 0.245,0.391C0.285,0.295 0.282,0.187 0.278,0.084C0.274,-0.05 0.258,-0.178 0.244,-0.309C0.241,-0.33 0.241,-0.356 0.241,-0.383C0.225,-0.402 0.209,-0.421 0.191,-0.442C0.174,-0.461 0.156,-0.483 0.137,-0.505C0.103,-0.543 0.078,-0.589 0.054,-0.633C0.036,-0.666 0.016,-0.702 -0.006,-0.732C-0.035,-0.772 -0.078,-0.811 -0.133,-0.849C-0.168,-0.873 -0.218,-0.874 -0.262,-0.85C-0.304,-0.829 -0.33,-0.792 -0.33,-0.755C-0.33,-0.663 -0.362,-0.501 -0.289,-0.428C-0.279,-0.418 -0.266,-0.41 -0.258,-0.398C-0.238,-0.374 -0.237,-0.338 -0.252,-0.31C-0.266,-0.282 -0.292,-0.262 -0.322,-0.25C-0.402,-0.216 -0.503,-0.244 -0.555,-0.314C-0.591,-0.363 -0.602,-0.425 -0.613,-0.485C-0.659,-0.749 -0.634,-1.03 -0.634,-1.297L-0.634,-2.139L-0.633,-3.136C-0.633,-3.171 -0.634,-3.199 -0.637,-3.225C-0.641,-3.278 -0.67,-3.299 -0.74,-3.303C-0.938,-3.316 -1.105,-3.233 -1.217,-3.063C-1.228,-3.047 -1.238,-3.031 -1.248,-3.015C-1.286,-2.955 -1.326,-2.892 -1.382,-2.846C-1.51,-2.741 -1.604,-2.604 -1.694,-2.472C-1.744,-2.399 -1.796,-2.323 -1.854,-2.253C-1.869,-2.234 -1.88,-2.211 -1.892,-2.186C-1.906,-2.156 -1.921,-2.124 -1.946,-2.1C-2.176,-1.865 -2.292,-1.563 -2.404,-1.272C-2.432,-1.198 -2.461,-1.125 -2.491,-1.053C-2.484,-0.923 -2.534,-0.811 -2.583,-0.703C-2.6,-0.664 -2.617,-0.624 -2.632,-0.584C-2.759,-0.243 -2.882,0.125 -2.868,0.53C-2.852,1.027 -2.855,1.533 -2.859,2.021C-2.86,2.249 -2.862,2.476 -2.862,2.703C-2.861,3.102 -2.858,3.508 -2.855,3.9L-2.854,4.06C-2.853,4.115 -2.841,4.155 -2.78,4.179C-2.755,4.189 -2.732,4.2 -2.709,4.211C-2.64,4.244 -2.574,4.276 -2.494,4.266C-2.409,4.256 -2.317,4.255 -2.219,4.264C-2.081,4.274 -1.972,4.23 -1.88,4.122C-1.851,4.088 -1.818,4.056 -1.787,4.025C-1.731,3.97 -1.678,3.918 -1.643,3.856C-1.501,3.598 -1.322,3.363 -1.149,3.136C-1.057,3.014 -0.962,2.889 -0.873,2.762C-0.753,2.59 -0.599,2.466 -0.414,2.394C-0.357,2.372 -0.3,2.369 -0.246,2.366C-0.212,2.364 -0.179,2.363 -0.146,2.356C-0.083,2.344 -0.005,2.248 -0.005,2.182C-0.004,2.119 -0.005,2.055 -0.005,1.991C-0.006,1.934 -0.006,1.877 -0.006,1.82L-0.006,1.593C-0.007,1.385 -0.007,1.171 0,0.96M-1.18,0.144L-1.197,0.141C-1.251,0.131 -1.307,0.12 -1.354,0.093C-1.372,0.082 -1.386,0.079 -1.394,0.083C-1.401,0.087 -1.405,0.101 -1.406,0.118C-1.409,0.292 -1.409,0.469 -1.41,0.64C-1.41,0.753 -1.41,0.865 -1.411,0.977C-1.411,1.032 -1.414,1.097 -1.428,1.16C-1.436,1.193 -1.49,1.214 -1.516,1.216L-1.523,1.216C-1.553,1.216 -1.603,1.202 -1.612,1.173C-1.629,1.114 -1.639,1.052 -1.639,0.993C-1.641,0.773 -1.641,0.553 -1.64,0.332L-1.64,0.068L-1.634,0.068C-1.634,-0.003 -1.633,-0.074 -1.632,-0.145C-1.629,-0.321 -1.627,-0.502 -1.637,-0.679C-1.65,-0.893 -1.591,-1.098 -1.45,-1.323C-1.433,-1.349 -1.417,-1.376 -1.401,-1.403C-1.348,-1.489 -1.293,-1.577 -1.234,-1.661C-1.184,-1.733 -1.091,-1.715 -1.048,-1.707C-1.023,-1.703 -0.997,-1.67 -0.989,-1.653C-0.987,-1.649 -0.98,-1.636 -0.987,-1.623C-1.026,-1.546 -1.078,-1.446 -1.141,-1.348C-1.241,-1.19 -1.314,-1.012 -1.369,-0.787C-1.415,-0.603 -1.402,-0.468 -1.326,-0.333C-1.312,-0.308 -1.299,-0.282 -1.286,-0.256C-1.242,-0.164 -1.201,-0.078 -1.094,-0.041C-1.064,-0.03 -1.054,0.033 -1.059,0.061C-1.071,0.121 -1.121,0.156 -1.18,0.144" style="fill:rgb(134,128,153);fill-rule:nonzero;"/>
            </g>
            <g transform="matrix(1,0,0,1,19.6401,3.95015)">
                <path d="M0,4.123C-0.049,4.052 -0.112,4.021 -0.214,4.021C-0.516,4.022 -0.819,4.022 -1.121,4.021C-1.655,4.021 -2.206,4.021 -2.748,4.026L-2.764,4.026C-3.032,4.026 -3.223,3.962 -3.381,3.819C-3.447,3.759 -3.535,3.717 -3.605,3.688C-3.976,3.529 -4.349,3.372 -4.721,3.215L-5.156,3.032C-5.167,3.028 -5.18,3.024 -5.193,3.02C-5.229,3.008 -5.267,2.997 -5.282,2.968C-5.345,2.851 -5.415,2.711 -5.464,2.561C-5.478,2.52 -5.434,2.469 -5.393,2.419C-5.387,2.411 -5.381,2.403 -5.375,2.396C-5.363,2.382 -5.345,2.374 -5.328,2.376C-5.284,2.379 -5.237,2.426 -5.211,2.472C-5.186,2.512 -5.18,2.556 -5.174,2.599C-5.166,2.657 -5.158,2.711 -5.109,2.755C-5.026,2.826 -4.934,2.899 -4.818,2.947C-4.725,2.986 -4.631,3.024 -4.537,3.062C-4.252,3.178 -3.957,3.297 -3.676,3.436C-3.672,3.438 -3.665,3.438 -3.658,3.439C-3.651,3.44 -3.643,3.441 -3.635,3.443C-3.599,3.456 -3.563,3.452 -3.537,3.434C-3.515,3.419 -3.502,3.395 -3.5,3.367C-3.497,3.297 -3.496,3.24 -3.498,3.188C-3.505,3.042 -3.408,2.961 -3.334,2.914C-3.205,2.83 -3.075,2.748 -2.946,2.665C-2.788,2.564 -2.63,2.463 -2.472,2.361C-2.163,2.16 -1.863,1.962 -1.581,1.771C-1.567,1.761 -1.558,1.737 -1.549,1.714C-1.546,1.708 -1.544,1.701 -1.548,1.692C-1.565,1.685 -1.581,1.677 -1.596,1.677C-2.078,1.674 -2.562,1.673 -3.044,1.673C-3.071,1.673 -3.102,1.673 -3.123,1.684C-3.141,1.694 -3.16,1.717 -3.167,1.738C-3.189,1.808 -3.16,1.866 -3.129,1.929C-3.114,1.958 -3.099,1.989 -3.089,2.022C-3.071,2.081 -3.033,2.088 -2.971,2.093C-2.954,2.095 -2.937,2.096 -2.921,2.099C-2.857,2.112 -2.823,2.148 -2.822,2.207C-2.822,2.277 -2.866,2.312 -2.905,2.342C-2.913,2.348 -2.922,2.354 -2.929,2.361C-2.972,2.398 -3.029,2.402 -3.078,2.373C-3.116,2.35 -3.15,2.321 -3.183,2.292C-3.196,2.281 -3.209,2.27 -3.222,2.259C-3.361,2.147 -3.419,2.012 -3.399,1.847C-3.393,1.802 -3.396,1.757 -3.406,1.72C-3.411,1.705 -3.437,1.682 -3.453,1.68C-3.515,1.673 -3.581,1.673 -3.644,1.673L-3.676,1.673C-3.965,1.672 -4.255,1.671 -4.544,1.669C-4.544,1.669 -5.124,1.667 -5.125,1.667C-5.143,1.667 -5.162,1.669 -5.181,1.671C-5.23,1.676 -5.28,1.682 -5.314,1.657C-5.453,1.558 -5.602,1.567 -5.759,1.576C-5.81,1.58 -5.864,1.584 -5.916,1.582C-6.174,1.576 -6.437,1.577 -6.69,1.578C-6.855,1.578 -7.019,1.579 -7.183,1.578C-7.269,1.577 -7.327,1.563 -7.364,1.533C-7.429,1.481 -7.484,1.418 -7.54,1.357C-7.555,1.348 -7.572,1.344 -7.585,1.333C-7.644,1.281 -7.681,1.21 -7.717,1.14C-7.881,0.824 -8.044,0.509 -8.208,0.193C-8.245,0.122 -8.297,0.007 -8.271,-0.078C-8.403,-0.131 -8.483,-0.26 -8.546,-0.385C-8.56,-0.411 -8.549,-0.449 -8.534,-0.476C-8.527,-0.49 -8.506,-0.522 -8.468,-0.526C-8.437,-0.529 -8.401,-0.533 -8.379,-0.514C-8.348,-0.488 -8.319,-0.458 -8.292,-0.428C-8.268,-0.404 -8.244,-0.378 -8.219,-0.355C-8.077,-0.229 -7.905,-0.231 -7.77,-0.361C-7.518,-0.604 -7.243,-0.979 -7.058,-1.275C-6.918,-1.501 -6.759,-1.719 -6.606,-1.93C-6.484,-2.098 -6.358,-2.271 -6.242,-2.447C-6.24,-2.451 -6.237,-2.456 -6.243,-2.465C-6.26,-2.474 -6.276,-2.482 -6.29,-2.483C-6.332,-2.484 -6.379,-2.486 -6.41,-2.469C-6.584,-2.377 -6.735,-2.29 -6.873,-2.204C-6.958,-2.151 -7.043,-2.096 -7.127,-2.042C-7.423,-1.85 -7.73,-1.65 -8.077,-1.534L-8.099,-1.527C-8.133,-1.516 -8.168,-1.504 -8.194,-1.485C-8.357,-1.361 -8.537,-1.259 -8.711,-1.16C-8.931,-1.036 -9.159,-0.907 -9.352,-0.733C-9.406,-0.684 -9.475,-0.651 -9.542,-0.619C-9.557,-0.612 -9.573,-0.604 -9.588,-0.597C-9.665,-0.558 -9.744,-0.521 -9.822,-0.484C-9.891,-0.452 -9.96,-0.419 -10.029,-0.385C-10.051,-0.374 -10.068,-0.356 -10.046,-0.294C-10.042,-0.28 -10.027,-0.266 -10.013,-0.252C-10.006,-0.245 -9.999,-0.239 -9.993,-0.231C-9.897,-0.125 -9.834,-0.068 -9.677,-0.145C-9.493,-0.236 -9.333,-0.18 -9.19,0.025C-9.179,0.041 -9.172,0.059 -9.165,0.076C-9.161,0.087 -9.157,0.097 -9.152,0.108C-9.08,0.241 -9.091,0.316 -9.193,0.396C-9.388,0.548 -9.618,0.631 -9.841,0.712C-9.881,0.726 -9.92,0.74 -9.959,0.755C-10.025,0.78 -10.109,0.728 -10.142,0.705C-10.208,0.658 -10.275,0.583 -10.274,0.508C-10.273,0.391 -10.272,0.282 -10.218,0.162C-10.173,0.065 -10.165,-0.009 -10.193,-0.066C-10.232,-0.146 -10.341,-0.187 -10.493,-0.223C-10.5,-0.225 -10.508,-0.225 -10.518,-0.224C-10.523,-0.224 -10.528,-0.223 -10.533,-0.223L-10.991,-0.223C-11.487,-0.223 -11.983,-0.223 -12.481,-0.224C-12.582,-0.224 -12.679,-0.193 -12.774,-0.163C-13.141,-0.045 -13.367,0.123 -13.643,0.403C-13.643,0.404 -13.655,0.416 -13.655,0.416C-13.744,0.505 -13.789,0.617 -13.836,0.734C-13.845,0.755 -13.854,0.777 -13.862,0.798C-13.934,0.967 -13.912,1.103 -13.797,1.211C-13.772,1.235 -13.747,1.26 -13.723,1.285C-13.653,1.357 -13.587,1.425 -13.495,1.467C-13.432,1.497 -13.378,1.545 -13.327,1.593C-13.311,1.607 -13.295,1.622 -13.279,1.636C-13.257,1.654 -13.246,1.676 -13.246,1.699C-13.247,1.726 -13.263,1.752 -13.293,1.775C-13.299,1.78 -13.305,1.786 -13.311,1.792C-13.334,1.815 -13.371,1.854 -13.427,1.811C-13.44,1.802 -13.451,1.795 -13.462,1.789C-13.752,1.638 -13.983,1.415 -14.174,1.095C-14.196,1.058 -14.209,1.038 -14.247,1.038C-14.326,1.039 -14.405,1.04 -14.484,1.041C-14.643,1.042 -14.809,1.044 -14.97,1.05C-15.055,1.053 -15.099,1.129 -15.117,1.174L-15.128,1.199C-15.164,1.285 -15.201,1.374 -15.205,1.461C-15.216,1.721 -15.225,1.997 -15.202,2.272C-15.191,2.402 -15.127,2.57 -14.985,2.614C-14.947,2.626 -14.908,2.64 -14.872,2.654C-14.781,2.689 -14.688,2.724 -14.583,2.724L-14.564,2.724C-14.278,2.711 -13.988,2.713 -13.706,2.715C-13.6,2.715 -13.493,2.716 -13.387,2.716C-13.33,2.716 -13.275,2.701 -13.221,2.687C-13.191,2.68 -13.162,2.672 -13.132,2.667C-12.917,2.628 -12.757,2.497 -12.603,2.37L-12.569,2.343C-12.509,2.294 -12.449,2.245 -12.39,2.195C-12.121,1.972 -11.843,1.742 -11.525,1.572C-11.4,1.505 -11.28,1.425 -11.163,1.347C-11.109,1.311 -11.054,1.275 -10.999,1.239C-10.992,1.235 -10.985,1.229 -10.978,1.224C-10.956,1.207 -10.933,1.19 -10.91,1.192C-10.798,1.204 -10.694,1.177 -10.584,1.149C-10.493,1.125 -10.4,1.101 -10.296,1.101C-9.895,1.105 -9.54,1.105 -9.21,1.1C-9.103,1.097 -9,1.124 -8.902,1.18C-8.885,1.19 -8.867,1.199 -8.85,1.209L-8.804,1.234L-8.818,1.253C-8.826,1.263 -8.834,1.274 -8.841,1.285C-8.858,1.311 -8.876,1.338 -8.899,1.359C-8.949,1.404 -9.01,1.402 -9.062,1.401C-9.085,1.401 -9.106,1.4 -9.126,1.403C-9.229,1.415 -9.236,1.423 -9.237,1.522C-9.238,1.566 -9.238,1.611 -9.239,1.655C-9.242,1.789 -9.245,1.928 -9.235,2.063C-9.222,2.236 -9.315,2.34 -9.418,2.425C-9.441,2.444 -9.469,2.456 -9.496,2.467C-9.525,2.478 -9.552,2.489 -9.569,2.508C-9.692,2.651 -9.848,2.667 -10.012,2.667L-10.032,2.667C-10.525,2.663 -11.027,2.663 -11.511,2.664C-11.787,2.664 -12.064,2.665 -12.342,2.664C-12.464,2.664 -12.562,2.688 -12.67,2.745C-12.902,2.867 -13.155,2.975 -13.444,2.948C-13.477,2.946 -13.52,2.955 -13.559,2.974C-13.567,2.979 -13.579,3.011 -13.576,3.029C-13.563,3.098 -13.514,3.149 -13.445,3.164C-13.397,3.174 -13.346,3.172 -13.291,3.17C-13.269,3.169 -13.246,3.168 -13.224,3.168L-9.603,3.168C-9.32,3.168 -9.32,3.168 -9.113,2.964C-9.099,2.95 -9.085,2.938 -9.072,2.926C-9.04,2.897 -9.01,2.869 -8.987,2.837C-8.948,2.78 -8.926,2.73 -8.922,2.687C-8.913,2.59 -8.897,2.493 -8.882,2.399C-8.851,2.205 -8.818,2.004 -8.841,1.803C-8.845,1.757 -8.836,1.709 -8.827,1.664C-8.824,1.649 -8.821,1.635 -8.819,1.62C-8.815,1.6 -8.797,1.574 -8.776,1.569C-8.76,1.566 -8.743,1.577 -8.722,1.594C-8.646,1.646 -8.611,1.711 -8.613,1.799C-8.62,2.293 -8.564,2.739 -8.918,3.111C-8.954,3.149 -8.971,3.183 -8.966,3.207C-8.963,3.225 -8.946,3.241 -8.917,3.255C-8.845,3.287 -8.787,3.343 -8.732,3.397C-8.638,3.489 -8.547,3.575 -8.398,3.554C-8.38,3.549 -8.363,3.558 -8.351,3.573C-8.336,3.594 -8.334,3.627 -8.346,3.654C-8.349,3.66 -8.351,3.667 -8.354,3.674C-8.365,3.703 -8.376,3.732 -8.401,3.738C-8.578,3.777 -8.777,3.805 -8.912,3.615C-9.059,3.408 -9.263,3.391 -9.488,3.394C-10.4,3.4 -11.327,3.399 -12.222,3.398L-13.296,3.398C-13.384,3.398 -13.473,3.398 -13.562,3.396C-13.68,3.392 -13.778,3.311 -13.805,3.195C-13.811,3.164 -13.81,3.131 -13.808,3.099C-13.805,3.029 -13.805,2.986 -13.854,2.963C-13.906,2.94 -13.974,2.942 -14.039,2.945C-14.065,2.946 -14.091,2.948 -14.112,2.947L-14.199,2.946C-14.378,2.944 -14.563,2.941 -14.757,2.946C-14.922,2.946 -15.051,2.862 -15.166,2.787C-15.205,2.762 -15.236,2.727 -15.267,2.695C-15.288,2.672 -15.309,2.649 -15.332,2.63C-15.408,2.566 -15.441,2.488 -15.439,2.377C-15.435,2.145 -15.438,1.908 -15.441,1.68L-15.442,1.563C-15.442,1.54 -15.452,1.52 -15.468,1.509C-15.487,1.495 -15.514,1.493 -15.544,1.503C-15.73,1.567 -15.849,1.588 -15.94,1.578C-15.918,1.854 -15.916,2.133 -16.004,2.394C-16.011,2.416 -16.024,2.437 -16.033,2.459C-16.036,2.481 -16.041,2.501 -16.053,2.517C-16.208,2.724 -16.215,2.961 -16.21,3.186C-16.206,3.354 -16.207,3.524 -16.208,3.689C-16.209,3.778 -16.209,3.867 -16.209,3.956C-16.209,4.06 -16.201,4.069 -16.105,4.074C-16.004,4.079 -15.942,4.08 -15.916,4.056C-15.894,4.035 -15.89,3.986 -15.889,3.887C-15.889,3.854 -15.889,3.821 -15.888,3.787C-15.888,3.686 -15.886,3.583 -15.891,3.481C-15.898,3.314 -15.816,3.189 -15.723,3.064C-15.682,3.009 -15.619,2.985 -15.544,2.994C-15.51,2.999 -15.476,3.006 -15.452,3.026C-15.444,3.032 -15.44,3.042 -15.439,3.055C-15.438,3.072 -15.442,3.106 -15.459,3.123C-15.617,3.295 -15.684,3.491 -15.662,3.721C-15.658,3.772 -15.66,3.823 -15.661,3.873C-15.662,3.898 -15.663,3.924 -15.663,3.949C-15.663,4.072 -15.663,4.072 -15.524,4.073C-15.43,4.075 -15.336,4.074 -15.242,4.074C-15.013,4.072 -14.953,4.057 -14.815,4.222C-14.69,4.371 -14.636,4.567 -14.45,4.665C-14.244,4.773 -13.939,4.724 -13.716,4.716L-13.696,4.715L-13.177,4.715C-12.401,4.715 -11.622,4.715 -10.845,4.714L-10.819,4.714C-10.646,4.715 -10.482,4.69 -10.327,4.785C-10.183,4.874 -10.109,4.976 -9.928,5.003C-9.676,5.042 -9.426,5.117 -9.309,5.403C-9.281,5.473 -9.228,5.53 -9.172,5.59C-9.114,5.652 -9.054,5.716 -9.019,5.799C-8.995,5.855 -8.926,5.889 -8.85,5.888C-8.824,5.887 -8.794,5.889 -8.767,5.892C-8.717,5.896 -8.669,5.901 -8.636,5.883C-8.483,5.795 -8.323,5.801 -8.167,5.806C-8.116,5.809 -8.062,5.811 -8.01,5.809C-7.851,5.803 -7.688,5.804 -7.532,5.805L-7.283,5.805C-7.273,5.805 -7.262,5.806 -7.25,5.806C-7.217,5.807 -7.182,5.809 -7.165,5.796C-7.015,5.69 -6.889,5.568 -6.788,5.435C-6.799,5.411 -6.81,5.386 -6.821,5.362C-6.848,5.3 -6.877,5.235 -6.903,5.171C-6.943,5.071 -6.981,4.971 -7.019,4.87C-7.039,4.818 -7.058,4.767 -7.078,4.716C-7.129,4.584 -7.116,4.46 -7.036,4.316C-6.843,3.972 -6.542,3.721 -6.116,3.55C-6.041,3.52 -5.954,3.542 -5.886,3.607C-5.858,3.633 -5.832,3.662 -5.805,3.691C-5.739,3.763 -5.671,3.837 -5.59,3.87C-5.471,3.92 -5.411,4.01 -5.353,4.097C-5.321,4.144 -5.29,4.189 -5.252,4.228C-5.116,4.363 -5.008,4.48 -4.913,4.594C-4.869,4.648 -4.834,4.723 -4.816,4.804C-4.804,4.859 -4.807,4.941 -4.842,4.99C-5.03,5.255 -5.247,5.529 -5.555,5.735C-5.731,5.853 -5.886,5.874 -6.075,5.809C-6.133,5.789 -6.191,5.765 -6.248,5.741C-6.312,5.714 -6.378,5.687 -6.445,5.665C-6.501,5.647 -6.579,5.638 -6.631,5.7C-6.692,5.775 -6.84,5.834 -6.825,5.95C-6.809,6.067 -6.526,6.266 -6.45,6.35C-6.44,6.35 -6.432,6.353 -6.426,6.359C-6.323,6.462 -6.194,6.506 -6.057,6.552C-6.012,6.568 -5.966,6.583 -5.922,6.601C-5.901,6.609 -5.885,6.601 -5.878,6.596C-5.864,6.586 -5.856,6.57 -5.856,6.554C-5.86,6.43 -5.8,6.353 -5.668,6.311C-5.649,6.306 -5.631,6.298 -5.613,6.291C-5.575,6.275 -5.536,6.259 -5.495,6.257C-5.419,6.254 -5.348,6.229 -5.273,6.204C-5.18,6.171 -5.086,6.136 -4.981,6.149C-4.903,6.078 -4.808,6.069 -4.715,6.06C-4.648,6.053 -4.578,6.046 -4.516,6.014C-4.383,5.946 -4.206,5.92 -4.084,5.908C-3.999,5.899 -3.919,5.874 -3.842,5.849C-3.768,5.825 -3.691,5.801 -3.609,5.79C-3.488,5.775 -3.368,5.737 -3.251,5.701C-3.16,5.673 -3.066,5.644 -2.972,5.625C-2.822,5.594 -2.752,5.494 -2.687,5.386C-2.682,5.377 -2.689,5.34 -2.696,5.333C-2.755,5.298 -2.814,5.262 -2.873,5.226C-3.038,5.123 -3.21,5.017 -3.391,4.946C-3.412,4.938 -3.434,4.929 -3.456,4.919C-3.607,4.856 -3.765,4.791 -3.927,4.894C-3.954,4.912 -3.977,4.916 -3.997,4.907C-4.029,4.891 -4.034,4.846 -4.036,4.819C-4.043,4.751 -4.033,4.7 -4.006,4.668C-3.985,4.644 -3.956,4.63 -3.92,4.628C-3.641,4.608 -3.372,4.608 -3.135,4.792C-3.086,4.83 -3.022,4.854 -2.961,4.877C-2.94,4.885 -2.919,4.893 -2.898,4.902C-2.837,4.927 -2.782,4.969 -2.728,5.01C-2.651,5.068 -2.579,5.124 -2.494,5.124C-2.392,5.124 -2.286,5.08 -2.184,5.038C-2.137,5.018 -2.089,4.998 -2.041,4.982C-1.734,4.88 -1.425,4.769 -1.125,4.663C-0.811,4.551 -0.486,4.435 -0.163,4.328C-0.122,4.314 -0.083,4.292 -0.044,4.271C-0.031,4.264 -0.018,4.257 -0.005,4.25C0.01,4.242 0.017,4.226 0.02,4.215C0.027,4.187 0.019,4.151 0,4.123" style="fill:rgb(159,151,151);fill-rule:nonzero;"/>
            </g>
        </g>
    </g>
</svg>
