<?xml version="1.0" encoding="UTF-8" standalone="no"?>
<!DOCTYPE svg PUBLIC "-//W3C//DTD SVG 1.1//EN" "http://www.w3.org/Graphics/SVG/1.1/DTD/svg11.dtd">
<svg width="100%" height="100%" viewBox="0 0 20 20" version="1.1" xmlns="http://www.w3.org/2000/svg" xmlns:xlink="http://www.w3.org/1999/xlink" xml:space="preserve" xmlns:serif="http://www.serif.com/" style="fill-rule:evenodd;clip-rule:evenodd;stroke-linejoin:round;stroke-miterlimit:2;">
    <g transform="matrix(1.05455,0,0,1.05455,-0.545488,-0.545488)">
        <g id="Nagarjas">
            <g transform="matrix(1,0,0,1,12.7447,16.925)">
                <path d="M0,-0.658L-0.008,-0.658L-0.008,-0.837C-0.007,-0.954 -0.006,-1.075 -0.009,-1.193C-0.016,-1.514 -0.152,-1.772 -0.412,-1.963C-0.437,-1.981 -0.477,-1.972 -0.512,-1.939C-0.565,-1.888 -0.609,-1.839 -0.609,-1.757C-0.609,-1.614 -0.611,-1.471 -0.614,-1.328C-0.617,-1.1 -0.621,-0.865 -0.616,-0.634C-0.608,-0.333 -0.75,-0.097 -0.908,0.139C-0.923,0.163 -0.948,0.178 -0.976,0.183C-1.005,0.187 -1.038,0.179 -1.061,0.161C-1.095,0.134 -1.122,0.06 -1.106,0.018C-1.088,-0.031 -1.06,-0.078 -1.034,-0.124C-0.989,-0.202 -0.946,-0.276 -0.946,-0.35C-0.946,-0.451 -0.921,-0.545 -0.897,-0.637C-0.87,-0.739 -0.844,-0.835 -0.85,-0.939C-0.857,-1.062 -0.855,-1.187 -0.854,-1.308C-0.852,-1.387 -0.851,-1.468 -0.852,-1.549C-0.853,-1.562 -0.874,-1.59 -0.89,-1.597C-0.893,-1.598 -0.897,-1.599 -0.901,-1.599C-0.932,-1.599 -1.002,-1.573 -1.072,-1.53C-1.134,-1.492 -1.163,-1.458 -1.165,-1.443C-1.171,-1.371 -1.191,-1.302 -1.211,-1.235C-1.231,-1.168 -1.249,-1.105 -1.254,-1.042C-1.272,-0.82 -1.333,-0.623 -1.447,-0.424C-1.493,-0.343 -1.525,-0.25 -1.555,-0.16C-1.573,-0.107 -1.591,-0.053 -1.613,0C-1.652,0.098 -1.655,0.199 -1.62,0.303L-1.602,0.357C-1.514,0.624 -1.423,0.899 -1.319,1.164C-1.313,1.181 -1.309,1.2 -1.305,1.22C-1.29,1.283 -1.279,1.321 -1.233,1.323C-1.208,1.323 -1.152,1.26 -1.131,1.207C-1.074,1.062 -0.962,0.936 -0.818,0.853C-0.744,0.811 -0.68,0.754 -0.619,0.698C-0.544,0.631 -0.467,0.562 -0.372,0.519C-0.266,0.471 -0.216,0.385 -0.163,0.294L-0.142,0.258C-0.034,0.077 0.013,-0.107 0.002,-0.303C-0.004,-0.39 -0.003,-0.479 -0.001,-0.565L0,-0.658Z" style="fill:rgb(139,82,152);fill-rule:nonzero;"/>
            </g>
            <g transform="matrix(1,0,0,1,6.34969,9.27)">
                <path d="M0,0.003L-0.008,-0.002C-0.006,0.001 -0.003,0.003 -0.002,0.005C-0.001,0.004 0,0.004 0,0.003" style="fill:rgb(123,127,129);fill-rule:nonzero;"/>
            </g>
            <g transform="matrix(1,0,0,1,12.3617,11.061)">
                <path d="M0,0.827C0.169,0.943 0.344,1.063 0.519,1.176C0.558,1.201 0.613,1.218 0.681,1.226C0.736,1.233 0.792,1.231 0.837,1.229C0.855,1.229 0.871,1.228 0.885,1.228C1.126,1.245 1.33,1.2 1.516,1.085C1.675,0.987 1.835,0.938 2.003,0.934C2.105,0.931 2.209,0.903 2.31,0.875C2.34,0.867 2.369,0.858 2.399,0.851C2.413,0.847 2.438,0.818 2.439,0.803C2.445,0.734 2.451,0.654 2.44,0.575C2.418,0.401 2.364,0.212 2.137,0.127C2.08,0.106 2.022,0.085 1.964,0.064L1.882,0.035C1.844,0.021 1.806,0.008 1.768,-0.005C1.532,-0.086 1.288,-0.169 1.119,-0.386C1.103,-0.407 1.078,-0.418 1.048,-0.417C1.024,-0.416 1.003,-0.405 0.992,-0.387C0.96,-0.337 0.924,-0.29 0.888,-0.243C0.812,-0.144 0.74,-0.049 0.709,0.07C0.667,0.238 0.549,0.344 0.435,0.446C0.401,0.477 0.366,0.509 0.333,0.541C0.274,0.601 0.203,0.605 0.134,0.609C0.109,0.611 0.084,0.612 0.06,0.616C0.024,0.622 -0.013,0.64 -0.049,0.656L-0.061,0.662C-0.088,0.674 -0.107,0.698 -0.109,0.723C-0.111,0.741 -0.104,0.756 -0.089,0.766L0,0.827Z" style="fill:rgb(220,102,167);fill-rule:nonzero;"/>
            </g>
            <g transform="matrix(1,0,0,1,15.5147,9.039)">
                <path d="M0,2.306C0.066,2.306 0.132,2.305 0.199,2.305C0.251,2.305 0.303,2.306 0.354,2.307L0.364,2.307C0.434,2.307 0.495,2.282 0.55,2.231C0.682,2.11 0.832,2.008 0.977,1.91C1.158,1.787 1.346,1.659 1.498,1.492C1.513,1.475 1.536,1.469 1.558,1.464C1.569,1.461 1.58,1.458 1.59,1.454C1.593,1.452 1.598,1.448 1.602,1.445C1.601,1.443 1.599,1.442 1.598,1.441C1.587,1.431 1.573,1.419 1.565,1.419L1.556,1.419C1.264,1.419 1.029,1.267 0.876,1.151C0.75,1.056 0.611,0.974 0.476,0.894C0.272,0.775 0.061,0.651 -0.111,0.476C-0.231,0.441 -0.312,0.354 -0.391,0.27C-0.407,0.252 -0.424,0.235 -0.441,0.217C-0.52,0.137 -0.616,0.091 -0.708,0.054C-0.896,-0.022 -1.098,-0.007 -1.292,0.009C-1.32,0.011 -1.348,0.013 -1.376,0.015C-1.439,0.106 -1.431,0.206 -1.422,0.311C-1.417,0.371 -1.411,0.433 -1.42,0.493C-1.426,0.535 -1.425,0.577 -1.423,0.622C-1.422,0.64 -1.421,0.659 -1.421,0.678L-1.421,0.725C-1.422,0.804 -1.422,0.852 -1.399,0.876C-1.371,0.903 -1.3,0.908 -1.175,0.907L-1.123,0.906C-1.031,0.905 -0.937,0.904 -0.845,0.916C-0.783,0.924 -0.721,0.94 -0.662,0.955C-0.605,0.97 -0.546,0.985 -0.488,0.993C-0.312,1.019 -0.174,1.084 -0.066,1.192C-0.036,1.223 -0.016,1.287 -0.024,1.333C-0.029,1.362 -0.048,1.387 -0.077,1.401C-0.105,1.414 -0.138,1.414 -0.162,1.401C-0.396,1.271 -0.655,1.212 -0.998,1.212L-1.045,1.212C-1.082,1.212 -1.118,1.194 -1.153,1.177C-1.175,1.166 -1.198,1.155 -1.219,1.149C-1.258,1.138 -1.291,1.133 -1.32,1.133C-1.402,1.133 -1.452,1.176 -1.497,1.275C-1.554,1.4 -1.622,1.47 -1.725,1.509C-1.751,1.519 -1.762,1.532 -1.762,1.536C-1.762,1.537 -1.757,1.545 -1.737,1.552C-1.671,1.579 -1.606,1.61 -1.544,1.64C-1.445,1.688 -1.344,1.737 -1.234,1.768C-1.064,1.817 -0.808,1.89 -0.667,2.087C-0.541,2.263 -0.378,2.328 -0.116,2.303C-0.093,2.301 -0.071,2.302 -0.049,2.302C-0.04,2.302 -0.03,2.303 -0.02,2.303L0,2.303L0,2.306Z" style="fill:rgb(139,82,152);fill-rule:nonzero;"/>
            </g>
            <g transform="matrix(1,0,0,1,15.2937,14.753)">
                <path d="M0,1.314C-0.057,1.169 -0.116,1.019 -0.109,0.856C-0.104,0.737 -0.151,0.648 -0.265,0.557C-0.354,0.487 -0.45,0.422 -0.542,0.359L-0.603,0.318C-0.632,0.298 -0.654,0.287 -0.669,0.287C-0.67,0.287 -0.672,0.287 -0.672,0.288C-0.794,0.302 -0.91,0.273 -1.022,0.245C-1.13,0.217 -1.243,0.189 -1.356,0.202C-1.513,0.222 -1.654,0.176 -1.797,0.061C-1.876,-0.003 -1.969,-0.044 -2.068,-0.088C-2.14,-0.12 -2.214,-0.153 -2.281,-0.194C-2.417,-0.278 -2.559,-0.276 -2.717,-0.267C-2.742,-0.265 -2.757,-0.252 -2.766,-0.241C-2.783,-0.218 -2.79,-0.185 -2.784,-0.152C-2.782,-0.143 -2.782,-0.135 -2.782,-0.127C-2.782,-0.12 -2.782,-0.113 -2.781,-0.108C-2.707,0.149 -2.512,0.322 -2.323,0.49L-2.313,0.5C-2.246,0.558 -2.151,0.549 -2.05,0.54C-2.006,0.535 -1.962,0.529 -1.918,0.532C-1.894,0.533 -1.869,0.534 -1.845,0.535C-1.73,0.541 -1.613,0.547 -1.502,0.529C-1.466,0.524 -1.431,0.522 -1.397,0.522C-1.188,0.522 -1.012,0.618 -0.84,0.71L-0.794,0.735C-0.725,0.772 -0.722,0.85 -0.724,0.92C-0.726,0.972 -0.774,1.019 -0.816,1.034C-0.845,1.043 -0.872,1.038 -0.888,1.02C-1.047,0.834 -1.262,0.831 -1.466,0.842C-1.52,0.845 -1.575,0.844 -1.628,0.843L-1.68,0.843L-1.68,0.848L-1.7,0.848C-1.801,0.849 -1.903,0.848 -2.005,0.847C-2.09,0.847 -2.176,0.848 -2.26,0.851C-2.299,0.852 -2.318,0.891 -2.32,0.927L-2.32,0.938C-2.322,0.994 -2.325,1.047 -2.286,1.088C-2.121,1.261 -1.96,1.384 -1.779,1.475C-1.583,1.575 -1.415,1.592 -1.264,1.528C-1.141,1.476 -1.024,1.47 -0.894,1.468L-0.83,1.467C-0.712,1.464 -0.59,1.461 -0.471,1.475C-0.394,1.484 -0.318,1.503 -0.244,1.521C-0.187,1.535 -0.127,1.55 -0.068,1.559C-0.011,1.569 0.027,1.561 0.045,1.539C0.067,1.512 0.058,1.468 0.046,1.435C0.032,1.394 0.016,1.354 0,1.314" style="fill:rgb(150,120,182);fill-rule:nonzero;"/>
            </g>
            <g transform="matrix(1,0,0,1,16.5677,13.327)">
                <path d="M0,0.409C-0.068,0.407 -0.136,0.406 -0.204,0.405C-0.245,0.405 -0.285,0.405 -0.327,0.404C-0.372,0.403 -0.418,0.402 -0.465,0.402C-0.573,0.4 -0.685,0.4 -0.794,0.392C-0.845,0.389 -0.892,0.369 -0.936,0.351C-0.985,0.331 -1.032,0.311 -1.085,0.311L-1.101,0.311C-1.109,0.312 -1.118,0.312 -1.127,0.312C-1.267,0.312 -1.381,0.229 -1.487,0.142C-1.63,0.023 -1.794,-0.122 -1.911,-0.298C-2.003,-0.438 -2.113,-0.581 -2.29,-0.672C-2.341,-0.699 -2.382,-0.741 -2.422,-0.783C-2.478,-0.842 -2.533,-0.899 -2.616,-0.908C-2.682,-0.916 -2.735,-0.885 -2.796,-0.854C-2.861,-0.819 -2.928,-0.786 -3.01,-0.794C-3.01,-0.794 -3.016,-0.79 -3.019,-0.788C-3.026,-0.783 -3.033,-0.778 -3.041,-0.775C-3.296,-0.674 -3.554,-0.705 -3.806,-0.865C-3.837,-0.886 -3.866,-0.912 -3.894,-0.937C-3.912,-0.953 -3.931,-0.97 -3.951,-0.985C-3.973,-1.003 -4.005,-1 -4.026,-0.989C-4.046,-0.979 -4.059,-0.963 -4.059,-0.945C-4.062,-0.759 -4.062,-0.569 -4.063,-0.385C-4.063,-0.353 -4.054,-0.328 -4.036,-0.313C-4.02,-0.299 -3.995,-0.293 -3.97,-0.297C-3.84,-0.314 -3.722,-0.278 -3.609,-0.243C-3.548,-0.225 -3.486,-0.206 -3.424,-0.195C-3.18,-0.154 -2.869,-0.076 -2.631,0.162C-2.602,0.191 -2.564,0.212 -2.524,0.234C-2.496,0.249 -2.467,0.265 -2.441,0.284C-2.389,0.323 -2.342,0.369 -2.303,0.416C-2.281,0.443 -2.279,0.494 -2.291,0.523C-2.303,0.554 -2.343,0.588 -2.375,0.588L-2.388,0.587C-2.448,0.585 -2.515,0.582 -2.564,0.549C-2.628,0.507 -2.688,0.457 -2.747,0.409C-2.816,0.351 -2.889,0.292 -2.969,0.244C-2.985,0.234 -3,0.225 -3.014,0.215C-3.096,0.164 -3.173,0.116 -3.27,0.116C-3.277,0.116 -3.285,0.116 -3.293,0.117L-3.3,0.117L-3.305,0.113C-3.401,0.053 -3.51,0.043 -3.625,0.033C-3.741,0.024 -3.862,0.013 -3.968,-0.056C-3.974,-0.059 -3.98,-0.06 -3.986,-0.06C-3.997,-0.06 -4.006,-0.056 -4.013,-0.053C-4.041,-0.038 -4.061,-0.007 -4.061,0.021L-4.061,0.371C-4.061,0.488 -4.06,0.605 -4.061,0.722C-4.061,0.803 -4.025,0.825 -3.938,0.846C-3.886,0.86 -3.833,0.872 -3.78,0.883C-3.568,0.931 -3.349,0.98 -3.158,1.113L-3.101,1.153C-2.969,1.247 -2.833,1.343 -2.687,1.379C-2.556,1.412 -2.411,1.405 -2.273,1.399C-2.212,1.397 -2.15,1.394 -2.087,1.394L-1.963,1.394L-1.704,1.392C-1.552,1.392 -1.399,1.391 -1.246,1.392L-1.239,1.392C-1.037,1.392 -0.868,1.321 -0.723,1.174C-0.689,1.141 -0.656,1.108 -0.622,1.075C-0.556,1.012 -0.488,0.945 -0.427,0.876C-0.305,0.737 -0.155,0.632 0.031,0.554L0.043,0.549C0.08,0.535 0.102,0.526 0.108,0.485C0.111,0.471 0.107,0.458 0.097,0.446C0.08,0.424 0.044,0.411 0,0.409" style="fill:rgb(139,82,152);fill-rule:nonzero;"/>
            </g>
            <g transform="matrix(1,0,0,1,17.1847,13.092)">
                <path d="M0,-1.548L-0.134,-1.646C-0.235,-1.721 -0.34,-1.798 -0.444,-1.872C-0.493,-1.906 -0.587,-1.9 -0.638,-1.859C-0.689,-1.818 -0.736,-1.773 -0.775,-1.735C-0.937,-1.58 -1.123,-1.504 -1.342,-1.504C-1.354,-1.504 -1.366,-1.505 -1.378,-1.505C-1.566,-1.512 -1.759,-1.51 -1.945,-1.507L-2.079,-1.506C-2.097,-1.506 -2.115,-1.495 -2.129,-1.477C-2.146,-1.454 -2.151,-1.421 -2.142,-1.393C-2.119,-1.32 -2.091,-1.25 -2.06,-1.185C-1.942,-0.94 -1.736,-0.812 -1.448,-0.807C-1.266,-0.803 -1.08,-0.804 -0.899,-0.805L-0.747,-0.806L-0.73,-0.806C-0.672,-0.806 -0.609,-0.802 -0.558,-0.754C-0.538,-0.733 -0.518,-0.707 -0.499,-0.676C-0.486,-0.655 -0.488,-0.638 -0.492,-0.627C-0.497,-0.614 -0.51,-0.595 -0.545,-0.583C-0.574,-0.573 -0.601,-0.561 -0.628,-0.55C-0.714,-0.514 -0.804,-0.477 -0.91,-0.492C-0.993,-0.505 -1.081,-0.501 -1.165,-0.498C-1.201,-0.496 -1.237,-0.494 -1.272,-0.494C-1.534,-0.494 -1.764,-0.565 -1.94,-0.7C-2.088,-0.813 -2.242,-0.863 -2.452,-0.863C-2.463,-0.863 -2.475,-0.863 -2.487,-0.862L-2.581,-0.861C-2.628,-0.86 -2.675,-0.859 -2.721,-0.858C-2.738,-0.858 -2.754,-0.856 -2.769,-0.855C-2.785,-0.854 -2.799,-0.853 -2.815,-0.853C-2.878,-0.852 -2.886,-0.821 -2.887,-0.797C-2.887,-0.773 -2.875,-0.742 -2.866,-0.736C-2.627,-0.601 -2.426,-0.405 -2.237,-0.118C-2.178,-0.029 -2.096,0.058 -1.987,0.149C-1.914,0.209 -1.814,0.293 -1.721,0.301L-1.652,0.308C-1.401,0.332 -1.141,0.358 -0.896,0.279C-0.791,0.245 -0.706,0.229 -0.621,0.227C-0.603,0.227 -0.583,0.228 -0.563,0.229C-0.518,0.231 -0.477,0.234 -0.443,0.22C-0.393,0.202 -0.339,0.19 -0.286,0.179C-0.169,0.155 -0.058,0.131 0,0.036C0.045,-0.037 0.101,-0.101 0.155,-0.163C0.223,-0.242 0.288,-0.316 0.331,-0.407C0.492,-0.742 0.748,-0.965 1.116,-1.091C1.121,-1.093 1.127,-1.096 1.132,-1.099C1.034,-1.103 0.943,-1.137 0.854,-1.168C0.742,-1.209 0.635,-1.247 0.522,-1.233C0.461,-1.227 0.401,-1.246 0.336,-1.297C0.226,-1.383 0.111,-1.467 0,-1.548" style="fill:rgb(235,156,122);fill-rule:nonzero;"/>
            </g>
            <g transform="matrix(1,0,0,1,5.85169,9.646)">
                <path d="M0,-0.42C-0.024,-0.419 -0.069,-0.42 -0.111,-0.411C-0.122,-0.409 -0.135,-0.398 -0.149,-0.386C-0.15,-0.385 -0.151,-0.383 -0.153,-0.382C-0.114,-0.332 -0.104,-0.271 -0.094,-0.212C-0.082,-0.142 -0.071,-0.077 -0.015,-0.032C-0.008,-0.026 -0.001,-0.021 0.006,-0.016L0.021,-0.005C0.027,-0.002 0.031,0 0.033,0C0.034,0 0.042,-0.003 0.051,-0.027C0.062,-0.055 0.073,-0.084 0.085,-0.112C0.106,-0.166 0.128,-0.221 0.146,-0.277C0.158,-0.316 0.156,-0.348 0.139,-0.371C0.116,-0.402 0.068,-0.419 0,-0.42" style="fill:rgb(150,120,182);fill-rule:nonzero;"/>
            </g>
            <g transform="matrix(1,0,0,1,3.44369,14.359)">
                <path d="M0,-3.547C0.063,-3.562 0.109,-3.604 0.158,-3.647C0.213,-3.697 0.269,-3.747 0.352,-3.763C0.425,-3.776 0.473,-3.804 0.493,-3.842C0.507,-3.869 0.505,-3.902 0.488,-3.939C0.446,-4.031 0.398,-4.135 0.4,-4.255C0.4,-4.313 0.377,-4.364 0.351,-4.419C0.324,-4.476 0.297,-4.535 0.297,-4.608C0.297,-4.681 0.213,-4.744 0.116,-4.744L-0.293,-4.744C-0.484,-4.745 -0.674,-4.745 -0.866,-4.744C-1.063,-4.743 -1.063,-4.739 -1.063,-4.563C-1.064,-3.884 -1.064,-3.204 -1.064,-2.524L-1.064,0.812C-1.064,0.905 -1.064,0.999 -1.063,1.092C-1.062,1.139 -1.053,1.17 -1.037,1.184C-1.027,1.194 -1.013,1.198 -0.989,1.195C-0.944,1.191 -0.927,1.166 -0.912,1.125C-0.903,1.097 -0.892,1.07 -0.881,1.043C-0.859,0.986 -0.836,0.927 -0.825,0.868C-0.818,0.822 -0.817,0.772 -0.817,0.725C-0.817,0.663 -0.816,0.601 -0.801,0.542C-0.792,0.51 -0.779,0.479 -0.765,0.45C-0.741,0.396 -0.718,0.346 -0.724,0.287C-0.739,0.152 -0.704,0.022 -0.67,-0.103C-0.636,-0.227 -0.601,-0.356 -0.618,-0.487L-0.618,-0.495L-0.613,-0.502C-0.556,-0.576 -0.552,-0.662 -0.547,-0.752C-0.545,-0.816 -0.542,-0.882 -0.518,-0.941C-0.456,-1.097 -0.447,-1.25 -0.437,-1.412L-0.436,-1.432C-0.435,-1.441 -0.436,-1.45 -0.436,-1.459C-0.437,-1.485 -0.437,-1.514 -0.422,-1.534C-0.367,-1.609 -0.364,-1.698 -0.36,-1.784C-0.357,-1.849 -0.355,-1.915 -0.33,-1.976C-0.267,-2.134 -0.258,-2.289 -0.249,-2.454L-0.248,-2.467C-0.247,-2.474 -0.248,-2.483 -0.248,-2.491C-0.248,-2.518 -0.248,-2.548 -0.232,-2.569C-0.171,-2.645 -0.168,-2.731 -0.165,-2.823C-0.163,-2.869 -0.161,-2.917 -0.151,-2.963C-0.141,-3.011 -0.126,-3.06 -0.111,-3.107C-0.081,-3.207 -0.052,-3.3 -0.06,-3.405C-0.064,-3.447 -0.04,-3.538 0,-3.547" style="fill:rgb(220,102,167);fill-rule:nonzero;"/>
            </g>
            <g transform="matrix(1,0,0,1,6.98469,9.538)">
                <path d="M0,-0.303L0,-0.302C-0.051,-0.302 -0.091,-0.303 -0.122,-0.303C-0.173,-0.305 -0.201,-0.305 -0.227,-0.3C-0.245,-0.296 -0.257,-0.289 -0.26,-0.28C-0.264,-0.271 -0.26,-0.257 -0.248,-0.24C-0.224,-0.205 -0.204,-0.167 -0.185,-0.132C-0.169,-0.102 -0.152,-0.072 -0.134,-0.043C-0.116,-0.014 -0.094,0.002 -0.074,0.002C-0.053,0.002 -0.039,-0.014 -0.03,-0.028C-0.001,-0.074 0.025,-0.123 0.051,-0.17C0.069,-0.201 0.086,-0.232 0.104,-0.263C0.109,-0.272 0.111,-0.279 0.109,-0.284C0.107,-0.288 0.099,-0.292 0.087,-0.294C0.052,-0.3 0.015,-0.303 0,-0.303" style="fill:rgb(150,120,182);fill-rule:nonzero;"/>
            </g>
            <g transform="matrix(1,0,0,1,12.6407,15.079)">
                <path d="M0,-3.809C0.001,-3.824 -0.017,-3.853 -0.025,-3.856C-0.083,-3.869 -0.146,-3.87 -0.205,-3.87C-0.438,-3.871 -0.672,-3.87 -0.907,-3.871L-1.188,-3.871C-1.519,-3.87 -1.85,-3.871 -2.189,-3.872C-2.463,-3.872 -2.74,-3.871 -3.014,-3.868L-3.021,-3.868C-3.184,-3.868 -3.31,-3.934 -3.387,-4.06C-3.593,-4.398 -3.786,-4.654 -3.996,-4.867L-3.999,-4.872C-4.148,-5.151 -4.348,-5.401 -4.541,-5.643C-4.669,-5.803 -4.8,-5.968 -4.916,-6.14C-5.001,-6.266 -5.123,-6.327 -5.291,-6.327L-5.296,-6.327C-5.884,-6.321 -6.483,-6.322 -7.06,-6.322L-7.825,-6.322C-7.872,-6.322 -7.918,-6.322 -7.957,-6.309C-7.966,-6.305 -7.982,-6.282 -7.992,-6.251C-7.998,-6.231 -7.996,-6.211 -7.987,-6.195C-7.979,-6.181 -7.966,-6.171 -7.951,-6.168C-7.901,-6.155 -7.846,-6.154 -7.792,-6.157L-7.77,-6.157C-7.606,-6.158 -7.442,-6.159 -7.278,-6.16C-7.115,-6.162 -6.951,-6.163 -6.787,-6.164C-6.761,-6.164 -6.733,-6.166 -6.705,-6.168C-6.632,-6.174 -6.557,-6.181 -6.499,-6.149C-6.371,-6.076 -6.241,-6.08 -6.103,-6.083C-6.057,-6.084 -6.01,-6.086 -5.962,-6.083C-5.81,-6.078 -5.673,-6.077 -5.543,-6.082C-5.535,-6.083 -5.527,-6.083 -5.52,-6.083C-5.423,-6.083 -5.338,-6.043 -5.258,-5.977C-5.255,-5.955 -5.252,-5.932 -5.249,-5.911C-5.214,-5.648 -5.416,-5.481 -5.588,-5.319C-5.617,-5.292 -5.648,-5.263 -5.68,-5.236C-5.713,-5.208 -5.752,-5.196 -5.79,-5.201C-5.834,-5.206 -5.876,-5.234 -5.908,-5.279C-5.929,-5.307 -5.945,-5.338 -5.961,-5.368C-5.973,-5.391 -5.986,-5.416 -6.001,-5.438C-6.074,-5.55 -6.105,-5.561 -6.241,-5.517C-6.261,-5.51 -6.283,-5.504 -6.303,-5.499C-6.428,-5.464 -6.535,-5.433 -6.526,-5.249C-6.548,-5.226 -6.57,-5.201 -6.591,-5.177C-6.641,-5.12 -6.693,-5.062 -6.749,-5.011C-6.781,-4.983 -6.832,-4.978 -6.886,-4.996C-6.939,-5.014 -6.996,-5.057 -7.005,-5.112C-7.01,-5.142 -7.012,-5.172 -7.013,-5.201C-7.015,-5.235 -7.017,-5.267 -7.024,-5.297C-7.046,-5.406 -7.121,-5.473 -7.215,-5.473L-7.227,-5.473C-7.315,-5.468 -7.404,-5.472 -7.491,-5.476C-7.655,-5.484 -7.825,-5.491 -7.987,-5.429C-7.994,-5.188 -8.002,-4.948 -8.009,-4.708C-8.009,-4.7 -8.008,-4.692 -8.007,-4.684C-8.007,-4.676 -8.006,-4.669 -8.006,-4.662C-8.005,-4.601 -7.975,-4.575 -7.907,-4.574C-7.784,-4.574 -7.66,-4.572 -7.535,-4.57C-7.243,-4.565 -6.941,-4.559 -6.646,-4.579C-6.341,-4.598 -6.128,-4.447 -5.921,-4.301C-5.854,-4.254 -5.797,-4.191 -5.75,-4.135C-5.715,-4.092 -5.679,-4.05 -5.643,-4.008C-5.52,-3.864 -5.394,-3.714 -5.282,-3.558C-5.121,-3.332 -4.966,-3.091 -4.807,-2.821L-4.723,-2.679C-4.535,-2.361 -4.341,-2.032 -4.18,-1.692C-4.146,-1.621 -4.104,-1.601 -4.028,-1.565C-3.878,-1.493 -3.726,-1.491 -3.565,-1.488C-3.541,-1.488 -3.516,-1.488 -3.486,-1.487C-3.413,-1.487 -3.362,-1.522 -3.303,-1.578C-3.203,-1.674 -3.091,-1.974 -3.087,-2.151C-3.085,-2.291 -3.084,-2.431 -3.083,-2.57C-3.082,-2.68 -3.081,-2.79 -3.079,-2.9C-3.079,-2.921 -3.063,-2.942 -3.036,-2.959C-3.009,-2.975 -2.968,-2.988 -2.938,-2.972C-2.9,-2.952 -2.862,-2.93 -2.861,-2.901C-2.858,-2.799 -2.858,-2.697 -2.858,-2.598C-2.858,-2.437 -2.858,-2.27 -2.847,-2.106C-2.829,-1.843 -2.923,-1.614 -3.139,-1.387C-3.241,-1.279 -3.346,-1.238 -3.491,-1.249C-3.521,-1.249 -3.569,-1.23 -3.581,-1.219C-3.582,-1.142 -3.611,-1.076 -3.64,-1.012C-3.661,-0.965 -3.681,-0.92 -3.69,-0.873C-3.691,-0.864 -3.691,-0.854 -3.69,-0.844L-3.69,-0.557C-3.69,-0.148 -3.69,0.26 -3.688,0.669C-3.688,0.684 -3.681,0.702 -3.668,0.731C-3.651,0.725 -3.634,0.719 -3.617,0.713C-3.445,0.641 -3.319,0.508 -3.197,0.379C-3.142,0.321 -3.085,0.26 -3.023,0.206C-2.923,0.117 -2.882,0.021 -2.887,-0.106C-2.894,-0.246 -2.883,-0.388 -2.874,-0.525L-2.87,-0.572C-2.868,-0.598 -2.834,-0.612 -2.797,-0.626L-2.785,-0.631C-2.773,-0.636 -2.761,-0.639 -2.749,-0.639C-2.735,-0.639 -2.722,-0.635 -2.711,-0.628C-2.694,-0.618 -2.684,-0.6 -2.682,-0.579C-2.676,-0.451 -2.671,-0.319 -2.667,-0.192C-2.664,-0.12 -2.662,-0.048 -2.659,0.024C-2.654,0.13 -2.689,0.218 -2.764,0.29C-2.869,0.393 -2.974,0.497 -3.078,0.601C-3.151,0.673 -3.223,0.745 -3.296,0.817C-3.335,0.855 -3.374,0.897 -3.411,0.938C-3.501,1.038 -3.594,1.141 -3.709,1.202C-3.826,1.264 -3.899,1.362 -3.97,1.456C-4.014,1.514 -4.06,1.575 -4.116,1.627C-4.338,1.834 -4.409,2.15 -4.317,2.518C-4.313,2.515 -4.309,2.512 -4.306,2.51C-3.988,2.161 -3.59,1.956 -3.088,1.882C-3.039,1.875 -2.992,1.858 -2.942,1.84C-2.86,1.812 -2.774,1.784 -2.682,1.796C-2.598,1.808 -2.526,1.778 -2.449,1.745C-2.398,1.725 -2.345,1.703 -2.288,1.694C-1.992,1.644 -1.691,1.571 -1.552,1.26L-1.545,1.245C-1.468,1.074 -1.388,0.897 -1.392,0.701C-1.399,0.365 -1.247,0.126 -0.939,-0.011C-0.807,-0.069 -0.687,-0.156 -0.57,-0.277C-0.495,-0.354 -0.446,-0.43 -0.449,-0.547C-0.454,-0.701 -0.451,-0.857 -0.449,-1.009C-0.448,-1.073 -0.447,-1.138 -0.442,-1.214C-0.357,-1.34 -0.365,-1.478 -0.372,-1.623C-0.374,-1.665 -0.376,-1.706 -0.376,-1.747C-0.376,-1.815 -0.374,-1.883 -0.373,-1.951C-0.366,-2.217 -0.36,-2.491 -0.45,-2.762C-0.428,-2.903 -0.495,-3.001 -0.572,-3.115C-0.583,-3.13 -0.593,-3.146 -0.604,-3.162C-0.685,-3.284 -0.738,-3.341 -0.865,-3.322C-0.901,-3.317 -0.939,-3.318 -0.975,-3.318C-1.001,-3.319 -1.028,-3.319 -1.053,-3.317C-1.126,-3.313 -1.156,-3.288 -1.156,-3.232L-1.158,-2.717C-1.159,-2.373 -1.16,-2.03 -1.162,-1.687C-1.163,-1.621 -1.128,-1.578 -1.091,-1.542C-1.059,-1.512 -1.029,-1.478 -0.996,-1.435C-0.977,-1.41 -0.981,-1.367 -0.992,-1.338C-0.998,-1.32 -1.013,-1.288 -1.041,-1.282L-1.052,-1.279C-1.084,-1.271 -1.12,-1.262 -1.144,-1.279C-1.292,-1.379 -1.424,-1.487 -1.401,-1.707C-1.385,-1.85 -1.388,-1.998 -1.391,-2.141C-1.392,-2.199 -1.393,-2.256 -1.393,-2.313C-1.393,-2.62 -1.393,-2.937 -1.397,-3.249C-1.397,-3.288 -1.424,-3.313 -1.466,-3.316C-1.544,-3.32 -1.622,-3.322 -1.697,-3.32C-1.793,-3.318 -1.818,-3.294 -1.818,-3.204C-1.819,-3.084 -1.819,-2.964 -1.82,-2.844C-1.821,-2.456 -1.823,-2.054 -1.817,-1.659C-1.813,-1.467 -1.877,-1.297 -2.009,-1.139C-2.029,-1.116 -2.05,-1.093 -2.071,-1.071C-2.135,-1.004 -2.195,-0.942 -2.213,-0.846C-2.221,-0.8 -2.349,-0.795 -2.35,-0.795C-2.383,-0.795 -2.414,-0.853 -2.419,-0.882C-2.433,-1.003 -2.44,-1.14 -2.318,-1.243C-2.272,-1.281 -2.231,-1.325 -2.19,-1.368C-2.178,-1.381 -2.166,-1.394 -2.153,-1.407C-2.084,-1.479 -2.053,-1.551 -2.054,-1.64C-2.058,-2.019 -2.058,-2.405 -2.058,-2.778L-2.058,-3.233C-2.059,-3.269 -2.069,-3.317 -2.16,-3.319C-2.214,-3.32 -2.268,-3.321 -2.322,-3.323C-2.484,-3.328 -2.651,-3.332 -2.813,-3.319C-2.97,-3.306 -3.118,-3.337 -3.263,-3.368C-3.325,-3.38 -3.39,-3.394 -3.453,-3.404C-3.527,-3.415 -3.573,-3.404 -3.609,-3.367C-3.743,-3.229 -3.887,-3.061 -3.88,-2.817C-3.876,-2.681 -3.889,-2.544 -3.902,-2.411L-3.907,-2.352C-3.91,-2.319 -3.975,-2.299 -4.002,-2.299C-4.028,-2.299 -4.094,-2.32 -4.097,-2.353C-4.101,-2.428 -4.103,-2.504 -4.105,-2.578C-4.108,-2.672 -4.11,-2.768 -4.118,-2.863C-4.146,-3.188 -3.88,-3.642 -3.512,-3.631C-3.445,-3.629 -3.362,-3.619 -3.31,-3.65C-3.259,-3.635 -3.205,-3.625 -3.144,-3.625L-3.121,-3.625C-2.811,-3.635 -2.495,-3.633 -2.189,-3.631C-2.062,-3.63 -1.936,-3.629 -1.809,-3.629L-1.638,-3.627L-1.294,-3.627C-1.203,-3.628 -1.112,-3.628 -1.021,-3.629C-0.803,-3.63 -0.579,-3.631 -0.358,-3.629L-0.354,-3.629C-0.209,-3.629 -0.096,-3.707 0.004,-3.776C-0.001,-3.789 0,-3.803 0,-3.809" style="fill:rgb(220,102,167);fill-rule:nonzero;"/>
            </g>
            <g transform="matrix(1,0,0,1,4.32169,10.889)">
                <path d="M0,-1.981C-0.033,-2 -0.071,-2.009 -0.111,-2.019C-0.13,-2.023 -0.149,-2.028 -0.167,-2.033C-0.178,-2.034 -0.189,-2.035 -0.2,-2.035C-0.333,-2.035 -0.414,-1.942 -0.491,-1.839C-0.51,-1.814 -0.518,-1.765 -0.511,-1.728C-0.505,-1.702 -0.492,-1.677 -0.479,-1.65C-0.464,-1.622 -0.449,-1.592 -0.443,-1.559C-0.381,-1.239 -0.296,-0.918 -0.214,-0.608C-0.159,-0.4 -0.102,-0.184 -0.053,0.03C-0.051,0.036 -0.03,0.048 -0.02,0.054C-0.016,0.05 -0.011,0.045 -0.01,0.042C-0.004,-0.137 0,-0.301 0.002,-0.465C0.002,-0.548 0.002,-0.631 0,-0.714C-0.001,-0.862 -0.002,-1.015 0.005,-1.165C0.009,-1.24 0.005,-1.317 0.001,-1.392C-0.007,-1.561 -0.016,-1.735 0.059,-1.904C0.06,-1.916 0.027,-1.965 0,-1.981" style="fill:rgb(150,120,182);fill-rule:nonzero;"/>
            </g>
            <g transform="matrix(1,0,0,1,16.5517,7.408)">
                <path d="M0,1.647C-0.055,1.607 -0.105,1.574 -0.15,1.544C-0.361,1.409 -0.587,1.233 -0.67,0.953C-0.696,0.864 -0.731,0.775 -0.764,0.691C-0.83,0.523 -0.898,0.349 -0.907,0.161C-0.91,0.102 -0.937,0.059 -0.978,0.009C-1.097,-0.131 -1.262,-0.2 -1.422,-0.266C-1.468,-0.286 -1.514,-0.305 -1.559,-0.326L-1.731,-0.325C-1.98,-0.323 -2.237,-0.321 -2.491,-0.315C-2.503,-0.315 -2.533,-0.289 -2.535,-0.279C-2.563,-0.107 -2.414,0.552 -2.585,0.66C-2.6,0.67 -2.62,0.671 -2.645,0.662C-2.689,0.646 -2.743,0.603 -2.756,0.557C-2.776,0.484 -2.778,0.404 -2.779,0.323C-2.779,0.195 -2.78,0.067 -2.78,-0.062C-2.781,-0.504 -2.783,-0.96 -2.774,-1.409C-2.771,-1.578 -2.834,-1.7 -2.966,-1.783C-3.075,-1.851 -3.205,-1.923 -3.371,-1.923L-3.384,-1.923C-3.813,-1.914 -4.249,-1.915 -4.671,-1.916C-4.935,-1.917 -5.2,-1.917 -5.465,-1.92C-5.719,-1.923 -5.981,-1.925 -6.239,-1.916C-6.488,-1.909 -6.631,-1.769 -6.665,-1.501C-6.677,-1.409 -6.675,-1.313 -6.673,-1.221C-6.672,-1.19 -6.672,-1.16 -6.672,-1.129C-6.671,-1.034 -6.651,-1.015 -6.552,-1.015L-6.259,-1.014C-5.818,-1.013 -5.362,-1.011 -4.914,-1.016L-4.9,-1.016C-4.744,-1.016 -4.618,-0.987 -4.503,-0.925C-4.479,-0.912 -4.449,-0.869 -4.457,-0.841C-4.466,-0.808 -4.492,-0.775 -4.522,-0.757C-4.574,-0.727 -4.617,-0.711 -4.657,-0.709C-4.767,-0.701 -4.876,-0.705 -4.985,-0.702C-5.025,-0.7 -5.036,-0.692 -5.038,-0.687C-5.047,-0.673 -5.029,-0.631 -5.021,-0.614C-4.995,-0.556 -4.994,-0.486 -4.993,-0.425L-4.992,-0.359C-4.989,-0.181 -4.986,0.003 -4.993,0.184C-5,0.326 -4.975,0.637 -5.121,0.714C-5.157,0.733 -5.199,0.737 -5.24,0.741C-5.877,0.801 -6.506,0.757 -7.14,0.753C-7.323,0.752 -7.546,0.722 -7.617,0.554C-7.648,0.481 -7.648,0.386 -7.714,0.341C-7.755,0.314 -7.808,0.316 -7.857,0.32C-8.125,0.339 -8.384,0.344 -8.653,0.337C-8.697,0.335 -8.741,0.334 -8.786,0.334C-8.857,0.333 -8.916,0.309 -8.966,0.258C-9.022,0.201 -9.076,0.147 -9.135,0.098C-9.214,0.032 -9.25,-0.052 -9.247,-0.164C-9.243,-0.362 -9.246,-0.559 -9.25,-0.725C-9.251,-0.764 -9.277,-0.789 -9.319,-0.792L-9.336,-0.793C-9.391,-0.796 -9.449,-0.799 -9.504,-0.797C-9.542,-0.795 -9.581,-0.796 -9.62,-0.796C-9.721,-0.796 -9.823,-0.796 -9.909,-0.763C-9.956,-0.744 -9.99,-0.689 -10.027,-0.63C-10.049,-0.593 -10.073,-0.555 -10.102,-0.523C-10.201,-0.417 -10.306,-0.312 -10.407,-0.211C-10.448,-0.17 -10.489,-0.13 -10.529,-0.089C-10.677,0.061 -10.854,0.134 -11.068,0.134L-11.085,0.134C-11.453,0.127 -11.826,0.127 -12.188,0.13L-14.315,0.13C-14.382,0.13 -14.423,0.142 -14.439,0.202C-14.505,0.46 -14.652,0.563 -14.887,0.518C-14.894,0.516 -14.905,0.518 -14.926,0.522C-14.93,0.523 -14.934,0.523 -14.939,0.524C-14.944,0.524 -14.954,0.525 -14.961,0.533C-14.97,0.544 -14.993,0.573 -14.992,0.583C-14.938,0.78 -14.838,0.911 -14.702,1.058C-14.675,1.088 -14.648,1.121 -14.639,1.161C-14.631,1.201 -14.648,1.249 -14.686,1.263C-14.704,1.269 -14.725,1.272 -14.743,1.278C-14.766,1.272 -14.789,1.265 -14.812,1.265C-14.823,1.265 -14.833,1.266 -14.844,1.268C-14.854,1.269 -14.866,1.275 -14.874,1.282C-14.88,1.286 -14.885,1.294 -14.886,1.297C-14.848,1.482 -14.714,1.591 -14.518,1.593C-14.374,1.594 -14.229,1.594 -14.084,1.593L-13.887,1.593L-13.867,1.589L-13.651,1.589C-13.459,1.589 -13.267,1.589 -13.074,1.59C-13.033,1.59 -13.009,1.573 -12.992,1.532C-12.977,1.494 -12.998,1.472 -13.033,1.44C-13.043,1.431 -13.051,1.424 -13.058,1.417C-13.063,1.411 -13.069,1.408 -13.074,1.403C-13.139,1.342 -13.173,1.24 -13.129,1.163C-13.054,1.031 -12.88,1.032 -12.749,1.038C-12.519,1.047 -12.286,1.038 -12.055,1.038L-9.428,1.038C-9.362,1.038 -9.296,1.039 -9.23,1.039C-9.187,1.039 -9.144,1.038 -9.101,1.036C-9.017,1.03 -8.949,1.06 -8.879,1.126C-8.477,1.502 -8.166,1.94 -7.891,2.357L-7.849,2.421C-7.722,2.614 -7.59,2.814 -7.41,2.97C-7.368,3.007 -7.33,3.004 -7.271,2.96C-7.184,2.893 -7.1,2.853 -7.083,2.732C-7.072,2.656 -7.04,2.557 -6.963,2.56C-6.688,2.572 -6.972,3.031 -7.053,3.095C-7.076,3.113 -7.1,3.133 -7.115,3.155C-7.127,3.172 -7.144,3.186 -7.16,3.198C-7.195,3.225 -7.212,3.241 -7.196,3.277C-7.191,3.288 -7.186,3.3 -7.18,3.312C-7.156,3.37 -7.128,3.436 -7.086,3.457C-7.066,3.468 -7.046,3.48 -7.025,3.492C-6.954,3.533 -6.887,3.572 -6.797,3.566C-6.16,3.527 -5.53,3.565 -4.892,3.558C-4.877,3.558 -4.845,3.535 -4.841,3.526C-4.835,3.267 -4.789,3.032 -5.006,2.85C-5.041,2.821 -5.076,2.792 -5.111,2.763C-5.178,2.706 -5.252,2.618 -5.208,2.541C-5.175,2.483 -5.087,2.478 -5.028,2.51C-4.969,2.543 -4.928,2.6 -4.882,2.65C-4.698,2.855 -4.462,2.883 -4.52,3.232C-4.533,3.308 -4.524,3.392 -4.517,3.473L-4.514,3.506C-4.513,3.523 -4.489,3.551 -4.479,3.554C-4.198,3.561 -3.982,3.563 -3.78,3.559C-3.75,3.558 -3.708,3.525 -3.683,3.494C-3.663,3.468 -3.647,3.438 -3.63,3.407C-3.61,3.37 -3.589,3.331 -3.56,3.3C-3.537,3.273 -3.514,3.246 -3.492,3.22C-3.359,3.063 -3.222,2.902 -2.969,2.902L-2.943,2.902C-2.834,2.902 -2.705,2.736 -2.693,2.641C-2.666,2.423 -2.71,1.886 -2.771,1.683C-2.776,1.667 -2.799,1.649 -2.828,1.64C-2.854,1.632 -2.881,1.633 -2.894,1.644C-2.94,1.682 -2.983,1.726 -3.026,1.772C-3.045,1.792 -3.066,1.802 -3.087,1.802C-3.121,1.802 -3.144,1.775 -3.167,1.749C-3.317,1.574 -3.188,1.329 -3.351,1.148C-3.385,1.111 -3.428,1.07 -3.421,1.02C-3.415,0.99 -3.391,0.966 -3.364,0.952C-3.279,0.908 -3.171,0.946 -3.1,1.011C-3.001,1.1 -2.951,1.318 -2.813,1.32C-2.771,1.32 -2.73,1.322 -2.689,1.323C-2.576,1.327 -2.459,1.33 -2.347,1.319C-2.235,1.309 -2.135,1.335 -2.038,1.362C-1.973,1.379 -1.911,1.396 -1.846,1.402C-1.635,1.422 -1.47,1.501 -1.344,1.642C-1.142,1.865 -0.867,1.938 -0.508,1.871C-0.389,1.847 -0.271,1.795 -0.158,1.745C-0.106,1.722 -0.052,1.698 0.001,1.677C0.014,1.672 0.018,1.668 0.019,1.667C0.019,1.667 0.018,1.659 0,1.647" style="fill:rgb(190,154,188);fill-rule:nonzero;"/>
            </g>
            <g transform="matrix(1,0,0,1,3.95869,10.855)">
                <rect x="0" y="0" width="0.001" height="0.001" style="fill:rgb(123,127,129);"/>
            </g>
            <g transform="matrix(1,0,0,1,3.94569,15.044)">
                <path d="M0,-4.172C-0.029,-4.196 -0.056,-4.208 -0.082,-4.208C-0.102,-4.208 -0.122,-4.2 -0.141,-4.184C-0.158,-4.171 -0.176,-4.157 -0.195,-4.144C-0.267,-4.091 -0.335,-4.041 -0.332,-3.958C-0.328,-3.873 -0.356,-3.797 -0.383,-3.724C-0.409,-3.653 -0.434,-3.585 -0.429,-3.512C-0.422,-3.413 -0.451,-3.323 -0.478,-3.236C-0.497,-3.177 -0.515,-3.12 -0.523,-3.061C-0.527,-3.027 -0.529,-2.991 -0.531,-2.957C-0.536,-2.854 -0.542,-2.746 -0.614,-2.65C-0.631,-2.626 -0.632,-2.562 -0.615,-2.538C-0.519,-2.4 -0.526,-2.25 -0.533,-2.106C-0.535,-2.066 -0.537,-2.025 -0.537,-1.985C-0.534,-1.606 -0.534,-1.221 -0.534,-0.849C-0.534,-0.636 -0.535,-0.424 -0.534,-0.212C-0.534,-0.126 -0.528,-0.052 -0.517,0.015C-0.514,0.021 -0.483,0.035 -0.463,0.036L-0.461,0.036C-0.445,0.036 -0.416,0.025 -0.408,0.018C-0.401,-0.077 -0.374,-0.169 -0.347,-0.257C-0.315,-0.369 -0.281,-0.483 -0.288,-0.603C-0.289,-0.63 -0.291,-0.658 -0.293,-0.685C-0.303,-0.82 -0.314,-0.959 -0.265,-1.074C-0.204,-1.223 -0.202,-1.368 -0.199,-1.522C-0.198,-1.582 -0.197,-1.645 -0.192,-1.707C-0.19,-1.739 -0.192,-1.774 -0.194,-1.808C-0.197,-1.871 -0.201,-1.936 -0.176,-1.991C-0.102,-2.155 -0.102,-2.328 -0.103,-2.495C-0.103,-2.567 -0.103,-2.642 -0.098,-2.715C-0.096,-2.741 -0.098,-2.77 -0.1,-2.798C-0.104,-2.853 -0.108,-2.91 -0.082,-2.954C-0.006,-3.085 -0.009,-3.221 -0.011,-3.365C-0.012,-3.421 -0.013,-3.48 -0.009,-3.536C-0.002,-3.634 -0.004,-3.734 -0.006,-3.822C-0.007,-3.86 -0.007,-3.896 -0.007,-3.931L-0.006,-3.938C0.001,-3.956 0.006,-3.972 0.01,-3.985C0.018,-4.012 0.025,-4.034 0.038,-4.052C0.078,-4.103 0.053,-4.129 0.004,-4.169L0,-4.172Z" style="fill:rgb(220,102,167);fill-rule:nonzero;"/>
            </g>
            <g transform="matrix(1,0,0,1,19.2957,9.264)">
                <path d="M0,0.287C-0.016,0.278 -0.033,0.269 -0.05,0.261C-0.103,0.234 -0.158,0.207 -0.2,0.166C-0.225,0.142 -0.25,0.12 -0.275,0.097C-0.41,-0.027 -0.549,-0.156 -0.643,-0.32C-0.74,-0.491 -0.893,-0.578 -1.123,-0.594C-1.143,-0.596 -1.163,-0.596 -1.183,-0.596C-1.256,-0.598 -1.331,-0.599 -1.404,-0.647C-1.489,-0.703 -1.578,-0.695 -1.683,-0.624C-1.834,-0.522 -2.01,-0.48 -2.225,-0.493C-2.305,-0.499 -2.388,-0.492 -2.469,-0.487C-2.494,-0.485 -2.521,-0.483 -2.547,-0.481C-2.55,-0.481 -2.555,-0.478 -2.56,-0.474C-2.555,-0.468 -2.551,-0.462 -2.545,-0.456C-2.484,-0.389 -2.429,-0.358 -2.361,-0.351C-2.329,-0.348 -2.232,-0.324 -2.225,-0.281C-2.206,-0.156 -2.133,-0.158 -2.037,-0.161C-2.023,-0.162 -2.011,-0.162 -1.995,-0.161C-1.862,-0.16 -1.729,-0.159 -1.597,-0.159C-1.464,-0.158 -1.332,-0.157 -1.199,-0.156C-1.157,-0.156 -1.104,-0.138 -1.086,-0.058C-1.072,0.005 -1.11,0.04 -1.139,0.069L-1.149,0.078C-1.198,0.126 -1.257,0.149 -1.329,0.149L-1.331,0.149C-1.499,0.148 -1.666,0.147 -1.833,0.148L-2.016,0.148L-2.017,0.153L-2.782,0.153C-2.854,0.154 -2.92,0.181 -2.99,0.211C-3.079,0.248 -3.172,0.287 -3.278,0.265C-3.284,0.267 -3.308,0.292 -3.313,0.307C-3.318,0.327 -3.308,0.361 -3.3,0.365C-3.258,0.391 -3.212,0.414 -3.168,0.436C-3.088,0.475 -3.005,0.516 -2.941,0.576C-2.763,0.742 -2.551,0.843 -2.257,0.904L-2.242,0.907C-2.035,0.949 -1.838,0.99 -1.641,0.899C-1.574,0.869 -1.524,0.89 -1.475,0.909C-1.468,0.912 -1.459,0.915 -1.451,0.919C-1.408,0.935 -1.327,0.965 -1.292,0.946C-1.164,0.877 -1.03,0.876 -0.901,0.876C-0.861,0.875 -0.822,0.875 -0.783,0.873C-0.732,0.87 -0.681,0.871 -0.631,0.872C-0.525,0.874 -0.418,0.875 -0.325,0.843C-0.247,0.817 -0.182,0.756 -0.112,0.692C-0.076,0.659 -0.039,0.624 0,0.595C0.114,0.51 0.189,0.454 0.187,0.42C0.185,0.389 0.108,0.346 0,0.287" style="fill:rgb(220,102,167);fill-rule:nonzero;"/>
            </g>
            <g transform="matrix(1,0,0,1,11.1017,7.852)">
                <path d="M0,-1.149C-0.116,-1.149 -0.233,-1.147 -0.346,-1.146C-0.584,-1.142 -0.831,-1.138 -1.073,-1.158C-1.363,-1.179 -1.568,-1.094 -1.741,-0.875C-1.775,-0.831 -1.816,-0.792 -1.856,-0.754C-1.872,-0.739 -1.888,-0.723 -1.904,-0.707C-1.95,-0.662 -1.971,-0.615 -1.971,-0.557C-1.971,-0.523 -1.973,-0.489 -1.974,-0.455C-1.976,-0.413 -1.978,-0.368 -1.977,-0.325C-1.972,-0.126 -1.815,0.026 -1.612,0.029C-1.452,0.03 -1.292,0.03 -1.132,0.03C-1.059,0.029 -0.986,0.029 -0.914,0.029C-0.775,0.03 -0.636,0.03 -0.495,0.03C-0.402,0.03 -0.308,0.03 -0.215,0.028C-0.004,0.025 0.146,-0.118 0.149,-0.319C0.152,-0.552 0.151,-0.789 0.149,-1.018C0.149,-1.13 0.138,-1.148 0,-1.149M-0.449,-0.471C-0.508,-0.424 -0.563,-0.403 -0.627,-0.403L-0.631,-0.403C-0.73,-0.404 -0.83,-0.404 -0.931,-0.404L-1.071,-0.405C-1.135,-0.404 -1.198,-0.403 -1.264,-0.403C-1.318,-0.403 -1.372,-0.404 -1.426,-0.407C-1.462,-0.41 -1.495,-0.429 -1.527,-0.448C-1.537,-0.454 -1.547,-0.46 -1.557,-0.465C-1.593,-0.484 -1.615,-0.518 -1.615,-0.555C-1.616,-0.591 -1.597,-0.623 -1.564,-0.642C-1.553,-0.649 -1.543,-0.655 -1.532,-0.663C-1.501,-0.684 -1.469,-0.706 -1.433,-0.707C-1.164,-0.713 -0.881,-0.713 -0.592,-0.707C-0.555,-0.706 -0.521,-0.686 -0.488,-0.666C-0.478,-0.66 -0.469,-0.654 -0.459,-0.649C-0.427,-0.631 -0.407,-0.601 -0.404,-0.568C-0.401,-0.532 -0.418,-0.496 -0.449,-0.471" style="fill:rgb(220,102,167);fill-rule:nonzero;"/>
            </g>
            <g transform="matrix(1,0,0,1,14.5197,3.78)">
                <path d="M0,-1.952C0.005,-1.961 0,-1.996 -0.012,-2.01C-0.022,-2.02 -0.049,-2.028 -0.072,-2.028L-0.078,-2.028C-0.099,-2.027 -0.127,-2.015 -0.148,-1.998C-0.2,-1.957 -0.253,-1.918 -0.306,-1.879C-0.449,-1.773 -0.596,-1.663 -0.714,-1.525C-0.876,-1.337 -1.068,-1.18 -1.254,-1.028C-1.363,-0.938 -1.476,-0.846 -1.581,-0.749C-1.65,-0.685 -1.742,-0.642 -1.823,-0.605C-1.864,-0.586 -1.906,-0.566 -1.948,-0.546C-2.084,-0.479 -2.226,-0.411 -2.374,-0.374C-2.42,-0.363 -2.467,-0.349 -2.511,-0.336C-2.613,-0.305 -2.718,-0.274 -2.823,-0.271C-2.908,-0.269 -2.98,-0.242 -3.056,-0.213C-3.108,-0.193 -3.161,-0.173 -3.217,-0.162C-3.266,-0.152 -3.316,-0.136 -3.363,-0.121C-3.46,-0.09 -3.563,-0.057 -3.669,-0.069C-3.743,-0.077 -3.794,-0.037 -3.849,0.028L-3.85,0.028L-3.853,0.031C-3.857,0.037 -3.868,0.048 -3.869,0.052L-3.868,0.052C-3.866,0.052 -3.859,0.057 -3.855,0.059C-3.571,0.059 -3.287,0.059 -3.002,0.06L-2.811,0.06L-2.811,0.075L-2.597,0.075C-2.363,0.075 -2.13,0.076 -1.896,0.075C-1.836,0.074 -1.797,0.062 -1.773,0C-1.709,-0.16 -1.582,-0.301 -1.394,-0.418C-1.221,-0.526 -1.061,-0.626 -0.985,-0.82C-0.973,-0.851 -0.903,-0.855 -0.879,-0.849C-0.847,-0.841 -0.808,-0.807 -0.803,-0.775C-0.782,-0.639 -0.783,-0.468 -0.974,-0.356C-1.012,-0.334 -1.049,-0.313 -1.088,-0.292C-1.233,-0.21 -1.385,-0.127 -1.49,0.011C-1.5,0.023 -1.501,0.047 -1.502,0.061C-1.496,0.064 -1.488,0.068 -1.483,0.068C-1.305,0.071 -1.118,0.073 -0.923,0.073C-0.896,0.073 -0.867,0.063 -0.851,0.05C-0.658,-0.108 -0.469,-0.288 -0.466,-0.584L-0.466,-0.648C-0.466,-0.81 -0.466,-0.976 -0.379,-1.129C-0.42,-1.334 -0.319,-1.485 -0.222,-1.633C-0.193,-1.676 -0.163,-1.721 -0.138,-1.766C-0.117,-1.803 -0.09,-1.837 -0.063,-1.87C-0.041,-1.896 -0.018,-1.923 0,-1.952" style="fill:rgb(139,82,152);fill-rule:nonzero;"/>
            </g>
            <g transform="matrix(1,0,0,1,2.80869,4.563)">
                <path d="M0,-0.132L0,-0.3C0,-0.521 0,-0.749 -0.002,-0.973C-0.002,-0.984 -0.011,-0.997 -0.02,-1.01C-0.03,-0.994 -0.039,-0.979 -0.045,-0.962C-0.056,-0.932 -0.068,-0.903 -0.081,-0.873C-0.11,-0.806 -0.137,-0.742 -0.146,-0.666C-0.154,-0.592 -0.174,-0.52 -0.192,-0.45C-0.22,-0.346 -0.249,-0.239 -0.242,-0.128L-0.241,-0.121L-0.246,-0.115C-0.309,-0.033 -0.322,0.064 -0.335,0.166C-0.346,0.246 -0.356,0.331 -0.395,0.408C-0.434,0.488 -0.427,0.595 -0.422,0.698C-0.419,0.737 -0.417,0.776 -0.417,0.813C-0.417,0.854 -0.379,0.871 -0.343,0.873C-0.296,0.876 -0.25,0.878 -0.205,0.875C-0.062,0.866 0,0.803 0.002,0.662C0.004,0.478 0.003,0.294 0.002,0.109L0.002,-0.112L0,-0.132Z" style="fill:rgb(220,102,167);fill-rule:nonzero;"/>
            </g>
            <g transform="matrix(1,0,0,1,3.47569,1.959)">
                <path d="M0,4.424C0.066,4.422 0.148,4.421 0.256,4.424C0.296,4.424 0.321,4.416 0.336,4.401C0.354,4.383 0.363,4.351 0.363,4.3C0.364,3.79 0.364,3.281 0.363,2.771L0.363,1.719C0.363,1.239 0.363,0.761 0.362,0.282C0.362,0.189 0.357,0.096 0.352,0.005C0.352,0.002 0.348,-0.003 0.339,-0.002C0.322,0.01 0.305,0.022 0.289,0.036C0.248,0.07 0.229,0.116 0.228,0.186C0.228,0.227 0.23,0.269 0.232,0.311C0.238,0.414 0.243,0.521 0.205,0.61C0.142,0.759 0.138,0.912 0.134,1.061C0.134,1.256 0.104,1.455 0.081,1.649C0.07,1.739 0.059,1.83 0.047,1.92C0.038,1.98 0.051,2.061 0.022,2.116C-0.07,2.299 -0.055,2.511 -0.067,2.711C-0.08,2.94 -0.102,3.17 -0.132,3.397C-0.167,3.661 -0.235,3.92 -0.243,4.184C-0.247,4.306 -0.249,4.374 -0.223,4.4C-0.196,4.427 -0.128,4.426 0,4.424" style="fill:rgb(220,102,167);fill-rule:nonzero;"/>
            </g>
            <g transform="matrix(1,0,0,1,2.12769,6.259)">
                <path d="M0,0.369C-0.025,0.393 -0.024,0.461 -0.023,0.585C-0.023,0.63 -0.022,0.682 -0.023,0.742C-0.024,0.769 -0.023,0.795 -0.022,0.821C-0.022,0.841 -0.021,0.862 -0.021,0.882C-0.02,0.942 0.009,0.969 0.077,0.969C0.51,0.97 0.943,0.97 1.376,0.97L1.829,0.971C2.13,0.97 2.43,0.972 2.737,0.972C2.926,0.972 3.117,0.972 3.306,0.97C3.321,0.969 3.334,0.969 3.347,0.969C3.398,0.969 3.439,0.97 3.474,0.971C3.643,0.976 3.645,0.974 3.781,0.834C3.812,0.802 3.848,0.764 3.894,0.718C3.912,0.7 3.929,0.684 3.946,0.667C4.026,0.59 4.108,0.51 4.161,0.406C4.302,0.129 4.571,0.075 4.835,0.043C4.883,0.038 4.932,0.038 4.978,0.039C5.009,0.04 5.04,0.04 5.07,0.039C5.154,0.036 5.177,0.007 5.178,-0.092C5.18,-0.22 5.18,-0.346 5.178,-0.465C5.176,-0.563 5.156,-0.583 5.059,-0.583L4.55,-0.583C3.904,-0.585 3.236,-0.587 2.578,-0.58C2.519,-0.581 2.46,-0.584 2.402,-0.587C2.255,-0.597 2.102,-0.607 1.96,-0.542C1.955,-0.345 1.95,-0.148 1.945,0.049C1.939,0.258 1.841,0.36 1.644,0.36C1.483,0.36 1.321,0.358 1.16,0.357C0.905,0.355 0.641,0.352 0.381,0.356C0.296,0.358 0.228,0.355 0.173,0.353C0.076,0.349 0.022,0.347 0,0.369" style="fill:rgb(235,156,122);fill-rule:nonzero;"/>
            </g>
            <g transform="matrix(1,0,0,1,16.1807,7.52)">
                <path d="M0,-4.345C-0.022,-4.334 -0.046,-4.324 -0.07,-4.314C-0.131,-4.288 -0.189,-4.263 -0.231,-4.222C-0.506,-3.956 -0.844,-3.782 -1.17,-3.615C-1.208,-3.595 -1.247,-3.575 -1.285,-3.555C-1.461,-3.464 -1.929,-3.351 -2.134,-3.351L-6.951,-3.354C-6.974,-3.353 -7,-3.352 -7.025,-3.35C-7.085,-3.343 -7.145,-3.338 -7.192,-3.363C-7.355,-3.453 -7.531,-3.437 -7.7,-3.424L-7.727,-3.422C-8.026,-3.397 -8.22,-3.307 -8.358,-3.128C-8.488,-2.959 -8.635,-2.601 -8.637,-2.379C-8.639,-2.15 -8.639,-1.922 -8.638,-1.694L-8.638,-1.417L-8.637,-1.396C-8.637,-1.301 -8.636,-1.206 -8.636,-1.11C-8.636,-0.866 -8.635,-0.615 -8.639,-0.367C-8.641,-0.268 -8.6,-0.203 -8.538,-0.137C-8.446,-0.038 -8.348,0 -8.225,-0.008C-8.136,-0.016 -8.045,-0.014 -7.958,-0.012C-7.922,-0.011 -7.886,-0.01 -7.85,-0.01L-7.845,-0.01C-7.626,-0.01 -7.463,-0.103 -7.374,-0.277C-7.319,-0.386 -7.239,-0.466 -7.161,-0.543L-7.136,-0.568C-7.024,-0.681 -6.907,-0.793 -6.794,-0.902C-6.751,-0.942 -6.708,-0.984 -6.666,-1.024C-6.587,-1.101 -6.515,-1.191 -6.53,-1.335C-6.542,-1.462 -6.54,-1.593 -6.522,-1.713C-6.482,-1.994 -6.341,-2.171 -6.101,-2.237C-6.024,-2.259 -5.943,-2.261 -5.866,-2.261C-5.526,-2.262 -5.187,-2.262 -4.847,-2.262C-4.23,-2.262 -3.593,-2.262 -2.967,-2.266L-2.958,-2.266C-2.742,-2.266 -2.582,-2.214 -2.48,-2.112C-2.346,-1.974 -2.199,-1.977 -2.044,-1.981L-1.977,-1.981C-1.906,-1.982 -1.859,-2 -1.827,-2.041C-1.709,-2.188 -1.546,-2.244 -1.389,-2.299C-1.305,-2.329 -1.225,-2.374 -1.147,-2.417C-1.079,-2.455 -1.01,-2.494 -0.936,-2.524C-0.78,-2.588 -0.675,-2.703 -0.565,-2.825C-0.54,-2.853 -0.515,-2.881 -0.489,-2.908C-0.468,-2.939 -0.343,-3.329 -0.347,-3.369C-0.36,-3.513 -0.304,-3.635 -0.249,-3.754C-0.239,-3.775 -0.229,-3.796 -0.22,-3.818C-0.173,-3.925 -0.12,-4.03 -0.07,-4.133C-0.04,-4.193 -0.01,-4.253 0.019,-4.314C0.019,-4.316 0.016,-4.327 0.01,-4.336C0.009,-4.338 0.004,-4.343 0,-4.345" style="fill:rgb(150,120,182);fill-rule:nonzero;"/>
            </g>
            <g transform="matrix(1,0,0,1,16.4887,7.511)">
                <path d="M0,0.498C-0.103,0.498 -0.209,0.499 -0.319,0.501C-0.365,0.502 -0.399,0.516 -0.416,0.54C-0.43,0.561 -0.432,0.59 -0.419,0.623C-0.373,0.745 -0.325,0.854 -0.271,0.953C-0.245,1.002 -0.197,1.03 -0.138,1.03L-0.135,1.03C-0.044,1.028 0.046,1.027 0.137,1.026C0.293,1.025 0.454,1.023 0.613,1.018C0.655,1.017 0.7,1.001 0.743,0.986C0.756,0.982 0.769,0.977 0.782,0.973C1.068,0.879 1.269,0.669 1.482,0.446C1.519,0.407 1.557,0.368 1.594,0.329C1.176,0.303 0.827,0.145 0.526,-0.155C0.429,-0.251 0.301,-0.293 0.178,-0.334L0.169,-0.337C0.119,-0.354 0.067,-0.368 0.017,-0.382C-0.064,-0.404 -0.147,-0.427 -0.225,-0.46C-0.236,-0.464 -0.247,-0.469 -0.258,-0.474C-0.332,-0.507 -0.385,-0.532 -0.457,-0.473C-0.498,-0.44 -0.548,-0.432 -0.596,-0.426C-0.654,-0.417 -0.71,-0.409 -0.746,-0.357C-0.773,-0.319 -0.772,-0.301 -0.744,-0.269C-0.688,-0.205 -0.624,-0.133 -0.608,-0.02C-0.579,0.192 -0.579,0.192 -0.383,0.193C-0.227,0.193 -0.025,0.194 0.178,0.191L0.18,0.191C0.264,0.191 0.321,0.235 0.357,0.269C0.387,0.297 0.401,0.323 0.401,0.35C0.401,0.372 0.39,0.393 0.369,0.411L0.362,0.418C0.317,0.458 0.271,0.499 0.197,0.499L0.195,0.499C0.131,0.498 0.066,0.498 0,0.498" style="fill:rgb(139,82,152);fill-rule:nonzero;"/>
            </g>
            <g transform="matrix(1,0,0,1,14.2587,5.894)">
                <path d="M0,0.956C0.034,0.955 0.076,0.954 0.115,0.954L0.175,0.954C0.255,0.954 0.33,0.949 0.4,0.902C0.438,0.878 0.481,0.865 0.524,0.865C0.566,0.865 0.607,0.877 0.643,0.901C0.71,0.946 0.787,0.954 0.867,0.962C0.955,0.97 1.046,0.979 1.129,1.038C1.195,1.085 1.319,1.052 1.414,0.999C1.535,0.931 1.662,0.871 1.797,0.808C1.84,0.788 1.884,0.767 1.929,0.746C1.882,0.733 1.835,0.722 1.79,0.711C1.659,0.68 1.536,0.65 1.437,0.582C1.33,0.509 1.214,0.444 1.102,0.381C0.885,0.258 0.66,0.131 0.484,-0.063C0.445,-0.106 0.396,-0.124 0.334,-0.124C0.188,-0.119 0.076,-0.122 -0.007,-0.124C-0.128,-0.127 -0.196,-0.129 -0.224,-0.101C-0.252,-0.073 -0.251,-0 -0.248,0.132C-0.247,0.207 -0.246,0.299 -0.248,0.416C-0.25,0.478 -0.249,0.54 -0.248,0.602C-0.247,0.654 -0.248,0.7 -0.248,0.739C-0.249,0.849 -0.249,0.909 -0.225,0.934C-0.198,0.96 -0.127,0.958 0,0.956" style="fill:rgb(150,120,182);fill-rule:nonzero;"/>
            </g>
            <g transform="matrix(1,0,0,1,17.5367,5.737)">
                <path d="M0,-0.113C-0.023,-0.129 -0.047,-0.146 -0.067,-0.146L-0.076,-0.146C-0.293,-0.146 -0.455,-0.249 -0.627,-0.359C-0.652,-0.375 -0.678,-0.392 -0.704,-0.409C-0.92,-0.542 -1.224,-0.7 -1.659,-0.737C-1.786,-0.761 -1.916,-0.665 -2.076,-0.539C-2.084,-0.532 -2.091,-0.521 -2.095,-0.51L-2.095,-0.501C-2.034,-0.478 -1.982,-0.437 -1.932,-0.397C-1.84,-0.326 -1.755,-0.258 -1.621,-0.287C-1.545,-0.304 -1.466,-0.298 -1.388,-0.293C-1.355,-0.291 -1.322,-0.289 -1.29,-0.288L-1.252,-0.287C-1.202,-0.287 -1.151,-0.286 -1.101,-0.279C-1.072,-0.274 -1.019,-0.242 -1.017,-0.208C-1.016,-0.178 -1.015,-0.104 -1.053,-0.07C-1.102,-0.023 -1.165,0.01 -1.222,0.019C-1.381,0.045 -1.539,0.013 -1.69,-0.02C-1.746,-0.032 -1.806,-0.044 -1.863,-0.053C-1.951,-0.067 -2.043,-0.09 -2.12,-0.172C-2.15,-0.202 -2.182,-0.231 -2.213,-0.259C-2.227,-0.273 -2.241,-0.286 -2.255,-0.299C-2.315,-0.355 -2.391,-0.369 -2.5,-0.339C-2.558,-0.324 -2.615,-0.297 -2.671,-0.27C-2.697,-0.258 -2.723,-0.245 -2.749,-0.234C-2.764,-0.227 -2.766,-0.223 -2.766,-0.223C-2.766,-0.223 -2.765,-0.216 -2.747,-0.202C-2.713,-0.175 -2.677,-0.15 -2.642,-0.124C-2.565,-0.07 -2.486,-0.013 -2.42,0.054C-2.241,0.239 -2.011,0.349 -1.788,0.454C-1.739,0.477 -1.688,0.501 -1.639,0.525C-1.574,0.558 -1.35,0.648 -1.192,0.465C-1.056,0.307 -0.886,0.247 -0.677,0.275C-0.411,0.314 -0.185,0.19 0.032,0.071L0.048,0.062C0.078,0.046 0.102,0.015 0.128,-0.018L0.146,-0.04C0.142,-0.042 0.137,-0.044 0.133,-0.046C0.104,-0.058 0.075,-0.071 0.046,-0.084C0.03,-0.092 0.015,-0.103 0,-0.113" style="fill:rgb(220,102,167);fill-rule:nonzero;"/>
            </g>
            <g transform="matrix(1,0,0,1,1.86969,5.863)">
                <path d="M0,1.647C0.003,1.265 0.003,0.914 0,0.574C0,0.522 -0.021,0.475 -0.058,0.439C-0.099,0.401 -0.156,0.38 -0.216,0.38L-0.228,0.38C-0.332,0.384 -0.407,0.462 -0.411,0.568C-0.413,0.627 -0.413,0.686 -0.414,0.744C-0.415,0.84 -0.416,0.938 -0.423,1.035C-0.425,1.061 -0.439,1.085 -0.461,1.101C-0.488,1.119 -0.521,1.122 -0.553,1.113C-0.554,1.112 -0.635,1.086 -0.636,1.045C-0.643,0.793 -0.646,0.564 -0.644,0.346C-0.643,0.253 -0.523,0.155 -0.434,0.149C-0.405,0.147 -0.376,0.147 -0.348,0.147C-0.313,0.149 -0.281,0.148 -0.248,0.144C-0.04,0.123 0.128,0.206 0.199,0.371C0.258,0.507 0.329,0.526 0.456,0.517C0.554,0.509 0.655,0.511 0.752,0.513C0.794,0.513 0.835,0.514 0.877,0.514C1.121,0.514 1.121,0.514 1.133,0.257C1.136,0.193 1.158,0.14 1.18,0.088C1.199,0.042 1.217,-0.002 1.222,-0.051C1.225,-0.099 1.217,-0.136 1.197,-0.157C1.181,-0.175 1.156,-0.184 1.123,-0.184C0.863,-0.185 0.601,-0.186 0.34,-0.185L-0.017,-0.185L-0.017,-0.188C-0.228,-0.188 -0.439,-0.189 -0.654,-0.189C-0.808,-0.189 -0.963,-0.188 -1.117,-0.187C-1.274,-0.186 -1.345,-0.113 -1.348,0.052C-1.349,0.152 -1.348,0.252 -1.348,0.352C-1.347,0.499 -1.346,0.651 -1.352,0.799C-1.359,0.966 -1.277,1.091 -1.193,1.205C-1.14,1.276 -1.086,1.329 -1.032,1.362C-0.848,1.475 -0.694,1.624 -0.544,1.768L-0.532,1.78C-0.492,1.819 -0.445,1.836 -0.377,1.831C-0.346,1.829 -0.314,1.829 -0.283,1.83C-0.251,1.83 -0.221,1.83 -0.191,1.829C-0.083,1.824 -0.001,1.745 0,1.647" style="fill:rgb(150,120,182);fill-rule:nonzero;"/>
            </g>
        </g>
    </g>
</svg>
