<?xml version="1.0" encoding="UTF-8" standalone="no"?>
<!DOCTYPE svg PUBLIC "-//W3C//DTD SVG 1.1//EN" "http://www.w3.org/Graphics/SVG/1.1/DTD/svg11.dtd">
<svg width="100%" height="100%" viewBox="0 0 20 20" version="1.1" xmlns="http://www.w3.org/2000/svg" xmlns:xlink="http://www.w3.org/1999/xlink" xml:space="preserve" xmlns:serif="http://www.serif.com/" style="fill-rule:evenodd;clip-rule:evenodd;stroke-linejoin:round;stroke-miterlimit:2;">
    <g transform="matrix(0.967212,0,0,0.967212,0.327885,0.327885)">
        <g id="Orouxen">
            <g transform="matrix(1,0,0,1,15.192,15.9945)">
                <path d="M0,0.141C-0.089,0 -0.082,-0.154 -0.075,-0.302C-0.072,-0.36 -0.069,-0.42 -0.072,-0.478C-0.078,-0.579 -0.077,-0.682 -0.076,-0.782C-0.075,-0.826 -0.074,-0.871 -0.074,-0.915L-0.074,-1.304C-0.074,-1.433 -0.075,-1.562 -0.077,-1.692C-0.078,-1.717 -0.084,-1.737 -0.096,-1.743C-0.099,-1.745 -0.103,-1.746 -0.107,-1.746C-0.114,-1.746 -0.122,-1.743 -0.128,-1.74C-0.16,-1.724 -0.191,-1.706 -0.222,-1.689L-0.253,-1.672C-0.323,-1.633 -0.38,-1.604 -0.427,-1.58C-0.63,-1.476 -0.63,-1.476 -0.628,-1.222C-0.628,-1.182 -0.627,-1.135 -0.628,-1.081C-0.633,-0.337 -0.632,0.314 -0.627,0.909L-0.627,0.92C-0.624,1.219 -0.621,1.528 -0.813,1.796C-0.817,1.801 -0.817,1.821 -0.805,1.846C-0.793,1.869 -0.779,1.879 -0.776,1.879L-0.724,1.881C-0.647,1.884 -0.567,1.887 -0.487,1.881C-0.449,1.878 -0.402,1.86 -0.369,1.835C-0.168,1.678 -0.036,1.447 -0.008,1.199C0.021,0.955 0.013,0.703 0.007,0.458C0.004,0.354 0,0.247 0,0.141" style="fill:rgb(172,114,102);fill-rule:nonzero;"/>
            </g>
            <g transform="matrix(1,0,0,1,19.33,10.0095)">
                <path d="M0,1.471C-0.038,1.442 -0.077,1.412 -0.12,1.393C-0.381,1.275 -0.651,1.161 -0.911,1.052C-1.07,0.984 -1.228,0.918 -1.386,0.85C-1.636,0.741 -1.894,0.641 -2.143,0.544C-2.46,0.421 -2.787,0.293 -3.102,0.148C-3.256,0.077 -3.425,0.03 -3.588,-0.015C-3.651,-0.033 -3.714,-0.051 -3.776,-0.07C-3.803,-0.078 -3.833,-0.074 -3.856,-0.056C-3.875,-0.042 -3.885,-0.022 -3.885,-0.001C-3.887,0.346 -3.887,0.692 -3.888,1.039L-3.889,1.455C-3.889,1.518 -3.857,1.547 -3.79,1.547C-3.285,1.549 -2.779,1.549 -2.275,1.548L-1.875,1.549L-1.547,1.549C-1.08,1.548 -0.615,1.549 -0.149,1.548C-0.095,1.547 -0.039,1.539 0.016,1.531L0.036,1.527C0.038,1.526 0.045,1.52 0.046,1.517C0.046,1.513 0.039,1.5 0.032,1.496C0.022,1.488 0.011,1.48 0,1.471" style="fill:rgb(60,155,162);fill-rule:nonzero;"/>
            </g>
            <g transform="matrix(1,0,0,1,15.142,13.9645)">
                <path d="M0,-1.425C-0.025,-1.442 -0.046,-1.463 -0.067,-1.484C-0.081,-1.498 -0.094,-1.511 -0.109,-1.524C-0.274,-1.661 -0.455,-1.695 -0.646,-1.695C-0.737,-1.695 -0.831,-1.688 -0.926,-1.68C-0.955,-1.677 -0.985,-1.675 -1.014,-1.673C-1.018,-1.672 -1.027,-1.664 -1.032,-1.66C-1.035,-1.657 -1.039,-1.654 -1.042,-1.652C-1.31,-1.443 -1.592,-1.185 -1.556,-0.749C-1.565,-0.605 -1.562,-0.423 -1.454,-0.257C-1.312,-0.038 -1.158,0.1 -0.972,0.176C-0.745,0.27 -0.545,0.252 -0.358,0.124C-0.16,-0.011 -0.003,-0.132 0.063,-0.354C0.078,-0.403 0.114,-0.444 0.149,-0.483C0.168,-0.506 0.189,-0.528 0.204,-0.552C0.235,-0.598 0.251,-0.638 0.255,-0.671C0.288,-0.951 0.28,-1.236 0,-1.425" style="fill:rgb(114,74,158);fill-rule:nonzero;"/>
            </g>
            <g transform="matrix(1,0,0,1,19.341,6.9115)">
                <path d="M0,0.167C-0.078,0.147 -0.157,0.134 -0.233,0.121C-0.263,0.116 -0.294,0.111 -0.324,0.105C-0.377,0.096 -0.428,0.081 -0.478,0.065C-0.551,0.044 -0.619,0.023 -0.69,0.019C-0.94,0.006 -1.174,-0.065 -1.389,-0.138C-1.465,-0.163 -1.547,-0.167 -1.626,-0.17C-1.753,-0.176 -1.885,-0.182 -1.999,-0.275C-2.008,-0.284 -2.038,-0.282 -2.06,-0.28L-2.079,-0.279C-2.196,-0.275 -2.314,-0.269 -2.432,-0.265L-2.6,-0.258C-2.682,-0.193 -2.78,-0.184 -2.875,-0.175C-2.971,-0.165 -3.06,-0.156 -3.134,-0.094L-3.141,-0.088L-3.151,-0.089C-3.172,-0.092 -3.192,-0.094 -3.212,-0.094C-3.301,-0.094 -3.385,-0.064 -3.472,-0.032C-3.546,-0.005 -3.622,0.022 -3.703,0.031C-3.792,0.041 -3.882,0.065 -3.977,0.09C-4.037,0.106 -4.1,0.122 -4.161,0.135C-4.197,0.142 -4.231,0.167 -4.255,0.205C-4.286,0.255 -4.297,0.323 -4.282,0.38C-4.276,0.407 -4.256,0.435 -4.248,0.437C-4.187,0.45 -4.122,0.451 -4.061,0.451C-2.427,0.451 -0.793,0.451 0.841,0.449C0.86,0.449 0.879,0.451 0.9,0.451C0.933,0.451 0.964,0.447 0.998,0.424C0.942,0.41 0.893,0.386 0.845,0.363C0.783,0.334 0.725,0.306 0.653,0.297C0.454,0.271 0.24,0.228 0,0.167" style="fill:rgb(132,212,236);fill-rule:nonzero;"/>
            </g>
            <g transform="matrix(1,0,0,1,9.732,14.9165)">
                <path d="M0,0.829C0.08,0.93 0.201,0.97 0.319,1.003C0.448,1.039 0.604,1.039 0.736,1.004C0.881,0.965 0.983,0.905 1.048,0.82C1.207,0.613 1.191,0.366 1.176,0.147C1.175,0.13 1.161,0.106 1.136,0.079L1.11,0.052C1.043,-0.019 0.973,-0.093 0.898,-0.157C0.874,-0.179 0.829,-0.193 0.78,-0.197C0.688,-0.204 0.59,-0.21 0.495,-0.199C0.34,-0.181 0.199,-0.109 0.051,0.03C-0.038,0.114 -0.037,0.214 -0.037,0.322L-0.037,0.436L-0.036,0.468L-0.036,0.499C-0.036,0.521 -0.037,0.542 -0.035,0.563C-0.033,0.592 -0.034,0.621 -0.036,0.649C-0.04,0.713 -0.043,0.774 0,0.829" style="fill:rgb(114,74,158);fill-rule:nonzero;"/>
            </g>
            <g transform="matrix(1,0,0,1,14.247,13.2745)">
                <path d="M0,1.236C-0.389,1.069 -0.689,0.778 -0.891,0.373C-1.027,0.099 -1.026,-0.179 -0.885,-0.477C-0.868,-0.514 -0.848,-0.549 -0.829,-0.583C-0.802,-0.631 -0.774,-0.681 -0.755,-0.732C-0.662,-0.982 -0.462,-1.103 -0.218,-1.228C-0.145,-1.221 -0.092,-1.232 -0.059,-1.263C-0.02,-1.298 -0.004,-1.364 -0.007,-1.475C-0.013,-1.708 -0.011,-1.946 -0.009,-2.176L-0.008,-2.351L-0.008,-2.404C-0.01,-2.515 -0.011,-2.629 0.063,-2.738C0.086,-2.773 0.085,-2.86 0.06,-2.896C0.012,-2.965 0.006,-3.042 0,-3.116C-0.004,-3.172 -0.009,-3.224 -0.031,-3.267C-0.067,-3.337 -0.125,-3.394 -0.187,-3.455C-0.231,-3.498 -0.275,-3.542 -0.312,-3.592C-0.394,-3.7 -0.458,-3.818 -0.499,-3.932C-0.531,-4.022 -0.586,-4.021 -0.665,-4.018C-0.713,-4.016 -0.758,-4 -0.805,-3.983C-0.832,-3.973 -0.86,-3.963 -0.889,-3.955C-1.097,-3.903 -1.3,-3.821 -1.496,-3.742C-1.705,-3.659 -1.921,-3.571 -2.147,-3.518C-2.293,-3.484 -2.437,-3.428 -2.577,-3.375C-2.638,-3.351 -2.699,-3.327 -2.762,-3.305C-2.817,-3.155 -2.809,-3.002 -2.802,-2.841C-2.798,-2.764 -2.794,-2.684 -2.798,-2.606C-2.805,-2.462 -2.803,-2.315 -2.801,-2.172C-2.8,-2.123 -2.799,-2.073 -2.799,-2.023L-2.799,-2.01C-2.799,-1.967 -2.799,-1.923 -2.789,-1.884C-2.783,-1.862 -2.759,-1.834 -2.749,-1.833C-2.687,-1.826 -2.623,-1.825 -2.562,-1.825L-2.179,-1.82C-1.997,-1.817 -1.815,-1.815 -1.633,-1.811C-1.599,-1.811 -1.571,-1.782 -1.557,-1.755C-1.539,-1.723 -1.536,-1.691 -1.553,-1.662C-1.573,-1.631 -1.595,-1.595 -1.625,-1.592C-1.772,-1.583 -1.92,-1.58 -2.064,-1.578C-2.165,-1.576 -2.267,-1.575 -2.368,-1.574L-2.544,-1.573C-2.689,-1.471 -2.849,-1.48 -3.003,-1.49C-3.056,-1.493 -3.109,-1.495 -3.162,-1.495C-3.531,-1.485 -3.904,-1.491 -4.234,-1.494C-4.278,-1.495 -4.324,-1.493 -4.371,-1.491C-4.533,-1.486 -4.701,-1.481 -4.859,-1.568C-4.865,-1.568 -4.882,-1.56 -4.892,-1.556C-4.905,-1.551 -4.918,-1.545 -4.931,-1.542C-4.993,-1.528 -5.063,-1.542 -5.111,-1.577C-5.143,-1.601 -5.162,-1.633 -5.165,-1.667C-5.169,-1.723 -5.17,-1.778 -5.171,-1.832C-5.171,-1.875 -5.171,-1.917 -5.174,-1.959C-5.178,-2.046 -5.209,-2.07 -5.308,-2.07C-5.328,-2.07 -5.348,-2.072 -5.369,-2.074C-5.413,-2.078 -5.459,-2.082 -5.491,-2.066C-5.545,-2.038 -5.602,-2.023 -5.658,-2.008C-5.776,-1.976 -5.887,-1.946 -5.962,-1.817C-6.03,-1.701 -6.132,-1.605 -6.23,-1.511C-6.284,-1.459 -6.341,-1.405 -6.39,-1.348C-6.459,-1.271 -6.526,-1.187 -6.59,-1.107C-6.655,-1.027 -6.72,-0.944 -6.789,-0.866C-7.013,-0.613 -7.243,-0.356 -7.466,-0.109C-7.563,0 -7.66,0.108 -7.758,0.216C-7.767,0.227 -7.778,0.238 -7.789,0.248C-7.813,0.272 -7.836,0.295 -7.846,0.321C-7.889,0.435 -7.971,0.516 -8.051,0.593C-8.097,0.639 -8.145,0.685 -8.183,0.737C-8.265,0.849 -8.378,0.866 -8.499,0.866C-8.702,0.865 -8.903,0.865 -9.105,0.865C-9.387,0.867 -9.675,0.866 -9.96,0.861L-10,0.861C-10.177,0.861 -10.323,0.883 -10.452,0.974C-10.593,1.072 -10.728,1.067 -10.878,0.96C-10.901,0.943 -10.929,0.932 -10.959,0.921C-10.974,0.915 -10.989,0.909 -11.005,0.902C-11.045,0.883 -11.059,0.885 -11.065,0.889C-11.07,0.893 -11.08,0.906 -11.08,0.956C-11.081,1.455 -11.081,1.954 -11.081,2.453L-11.081,4.796C-11.081,4.861 -11.081,4.929 -11.077,4.995C-11.075,5.042 -10.988,5.166 -10.914,5.228C-10.887,5.252 -10.87,5.258 -10.863,5.258C-10.769,5.247 -10.714,5.163 -10.666,5.089C-10.618,5.016 -10.566,4.929 -10.543,4.839C-10.473,4.567 -10.374,4.301 -10.278,4.044C-10.221,3.892 -10.162,3.735 -10.11,3.578C-9.92,3.007 -9.891,2.991 -9.392,2.726L-9.352,2.705C-9.169,2.607 -8.985,2.561 -8.774,2.561L-8.745,2.561C-8.49,2.566 -8.231,2.566 -7.982,2.564C-7.797,2.564 -7.613,2.563 -7.426,2.565C-7.308,2.565 -7.218,2.529 -7.141,2.451C-7.127,2.436 -7.11,2.421 -7.094,2.406C-7.062,2.377 -7.031,2.349 -7.008,2.316C-6.742,1.931 -6.429,1.536 -6.049,1.108C-6.022,1.077 -5.997,1.041 -5.974,1.005C-5.962,0.988 -5.95,0.971 -5.938,0.954C-5.882,0.877 -5.825,0.8 -5.768,0.724C-5.636,0.546 -5.499,0.363 -5.387,0.17C-5.308,0.033 -5.194,-0.006 -5.083,-0.044C-5.065,-0.05 -5.047,-0.056 -5.03,-0.062C-4.981,-0.08 -4.927,-0.078 -4.875,-0.076C-4.859,-0.075 -4.844,-0.075 -4.829,-0.075C-4.196,-0.076 -3.563,-0.077 -2.931,-0.077C-2.891,-0.077 -2.85,-0.073 -2.811,-0.07L-2.783,-0.068C-2.749,-0.065 -2.727,-0.03 -2.719,-0.015C-2.704,0.011 -2.694,0.05 -2.708,0.079C-2.726,0.117 -2.748,0.157 -2.78,0.162C-2.864,0.173 -2.954,0.173 -3.026,0.173C-3.174,0.173 -3.322,0.174 -3.47,0.174C-3.882,0.177 -4.309,0.178 -4.729,0.168L-4.749,0.168C-4.963,0.168 -5.121,0.25 -5.245,0.425C-5.261,0.447 -5.273,0.472 -5.286,0.499C-5.302,0.53 -5.318,0.562 -5.34,0.591C-5.434,0.71 -5.524,0.838 -5.61,0.961C-5.759,1.173 -5.914,1.393 -6.101,1.588C-6.28,1.772 -6.434,1.987 -6.584,2.196C-6.647,2.283 -6.711,2.373 -6.776,2.459C-6.791,2.478 -6.793,2.5 -6.784,2.52C-6.772,2.543 -6.745,2.558 -6.714,2.559C-6.212,2.561 -5.709,2.562 -5.206,2.563C-5.193,2.563 -5.179,2.564 -5.166,2.564C-5.149,2.564 -5.133,2.562 -5.123,2.556C-5,2.472 -4.894,2.36 -4.799,2.213C-4.796,2.209 -4.796,2.196 -4.798,2.192C-4.895,2.089 -4.86,1.985 -4.829,1.892C-4.816,1.852 -4.803,1.814 -4.8,1.775C-4.786,1.596 -4.719,1.487 -4.554,1.376C-4.344,1.232 -4.164,1.177 -3.958,1.193C-3.917,1.196 -3.873,1.195 -3.831,1.195C-3.776,1.194 -3.72,1.192 -3.665,1.2C-3.346,1.241 -3.125,1.465 -3.088,1.784C-3.076,1.891 -3.08,2.001 -3.083,2.107L-3.086,2.177C-3.092,2.366 -3.173,2.537 -3.334,2.7C-3.462,2.829 -3.626,2.873 -3.784,2.915C-3.853,2.934 -3.925,2.953 -3.993,2.98L-4.005,2.985L-4.015,2.977C-4.091,2.917 -4.181,2.906 -4.276,2.894C-4.355,2.885 -4.437,2.875 -4.513,2.836C-4.671,2.754 -4.769,2.705 -4.805,2.729C-4.844,2.753 -4.844,2.877 -4.845,3.049L-4.845,3.633C-4.845,3.676 -4.844,3.72 -4.842,3.763C-4.839,3.866 -4.836,3.971 -4.852,4.074C-4.864,4.142 -4.911,4.191 -4.956,4.239C-5.002,4.287 -5.045,4.332 -5.056,4.395C-5.06,4.419 -5.076,4.437 -5.091,4.454C-5.1,4.464 -5.108,4.473 -5.113,4.482C-5.132,4.518 -5.136,4.549 -5.123,4.57C-5.111,4.592 -5.08,4.604 -5.037,4.605C-4.257,4.606 -3.478,4.606 -2.7,4.606C-2.569,4.606 -2.546,4.585 -2.546,4.467L-2.546,3.251C-2.546,3.112 -2.546,2.973 -2.545,2.833C-2.544,2.492 -2.543,2.138 -2.551,1.791C-2.554,1.647 -2.516,1.509 -2.433,1.369C-2.345,1.22 -2.21,1.082 -2.019,0.95C-2.008,0.942 -1.994,0.946 -1.99,0.948C-1.973,0.953 -1.935,0.976 -1.926,1.002C-1.881,1.126 -1.946,1.213 -2.015,1.283C-2.026,1.295 -2.038,1.306 -2.049,1.317C-2.127,1.393 -2.2,1.465 -2.22,1.584C-2.229,1.636 -2.244,1.688 -2.257,1.737C-2.28,1.82 -2.304,1.907 -2.303,1.999C-2.297,2.555 -2.298,3.121 -2.298,3.668C-2.299,3.874 -2.299,4.08 -2.299,4.286L-2.299,4.327C-2.3,4.361 -2.3,4.396 -2.297,4.43C-2.291,4.514 -2.209,4.602 -2.136,4.604C-2.008,4.606 -1.869,4.607 -1.698,4.604C-1.607,4.602 -1.585,4.578 -1.585,4.474C-1.585,4.401 -1.584,4.328 -1.584,4.255C-1.584,4.204 -1.585,4.153 -1.584,4.102C-1.582,4.046 -1.589,3.979 -1.556,3.931C-1.537,3.904 -1.509,3.886 -1.485,3.864C-1.436,3.82 -1.397,3.76 -1.333,3.745C-1.314,3.74 -1.292,3.74 -1.275,3.749C-1.265,3.755 -1.257,3.763 -1.25,3.771C-1.219,3.809 -1.216,3.868 -1.243,3.909C-1.257,3.931 -1.278,3.947 -1.296,3.966C-1.343,4.016 -1.333,4.082 -1.332,4.146C-1.33,4.217 -1.329,4.288 -1.328,4.359C-1.326,4.426 -1.325,4.493 -1.324,4.56C-1.166,4.633 -1.006,4.622 -0.835,4.609C-0.753,4.603 -0.668,4.596 -0.584,4.601C-0.557,4.602 -0.528,4.606 -0.499,4.61C-0.389,4.621 -0.275,4.634 -0.185,4.546C-0.159,4.518 -0.013,4.137 -0.012,4.075C-0.009,3.983 -0.009,3.888 -0.009,3.797L-0.009,3.224C-0.01,2.713 -0.01,2.202 -0.009,1.691C-0.008,1.581 -0.005,1.464 0.016,1.352C0.019,1.334 0.027,1.318 0.032,1.304C0.04,1.288 0.046,1.275 0.043,1.266C0.04,1.261 0.032,1.25 0,1.236" style="fill:rgb(99,84,64);fill-rule:nonzero;"/>
            </g>
            <g transform="matrix(1,0,0,1,8.627,6.6965)">
                <path d="M0,0.431C0.017,0.448 0.034,0.466 0.049,0.485C0.142,0.596 0.268,0.59 0.381,0.57C0.497,0.549 0.626,0.375 0.632,0.233C0.638,0.072 0.522,-0.1 0.373,-0.152C0.333,-0.165 0.281,-0.164 0.248,-0.151C0.166,-0.116 0.083,-0.072 0,-0.017C-0.095,0.047 -0.136,0.244 -0.075,0.343C-0.055,0.374 -0.028,0.402 0,0.431" style="fill:rgb(114,74,158);fill-rule:nonzero;"/>
            </g>
            <g transform="matrix(1,0,0,1,15.111,11.3235)">
                <path d="M0,-1.543L-0.041,-1.579C-0.135,-1.664 -0.223,-1.743 -0.337,-1.801C-0.441,-1.854 -0.575,-1.955 -0.62,-2.138C-0.632,-2.188 -0.658,-2.238 -0.683,-2.286L-0.695,-2.308C-0.711,-2.337 -0.737,-2.347 -0.763,-2.347C-0.774,-2.347 -0.784,-2.346 -0.793,-2.343C-0.812,-2.337 -0.831,-2.324 -0.85,-2.31C-0.871,-2.295 -0.892,-2.279 -0.917,-2.271C-0.944,-2.263 -0.972,-2.261 -1,-2.258C-1.062,-2.254 -1.102,-2.247 -1.12,-2.206C-1.15,-2.141 -1.119,-2.076 -1.086,-2.008C-1.078,-1.99 -1.069,-1.972 -1.062,-1.954C-1.015,-1.845 -0.952,-1.761 -0.87,-1.699C-0.713,-1.579 -0.657,-1.417 -0.598,-1.245L-0.583,-1.202C-0.547,-1.1 -0.547,-0.999 -0.547,-0.902L-0.547,-0.863C-0.545,-0.393 -0.547,0.066 -0.549,0.493C-0.55,0.577 -0.521,0.614 -0.435,0.637C-0.373,0.653 -0.315,0.684 -0.259,0.714C-0.231,0.729 -0.202,0.745 -0.173,0.758C-0.095,0.794 -0.048,0.804 -0.024,0.789C-0.004,0.777 0.005,0.739 0.006,0.674C0.007,0.321 0.007,-0.033 0.007,-0.385L0.006,-1.357L0.012,-1.363C0.044,-1.395 0.058,-1.423 0.057,-1.451C0.056,-1.479 0.038,-1.509 0,-1.543" style="fill:rgb(172,114,102);fill-rule:nonzero;"/>
            </g>
            <g transform="matrix(1,0,0,1,10.392,7.1445)">
                <path d="M0,0.197C0.036,0.233 0.071,0.263 0.104,0.29C0.148,0.324 0.194,0.321 0.247,0.28C0.319,0.222 0.347,0.167 0.339,0.101C0.343,0.04 0.323,-0.007 0.274,-0.055C0.226,-0.102 0.176,-0.127 0.131,-0.127C0.124,-0.127 0.118,-0.126 0.111,-0.125C0.06,-0.117 0.013,-0.076 -0.023,-0.007C-0.086,0.114 -0.086,0.114 0,0.197" style="fill:rgb(114,74,158);fill-rule:nonzero;"/>
            </g>
            <g transform="matrix(1,0,0,1,17.567,10.4925)">
                <path d="M0,-2.883C-0.082,-2.884 -0.165,-2.884 -0.249,-2.884C-0.296,-2.884 -0.342,-2.883 -0.388,-2.884L-0.943,-2.884C-1.406,-2.884 -1.867,-2.884 -2.33,-2.883C-2.514,-2.883 -2.514,-2.883 -2.516,-2.68C-2.516,-2.63 -2.516,-2.579 -2.515,-2.528C-2.514,-2.466 -2.513,-2.403 -2.514,-2.34C-2.515,-2.295 -2.494,-2.264 -2.456,-2.256C-2.299,-2.221 -2.308,-2.109 -2.316,-2.019C-2.317,-2 -2.319,-1.982 -2.32,-1.964C-2.321,-1.845 -2.411,-1.739 -2.512,-1.737C-2.595,-1.735 -2.662,-1.701 -2.733,-1.666C-2.775,-1.645 -2.819,-1.623 -2.866,-1.609C-2.877,-1.605 -2.885,-1.599 -2.89,-1.588C-2.901,-1.566 -2.898,-1.535 -2.889,-1.513C-2.884,-1.501 -2.88,-1.488 -2.875,-1.475C-2.853,-1.413 -2.828,-1.345 -2.786,-1.315C-2.722,-1.27 -2.659,-1.224 -2.597,-1.178C-2.396,-1.029 -2.188,-0.875 -1.942,-0.79C-1.569,-0.662 -1.196,-0.515 -0.835,-0.372C-0.657,-0.302 -0.48,-0.232 -0.302,-0.164C-0.157,-0.109 -0.008,-0.056 0.144,-0.006C0.168,0.001 0.195,-0.004 0.217,-0.019C0.239,-0.034 0.251,-0.059 0.251,-0.083C0.252,-0.395 0.252,-0.707 0.252,-1.02L0.255,-1.767C0.255,-2.048 0.255,-2.328 0.254,-2.608C0.252,-2.828 0.205,-2.879 0,-2.883" style="fill:rgb(172,114,102);fill-rule:nonzero;"/>
            </g>
            <g transform="matrix(1,0,0,1,8.395,10.9185)">
                <path d="M0,-1.029C-0.073,-1.102 -0.147,-1.176 -0.22,-1.25C-0.223,-1.245 -0.225,-1.241 -0.227,-1.237C-0.236,-1.216 -0.245,-1.199 -0.245,-1.185C-0.247,-0.698 -0.246,-0.255 -0.244,0.17C-0.244,0.183 -0.234,0.199 -0.224,0.214C-0.223,0.216 -0.222,0.219 -0.22,0.221C-0.214,0.217 -0.208,0.214 -0.205,0.21C-0.094,0.087 0.044,0.032 0.2,0.05C0.302,0.062 0.394,0.032 0.491,0C0.561,-0.022 0.633,-0.044 0.708,-0.051C0.725,-0.053 0.742,-0.063 0.751,-0.079C0.757,-0.087 0.765,-0.106 0.757,-0.128C0.751,-0.144 0.746,-0.16 0.74,-0.177C0.715,-0.25 0.689,-0.326 0.642,-0.376C0.433,-0.597 0.213,-0.816 0,-1.029" style="fill:rgb(172,114,102);fill-rule:nonzero;"/>
            </g>
            <g transform="matrix(1,0,0,1,3.682,11.0785)">
                <path d="M0,0.963C0.059,0.969 0.116,0.973 0.153,0.951C0.31,0.855 0.476,0.862 0.634,0.869C0.682,0.871 0.734,0.872 0.779,0.872C1.266,0.863 1.695,0.864 2.093,0.872L2.114,0.872C2.296,0.872 2.412,0.822 2.496,0.705C2.592,0.573 2.73,0.563 2.863,0.572L2.877,0.573C2.954,0.578 3.033,0.584 3.105,0.634C3.113,0.636 3.144,0.631 3.159,0.62C3.289,0.522 3.37,0.427 3.343,0.279C3.333,0.222 3.319,0.157 3.29,0.105C3.247,0.028 3.271,-0.033 3.295,-0.092C3.37,-0.277 3.506,-0.414 3.638,-0.546L3.65,-0.558C3.697,-0.605 3.734,-0.642 3.733,-0.704L3.733,-0.952C3.734,-1.064 3.734,-1.176 3.732,-1.288C3.732,-1.313 3.725,-1.341 3.713,-1.389C3.71,-1.398 3.708,-1.409 3.705,-1.42C3.658,-1.287 3.579,-1.2 3.508,-1.122C3.462,-1.072 3.419,-1.025 3.387,-0.969C3.331,-0.873 3.255,-0.718 3.121,-0.728C3.092,-0.73 3.063,-0.741 3.043,-0.763C3.019,-0.789 3.014,-0.828 3.021,-0.862C3.028,-0.898 3.046,-0.929 3.063,-0.959C3.109,-1.045 3.173,-1.121 3.231,-1.201C3.266,-1.249 3.299,-1.299 3.331,-1.348C3.414,-1.472 3.498,-1.601 3.62,-1.697C3.709,-1.768 3.747,-1.859 3.737,-1.976C3.731,-2.038 3.732,-2.101 3.733,-2.163L3.733,-2.221C3.733,-2.267 3.712,-2.289 3.668,-2.291C3.647,-2.291 3.619,-2.282 3.596,-2.267C3.543,-2.231 3.514,-2.176 3.484,-2.119C3.478,-2.107 3.472,-2.096 3.466,-2.085C3.343,-1.859 3.183,-1.768 2.972,-1.813C2.913,-1.825 2.849,-1.822 2.784,-1.817C2.68,-1.806 2.595,-1.845 2.509,-1.932C2.503,-1.936 2.498,-1.943 2.492,-1.949C2.479,-1.964 2.463,-1.982 2.451,-1.982C2.445,-1.981 2.432,-1.976 2.41,-1.939C2.328,-1.8 2.216,-1.621 2.084,-1.462L2.037,-1.406C1.916,-1.264 1.802,-1.129 1.725,-0.96C1.621,-0.732 1.448,-0.576 1.223,-0.507C1.19,-0.497 1.158,-0.487 1.125,-0.476C0.951,-0.421 0.771,-0.364 0.58,-0.364L0.567,-0.364C0.379,-0.366 0.184,-0.367 0,-0.366L-0.114,-0.366C-0.221,-0.366 -0.328,-0.365 -0.436,-0.363C-0.667,-0.36 -0.904,-0.356 -1.137,-0.369C-1.153,-0.37 -1.169,-0.37 -1.185,-0.37C-1.397,-0.37 -1.559,-0.288 -1.704,-0.108C-1.803,0.014 -1.934,0.176 -2.064,0.343C-2.261,0.591 -2.418,0.882 -2.559,1.258C-2.678,1.575 -2.806,1.894 -2.93,2.202L-2.995,2.366C-3.046,2.493 -3.079,2.629 -3.111,2.76C-3.142,2.885 -3.174,3.015 -3.221,3.138C-3.221,3.139 -3.223,3.145 -3.214,3.166C-3.201,3.194 -3.121,3.232 -3.047,3.246C-2.993,3.254 -2.968,3.248 -2.963,3.242L-2.921,3.2C-2.822,3.1 -2.728,3.006 -2.671,2.872C-2.623,2.758 -2.544,2.657 -2.467,2.559L-2.428,2.509C-2.304,2.348 -2.177,2.188 -2.051,2.028C-1.939,1.885 -1.826,1.743 -1.715,1.6C-1.679,1.553 -1.645,1.502 -1.613,1.453C-1.576,1.397 -1.538,1.338 -1.495,1.286C-1.319,1.069 -1.093,0.96 -0.822,0.96L-0.805,0.96C-0.623,0.963 -0.437,0.962 -0.259,0.96C-0.259,0.96 -0.076,0.959 -0.074,0.959C-0.05,0.959 -0.025,0.961 0,0.963" style="fill:rgb(99,84,64);fill-rule:nonzero;"/>
            </g>
            <g transform="matrix(1,0,0,1,3.455,10.7345)">
                <path d="M0,3.25C0.065,3.271 0.125,3.256 0.202,3.197C0.271,3.142 0.352,3.146 0.429,3.153C0.451,3.154 0.473,3.156 0.495,3.156L0.497,3.156C1.039,3.154 1.617,3.151 2.198,3.157L2.204,3.157C2.328,3.157 2.411,3.123 2.481,3.043C2.519,3 2.561,2.959 2.602,2.92C2.642,2.882 2.683,2.843 2.719,2.801C2.831,2.674 2.942,2.546 3.052,2.418C3.141,2.315 3.23,2.211 3.319,2.108C3.437,1.975 3.555,1.841 3.674,1.708C3.841,1.519 4.014,1.324 4.182,1.13C4.265,1.035 4.336,0.93 4.407,0.823C4.427,0.793 4.441,0.748 4.444,0.7C4.449,0.645 4.448,0.587 4.447,0.532C4.447,0.515 4.446,0.498 4.446,0.481L4.444,0.459L4.444,0.384C4.443,0.328 4.443,0.271 4.444,0.215C4.447,0.129 4.414,0.092 4.327,0.083C4.258,0.076 4.192,0.043 4.141,0.016C4.102,-0.006 4.045,-0.021 4,0.039C3.936,0.125 3.87,0.218 3.825,0.318C3.805,0.363 3.806,0.435 3.828,0.486C3.834,0.499 3.84,0.512 3.845,0.524C3.881,0.599 3.917,0.677 3.844,0.774C3.818,0.809 3.81,0.853 3.801,0.899C3.791,0.96 3.779,1.028 3.722,1.083C3.613,1.188 3.502,1.28 3.325,1.256C3.304,1.253 3.283,1.251 3.262,1.25C3.2,1.247 3.136,1.244 3.083,1.196C3.06,1.175 3.056,1.176 3.028,1.197C2.858,1.329 2.695,1.479 2.746,1.74C2.751,1.767 2.749,1.794 2.748,1.82L2.747,1.842C2.746,1.892 2.747,1.935 2.747,1.971C2.747,2.175 2.741,2.183 2.52,2.267C2.482,2.281 2.437,2.298 2.385,2.32C2.359,2.33 2.332,2.339 2.305,2.349C2.272,2.36 2.239,2.371 2.208,2.386C2.086,2.438 1.984,2.43 1.912,2.36C1.781,2.238 1.644,2.278 1.498,2.32C1.482,2.325 1.467,2.329 1.451,2.333C1.37,2.356 1.312,2.417 1.276,2.519C1.15,2.872 1.105,2.905 0.745,2.91C0.739,2.91 0.732,2.91 0.726,2.909C0.716,2.909 0.707,2.909 0.7,2.91C0.491,2.959 0.326,2.879 0.194,2.669C0.177,2.644 0.164,2.617 0.152,2.592C0.136,2.559 0.121,2.53 0.102,2.503C0.066,2.453 0.006,2.423 -0.061,2.423C-0.064,2.423 -0.068,2.423 -0.072,2.424C-0.14,2.427 -0.199,2.461 -0.231,2.514C-0.298,2.628 -0.289,2.75 -0.28,2.879C-0.277,2.923 -0.274,2.968 -0.274,3.013C-0.256,3.032 -0.239,3.052 -0.221,3.073C-0.156,3.147 -0.094,3.218 0,3.25Z" style="fill:rgb(132,212,236);fill-rule:nonzero;"/>
            </g>
            <g transform="matrix(1,0,0,1,7.848,10.9355)">
                <path d="M0,-1.686C-0.033,-1.728 -0.072,-1.766 -0.126,-1.766C-0.146,-1.766 -0.156,-1.76 -0.16,-1.755C-0.176,-1.74 -0.185,-1.703 -0.185,-1.646C-0.186,-1.531 -0.186,-1.416 -0.186,-1.301L-0.186,-1.162C-0.186,-1.107 -0.185,-1.051 -0.185,-0.996C-0.184,-0.86 -0.184,-0.719 -0.188,-0.581C-0.19,-0.506 -0.159,-0.449 -0.088,-0.399C-0.066,-0.382 -0.038,-0.372 -0.014,-0.371C0.043,-0.364 0.079,-0.4 0.141,-0.373C0.19,-0.353 0.23,-0.31 0.254,-0.264C0.296,-0.184 0.301,-0.09 0.312,0C0.314,0.018 0.317,0.036 0.328,0.049C0.341,0.063 0.361,0.067 0.379,0.069C0.489,0.08 0.595,0.027 0.684,-0.039C0.829,-0.145 0.953,-0.315 0.92,-0.492C0.901,-0.597 0.83,-0.684 0.761,-0.767L0.291,-1.33C0.213,-1.424 0.134,-1.518 0.056,-1.612C0.039,-1.633 0.02,-1.66 0,-1.686" style="fill:rgb(172,114,102);fill-rule:nonzero;"/>
            </g>
            <g transform="matrix(1,0,0,1,0.898,9.0205)">
                <path d="M0,0.002C0.1,-0.049 0.207,-0.086 0.309,-0.122C0.427,-0.163 0.549,-0.206 0.661,-0.269C0.731,-0.309 0.827,-0.297 0.919,-0.286C0.949,-0.283 0.979,-0.28 1.007,-0.278C1.041,-0.276 1.086,-0.236 1.094,-0.201C1.102,-0.168 1.104,-0.134 1.106,-0.101C1.109,-0.069 1.11,-0.038 1.118,-0.009C1.178,0.262 1.214,0.295 1.463,0.295L1.468,0.295C1.523,0.295 1.578,0.294 1.634,0.292C1.739,0.289 1.849,0.287 1.955,0.294C1.964,0.294 1.973,0.295 1.981,0.295C2.133,0.295 2.218,0.197 2.287,0.091C2.303,0.067 2.308,0.035 2.314,0.002C2.319,-0.028 2.324,-0.059 2.337,-0.087L2.362,-0.143C2.497,-0.445 2.522,-0.49 2.723,-0.49C2.755,-0.49 2.79,-0.489 2.831,-0.488C2.856,-0.487 2.883,-0.486 2.912,-0.485L2.925,-0.485C3.033,-0.482 3.143,-0.479 3.25,-0.486C3.419,-0.497 3.492,-0.386 3.534,-0.303C3.542,-0.286 3.55,-0.27 3.56,-0.255C3.582,-0.214 3.605,-0.172 3.616,-0.125C3.638,-0.029 3.69,0.012 3.791,0.012L3.801,0.012C3.853,0.011 3.905,0.011 3.96,0.011C4.02,0.012 4.081,0.011 4.14,0.01C4.214,0.007 4.253,-0.015 4.275,-0.067C4.293,-0.111 4.317,-0.153 4.341,-0.192C4.35,-0.208 4.36,-0.223 4.368,-0.239C4.471,-0.419 4.595,-0.472 4.811,-0.425C4.876,-0.41 4.938,-0.401 4.996,-0.397C5.031,-0.395 5.068,-0.396 5.104,-0.395C5.163,-0.396 5.228,-0.396 5.288,-0.383C5.363,-0.367 5.387,-0.305 5.407,-0.251C5.421,-0.213 5.435,-0.178 5.463,-0.156C5.487,-0.137 5.509,-0.115 5.53,-0.093C5.543,-0.08 5.555,-0.067 5.569,-0.055C5.625,-0.002 5.693,-0.004 5.765,-0.006C5.786,-0.007 5.81,-0.007 5.831,-0.007L5.838,-0.007C5.886,-0.007 5.904,-0.034 5.934,-0.085L5.946,-0.106C5.991,-0.178 6.049,-0.244 6.104,-0.308C6.122,-0.329 6.141,-0.35 6.159,-0.372C6.228,-0.453 6.228,-0.453 6.182,-0.55L6.161,-0.593C6.081,-0.766 5.973,-0.835 5.78,-0.835L5.77,-0.835C5.105,-0.826 4.428,-0.827 3.774,-0.829C3.54,-0.829 3.305,-0.83 3.071,-0.83L3.049,-0.828L0.535,-0.828C0.404,-0.827 0.268,-0.827 0.135,-0.822C0.089,-0.82 0.047,-0.8 0.003,-0.78C-0.056,-0.753 -0.113,-0.725 -0.19,-0.733C-0.199,-0.735 -0.208,-0.736 -0.217,-0.736C-0.289,-0.736 -0.354,-0.699 -0.421,-0.621C-0.439,-0.602 -0.456,-0.582 -0.474,-0.563C-0.542,-0.486 -0.606,-0.413 -0.662,-0.327C-0.683,-0.296 -0.702,-0.263 -0.722,-0.23C-0.79,-0.111 -0.862,0.012 -1.004,0.077C-1.015,0.082 -1.023,0.091 -1.027,0.104C-1.032,0.124 -1.028,0.15 -1.014,0.171L-0.981,0.222C-0.864,0.402 -0.743,0.589 -0.616,0.766C-0.574,0.825 -0.557,0.837 -0.55,0.837C-0.533,0.835 -0.498,0.747 -0.483,0.709L-0.479,0.7C-0.422,0.556 -0.363,0.408 -0.287,0.271C-0.223,0.157 -0.126,0.066 0,0.002" style="fill:rgb(132,212,236);fill-rule:nonzero;"/>
            </g>
            <g transform="matrix(1,0,0,1,14.804,7.5465)">
                <path d="M0,0.297C0,0.273 0,0.251 0.001,0.227L-0.003,0.205C-0.003,0.162 -0.002,0.119 -0.002,0.075C-0.001,-0.039 0,-0.157 -0.006,-0.273C-0.007,-0.303 -0.036,-0.332 -0.081,-0.332L-0.082,-0.332C-0.086,-0.334 -0.088,-0.34 -0.093,-0.342C-0.24,-0.402 -0.406,-0.338 -0.555,-0.282C-0.608,-0.262 -0.661,-0.243 -0.715,-0.224C-0.715,-0.224 -0.717,-0.225 -0.718,-0.225L-0.718,-0.222C-0.817,-0.186 -0.916,-0.154 -1.02,-0.14C-1.082,-0.132 -1.14,-0.123 -1.197,-0.106C-1.425,-0.034 -1.661,0.023 -1.889,0.078C-1.994,0.103 -2.1,0.129 -2.204,0.156C-2.343,0.191 -2.481,0.226 -2.619,0.261C-2.863,0.324 -3.107,0.385 -3.35,0.449C-3.435,0.472 -3.45,0.494 -3.446,0.602C-3.443,0.664 -3.41,0.693 -3.344,0.694C-3.028,0.695 -2.714,0.694 -2.399,0.695L-2.084,0.695L-2.062,0.697C-1.73,0.697 -1.398,0.697 -1.066,0.696L-1.013,0.696C-0.936,0.696 -0.855,0.696 -0.776,0.694C-0.742,0.693 -0.719,0.686 -0.702,0.676C-0.689,0.676 -0.675,0.68 -0.661,0.68C-0.546,0.676 -0.431,0.672 -0.315,0.668C-0.298,0.684 -0.272,0.693 -0.229,0.695L-0.219,0.695C-0.117,0.697 -0.052,0.699 -0.025,0.671C-0.002,0.648 0.005,0.599 0.001,0.494C-0.001,0.429 0,0.362 0,0.297" style="fill:rgb(172,114,102);fill-rule:nonzero;"/>
            </g>
            <g transform="matrix(1,0,0,1,15.441,12.6955)">
                <path d="M0,1.415C0,1.467 0.001,1.519 -0.001,1.571C-0.004,1.657 0.052,1.704 0.113,1.742C0.162,1.774 0.22,1.8 0.281,1.819C0.48,1.883 0.67,1.976 0.853,2.066C0.951,2.114 1.052,2.164 1.154,2.208C1.195,2.226 1.211,2.224 1.215,2.221C1.221,2.218 1.23,2.205 1.23,2.156L1.23,1.029L1.231,0.384C1.231,0.019 1.231,-0.346 1.23,-0.71C1.23,-0.801 1.179,-0.811 1.14,-0.811C0.79,-0.811 0.428,-0.811 0.072,-0.808C0.056,-0.807 0.024,-0.787 0.02,-0.779C0.02,-0.723 0.012,-0.663 0.005,-0.605C-0.016,-0.428 -0.035,-0.261 0.1,-0.107C0.287,0.105 0.347,0.357 0.266,0.584C0.251,0.624 0.241,0.666 0.232,0.71C0.204,0.825 0.176,0.943 0.067,1.028C0.031,1.056 0.01,1.128 0.006,1.183C-0.001,1.259 0,1.339 0,1.415" style="fill:rgb(172,114,102);fill-rule:nonzero;"/>
            </g>
            <g transform="matrix(1,0,0,1,6.171,3.5185)">
                <path d="M0,1.212C0.199,1.215 0.4,1.214 0.596,1.214L0.775,1.212L1.275,1.212C1.382,1.212 1.49,1.212 1.597,1.211C1.761,1.208 1.911,1.057 1.914,0.895C1.918,0.684 1.917,0.46 1.913,0.169C1.911,0.091 1.824,0.009 1.743,0.007C1.663,0.006 1.581,0.007 1.502,0.008C1.357,0.01 1.209,0.011 1.064,-0.001C1.047,-0.002 1.03,-0.003 1.014,-0.003C0.861,-0.003 0.74,0.063 0.628,0.206C0.576,0.273 0.525,0.343 0.476,0.411C0.433,0.471 0.39,0.53 0.345,0.589C0.286,0.665 0.227,0.741 0.168,0.817C0.089,0.917 0.01,1.018 -0.066,1.12C-0.073,1.13 -0.073,1.167 -0.063,1.183C-0.053,1.198 -0.022,1.212 0,1.212M0.737,0.555C0.996,0.527 1.301,0.505 1.605,0.562C1.64,0.568 1.659,0.634 1.658,0.662C1.657,0.693 1.63,0.753 1.597,0.758C1.505,0.769 1.413,0.774 1.306,0.781C1.266,0.783 1.225,0.786 1.18,0.789L1.086,0.782C0.977,0.774 0.854,0.765 0.73,0.751C0.695,0.748 0.675,0.678 0.676,0.65C0.677,0.62 0.703,0.559 0.737,0.555" style="fill:rgb(114,74,158);fill-rule:nonzero;"/>
            </g>
            <g transform="matrix(1,0,0,1,17.69,6.7765)">
                <path d="M0,-0.626C-0.103,-0.638 -0.208,-0.639 -0.287,-0.639L-3.734,-0.639L-6.031,-0.64C-6.061,-0.64 -6.091,-0.638 -6.121,-0.636C-6.19,-0.632 -6.261,-0.626 -6.328,-0.645C-6.453,-0.681 -6.573,-0.748 -6.674,-0.809C-6.769,-0.866 -6.766,-0.963 -6.763,-1.049C-6.763,-1.064 -6.762,-1.078 -6.762,-1.098C-6.762,-1.21 -6.762,-1.307 -6.906,-1.341C-7.032,-1.493 -7.084,-1.668 -7.072,-1.894C-7.063,-2.059 -7.004,-2.162 -6.879,-2.228C-6.725,-2.311 -6.556,-2.368 -6.361,-2.242C-6.341,-2.229 -6.32,-2.216 -6.299,-2.205C-6.25,-2.177 -6.201,-2.149 -6.16,-2.106C-6.094,-2.038 -6.017,-2.024 -5.919,-2.059C-5.9,-2.066 -5.88,-2.076 -5.861,-2.086C-5.819,-2.107 -5.774,-2.127 -5.732,-2.124C-5.612,-2.107 -5.507,-2.143 -5.395,-2.181C-5.325,-2.205 -5.252,-2.23 -5.176,-2.239C-5.097,-2.25 -5.016,-2.27 -4.939,-2.29C-4.822,-2.319 -4.701,-2.349 -4.574,-2.349C-4.499,-2.419 -4.406,-2.424 -4.316,-2.429C-4.229,-2.434 -4.146,-2.438 -4.064,-2.507C-3.969,-2.497 -3.881,-2.527 -3.789,-2.561C-3.698,-2.593 -3.608,-2.628 -3.506,-2.617C-3.418,-2.609 -3.346,-2.639 -3.266,-2.671C-3.183,-2.705 -3.096,-2.738 -2.998,-2.725C-2.895,-2.782 -2.783,-2.793 -2.674,-2.803C-2.577,-2.812 -2.486,-2.821 -2.403,-2.86C-2.34,-2.89 -2.276,-2.894 -2.212,-2.897C-2.147,-2.901 -2.084,-2.905 -2.035,-2.94C-1.961,-2.993 -1.881,-2.998 -1.802,-3.003C-1.736,-3.007 -1.672,-3.011 -1.618,-3.046C-1.537,-3.098 -1.45,-3.101 -1.367,-3.105C-1.322,-3.106 -1.278,-3.108 -1.236,-3.118C-1.17,-3.133 -1.104,-3.161 -1.041,-3.188C-1.018,-3.198 -0.995,-3.208 -0.972,-3.217C-0.969,-3.218 -0.966,-3.222 -0.966,-3.23C-0.978,-3.24 -0.992,-3.252 -1.002,-3.253C-1.099,-3.258 -1.199,-3.258 -1.296,-3.258L-2.294,-3.258C-3.417,-3.26 -4.579,-3.26 -5.722,-3.256L-5.742,-3.256C-5.987,-3.256 -6.189,-3.275 -6.348,-3.475C-6.371,-3.504 -6.409,-3.522 -6.449,-3.542C-6.483,-3.558 -6.517,-3.574 -6.545,-3.598C-6.625,-3.663 -6.694,-3.741 -6.75,-3.809C-6.773,-3.836 -6.762,-3.896 -6.743,-3.925C-6.727,-3.95 -6.693,-3.96 -6.664,-3.969L-6.651,-3.973C-6.633,-3.98 -6.605,-3.976 -6.587,-3.965C-6.557,-3.946 -6.527,-3.927 -6.497,-3.909C-6.417,-3.86 -6.337,-3.81 -6.264,-3.75C-6.219,-3.712 -6.161,-3.701 -6.101,-3.689C-6.017,-3.673 -5.931,-3.657 -5.873,-3.569C-5.845,-3.526 -5.796,-3.506 -5.722,-3.505C-5.615,-3.505 -5.553,-3.505 -5.527,-3.531C-5.507,-3.55 -5.5,-3.59 -5.5,-3.676L-5.501,-3.773C-5.502,-3.968 -5.502,-4.163 -5.505,-4.357C-5.505,-4.398 -5.53,-4.425 -5.572,-4.431C-5.62,-4.438 -5.67,-4.44 -5.713,-4.435C-5.853,-4.422 -5.995,-4.42 -6.133,-4.419C-6.371,-4.416 -6.618,-4.413 -6.861,-4.353C-7.042,-4.308 -7.232,-4.314 -7.415,-4.32C-7.628,-4.325 -7.849,-4.334 -8.058,-4.263C-8.101,-4.245 -8.176,-4.342 -8.19,-4.361C-8.233,-4.421 -8.186,-4.459 -8.158,-4.483C-8.151,-4.488 -8.144,-4.494 -8.138,-4.5C-8.082,-4.559 -8.012,-4.563 -7.944,-4.564C-7.694,-4.566 -7.444,-4.569 -7.193,-4.572L-7.068,-4.574C-7.032,-4.574 -6.996,-4.572 -6.959,-4.569C-6.88,-4.563 -6.8,-4.557 -6.741,-4.587C-6.549,-4.684 -6.357,-4.653 -6.164,-4.665C-6.105,-4.669 -6.044,-4.665 -5.986,-4.663C-5.878,-4.657 -5.776,-4.653 -5.687,-4.686C-5.447,-4.775 -5.206,-4.77 -4.971,-4.763L-4.915,-4.762C-4.905,-4.762 -4.895,-4.761 -4.884,-4.761C-4.505,-4.761 -4.184,-4.916 -3.886,-5.076C-3.841,-5.1 -3.841,-5.154 -3.846,-5.226C-3.852,-5.285 -3.894,-5.296 -3.92,-5.297C-4.019,-5.302 -4.12,-5.301 -4.217,-5.302L-4.26,-5.302C-4.812,-5.301 -5.365,-5.302 -5.918,-5.301C-7.64,-5.301 -9.421,-5.3 -11.177,-5.309C-11.311,-5.309 -11.44,-5.281 -11.565,-5.254C-11.667,-5.232 -11.772,-5.21 -11.878,-5.202C-11.915,-5.2 -11.961,-5.178 -11.991,-5.15C-12.011,-5.131 -12.031,-5.113 -12.051,-5.095C-12.126,-5.026 -12.204,-4.955 -12.254,-4.872C-12.357,-4.702 -12.495,-4.559 -12.63,-4.421C-12.76,-4.287 -12.895,-4.148 -12.995,-3.984C-13.02,-3.943 -13.062,-3.914 -13.102,-3.885C-13.117,-3.875 -13.133,-3.865 -13.146,-3.854C-13.165,-3.84 -13.186,-3.827 -13.206,-3.815C-13.242,-3.794 -13.277,-3.774 -13.292,-3.747C-13.377,-3.594 -13.497,-3.471 -13.614,-3.352C-13.664,-3.3 -13.716,-3.247 -13.764,-3.192C-13.851,-3.094 -13.906,-3.024 -14.042,-2.99C-14.152,-2.964 -14.268,-2.967 -14.38,-2.967L-15.158,-2.967C-15.694,-2.967 -16.232,-2.966 -16.768,-2.965C-16.782,-2.965 -16.799,-2.956 -16.827,-2.941C-16.824,-2.934 -16.822,-2.926 -16.819,-2.919C-16.706,-2.661 -16.532,-2.453 -16.347,-2.233L-16.332,-2.215C-16.244,-2.109 -16.135,-2.071 -16.02,-2.032C-15.975,-2.016 -15.929,-2 -15.885,-1.98C-15.871,-1.974 -15.861,-1.963 -15.852,-1.953C-15.849,-1.95 -15.846,-1.947 -15.842,-1.944C-15.819,-1.921 -15.807,-1.897 -15.806,-1.873C-15.805,-1.846 -15.818,-1.821 -15.843,-1.795C-15.914,-1.72 -15.997,-1.693 -16.083,-1.714C-16.295,-1.771 -16.439,-1.86 -16.536,-1.997C-16.588,-2.069 -16.64,-2.141 -16.693,-2.213C-16.903,-2.499 -17.119,-2.794 -17.268,-3.126C-17.345,-3.297 -17.461,-3.447 -17.573,-3.591C-17.652,-3.693 -17.735,-3.8 -17.803,-3.914C-17.807,-3.921 -17.822,-3.928 -17.832,-3.933C-17.85,-3.942 -17.869,-3.954 -17.887,-3.966C-17.925,-3.989 -17.966,-4.015 -17.989,-4.009C-18.027,-4.001 -18.029,-3.951 -18.029,-3.885L-18.029,-3.865C-18.029,-3.2 -18.029,-2.535 -18.028,-1.87C-18.027,-1.529 -18.026,-1.189 -18.024,-0.847C-18.023,-0.827 -18.016,-0.81 -18.003,-0.803C-17.993,-0.798 -17.982,-0.802 -17.975,-0.806C-17.803,-0.923 -17.613,-0.973 -17.34,-0.973L-17.323,-0.973C-16.579,-0.968 -15.823,-0.968 -15.089,-0.968L-14.927,-0.968C-14.355,-0.968 -13.765,-0.968 -13.181,-0.965C-12.966,-0.965 -12.79,-1.029 -12.63,-1.169C-12.535,-1.251 -12.528,-1.263 -12.605,-1.412C-12.624,-1.45 -12.642,-1.488 -12.659,-1.526C-12.689,-1.588 -12.718,-1.652 -12.753,-1.712C-12.79,-1.773 -12.834,-1.804 -12.887,-1.804L-13.52,-1.806C-13.861,-1.806 -14.202,-1.807 -14.542,-1.806C-14.621,-1.806 -14.711,-1.813 -14.779,-1.89C-14.8,-1.915 -14.825,-1.944 -14.822,-1.978C-14.82,-1.999 -14.809,-2.018 -14.786,-2.036C-14.778,-2.043 -14.769,-2.051 -14.76,-2.059C-14.728,-2.086 -14.696,-2.116 -14.657,-2.12C-14.586,-2.13 -14.511,-2.128 -14.439,-2.128C-14.413,-2.128 -14.387,-2.128 -14.363,-2.127C-14.171,-2.128 -13.979,-2.128 -13.786,-2.129C-13.258,-2.131 -12.71,-2.131 -12.167,-2.127C-11.989,-2.127 -11.866,-2.19 -11.781,-2.324C-11.681,-2.483 -11.56,-2.629 -11.444,-2.77C-11.329,-2.908 -11.21,-3.051 -11.113,-3.205C-10.981,-3.413 -10.81,-3.502 -10.536,-3.502C-10.059,-3.498 -9.573,-3.5 -9.103,-3.499L-8.2,-3.499C-8.13,-3.499 -8.056,-3.489 -7.959,-3.468C-7.926,-3.461 -7.908,-3.395 -7.912,-3.364C-7.914,-3.332 -7.941,-3.279 -7.975,-3.271C-8.042,-3.256 -8.113,-3.254 -8.173,-3.253C-8.367,-3.25 -8.562,-3.252 -8.757,-3.25C-8.845,-3.25 -8.874,-3.218 -8.874,-3.122L-8.874,-2.95C-8.875,-2.802 -8.873,-2.65 -8.873,-2.499C-8.877,-2.467 -8.877,-2.432 -8.875,-2.399C-8.874,-2.383 -8.874,-2.366 -8.873,-2.35L-8.873,-2.291C-8.875,-2.262 -8.878,-2.232 -8.889,-2.204C-8.914,-2.143 -8.983,-2.095 -9.045,-2.116C-9.092,-2.133 -9.119,-2.183 -9.136,-2.23C-9.189,-2.37 -9.199,-2.53 -9.211,-2.678C-9.219,-2.767 -9.211,-2.859 -9.212,-2.948C-9.212,-2.985 -9.189,-3.198 -9.215,-3.218C-9.219,-3.222 -9.25,-3.239 -9.276,-3.242C-9.298,-3.242 -9.324,-3.231 -9.328,-3.225C-9.345,-3.19 -9.355,-3.145 -9.356,-3.098L-9.356,-3.033C-9.358,-2.801 -9.361,-2.56 -9.356,-2.323C-9.351,-2.142 -9.442,-2.003 -9.536,-1.877C-9.606,-1.781 -9.708,-1.788 -9.799,-1.795C-9.822,-1.796 -9.844,-1.798 -9.868,-1.798C-10.442,-1.795 -11.02,-1.795 -11.564,-1.796C-11.586,-1.797 -11.604,-1.796 -11.624,-1.795C-11.732,-1.792 -11.84,-1.79 -11.938,-1.86C-12.036,-1.804 -12.142,-1.803 -12.244,-1.805C-12.28,-1.806 -12.315,-1.807 -12.349,-1.804C-12.393,-1.802 -12.424,-1.794 -12.442,-1.78C-12.457,-1.768 -12.463,-1.753 -12.462,-1.731C-12.459,-1.673 -12.422,-1.638 -12.383,-1.601L-12.369,-1.588C-12.319,-1.54 -12.251,-1.539 -12.182,-1.542L-12.155,-1.542C-11.934,-1.541 -11.712,-1.541 -11.49,-1.541C-11.369,-1.541 -10.998,-1.614 -11.017,-1.397C-11.024,-1.327 -11.083,-1.271 -11.148,-1.241C-11.172,-1.23 -11.197,-1.223 -11.223,-1.216C-11.47,-1.216 -11.718,-1.216 -11.971,-1.218C-12.115,-1.218 -12.206,-1.178 -12.284,-1.081C-12.504,-0.805 -12.799,-0.681 -13.157,-0.718C-13.189,-0.721 -13.221,-0.719 -13.254,-0.719C-13.27,-0.719 -13.285,-0.718 -13.3,-0.718L-17.243,-0.72C-17.275,-0.72 -17.307,-0.721 -17.338,-0.722C-17.387,-0.723 -17.438,-0.725 -17.486,-0.722C-17.734,-0.712 -18.015,-0.455 -18.022,-0.232C-18.031,0.033 -18.025,0.303 -18.02,0.565C-18.018,0.656 -18.017,0.746 -18.015,0.836C-18.014,0.837 -18.007,0.843 -17.993,0.848C-17.912,0.647 -17.746,0.504 -17.487,0.408C-17.295,0.337 -17.084,0.303 -16.844,0.303L-16.82,0.303C-16.672,0.303 -16.524,0.305 -16.376,0.306C-16.267,0.306 -16.06,0.264 -15.973,0.343C-15.941,0.372 -15.921,0.414 -15.914,0.457C-15.909,0.489 -15.912,0.525 -15.933,0.548C-15.947,0.564 -15.966,0.572 -15.985,0.581C-16.156,0.656 -16.351,0.626 -16.535,0.625C-16.731,0.625 -16.929,0.623 -17.132,0.623C-17.345,0.623 -17.475,0.676 -17.582,0.806C-17.62,0.852 -17.662,0.894 -17.704,0.935C-17.753,0.984 -17.804,1.035 -17.845,1.09C-17.931,1.205 -18.018,1.322 -18.023,1.462C-18.029,1.618 -18.024,1.778 -18.019,1.932C-18.017,1.986 -18.016,2.039 -18.015,2.093C-18.014,2.097 -18.01,2.105 -18.006,2.11C-17.991,2.11 -17.962,2.109 -17.954,2.101C-17.93,2.077 -17.905,2.053 -17.881,2.029C-17.812,1.964 -17.74,1.897 -17.7,1.817C-17.633,1.686 -17.536,1.586 -17.441,1.489C-17.414,1.461 -17.386,1.433 -17.36,1.404C-17.304,1.344 -17.232,1.314 -17.162,1.285C-17.144,1.277 -17.125,1.269 -17.107,1.261C-16.919,1.176 -16.725,1.172 -16.537,1.172L-16.511,1.172L-15.077,1.171C-13.826,1.171 -12.575,1.17 -11.324,1.167C-11.303,1.167 -11.281,1.17 -11.26,1.172C-11.195,1.178 -11.136,1.184 -11.085,1.138C-11.132,1.089 -11.178,1.039 -11.224,0.989C-11.42,0.779 -11.621,0.561 -11.889,0.426C-11.911,0.415 -11.924,0.399 -11.928,0.381C-11.931,0.353 -11.91,0.328 -11.893,0.312C-11.788,0.209 -11.734,0.207 -11.617,0.245C-11.508,0.281 -11.447,0.36 -11.387,0.435C-11.37,0.456 -11.353,0.478 -11.335,0.499C-11.206,0.648 -11.065,0.791 -10.929,0.929C-10.708,1.154 -10.48,1.386 -10.294,1.65C-9.995,1.928 -9.717,2.241 -9.449,2.545C-9.243,2.777 -9.029,3.018 -8.807,3.243C-8.778,3.271 -8.75,3.3 -8.723,3.329C-8.661,3.392 -8.598,3.457 -8.532,3.516C-8.357,3.671 -8.277,3.857 -8.286,4.086C-8.29,4.17 -8.289,4.255 -8.288,4.338L-8.287,4.377C-8.285,4.543 -8.285,4.543 -8.134,4.623L-8.109,4.638C-8.034,4.678 -7.962,4.682 -7.884,4.682C-7.833,4.682 -7.8,4.673 -7.781,4.655C-7.764,4.638 -7.756,4.612 -7.755,4.573L-7.755,4.131C-7.755,3.981 -7.775,3.811 -7.743,3.664C-7.733,3.624 -7.713,3.584 -7.679,3.561C-7.646,3.537 -7.597,3.531 -7.563,3.554C-7.486,3.604 -7.509,3.76 -7.509,3.837C-7.508,3.961 -7.507,4.086 -7.505,4.211C-7.504,4.255 -7.507,4.3 -7.511,4.343C-7.519,4.455 -7.527,4.561 -7.471,4.659L-7.339,4.667C-7.245,4.673 -7.148,4.678 -7.053,4.681C-6.963,4.683 -6.873,4.682 -6.784,4.681C-6.745,4.68 -6.704,4.679 -6.664,4.679C-6.598,4.678 -6.569,4.649 -6.569,4.584C-6.568,4.244 -6.567,3.903 -6.565,3.562C-6.565,3.538 -6.568,3.513 -6.57,3.488C-6.575,3.427 -6.581,3.363 -6.556,3.311C-6.541,3.281 -6.529,3.248 -6.517,3.214C-6.474,3.098 -6.43,2.978 -6.269,2.932C-5.709,2.769 -5.146,2.577 -4.601,2.392C-4.158,2.241 -3.699,2.085 -3.244,1.946C-3.129,1.91 -3.016,1.861 -2.907,1.812L-2.852,1.788C-2.839,1.782 -2.828,1.766 -2.814,1.737C-2.825,1.728 -2.839,1.717 -2.847,1.717C-3.593,1.714 -4.339,1.714 -5.086,1.714L-5.46,1.714C-5.742,1.714 -6.023,1.714 -6.302,1.713C-6.448,1.712 -6.563,1.602 -6.578,1.451C-6.581,1.422 -6.58,1.393 -6.58,1.364C-6.579,1.344 -6.579,1.324 -6.58,1.304C-6.588,1.091 -6.744,0.929 -6.942,0.925C-6.998,0.927 -7.064,0.927 -7.134,0.933C-7.236,0.943 -7.328,0.902 -7.41,0.815C-7.428,0.795 -7.446,0.775 -7.465,0.756C-7.512,0.705 -7.56,0.653 -7.606,0.599C-7.629,0.571 -7.635,0.53 -7.639,0.498C-7.653,0.386 -7.609,0.258 -7.523,0.157C-7.441,0.062 -7.337,0.006 -7.236,0.003C-7.207,0.002 -7.179,0.001 -7.153,0.001C-6.849,0.001 -6.763,0.07 -6.655,0.348C-6.616,0.45 -6.621,0.534 -6.668,0.6C-6.707,0.655 -6.69,0.682 -6.644,0.732C-6.57,0.809 -6.486,0.871 -6.378,0.923C-6.301,0.963 -6.247,0.982 -6.179,0.936C-6.153,0.919 -6.084,0.881 -6.03,0.889C-5.947,0.902 -5.869,0.871 -5.787,0.837C-5.705,0.802 -5.621,0.767 -5.522,0.782C-5.427,0.728 -5.321,0.72 -5.218,0.712C-5.129,0.704 -5.045,0.698 -4.974,0.663C-4.89,0.622 -4.803,0.609 -4.719,0.596C-4.63,0.583 -4.546,0.57 -4.466,0.528C-4.388,0.486 -4.297,0.481 -4.209,0.477C-4.107,0.472 -4.001,0.467 -3.897,0.4C-3.797,0.417 -3.709,0.384 -3.615,0.348C-3.544,0.321 -3.47,0.292 -3.39,0.288C-3.268,0.28 -3.143,0.248 -3.022,0.216C-2.975,0.205 -2.928,0.193 -2.881,0.182C-2.831,0.171 -2.779,0.161 -2.728,0.153C-2.61,0.133 -2.487,0.112 -2.382,0.057C-2.308,0.017 -2.229,0.008 -2.153,-0.001C-2.072,-0.01 -1.995,-0.019 -1.92,-0.061C-1.851,-0.101 -1.768,-0.104 -1.688,-0.107C-1.593,-0.111 -1.496,-0.116 -1.4,-0.181C-1.317,-0.17 -1.241,-0.198 -1.16,-0.227C-1.094,-0.252 -1.024,-0.278 -0.951,-0.278C-0.94,-0.278 -0.929,-0.276 -0.917,-0.277C-0.812,-0.277 -0.716,-0.307 -0.614,-0.34C-0.513,-0.371 -0.409,-0.405 -0.297,-0.405C-0.292,-0.405 -0.285,-0.404 -0.28,-0.404C-0.208,-0.404 -0.132,-0.441 -0.058,-0.477C-0.033,-0.49 -0.008,-0.501 0.016,-0.512C0.023,-0.517 0.032,-0.55 0.029,-0.572C0.027,-0.592 0.008,-0.622 0,-0.626M-17.331,-1.955C-17.339,-1.834 -17.348,-1.708 -17.361,-1.585L-17.361,-1.584C-17.365,-1.549 -17.431,-1.528 -17.459,-1.528L-17.46,-1.528C-17.493,-1.528 -17.526,-1.552 -17.55,-1.57C-17.571,-1.584 -17.573,-1.62 -17.573,-1.631C-17.574,-1.933 -17.575,-2.235 -17.574,-2.538C-17.574,-2.559 -17.559,-2.579 -17.533,-2.596C-17.502,-2.615 -17.457,-2.627 -17.427,-2.612C-17.378,-2.588 -17.348,-2.567 -17.346,-2.539C-17.342,-2.415 -17.342,-2.29 -17.343,-2.169L-17.343,-2.082L-17.322,-2.081L-17.331,-1.955ZM-8.254,0.482C-8.272,0.513 -8.29,0.544 -8.306,0.576C-8.364,0.694 -8.478,0.737 -8.589,0.779C-8.617,0.79 -8.645,0.8 -8.672,0.812C-8.698,0.824 -8.724,0.829 -8.749,0.829C-8.822,0.829 -8.893,0.788 -8.961,0.741C-8.982,0.727 -9.006,0.716 -9.032,0.706C-9.066,0.692 -9.1,0.676 -9.128,0.652C-9.369,0.432 -9.467,0.28 -9.467,0.128C-9.467,-0.025 -9.368,-0.18 -9.137,-0.39C-9.047,-0.472 -8.947,-0.477 -8.849,-0.481C-8.821,-0.482 -8.793,-0.484 -8.765,-0.487C-8.486,-0.52 -8.347,-0.318 -8.225,-0.142L-8.215,-0.129C-8.18,-0.078 -8.178,-0.009 -8.176,0.078C-8.175,0.121 -8.174,0.169 -8.169,0.221C-8.15,0.3 -8.201,0.388 -8.254,0.482" style="fill:rgb(60,155,162);fill-rule:nonzero;"/>
            </g>
            <g transform="matrix(1,0,0,1,11.162,5.3135)">
                <path d="M0,-0.538L-0.072,-0.538C-0.079,-0.539 -0.085,-0.539 -0.091,-0.539C-0.195,-0.539 -0.249,-0.467 -0.276,-0.405C-0.317,-0.314 -0.304,-0.229 -0.238,-0.164C-0.184,-0.111 -0.126,-0.055 -0.061,-0.006C-0.048,0.005 -0.01,0.007 0.004,-0.002C0.114,-0.063 0.191,-0.139 0.232,-0.227C0.264,-0.296 0.256,-0.368 0.209,-0.429C0.149,-0.506 0.074,-0.545 0,-0.538" style="fill:rgb(114,74,158);fill-rule:nonzero;"/>
            </g>
            <g transform="matrix(1,0,0,1,11.338,4.0765)">
                <path d="M0,1.735C0.12,1.738 0.247,1.74 0.388,1.74L2.213,1.74L2.235,1.738C2.571,1.738 2.906,1.737 3.241,1.74C3.453,1.742 3.673,1.744 3.887,1.735C3.902,1.734 3.917,1.734 3.933,1.734C3.986,1.734 4.04,1.737 4.093,1.741C4.245,1.751 4.388,1.76 4.527,1.692L4.527,1.689C4.533,1.178 4.539,0.666 4.545,0.154L4.545,0.131C4.545,0.107 4.545,0.082 4.544,0.058C4.544,0.027 4.543,-0.011 4.535,-0.017C4.525,-0.025 4.473,-0.012 4.443,-0.003C4.374,0.014 4.302,0.018 4.233,0.022C4.11,0.029 3.995,0.035 3.893,0.109L3.886,0.114L3.878,0.114C3.745,0.103 3.615,0.138 3.489,0.172C3.358,0.208 3.221,0.245 3.079,0.232C2.938,0.295 2.787,0.319 2.64,0.343C2.527,0.361 2.409,0.38 2.299,0.417C2.19,0.453 2.077,0.471 1.968,0.489C1.877,0.503 1.783,0.518 1.694,0.544C1.591,0.574 1.493,0.59 1.389,0.608L1.366,0.612C1.319,0.619 1.27,0.634 1.224,0.65C1.156,0.672 1.085,0.695 1.014,0.695C0.999,0.695 0.982,0.693 0.965,0.693C0.878,0.693 0.799,0.72 0.715,0.749C0.642,0.774 0.565,0.8 0.484,0.804C0.442,0.807 0.417,0.827 0.4,0.872C0.391,0.897 0.377,0.921 0.364,0.944C0.345,0.977 0.326,1.009 0.324,1.041C0.306,1.236 0.216,1.356 0.041,1.42C-0.007,1.437 -0.049,1.496 -0.083,1.543C-0.103,1.57 -0.1,1.617 -0.078,1.663C-0.057,1.706 -0.026,1.734 0,1.735" style="fill:rgb(172,114,102);fill-rule:nonzero;"/>
            </g>
            <g transform="matrix(1,0,0,1,17.659,14.8655)">
                <path d="M0,0.719C-0.046,0.699 -0.091,0.674 -0.135,0.65C-0.204,0.61 -0.27,0.572 -0.341,0.558C-0.508,0.523 -0.659,0.448 -0.805,0.376C-0.911,0.323 -1.021,0.268 -1.135,0.231C-1.33,0.166 -1.521,0.082 -1.706,0.001C-1.794,-0.038 -1.883,-0.077 -1.972,-0.114C-2.011,-0.13 -2.054,-0.141 -2.096,-0.152L-2.105,-0.154C-2.115,-0.156 -2.124,-0.157 -2.133,-0.157C-2.153,-0.157 -2.172,-0.152 -2.186,-0.14C-2.204,-0.127 -2.214,-0.106 -2.214,-0.083C-2.217,0.104 -2.22,0.326 -2.218,0.549C-2.218,0.592 -2.218,0.631 -2.219,0.664C-2.22,0.767 -2.221,0.823 -2.196,0.847C-2.169,0.876 -2.095,0.875 -1.945,0.875L-1.912,0.875C-1.704,0.874 -1.495,0.874 -1.287,0.874L-1.058,0.875L-1.037,0.874L-0.782,0.874C-0.531,0.875 -0.272,0.875 -0.017,0.872C0.023,0.872 0.063,0.861 0.104,0.851L0.137,0.843C0.11,0.786 0.065,0.747 0,0.719" style="fill:rgb(60,155,162);fill-rule:nonzero;"/>
            </g>
        </g>
    </g>
</svg>
