<?xml version="1.0" encoding="UTF-8" standalone="no"?>
<!DOCTYPE svg PUBLIC "-//W3C//DTD SVG 1.1//EN" "http://www.w3.org/Graphics/SVG/1.1/DTD/svg11.dtd">
<svg width="100%" height="100%" viewBox="0 0 20 20" version="1.1" xmlns="http://www.w3.org/2000/svg" xmlns:xlink="http://www.w3.org/1999/xlink" xml:space="preserve" xmlns:serif="http://www.serif.com/" style="fill-rule:evenodd;clip-rule:evenodd;stroke-linejoin:round;stroke-miterlimit:2;">
    <g transform="matrix(1.05932,0,0,1.05932,-0.593192,-0.593192)">
        <g id="Ozew">
            <g transform="matrix(1,0,0,1,10.448,14.2845)">
                <path d="M0,1.17C0.003,1.178 0.026,1.198 0.035,1.198C0.052,1.192 0.071,1.186 0.091,1.18C0.203,1.144 0.31,1.109 0.359,0.982C0.372,0.948 0.386,0.914 0.4,0.88C0.449,0.761 0.499,0.639 0.514,0.509L0.517,0.49C0.523,0.426 0.53,0.36 0.59,0.318C0.668,0.264 0.647,0.217 0.608,0.144C0.601,0.132 0.595,0.119 0.589,0.108C0.546,0.017 0.481,-0.028 0.391,-0.018C0.362,-0.015 0.333,-0.015 0.306,-0.017L0.25,-0.017L0.25,-0.02L0.19,-0.02C0.065,-0.017 -0.005,0.056 -0.007,0.185C-0.008,0.407 -0.008,0.633 -0.007,0.852L-0.006,1.081C-0.007,1.111 -0.008,1.143 0,1.17" style="fill:rgb(94,107,45);fill-rule:nonzero;"/>
            </g>
            <g transform="matrix(1,0,0,1,5.53397,16.8145)">
                <path d="M0,0.091C0.02,0.107 0.04,0.123 0.06,0.139C0.12,0.186 0.181,0.235 0.247,0.279C0.524,0.463 0.76,0.641 0.967,0.823C1.154,0.987 1.356,1.137 1.553,1.281C1.615,1.328 1.678,1.374 1.74,1.421C1.781,1.452 1.818,1.453 1.863,1.426C1.883,1.414 1.904,1.405 1.925,1.396C1.94,1.39 1.955,1.384 1.97,1.376C2.037,1.342 2.122,1.283 2.149,1.196C2.158,1.168 2.13,1.119 2.104,1.076C2.096,1.063 2.088,1.049 2.082,1.036C2.035,0.949 1.998,0.856 1.963,0.766C1.938,0.702 1.912,0.635 1.883,0.572C1.806,0.405 1.773,0.254 1.781,0.111C1.789,-0.036 1.787,-0.186 1.785,-0.331C1.784,-0.388 1.784,-0.446 1.784,-0.503L1.781,-0.522L1.781,-1.235C1.78,-1.297 1.774,-1.328 1.758,-1.343C1.745,-1.355 1.722,-1.361 1.679,-1.361L1.671,-1.361C1.52,-1.359 1.367,-1.355 1.22,-1.35L1.054,-1.346C1.001,-1.221 1.01,-1.094 1.018,-0.96C1.023,-0.889 1.028,-0.817 1.023,-0.745C1.016,-0.654 1.018,-0.561 1.02,-0.471C1.021,-0.392 1.022,-0.311 1.018,-0.23C1.01,-0.046 1.06,0.102 1.173,0.223C1.201,0.252 1.229,0.284 1.244,0.322C1.247,0.33 1.254,0.35 1.192,0.403C1.165,0.426 1.127,0.45 1.107,0.437C0.885,0.293 0.764,0.072 0.755,-0.203C0.748,-0.429 0.75,-0.659 0.751,-0.882C0.752,-0.999 0.753,-1.116 0.753,-1.234C0.752,-1.29 0.749,-1.328 0.732,-1.345C0.72,-1.357 0.694,-1.362 0.646,-1.361C0.496,-1.359 0.343,-1.355 0.195,-1.35L0.028,-1.346C-0.02,-1.225 -0.011,-1.102 -0.003,-0.973C0.002,-0.898 0.008,-0.821 0.001,-0.745C-0.006,-0.674 -0.004,-0.601 -0.003,-0.53C-0.002,-0.483 -0.001,-0.436 -0.002,-0.389L-0.003,-0.367C-0.004,-0.307 -0.005,-0.245 -0.046,-0.189C-0.121,-0.085 -0.107,0.007 0,0.091" style="fill:rgb(94,107,45);fill-rule:nonzero;"/>
            </g>
            <g transform="matrix(1,0,0,1,7.97897,14.2285)">
                <path d="M0,0.41C-0.065,0.357 -0.167,0.321 -0.248,0.282C-0.478,0.169 -0.71,0.065 -0.915,-0.108C-1.044,-0.217 -1.044,-0.216 -1.167,-0.114C-1.223,-0.067 -1.284,-0.024 -1.343,0.018C-1.368,0.036 -1.394,0.054 -1.419,0.073C-1.547,0.166 -1.596,0.263 -1.578,0.386C-1.574,0.414 -1.586,0.451 -1.605,0.472C-1.624,0.492 -1.658,0.504 -1.689,0.501C-1.717,0.498 -1.748,0.477 -1.763,0.454C-1.775,0.435 -1.776,0.412 -1.778,0.39C-1.778,0.383 -1.778,0.377 -1.779,0.37C-1.794,0.246 -1.789,0.089 -1.628,-0.03C-1.582,-0.065 -1.537,-0.103 -1.493,-0.14C-1.429,-0.194 -1.363,-0.251 -1.288,-0.298C-1.162,-0.378 -1.118,-0.463 -1.15,-0.573L-1.15,-0.617C-1.153,-0.755 -1.16,-0.764 -1.283,-0.764C-1.413,-0.764 -1.541,-0.764 -1.671,-0.763C-1.921,-0.761 -2.179,-0.759 -2.432,-0.768C-2.442,-0.769 -2.452,-0.769 -2.462,-0.769C-2.63,-0.769 -2.738,-0.716 -2.821,-0.596C-2.835,-0.577 -2.848,-0.557 -2.862,-0.539C-2.9,-0.485 -2.94,-0.429 -2.969,-0.37C-3.012,-0.284 -3.068,-0.203 -3.15,-0.109C-3.184,-0.069 -3.216,-0.026 -3.247,0.016C-3.292,0.079 -3.339,0.144 -3.396,0.197C-3.471,0.266 -3.445,0.32 -3.412,0.389L-3.403,0.411C-3.334,0.561 -3.224,0.686 -3.117,0.806C-3.037,0.897 -2.954,0.991 -2.888,1.096C-2.885,1.099 -2.872,1.103 -2.864,1.105C-2.85,1.109 -2.834,1.113 -2.821,1.123C-2.769,1.168 -2.736,1.179 -2.687,1.124C-2.586,1.011 -2.47,0.978 -2.296,1.011C-2.144,1.041 -1.965,1.035 -1.796,0.996C-1.69,0.971 -1.588,0.959 -1.484,0.958C-1.302,0.956 -1.119,0.956 -0.942,0.957L-0.731,0.957C-0.628,0.957 -0.522,0.957 -0.417,1.017C-0.361,1.051 -0.291,1.032 -0.23,0.965C-0.126,0.852 -0.041,0.742 0.03,0.626C0.09,0.527 0.063,0.461 0,0.41" style="fill:rgb(190,154,188);fill-rule:nonzero;"/>
            </g>
            <g transform="matrix(1,0,0,1,8.21197,15.1385)">
                <path d="M0,1.057C0.067,1.241 0.208,1.267 0.371,1.297L0.381,1.298C0.4,1.302 0.427,1.3 0.444,1.249C0.449,1.234 0.45,1.217 0.45,1.2C0.451,1.192 0.451,1.183 0.452,1.176L0.451,1.16C0.446,1.078 0.441,1 0.405,0.92C0.313,0.712 0.273,0.493 0.287,0.269C0.295,0.151 0.299,0.013 0.277,-0.119C0.267,-0.184 0.202,-0.237 0.124,-0.244C0.118,-0.245 0.113,-0.245 0.107,-0.245C0.065,-0.245 0.035,-0.227 0.013,-0.19C-0.014,-0.147 -0.044,-0.106 -0.074,-0.066C-0.09,-0.044 -0.107,-0.022 -0.122,0C-0.145,0.032 -0.167,0.064 -0.189,0.097C-0.218,0.139 -0.247,0.182 -0.277,0.223C-0.323,0.286 -0.326,0.354 -0.285,0.42C-0.164,0.62 -0.081,0.835 0,1.057" style="fill:rgb(115,129,126);fill-rule:nonzero;"/>
            </g>
            <g transform="matrix(1,0,0,1,11.453,14.9035)">
                <path d="M0,1.531C0.019,1.526 0.037,1.516 0.056,1.506C0.085,1.491 0.115,1.475 0.148,1.475C0.246,1.475 0.288,1.428 0.331,1.341C0.383,1.239 0.425,1.13 0.468,1.025C0.529,0.87 0.592,0.71 0.684,0.565C0.686,0.562 0.687,0.556 0.688,0.549C0.689,0.545 0.689,0.542 0.69,0.539C0.688,0.533 0.687,0.526 0.685,0.519C0.682,0.503 0.679,0.489 0.672,0.48C0.543,0.316 0.427,0.168 0.306,0.024C0.288,0.003 0.258,-0.005 0.224,0.001C0.184,0.008 0.136,0.037 0.119,0.085C0.109,0.115 0.102,0.149 0.098,0.193C0.093,0.251 0.095,0.31 0.096,0.368C0.099,0.503 0.103,0.642 0.029,0.772C0.037,0.992 -0.048,1.193 -0.122,1.371C-0.124,1.375 -0.125,1.383 -0.126,1.39L-0.127,1.403C-0.131,1.428 -0.109,1.468 -0.075,1.498C-0.048,1.523 -0.019,1.536 0,1.531" style="fill:rgb(115,129,126);fill-rule:nonzero;"/>
            </g>
            <g transform="matrix(1,0,0,1,9.39197,15.4905)">
                <path d="M0,-1.227C-0.019,-1.225 -0.039,-1.224 -0.058,-1.225C-0.074,-1.225 -0.093,-1.224 -0.111,-1.224C-0.132,-1.222 -0.154,-1.221 -0.177,-1.223C-0.184,-1.224 -0.192,-1.224 -0.2,-1.224C-0.307,-1.224 -0.364,-1.147 -0.423,-1.066L-0.439,-1.045C-0.464,-1.012 -0.451,-0.986 -0.424,-0.944C-0.413,-0.926 -0.401,-0.908 -0.395,-0.888C-0.365,-0.799 -0.339,-0.708 -0.313,-0.62C-0.279,-0.502 -0.244,-0.38 -0.2,-0.263C-0.143,-0.111 -0.031,-0.02 0.123,0.002C0.146,0.006 0.171,-0.004 0.19,-0.02C0.204,-0.032 0.212,-0.046 0.212,-0.06C0.213,-0.173 0.213,-0.285 0.212,-0.398L0.212,-0.553L0.215,-0.553L0.215,-0.661C0.214,-0.762 0.214,-0.866 0.217,-0.968C0.22,-1.039 0.184,-1.092 0.145,-1.148C0.133,-1.166 0.121,-1.184 0.11,-1.202C0.092,-1.232 0.057,-1.233 0,-1.227" style="fill:rgb(94,107,45);fill-rule:nonzero;"/>
            </g>
            <g transform="matrix(1,0,0,1,13.493,17.5865)">
                <path d="M0,-1.448C-0.003,-1.621 -0.008,-1.794 -0.013,-1.967L-0.016,-2.101C-0.163,-2.147 -0.315,-2.141 -0.463,-2.134C-0.539,-2.131 -0.619,-2.128 -0.698,-2.132C-0.709,-2.132 -0.719,-2.133 -0.727,-2.133C-0.766,-2.133 -0.788,-2.127 -0.8,-2.116C-0.814,-2.103 -0.82,-2.076 -0.82,-2.021L-0.822,-1.719C-0.823,-1.364 -0.825,-0.997 -0.823,-0.635C-0.821,-0.402 -0.861,-0.225 -0.951,-0.063C-0.986,-0.001 -1.011,0.066 -1.037,0.136C-1.065,0.212 -1.095,0.291 -1.138,0.363C-1.173,0.422 -1.138,0.508 -1.085,0.549C-0.9,0.695 -0.819,0.699 -0.625,0.567C-0.52,0.497 -0.41,0.42 -0.314,0.334C0.031,0.026 0.429,-0.276 0.902,-0.589C0.96,-0.627 1.013,-0.677 1.063,-0.725L1.079,-0.74C1.118,-0.777 1.123,-0.816 1.095,-0.854C0.959,-1.043 0.951,-1.258 0.959,-1.425C0.964,-1.515 0.963,-1.608 0.962,-1.698C0.962,-1.765 0.961,-1.832 0.962,-1.899C0.963,-1.954 0.967,-2.011 0.988,-2.059C0.994,-2.071 1.011,-2.108 1.005,-2.119C1.003,-2.121 0.996,-2.128 0.961,-2.129C0.698,-2.131 0.486,-2.131 0.288,-2.131C0.259,-2.131 0.237,-2.124 0.225,-2.111C0.213,-2.1 0.208,-2.083 0.208,-2.059C0.209,-1.911 0.209,-1.762 0.208,-1.614L0.207,-1.287C0.206,-1.149 0.206,-1.01 0.207,-0.872C0.209,-0.65 0.111,-0.472 -0.09,-0.329C-0.115,-0.313 -0.163,-0.321 -0.185,-0.335C-0.215,-0.355 -0.227,-0.398 -0.23,-0.411C-0.251,-0.494 -0.204,-0.553 -0.158,-0.602C-0.04,-0.729 0.013,-0.875 0.002,-1.052C-0.003,-1.131 -0.002,-1.212 0,-1.29C0,-1.343 0.001,-1.395 0,-1.448" style="fill:rgb(94,107,45);fill-rule:nonzero;"/>
            </g>
            <g transform="matrix(1,0,0,1,16.434,13.5405)">
                <path d="M0,2.194C-0.077,2.379 -0.148,2.569 -0.217,2.754C-0.282,2.926 -0.349,3.105 -0.421,3.278C-0.445,3.338 -0.415,3.4 -0.338,3.446C-0.299,3.47 -0.263,3.461 -0.223,3.42L-0.184,3.38C-0.15,3.347 -0.117,3.314 -0.084,3.279C0.209,2.975 0.487,2.67 0.72,2.412C1.199,1.88 1.704,1.356 2.192,0.848C2.29,0.747 2.388,0.645 2.485,0.543C2.592,0.433 2.659,0.307 2.728,0.152C2.794,0.003 2.797,-0.017 2.702,-0.105C2.469,-0.321 2.254,-0.51 1.984,-0.632C1.968,-0.639 1.951,-0.646 1.934,-0.652C1.889,-0.671 1.843,-0.689 1.805,-0.719C1.788,-0.732 1.77,-0.746 1.752,-0.759C1.635,-0.848 1.513,-0.939 1.495,-1.122C1.486,-1.211 1.437,-1.25 1.32,-1.262C1.186,-1.276 1.065,-1.243 0.929,-1.158C0.975,-1.11 1.021,-1.063 1.067,-1.016C1.197,-0.884 1.331,-0.748 1.466,-0.618C1.557,-0.53 1.63,-0.422 1.689,-0.288C1.725,-0.207 1.706,-0.118 1.635,-0.05C1.607,-0.024 1.577,-0.012 1.551,-0.016C1.531,-0.019 1.504,-0.03 1.482,-0.07C1.477,-0.078 1.471,-0.085 1.465,-0.092C1.451,-0.109 1.437,-0.125 1.438,-0.146C1.442,-0.337 1.323,-0.456 1.198,-0.582L1.183,-0.598C1.127,-0.654 1.071,-0.71 1.015,-0.766C0.987,-0.795 0.961,-0.822 0.937,-0.845C0.822,-0.963 0.762,-1.023 0.724,-1.023L0.722,-1.023C0.693,-1.021 0.662,-0.977 0.611,-0.904C0.575,-0.854 0.531,-0.791 0.47,-0.715C0.416,-0.649 0.422,-0.622 0.471,-0.569C0.552,-0.48 0.632,-0.392 0.714,-0.304C0.887,-0.114 1.067,0.081 1.241,0.277C1.307,0.351 1.366,0.433 1.422,0.513C1.448,0.549 1.474,0.586 1.501,0.622C1.544,0.68 1.552,0.751 1.525,0.827C1.499,0.897 1.471,0.968 1.443,1.037C1.423,1.088 1.402,1.138 1.383,1.188C1.369,1.225 1.349,1.265 1.286,1.27C1.262,1.272 1.235,1.264 1.217,1.246C1.193,1.223 1.183,1.187 1.187,1.141C1.188,1.127 1.187,1.112 1.187,1.097C1.187,1.054 1.187,1.01 1.209,0.978C1.326,0.803 1.272,0.677 1.131,0.507C1.109,0.48 1.088,0.452 1.066,0.424C1.034,0.38 1,0.334 0.962,0.295C0.811,0.137 0.675,-0.002 0.548,-0.13C0.469,-0.209 0.389,-0.286 0.31,-0.361C0.277,-0.393 0.245,-0.424 0.212,-0.455C0.044,-0.457 -0.124,-0.457 -0.293,-0.46L-0.302,-0.46C-0.418,-0.46 -0.522,-0.414 -0.63,-0.317C-0.638,-0.309 -0.647,-0.286 -0.645,-0.28C-0.621,-0.247 -0.588,-0.214 -0.557,-0.183L-0.542,-0.168C-0.463,-0.088 -0.383,-0.008 -0.303,0.072C-0.143,0.232 0.024,0.399 0.183,0.566C0.365,0.758 0.407,0.97 0.308,1.198C0.259,1.307 0.215,1.414 0.205,1.523C0.18,1.76 0.09,1.976 0.003,2.186L0,2.194Z" style="fill:rgb(115,129,126);fill-rule:nonzero;"/>
            </g>
            <g transform="matrix(1,0,0,1,16.629,13.5535)">
                <path d="M0,-3.384C-0.051,-3.355 -0.111,-3.342 -0.152,-3.334C-0.521,-3.266 -0.521,-3.266 -0.751,-3.032C-0.767,-3.015 -0.785,-2.998 -0.8,-2.979C-0.871,-2.896 -0.958,-2.857 -1.074,-2.857C-1.088,-2.857 -1.101,-2.858 -1.113,-2.858C-1.146,-2.858 -1.166,-2.854 -1.175,-2.843C-1.187,-2.832 -1.19,-2.807 -1.187,-2.762C-1.176,-2.608 -1.202,-2.452 -1.273,-2.257C-1.34,-2.071 -1.455,-1.984 -1.636,-1.982C-1.767,-1.98 -1.9,-1.98 -2.032,-1.98C-2.227,-1.981 -2.418,-1.98 -2.611,-1.98L-2.865,-1.979C-2.9,-1.979 -2.918,-1.963 -2.925,-1.927C-2.931,-1.893 -2.914,-1.87 -2.884,-1.843C-2.865,-1.826 -2.846,-1.808 -2.828,-1.803C-2.793,-1.795 -2.755,-1.794 -2.716,-1.794C-2.647,-1.794 -2.485,-1.834 -2.424,-1.805C-2.382,-1.784 -2.3,-1.685 -2.32,-1.633C-2.352,-1.547 -2.518,-1.588 -2.594,-1.588L-2.619,-1.588C-2.702,-1.588 -2.787,-1.588 -2.869,-1.583C-2.914,-1.581 -2.929,-1.557 -2.93,-1.49C-2.931,-1.447 -2.924,-1.42 -2.909,-1.405C-2.896,-1.391 -2.873,-1.385 -2.839,-1.384L-2.696,-1.383C-2.51,-1.381 -2.316,-1.379 -2.126,-1.385C-1.958,-1.39 -1.833,-1.352 -1.716,-1.254C-1.688,-1.23 -1.658,-1.209 -1.627,-1.186C-1.573,-1.148 -1.519,-1.108 -1.472,-1.057C-1.432,-1.013 -1.418,-0.957 -1.43,-0.894C-1.436,-0.867 -1.45,-0.833 -1.474,-0.817C-1.497,-0.802 -1.536,-0.797 -1.564,-0.806C-1.588,-0.813 -1.606,-0.832 -1.622,-0.849L-1.633,-0.859C-1.673,-0.899 -1.707,-0.933 -1.735,-0.962C-1.88,-1.109 -1.887,-1.116 -2.072,-1.116L-2.137,-1.116C-2.176,-1.116 -2.221,-1.116 -2.283,-1.117C-2.292,-1.117 -2.302,-1.119 -2.311,-1.117C-2.39,-1.108 -2.47,-1.113 -2.548,-1.118C-2.676,-1.126 -2.796,-1.134 -2.914,-1.084C-2.919,-0.891 -2.925,-0.698 -2.93,-0.506C-2.93,-0.489 -2.93,-0.472 -2.929,-0.454L-2.928,-0.428C-2.927,-0.395 -2.917,-0.358 -2.844,-0.357C-2.791,-0.357 -2.737,-0.355 -2.684,-0.355C-2.516,-0.352 -2.341,-0.35 -2.171,-0.357L-2.138,-0.357C-1.956,-0.357 -1.801,-0.29 -1.666,-0.15C-1.624,-0.107 -1.581,-0.064 -1.539,-0.02C-1.539,-0.02 -1.489,0.03 -1.487,0.029C-1.371,-0.088 -1.264,-0.195 -1.156,-0.302C-1.063,-0.396 -0.97,-0.49 -0.878,-0.583C-0.814,-0.648 -0.746,-0.678 -0.663,-0.678C-0.66,-0.678 -0.656,-0.678 -0.652,-0.677C-0.521,-0.674 -0.378,-0.674 -0.218,-0.678C-0.113,-0.682 -0.013,-0.734 0.031,-0.81C0.078,-0.89 0.141,-0.955 0.202,-1.018C0.26,-1.078 0.315,-1.135 0.357,-1.204C0.361,-1.21 0.364,-1.216 0.368,-1.223C0.385,-1.252 0.405,-1.285 0.435,-1.299L0.5,-1.332C0.706,-1.435 0.919,-1.541 1.174,-1.541C1.605,-1.539 2.043,-1.539 2.467,-1.541L2.601,-1.541C2.667,-1.541 2.731,-1.547 2.792,-1.558C2.798,-1.562 2.812,-1.587 2.811,-1.595C2.774,-1.704 2.738,-1.792 2.627,-1.851C2.585,-1.873 2.54,-1.885 2.492,-1.898C2.426,-1.915 2.358,-1.934 2.298,-1.982C2.208,-2.054 2.1,-2.108 1.996,-2.161L1.966,-2.176C1.873,-2.223 1.782,-2.286 1.674,-2.379C1.643,-2.406 1.607,-2.427 1.569,-2.449C1.411,-2.541 1.267,-2.713 1.096,-2.772C1.043,-2.79 0.999,-2.784 0.965,-2.755C0.738,-2.563 0.601,-2.384 0.522,-2.176C0.505,-2.132 0.515,-2.109 0.53,-2.075C0.533,-2.068 0.536,-2.061 0.539,-2.053C0.552,-2.022 0.556,-1.981 0.552,-1.93C0.55,-1.907 0.535,-1.886 0.521,-1.868C0.521,-1.868 0.508,-1.85 0.497,-1.848C0.481,-1.848 0.451,-1.87 0.451,-1.87C0.251,-2.037 0.231,-2.13 0.344,-2.366C0.402,-2.489 0.489,-2.59 0.573,-2.688C0.623,-2.746 0.674,-2.806 0.718,-2.869C0.725,-2.879 0.736,-2.883 0.745,-2.886C0.749,-2.888 0.754,-2.889 0.756,-2.891C0.792,-2.918 0.797,-2.931 0.797,-2.937C0.796,-2.942 0.79,-2.95 0.776,-2.959C0.679,-3.023 0.582,-3.087 0.484,-3.15C0.364,-3.229 0.244,-3.308 0.124,-3.387C0.084,-3.414 0.051,-3.413 0,-3.384" style="fill:rgb(131,102,56);fill-rule:nonzero;"/>
            </g>
            <g transform="matrix(1,0,0,1,14.777,13.4645)">
                <path d="M0,1.946C0.019,1.948 0.041,1.941 0.058,1.926C0.282,1.741 0.449,1.501 0.611,1.268L0.631,1.239C0.65,1.21 0.669,1.176 0.685,1.139C0.722,1.055 0.714,0.995 0.661,0.944C0.514,0.803 0.388,0.648 0.286,0.484C0.259,0.44 0.229,0.396 0.2,0.354C0.157,0.29 0.112,0.224 0.074,0.155C0.015,0.045 -0.059,-0.002 -0.191,-0.002C-0.461,0.003 -0.738,0.002 -1.005,0.001C-1.104,0.001 -1.202,0.001 -1.3,0L-1.378,0C-1.555,0 -1.555,0.01 -1.557,0.168C-1.558,0.195 -1.558,0.225 -1.559,0.26C-1.561,0.314 -1.545,0.354 -1.51,0.385C-1.474,0.418 -1.44,0.452 -1.406,0.486C-1.332,0.561 -1.254,0.639 -1.156,0.69C-1.088,0.727 -1.031,0.786 -0.974,0.849C-0.891,0.941 -0.908,1.139 -1.007,1.234C-1.039,1.265 -1.1,1.263 -1.127,1.262C-1.144,1.261 -1.161,1.244 -1.169,1.235C-1.175,1.226 -1.191,1.204 -1.188,1.184C-1.156,1.007 -1.261,0.903 -1.381,0.803C-1.408,0.781 -1.433,0.758 -1.458,0.735C-1.491,0.705 -1.524,0.674 -1.563,0.643C-1.6,0.615 -1.645,0.58 -1.683,0.58C-1.703,0.58 -1.727,0.601 -1.751,0.621C-1.765,0.634 -1.78,0.646 -1.795,0.656C-2.104,0.856 -2.375,1.009 -2.708,1.175C-2.72,1.181 -2.732,1.185 -2.744,1.189C-2.757,1.194 -2.769,1.198 -2.78,1.204C-2.818,1.225 -2.826,1.255 -2.807,1.311C-2.776,1.409 -2.711,1.48 -2.641,1.555C-2.595,1.606 -2.546,1.658 -2.51,1.719C-2.457,1.807 -2.42,1.821 -2.345,1.779C-2.254,1.729 -2.164,1.721 -2.072,1.721C-1.847,1.723 -1.622,1.722 -1.397,1.722L-1.081,1.722C-1.065,1.722 -1.049,1.72 -1.032,1.719C-0.991,1.715 -0.948,1.71 -0.915,1.729C-0.805,1.794 -0.688,1.789 -0.569,1.784C-0.537,1.783 -0.506,1.782 -0.475,1.782L-0.426,1.782C-0.279,1.783 -0.126,1.784 -0.02,1.935C-0.016,1.941 -0.009,1.945 0,1.946" style="fill:rgb(190,154,188);fill-rule:nonzero;"/>
            </g>
            <g transform="matrix(1,0,0,1,3.91097,15.7415)">
                <path d="M0,-2.181L0.229,-2.409C0.269,-2.449 0.287,-2.485 0.281,-2.513C0.276,-2.539 0.251,-2.561 0.207,-2.579C0.189,-2.586 0.171,-2.594 0.153,-2.601C0.064,-2.639 -0.019,-2.677 -0.121,-2.663C-0.213,-2.652 -0.315,-2.653 -0.442,-2.667C-0.53,-2.678 -0.595,-2.649 -0.665,-2.571C-0.872,-2.342 -1.084,-2.111 -1.289,-1.887L-1.497,-1.66C-1.503,-1.654 -1.509,-1.647 -1.514,-1.641C-1.602,-1.533 -1.618,-1.428 -1.564,-1.311C-1.53,-1.237 -1.51,-1.156 -1.492,-1.078L-1.484,-1.05C-1.477,-1.023 -1.483,-0.994 -1.497,-0.972C-1.51,-0.952 -1.53,-0.94 -1.553,-0.936C-1.593,-0.93 -1.641,-0.947 -1.671,-0.973C-1.749,-1.041 -1.77,-1.134 -1.79,-1.225C-1.799,-1.264 -1.807,-1.301 -1.82,-1.336C-1.87,-1.474 -1.832,-1.618 -1.713,-1.751C-1.641,-1.831 -1.57,-1.913 -1.501,-1.994C-1.359,-2.158 -1.212,-2.329 -1.053,-2.483C-0.975,-2.559 -0.899,-2.636 -0.829,-2.707C-0.699,-2.841 -0.699,-2.841 -0.814,-2.966C-0.87,-3.026 -0.927,-3.086 -0.98,-3.141L-1.031,-3.195L-1.188,-3.048C-1.373,-2.874 -1.556,-2.701 -1.739,-2.53C-1.784,-2.488 -1.793,-2.437 -1.793,-2.363C-1.794,-2.32 -1.803,-2.277 -1.819,-2.243C-1.832,-2.217 -1.878,-2.205 -1.904,-2.207C-1.927,-2.21 -1.976,-2.231 -1.981,-2.261C-2.003,-2.409 -2.011,-2.542 -1.902,-2.683C-1.816,-2.793 -1.712,-2.922 -1.596,-3.042C-1.544,-3.095 -1.492,-3.146 -1.441,-3.199C-1.399,-3.24 -1.358,-3.281 -1.317,-3.323C-1.305,-3.335 -1.3,-3.35 -1.303,-3.367C-1.308,-3.394 -1.333,-3.421 -1.367,-3.436C-1.436,-3.466 -1.505,-3.464 -1.579,-3.461C-1.609,-3.46 -1.641,-3.459 -1.671,-3.46C-1.685,-3.461 -1.697,-3.461 -1.707,-3.461C-1.765,-3.461 -1.768,-3.445 -1.794,-3.34C-1.848,-3.123 -1.959,-2.992 -2.144,-2.928C-2.148,-2.926 -2.152,-2.923 -2.157,-2.92C-2.163,-2.916 -2.17,-2.912 -2.178,-2.909C-2.479,-2.789 -2.722,-2.587 -2.992,-2.322C-3.069,-2.246 -3.089,-2.158 -3.055,-2.053C-3.015,-1.93 -2.959,-1.835 -2.884,-1.759L-2.787,-1.663C-2.598,-1.476 -2.403,-1.282 -2.249,-1.056C-1.918,-0.737 -1.602,-0.389 -1.295,-0.053C-1.166,0.09 -1.032,0.237 -0.899,0.381C-0.828,0.457 -0.752,0.531 -0.679,0.604C-0.513,0.768 -0.341,0.939 -0.208,1.141C-0.178,1.186 -0.132,1.221 -0.099,1.243C-0.033,1.285 0.024,1.258 0.061,1.229C0.105,1.192 0.126,1.171 0.098,1.094C0.059,0.989 0.02,0.884 -0.02,0.78C-0.098,0.57 -0.176,0.36 -0.253,0.15C-0.281,0.074 -0.313,-0.003 -0.344,-0.077C-0.392,-0.191 -0.442,-0.308 -0.477,-0.428C-0.501,-0.511 -0.522,-0.597 -0.543,-0.679C-0.571,-0.793 -0.6,-0.911 -0.638,-1.024C-0.728,-1.293 -0.716,-1.311 -0.575,-1.531L-0.551,-1.569C-0.474,-1.688 -0.381,-1.801 -0.248,-1.934C-0.166,-2.017 -0.083,-2.099 0,-2.181" style="fill:rgb(115,129,126);fill-rule:nonzero;"/>
            </g>
            <g transform="matrix(1,0,0,1,8.93797,9.96954)">
                <path d="M0,0.412C-0.002,0.474 -0.003,0.536 -0.004,0.598C-0.004,0.664 0.018,0.721 0.042,0.781L0.055,0.813C0.148,1.055 0.321,1.223 0.503,1.401C0.53,1.427 0.556,1.453 0.583,1.478C0.76,1.655 0.969,1.645 1.189,1.636C1.242,1.634 1.298,1.631 1.351,1.632C1.361,1.632 1.379,1.615 1.392,1.604L1.402,1.594C1.442,1.559 1.486,1.53 1.529,1.503C1.551,1.489 1.573,1.474 1.595,1.459C1.791,1.322 1.915,1.116 2.035,0.917C2.054,0.885 2.073,0.853 2.092,0.821C2.178,0.683 2.177,0.538 2.176,0.385C2.175,0.356 2.175,0.326 2.176,0.297C2.176,0.269 2.175,0.241 2.174,0.212C2.172,0.161 2.17,0.108 2.177,0.057C2.21,-0.206 2.127,-0.4 1.924,-0.537C1.825,-0.603 1.781,-0.701 1.792,-0.826C1.8,-0.919 1.796,-1.014 1.793,-1.107C1.792,-1.131 1.791,-1.156 1.791,-1.18C1.79,-1.192 1.783,-1.205 1.776,-1.22C1.775,-1.221 1.774,-1.223 1.773,-1.225C1.77,-1.223 1.766,-1.221 1.763,-1.219C1.741,-1.208 1.721,-1.198 1.706,-1.185C1.67,-1.154 1.668,-1.111 1.668,-1.054L1.668,-0.46L1.666,-0.242C1.666,-0.174 1.665,-0.106 1.664,-0.038C1.662,0.135 1.659,0.315 1.67,0.49C1.679,0.642 1.61,0.755 1.542,0.863C1.45,1.013 1.297,1.082 1.184,1.115C1.042,1.155 0.936,1.145 0.862,1.084C0.719,0.968 0.573,0.85 0.495,0.668L0.491,0.66C0.458,0.582 0.429,0.515 0.495,0.434C0.506,0.42 0.512,0.391 0.508,0.384C0.428,0.261 0.435,0.13 0.442,0.002C0.444,-0.04 0.447,-0.084 0.446,-0.126C0.441,-0.313 0.442,-0.503 0.443,-0.686C0.444,-0.777 0.444,-0.868 0.444,-0.959C0.444,-1.017 0.443,-1.087 0.44,-1.156C0.438,-1.184 0.432,-1.206 0.422,-1.218C0.412,-1.232 0.389,-1.243 0.374,-1.243L0.373,-1.243C0.361,-1.243 0.339,-1.233 0.332,-1.227C0.327,-1.103 0.324,-0.977 0.321,-0.854C0.32,-0.796 0.318,-0.737 0.317,-0.678C0.315,-0.609 0.288,-0.569 0.226,-0.542C0.052,-0.466 -0.02,-0.335 -0.005,-0.116C0.008,0.059 0.004,0.239 0,0.412" style="fill:rgb(115,129,126);fill-rule:nonzero;"/>
            </g>
            <g transform="matrix(1,0,0,1,9.28497,9.44954)">
                <path d="M0,-0.956C0.021,-0.935 0.057,-0.925 0.106,-0.927L0.11,-0.927C0.186,-0.927 0.244,-0.862 0.273,-0.801C0.321,-0.7 0.367,-0.59 0.366,-0.459C0.362,-0.21 0.363,0.043 0.365,0.288C0.366,0.509 0.368,0.737 0.365,0.962C0.365,1.058 0.397,1.131 0.436,1.209C0.476,1.29 0.516,1.346 0.581,1.359C0.663,1.376 0.768,1.39 0.842,1.36C0.961,1.309 1.043,1.196 1.107,1.091C1.124,1.063 1.109,1.037 1.084,0.997C1.07,0.976 1.056,0.953 1.049,0.927C1.035,0.865 1.037,0.821 1.056,0.796C1.123,0.707 1.12,0.608 1.116,0.504C1.115,0.479 1.114,0.453 1.115,0.428L1.116,0.27C1.118,-0.002 1.121,-0.283 1.113,-0.559C1.109,-0.686 1.157,-0.784 1.268,-0.876C1.273,-0.88 1.278,-0.885 1.283,-0.889C1.3,-0.905 1.318,-0.923 1.342,-0.925C1.421,-0.932 1.449,-0.971 1.447,-1.069C1.445,-1.153 1.446,-1.238 1.446,-1.32L1.446,-1.425C1.446,-1.457 1.446,-1.489 1.445,-1.522C1.444,-1.594 1.443,-1.668 1.448,-1.742C1.454,-1.826 1.443,-1.878 1.413,-1.907C1.385,-1.933 1.341,-1.942 1.279,-1.934L1.271,-1.933L1.266,-1.938C1.234,-1.959 1.199,-1.975 1.163,-1.993C1.093,-2.027 1.021,-2.062 0.969,-2.133C0.933,-2.182 0.885,-2.224 0.839,-2.265C0.827,-2.276 0.815,-2.286 0.803,-2.297C0.748,-2.346 0.669,-2.344 0.615,-2.293C0.565,-2.246 0.516,-2.198 0.466,-2.15C0.422,-2.106 0.377,-2.062 0.331,-2.019C0.279,-1.97 0.222,-1.941 0.151,-1.929C-0.028,-1.898 -0.028,-1.898 -0.029,-1.747L-0.029,-1.515C-0.028,-1.384 -0.028,-1.248 -0.03,-1.115C-0.031,-1.05 -0.032,-0.988 0,-0.956" style="fill:rgb(190,154,188);fill-rule:nonzero;"/>
            </g>
            <g transform="matrix(1,0,0,1,5.36897,10.2475)">
                <path d="M0,-4.041C0.001,-3.961 0.057,-3.917 0.091,-3.898L0.103,-3.892C0.178,-3.849 0.255,-3.805 0.333,-3.799C0.485,-3.785 0.622,-3.73 0.755,-3.677C0.801,-3.658 0.846,-3.64 0.891,-3.624C0.976,-3.593 1.06,-3.557 1.141,-3.522C1.27,-3.468 1.403,-3.411 1.541,-3.374C1.631,-3.348 1.719,-3.311 1.804,-3.274C1.928,-3.22 2.056,-3.165 2.197,-3.15C2.35,-3.134 2.452,-2.963 2.452,-2.814C2.453,-2.585 2.453,-2.356 2.453,-2.127L2.452,-1.783L2.453,-0.821C2.453,0.035 2.453,0.89 2.452,1.745C2.452,1.764 2.452,1.782 2.453,1.8C2.456,1.872 2.459,1.947 2.416,2.023C2.39,2.07 2.364,2.117 2.339,2.164C2.236,2.356 2.13,2.555 1.967,2.714C1.85,2.826 1.781,2.972 1.719,3.101C1.621,3.307 1.642,3.459 1.792,3.61L1.812,3.631C1.931,3.751 2.054,3.875 2.211,3.956C2.236,3.969 2.258,3.985 2.28,4C2.331,4.035 2.379,4.068 2.444,4.06L2.451,4.058L2.457,4.062C2.528,4.103 2.605,4.14 2.678,4.176C2.812,4.241 2.95,4.308 3.071,4.406C3.126,4.451 3.172,4.467 3.21,4.457C3.247,4.446 3.277,4.406 3.298,4.338C3.308,4.309 3.316,4.28 3.325,4.25C3.349,4.168 3.375,4.084 3.411,4.006C3.441,3.946 3.448,3.906 3.413,3.845C3.368,3.766 3.32,3.685 3.274,3.608C3.196,3.477 3.115,3.342 3.044,3.203C2.92,2.959 3.01,2.773 3.103,2.637C3.142,2.58 3.193,2.532 3.244,2.485C3.261,2.468 3.279,2.451 3.296,2.435C3.325,2.406 3.366,2.39 3.403,2.396C3.429,2.399 3.451,2.412 3.464,2.432C3.493,2.479 3.492,2.524 3.463,2.561C3.447,2.58 3.43,2.599 3.413,2.617C3.385,2.648 3.358,2.677 3.336,2.711C3.216,2.901 3.214,3.092 3.33,3.279L3.358,3.325C3.429,3.44 3.504,3.56 3.569,3.682C3.624,3.787 3.693,3.826 3.802,3.815C3.929,3.803 4.05,3.805 4.161,3.819C4.27,3.832 4.332,3.909 4.391,3.983C4.416,4.013 4.441,4.044 4.469,4.07C4.538,4.133 4.613,4.135 4.713,4.133C4.771,4.131 4.821,4.101 4.86,4.043C4.992,3.85 5.177,3.773 5.427,3.812C5.478,3.819 5.53,3.819 5.579,3.811C5.61,3.806 5.649,3.791 5.661,3.771C5.722,3.669 5.781,3.564 5.838,3.463C5.889,3.374 5.939,3.284 5.991,3.196C6.105,3.002 6.091,2.858 5.944,2.727C5.906,2.693 5.87,2.652 5.838,2.603C5.821,2.577 5.819,2.537 5.826,2.511C5.834,2.481 5.85,2.438 5.881,2.406C5.901,2.386 5.956,2.395 5.979,2.412C6.149,2.537 6.245,2.681 6.261,2.839L6.264,2.86C6.282,3.036 6.301,3.218 6.153,3.377C6.103,3.431 6.07,3.497 6.036,3.567C6.001,3.639 5.965,3.713 5.908,3.775C5.845,3.842 5.831,3.943 5.875,4.01C5.926,4.087 5.935,4.166 5.944,4.242C5.947,4.267 5.95,4.292 5.954,4.316C5.965,4.377 6.004,4.424 6.059,4.445C6.116,4.466 6.179,4.454 6.227,4.413C6.325,4.331 6.435,4.276 6.542,4.223L6.565,4.212C6.601,4.194 6.632,4.17 6.665,4.145C6.736,4.091 6.809,4.033 6.915,4.047C7.142,3.936 7.372,3.804 7.53,3.592C7.626,3.461 7.71,3.319 7.587,3.149C7.559,3.111 7.538,3.066 7.518,3.023C7.494,2.97 7.471,2.92 7.436,2.881C7.338,2.773 7.257,2.65 7.178,2.532C7.13,2.457 7.079,2.381 7.025,2.309C6.906,2.15 6.853,1.978 6.854,1.749C6.858,0.6 6.858,-0.568 6.858,-1.697L6.858,-2.758C6.858,-2.788 6.859,-2.819 6.856,-2.848C6.849,-2.92 6.876,-2.982 6.939,-3.038L6.944,-3.042C7.002,-3.094 7.056,-3.142 7.144,-3.163L7.202,-3.177C7.369,-3.216 7.543,-3.256 7.691,-3.335C7.817,-3.401 7.952,-3.447 8.082,-3.491C8.193,-3.529 8.307,-3.568 8.414,-3.619C8.598,-3.707 8.797,-3.766 8.988,-3.823C9.042,-3.839 9.095,-3.855 9.148,-3.871C9.197,-3.887 9.222,-3.908 9.247,-3.957C9.283,-4.03 9.318,-4.111 9.317,-4.208L9.316,-4.264C9.312,-4.818 9.309,-5.39 9.316,-5.952C9.317,-6.022 9.294,-6.089 9.272,-6.154C9.245,-6.233 9.217,-6.315 9.231,-6.405C9.208,-6.431 9.186,-6.456 9.163,-6.482C9.111,-6.543 9.058,-6.605 9.001,-6.662C8.884,-6.781 8.762,-6.901 8.644,-7.016C8.599,-7.06 8.553,-7.105 8.508,-7.149L8.507,-7.148C8.503,-7.145 8.499,-7.14 8.498,-7.139C8.496,-6.918 8.493,-6.694 8.491,-6.469C8.489,-6.246 8.487,-6.021 8.484,-5.798C8.484,-5.749 8.507,-5.714 8.534,-5.674L8.539,-5.667C8.565,-5.628 8.59,-5.587 8.613,-5.546C8.629,-5.52 8.644,-5.494 8.661,-5.467C8.804,-5.239 8.929,-5.011 8.886,-4.723C8.882,-4.694 8.884,-4.665 8.886,-4.634C8.888,-4.612 8.889,-4.589 8.889,-4.567C8.884,-4.381 8.749,-4.22 8.552,-4.166C8.524,-4.158 8.48,-4.186 8.467,-4.208C8.452,-4.233 8.448,-4.281 8.466,-4.303C8.494,-4.337 8.524,-4.369 8.554,-4.4C8.579,-4.425 8.603,-4.451 8.626,-4.478C8.647,-4.504 8.678,-4.54 8.676,-4.563C8.672,-4.611 8.673,-4.657 8.674,-4.703C8.675,-4.799 8.676,-4.89 8.642,-4.986C8.571,-5.188 8.457,-5.351 8.356,-5.483C8.315,-5.536 8.278,-5.591 8.28,-5.669L8.28,-6.62C8.28,-6.679 8.279,-6.738 8.278,-6.797C8.276,-6.934 8.273,-7.077 8.284,-7.216C8.292,-7.316 8.272,-7.413 8.251,-7.507C8.234,-7.587 8.216,-7.67 8.217,-7.754C8.217,-7.867 8.196,-7.978 8.175,-8.085C8.157,-8.178 8.138,-8.274 8.134,-8.371C8.131,-8.431 8.058,-8.501 7.994,-8.504C7.917,-8.508 7.838,-8.508 7.758,-8.504C7.676,-8.5 7.614,-8.429 7.613,-8.339C7.612,-8.236 7.612,-8.134 7.613,-8.031L7.613,-7.863C7.613,-7.163 7.613,-6.462 7.612,-5.762C7.612,-5.647 7.625,-5.564 7.691,-5.48C7.86,-5.267 7.936,-5.006 7.93,-4.66C7.929,-4.533 7.879,-4.441 7.781,-4.38L7.759,-4.367C7.633,-4.289 7.502,-4.207 7.361,-4.165C7.217,-4.122 7.084,-4.053 6.955,-3.986C6.903,-3.959 6.851,-3.933 6.798,-3.907C6.642,-3.833 6.53,-3.754 6.456,-3.668C6.391,-3.593 6.401,-3.494 6.412,-3.389C6.417,-3.346 6.422,-3.301 6.421,-3.258C6.415,-3.065 6.417,-2.867 6.418,-2.676C6.418,-2.593 6.419,-2.509 6.419,-2.426C6.419,-2.375 6.418,-2.323 6.415,-2.267C6.412,-2.207 6.354,-2.166 6.279,-2.17C6.205,-2.173 6.159,-2.213 6.155,-2.277L6.153,-2.29C6.153,-2.299 6.151,-2.309 6.151,-2.318L6.151,-2.615C6.15,-2.913 6.15,-3.21 6.151,-3.508C6.152,-3.66 6.178,-3.871 6.394,-3.943C6.661,-4.033 6.911,-4.167 7.153,-4.297L7.236,-4.341C7.345,-4.399 7.452,-4.467 7.556,-4.532L7.6,-4.56C7.642,-4.586 7.662,-4.625 7.659,-4.676C7.657,-4.734 7.656,-4.797 7.658,-4.876C7.66,-5.023 7.652,-5.165 7.531,-5.3C7.417,-5.426 7.403,-5.61 7.405,-5.756C7.41,-6.324 7.409,-6.902 7.409,-7.461L7.409,-8.125C7.41,-8.206 7.41,-8.289 7.408,-8.371C7.406,-8.435 7.336,-8.504 7.272,-8.505C7.084,-8.508 6.897,-8.508 6.717,-8.506C6.663,-8.505 6.592,-8.426 6.588,-8.362C6.587,-8.344 6.587,-8.324 6.587,-8.305L6.587,-8.284C6.587,-7.544 6.587,-6.804 6.588,-6.065C6.588,-6.048 6.587,-6.031 6.587,-6.014C6.583,-5.953 6.581,-5.896 6.62,-5.849C6.656,-5.806 6.635,-5.772 6.62,-5.749C6.615,-5.742 6.611,-5.734 6.608,-5.727C6.551,-5.577 6.441,-5.456 6.264,-5.347C6.252,-5.339 6.24,-5.332 6.227,-5.325C6.196,-5.306 6.163,-5.286 6.134,-5.265C6.045,-5.2 6.011,-5.134 6.024,-5.051C6.037,-4.963 6.008,-4.886 5.939,-4.822C5.907,-4.792 5.876,-4.762 5.846,-4.732C5.801,-4.689 5.755,-4.645 5.708,-4.603C5.652,-4.553 5.626,-4.493 5.626,-4.409C5.629,-3.206 5.629,-1.997 5.628,-1.079C5.628,-0.999 5.654,-0.96 5.733,-0.919C5.887,-0.84 5.96,-0.702 5.949,-0.51C5.937,-0.285 5.941,-0.056 5.945,0.166C5.946,0.244 5.947,0.322 5.948,0.4C5.949,0.489 5.943,0.568 5.87,0.63C5.845,0.653 5.814,0.683 5.804,0.715C5.725,0.957 5.549,1.123 5.377,1.284L5.321,1.337C5.086,1.56 4.828,1.657 4.523,1.631C4.429,1.623 4.36,1.605 4.293,1.571C4.194,1.522 4.11,1.452 4.029,1.385C3.962,1.33 3.893,1.273 3.818,1.228L3.811,1.222C3.767,1.151 3.715,1.083 3.665,1.017C3.569,0.889 3.468,0.756 3.409,0.598C3.406,0.588 3.402,0.578 3.398,0.568C3.382,0.528 3.366,0.487 3.365,0.445C3.363,0.238 3.364,0.027 3.365,-0.177L3.365,-0.626C3.365,-0.702 3.391,-0.764 3.445,-0.814C3.455,-0.823 3.464,-0.832 3.473,-0.841C3.492,-0.861 3.512,-0.881 3.536,-0.897C3.675,-0.983 3.685,-1.111 3.685,-1.257C3.68,-2.017 3.681,-2.789 3.682,-3.536L3.682,-4.23C3.682,-4.246 3.683,-4.263 3.684,-4.279C3.685,-4.316 3.687,-4.351 3.68,-4.384C3.662,-4.471 3.631,-4.569 3.539,-4.632C3.48,-4.674 3.428,-4.713 3.382,-4.752C3.333,-4.794 3.279,-4.853 3.289,-4.937C3.312,-5.132 3.242,-5.252 3.067,-5.314C3.029,-5.328 2.995,-5.354 2.963,-5.379C2.943,-5.395 2.922,-5.411 2.901,-5.423C2.739,-5.518 2.657,-5.666 2.658,-5.862L2.661,-8.151C2.662,-8.22 2.662,-8.289 2.66,-8.358C2.659,-8.418 2.585,-8.504 2.535,-8.505C2.348,-8.508 2.162,-8.506 2.021,-8.504C1.986,-8.504 1.905,-8.426 1.904,-8.392C1.901,-8.342 1.901,-8.29 1.902,-8.241L1.902,-6.054C1.902,-6.01 1.904,-5.966 1.906,-5.922C1.909,-5.807 1.914,-5.687 1.888,-5.575C1.864,-5.47 1.804,-5.372 1.746,-5.277C1.728,-5.248 1.71,-5.218 1.693,-5.189C1.618,-5.059 1.584,-4.919 1.586,-4.749C1.587,-4.625 1.624,-4.559 1.718,-4.513C1.81,-4.468 1.902,-4.42 1.991,-4.374C2.062,-4.338 2.133,-4.301 2.205,-4.265C2.452,-4.142 2.695,-4.021 2.94,-3.904C3.036,-3.857 3.096,-3.805 3.095,-3.685C3.092,-3.372 3.093,-3.054 3.094,-2.746C3.094,-2.596 3.095,-2.447 3.095,-2.298C3.095,-2.285 3.093,-2.241 3.069,-2.213C3.053,-2.194 3.02,-2.18 2.992,-2.18L2.987,-2.18C2.962,-2.182 2.913,-2.2 2.908,-2.229C2.897,-2.291 2.892,-2.357 2.891,-2.427L2.891,-2.633C2.89,-2.93 2.889,-3.236 2.894,-3.538C2.895,-3.631 2.858,-3.695 2.774,-3.747C2.74,-3.769 2.704,-3.785 2.666,-3.802C2.643,-3.812 2.621,-3.822 2.6,-3.833C2.495,-3.885 2.391,-3.939 2.286,-3.992C2.036,-4.119 1.777,-4.251 1.52,-4.374C1.437,-4.414 1.382,-4.461 1.385,-4.565C1.386,-4.627 1.387,-4.695 1.384,-4.761C1.367,-5.067 1.431,-5.285 1.591,-5.471C1.666,-5.558 1.702,-5.686 1.701,-5.861C1.696,-6.441 1.697,-7.031 1.698,-7.602C1.698,-7.815 1.699,-8.027 1.699,-8.24L1.699,-8.273C1.699,-8.301 1.699,-8.329 1.698,-8.358C1.695,-8.424 1.629,-8.501 1.573,-8.504C1.476,-8.508 1.379,-8.507 1.297,-8.505C1.175,-8.503 1.116,-8.449 1.112,-8.337C1.108,-8.214 1.106,-8.091 1.103,-7.969L1.098,-7.813C1.013,-7.658 1.021,-7.488 1.028,-7.324C1.03,-7.272 1.032,-7.217 1.032,-7.164C1.028,-6.867 1.029,-6.565 1.03,-6.273L1.03,-5.697C1.029,-5.57 1.004,-5.544 0.986,-5.536C0.883,-5.487 0.842,-5.397 0.8,-5.302C0.78,-5.257 0.759,-5.211 0.732,-5.169C0.645,-5.041 0.611,-4.908 0.629,-4.775C0.636,-4.722 0.633,-4.67 0.631,-4.619C0.631,-4.603 0.63,-4.588 0.63,-4.573C0.627,-4.483 0.656,-4.438 0.732,-4.412C0.794,-4.391 0.807,-4.315 0.792,-4.252C0.786,-4.226 0.771,-4.193 0.747,-4.177C0.727,-4.164 0.674,-4.151 0.652,-4.171C0.571,-4.243 0.488,-4.325 0.396,-4.42C0.376,-4.44 0.363,-4.475 0.363,-4.504C0.364,-4.542 0.364,-4.578 0.364,-4.616C0.364,-4.722 0.364,-4.833 0.384,-4.939C0.414,-5.105 0.498,-5.249 0.579,-5.389C0.632,-5.48 0.688,-5.575 0.727,-5.674L0.73,-5.684L0.741,-5.686C0.824,-5.702 0.828,-5.755 0.827,-5.84L0.827,-5.85C0.826,-5.926 0.827,-6.003 0.827,-6.079C0.827,-6.175 0.827,-6.27 0.826,-6.365C0.823,-6.553 0.819,-6.741 0.814,-6.928L0.809,-7.122C0.67,-7.042 0.561,-6.924 0.455,-6.81C0.387,-6.738 0.318,-6.664 0.242,-6.599L0.214,-6.571C0.069,-6.44 -0.002,-6.274 -0.002,-6.062C-0.002,-5.71 -0.002,-5.358 -0.003,-5.005C-0.003,-4.723 -0.004,-4.442 -0.004,-4.16C-0.004,-4.138 -0.003,-4.117 -0.002,-4.096C-0.001,-4.078 0,-4.059 0,-4.041" style="fill:rgb(174,210,79);fill-rule:nonzero;"/>
            </g>
            <g transform="matrix(1,0,0,1,14.152,12.8985)">
                <path d="M0,-4.912C-0.118,-4.919 -0.241,-4.927 -0.361,-4.971C-0.42,-4.993 -0.483,-4.998 -0.55,-5.003C-0.625,-5.008 -0.704,-5.014 -0.782,-5.046C-0.85,-5.075 -0.926,-5.083 -1.007,-5.091C-1.07,-5.098 -1.135,-5.105 -1.199,-5.123C-1.255,-5.138 -1.312,-5.148 -1.372,-5.158C-1.453,-5.171 -1.536,-5.185 -1.616,-5.214C-1.644,-5.224 -1.667,-5.223 -1.685,-5.211C-1.706,-5.197 -1.717,-5.169 -1.719,-5.132C-1.72,-5.078 -1.72,-5.023 -1.72,-4.968L-1.72,-2.655C-1.72,-2.094 -1.72,-1.532 -1.719,-0.971L-1.719,-0.938C-1.719,-0.871 -1.72,-0.802 -1.696,-0.747L-1.674,-0.695C-1.611,-0.546 -1.545,-0.392 -1.447,-0.268C-1.4,-0.209 -1.353,-0.15 -1.306,-0.092C-1.223,0.011 -1.137,0.117 -1.057,0.226C-1.011,0.287 -0.95,0.312 -0.868,0.302C-0.858,0.301 -0.848,0.301 -0.838,0.301L-0.826,0.301C-0.659,0.298 -0.659,0.298 -0.659,0.15C-0.659,-0.007 -0.658,-0.163 -0.658,-0.319C-0.656,-0.828 -0.654,-1.354 -0.662,-1.872C-0.665,-2.068 -0.598,-2.208 -0.444,-2.326C-0.408,-2.353 -0.369,-2.368 -0.33,-2.382C-0.308,-2.39 -0.287,-2.397 -0.267,-2.407C-0.136,-2.473 0,-2.475 0.132,-2.476C0.155,-2.477 0.179,-2.477 0.202,-2.478C0.284,-2.48 0.295,-2.492 0.295,-2.579L0.295,-3.094C0.295,-3.266 0.295,-3.438 0.296,-3.61C0.296,-3.623 0.295,-3.637 0.294,-3.651C0.291,-3.698 0.287,-3.747 0.313,-3.776C0.354,-3.824 0.389,-3.879 0.423,-3.933C0.486,-4.033 0.551,-4.137 0.661,-4.203C0.74,-4.251 0.857,-4.221 0.929,-4.137C0.965,-4.095 0.974,-4.041 0.953,-4.001C0.937,-3.971 0.909,-3.957 0.87,-3.96C0.727,-3.976 0.667,-3.893 0.592,-3.788L0.586,-3.778C0.533,-3.706 0.498,-3.637 0.5,-3.54C0.503,-3.331 0.502,-3.119 0.502,-2.915L0.502,-2.589C0.502,-2.487 0.511,-2.478 0.625,-2.476C0.683,-2.475 0.74,-2.477 0.798,-2.478L0.862,-2.479C0.885,-2.479 0.901,-2.485 0.912,-2.496C0.924,-2.509 0.93,-2.53 0.93,-2.562C0.929,-2.602 0.929,-2.641 0.929,-2.681C0.929,-2.903 1.064,-3.126 1.128,-2.795C1.168,-2.589 1.064,-2.485 1.32,-2.474L1.346,-2.473L1.359,-2.473C1.444,-2.473 1.507,-2.505 1.567,-2.579C1.72,-2.765 1.894,-2.942 2.181,-2.879L2.208,-2.886C2.32,-2.916 2.426,-2.945 2.461,-3.077C2.475,-3.128 2.503,-3.181 2.538,-3.222C2.634,-3.334 2.599,-3.442 2.562,-3.556C2.548,-3.599 2.533,-3.643 2.526,-3.687C2.508,-3.799 2.439,-3.838 2.336,-3.884C2.323,-3.89 2.31,-3.896 2.297,-3.901C2.201,-3.942 2.093,-3.988 2.052,-4.105C1.986,-4.294 1.824,-4.361 1.65,-4.418C1.389,-4.503 1.112,-4.596 0.846,-4.708C0.66,-4.786 0.45,-4.847 0.221,-4.889C0.148,-4.903 0.073,-4.907 0,-4.912" style="fill:rgb(115,129,126);fill-rule:nonzero;"/>
            </g>
            <g transform="matrix(1,0,0,1,1.10697,11.7085)">
                <path d="M0,0.305C0.332,0.306 0.675,0.307 1.011,0.302C1.19,0.298 1.397,0.307 1.579,0.429C1.755,0.442 1.866,0.555 1.974,0.68C2.032,0.748 2.079,0.806 2.118,0.869C2.268,1.115 2.448,1.209 2.68,1.168C2.689,1.167 2.697,1.167 2.705,1.167C2.71,1.168 2.716,1.169 2.721,1.167C2.756,1.163 2.79,1.16 2.823,1.16C3.038,1.16 3.224,1.259 3.389,1.461C3.405,1.48 3.421,1.498 3.438,1.517C3.48,1.566 3.525,1.617 3.558,1.682C3.587,1.739 3.643,1.787 3.697,1.833C3.713,1.847 3.729,1.86 3.744,1.874C3.751,1.88 3.783,1.881 3.793,1.874C3.818,1.855 3.841,1.833 3.864,1.809C3.878,1.795 3.892,1.781 3.907,1.767C3.935,1.741 3.963,1.713 3.99,1.685C4.057,1.617 4.126,1.546 4.21,1.509C4.284,1.476 4.372,1.482 4.457,1.487C4.495,1.489 4.533,1.491 4.569,1.49C4.7,1.487 4.831,1.483 4.962,1.479L5.146,1.474C5.2,1.349 5.192,1.221 5.183,1.086C5.179,1.016 5.174,0.944 5.179,0.872C5.183,0.805 5.183,0.763 5.167,0.746C5.153,0.73 5.118,0.727 5.052,0.727C4.949,0.726 4.846,0.727 4.742,0.727C4.634,0.728 4.526,0.728 4.411,0.727C4.157,0.727 4.006,0.811 3.92,0.997C3.91,1.019 3.891,1.034 3.866,1.04C3.83,1.049 3.786,1.037 3.754,1.011C3.721,0.985 3.7,0.95 3.698,0.916C3.697,0.892 3.705,0.871 3.721,0.855C3.747,0.829 3.773,0.802 3.799,0.774C3.854,0.715 3.912,0.654 3.977,0.604C4.067,0.535 4.19,0.457 4.355,0.457C4.365,0.457 4.375,0.458 4.385,0.458C4.557,0.468 4.733,0.466 4.903,0.463C4.967,0.462 5.032,0.461 5.097,0.46C5.152,0.46 5.177,0.438 5.18,0.387C5.183,0.331 5.177,0.295 5.16,0.277C5.093,0.203 4.568,0.336 4.643,0.118C4.688,-0.013 4.987,0.051 5.084,0.05C5.104,0.049 5.128,0.044 5.15,0.035C5.176,0.023 5.184,-0.002 5.178,-0.047C5.172,-0.083 5.154,-0.121 5.14,-0.127C5.106,-0.139 5.066,-0.138 5.025,-0.137L4.991,-0.137C4.9,-0.137 4.81,-0.137 4.719,-0.138C4.471,-0.14 4.213,-0.141 3.961,-0.132L3.943,-0.132C3.816,-0.132 3.721,-0.183 3.646,-0.293C3.564,-0.411 3.49,-0.543 3.503,-0.703C3.506,-0.751 3.505,-0.8 3.503,-0.848C3.502,-0.879 3.5,-0.909 3.501,-0.939C3.501,-0.964 3.494,-0.983 3.482,-0.996C3.464,-1.012 3.441,-1.013 3.422,-1.014L3.398,-1.014C3.217,-1.014 3.087,-1.091 2.991,-1.256C2.938,-1.345 2.841,-1.446 2.668,-1.421C2.607,-1.461 2.536,-1.47 2.461,-1.48C2.38,-1.49 2.297,-1.501 2.224,-1.554C2.193,-1.576 2.16,-1.563 2.137,-1.547C2.09,-1.514 2.042,-1.482 1.994,-1.449C1.872,-1.366 1.745,-1.28 1.623,-1.193C1.589,-1.169 1.559,-1.139 1.525,-1.104C1.513,-1.092 1.5,-1.078 1.486,-1.064L1.525,-1.028C1.57,-0.988 1.612,-0.949 1.656,-0.913C1.827,-0.768 1.924,-0.567 2.008,-0.389C2.026,-0.352 2.044,-0.303 2.014,-0.261C1.995,-0.234 1.983,-0.204 1.971,-0.173C1.949,-0.118 1.926,-0.062 1.869,-0.023C1.812,0.015 1.782,-0.019 1.764,-0.039C1.76,-0.044 1.755,-0.048 1.751,-0.053C1.719,-0.081 1.695,-0.114 1.727,-0.173C1.796,-0.294 1.781,-0.405 1.684,-0.511L1.661,-0.535C1.607,-0.593 1.551,-0.653 1.517,-0.735C1.485,-0.811 1.414,-0.846 1.339,-0.882C1.307,-0.898 1.274,-0.914 1.245,-0.933C1.212,-0.955 0.655,-0.555 0.588,-0.513C0.561,-0.496 0.534,-0.478 0.509,-0.459C0.253,-0.253 -0.049,-0.122 -0.315,-0.007C-0.438,0.047 -0.481,0.133 -0.531,0.233L-0.547,0.265C-0.544,0.273 -0.535,0.287 -0.529,0.291C-0.352,0.31 -0.175,0.304 0,0.305" style="fill:rgb(131,102,56);fill-rule:nonzero;"/>
            </g>
            <g transform="matrix(1,0,0,1,13.91,10.6935)">
                <path d="M0,0.674C0.044,0.673 0.098,0.672 0.163,0.674C0.217,0.675 0.271,0.674 0.325,0.674L0.951,0.674C1.123,0.671 1.24,0.57 1.249,0.415C1.253,0.351 1.273,0.293 1.291,0.237C1.305,0.195 1.318,0.156 1.326,0.114C1.332,0.076 1.326,0.045 1.308,0.024C1.295,0.007 1.274,-0.001 1.249,-0.001C1.089,-0.002 0.928,-0.002 0.766,-0.002C0.559,-0.002 0.351,-0.002 0.145,-0.001C0.113,-0.001 0.077,0.006 0.037,0.02C-0.14,0.08 -0.212,0.161 -0.21,0.299C-0.21,0.369 -0.211,0.426 -0.212,0.474C-0.215,0.575 -0.216,0.631 -0.194,0.653C-0.171,0.676 -0.11,0.675 0,0.674M0.252,0.234C0.263,0.226 0.274,0.218 0.284,0.21C0.295,0.2 0.31,0.201 0.324,0.203L0.335,0.203L0.449,0.204C0.593,0.205 0.741,0.205 0.887,0.209C0.914,0.209 0.962,0.237 0.965,0.266C0.967,0.293 0.969,0.356 0.938,0.387C0.896,0.429 0.842,0.458 0.795,0.465C0.762,0.47 0.73,0.472 0.691,0.472C0.667,0.472 0.641,0.471 0.611,0.47C0.57,0.47 0.523,0.469 0.467,0.469C0.443,0.469 0.358,0.47 0.279,0.452C0.237,0.442 0.161,0.37 0.171,0.327C0.179,0.289 0.216,0.261 0.252,0.234" style="fill:rgb(94,107,45);fill-rule:nonzero;"/>
            </g>
            <g transform="matrix(1,0,0,1,5.97097,11.3685)">
                <path d="M0,-0.679L-0.008,-0.679C-0.259,-0.674 -0.514,-0.676 -0.761,-0.676C-0.865,-0.677 -0.97,-0.677 -1.075,-0.677L-1.083,-0.677C-1.089,-0.678 -1.1,-0.678 -1.103,-0.676L-1.114,-0.669C-1.125,-0.663 -1.148,-0.649 -1.151,-0.642C-1.15,-0.614 -1.151,-0.583 -1.151,-0.552C-1.153,-0.454 -1.155,-0.352 -1.133,-0.258C-1.087,-0.06 -1.01,-0.003 -0.79,-0.001C-0.687,0 -0.585,0 -0.483,-0.001L-0.336,0L0.119,0C0.156,-0.001 0.193,-0.001 0.23,-0.001C0.233,-0.001 0.236,-0.002 0.239,-0.001C0.289,-0.001 0.314,-0.027 0.315,-0.078C0.317,-0.145 0.316,-0.213 0.316,-0.281C0.315,-0.331 0.315,-0.382 0.315,-0.433C0.316,-0.482 0.29,-0.517 0.252,-0.555C0.175,-0.631 0.105,-0.679 0,-0.679M-0.15,-0.234C-0.19,-0.213 -0.238,-0.207 -0.27,-0.206C-0.338,-0.205 -0.403,-0.204 -0.465,-0.204C-0.535,-0.204 -0.601,-0.205 -0.666,-0.207C-0.707,-0.208 -0.751,-0.222 -0.784,-0.244C-0.806,-0.259 -0.861,-0.306 -0.856,-0.347C-0.85,-0.386 -0.808,-0.428 -0.77,-0.446C-0.692,-0.484 -0.611,-0.478 -0.54,-0.472C-0.505,-0.47 -0.471,-0.467 -0.442,-0.471L-0.345,-0.471C-0.283,-0.471 -0.23,-0.472 -0.176,-0.471C-0.129,-0.47 -0.092,-0.456 -0.07,-0.431C-0.054,-0.413 -0.046,-0.39 -0.048,-0.365C-0.054,-0.295 -0.103,-0.26 -0.15,-0.234" style="fill:rgb(94,107,45);fill-rule:nonzero;"/>
            </g>
            <g transform="matrix(1,0,0,1,3.44797,11.0585)">
                <path d="M0,-1.216C0.029,-1.091 0.107,-1.036 0.26,-1.036C0.269,-1.036 0.279,-1.037 0.289,-1.037C0.302,-1.037 0.315,-1.036 0.328,-1.035C0.353,-1.034 0.375,-1.033 0.396,-1.036C0.483,-1.045 0.556,-1.015 0.622,-0.945C0.639,-0.927 0.658,-0.91 0.676,-0.894C0.707,-0.866 0.739,-0.837 0.763,-0.802C0.863,-0.659 1.001,-0.605 1.191,-0.637C1.205,-0.64 1.218,-0.64 1.231,-0.64C1.272,-0.64 1.282,-0.646 1.284,-0.649C1.288,-0.655 1.285,-0.674 1.28,-0.692C1.278,-0.705 1.274,-0.719 1.272,-0.734C1.258,-0.849 1.2,-1.099 1.325,-1.182C1.598,-1.365 1.472,-0.649 1.471,-0.651C1.472,-0.649 1.477,-0.647 1.484,-0.646C1.565,-0.638 1.648,-0.636 1.719,-0.636C1.885,-0.637 1.885,-0.637 1.886,-0.784C1.886,-0.882 1.885,-0.98 1.885,-1.078C1.883,-1.267 1.882,-1.464 1.889,-1.656C1.893,-1.778 1.859,-1.892 1.783,-2.012C1.74,-2.081 1.685,-2.113 1.604,-2.118C1.559,-2.12 1.523,-2.14 1.501,-2.175C1.477,-2.212 1.474,-2.262 1.493,-2.309C1.505,-2.339 1.538,-2.366 1.581,-2.381C1.621,-2.396 1.661,-2.394 1.689,-2.378C1.709,-2.367 1.73,-2.357 1.751,-2.347C1.823,-2.314 1.898,-2.28 1.935,-2.182C1.953,-2.134 1.999,-2.091 2.043,-2.05C2.057,-2.037 2.071,-2.024 2.084,-2.011C2.133,-1.962 2.154,-1.903 2.154,-1.819C2.152,-1.481 2.152,-1.147 2.153,-0.749C2.153,-0.697 2.162,-0.665 2.178,-0.65C2.19,-0.64 2.207,-0.637 2.233,-0.64C2.254,-0.643 2.275,-0.645 2.295,-0.645C2.382,-0.645 2.465,-0.621 2.544,-0.599C2.607,-0.581 2.671,-0.563 2.736,-0.556C2.797,-0.551 2.855,-0.512 2.884,-0.489C3.033,-0.371 3.108,-0.218 3.107,-0.032C3.106,0.152 3.106,0.337 3.106,0.522L3.107,1.018L3.107,2.028C3.107,2.118 3.121,2.13 3.234,2.143C3.393,2.162 3.475,2.116 3.523,1.989C3.538,1.951 3.57,1.921 3.602,1.891C3.612,1.882 3.622,1.873 3.631,1.864C3.8,1.691 3.92,1.478 4.026,1.29C4.083,1.188 4.11,1.084 4.109,0.964C4.105,0.43 4.106,-0.113 4.106,-0.637L4.107,-3.04C4.107,-3.143 4.105,-3.234 4.103,-3.316C4.102,-3.337 4.092,-3.35 4.082,-3.358C4.065,-3.372 4.039,-3.378 4.013,-3.375C4.007,-3.373 4,-3.373 3.993,-3.374C3.989,-3.374 3.982,-3.375 3.981,-3.373C3.913,-3.33 3.837,-3.32 3.763,-3.31C3.707,-3.302 3.654,-3.296 3.606,-3.274C3.516,-3.234 3.425,-3.229 3.337,-3.225C3.298,-3.223 3.256,-3.22 3.216,-3.215C3.182,-3.21 3.14,-3.204 3.112,-3.186C3.047,-3.146 2.977,-3.148 2.911,-3.149C2.858,-3.15 2.808,-3.151 2.765,-3.13C2.651,-3.074 2.539,-3.065 2.416,-3.06C2.394,-3.059 2.369,-3.061 2.345,-3.063C2.3,-3.066 2.257,-3.069 2.229,-3.053C2.147,-3.004 2.057,-2.989 1.971,-2.976C1.919,-2.967 1.864,-2.958 1.813,-2.941C1.628,-2.881 1.444,-2.81 1.266,-2.741C1.077,-2.668 0.882,-2.593 0.686,-2.53C0.669,-2.525 0.653,-2.52 0.637,-2.515C0.533,-2.485 0.444,-2.459 0.399,-2.331C0.353,-2.204 0.238,-2.089 0.113,-2.045C-0.1,-1.97 -0.144,-1.824 -0.15,-1.598C-0.153,-1.442 -0.117,-1.34 -0.028,-1.258C-0.013,-1.244 -0.004,-1.23 0,-1.216" style="fill:rgb(115,129,126);fill-rule:nonzero;"/>
            </g>
        </g>
    </g>
</svg>
