<?xml version="1.0" encoding="UTF-8" standalone="no"?>
<!DOCTYPE svg PUBLIC "-//W3C//DTD SVG 1.1//EN" "http://www.w3.org/Graphics/SVG/1.1/DTD/svg11.dtd">
<svg width="100%" height="100%" viewBox="0 0 20 20" version="1.1" xmlns="http://www.w3.org/2000/svg" xmlns:xlink="http://www.w3.org/1999/xlink" xml:space="preserve" xmlns:serif="http://www.serif.com/" style="fill-rule:evenodd;clip-rule:evenodd;stroke-linejoin:round;stroke-miterlimit:2;">
    <g transform="matrix(1.03458,0,0,1.03458,-18.2821,-0.345844)">
        <g id="Pazis">
            <g transform="matrix(1,0,0,1,29.862,9.81964)">
                <path d="M0,0.481C-0.001,0.476 -0.001,0.472 -0.003,0.468L-0.008,0.453C-0.021,0.414 -0.026,0.405 -0.057,0.414C-0.092,0.424 -0.105,0.436 -0.11,0.443C-0.172,0.539 -0.224,0.627 -0.27,0.713C-0.27,0.719 -0.257,0.745 -0.25,0.749C-0.218,0.76 -0.178,0.765 -0.142,0.762C-0.117,0.76 -0.091,0.759 -0.066,0.759C-0.025,0.759 0.016,0.761 0.056,0.763C0.173,0.77 0.284,0.776 0.393,0.73L0.424,0.242L0.411,0.241L0.411,0.109C0.411,-0.013 0.412,-0.138 0.41,-0.261C0.409,-0.27 0.4,-0.283 0.391,-0.295C0.381,-0.282 0.372,-0.269 0.36,-0.258C0.229,-0.121 0.179,0.05 0.202,0.28C0.209,0.35 0.203,0.42 0.195,0.486C0.192,0.515 0.159,0.547 0.133,0.555C0.081,0.572 0.035,0.554 0.009,0.51C0.003,0.5 0.002,0.49 0,0.481" style="fill:rgb(210,181,75);fill-rule:nonzero;"/>
            </g>
            <g transform="matrix(1,0,0,1,31.167,10.9656)">
                <path d="M0,-2.562C-0.005,-2.569 -0.027,-2.571 -0.04,-2.572C-0.042,-2.567 -0.045,-2.561 -0.046,-2.558C-0.05,-2.493 -0.053,-2.425 -0.052,-2.358C-0.05,-2.241 -0.113,-2.156 -0.218,-2.13C-0.26,-2.12 -0.299,-2.104 -0.338,-2.088C-0.371,-2.075 -0.405,-2.06 -0.441,-2.051C-0.529,-2.026 -0.578,-1.966 -0.631,-1.902C-0.644,-1.886 -0.658,-1.87 -0.672,-1.854C-0.692,-1.832 -0.702,-1.797 -0.678,-1.77C-0.618,-1.698 -0.618,-1.615 -0.619,-1.536L-0.619,-1.529C-0.619,-1.417 -0.618,-1.305 -0.618,-1.193C-0.618,-0.969 -0.617,-0.744 -0.619,-0.52C-0.62,-0.319 -0.761,-0.177 -0.962,-0.174C-1.194,-0.171 -1.429,-0.172 -1.649,-0.174L-1.651,-0.174C-1.706,-0.174 -1.744,-0.157 -1.773,-0.12C-1.784,-0.107 -1.793,-0.093 -1.802,-0.078C-1.804,-0.076 -1.806,-0.074 -1.807,-0.071C-1.805,-0.07 -1.804,-0.069 -1.802,-0.068C-1.789,-0.058 -1.776,-0.049 -1.768,-0.049C-1.622,-0.047 -1.478,-0.046 -1.333,-0.046C-1.169,-0.045 -1.004,-0.044 -0.839,-0.042C-0.816,-0.041 -0.792,-0.043 -0.767,-0.045C-0.744,-0.047 -0.72,-0.049 -0.697,-0.049C-0.648,-0.049 -0.6,-0.041 -0.554,-0.011C-0.521,0.01 -0.499,0.008 -0.476,-0.016C-0.348,-0.152 -0.175,-0.219 -0.022,-0.278C0.13,-0.336 0.157,-0.424 0.155,-0.565C0.152,-0.755 0.153,-0.947 0.153,-1.134C0.153,-1.214 0.154,-1.293 0.154,-1.373C0.154,-1.45 0.153,-1.527 0.153,-1.604C0.151,-1.78 0.149,-1.962 0.157,-2.141C0.164,-2.294 0.114,-2.428 0,-2.562" style="fill:rgb(120,89,166);fill-rule:nonzero;"/>
            </g>
            <g transform="matrix(1,0,0,1,29.573,5.56364)">
                <path d="M0,0.402C0.035,0.405 0.066,0.408 0.099,0.405C0.113,0.403 0.127,0.402 0.14,0.402C0.248,0.402 0.322,0.453 0.367,0.557C0.369,0.561 0.376,0.565 0.384,0.567C0.399,0.569 0.421,0.566 0.439,0.549C0.521,0.47 0.569,0.367 0.615,0.267C0.637,0.219 0.659,0.17 0.686,0.123C0.684,0.116 0.683,0.109 0.682,0.102C0.679,0.086 0.677,0.07 0.67,0.061C0.58,-0.071 0.497,-0.167 0.339,-0.123C0.308,-0.114 0.277,-0.113 0.25,-0.117C0.229,-0.122 0.204,-0.108 0.179,-0.094C0.14,-0.071 0.09,-0.044 0.036,-0.09C-0.009,-0.063 -0.006,-0.025 0.003,0.032C0.006,0.051 0.009,0.071 0.008,0.089C0.007,0.176 -0.016,0.247 -0.066,0.321C-0.077,0.336 -0.079,0.352 -0.072,0.367C-0.063,0.386 -0.042,0.399 -0.017,0.4L0,0.402Z" style="fill:rgb(120,89,166);fill-rule:nonzero;"/>
            </g>
            <g transform="matrix(1,0,0,1,29.777,6.89364)">
                <path d="M0,0.158C-0.026,0.186 -0.027,0.2 -0.003,0.226L0.019,0.25C0.057,0.292 0.098,0.336 0.12,0.388C0.141,0.442 0.167,0.461 0.217,0.462C0.245,0.463 0.272,0.463 0.3,0.463L0.318,0.463L0.338,0.459L0.458,0.459C0.557,0.454 0.716,0.336 0.727,0.236C0.752,0.015 0.708,-0.145 0.589,-0.265C0.566,-0.288 0.524,-0.305 0.503,-0.3C0.452,-0.285 0.401,-0.26 0.353,-0.235C0.336,-0.227 0.318,-0.218 0.3,-0.21C0.266,-0.085 0.177,-0.005 0.091,0.072C0.06,0.099 0.028,0.128 0,0.158" style="fill:rgb(120,89,166);fill-rule:nonzero;"/>
            </g>
            <g transform="matrix(1,0,0,1,30.671,19.1486)">
                <path d="M0,-1.767L-0.01,-1.774C-0.038,-1.793 -0.071,-1.803 -0.103,-1.803C-0.114,-1.803 -0.124,-1.802 -0.135,-1.8C-0.173,-1.791 -0.205,-1.768 -0.226,-1.732C-0.287,-1.628 -0.365,-1.536 -0.442,-1.449C-0.46,-1.427 -0.478,-1.406 -0.496,-1.385C-0.676,-1.173 -0.811,-0.99 -0.775,-0.729C-0.771,-0.695 -0.78,-0.653 -0.804,-0.604C-0.857,-0.493 -0.85,-0.38 -0.844,-0.259C-0.84,-0.207 -0.837,-0.152 -0.84,-0.099C-0.84,-0.08 -0.827,-0.055 -0.804,-0.03C-0.771,0.006 -0.726,0.032 -0.695,0.033C-0.64,0.036 -0.584,0.035 -0.529,0.035C-0.511,0.034 -0.492,0.034 -0.474,0.034L-0.455,0.031C-0.407,0.031 -0.359,0.032 -0.31,0.032C-0.279,0.032 -0.247,0.032 -0.215,0.03C-0.16,0.026 -0.079,-0.059 -0.076,-0.114C-0.073,-0.183 -0.073,-0.252 -0.072,-0.32C-0.072,-0.372 -0.072,-0.424 -0.07,-0.476C-0.069,-0.531 -0.05,-0.582 -0.033,-0.631C-0.011,-0.693 0.009,-0.751 0.001,-0.818C-0.019,-0.98 0.043,-1.126 0.104,-1.266C0.117,-1.296 0.13,-1.326 0.142,-1.356C0.153,-1.383 0.168,-1.409 0.183,-1.435C0.208,-1.479 0.232,-1.521 0.234,-1.563C0.237,-1.614 0.206,-1.629 0.15,-1.652C0.111,-1.668 0.067,-1.686 0.044,-1.728C0.036,-1.743 0.018,-1.755 0,-1.767" style="fill:rgb(120,89,166);fill-rule:nonzero;"/>
            </g>
            <g transform="matrix(1,0,0,1,33.152,11.4246)">
                <path d="M0,-1.126C0,-0.991 -0.025,-0.859 -0.05,-0.732C-0.06,-0.68 -0.07,-0.627 -0.078,-0.574C-0.087,-0.523 -0.085,-0.47 -0.083,-0.415C-0.081,-0.375 -0.079,-0.334 -0.082,-0.295C-0.085,-0.241 -0.067,-0.195 -0.047,-0.145C-0.029,-0.097 -0.01,-0.047 -0.009,0.011C-0.007,0.158 0.067,0.224 0.231,0.225C0.434,0.226 0.636,0.226 0.838,0.225L1.146,0.225C1.404,0.225 1.666,0.226 1.925,0.231L1.936,0.231C2.091,0.231 2.205,0.168 2.277,0.044C2.425,-0.212 2.561,-0.508 2.704,-0.887C2.742,-0.986 2.718,-1.086 2.641,-1.163C2.509,-1.293 2.37,-1.355 2.205,-1.355L2.194,-1.355C1.976,-1.351 1.756,-1.352 1.543,-1.353L1.247,-1.353L1.247,-1.356L0.991,-1.356C0.75,-1.357 0.503,-1.357 0.258,-1.355C0.154,-1.354 0,-1.217 0,-1.126M1.012,-0.596C1.024,-0.627 1.043,-0.649 1.063,-0.658C1.09,-0.669 1.124,-0.67 1.152,-0.66C1.173,-0.653 1.19,-0.637 1.207,-0.623C1.211,-0.619 1.215,-0.615 1.22,-0.611C1.277,-0.562 1.295,-0.503 1.27,-0.452C1.249,-0.41 1.205,-0.387 1.15,-0.387C1.139,-0.387 1.129,-0.388 1.117,-0.389C1.073,-0.384 1.033,-0.409 1.01,-0.458C0.993,-0.495 0.994,-0.549 1.012,-0.596" style="fill:rgb(210,181,75);fill-rule:nonzero;"/>
            </g>
            <g transform="matrix(1,0,0,1,33.107,6.08564)">
                <path d="M0,2.398C0.167,2.399 0.336,2.399 0.503,2.399L0.85,2.399C0.91,2.399 0.941,2.376 0.977,2.306L1.023,2.217C1.133,2.001 1.248,1.777 1.392,1.578C1.472,1.467 1.537,1.343 1.599,1.224C1.671,1.089 1.744,0.949 1.842,0.824C1.92,0.724 1.975,0.6 2.028,0.481C2.045,0.444 2.061,0.407 2.079,0.37C2.125,0.271 2.127,0.174 2.083,0.104C2.042,0.04 1.967,0.003 1.871,0.002C1.353,-0.001 0.826,0 0.316,0L-0.03,0C-0.111,0 -0.128,0.018 -0.128,0.102C-0.129,0.375 -0.129,0.647 -0.129,0.92L-0.129,1.212L-0.131,1.212L-0.131,2.245C-0.131,2.394 -0.121,2.397 0,2.398M0.621,1.016C0.651,0.987 0.712,0.942 0.748,0.942L0.749,0.942C0.797,0.943 0.914,1.035 0.912,1.081C0.912,1.129 0.795,1.218 0.747,1.218C0.71,1.218 0.649,1.171 0.619,1.14C0.582,1.103 0.583,1.085 0.583,1.079C0.583,1.073 0.583,1.054 0.621,1.016" style="fill:rgb(200,108,88);fill-rule:nonzero;"/>
            </g>
            <g transform="matrix(1,0,0,1,29.38,7.02364)">
                <path d="M0,-0.848L-0.106,-0.848C-0.119,-0.848 -0.132,-0.847 -0.144,-0.845C-0.181,-0.84 -0.23,-0.801 -0.26,-0.753C-0.281,-0.719 -0.289,-0.687 -0.282,-0.665L-0.268,-0.621C-0.202,-0.416 -0.135,-0.204 -0.018,-0.018C-0.013,-0.01 -0.005,-0.004 0.007,-0.003C0.021,0 0.043,-0.006 0.058,-0.018C0.086,-0.041 0.112,-0.067 0.138,-0.092C0.19,-0.142 0.243,-0.194 0.307,-0.224C0.385,-0.262 0.411,-0.306 0.409,-0.391L0.407,-0.464C0.405,-0.545 0.402,-0.629 0.396,-0.711C0.392,-0.769 0.313,-0.843 0.253,-0.846C0.208,-0.848 0.161,-0.847 0.116,-0.847L0.054,-0.847L0,-0.848Z" style="fill:rgb(160,217,213);fill-rule:nonzero;"/>
            </g>
            <g transform="matrix(1,0,0,1,24.635,10.2976)">
                <path d="M0,-0.501L-0.01,-0.52C-0.067,-0.622 -0.121,-0.719 -0.222,-0.785C-0.224,-0.781 -0.225,-0.776 -0.226,-0.772C-0.232,-0.746 -0.239,-0.722 -0.239,-0.699C-0.24,-0.386 -0.24,-0.11 -0.238,0.146C-0.237,0.207 -0.162,0.283 -0.1,0.284C0.06,0.284 0.23,0.282 0.42,0.275C0.424,0.272 0.44,0.248 0.441,0.24C0.432,0.22 0.423,0.196 0.414,0.172C0.382,0.085 0.353,0.003 0.276,-0.049C0.26,-0.059 0.255,-0.059 0.255,-0.058C0.253,-0.056 0.25,-0.041 0.249,-0.034C0.246,-0.023 0.244,-0.01 0.238,0C0.206,0.055 0.167,0.085 0.125,0.086L0.124,0.086C0.098,0.086 0.062,0.074 0.029,0.021L0.017,0.004C-0.002,-0.025 -0.023,-0.059 -0.024,-0.093C-0.025,-0.108 -0.026,-0.124 -0.028,-0.139C-0.033,-0.206 -0.039,-0.275 0.004,-0.339C0.038,-0.39 0.037,-0.434 0,-0.501" style="fill:rgb(210,181,75);fill-rule:nonzero;"/>
            </g>
            <g transform="matrix(1,0,0,1,25.629,9.24364)">
                <path d="M0,3.337C-0.05,3.389 -0.102,3.442 -0.15,3.496C-0.168,3.516 -0.174,3.56 -0.169,3.589C-0.166,3.602 -0.155,3.617 -0.144,3.632C-0.129,3.652 -0.113,3.673 -0.113,3.697C-0.113,3.874 -0.05,4.038 0.01,4.197C0.033,4.256 0.056,4.318 0.076,4.378C0.151,4.611 0.229,4.853 0.332,5.083C0.48,5.416 0.649,5.813 0.779,6.227C0.848,6.449 0.961,6.616 1.134,6.754C1.137,6.75 1.141,6.745 1.142,6.742C1.146,6.068 1.15,5.283 1.15,4.518C1.15,4.473 1.138,4.422 1.115,4.374C1.018,4.167 0.891,3.978 0.633,3.978C0.61,3.978 0.587,3.979 0.562,3.982C0.532,3.986 0.496,3.978 0.473,3.962C0.451,3.946 0.433,3.911 0.432,3.883C0.432,3.857 0.448,3.805 0.477,3.799C0.551,3.783 0.629,3.77 0.706,3.77C0.852,3.77 0.997,3.817 1.108,3.975C1.134,4.011 1.169,4.043 1.203,4.074L1.218,4.088C1.313,4.175 1.358,4.282 1.357,4.423C1.355,4.967 1.357,5.521 1.358,6.057C1.359,6.335 1.36,6.614 1.36,6.893C1.36,6.922 1.353,6.95 1.346,6.978C1.344,6.99 1.341,7.001 1.339,7.013C1.336,7.029 1.324,7.042 1.313,7.053C1.306,7.062 1.298,7.071 1.298,7.077C1.298,7.079 1.299,7.084 1.31,7.093C1.319,7.1 1.327,7.106 1.335,7.114C1.366,7.142 1.399,7.17 1.429,7.173C1.565,7.186 1.704,7.186 1.84,7.186L1.873,7.186C1.916,7.186 1.965,7.18 2.025,7.166C2.057,7.159 2.093,7.123 2.11,7.081C2.122,7.052 2.122,7.025 2.111,7.008C2.062,6.934 2.052,6.858 2.053,6.768L2.053,6.666C2.054,5.996 2.055,5.303 2.053,4.622C2.052,4.549 2.074,4.481 2.096,4.415C2.12,4.342 2.143,4.272 2.136,4.196C2.134,4.167 2.157,4.139 2.176,4.117C2.352,3.902 2.55,3.703 2.875,3.776C2.891,3.78 2.907,3.781 2.924,3.782C2.948,3.784 2.973,3.785 2.996,3.793C3.02,3.802 3.031,3.831 3.046,3.866C3.056,3.888 3.056,3.911 3.046,3.929C3.038,3.945 3.023,3.956 3.005,3.96L2.99,3.962C2.928,3.975 2.866,3.988 2.803,3.983C2.712,3.977 2.639,4.007 2.57,4.082L2.559,4.093C2.534,4.119 2.509,4.146 2.481,4.169C2.369,4.258 2.319,4.373 2.321,4.542C2.327,4.98 2.327,5.425 2.327,5.856C2.326,6.093 2.326,6.33 2.327,6.567C2.327,6.609 2.335,6.652 2.342,6.695C2.345,6.71 2.347,6.725 2.349,6.74C2.416,6.727 2.455,6.668 2.486,6.613C2.543,6.513 2.588,6.421 2.623,6.331C2.681,6.184 2.735,6.034 2.787,5.888C2.871,5.655 2.959,5.414 3.06,5.184C3.237,4.781 3.393,4.346 3.563,3.771C3.628,3.554 3.587,3.407 3.431,3.294C3.413,3.28 3.393,3.27 3.372,3.258C3.346,3.244 3.32,3.229 3.297,3.21C3.272,3.191 3.27,3.14 3.28,3.116C3.291,3.088 3.325,3.064 3.35,3.058C3.41,3.045 3.471,3.039 3.521,3.084C3.577,3.134 3.632,3.186 3.685,3.237L3.699,3.25C3.709,3.26 3.72,3.263 3.733,3.263C3.753,3.26 3.774,3.243 3.79,3.215C3.838,3.133 3.841,3.06 3.799,3.015C3.779,2.994 3.759,2.972 3.74,2.95C3.662,2.861 3.589,2.777 3.47,2.746C3.423,2.734 3.424,2.689 3.425,2.66C3.427,2.586 3.484,2.573 3.514,2.566C3.533,2.561 3.551,2.559 3.567,2.559C3.658,2.559 3.725,2.617 3.779,2.677C3.861,2.766 3.906,2.801 3.94,2.801C3.974,2.801 4.006,2.767 4.059,2.712C4.07,2.7 4.082,2.688 4.094,2.674C4.118,2.651 4.14,2.626 4.163,2.601C4.186,2.576 4.209,2.552 4.233,2.528C4.37,2.387 4.425,2.225 4.403,2.032C4.396,1.975 4.374,1.952 4.322,1.952C4.254,1.951 4.186,1.951 4.118,1.951C3.973,1.951 3.822,1.951 3.664,1.946C3.587,1.946 3.53,1.977 3.489,2.042C3.473,2.065 3.46,2.091 3.446,2.115C3.429,2.149 3.411,2.184 3.387,2.215C3.329,2.293 3.248,2.373 3.1,2.364C2.964,2.356 2.825,2.356 2.69,2.358C2.611,2.359 2.532,2.359 2.453,2.359C2.413,2.358 2.37,2.346 2.332,2.325C2.31,2.313 2.306,2.28 2.302,2.241C2.3,2.223 2.313,2.196 2.331,2.189L2.351,2.18C2.382,2.167 2.415,2.154 2.459,2.153C2.655,2.15 2.858,2.147 3.057,2.155L3.069,2.155C3.147,2.155 3.202,2.123 3.24,2.057C3.326,1.904 3.422,1.755 3.515,1.61C3.585,1.502 3.657,1.39 3.724,1.278C3.909,0.969 4.111,0.662 4.306,0.365C4.393,0.233 4.479,0.102 4.564,-0.031C4.586,-0.064 4.608,-0.097 4.63,-0.13C4.689,-0.217 4.749,-0.307 4.795,-0.401C4.83,-0.47 4.869,-0.514 4.956,-0.522C4.983,-0.525 5.01,-0.539 5.038,-0.552C5.045,-0.556 5.053,-0.559 5.06,-0.563C5.076,-0.57 5.093,-0.577 5.11,-0.584C5.179,-0.612 5.243,-0.639 5.272,-0.71C5.286,-0.747 5.269,-0.777 5.249,-0.811C5.236,-0.834 5.222,-0.857 5.217,-0.884C5.206,-0.949 5.197,-1.025 5.211,-1.093C5.232,-1.198 5.179,-1.275 5.122,-1.357C5.074,-1.427 5.024,-1.501 5.023,-1.594C5.015,-1.6 4.991,-1.612 4.976,-1.613C4.946,-1.615 4.915,-1.615 4.883,-1.615C4.848,-1.614 4.811,-1.613 4.774,-1.617C4.43,-1.653 4.105,-1.56 3.807,-1.455C3.656,-1.402 3.575,-1.322 3.552,-1.202C3.494,-0.904 3.39,-0.604 3.217,-0.226C3.182,-0.152 3.152,-0.085 3.132,-0.007C3.109,0.086 3.071,0.175 3.034,0.262C3.015,0.308 2.995,0.354 2.978,0.401C2.958,0.456 2.925,0.484 2.879,0.489L2.843,0.492C2.735,0.502 2.622,0.514 2.511,0.476C2.496,0.471 2.475,0.452 2.475,0.433C2.475,0.417 2.485,0.403 2.495,0.387C2.54,0.319 2.601,0.288 2.683,0.293C2.687,0.293 2.691,0.294 2.695,0.294C2.778,0.294 2.832,0.235 2.843,0.175C2.879,-0.019 2.958,-0.2 3.033,-0.375C3.075,-0.473 3.199,-0.663 3.163,-0.772C3.13,-0.872 2.992,-0.887 2.93,-0.955C2.872,-1.018 2.819,-1.149 2.915,-1.208C3.005,-1.264 3.089,-1.16 3.147,-1.112C3.174,-1.089 3.203,-1.081 3.231,-1.088C3.264,-1.096 3.292,-1.123 3.309,-1.163C3.397,-1.369 3.365,-1.507 3.2,-1.64C3.184,-1.653 3.166,-1.663 3.147,-1.673C3.13,-1.682 3.114,-1.691 3.1,-1.701C3.062,-1.727 3.025,-1.752 2.988,-1.777C2.893,-1.84 2.795,-1.906 2.709,-1.983C2.604,-2.075 2.515,-2.11 2.399,-2.1C2.351,-2.096 2.276,-2.088 2.234,-2.151C2.218,-2.175 2.223,-2.21 2.227,-2.238C2.229,-2.26 2.252,-2.281 2.27,-2.285C2.286,-2.287 2.301,-2.29 2.317,-2.293C2.448,-2.319 2.597,-2.348 2.714,-2.258C2.794,-2.197 2.881,-2.142 2.966,-2.089C3.128,-1.987 3.294,-1.882 3.421,-1.729C3.493,-1.642 3.594,-1.615 3.688,-1.66C3.742,-1.686 3.798,-1.702 3.852,-1.717C3.9,-1.731 3.945,-1.744 3.989,-1.763C3.999,-1.767 4.009,-1.777 4.019,-1.789C4.026,-1.797 4.035,-1.807 4.043,-1.814C4.056,-1.823 4.057,-1.828 4.057,-1.83C4.057,-1.832 4.056,-1.839 4.042,-1.853C3.988,-1.909 3.942,-1.933 3.882,-1.935C3.647,-1.945 3.501,-2.073 3.421,-2.341C3.401,-2.405 3.375,-2.469 3.35,-2.531C3.327,-2.589 3.302,-2.649 3.282,-2.711C3.24,-2.849 3.155,-2.935 3,-3.002C2.912,-3.04 2.82,-3.072 2.732,-3.103C2.685,-3.119 2.638,-3.135 2.592,-3.152C2.409,-3.22 2.366,-3.262 2.291,-3.457L2.277,-3.495C2.25,-3.567 2.221,-3.643 2.183,-3.709C2.159,-3.748 2.112,-3.784 2.072,-3.793C2.036,-3.801 1.997,-3.801 1.956,-3.801C1.915,-3.801 1.872,-3.801 1.831,-3.809C1.82,-3.812 1.809,-3.815 1.797,-3.818C1.729,-3.834 1.669,-3.849 1.595,-3.812C1.551,-3.791 1.501,-3.794 1.451,-3.798C1.39,-3.803 1.333,-3.808 1.295,-3.764C1.25,-3.712 1.222,-3.642 1.195,-3.574C1.182,-3.544 1.17,-3.514 1.157,-3.485C1.151,-3.472 1.146,-3.458 1.141,-3.445C1.132,-3.42 1.123,-3.395 1.108,-3.373C1.047,-3.285 0.966,-3.188 0.823,-3.146C0.737,-3.121 0.651,-3.082 0.569,-3.045C0.509,-3.018 0.447,-2.99 0.384,-2.966C0.262,-2.922 0.181,-2.827 0.15,-2.692C0.121,-2.564 0.073,-2.442 0.027,-2.324C0.012,-2.284 -0.004,-2.244 -0.019,-2.204C-0.055,-2.107 -0.115,-2.048 -0.221,-2.006C-0.238,-1.999 -0.255,-1.992 -0.271,-1.985C-0.327,-1.961 -0.384,-1.937 -0.451,-1.928C-0.485,-1.923 -0.522,-1.889 -0.554,-1.858L-0.568,-1.844C-0.577,-1.836 -0.582,-1.809 -0.578,-1.791C-0.575,-1.772 -0.557,-1.749 -0.551,-1.747C-0.53,-1.744 -0.51,-1.741 -0.49,-1.738C-0.393,-1.724 -0.293,-1.71 -0.198,-1.653C-0.152,-1.626 -0.087,-1.642 -0.04,-1.694L-0.021,-1.715C0.019,-1.758 0.06,-1.803 0.108,-1.837C0.17,-1.88 0.234,-1.921 0.295,-1.962C0.431,-2.049 0.572,-2.14 0.692,-2.253C0.721,-2.28 0.77,-2.299 0.814,-2.3C0.91,-2.303 1.015,-2.298 1.136,-2.288C1.166,-2.286 1.186,-2.231 1.187,-2.208C1.189,-2.181 1.174,-2.136 1.148,-2.124C1.115,-2.109 1.074,-2.101 1.026,-2.1C0.949,-2.098 0.897,-2.085 0.845,-2.054C0.52,-1.864 0.283,-1.675 0.099,-1.462C0.062,-1.419 0.057,-1.381 0.084,-1.34C0.087,-1.334 0.091,-1.328 0.095,-1.322C0.107,-1.305 0.12,-1.287 0.127,-1.266C0.135,-1.242 0.137,-1.216 0.139,-1.191C0.141,-1.148 0.144,-1.111 0.176,-1.092C0.282,-1.031 0.367,-1.209 0.471,-1.202C0.757,-1.185 0.461,-0.92 0.387,-0.861C0.299,-0.791 0.28,-0.711 0.327,-0.599C0.349,-0.549 0.37,-0.498 0.392,-0.448C0.48,-0.246 0.57,-0.038 0.621,0.181C0.643,0.274 0.683,0.291 0.767,0.295C0.779,0.296 0.79,0.295 0.801,0.294C0.852,0.291 0.925,0.289 0.945,0.384C0.951,0.414 0.947,0.438 0.931,0.456C0.906,0.487 0.852,0.5 0.75,0.5L0.728,0.5C0.72,0.499 0.713,0.499 0.704,0.499C0.57,0.509 0.481,0.455 0.429,0.335C0.421,0.316 0.411,0.298 0.401,0.28C0.385,0.251 0.369,0.221 0.36,0.189C0.294,-0.046 0.207,-0.278 0.121,-0.501C0.027,-0.75 -0.071,-1.007 -0.139,-1.27C-0.153,-1.324 -0.169,-1.355 -0.218,-1.375C-0.263,-1.394 -0.308,-1.417 -0.351,-1.44C-0.412,-1.472 -0.475,-1.505 -0.54,-1.525C-0.842,-1.615 -1.224,-1.647 -1.565,-1.612C-1.602,-1.608 -1.625,-1.588 -1.629,-1.556C-1.637,-1.493 -1.656,-1.433 -1.688,-1.362C-1.785,-1.15 -1.822,-0.918 -1.798,-0.671C-1.794,-0.636 -1.776,-0.615 -1.739,-0.605C-1.724,-0.601 -1.709,-0.599 -1.692,-0.598C-1.667,-0.595 -1.642,-0.592 -1.618,-0.581C-1.6,-0.572 -1.582,-0.564 -1.564,-0.555C-1.448,-0.502 -1.327,-0.447 -1.296,-0.292C-1.205,-0.186 -1.137,-0.065 -1.071,0.052C-1.022,0.139 -0.971,0.228 -0.912,0.311C-0.89,0.341 -0.868,0.371 -0.846,0.402C-0.758,0.521 -0.668,0.644 -0.599,0.777C-0.479,1.006 -0.331,1.223 -0.187,1.432C-0.065,1.61 0.062,1.795 0.17,1.987C0.241,2.113 0.345,2.167 0.485,2.156C0.611,2.144 0.74,2.148 0.865,2.153C0.914,2.154 0.964,2.155 1.013,2.156C1.065,2.157 1.101,2.187 1.112,2.241C1.118,2.27 1.112,2.297 1.095,2.318C1.074,2.343 1.039,2.357 0.995,2.358L0.753,2.358C0.621,2.359 0.483,2.358 0.348,2.361C0.34,2.362 0.331,2.362 0.323,2.362C0.197,2.362 0.068,2.332 0.019,2.155C0.013,2.132 -0.002,2.11 -0.018,2.087C-0.033,2.065 -0.048,2.042 -0.057,2.017C-0.074,1.97 -0.105,1.95 -0.162,1.949C-0.399,1.948 -0.644,1.949 -0.891,1.951C-0.935,1.951 -0.96,1.957 -0.972,1.97C-0.984,1.983 -0.989,2.008 -0.988,2.051C-0.986,2.078 -0.989,2.105 -0.991,2.131C-0.996,2.198 -1.001,2.26 -0.958,2.313C-0.843,2.457 -0.722,2.601 -0.606,2.74L-0.575,2.776C-0.563,2.791 -0.547,2.799 -0.528,2.8C-0.508,2.803 -0.482,2.792 -0.462,2.774C-0.424,2.74 -0.384,2.702 -0.349,2.662C-0.256,2.552 -0.133,2.554 -0.038,2.567C0.048,2.579 0.054,2.633 0.05,2.664C0.05,2.664 0.04,2.738 0.005,2.746C-0.074,2.763 -0.127,2.814 -0.184,2.867C-0.205,2.887 -0.225,2.907 -0.247,2.924C-0.339,3 -0.367,3.094 -0.339,3.232C-0.337,3.242 -0.331,3.254 -0.326,3.261C-0.324,3.265 -0.321,3.269 -0.317,3.268C-0.313,3.268 -0.305,3.265 -0.293,3.254C-0.234,3.199 -0.174,3.144 -0.114,3.09C-0.065,3.044 -0.004,3.046 0.054,3.055C0.081,3.059 0.117,3.079 0.132,3.106C0.144,3.129 0.149,3.18 0.128,3.203C0.086,3.249 0.042,3.294 0,3.337M0.669,4.841C0.675,4.752 0.68,4.659 0.689,4.568C0.692,4.545 0.719,4.534 0.747,4.522C0.753,4.52 0.758,4.518 0.763,4.516C0.802,4.499 0.837,4.511 0.857,4.55L0.861,4.558C0.867,4.568 0.874,4.58 0.874,4.594L0.875,4.722C0.875,4.931 0.876,5.148 0.871,5.362C0.871,5.384 0.858,5.406 0.838,5.42C0.823,5.431 0.805,5.437 0.787,5.437C0.776,5.437 0.766,5.435 0.756,5.432C0.739,5.426 0.684,5.405 0.683,5.374C0.68,5.258 0.68,5.141 0.68,5.028L0.68,4.95L0.663,4.95L0.669,4.841ZM2.757,5.368C2.724,5.408 2.673,5.44 2.632,5.44C2.619,5.44 2.607,5.437 2.596,5.43C2.555,5.401 2.535,5.364 2.536,5.315C2.537,5.228 2.537,5.142 2.536,5.055L2.536,4.931L2.539,4.931L2.539,4.846C2.537,4.76 2.536,4.672 2.541,4.585C2.543,4.562 2.555,4.542 2.574,4.528C2.597,4.512 2.627,4.507 2.655,4.514C2.678,4.52 2.723,4.54 2.73,4.57C2.74,4.616 2.741,4.664 2.742,4.71L2.743,4.734C2.744,4.764 2.744,4.793 2.744,4.823C2.744,4.94 2.744,5.05 2.799,5.158C2.83,5.217 2.813,5.299 2.757,5.368" style="fill:rgb(200,108,88);fill-rule:nonzero;"/>
            </g>
            <g transform="matrix(1,0,0,1,23.415,9.14064)">
                <path d="M0,1.103C0,1.199 0.001,1.313 0.004,1.426C0.006,1.489 0.026,1.52 0.071,1.526C0.246,1.55 0.401,1.638 0.56,1.803C0.607,1.852 0.654,1.855 0.713,1.815C0.774,1.773 0.84,1.777 0.903,1.781C0.922,1.782 0.94,1.784 0.959,1.783C1.113,1.781 1.267,1.781 1.421,1.781C1.523,1.782 1.626,1.782 1.729,1.781C1.78,1.781 1.833,1.78 1.884,1.769C1.889,1.766 1.902,1.741 1.903,1.725C1.904,1.705 1.892,1.68 1.885,1.676C1.856,1.661 1.817,1.652 1.78,1.652C1.671,1.651 1.562,1.651 1.453,1.652C1.322,1.652 1.186,1.652 1.052,1.65C0.855,1.648 0.777,1.565 0.773,1.355C0.771,1.284 0.772,1.213 0.772,1.142L0.773,1.112C0.775,0.774 0.778,0.437 0.781,0.1C0.782,-0.047 0.712,-0.141 0.54,-0.224C0.496,-0.245 0.457,-0.262 0.424,-0.277C0.216,-0.369 0.19,-0.392 0.204,-0.706C0.204,-0.718 0.198,-0.732 0.191,-0.747C0.19,-0.749 0.189,-0.751 0.189,-0.752C0.053,-0.679 -0.006,-0.568 -0.003,-0.395C0.003,-0.047 0.002,0.307 0.001,0.65C0,0.801 0,0.952 0,1.103" style="fill:rgb(120,89,166);fill-rule:nonzero;"/>
            </g>
            <g transform="matrix(1,0,0,1,28.147,5.78064)">
                <path d="M0,-0.061L0.014,-0.042C0.066,0.024 0.114,0.087 0.197,0.103C0.21,0.107 0.239,0.094 0.243,0.087C0.265,0.046 0.264,-0.012 0.239,-0.066C0.215,-0.12 0.172,-0.159 0.129,-0.168L0.127,-0.168C0.101,-0.168 0.005,-0.106 -0.005,-0.082C-0.005,-0.08 -0.004,-0.077 -0.004,-0.074C-0.003,-0.069 -0.001,-0.063 0,-0.061" style="fill:rgb(160,217,213);fill-rule:nonzero;"/>
            </g>
            <g transform="matrix(1,0,0,1,23.868,18.7826)">
                <path d="M0,-1.048C0.156,-0.747 0.221,-0.479 0.205,-0.203C0.198,-0.093 0.202,0.02 0.205,0.129L0.206,0.198C0.209,0.308 0.282,0.393 0.378,0.396C0.54,0.401 0.706,0.399 0.866,0.396L0.898,0.396C0.946,0.395 0.972,0.365 0.973,0.308C0.974,0.224 0.974,0.138 0.974,0.054L0.974,-0.033L0.971,-0.053C0.971,-0.078 0.971,-0.103 0.97,-0.127C0.969,-0.182 0.968,-0.239 0.972,-0.295C0.983,-0.47 0.914,-0.615 0.845,-0.734C0.696,-0.991 0.532,-1.206 0.342,-1.392C0.294,-1.441 0.203,-1.449 0.148,-1.408C0.12,-1.387 0.092,-1.362 0.066,-1.338L0.058,-1.331C-0.074,-1.21 -0.077,-1.196 0,-1.048" style="fill:rgb(120,89,166);fill-rule:nonzero;"/>
            </g>
            <g transform="matrix(1,0,0,1,26.35,5.61464)">
                <path d="M0,0.277C0.081,0.277 0.132,0.227 0.171,0.177C0.179,0.168 0.182,0.153 0.185,0.137C0.186,0.131 0.188,0.124 0.189,0.117C0.189,0.115 0.188,0.113 0.187,0.111C0.185,0.103 0.183,0.097 0.181,0.091C0.152,0.04 0.083,0 0.051,0C0.049,0 0.047,0 0.045,0.001C0.01,0.009 0.001,0.031 -0.011,0.068C-0.015,0.082 -0.02,0.096 -0.027,0.109C-0.034,0.124 -0.043,0.138 -0.051,0.153C-0.063,0.172 -0.074,0.19 -0.082,0.21C-0.087,0.22 -0.087,0.232 -0.081,0.242C-0.069,0.261 -0.041,0.275 -0.011,0.277L0,0.277Z" style="fill:rgb(160,217,213);fill-rule:nonzero;"/>
            </g>
            <g transform="matrix(1,0,0,1,25.062,6.09864)">
                <path d="M0,-0.634C-0.156,-0.646 -0.297,-0.656 -0.439,-0.657L-0.44,-0.657C-0.506,-0.657 -0.545,-0.595 -0.567,-0.544C-0.607,-0.45 -0.605,-0.365 -0.561,-0.292C-0.516,-0.219 -0.466,-0.135 -0.412,-0.058C-0.401,-0.042 -0.368,0.005 -0.334,0.015C-0.308,0.023 -0.294,0.009 -0.27,-0.026C-0.26,-0.039 -0.25,-0.053 -0.237,-0.064C-0.193,-0.102 -0.146,-0.123 -0.083,-0.129C-0.053,-0.133 -0.022,-0.131 0.008,-0.129C0.064,-0.126 0.116,-0.122 0.163,-0.151C0.153,-0.17 0.142,-0.188 0.131,-0.207C0.079,-0.295 0.024,-0.387 0.091,-0.513C0.096,-0.522 0.092,-0.541 0.081,-0.562C0.06,-0.599 0.023,-0.632 0,-0.634" style="fill:rgb(120,89,166);fill-rule:nonzero;"/>
            </g>
            <g transform="matrix(1,0,0,1,24.415,6.64564)">
                <path d="M0,0.705C0.035,0.707 0.071,0.707 0.112,0.706C0.134,0.706 0.157,0.705 0.182,0.705L0.189,0.707C0.31,0.757 0.396,0.707 0.484,0.535C0.489,0.525 0.498,0.518 0.505,0.512C0.509,0.509 0.513,0.506 0.515,0.503C0.54,0.473 0.562,0.443 0.559,0.426C0.557,0.415 0.545,0.403 0.518,0.387L0.489,0.369C0.375,0.3 0.257,0.229 0.247,0.048C0.246,0.034 0.233,0.019 0.21,0.005C0.143,-0.035 0.021,-0.052 -0.033,-0.027L-0.05,-0.019C-0.125,0.016 -0.191,0.046 -0.184,0.149C-0.179,0.218 -0.18,0.287 -0.182,0.355C-0.184,0.407 -0.186,0.461 -0.184,0.513C-0.18,0.616 -0.101,0.698 0,0.705" style="fill:rgb(120,89,166);fill-rule:nonzero;"/>
            </g>
            <g transform="matrix(1,0,0,1,24.926,6.79064)">
                <path d="M0,-0.399C-0.026,-0.334 -0.051,-0.272 -0.042,-0.203C-0.041,-0.196 -0.041,-0.189 -0.04,-0.181C-0.036,-0.15 -0.033,-0.118 -0.019,-0.1C0.083,0.034 0.215,0.14 0.374,0.217C0.383,0.217 0.405,0.208 0.415,0.197C0.501,0.098 0.536,-0.021 0.571,-0.137C0.593,-0.212 0.614,-0.283 0.648,-0.347L0.648,-0.392C0.648,-0.415 0.648,-0.432 0.647,-0.449C0.644,-0.532 0.566,-0.612 0.489,-0.613C0.367,-0.616 0.236,-0.613 0.089,-0.607C0.076,-0.606 0.052,-0.59 0.047,-0.581C0.047,-0.516 0.023,-0.456 0,-0.399" style="fill:rgb(160,217,213);fill-rule:nonzero;"/>
            </g>
            <g transform="matrix(1,0,0,1,30.573,2.36664)">
                <path d="M0,1.659C0.102,1.664 0.207,1.664 0.309,1.662C0.347,1.662 0.385,1.661 0.424,1.661L0.443,1.66C0.589,1.66 0.733,1.661 0.881,1.661C0.991,1.661 1.101,1.66 1.21,1.659C1.318,1.657 1.395,1.582 1.396,1.476C1.397,1.178 1.397,0.88 1.398,0.581L1.398,0.183C1.398,0.17 1.397,0.158 1.396,0.145C1.389,0.079 1.316,0.005 1.257,0.003C1.184,0.003 1.109,0.003 1.036,0.004C0.91,0.005 0.779,0.008 0.65,-0.002C0.468,-0.015 0.381,0.086 0.312,0.199C0.284,0.243 0.258,0.291 0.25,0.337C0.219,0.5 0.143,0.643 0.068,0.782C0.056,0.805 0.043,0.829 0.031,0.852C-0.012,0.934 -0.045,1.021 -0.077,1.105C-0.109,1.191 -0.143,1.279 -0.186,1.362C-0.219,1.425 -0.251,1.49 -0.282,1.553C-0.294,1.58 -0.307,1.606 -0.32,1.632C-0.254,1.674 -0.182,1.669 -0.105,1.662C-0.07,1.66 -0.035,1.657 0,1.659M0.598,0.729C0.616,0.717 0.678,0.68 0.725,0.702C0.79,0.734 0.795,0.798 0.792,0.85C0.79,0.893 0.774,0.929 0.748,0.95C0.732,0.963 0.713,0.97 0.693,0.97C0.688,0.97 0.685,0.97 0.68,0.969C0.627,0.962 0.525,0.881 0.522,0.835C0.52,0.795 0.56,0.754 0.598,0.729" style="fill:rgb(160,217,213);fill-rule:nonzero;"/>
            </g>
            <g transform="matrix(1,0,0,1,19.12,10.5566)">
                <path d="M0,0.603C0.043,0.689 0.088,0.777 0.129,0.865C0.199,1.016 0.32,1.093 0.49,1.094C0.68,1.095 0.871,1.095 1.062,1.095L1.298,1.094C1.473,1.094 1.649,1.095 1.827,1.095C1.947,1.095 2.068,1.094 2.188,1.093C2.339,1.091 2.477,0.954 2.479,0.806C2.479,0.658 2.478,0.508 2.477,0.362C2.476,0.227 2.475,0.092 2.476,-0.043C2.476,-0.169 2.408,-0.27 2.348,-0.359C2.288,-0.448 2.205,-0.492 2.096,-0.492L2.092,-0.492C1.364,-0.483 0.802,-0.483 0.272,-0.49L0.265,-0.49C0.181,-0.49 0.102,-0.464 0.026,-0.44C-0.019,-0.426 -0.064,-0.412 -0.111,-0.402C-0.181,-0.388 -0.212,-0.323 -0.245,-0.255C-0.259,-0.225 -0.274,-0.193 -0.293,-0.166C-0.323,-0.123 -0.307,-0.092 -0.286,-0.053C-0.277,-0.036 -0.268,-0.019 -0.263,0C-0.199,0.212 -0.098,0.41 0,0.603M1.257,0.207C1.297,0.194 1.344,0.205 1.385,0.238C1.433,0.276 1.46,0.332 1.456,0.384C1.449,0.472 1.368,0.477 1.325,0.481L1.309,0.481C1.272,0.481 1.241,0.471 1.219,0.452C1.197,0.433 1.184,0.404 1.182,0.37C1.179,0.3 1.183,0.231 1.257,0.207" style="fill:rgb(210,181,75);fill-rule:nonzero;"/>
            </g>
            <g transform="matrix(1,0,0,1,20.578,6.25264)">
                <path d="M0,2.06C0.018,2.095 0.038,2.131 0.059,2.164C0.089,2.21 0.126,2.231 0.174,2.231L0.175,2.231C0.359,2.23 0.543,2.229 0.727,2.229C0.854,2.228 0.98,2.228 1.106,2.227C1.124,2.227 1.18,2.227 1.181,2.143L1.181,1.069L1.179,1.049L1.179,0.822C1.178,0.52 1.178,0.218 1.179,-0.085C1.179,-0.138 1.153,-0.164 1.099,-0.164L0.485,-0.164C0.076,-0.165 -0.348,-0.165 -0.764,-0.171L-0.771,-0.171C-0.907,-0.171 -1.005,-0.119 -1.088,-0.005C-1.122,0.042 -1.126,0.079 -1.101,0.121C-1.038,0.228 -0.981,0.339 -0.926,0.447C-0.855,0.583 -0.783,0.723 -0.7,0.855C-0.534,1.119 -0.378,1.393 -0.227,1.659C-0.164,1.77 -0.102,1.881 -0.038,1.991C-0.024,2.014 -0.012,2.037 0,2.06M0.243,0.774C0.3,0.767 0.346,0.777 0.376,0.803C0.402,0.828 0.415,0.865 0.415,0.914C0.413,1.005 0.372,1.049 0.282,1.056C0.276,1.056 0.27,1.057 0.265,1.057C0.188,1.057 0.139,1.012 0.132,0.933C0.124,0.84 0.164,0.783 0.243,0.774" style="fill:rgb(200,108,88);fill-rule:nonzero;"/>
            </g>
            <g transform="matrix(1,0,0,1,17.816,7.49164)">
                <path d="M0,3.128C0.129,3.223 0.236,3.347 0.336,3.518C0.352,3.546 0.367,3.576 0.382,3.606C0.415,3.671 0.449,3.738 0.498,3.784C0.755,4.027 0.944,4.324 1.079,4.555C1.172,4.713 1.31,4.746 1.456,4.78L1.489,4.788C1.539,4.8 1.592,4.797 1.649,4.794C1.675,4.792 1.701,4.791 1.726,4.791L2.444,4.791C3.042,4.791 3.64,4.791 4.237,4.792L4.315,4.792C4.41,4.792 4.508,4.792 4.604,4.801C4.687,4.809 4.766,4.864 4.816,4.948C4.868,5.036 4.878,5.137 4.842,5.219C4.829,5.247 4.816,5.276 4.802,5.304C4.757,5.393 4.716,5.477 4.716,5.582C4.721,6.147 4.721,6.722 4.721,7.277C4.721,7.495 4.722,7.713 4.722,7.932C4.722,7.947 4.721,7.963 4.72,7.979C4.717,8.018 4.714,8.057 4.729,8.08C4.786,8.165 4.821,8.261 4.855,8.353C4.884,8.432 4.914,8.514 4.957,8.588C5.039,8.726 5.131,8.86 5.221,8.99C5.28,9.075 5.341,9.162 5.398,9.25C5.501,9.411 5.612,9.579 5.728,9.749C5.759,9.796 5.795,9.822 5.835,9.829C5.876,9.837 5.925,9.821 5.976,9.784C5.994,9.771 6.011,9.756 6.028,9.742C6.071,9.705 6.117,9.667 6.178,9.645C6.194,9.64 6.204,9.631 6.208,9.617C6.215,9.596 6.208,9.567 6.189,9.541C6.176,9.522 6.164,9.505 6.151,9.486C6.102,9.418 6.052,9.348 6.011,9.272C5.94,9.14 5.877,9.008 5.885,8.848C5.893,8.686 5.891,8.521 5.889,8.361C5.888,8.294 5.887,8.228 5.887,8.161C5.887,8.121 5.887,8.08 5.888,8.04C5.89,7.947 5.891,7.851 5.883,7.758C5.875,7.67 5.817,7.613 5.756,7.552C5.713,7.509 5.668,7.464 5.639,7.407C5.561,7.249 5.411,7.145 5.199,7.106C5.174,7.102 5.146,7.097 5.126,7.08C5.105,7.062 5.09,7.026 5.092,6.997C5.094,6.971 5.115,6.922 5.144,6.917C5.297,6.892 5.471,6.88 5.606,7.034C5.671,7.11 5.744,7.182 5.814,7.252C5.838,7.277 5.862,7.301 5.886,7.325C5.901,7.34 5.92,7.355 5.952,7.374C5.953,7.374 5.959,7.371 5.971,7.347C6.04,7.207 6.035,7.193 5.97,7.13C5.915,7.075 5.86,7.021 5.804,6.967C5.744,6.908 5.683,6.849 5.623,6.789C5.522,6.69 5.411,6.635 5.283,6.621C5.269,6.62 5.255,6.619 5.241,6.618C5.215,6.616 5.187,6.615 5.16,6.609C5.136,6.605 5.115,6.585 5.099,6.555C5.079,6.517 5.069,6.457 5.09,6.41C5.112,6.362 5.162,6.338 5.21,6.351C5.237,6.358 5.263,6.369 5.287,6.381C5.324,6.397 5.358,6.412 5.394,6.412C5.534,6.412 5.625,6.485 5.688,6.548C5.743,6.603 5.798,6.657 5.853,6.711C5.932,6.79 6.012,6.868 6.091,6.948C6.101,6.958 6.11,6.963 6.116,6.963C6.125,6.963 6.136,6.949 6.145,6.937C6.149,6.934 6.152,6.93 6.155,6.926C6.177,6.901 6.197,6.867 6.211,6.83C6.243,6.748 6.274,6.665 6.305,6.582C6.356,6.445 6.409,6.302 6.465,6.164C6.511,6.055 6.597,6.001 6.706,6.008C6.771,6.013 6.839,6.008 6.908,6.013C6.969,6.018 7.025,5.996 7.072,5.946C7.163,5.848 7.279,5.793 7.438,5.773C7.465,5.77 7.485,5.758 7.498,5.738C7.513,5.715 7.516,5.684 7.504,5.643C7.498,5.622 7.491,5.6 7.482,5.579C7.455,5.517 7.427,5.454 7.398,5.391C7.333,5.251 7.267,5.105 7.218,4.956C7.178,4.834 7.133,4.717 7.028,4.628C6.987,4.592 6.958,4.537 6.928,4.493C6.89,4.526 6.468,4.929 6.477,4.642C6.479,4.543 6.629,4.44 6.69,4.376C6.708,4.358 6.716,4.303 6.707,4.29C6.617,4.168 6.616,4.033 6.616,3.901C6.616,3.86 6.616,3.816 6.613,3.775C6.611,3.754 6.6,3.73 6.588,3.722C6.527,3.677 6.284,3.699 6.233,3.753C6.196,3.792 6.158,3.829 6.121,3.867C6.02,3.968 5.915,4.073 5.836,4.201C5.73,4.374 5.552,4.455 5.334,4.429C5.31,4.426 5.279,4.417 5.26,4.392C5.248,4.374 5.244,4.353 5.249,4.328C5.263,4.262 5.28,4.25 5.294,4.247C5.499,4.195 5.665,4.073 5.787,3.882C5.823,3.827 5.862,3.777 5.9,3.727C5.919,3.704 5.936,3.68 5.954,3.657C5.983,3.617 5.968,3.591 5.931,3.537C5.885,3.469 5.815,3.457 5.74,3.443C5.711,3.437 5.681,3.432 5.652,3.422C5.477,3.365 5.405,3.235 5.353,3.102C5.329,3.043 5.329,2.975 5.329,2.909L5.328,2.653C5.327,2.203 5.325,1.737 5.331,1.278C5.332,1.14 5.308,1.05 5.175,0.97C5.116,0.933 5.064,0.884 5.014,0.837C4.942,0.767 4.867,0.695 4.765,0.664C4.737,0.655 4.711,0.613 4.707,0.583C4.706,0.563 4.709,0.546 4.72,0.533C4.738,0.511 4.77,0.508 4.802,0.506C4.941,0.492 5.099,0.5 5.215,0.656C5.258,0.714 5.318,0.763 5.376,0.811L5.387,0.82C5.402,0.833 5.423,0.839 5.442,0.837C5.453,0.835 5.461,0.83 5.466,0.822C5.508,0.758 5.573,0.715 5.635,0.674C5.736,0.609 5.83,0.547 5.836,0.402C5.838,0.357 5.873,0.323 5.907,0.291C6.11,0.095 5.688,-0.001 5.758,-0.206C5.825,-0.4 5.994,-0.188 6.069,-0.114C6.085,-0.098 6.101,-0.082 6.115,-0.082C6.122,-0.082 6.131,-0.087 6.14,-0.096C6.148,-0.104 6.156,-0.111 6.165,-0.119C6.199,-0.149 6.219,-0.168 6.209,-0.208C6.206,-0.223 6.203,-0.233 6.199,-0.239C6.072,-0.438 6.141,-0.624 6.208,-0.803C6.22,-0.838 6.233,-0.871 6.244,-0.905C6.286,-1.032 6.402,-1.114 6.544,-1.114C6.561,-1.114 6.578,-1.113 6.596,-1.111C6.652,-1.108 6.706,-1.104 6.759,-1.132C6.707,-1.207 6.656,-1.283 6.604,-1.358C6.476,-1.545 6.344,-1.739 6.206,-1.924C6.075,-2.101 5.925,-2.275 5.676,-2.289C5.652,-2.291 5.612,-2.293 5.596,-2.321C5.586,-2.337 5.587,-2.357 5.599,-2.381C5.618,-2.419 5.654,-2.462 5.694,-2.474C5.846,-2.518 5.959,-2.497 6.05,-2.407C6.151,-2.307 6.253,-2.207 6.353,-2.109L6.44,-2.023C6.493,-2.046 6.516,-2.094 6.539,-2.145C6.552,-2.173 6.566,-2.201 6.584,-2.227C6.64,-2.305 6.719,-2.341 6.812,-2.327L6.833,-2.324C6.881,-2.318 6.931,-2.311 6.972,-2.288C7.043,-2.246 7.119,-2.247 7.196,-2.248C7.224,-2.249 7.251,-2.249 7.283,-2.247C7.313,-2.247 7.332,-2.264 7.343,-2.301C7.348,-2.321 7.349,-2.344 7.349,-2.367C7.35,-2.384 7.351,-2.402 7.353,-2.42C7.379,-2.591 7.441,-2.652 7.597,-2.66C7.627,-2.662 7.658,-2.661 7.687,-2.661C7.724,-2.662 7.762,-2.661 7.798,-2.664C7.809,-2.666 7.812,-2.668 7.813,-2.669C7.813,-2.669 7.816,-2.674 7.807,-2.693C7.782,-2.754 7.758,-2.817 7.735,-2.877C7.716,-2.927 7.697,-2.976 7.678,-3.025C7.649,-3.096 7.62,-3.165 7.59,-3.235C7.538,-3.358 7.484,-3.485 7.437,-3.613C7.318,-3.939 7.18,-4.264 7.047,-4.578C6.952,-4.802 6.854,-5.034 6.763,-5.264C6.698,-5.428 6.63,-5.594 6.563,-5.755C6.525,-5.848 6.486,-5.941 6.448,-6.034L6.424,-6.094C6.349,-6.28 6.272,-6.472 6.089,-6.598C6.048,-6.625 6.007,-6.654 5.965,-6.661C5.65,-6.709 5.354,-6.637 5.11,-6.449C4.806,-6.214 4.537,-5.914 4.311,-5.558C4.255,-5.47 4.228,-5.374 4.229,-5.266C4.235,-4.807 4.234,-4.34 4.234,-3.889C4.233,-3.7 4.233,-3.511 4.233,-3.322C4.233,-3.135 4.289,-2.917 4.387,-2.724C4.394,-2.71 4.402,-2.696 4.409,-2.683C4.434,-2.637 4.459,-2.59 4.471,-2.54C4.494,-2.441 4.475,-2.351 4.418,-2.288C4.363,-2.226 4.276,-2.197 4.188,-2.206C4.181,-2.208 4.174,-2.208 4.167,-2.209C4.131,-2.212 4.09,-2.216 4.063,-2.239C3.997,-2.296 3.919,-2.294 3.838,-2.295L3.807,-2.294C2.835,-2.296 1.862,-2.298 0.891,-2.297C0.822,-2.297 0.756,-2.291 0.695,-2.28C0.667,-2.275 0.629,-2.235 0.608,-2.191C0.595,-2.161 0.591,-2.134 0.599,-2.12C0.642,-2.048 0.66,-1.972 0.656,-1.879C0.654,-1.843 0.654,-1.808 0.655,-1.772L0.655,-1.718C0.655,-1.652 0.656,-1.586 0.656,-1.521C0.657,-1.346 0.657,-1.166 0.652,-0.988C0.651,-0.951 0.636,-0.914 0.623,-0.878C0.607,-0.837 0.591,-0.797 0.601,-0.769C0.615,-0.729 0.628,-0.689 0.64,-0.649C0.681,-0.518 0.724,-0.382 0.805,-0.261C0.871,-0.165 0.949,-0.076 1.025,0.01C1.089,0.082 1.154,0.156 1.212,0.235C1.41,0.505 1.597,0.741 1.785,0.954C1.99,1.186 2.198,1.443 2.334,1.745C2.372,1.829 2.369,1.916 2.327,1.983C2.286,2.045 2.215,2.081 2.13,2.082C2.055,2.083 1.979,2.084 1.904,2.085C1.646,2.09 1.378,2.094 1.116,2.078C0.996,2.073 0.876,2.096 0.76,2.12C0.646,2.145 0.527,2.171 0.403,2.163C0.385,2.163 0.361,2.173 0.349,2.186C0.306,2.231 0.26,2.274 0.216,2.316C0.098,2.426 -0.024,2.539 -0.093,2.695C-0.183,2.898 -0.159,3.012 0,3.128M4.679,-4.334L4.68,-4.354L4.68,-4.532C4.679,-4.679 4.678,-4.831 4.681,-4.98C4.684,-5.179 4.831,-5.33 5.022,-5.332C5.122,-5.333 5.222,-5.331 5.321,-5.33C5.474,-5.328 5.633,-5.326 5.788,-5.332C5.979,-5.341 6.103,-5.249 6.165,-5.06C6.245,-4.817 6.35,-4.578 6.451,-4.347C6.511,-4.211 6.573,-4.07 6.63,-3.93C6.652,-3.872 6.674,-3.813 6.694,-3.755C6.759,-3.569 6.826,-3.377 6.972,-3.23C6.988,-3.214 6.987,-3.189 6.986,-3.165C6.985,-3.156 6.984,-3.147 6.985,-3.139C6.989,-3.084 6.96,-3.043 6.911,-3.031C6.905,-3.031 6.899,-3.03 6.893,-3.03C6.867,-3.03 6.836,-3.039 6.82,-3.057C6.804,-3.076 6.794,-3.098 6.785,-3.119C6.777,-3.134 6.77,-3.149 6.762,-3.162C6.716,-3.229 6.662,-3.258 6.583,-3.258L6.577,-3.258C6.281,-3.253 5.981,-3.254 5.69,-3.255C5.596,-3.255 5.501,-3.255 5.406,-3.256L5.347,-3.255C5.261,-3.255 5.171,-3.255 5.083,-3.258C4.844,-3.265 4.69,-3.414 4.681,-3.647C4.675,-3.807 4.676,-3.969 4.678,-4.125C4.678,-4.195 4.679,-4.265 4.679,-4.334M1.863,-0.323C1.802,-0.423 1.746,-0.528 1.691,-0.629C1.634,-0.734 1.575,-0.843 1.511,-0.946C1.44,-1.06 1.418,-1.165 1.442,-1.265C1.471,-1.384 1.542,-1.478 1.659,-1.552C1.787,-1.634 1.888,-1.681 2.023,-1.681L2.037,-1.681C2.276,-1.676 2.52,-1.676 2.755,-1.678C2.853,-1.678 2.951,-1.679 3.049,-1.679L3.338,-1.678C3.579,-1.678 3.82,-1.678 4.061,-1.677C4.112,-1.677 4.165,-1.675 4.224,-1.672C4.253,-1.67 4.28,-1.647 4.296,-1.612C4.313,-1.578 4.312,-1.541 4.295,-1.518C4.279,-1.496 4.26,-1.472 4.235,-1.455C4.174,-1.412 4.148,-1.356 4.149,-1.263C4.151,-0.787 4.151,-0.303 4.15,0.165L4.15,0.641C4.15,0.67 4.151,0.699 4.151,0.728L4.151,0.884C4.148,1.12 4.075,1.198 3.853,1.201C3.737,1.203 3.621,1.202 3.506,1.202L3.256,1.202C3.188,1.201 3.124,1.2 3.063,1.24C3.029,1.261 2.994,1.272 2.956,1.272C2.911,1.272 2.864,1.256 2.815,1.224C2.801,1.216 2.787,1.208 2.774,1.2C2.724,1.172 2.673,1.143 2.637,1.069C2.411,0.613 2.151,0.145 1.863,-0.323M0.839,2.708C0.969,2.546 1.127,2.374 1.378,2.372C1.693,2.368 2.014,2.369 2.324,2.369L2.692,2.37L2.711,2.369L3.004,2.368C3.298,2.369 3.591,2.368 3.883,2.369C3.96,2.369 4.026,2.374 4.086,2.385C4.11,2.389 4.122,2.417 4.134,2.445L4.139,2.457C4.148,2.478 4.149,2.498 4.142,2.515C4.134,2.531 4.12,2.544 4.099,2.55C4.075,2.558 4.049,2.563 4.025,2.569C4.011,2.571 3.998,2.574 3.984,2.577C3.95,2.586 3.922,2.604 3.913,2.625C3.908,2.635 3.908,2.644 3.913,2.653C3.919,2.667 3.927,2.68 3.934,2.693C3.959,2.738 3.985,2.784 3.985,2.846C3.984,3.23 3.986,3.624 3.99,4.018C3.992,4.107 3.954,4.179 3.875,4.237C3.693,4.371 3.514,4.434 3.315,4.434C3.302,4.434 3.289,4.434 3.276,4.433C2.784,4.414 2.307,4.421 1.903,4.43C1.587,4.437 1.364,4.301 1.182,3.988C1.153,3.937 1.138,3.884 1.123,3.832C1.109,3.782 1.096,3.736 1.071,3.691C1.011,3.588 0.961,3.476 0.912,3.368C0.89,3.321 0.868,3.273 0.846,3.225C0.84,3.214 0.834,3.202 0.827,3.191C0.812,3.166 0.797,3.14 0.794,3.111C0.792,3.087 0.79,3.063 0.786,3.038C0.773,2.925 0.759,2.808 0.839,2.708" style="fill:rgb(113,103,144);fill-rule:nonzero;"/>
            </g>
            <g transform="matrix(1,0,0,1,26.987,4.49964)">
                <path d="M0,-0.003L0,0.067C-0.001,0.123 -0.002,0.181 0.002,0.237C0.005,0.279 0.017,0.316 0.034,0.334C0.137,0.447 0.2,0.581 0.261,0.711C0.28,0.752 0.339,0.753 0.383,0.741C0.421,0.73 0.456,0.71 0.47,0.688C0.506,0.634 0.541,0.577 0.574,0.521C0.614,0.455 0.655,0.386 0.7,0.321C0.769,0.223 0.767,0.118 0.766,0.007C0.765,-0.039 0.764,-0.088 0.769,-0.136C0.777,-0.213 0.737,-0.264 0.694,-0.318C0.682,-0.334 0.669,-0.351 0.657,-0.368C0.614,-0.431 0.573,-0.497 0.533,-0.561C0.504,-0.608 0.474,-0.655 0.444,-0.701C0.422,-0.736 0.397,-0.755 0.374,-0.756L0.372,-0.756C0.354,-0.756 0.336,-0.746 0.319,-0.724C0.23,-0.612 0.137,-0.487 0.034,-0.343C0.016,-0.317 0.004,-0.28 0.001,-0.243C-0.003,-0.187 -0.002,-0.13 -0.001,-0.075L-0.001,-0.022L0,-0.003Z" style="fill:rgb(120,89,166);fill-rule:nonzero;"/>
            </g>
            <g transform="matrix(1,0,0,1,28.579,5.59064)">
                <path d="M0,0.02C0.052,0.101 0.116,0.2 0.117,0.322C0.118,0.359 0.156,0.409 0.191,0.438C0.206,0.451 0.219,0.462 0.231,0.473C0.321,0.553 0.342,0.572 0.456,0.448C0.486,0.414 0.518,0.383 0.549,0.352C0.584,0.318 0.62,0.283 0.652,0.247C0.747,0.139 0.794,0.047 0.733,-0.077C0.716,-0.112 0.719,-0.153 0.722,-0.194C0.723,-0.211 0.725,-0.228 0.724,-0.244C0.723,-0.277 0.723,-0.307 0.723,-0.334C0.721,-0.444 0.721,-0.505 0.696,-0.528C0.671,-0.552 0.607,-0.55 0.492,-0.546L0.421,-0.544L0.42,-0.544C0.396,-0.544 0.374,-0.544 0.35,-0.545L0.282,-0.545C0.248,-0.545 0.215,-0.545 0.182,-0.541C0.149,-0.538 0.11,-0.519 0.095,-0.498L0.083,-0.481C-0.026,-0.326 -0.129,-0.181 0,0.02" style="fill:rgb(210,181,75);fill-rule:nonzero;"/>
            </g>
            <g transform="matrix(1,0,0,1,27.782,4.54664)">
                <path d="M0,0.689C0.129,0.697 0.213,0.759 0.257,0.877C0.261,0.888 0.271,0.899 0.281,0.91C0.282,0.911 0.284,0.913 0.285,0.915L0.291,0.911C0.306,0.901 0.321,0.891 0.336,0.88C0.461,0.781 0.544,0.645 0.625,0.513C0.652,0.468 0.68,0.422 0.709,0.377C0.748,0.32 0.765,0.267 0.73,0.183C0.696,0.103 0.692,0.011 0.689,-0.078C0.687,-0.123 0.685,-0.17 0.68,-0.214C0.676,-0.216 0.652,-0.226 0.643,-0.226L0.641,-0.226C0.612,-0.216 0.58,-0.196 0.552,-0.169C0.382,-0.008 0.247,0.185 0.116,0.372C0.06,0.451 0.003,0.532 -0.055,0.61C-0.061,0.618 -0.06,0.632 -0.054,0.648C-0.045,0.667 -0.024,0.687 0,0.689" style="fill:rgb(113,103,144);fill-rule:nonzero;"/>
            </g>
            <g transform="matrix(1,0,0,1,29.362,13.3276)">
                <path d="M0,-8.493C0.047,-8.49 0.111,-8.476 0.134,-8.391C0.155,-8.309 0.182,-8.223 0.217,-8.128C0.224,-8.109 0.244,-8.075 0.29,-8.083C0.313,-8.086 0.336,-8.087 0.359,-8.087C0.404,-8.089 0.446,-8.09 0.482,-8.106C0.782,-8.235 0.857,-8.142 0.98,-7.989C0.99,-7.976 1.001,-7.963 1.012,-7.949C1.023,-7.935 1.028,-7.918 1.032,-7.903C1.034,-7.891 1.037,-7.88 1.042,-7.873C1.051,-7.858 1.067,-7.85 1.088,-7.849C1.112,-7.848 1.133,-7.858 1.145,-7.875C1.17,-7.906 1.193,-7.939 1.216,-7.972C1.254,-8.026 1.293,-8.082 1.337,-8.132C1.484,-8.3 1.659,-8.362 1.857,-8.314C1.886,-8.307 1.907,-8.263 1.911,-8.236C1.914,-8.214 1.905,-8.177 1.892,-8.16C1.887,-8.153 1.88,-8.149 1.873,-8.148C1.719,-8.127 1.616,-8.087 1.558,-8.027C1.511,-7.977 1.465,-7.92 1.421,-7.865C1.391,-7.827 1.361,-7.789 1.33,-7.752C1.152,-7.546 1.007,-7.312 0.866,-7.085L0.812,-6.999C0.803,-6.984 0.799,-6.972 0.802,-6.966C0.805,-6.959 0.818,-6.954 0.835,-6.952C0.863,-6.948 0.89,-6.948 0.92,-6.95C0.96,-6.95 0.999,-6.951 1.038,-6.942C1.204,-6.9 1.318,-6.778 1.336,-6.624C1.339,-6.596 1.343,-6.569 1.347,-6.541C1.37,-6.368 1.395,-6.19 1.304,-6.019C1.284,-5.983 1.298,-5.973 1.332,-5.951C1.346,-5.943 1.359,-5.935 1.37,-5.924C1.38,-5.912 1.395,-5.905 1.412,-5.904C1.426,-5.904 1.439,-5.91 1.45,-5.92L1.48,-5.948C1.554,-6.019 1.636,-6.214 1.764,-6.157C1.952,-6.072 1.71,-5.864 1.648,-5.799L1.633,-5.784C1.596,-5.744 1.553,-5.701 1.544,-5.656C1.541,-5.643 1.576,-5.61 1.597,-5.589C1.611,-5.576 1.625,-5.563 1.635,-5.55C1.672,-5.507 1.675,-5.457 1.677,-5.41C1.678,-5.388 1.678,-5.368 1.683,-5.348C1.699,-5.272 1.712,-5.263 1.713,-5.262C1.806,-5.238 1.866,-5.175 1.924,-5.114C1.959,-5.077 1.993,-5.041 2.034,-5.014C2.077,-4.987 2.129,-4.989 2.164,-5.016C2.246,-5.083 2.324,-5.16 2.399,-5.233L2.429,-5.262C2.53,-5.361 2.651,-5.338 2.749,-5.319C2.778,-5.314 2.798,-5.264 2.8,-5.24C2.802,-5.216 2.791,-5.162 2.761,-5.152C2.562,-5.085 2.415,-4.95 2.28,-4.817C2.195,-4.734 2.163,-4.659 2.164,-4.55C2.171,-3.983 2.169,-3.406 2.167,-2.849C2.165,-2.59 2.059,-2.445 1.832,-2.391C1.708,-2.362 1.62,-2.304 1.532,-2.19C1.546,-2.176 1.559,-2.162 1.573,-2.148C1.612,-2.108 1.652,-2.068 1.687,-2.024C1.718,-1.986 1.746,-1.946 1.774,-1.907C1.814,-1.85 1.856,-1.791 1.905,-1.74C1.954,-1.689 2.021,-1.672 2.092,-1.655C2.151,-1.641 2.212,-1.626 2.264,-1.589C2.295,-1.567 2.305,-1.513 2.307,-1.472C2.309,-1.441 2.253,-1.414 2.229,-1.411C2.152,-1.401 2.069,-1.396 1.983,-1.432C1.804,-1.507 1.662,-1.634 1.563,-1.808C1.52,-1.884 1.463,-1.942 1.403,-2.003C1.378,-2.028 1.354,-2.053 1.331,-2.079C1.299,-2.114 1.259,-2.131 1.206,-2.131L1.182,-2.131C1.16,-2.131 1.139,-2.131 1.118,-2.132C1.092,-2.133 1.065,-2.133 1.04,-2.133C0.996,-2.132 0.971,-2.126 0.958,-2.112C0.946,-2.098 0.941,-2.073 0.945,-2.031C0.958,-1.861 0.916,-1.709 0.814,-1.567C0.768,-1.501 0.79,-1.468 0.811,-1.449C0.882,-1.386 1.078,-1.251 0.912,-1.162C0.806,-1.106 0.704,-1.24 0.637,-1.302C0.625,-1.312 0.606,-1.317 0.589,-1.314C0.577,-1.311 0.569,-1.305 0.565,-1.294C0.54,-1.224 0.492,-1.174 0.447,-1.126C0.428,-1.107 0.409,-1.087 0.393,-1.067C0.387,-1.059 0.38,-1.052 0.374,-1.045C0.346,-1.012 0.316,-0.978 0.308,-0.943C0.28,-0.81 0.224,-0.688 0.171,-0.569C0.134,-0.486 0.095,-0.4 0.066,-0.313C0.058,-0.288 0.054,-0.262 0.05,-0.235C0.043,-0.185 0.036,-0.135 0.003,-0.09C0.024,-0.061 0.053,-0.058 0.097,-0.056C0.13,-0.054 0.168,-0.052 0.199,-0.029C0.226,-0.009 0.257,0.004 0.289,0.018C0.343,0.041 0.4,0.065 0.439,0.12C0.471,0.165 0.52,0.175 0.558,0.175L0.598,0.175C0.633,0.175 0.669,0.176 0.704,0.176C0.738,0.176 0.772,0.175 0.805,0.171C0.933,0.155 1.017,0.21 1.064,0.343C1.088,0.41 1.118,0.476 1.146,0.541C1.16,0.572 1.173,0.604 1.186,0.635L1.236,0.753C1.276,0.848 1.316,0.943 1.357,1.037C1.364,1.053 1.381,1.065 1.403,1.07C1.425,1.075 1.448,1.069 1.468,1.049C1.562,0.959 1.658,0.867 1.749,0.772C1.886,0.63 2.066,0.585 2.24,0.542C2.271,0.534 2.301,0.526 2.34,0.517C2.381,0.517 2.434,0.588 2.463,0.632C2.468,0.64 2.481,0.66 2.388,0.743C2.369,0.76 2.337,0.779 2.302,0.779C2.137,0.761 2.029,0.855 1.931,0.951C1.901,0.982 1.871,1.013 1.842,1.044C1.754,1.14 1.661,1.239 1.535,1.3C1.527,1.304 1.515,1.348 1.517,1.389C1.519,1.422 1.539,1.459 1.557,1.49C1.572,1.516 1.593,1.533 1.613,1.534C1.628,1.534 1.639,1.523 1.645,1.514C1.662,1.49 1.678,1.465 1.694,1.44C1.72,1.398 1.748,1.354 1.781,1.316C1.926,1.147 2.088,1.063 2.273,1.063C2.315,1.063 2.359,1.068 2.404,1.077C2.415,1.079 2.454,1.094 2.451,1.118C2.449,1.148 2.442,1.172 2.43,1.191C2.401,1.239 2.355,1.255 2.309,1.27L2.288,1.278C2.088,1.352 1.925,1.493 1.759,1.736C1.692,1.836 1.664,1.924 1.668,2.022C1.676,2.184 1.674,2.348 1.672,2.507C1.671,2.627 1.669,2.751 1.672,2.873C1.676,3.058 1.61,3.223 1.542,3.376C1.513,3.441 1.47,3.5 1.429,3.558C1.408,3.587 1.388,3.616 1.368,3.647C1.327,3.711 1.34,3.792 1.399,3.835C1.459,3.88 1.522,3.923 1.582,3.965C1.608,3.984 1.634,4.001 1.66,4.019C1.676,4.031 1.691,4.035 1.705,4.033C1.722,4.03 1.739,4.016 1.756,3.991C1.8,3.926 1.838,3.857 1.876,3.789C1.915,3.72 1.955,3.648 2.002,3.581C2.062,3.492 2.126,3.404 2.188,3.319C2.333,3.12 2.483,2.913 2.596,2.687C2.705,2.467 2.773,2.291 2.774,2.097C2.774,1.285 2.775,0.602 2.774,-0.09C2.774,-0.123 2.775,-0.157 2.776,-0.191C2.781,-0.331 2.786,-0.462 2.702,-0.587C2.674,-0.627 2.678,-0.687 2.683,-0.744C2.684,-0.762 2.685,-0.78 2.686,-0.797C2.687,-0.925 2.777,-1.027 2.895,-1.035C3.012,-1.041 3.137,-1.044 3.301,-1.045L3.873,-1.045C4.549,-1.047 5.247,-1.048 5.942,-1.043C6.219,-1.043 6.392,-1.142 6.504,-1.362C6.577,-1.503 6.651,-1.613 6.731,-1.697C6.944,-1.92 7.111,-2.182 7.273,-2.435L7.315,-2.501C7.384,-2.609 7.45,-2.676 7.518,-2.706C7.621,-2.754 7.639,-2.818 7.634,-2.907C7.633,-2.935 7.635,-2.965 7.637,-2.994C7.642,-3.06 7.647,-3.122 7.608,-3.171C7.571,-3.218 7.536,-3.269 7.502,-3.317C7.424,-3.43 7.343,-3.546 7.23,-3.631C7.197,-3.657 7.161,-3.672 7.134,-3.672C7.02,-3.673 6.911,-3.7 6.806,-3.726C6.784,-3.731 6.762,-3.737 6.74,-3.742C6.644,-3.765 6.537,-3.76 6.434,-3.756C6.389,-3.754 6.345,-3.753 6.301,-3.753L5.991,-3.753C5.802,-3.753 5.604,-3.753 5.41,-3.755C5.287,-3.756 5.197,-3.853 5.197,-3.985C5.197,-4.054 5.197,-4.123 5.243,-4.188C5.264,-4.218 5.282,-4.252 5.3,-4.285C5.319,-4.321 5.339,-4.359 5.364,-4.392C5.534,-4.62 5.688,-4.825 5.851,-5.027C5.956,-5.158 6.066,-5.29 6.172,-5.417C6.335,-5.613 6.504,-5.816 6.663,-6.021C6.775,-6.166 6.902,-6.33 6.902,-6.544L6.905,-7.973C6.905,-7.982 6.906,-7.991 6.905,-8C6.901,-8.03 6.815,-8.125 6.79,-8.126C6.715,-8.131 6.637,-8.133 6.548,-8.133C5.644,-8.133 4.739,-8.132 3.835,-8.13L3.803,-8.13C3.684,-8.13 3.571,-8.128 3.457,-8.063C3.341,-7.997 3.198,-8.036 3.109,-8.157C3.102,-8.166 3.093,-8.175 3.084,-8.184C3.074,-8.195 3.064,-8.205 3.055,-8.218C3.014,-8.276 3.01,-8.331 3.047,-8.387C3.059,-8.407 3.07,-8.431 3.08,-8.454C3.098,-8.493 3.115,-8.534 3.147,-8.563C3.241,-8.647 3.26,-8.749 3.259,-8.875L3.259,-9.153C3.258,-9.792 3.257,-10.453 3.265,-11.102C3.268,-11.297 3.209,-11.453 3.077,-11.596C2.985,-11.696 2.898,-11.803 2.813,-11.906C2.78,-11.946 2.747,-11.985 2.714,-12.025C2.427,-12.367 2.081,-12.528 1.685,-12.506C1.466,-12.493 1.329,-12.407 1.256,-12.236C1.209,-12.125 1.155,-12.015 1.103,-11.909C1.023,-11.746 0.94,-11.577 0.883,-11.405C0.85,-11.307 0.805,-11.215 0.761,-11.125C0.712,-11.023 0.665,-10.927 0.634,-10.822C0.594,-10.686 0.538,-10.555 0.484,-10.429C0.456,-10.364 0.428,-10.297 0.402,-10.231C0.302,-9.976 0.193,-9.72 0.087,-9.473C0.033,-9.348 -0.02,-9.222 -0.073,-9.096C-0.131,-8.959 -0.189,-8.811 -0.265,-8.619C-0.277,-8.588 -0.275,-8.555 -0.26,-8.531C-0.246,-8.511 -0.226,-8.499 -0.202,-8.498C-0.135,-8.494 -0.067,-8.497 0,-8.493M5.211,-3.466C5.522,-3.465 5.842,-3.465 6.159,-3.467L6.164,-3.467C6.274,-3.467 6.356,-3.436 6.427,-3.367C6.465,-3.329 6.5,-3.296 6.531,-3.266C6.818,-2.987 6.821,-2.977 6.704,-2.699C6.679,-2.638 6.648,-2.563 6.613,-2.468C6.589,-2.406 6.561,-2.344 6.535,-2.285C6.498,-2.203 6.46,-2.118 6.433,-2.029C6.377,-1.846 6.247,-1.68 6.033,-1.521C5.932,-1.446 5.814,-1.407 5.693,-1.407L5.685,-1.407C5.234,-1.412 4.724,-1.418 4.229,-1.405C4.219,-1.404 4.21,-1.404 4.2,-1.404C3.967,-1.404 3.778,-1.487 3.609,-1.663C3.532,-1.744 3.499,-1.825 3.501,-1.928C3.505,-2.072 3.505,-2.218 3.504,-2.36C3.503,-2.445 3.503,-2.531 3.504,-2.617L3.504,-2.625C3.504,-2.727 3.504,-2.833 3.562,-2.938C3.584,-2.98 3.584,-3.038 3.583,-3.095C3.583,-3.119 3.582,-3.144 3.584,-3.168C3.588,-3.232 3.56,-3.257 3.478,-3.264C3.45,-3.267 3.425,-3.281 3.401,-3.295C3.391,-3.3 3.381,-3.306 3.371,-3.31L3.346,-3.322L3.365,-3.341C3.375,-3.352 3.386,-3.365 3.396,-3.378C3.42,-3.409 3.446,-3.441 3.481,-3.457C3.518,-3.473 3.562,-3.471 3.607,-3.469C3.62,-3.469 3.633,-3.468 3.646,-3.468L4.56,-3.468L5.211,-3.466ZM3.287,-7.486C3.337,-7.5 3.391,-7.512 3.446,-7.512C3.698,-7.514 3.952,-7.514 4.204,-7.514L4.437,-7.514L4.456,-7.515C4.664,-7.515 4.87,-7.514 5.081,-7.514C5.223,-7.514 5.365,-7.515 5.506,-7.516L5.513,-7.516C5.695,-7.516 5.852,-7.437 6.004,-7.267C6.03,-7.238 6.049,-7.193 6.054,-7.149C6.078,-6.942 6.043,-6.775 5.948,-6.637C5.794,-6.415 5.662,-6.175 5.534,-5.942C5.473,-5.832 5.41,-5.719 5.346,-5.609C5.319,-5.562 5.292,-5.516 5.264,-5.469C5.133,-5.247 4.997,-5.016 4.897,-4.772C4.864,-4.689 4.783,-4.656 4.705,-4.623L4.692,-4.639L4.7,-4.621C4.651,-4.601 4.609,-4.583 4.561,-4.583C4.531,-4.583 4.499,-4.59 4.462,-4.609C4.415,-4.632 4.354,-4.634 4.292,-4.634L4.236,-4.634C4.041,-4.637 3.83,-4.638 3.59,-4.637L3.589,-4.637C3.482,-4.637 3.444,-4.703 3.399,-4.779C3.345,-4.871 3.345,-4.959 3.345,-5.053L3.345,-5.479C3.344,-6.004 3.344,-6.546 3.348,-7.079C3.348,-7.181 3.318,-7.247 3.245,-7.305C3.216,-7.328 3.203,-7.365 3.211,-7.403C3.22,-7.443 3.249,-7.476 3.287,-7.486M0.571,-9.083C0.77,-9.373 0.893,-9.704 1.012,-10.024C1.055,-10.139 1.099,-10.258 1.146,-10.374C1.177,-10.45 1.215,-10.526 1.251,-10.598C1.319,-10.734 1.388,-10.874 1.419,-11.027C1.433,-11.091 1.499,-11.158 1.588,-11.159C1.863,-11.162 2.227,-11.165 2.597,-11.164C2.691,-11.164 2.795,-11.068 2.806,-10.971C2.812,-10.92 2.815,-10.866 2.815,-10.808L2.816,-10.675C2.817,-10.282 2.818,-9.875 2.816,-9.476C2.815,-9.259 2.663,-9.099 2.456,-9.095C2.277,-9.092 2.095,-9.093 1.919,-9.093C1.849,-9.094 1.778,-9.094 1.708,-9.094L1.689,-9.092C1.546,-9.092 1.403,-9.091 1.258,-9.091C1.146,-9.091 1.033,-9.091 0.922,-9.094L0.913,-9.094C0.828,-9.094 0.791,-9.066 0.765,-8.988C0.749,-8.94 0.699,-8.905 0.654,-8.873L0.646,-8.868C0.638,-8.862 0.628,-8.86 0.618,-8.86C0.594,-8.86 0.565,-8.872 0.549,-8.884C0.528,-8.901 0.509,-8.942 0.516,-8.972C0.527,-9.015 0.553,-9.056 0.571,-9.083" style="fill:rgb(113,103,144);fill-rule:nonzero;"/>
            </g>
            <g transform="matrix(1,0,0,1,22.764,3.18764)">
                <path d="M0,0.022C0,0.059 -0.001,0.096 0,0.133C0.003,0.227 0.002,0.323 0.002,0.416C0.001,0.496 0.001,0.576 0.003,0.656C0.005,0.764 0.079,0.837 0.187,0.839C0.347,0.841 0.51,0.841 0.669,0.84L0.89,0.84C0.942,0.841 0.993,0.842 1.046,0.842C1.081,0.842 1.116,0.841 1.151,0.839C1.173,0.838 1.194,0.838 1.216,0.838C1.254,0.838 1.291,0.839 1.328,0.84C1.439,0.844 1.544,0.848 1.649,0.817C1.657,0.717 1.61,0.638 1.56,0.555C1.525,0.498 1.49,0.439 1.474,0.373C1.439,0.231 1.371,0.1 1.307,-0.027C1.26,-0.119 1.211,-0.213 1.174,-0.312C1.129,-0.433 1.075,-0.575 1.008,-0.71C0.972,-0.784 0.915,-0.819 0.835,-0.82C0.705,-0.817 0.573,-0.818 0.446,-0.818C0.361,-0.819 0.275,-0.819 0.191,-0.819C0.178,-0.818 0.163,-0.82 0.149,-0.82C0.098,-0.823 0.049,-0.826 0.02,-0.785C-0.024,-0.723 -0.051,-0.664 -0.058,-0.613L-0.062,-0.592C-0.074,-0.506 -0.09,-0.41 -0.057,-0.347C0.005,-0.223 0.002,-0.098 0,0.022M0.564,-0.019C0.597,-0.067 0.636,-0.125 0.711,-0.125C0.718,-0.125 0.726,-0.125 0.733,-0.124L0.741,-0.121C0.747,-0.116 0.755,-0.112 0.762,-0.108C0.783,-0.097 0.805,-0.086 0.808,-0.065C0.815,-0.019 0.824,0.044 0.804,0.093C0.783,0.142 0.736,0.153 0.696,0.153C0.678,0.153 0.661,0.15 0.648,0.149C0.605,0.143 0.57,0.118 0.554,0.082C0.539,0.05 0.543,0.013 0.564,-0.019" style="fill:rgb(160,217,213);fill-rule:nonzero;"/>
            </g>
            <g transform="matrix(1,0,0,1,26.226,4.83164)">
                <path d="M0,0.122C0.037,0.178 0.072,0.236 0.106,0.293C0.145,0.359 0.186,0.428 0.231,0.491L0.243,0.508C0.281,0.563 0.323,0.625 0.379,0.625C0.382,0.625 0.385,0.625 0.387,0.624C0.418,0.621 0.452,0.579 0.482,0.542C0.494,0.526 0.506,0.511 0.519,0.498C0.573,0.44 0.64,0.414 0.699,0.396C0.71,0.392 0.718,0.385 0.722,0.375C0.728,0.359 0.725,0.336 0.717,0.322C0.703,0.296 0.689,0.27 0.675,0.243C0.616,0.131 0.555,0.015 0.476,-0.083C0.393,-0.186 0.295,-0.28 0.2,-0.372C0.161,-0.409 0.122,-0.447 0.084,-0.485C0.069,-0.5 0.052,-0.503 0.043,-0.499C0.037,-0.496 0.034,-0.49 0.034,-0.48C0.036,-0.409 0.011,-0.344 -0.013,-0.281C-0.04,-0.21 -0.066,-0.142 -0.049,-0.072L-0.048,-0.068L-0.048,-0.064C-0.059,0.014 -0.037,0.067 0,0.122" style="fill:rgb(113,103,144);fill-rule:nonzero;"/>
            </g>
            <g transform="matrix(1,0,0,1,25.37,5.74264)">
                <path d="M0,-0.355L0,-0.262L-0.002,-0.254C-0.077,-0.092 0.053,0.038 0.192,0.158C0.231,0.192 0.268,0.23 0.304,0.266C0.333,0.296 0.363,0.327 0.393,0.355C0.401,0.362 0.427,0.367 0.434,0.365C0.454,0.341 0.486,0.33 0.516,0.319C0.558,0.304 0.595,0.291 0.61,0.239C0.656,0.086 0.699,-0.05 0.777,-0.165C0.857,-0.286 0.83,-0.384 0.759,-0.505C0.666,-0.661 0.565,-0.722 0.42,-0.697C0.384,-0.691 0.347,-0.694 0.312,-0.697C0.289,-0.699 0.266,-0.699 0.244,-0.7C0.053,-0.7 0.007,-0.655 0,-0.473L0,-0.355" style="fill:rgb(210,181,75);fill-rule:nonzero;"/>
            </g>
        </g>
    </g>
</svg>
