<?xml version="1.0" encoding="UTF-8" standalone="no"?>
<!DOCTYPE svg PUBLIC "-//W3C//DTD SVG 1.1//EN" "http://www.w3.org/Graphics/SVG/1.1/DTD/svg11.dtd">
<svg width="100%" height="100%" viewBox="0 0 20 20" version="1.1" xmlns="http://www.w3.org/2000/svg" xmlns:xlink="http://www.w3.org/1999/xlink" xml:space="preserve" xmlns:serif="http://www.serif.com/" style="fill-rule:evenodd;clip-rule:evenodd;stroke-linejoin:round;stroke-miterlimit:2;">
    <g transform="matrix(1.26049,0,0,1.26049,-2.60494,-2.60494)">
        <g id="Reikal">
            <g transform="matrix(1,0,0,1,13.67,13.2349)">
                <path d="M0,-1.493C-0.041,-1.472 -0.085,-1.449 -0.132,-1.448C-0.246,-1.444 -0.314,-1.376 -0.386,-1.304C-0.41,-1.28 -0.434,-1.256 -0.461,-1.234C-0.639,-1.083 -0.699,-0.944 -0.663,-0.769C-0.655,-0.729 -0.656,-0.689 -0.656,-0.651C-0.657,-0.584 -0.659,-0.52 -0.619,-0.463C-0.593,-0.426 -0.569,-0.388 -0.544,-0.349C-0.511,-0.299 -0.477,-0.246 -0.441,-0.196C-0.346,-0.068 -0.206,-0.018 -0.105,0.002C0.179,0.056 0.453,-0.028 0.652,-0.229C0.855,-0.435 0.942,-0.724 0.884,-1.002C0.859,-1.119 0.794,-1.228 0.704,-1.302C0.605,-1.384 0.489,-1.418 0.366,-1.455C0.298,-1.475 0.229,-1.495 0.164,-1.524C0.106,-1.549 0.055,-1.522 0,-1.493M0.266,-0.821L0.266,-0.809L0.267,-0.804L0.265,-0.799C0.261,-0.792 0.258,-0.783 0.256,-0.774C0.246,-0.747 0.238,-0.721 0.215,-0.716C0.168,-0.706 0.125,-0.7 0.086,-0.7C0.069,-0.7 0.053,-0.702 0.037,-0.703C0.009,-0.707 -0.015,-0.729 -0.027,-0.764C-0.039,-0.801 -0.039,-0.853 -0.01,-0.884C0.02,-0.915 0.067,-0.93 0.122,-0.927C0.178,-0.923 0.229,-0.899 0.258,-0.863C0.267,-0.85 0.267,-0.834 0.266,-0.821" style="fill:rgb(190,204,57);fill-rule:nonzero;"/>
            </g>
            <g transform="matrix(1,0,0,1,10.933,7.4889)">
                <path d="M0,-0.409C0.122,-0.41 0.245,-0.411 0.368,-0.412C0.412,-0.412 0.435,-0.433 0.436,-0.475C0.437,-0.499 0.43,-0.527 0.417,-0.549C0.374,-0.619 0.322,-0.651 0.247,-0.651C0.036,-0.65 -0.174,-0.65 -0.384,-0.651L-0.969,-0.651C-1.195,-0.651 -1.336,-0.723 -1.441,-0.892C-1.542,-1.054 -1.717,-1.122 -1.992,-1.113C-2.14,-1.107 -2.204,-1.007 -2.272,-0.901C-2.285,-0.88 -2.298,-0.86 -2.312,-0.84C-2.315,-0.836 -2.316,-0.831 -2.318,-0.825C-2.321,-0.816 -2.324,-0.806 -2.33,-0.798C-2.398,-0.704 -2.487,-0.647 -2.582,-0.637C-2.673,-0.626 -2.761,-0.658 -2.839,-0.727C-2.888,-0.77 -2.928,-0.82 -2.971,-0.873C-2.986,-0.892 -3.001,-0.911 -3.017,-0.93C-3.036,-0.911 -3.053,-0.894 -3.07,-0.878C-3.113,-0.836 -3.149,-0.799 -3.188,-0.765C-3.266,-0.695 -3.395,-0.692 -3.411,-0.579C-3.42,-0.518 -3.429,-0.455 -3.419,-0.394C-3.409,-0.332 -3.376,-0.272 -3.321,-0.243C-3.276,-0.221 -3.223,-0.222 -3.174,-0.216C-3.124,-0.21 -3.07,-0.192 -3.046,-0.148C-3.035,-0.129 -3.032,-0.105 -3.03,-0.083C-3.021,-0.002 -3.019,0.078 -3.022,0.159C-3.023,0.184 -3.025,0.21 -3.011,0.231C-2.987,0.268 -2.903,0.249 -2.866,0.262C-2.824,0.277 -2.79,0.308 -2.757,0.338L-2.747,0.347C-2.611,0.472 -2.445,0.564 -2.291,0.666C-2.257,0.689 -2.218,0.713 -2.178,0.708C-1.91,0.677 -1.7,0.248 -1.581,0.05C-1.426,-0.209 -1.229,-0.409 -0.908,-0.409L-0.89,-0.409C-0.593,-0.403 -0.291,-0.406 0,-0.409" style="fill:rgb(150,147,100);fill-rule:nonzero;"/>
            </g>
            <g transform="matrix(1,0,0,1,5.186,8.0669)">
                <path d="M0,0.223L0.008,0.223L0.008,0.219L0.028,0.219C0.056,0.219 0.084,0.22 0.11,0.22C0.127,0.22 0.144,0.22 0.16,0.219C0.177,0.217 0.191,0.206 0.2,0.188C0.212,0.164 0.21,0.135 0.197,0.115C0.18,0.09 0.16,0.067 0.142,0.048C0.112,0.015 0.085,-0.002 0.062,-0.002C0.06,-0.002 0.058,-0.001 0.056,-0.001C0.031,0.002 0.004,0.029 -0.023,0.079C-0.029,0.088 -0.034,0.098 -0.039,0.108C-0.056,0.137 -0.072,0.165 -0.081,0.194C-0.079,0.198 -0.063,0.217 -0.054,0.221C-0.038,0.225 -0.02,0.224 0,0.223" style="fill:rgb(91,67,90);fill-rule:nonzero;"/>
            </g>
            <g transform="matrix(1,0,0,1,3.126,8.9009)">
                <path d="M0,2.017L0.004,2.017C0.382,2.014 0.766,2.015 1.137,2.015L1.952,2.015C2.338,2.015 2.739,2.014 3.132,2.017L3.135,2.017C3.233,2.017 3.301,1.987 3.361,1.918C3.461,1.802 3.562,1.687 3.664,1.572C3.777,1.444 3.891,1.316 4.003,1.187C4.02,1.166 4.03,1.134 4.04,1.103C4.043,1.092 4.046,1.081 4.05,1.07C4.053,1.064 4.052,1.055 4.051,1.046L4.051,0.19C4.05,0.127 4.021,0.097 3.959,0.097C3.788,0.096 3.617,0.096 3.446,0.097C3.391,0.097 3.365,0.124 3.354,0.195C3.306,0.485 3.226,0.771 3.15,1.049C3.134,1.104 3.119,1.159 3.104,1.215C3.098,1.238 3.109,1.258 3.121,1.277C3.132,1.295 3.144,1.316 3.134,1.337C3.093,1.421 3.017,1.528 2.892,1.566C2.858,1.576 2.819,1.556 2.782,1.537C2.759,1.525 2.736,1.513 2.715,1.509C2.534,1.469 2.454,1.35 2.471,1.143C2.472,1.124 2.471,1.105 2.471,1.085C2.47,1.074 2.47,1.063 2.47,1.052C2.47,0.976 2.47,0.899 2.471,0.823C2.471,0.638 2.471,0.447 2.468,0.259C2.468,0.236 2.469,0.213 2.471,0.191C2.477,0.126 2.482,0.066 2.434,0.017L2.157,0.012C1.911,0.008 1.666,0.004 1.42,0.001C1.319,0 1.218,0.001 1.117,0.001C1.047,0.002 0.976,0.003 0.907,0.003C0.866,0.003 0.841,0.021 0.824,0.065C0.815,0.089 0.803,0.112 0.791,0.135C0.767,0.182 0.744,0.227 0.744,0.27C0.743,0.411 0.712,0.549 0.683,0.683C0.651,0.83 0.617,0.981 0.623,1.136C0.628,1.259 0.581,1.36 0.491,1.42C0.388,1.487 0.245,1.489 0.108,1.424C0.028,1.387 -0.062,1.344 -0.059,1.209C-0.055,1.035 -0.057,0.858 -0.058,0.687C-0.059,0.613 -0.059,0.537 -0.059,0.462L-0.059,0.136C-0.061,0.019 -0.078,0.003 -0.207,0L-0.23,0C-0.305,0 -0.345,0.009 -0.366,0.03C-0.386,0.05 -0.395,0.085 -0.395,0.148C-0.396,0.382 -0.396,0.616 -0.395,0.85C-0.395,1.114 -0.395,1.378 -0.396,1.641C-0.396,1.734 -0.368,1.808 -0.306,1.881C-0.226,1.975 -0.132,2.017 0,2.017" style="fill:rgb(91,67,90);fill-rule:nonzero;"/>
            </g>
            <g transform="matrix(1,0,0,1,6.916,9.4519)">
                <path d="M0,-0.693C0.079,-0.693 0.159,-0.692 0.238,-0.69C0.388,-0.687 0.492,-0.587 0.495,-0.441C0.5,-0.303 0.501,-0.162 0.501,-0.026C0.502,0.053 0.503,0.132 0.504,0.211C0.505,0.214 0.517,0.227 0.543,0.237C0.567,0.246 0.582,0.245 0.585,0.242L0.594,0.236C0.664,0.183 0.73,0.133 0.733,0.041C0.734,-0.037 0.735,-0.114 0.735,-0.192C0.736,-0.283 0.736,-0.378 0.739,-0.472C0.742,-0.59 0.848,-0.688 0.973,-0.689C1.065,-0.69 1.157,-0.688 1.247,-0.685L1.347,-0.683L1.353,-0.683C1.413,-0.683 1.459,-0.703 1.496,-0.744C1.544,-0.797 1.591,-0.851 1.638,-0.904C1.599,-0.939 1.549,-0.937 1.498,-0.934C1.483,-0.934 1.465,-0.934 1.453,-0.933C1.287,-0.935 1.12,-0.934 0.955,-0.934L0.517,-0.934C0.3,-0.934 0.085,-0.934 -0.131,-0.936L-0.133,-0.936C-0.209,-0.936 -0.264,-0.903 -0.302,-0.836C-0.32,-0.805 -0.329,-0.762 -0.327,-0.719C-0.323,-0.715 -0.291,-0.697 -0.274,-0.697C-0.182,-0.694 -0.091,-0.693 0,-0.693" style="fill:rgb(190,204,57);fill-rule:nonzero;"/>
            </g>
            <g transform="matrix(1,0,0,1,4.694,6.3629)">
                <path d="M0,0.257C0.013,0.254 0.031,0.247 0.043,0.225C0.055,0.203 0.065,0.181 0.075,0.158C0.089,0.125 0.104,0.092 0.124,0.061C0.138,0.04 0.137,0.033 0.137,0.032C0.136,0.032 0.133,0.029 0.118,0.027L0.078,0.023C-0.031,0.01 -0.144,-0.003 -0.258,0.041C-0.242,0.058 -0.226,0.075 -0.21,0.091C-0.155,0.148 -0.103,0.202 -0.045,0.248C-0.034,0.257 -0.017,0.26 0,0.257" style="fill:rgb(91,67,90);fill-rule:nonzero;"/>
            </g>
            <g transform="matrix(1,0,0,1,5.328,6.3819)">
                <path d="M0,0.239L0.001,0.239C0.025,0.239 0.048,0.226 0.074,0.2C0.107,0.167 0.133,0.127 0.144,0.112C0.145,0.11 0.146,0.108 0.147,0.107C0.168,0.046 0.162,0.026 0.159,0.02C0.158,0.019 0.156,0.016 0.146,0.015C0.057,0.005 -0.035,0.002 -0.121,0C-0.123,0 -0.135,0.008 -0.147,0.029C-0.159,0.053 -0.161,0.073 -0.158,0.079C-0.14,0.113 -0.116,0.153 -0.088,0.185C-0.056,0.221 -0.027,0.239 0,0.239" style="fill:rgb(91,67,90);fill-rule:nonzero;"/>
            </g>
            <g transform="matrix(1,0,0,1,9.618,11.4179)">
                <path d="M0,-2.266L0,-2.507C0,-2.728 0,-2.95 -0.001,-3.171C-0.001,-3.183 0,-3.196 0,-3.209C0.002,-3.243 0.004,-3.278 -0.009,-3.296C-0.05,-3.353 -0.107,-3.405 -0.173,-3.44C-0.19,-3.44 -0.234,-3.422 -0.262,-3.397C-0.394,-3.276 -0.51,-3.135 -0.621,-2.998C-0.735,-2.858 -0.859,-2.653 -1.001,-2.542C-1.161,-2.419 -1.451,-2.465 -1.641,-2.43C-1.667,-2.425 -1.695,-2.419 -1.715,-2.402C-1.751,-2.371 -1.752,-2.317 -1.75,-2.269C-1.744,-2.147 -1.739,-2.025 -1.734,-1.903C-1.725,-1.71 -1.898,-1.6 -2.019,-1.473C-2.167,-1.315 -2.309,-1.152 -2.452,-0.989C-2.597,-0.82 -2.748,-0.646 -2.905,-0.482C-3.242,-0.126 -3.58,0.242 -3.906,0.599C-4.003,0.704 -4.099,0.809 -4.195,0.914C-4.228,0.949 -4.25,0.988 -4.256,1.021C-4.262,1.058 -4.257,1.109 -4.237,1.133C-4.217,1.156 -4.165,1.174 -4.139,1.166C-4.04,1.135 -3.937,1.101 -3.851,1.044C-3.433,0.768 -2.993,0.515 -2.566,0.27C-2.391,0.169 -2.214,0.068 -2.039,-0.035C-1.788,-0.183 -1.537,-0.34 -1.294,-0.492C-0.913,-0.73 -0.519,-0.977 -0.115,-1.193C-0.033,-1.236 0.005,-1.304 0.003,-1.401C-0.003,-1.611 -0.002,-1.826 -0.001,-2.033C0,-2.111 0,-2.188 0,-2.266" style="fill:rgb(95,58,46);fill-rule:nonzero;"/>
            </g>
            <g transform="matrix(1,0,0,1,7.746,13.4389)">
                <path d="M0,-0.681C0,-1.025 0,-1.369 -0.001,-1.713C-0.001,-1.768 -0.009,-1.827 -0.022,-1.889C-0.024,-1.897 -0.026,-1.899 -0.026,-1.899C-0.026,-1.898 -0.034,-1.898 -0.06,-1.88C-0.142,-1.824 -0.158,-1.751 -0.158,-1.659C-0.156,-1.012 -0.156,-0.355 -0.156,0.281L-0.156,1.057C-0.156,1.096 -0.156,1.137 -0.145,1.172C-0.142,1.183 -0.117,1.202 -0.092,1.208C-0.054,1.218 -0.017,1.199 -0.008,1.165C0.006,1.117 0.005,1.062 0.005,1.009L0.005,0.986C0.006,0.636 0.006,0.286 0.006,-0.063L0.006,-0.343L0,-0.343L0,-0.681Z" style="fill:rgb(190,204,57);fill-rule:nonzero;"/>
            </g>
            <g transform="matrix(1,0,0,1,7.057,8.0579)">
                <path d="M0,0.153L0.02,0.158L0.065,0.155C0.102,0.153 0.133,0.151 0.163,0.147C0.167,0.147 0.175,0.142 0.178,0.138C0.179,0.113 0.175,0.096 0.169,0.087C0.146,0.06 0.114,0.025 0.077,0.003C0.065,-0.005 0.028,0.004 -0.017,0.034C-0.068,0.067 -0.094,0.103 -0.093,0.117C-0.093,0.12 -0.088,0.128 -0.085,0.129C-0.056,0.139 -0.025,0.147 0,0.153" style="fill:rgb(91,67,90);fill-rule:nonzero;"/>
            </g>
            <g transform="matrix(1,0,0,1,5.832,6.7609)">
                <path d="M0,3.012C0.006,3.126 0.011,3.245 0.004,3.362C0.007,3.367 0.035,3.387 0.055,3.393C0.077,3.398 0.109,3.393 0.123,3.382C0.153,3.359 0.197,3.323 0.203,3.292C0.214,3.228 0.237,3.168 0.258,3.111C0.28,3.054 0.3,2.999 0.309,2.944C0.343,2.735 0.4,2.529 0.455,2.33C0.519,2.096 0.585,1.856 0.615,1.612L0.617,1.605C0.684,1.463 0.715,1.307 0.746,1.156C0.768,1.044 0.792,0.927 0.83,0.817C0.87,0.698 0.896,0.574 0.92,0.454C0.953,0.296 0.986,0.133 1.054,-0.02C1.083,-0.086 1.077,-0.17 1.071,-0.252C1.069,-0.28 1.067,-0.308 1.067,-0.335C1.066,-0.347 1.039,-0.375 1.027,-0.376C0.862,-0.381 0.693,-0.382 0.53,-0.383L0.378,-0.384C0.206,-0.386 0.122,-0.386 0.093,-0.357C0.071,-0.335 0.071,-0.287 0.071,-0.206L0.071,1.246C0.071,1.536 0.071,1.827 0.07,2.117C0.07,2.137 0.071,2.156 0.072,2.176C0.075,2.237 0.077,2.299 0.057,2.354C-0.022,2.57 -0.011,2.795 0,3.012" style="fill:rgb(95,58,46);fill-rule:nonzero;"/>
            </g>
            <g transform="matrix(1,0,0,1,8.025,8.0389)">
                <path d="M0,0.176C0.039,0.175 0.069,0.174 0.098,0.168C0.112,0.165 0.127,0.155 0.143,0.145C0.143,0.144 0.144,0.144 0.144,0.144C0.131,0.132 0.118,0.121 0.105,0.111C0.091,0.102 0.075,0.094 0.06,0.086C0.049,0.08 0.038,0.075 0.027,0.069C-0.095,-0.003 -0.107,-0.001 -0.208,0.119C-0.226,0.14 -0.226,0.147 -0.226,0.148C-0.225,0.148 -0.223,0.151 -0.208,0.154C-0.168,0.165 -0.125,0.17 -0.091,0.174C-0.078,0.176 -0.067,0.177 -0.057,0.179C-0.039,0.177 -0.018,0.176 0,0.176" style="fill:rgb(91,67,90);fill-rule:nonzero;"/>
            </g>
            <g transform="matrix(1,0,0,1,8.278,6.3629)">
                <path d="M0,0.226C0.018,0.226 0.039,0.213 0.062,0.187C0.086,0.161 0.109,0.135 0.131,0.11C0.148,0.09 0.164,0.072 0.181,0.053C0.19,0.043 0.192,0.036 0.191,0.033C0.19,0.031 0.184,0.027 0.171,0.027C0.149,0.025 0.128,0.022 0.106,0.02C0.004,0.01 -0.092,0 -0.19,0.043C-0.179,0.056 -0.167,0.068 -0.156,0.08C-0.119,0.119 -0.085,0.156 -0.051,0.194C-0.033,0.215 -0.016,0.226 0,0.226" style="fill:rgb(91,67,90);fill-rule:nonzero;"/>
            </g>
            <g transform="matrix(1,0,0,1,4.623,8.5389)">
                <path d="M0,0.127L0.183,0.129L0.326,0.129C0.489,0.13 0.653,0.13 0.816,0.128C0.853,0.128 0.895,0.122 0.943,0.109C0.951,0.107 0.961,0.103 0.966,0.093C0.97,0.085 0.969,0.073 0.964,0.061L0.96,0.051C0.954,0.038 0.942,0.01 0.935,0.002C0.423,-0.003 -0.1,-0.002 -0.55,-0.002C-0.554,-0.002 -0.567,0.004 -0.573,0.013C-0.594,0.039 -0.611,0.066 -0.63,0.093L-0.637,0.104C-0.636,0.105 -0.634,0.106 -0.632,0.107C-0.615,0.116 -0.598,0.125 -0.585,0.125C-0.39,0.127 -0.195,0.127 0,0.127" style="fill:rgb(190,204,57);fill-rule:nonzero;"/>
            </g>
            <g transform="matrix(1,0,0,1,7.536,6.5309)">
                <path d="M0,-0.152L-0.007,-0.152L-0.027,-0.151C-0.054,-0.151 -0.081,-0.152 -0.107,-0.152C-0.125,-0.152 -0.142,-0.152 -0.159,-0.149C-0.171,-0.147 -0.186,-0.13 -0.197,-0.116C-0.195,-0.11 -0.189,-0.102 -0.184,-0.096C-0.129,-0.029 -0.089,0.001 -0.054,0.001C-0.02,0.001 0.017,-0.026 0.068,-0.088C0.078,-0.101 0.079,-0.128 0.079,-0.142C0.074,-0.145 0.065,-0.15 0.06,-0.151C0.042,-0.153 0.021,-0.152 0,-0.152" style="fill:rgb(91,67,90);fill-rule:nonzero;"/>
            </g>
            <g transform="matrix(1,0,0,1,3.304,7.8109)">
                <path d="M0,-1.311L0,2.047C0,2.112 0.002,2.17 0.013,2.226C0.016,2.234 0.044,2.251 0.066,2.253C0.082,2.256 0.11,2.24 0.131,2.227C0.131,2.227 0.134,2.219 0.136,2.214C0.137,2.208 0.139,2.202 0.142,2.197C0.15,2.179 0.161,2.16 0.172,2.142C0.193,2.105 0.214,2.071 0.214,2.038C0.215,1.927 0.241,1.82 0.266,1.717C0.288,1.626 0.309,1.541 0.315,1.452C0.32,1.369 0.345,1.29 0.369,1.214C0.401,1.114 0.431,1.02 0.417,0.918C0.399,0.782 0.438,0.659 0.476,0.538C0.498,0.47 0.52,0.399 0.531,0.328C0.541,0.268 0.553,0.207 0.565,0.148C0.587,0.047 0.609,-0.058 0.613,-0.164L0.613,-0.173C0.615,-0.219 0.616,-0.271 0.643,-0.308C0.698,-0.386 0.699,-0.472 0.701,-0.562C0.702,-0.594 0.703,-0.626 0.706,-0.658C0.712,-0.717 0.733,-0.772 0.754,-0.826C0.783,-0.901 0.81,-0.971 0.797,-1.053C0.78,-1.163 0.827,-1.259 0.87,-1.33C0.887,-1.358 0.878,-1.381 0.872,-1.393C0.86,-1.415 0.836,-1.428 0.81,-1.429C0.53,-1.432 0.314,-1.433 0.111,-1.433C0.02,-1.433 0,-1.411 0,-1.311Z" style="fill:rgb(95,58,46);fill-rule:nonzero;"/>
            </g>
            <g transform="matrix(1,0,0,1,4.556,8.1029)">
                <path d="M0,0.154C0.011,0.14 0.013,0.103 0.006,0.092C-0.018,0.058 -0.046,0.028 -0.079,-0.007C-0.088,-0.016 -0.098,-0.026 -0.107,-0.036C-0.116,-0.026 -0.126,-0.017 -0.134,-0.008C-0.166,0.025 -0.196,0.056 -0.219,0.089C-0.228,0.103 -0.227,0.138 -0.217,0.154C-0.204,0.174 -0.166,0.188 -0.119,0.19L-0.109,0.19C-0.06,0.19 -0.016,0.176 0,0.154" style="fill:rgb(91,67,90);fill-rule:nonzero;"/>
            </g>
            <g transform="matrix(1,0,0,1,12.238,16.0979)">
                <path d="M0,-0.674C-0.007,-0.687 -0.015,-0.699 -0.022,-0.711C-0.066,-0.79 -0.142,-0.814 -0.223,-0.841C-0.255,-0.851 -0.289,-0.862 -0.32,-0.876C-0.397,-0.911 -0.479,-0.941 -0.565,-0.941C-0.609,-0.941 -0.654,-0.933 -0.7,-0.915C-0.841,-0.857 -0.997,-0.778 -1.086,-0.624C-1.169,-0.479 -1.229,-0.32 -1.103,-0.132C-0.966,0.073 -0.836,0.267 -0.534,0.231C-0.349,0.255 -0.232,0.182 -0.17,0.01C-0.155,-0.029 -0.125,-0.061 -0.097,-0.092C-0.071,-0.12 -0.046,-0.146 -0.034,-0.176C0.005,-0.269 0.052,-0.392 0.062,-0.516C0.067,-0.564 0.033,-0.62 0,-0.674M-0.544,-0.236C-0.571,-0.214 -0.612,-0.206 -0.648,-0.206C-0.661,-0.206 -0.674,-0.207 -0.685,-0.209C-0.707,-0.213 -0.725,-0.229 -0.736,-0.254C-0.754,-0.297 -0.747,-0.359 -0.721,-0.397C-0.676,-0.462 -0.633,-0.492 -0.565,-0.505C-0.541,-0.509 -0.516,-0.503 -0.496,-0.488C-0.47,-0.468 -0.453,-0.438 -0.451,-0.406C-0.444,-0.325 -0.494,-0.274 -0.544,-0.236" style="fill:rgb(190,204,57);fill-rule:nonzero;"/>
            </g>
            <g transform="matrix(1,0,0,1,17.455,11.0719)">
                <path d="M0,-2.096C-0.304,-2.3 -0.617,-2.513 -1.022,-2.462C-1.043,-2.46 -1.062,-2.46 -1.098,-2.461C-1.12,-2.461 -1.147,-2.462 -1.184,-2.462C-1.562,-2.49 -1.958,-2.39 -2.297,-2.18C-2.358,-2.142 -2.42,-2.099 -2.465,-2.037C-2.531,-1.948 -2.664,-1.483 -2.675,-1.355C-2.706,-1.014 -2.627,-0.682 -2.425,-0.309C-2.192,0.119 -1.728,0.399 -1.242,0.403C-1.192,0.402 -1.141,0.401 -1.09,0.401C-1.047,0.4 -1.004,0.399 -0.961,0.399C-0.914,0.399 -0.867,0.4 -0.82,0.404C-0.632,0.417 -0.484,0.335 -0.361,0.253C-0.211,0.153 -0.072,0.043 0.043,-0.052C0.279,-0.245 0.357,-0.36 0.443,-0.639C0.48,-0.759 0.478,-0.884 0.475,-1.006C0.475,-1.066 0.474,-1.128 0.477,-1.188C0.495,-1.491 0.336,-1.705 0.168,-1.932C0.144,-1.966 0.119,-1.999 0.095,-2.033C0.063,-2.053 0.032,-2.075 0,-2.096M-0.916,-0.908C-0.94,-0.879 -0.975,-0.862 -1.014,-0.86C-1.023,-0.859 -1.032,-0.859 -1.04,-0.859C-1.099,-0.859 -1.142,-0.872 -1.171,-0.899C-1.199,-0.926 -1.213,-0.967 -1.212,-1.022C-1.211,-1.128 -1.161,-1.18 -1.058,-1.183L-1.049,-1.183C-0.953,-1.183 -0.899,-1.137 -0.885,-1.041C-0.877,-0.989 -0.889,-0.942 -0.916,-0.908" style="fill:rgb(190,204,57);fill-rule:nonzero;"/>
            </g>
            <g transform="matrix(1,0,0,1,13.997,5.6249)">
                <path d="M0,1.188C0.009,1.072 0.018,0.963 -0.039,0.859C-0.083,0.857 -0.127,0.855 -0.171,0.853C-0.275,0.847 -0.383,0.841 -0.489,0.839C-0.548,0.839 -0.611,0.84 -0.672,0.841C-0.75,0.843 -0.831,0.845 -0.91,0.841C-1.094,0.831 -1.257,0.894 -1.397,1.027C-1.575,1.196 -1.767,1.351 -1.954,1.5L-2.035,1.566C-2.141,1.651 -2.249,1.689 -2.387,1.69C-2.527,1.69 -2.667,1.69 -2.807,1.691C-3.144,1.694 -3.493,1.696 -3.836,1.686C-3.841,1.686 -3.847,1.685 -3.852,1.685C-3.974,1.685 -4.086,1.72 -4.22,1.8C-4.319,1.859 -4.432,1.926 -4.432,2.054C-4.432,2.114 -4.384,2.15 -4.333,2.188C-4.309,2.206 -4.285,2.224 -4.264,2.246C-4.254,2.257 -4.243,2.267 -4.232,2.277C-4.114,2.384 -4.063,2.502 -4.066,2.659C-4.074,3.036 -4.073,3.42 -4.072,3.791C-4.071,3.927 -4.071,4.063 -4.071,4.2L-4.071,4.229C-4.071,4.328 -4.07,4.43 -4.138,4.524C-4.155,4.547 -4.152,4.594 -4.149,4.632L-4.148,4.645C-4.147,4.665 -4.134,4.696 -4.127,4.701C-4.039,4.709 -3.949,4.712 -3.863,4.707C-3.857,4.704 -3.839,4.674 -3.836,4.654C-3.83,4.605 -3.83,4.553 -3.83,4.504L-3.83,4.47C-3.831,4.292 -3.859,4.061 -3.792,3.893C-3.716,3.704 -3.6,3.872 -3.585,3.992C-3.565,4.166 -3.594,4.363 -3.594,4.54L-3.595,4.566C-3.595,4.603 -3.595,4.641 -3.587,4.674C-3.583,4.689 -3.556,4.713 -3.541,4.715C-3.473,4.72 -3.403,4.72 -3.334,4.719C-3.31,4.72 -3.286,4.719 -3.262,4.72C-3.235,4.72 -3.216,4.713 -3.203,4.7C-3.187,4.685 -3.179,4.657 -3.179,4.619C-3.178,4.465 -3.178,4.311 -3.179,4.157C-3.179,3.865 -3.179,3.563 -3.175,3.265C-3.171,3.021 -3.051,2.826 -2.817,2.687C-2.787,2.67 -2.732,2.69 -2.71,2.705C-2.662,2.738 -2.652,2.799 -2.684,2.853C-2.708,2.893 -2.743,2.932 -2.784,2.962C-2.903,3.05 -2.953,3.17 -2.943,3.351C-2.937,3.473 -2.938,3.596 -2.939,3.715C-2.94,3.795 -2.941,3.878 -2.94,3.959C-2.937,4.13 -2.931,4.303 -2.926,4.471C-2.923,4.542 -2.921,4.614 -2.919,4.685C-2.769,4.733 -2.612,4.726 -2.459,4.721C-2.409,4.719 -2.357,4.717 -2.305,4.717C-2.256,4.717 -2.207,4.719 -2.158,4.724C-1.988,4.743 -1.842,4.681 -1.684,4.606C-1.553,4.543 -1.445,4.466 -1.352,4.37C-1.221,4.233 -1.087,4.099 -0.955,3.974C-0.692,3.725 -0.432,3.608 -0.141,3.608C-0.118,3.608 -0.095,3.608 -0.072,3.61C0.024,3.616 0.124,3.614 0.219,3.613C0.292,3.611 0.367,3.611 0.441,3.612C0.513,3.614 0.567,3.587 0.622,3.519C0.634,3.505 0.648,3.49 0.661,3.476C0.692,3.444 0.721,3.414 0.732,3.379C0.78,3.232 0.883,3.116 1.014,3.062C1.063,3.041 1.104,3.006 1.148,2.969C1.224,2.905 1.302,2.84 1.42,2.853C1.516,2.79 1.622,2.78 1.725,2.771C1.772,2.767 1.82,2.762 1.866,2.753C1.908,2.744 1.95,2.733 1.991,2.722C2.096,2.695 2.203,2.665 2.321,2.675C2.479,2.69 2.625,2.67 2.783,2.703C2.937,2.735 3.087,2.789 3.222,2.871C3.247,2.887 3.275,2.905 3.305,2.904C3.355,2.902 3.389,2.853 3.408,2.806C3.499,2.585 3.444,2.313 3.276,2.144C3.204,2.072 3.113,2.016 3.063,1.928C3.016,1.846 3.012,1.748 3.008,1.654C2.996,1.317 3.001,0.981 3.001,0.644C3.001,0.157 3.001,-0.33 3.002,-0.817C3.002,-1.07 3.003,-1.323 3.003,-1.576C3.003,-1.776 2.956,-2.044 3.003,-2.237C3.01,-2.265 3.025,-2.291 3.036,-2.318C3.061,-2.377 3.069,-2.454 3.064,-2.536C3.051,-2.707 2.979,-2.9 2.874,-2.987C2.791,-3.056 2.716,-3.137 2.644,-3.215L2.608,-3.253C2.421,-3.454 2.193,-3.548 1.881,-3.548C0.382,-3.54 -1.141,-3.541 -2.614,-3.542C-3.093,-3.542 -3.572,-3.543 -4.05,-3.543C-4.079,-3.543 -4.109,-3.545 -4.139,-3.547C-4.205,-3.551 -4.268,-3.555 -4.324,-3.539C-4.349,-3.532 -4.374,-3.525 -4.4,-3.518C-4.621,-3.459 -4.829,-3.403 -4.926,-3.143C-5.043,-2.831 -5.26,-2.578 -5.471,-2.334C-5.539,-2.256 -5.609,-2.174 -5.675,-2.092C-5.689,-2.074 -5.703,-2.057 -5.718,-2.041C-5.804,-1.94 -5.867,-1.867 -5.769,-1.722C-5.736,-1.672 -5.744,-1.598 -5.751,-1.526C-5.754,-1.496 -5.758,-1.464 -5.758,-1.435C-5.756,-1.264 -5.754,-1.093 -5.752,-0.922C-5.751,-0.839 -5.719,-0.797 -5.641,-0.775C-5.568,-0.754 -5.499,-0.715 -5.429,-0.673C-5.403,-0.658 -5.394,-0.622 -5.385,-0.584C-5.379,-0.56 -5.383,-0.536 -5.4,-0.514C-5.419,-0.488 -5.452,-0.47 -5.484,-0.469C-5.491,-0.468 -5.498,-0.468 -5.505,-0.468C-5.646,-0.468 -5.776,-0.526 -5.911,-0.649C-5.999,-0.728 -6.079,-0.824 -6.069,-0.987C-6.058,-1.158 -6.062,-1.333 -6.065,-1.502C-6.067,-1.564 -6.068,-1.625 -6.068,-1.686C-6.069,-1.711 -6.076,-1.73 -6.089,-1.743C-6.105,-1.759 -6.13,-1.767 -6.174,-1.767C-6.192,-1.767 -6.211,-1.768 -6.23,-1.77C-6.272,-1.773 -6.317,-1.776 -6.342,-1.76C-6.467,-1.674 -6.601,-1.68 -6.729,-1.684C-6.768,-1.684 -6.809,-1.686 -6.849,-1.685C-6.933,-1.682 -7.018,-1.683 -7.101,-1.684C-7.186,-1.684 -7.276,-1.686 -7.363,-1.682C-7.418,-1.68 -7.475,-1.683 -7.529,-1.685C-8.544,-1.73 -9.566,-1.717 -10.582,-1.726C-10.673,-1.726 -10.773,-1.724 -10.838,-1.662C-10.876,-1.628 -10.897,-1.58 -10.932,-1.545C-10.998,-1.482 -11.096,-1.474 -11.187,-1.467C-11.276,-1.461 -11.376,-1.448 -11.436,-1.38C-11.496,-1.313 -11.472,-1.176 -11.382,-1.169C-11.308,-1.164 -11.248,-1.247 -11.174,-1.239C-11.133,-1.235 -11.101,-1.203 -11.072,-1.174C-10.955,-1.053 -10.838,-0.932 -10.721,-0.812C-10.646,-0.734 -10.569,-0.654 -10.523,-0.556C-10.421,-0.334 -10.519,-0.039 -10.735,0.075C-10.796,0.108 -10.865,0.128 -10.915,0.175C-11.02,0.272 -10.974,0.491 -10.825,0.511C-10.751,0.521 -10.673,0.519 -10.598,0.517C-10.566,0.516 -10.534,0.515 -10.502,0.515C-10.056,0.515 -9.613,0.515 -9.168,0.516C-7.819,0.516 -6.423,0.517 -5.05,0.51L-5.035,0.51C-4.724,0.51 -4.48,0.564 -4.303,0.817C-4.258,0.881 -4.197,0.908 -4.095,0.908L-4.075,0.908C-3.99,0.905 -3.904,0.906 -3.821,0.907C-3.782,0.907 -3.741,0.909 -3.702,0.907C-3.614,0.909 -3.529,0.907 -3.443,0.908C-3.222,0.909 -2.994,0.91 -2.76,0.903C-2.633,0.903 -2.558,0.972 -2.48,1.045C-2.382,1.136 -2.444,1.358 -2.313,1.386C-2.258,1.398 -2.202,1.375 -2.156,1.343C-2.11,1.311 -2.072,1.269 -2.028,1.235C-1.889,1.127 -1.768,1.046 -1.646,0.918C-1.526,0.792 -1.388,0.673 -1.215,0.63C-1.17,0.619 -1.124,0.605 -1.08,0.592C-0.97,0.559 -0.857,0.526 -0.733,0.526L-0.718,0.526C-0.205,0.537 0.318,0.535 0.822,0.533C0.946,0.533 1.071,0.532 1.196,0.532L1.248,0.532C1.352,0.533 1.461,0.533 1.56,0.509C1.636,0.491 1.661,0.428 1.69,0.354C1.708,0.308 1.726,0.261 1.76,0.224C1.771,0.212 1.784,0.201 1.803,0.187C1.817,0.178 1.834,0.165 1.853,0.167C1.875,0.17 1.895,0.197 1.899,0.214C1.931,0.331 1.95,0.482 1.815,0.618C1.671,0.762 1.505,0.834 1.307,0.837L1.247,0.838C1.189,0.839 1.132,0.84 1.075,0.842C1.013,0.845 0.984,0.875 0.984,0.938C0.984,1.054 1.045,1.405 0.888,1.454C0.672,1.521 0.746,1.076 0.745,0.971C0.745,0.856 0.728,0.841 0.593,0.837L0.454,0.837C0.231,0.837 0.231,0.837 0.231,1.038C0.23,1.284 0.231,1.53 0.231,1.777L0.231,2.44C0.232,2.517 0.232,2.597 0.224,2.675C0.202,2.876 0.014,3.06 -0.189,3.076C-0.216,3.076 -0.241,3.048 -0.267,3.016C-0.282,3 -0.284,2.966 -0.274,2.947C-0.269,2.94 -0.265,2.932 -0.26,2.925C-0.241,2.891 -0.221,2.856 -0.19,2.835C-0.013,2.714 0.006,2.538 0,2.367C-0.006,2.192 -0.005,2.014 -0.004,1.843M1.828,-1.608C1.833,-1.459 1.748,-1.378 1.658,-1.291L1.649,-1.282C1.559,-1.197 1.48,-1.231 1.404,-1.264L1.376,-1.275C1.327,-1.296 1.264,-1.295 1.204,-1.294C1.188,-1.293 1.173,-1.292 1.156,-1.293C1.022,-1.294 0.888,-1.294 0.753,-1.294C0.608,-1.293 0.462,-1.292 0.315,-1.294C0.291,-1.294 0.269,-1.294 0.245,-1.293C0.113,-1.292 -0.024,-1.288 -0.142,-1.393C-0.151,-1.396 -0.206,-1.38 -0.237,-1.356C-0.308,-1.301 -0.343,-1.224 -0.34,-1.129C-0.338,-1.053 -0.339,-0.975 -0.34,-0.9C-0.34,-0.776 -0.342,-0.648 -0.331,-0.523C-0.312,-0.318 -0.44,-0.217 -0.565,-0.12C-0.565,-0.12 -0.601,-0.091 -0.61,-0.093C-0.676,-0.107 -0.733,-0.081 -0.793,-0.053C-0.844,-0.029 -0.897,-0.005 -0.961,-0.005C-1.163,-0.006 -1.365,-0.006 -1.568,-0.006C-1.771,-0.006 -1.972,-0.005 -2.175,-0.007C-2.327,-0.008 -2.495,-0.159 -2.514,-0.311C-2.52,-0.364 -2.52,-0.418 -2.521,-0.47C-2.521,-0.496 -2.521,-0.521 -2.522,-0.547C-2.524,-0.62 -2.548,-0.65 -2.605,-0.65C-2.909,-0.652 -3.184,-0.653 -3.445,-0.652C-3.522,-0.651 -3.569,-0.624 -3.613,-0.556C-3.644,-0.507 -3.696,-0.474 -3.747,-0.443C-3.776,-0.425 -3.805,-0.407 -3.83,-0.387C-3.957,-0.28 -4.01,-0.177 -4.099,-0.048C-4.132,0 -4.18,0.039 -4.238,0.046C-4.294,0.053 -4.358,0.022 -4.375,-0.033C-4.389,-0.079 -4.37,-0.129 -4.351,-0.173C-4.331,-0.218 -4.307,-0.262 -4.292,-0.308C-4.243,-0.458 -4.59,-0.667 -4.68,-0.773C-4.704,-0.801 -4.728,-0.832 -4.742,-0.866C-4.767,-0.926 -4.76,-0.994 -4.753,-1.059C-4.748,-1.105 -4.742,-1.152 -4.717,-1.191C-4.693,-1.23 -4.642,-1.257 -4.599,-1.239C-4.51,-1.203 -4.525,-1.029 -4.491,-0.951C-4.445,-0.846 -4.36,-0.769 -4.257,-0.72C-4.229,-0.707 -4.206,-0.685 -4.185,-0.663C-4.15,-0.63 -4.119,-0.6 -4.076,-0.609C-4.011,-0.621 -3.948,-0.655 -3.886,-0.689L-3.874,-0.696C-3.852,-0.707 -3.833,-0.725 -3.813,-0.744C-3.799,-0.758 -3.784,-0.771 -3.769,-0.783C-3.665,-0.861 -3.624,-0.951 -3.629,-1.085C-3.64,-1.335 -3.636,-1.589 -3.633,-1.835L-3.63,-1.973C-3.629,-2.043 -3.624,-2.114 -3.588,-2.16L-3.574,-2.179C-3.475,-2.308 -3.372,-2.441 -3.182,-2.471C-3.058,-2.49 -2.932,-2.515 -2.851,-2.583C-2.782,-2.639 -2.79,-2.726 -2.798,-2.817C-2.803,-2.867 -2.807,-2.918 -2.8,-2.966C-2.789,-3.036 -2.765,-3.089 -2.685,-3.118C-2.662,-3.127 -2.638,-3.137 -2.616,-3.146C-2.545,-3.176 -2.472,-3.207 -2.373,-3.207C-2.123,-3.201 -1.869,-3.202 -1.622,-3.202C-1.483,-3.202 -1.345,-3.203 -1.206,-3.202C-0.962,-3.2 -0.806,-3.053 -0.799,-2.816C-0.791,-2.557 -0.792,-2.293 -0.793,-2.038L-0.793,-2.022C-0.793,-1.91 -0.897,-1.786 -1.003,-1.772C-1.052,-1.766 -1.1,-1.765 -1.145,-1.765C-1.519,-1.763 -1.893,-1.763 -2.266,-1.763L-2.314,-1.763C-2.406,-1.763 -2.5,-1.763 -2.594,-1.768C-2.684,-1.773 -2.789,-1.877 -2.798,-1.971C-2.802,-2.021 -2.805,-2.072 -2.807,-2.122C-2.809,-2.178 -2.812,-2.237 -2.818,-2.294C-2.822,-2.3 -2.852,-2.317 -2.863,-2.317C-3.019,-2.254 -3.149,-2.198 -3.276,-2.131C-3.298,-2.12 -3.322,-2.068 -3.322,-2.031C-3.327,-1.736 -3.325,-1.435 -3.324,-1.144C-3.323,-0.971 -3.323,-0.971 -3.17,-0.968C-3.135,-0.969 -3.099,-0.969 -3.063,-0.969C-3.006,-0.97 -2.947,-0.971 -2.889,-0.967C-2.723,-0.955 -2.624,-0.978 -2.54,-1.14C-2.471,-1.273 -2.306,-1.349 -2.086,-1.349C-2.051,-1.348 -2.01,-1.349 -1.972,-1.349C-1.858,-1.349 -1.744,-1.35 -1.632,-1.351C-1.364,-1.354 -1.088,-1.357 -0.817,-1.343C-0.603,-1.331 -0.495,-1.4 -0.412,-1.596L-0.397,-1.633C-0.33,-1.79 -0.267,-1.938 -0.283,-2.114C-0.292,-2.211 -0.286,-2.31 -0.281,-2.406C-0.279,-2.434 -0.277,-2.462 -0.276,-2.49C-0.274,-2.546 -0.259,-2.615 -0.17,-2.651C-0.145,-2.661 -0.121,-2.672 -0.097,-2.684C-0.028,-2.717 0.045,-2.751 0.141,-2.751C0.293,-2.747 0.449,-2.749 0.598,-2.751C0.72,-2.753 0.841,-2.753 0.963,-2.753C1.156,-2.753 1.349,-2.752 1.542,-2.751C1.632,-2.751 1.687,-2.713 1.735,-2.621C1.789,-2.514 1.831,-2.423 1.828,-2.307C1.823,-2.084 1.819,-1.845 1.828,-1.608" style="fill:rgb(91,67,90);fill-rule:nonzero;"/>
            </g>
            <g transform="matrix(1,0,0,1,8.81,16.0589)">
                <path d="M0,0.283C0.003,0.342 0.006,0.397 0.032,0.446C0.097,0.57 0.158,0.686 0.266,0.775C0.286,0.791 0.311,0.797 0.333,0.792C0.353,0.787 0.369,0.772 0.377,0.751L0.385,0.728C0.403,0.682 0.426,0.623 0.412,0.593C0.338,0.432 0.339,0.264 0.34,0.102C0.341,0.051 0.342,-0.001 0.34,-0.052L0.34,-0.13C0.34,-0.244 0.34,-0.358 0.339,-0.473C0.338,-0.475 0.333,-0.484 0.329,-0.488C0.326,-0.493 0.323,-0.497 0.32,-0.501C0.315,-0.51 0.309,-0.514 0.307,-0.514C0.302,-0.514 0.293,-0.51 0.281,-0.497C0.255,-0.469 0.227,-0.443 0.2,-0.417C0.114,-0.337 0.034,-0.262 -0.001,-0.148C-0.016,-0.097 -0.035,-0.046 -0.052,0.003C-0.058,0.02 -0.065,0.038 -0.071,0.056C-0.008,0.123 -0.004,0.204 0,0.283M0.103,0.017C0.122,0.003 0.147,-0.002 0.178,0.004C0.255,0.017 0.275,0.068 0.253,0.198L0.213,0.191C0.213,0.193 0.214,0.196 0.217,0.199C0.22,0.202 0.223,0.203 0.225,0.203C0.223,0.203 0.218,0.204 0.213,0.204C0.204,0.206 0.191,0.209 0.174,0.209C0.167,0.209 0.159,0.208 0.15,0.207C0.117,0.202 0.092,0.189 0.077,0.169C0.063,0.149 0.058,0.123 0.063,0.092C0.069,0.056 0.082,0.032 0.103,0.017" style="fill:rgb(190,204,57);fill-rule:nonzero;"/>
            </g>
            <g transform="matrix(1,0,0,1,9.043,16.2499)">
                <path d="M0,0.003L-0.02,0L0,0.003Z" style="fill:rgb(123,127,129);fill-rule:nonzero;"/>
            </g>
            <g transform="matrix(1,0,0,1,14.214,3.1179)">
                <path d="M0,0.979C0.02,0.977 0.041,0.974 0.059,0.976C0.183,0.978 0.309,0.977 0.432,0.977L0.769,0.977C0.935,0.977 1.102,0.977 1.267,0.976C1.339,0.975 1.37,0.951 1.37,0.894L1.372,0.772C1.374,0.584 1.376,0.389 1.374,0.198C1.373,0.074 1.288,-0.007 1.157,-0.008C1.005,-0.009 0.853,-0.009 0.701,-0.009C0.463,-0.009 0.227,-0.008 -0.005,-0.007C-0.053,-0.007 -0.101,0.002 -0.138,0.009C-0.179,0.017 -0.265,0.118 -0.265,0.158C-0.265,0.2 -0.266,0.243 -0.267,0.285C-0.27,0.426 -0.273,0.571 -0.258,0.712C-0.25,0.797 -0.189,0.885 -0.144,0.945C-0.111,0.988 -0.058,0.983 0,0.979M0.238,0.431C0.448,0.426 0.662,0.425 0.874,0.429C0.913,0.43 0.938,0.511 0.938,0.512C0.947,0.543 0.942,0.573 0.926,0.597C0.91,0.62 0.885,0.635 0.857,0.637C0.781,0.644 0.703,0.642 0.628,0.641C0.604,0.641 0.58,0.64 0.555,0.64L0.553,0.661L0.532,0.659C0.507,0.656 0.481,0.653 0.455,0.649C0.378,0.64 0.298,0.63 0.221,0.615C0.188,0.609 0.174,0.544 0.176,0.519C0.179,0.493 0.205,0.432 0.238,0.431" style="fill:rgb(150,147,100);fill-rule:nonzero;"/>
            </g>
            <g transform="matrix(1,0,0,1,11.754,4.5299)">
                <path d="M0,0.76L0.127,0.765C0.265,0.77 0.403,0.775 0.542,0.779C0.595,0.781 0.648,0.78 0.701,0.78L1.339,0.78C1.472,0.782 1.544,0.781 1.574,0.75C1.606,0.717 1.604,0.633 1.599,0.481C1.596,0.381 1.597,0.3 1.598,0.235C1.599,0.107 1.599,0.036 1.57,0.007C1.541,-0.022 1.468,-0.021 1.333,-0.019C1.273,-0.018 1.201,-0.017 1.112,-0.018C0.985,-0.02 0.857,-0.02 0.729,-0.02C0.596,-0.019 0.457,-0.019 0.322,-0.021L0.315,-0.021C0.233,-0.021 0.16,-0 0.072,0.049L0.054,0.059C-0.011,0.094 -0.05,0.116 -0.042,0.191C-0.033,0.262 -0.037,0.335 -0.041,0.406C-0.048,0.53 -0.054,0.647 0,0.76M0.409,0.352C0.425,0.332 0.447,0.321 0.472,0.32C0.698,0.313 0.932,0.311 1.165,0.316C1.191,0.316 1.214,0.327 1.231,0.347C1.251,0.37 1.26,0.401 1.255,0.436C1.247,0.498 1.209,0.533 1.147,0.535C1.059,0.537 0.97,0.537 0.884,0.537C0.855,0.537 0.826,0.537 0.797,0.536L0.777,0.539L0.5,0.539C0.438,0.539 0.399,0.505 0.388,0.445C0.381,0.411 0.389,0.377 0.409,0.352" style="fill:rgb(150,147,100);fill-rule:nonzero;"/>
            </g>
            <g transform="matrix(1,0,0,1,15.3,14.4819)">
                <path d="M0,0.017L-0.002,0.011C-0.036,-0.1 -0.071,-0.215 -0.162,-0.294C-0.186,-0.314 -0.216,-0.328 -0.234,-0.336C-0.238,-0.338 -0.241,-0.34 -0.244,-0.341C-0.264,-0.345 -0.282,-0.347 -0.299,-0.347C-0.377,-0.347 -0.424,-0.309 -0.477,-0.265C-0.485,-0.259 -0.493,-0.252 -0.502,-0.246C-0.648,-0.13 -0.623,0.028 -0.596,0.112C-0.552,0.246 -0.445,0.338 -0.31,0.359C-0.274,0.364 -0.222,0.357 -0.197,0.335C-0.129,0.276 -0.068,0.208 -0.016,0.132C0.004,0.105 0.011,0.052 0,0.017" style="fill:rgb(190,204,57);fill-rule:nonzero;"/>
            </g>
            <g transform="matrix(1,0,0,1,17.3,12.8699)">
                <path d="M0,0.972C0.092,0.884 0.186,0.794 0.237,0.687C0.329,0.493 0.197,0.168 -0.026,0.043L-0.053,0.027C-0.151,-0.03 -0.237,-0.079 -0.334,0.025L-0.339,0.031L-0.348,0.031C-0.508,0.034 -0.611,0.113 -0.671,0.278C-0.688,0.323 -0.711,0.365 -0.735,0.406C-0.749,0.432 -0.764,0.458 -0.777,0.484C-0.861,0.658 -0.802,0.836 -0.619,0.959C-0.522,1.024 -0.432,1.047 -0.307,1.042C-0.298,1.041 -0.289,1.04 -0.279,1.04C-0.262,1.04 -0.244,1.042 -0.225,1.043C-0.155,1.047 -0.082,1.051 -0.027,0.998L0,0.972ZM-0.209,0.661C-0.228,0.68 -0.254,0.689 -0.285,0.689L-0.292,0.689C-0.396,0.684 -0.401,0.602 -0.405,0.543C-0.408,0.505 -0.397,0.466 -0.378,0.441C-0.358,0.416 -0.32,0.398 -0.288,0.398L-0.285,0.398C-0.253,0.4 -0.214,0.422 -0.196,0.448C-0.182,0.468 -0.179,0.494 -0.176,0.517C-0.175,0.526 -0.174,0.534 -0.172,0.543C-0.171,0.598 -0.184,0.637 -0.209,0.661" style="fill:rgb(190,204,57);fill-rule:nonzero;"/>
            </g>
            <g transform="matrix(1,0,0,1,11.433,2.8219)">
                <path d="M0,0.708C0.001,0.769 0.032,0.799 0.096,0.8C0.254,0.801 0.412,0.801 0.57,0.8L0.958,0.799C1.121,0.799 1.284,0.8 1.447,0.799C1.469,0.799 1.534,0.799 1.535,0.699C1.536,0.505 1.537,0.297 1.532,0.093C1.53,-0.007 1.444,-0.092 1.345,-0.093L1.09,-0.093C0.734,-0.093 0.388,-0.091 0.087,-0.089C0.028,-0.089 -0.001,-0.057 -0.002,0.009L-0.003,0.662C-0.003,0.669 -0.002,0.677 -0.001,0.684C0,0.692 0,0.7 0,0.708M0.385,0.267C0.577,0.225 0.774,0.234 0.964,0.242C1.017,0.244 1.07,0.246 1.123,0.248C1.144,0.248 1.166,0.263 1.183,0.29C1.199,0.315 1.212,0.354 1.199,0.384C1.168,0.454 1.146,0.462 1.131,0.463C1.039,0.467 0.945,0.467 0.853,0.466L0.781,0.466L0.78,0.482L0.669,0.476C0.579,0.47 0.485,0.464 0.393,0.453C0.359,0.449 0.338,0.388 0.337,0.362C0.335,0.333 0.353,0.274 0.385,0.267" style="fill:rgb(150,147,100);fill-rule:nonzero;"/>
            </g>
            <g transform="matrix(1,0,0,1,3.208,5.8049)">
                <path d="M0,-0.639C0.036,-0.583 0.073,-0.512 0.042,-0.453C0.026,-0.421 -0.005,-0.401 -0.035,-0.383C-0.211,-0.275 -0.387,-0.168 -0.563,-0.061C-0.642,-0.012 -0.724,0.038 -0.786,0.108C-0.865,0.197 -0.909,0.316 -0.907,0.434C-0.906,0.469 -0.902,0.505 -0.915,0.537C-0.927,0.569 -0.965,0.594 -0.996,0.58C-1.025,0.567 -1.033,0.529 -1.036,0.498C-1.068,0.197 -1.1,-0.104 -1.133,-0.404C-1.141,-0.482 -1.149,-0.562 -1.128,-0.638C-1.11,-0.706 -1.069,-0.767 -1.023,-0.822C-0.94,-0.923 -0.835,-1.002 -0.724,-1.071C-0.638,-1.125 -0.576,-1.233 -0.46,-1.193C-0.406,-1.175 -0.363,-1.134 -0.323,-1.092C-0.199,-0.959 -0.098,-0.793 0,-0.639" style="fill:rgb(95,58,46);fill-rule:nonzero;"/>
            </g>
            <g transform="matrix(1,0,0,1,13.183,11.5939)">
                <path d="M0,5.306C-0.246,5.035 -0.237,4.714 -0.202,4.465C-0.2,4.45 -0.186,4.44 -0.177,4.428C-0.177,4.071 -0.178,3.715 -0.183,3.358C-0.184,3.255 -0.186,3.148 -0.221,3.05C-0.258,2.948 -0.33,2.861 -0.409,2.786C-0.596,2.609 -0.834,2.486 -1.086,2.438C-1.225,2.412 -1.389,2.394 -1.459,2.272C-1.492,2.215 -1.496,2.147 -1.5,2.081C-1.542,1.316 -1.52,0.551 -1.518,-0.216L-1.518,-0.862C-1.518,-0.993 -1.534,-1.011 -1.65,-1.011C-1.981,-1.012 -2.312,-1.012 -2.642,-1.012L-3.238,-1.012C-3.297,-1.012 -3.357,-1.016 -3.415,-1.019C-3.542,-1.028 -3.673,-1.036 -3.79,-1.004C-3.919,-0.97 -4.04,-0.893 -4.158,-0.819C-4.207,-0.789 -4.257,-0.757 -4.308,-0.728C-4.326,-0.718 -4.344,-0.701 -4.366,-0.674C-4.365,-0.674 -4.368,-0.668 -4.364,-0.645C-4.361,-0.635 -4.357,-0.626 -4.355,-0.624L-4.341,-0.62C-4.305,-0.61 -4.267,-0.599 -4.232,-0.599C-3.845,-0.597 -3.432,-0.596 -3.019,-0.598C-2.892,-0.601 -2.735,-0.601 -2.623,-0.462C-2.601,-0.435 -2.562,-0.418 -2.525,-0.401L-2.514,-0.396C-2.414,-0.35 -2.344,-0.272 -2.294,-0.151C-2.27,-0.091 -2.238,-0.033 -2.206,0.024C-2.186,0.06 -2.166,0.097 -2.147,0.134C-2.135,0.159 -2.137,0.188 -2.152,0.218C-2.172,0.258 -2.213,0.289 -2.254,0.295C-2.303,0.302 -2.369,0.297 -2.406,0.267C-2.423,0.253 -2.433,0.234 -2.434,0.214C-2.444,-0.007 -2.601,-0.122 -2.753,-0.233L-2.765,-0.243C-2.879,-0.326 -2.995,-0.366 -3.122,-0.366L-3.138,-0.366C-3.674,-0.352 -4.224,-0.35 -4.828,-0.36C-4.951,-0.36 -5.044,-0.318 -5.13,-0.225C-5.163,-0.189 -5.183,-0.147 -5.18,-0.137C-5.117,-0.001 -5.124,0.14 -5.131,0.275C-5.135,0.354 -5.14,0.435 -5.129,0.512C-5.119,0.589 -5.1,0.625 -5.016,0.625L-4.999,0.625C-4.828,0.616 -4.589,0.631 -4.504,0.849C-4.427,1.043 -4.289,1.093 -4.1,1.143L-4.059,1.154C-4.014,1.166 -3.967,1.178 -3.923,1.194C-3.792,1.241 -3.723,1.326 -3.716,1.446C-3.714,1.502 -3.712,1.562 -3.712,1.634L-3.712,3.408C-3.712,3.408 -3.712,3.428 -3.722,3.428L-3.722,3.763C-3.722,4.236 -3.722,4.709 -3.723,5.182C-3.723,5.272 -3.725,5.346 -3.73,5.416C-3.733,5.457 -3.788,5.498 -3.82,5.518C-3.867,5.549 -3.961,5.594 -4.01,5.577C-4.047,5.562 -4.085,5.546 -4.121,5.529C-4.14,5.52 -4.16,5.511 -4.18,5.503C-4.202,5.493 -4.257,5.47 -4.266,5.477C-4.274,5.483 -4.274,5.536 -4.274,5.553C-4.271,5.733 -4.267,5.912 -4.263,6.091L-4.258,6.282C-4.092,6.342 -3.916,6.334 -3.746,6.327C-3.666,6.323 -3.583,6.319 -3.502,6.322C-3.321,6.33 -3.136,6.328 -2.957,6.326C-2.874,6.326 -2.793,6.325 -2.709,6.325L-2.256,6.325C-1.925,6.326 -1.593,6.325 -1.261,6.325C-1.196,6.325 -1.161,6.299 -1.146,6.242C-1.141,6.22 -1.135,6.197 -1.13,6.174C-1.095,6.032 -1.06,5.885 -0.978,5.766C-0.909,5.666 -0.903,5.601 -0.952,5.51L-0.984,5.453C-1.039,5.353 -1.097,5.249 -1.143,5.141C-1.201,5.005 -1.278,4.956 -1.404,4.971C-1.466,4.977 -1.53,4.975 -1.592,4.973C-1.622,4.972 -1.653,4.971 -1.687,4.971C-1.77,4.971 -1.838,4.941 -1.913,4.904C-2.226,4.75 -2.374,4.484 -2.365,4.091C-2.356,3.669 -2.033,3.342 -1.615,3.331C-1.576,3.33 -1.536,3.331 -1.498,3.333C-1.459,3.334 -1.419,3.336 -1.381,3.335C-1.374,3.335 -1.366,3.334 -1.358,3.334C-1.03,3.334 -0.829,3.541 -0.675,3.745C-0.657,3.769 -0.645,3.805 -0.643,3.841C-0.631,4.013 -0.619,4.207 -0.726,4.392C-0.747,4.428 -0.766,4.465 -0.785,4.501C-0.837,4.599 -0.891,4.7 -0.97,4.786C-0.992,4.81 -1.005,4.869 -0.995,4.884C-0.954,4.949 -0.92,5.019 -0.887,5.087C-0.828,5.209 -0.767,5.335 -0.665,5.43C-0.624,5.467 -0.588,5.488 -0.562,5.488C-0.373,5.486 -0.185,5.476 0.039,5.462C0.049,5.461 0.056,5.457 0.06,5.45C0.066,5.441 0.066,5.429 0.059,5.412C0.042,5.374 0.026,5.334 0,5.306" style="fill:rgb(150,147,100);fill-rule:nonzero;"/>
            </g>
            <g transform="matrix(1,0,0,1,17.047,10.5319)">
                <path d="M0,5.58C-0.054,5.477 -0.052,5.376 -0.05,5.279C-0.05,5.255 -0.049,5.232 -0.049,5.208C-0.052,4.958 -0.052,4.704 -0.051,4.459L-0.051,4.18C-0.051,4.139 -0.051,4.097 -0.052,4.056L-0.052,3.807C-0.051,3.765 -0.061,3.733 -0.081,3.714C-0.1,3.696 -0.13,3.688 -0.17,3.689L-0.179,3.689C-0.241,3.689 -0.289,3.66 -0.336,3.632C-0.354,3.622 -0.372,3.611 -0.391,3.602C-0.673,3.47 -0.81,3.247 -0.811,2.92C-0.812,2.782 -0.769,2.665 -0.67,2.528C-0.652,2.502 -0.634,2.475 -0.616,2.449C-0.54,2.337 -0.462,2.221 -0.324,2.157C-0.303,2.147 -0.281,2.138 -0.258,2.128C-0.179,2.095 -0.098,2.061 -0.067,2.006C-0.035,1.952 -0.042,1.871 -0.048,1.792C-0.05,1.76 -0.052,1.727 -0.052,1.695L-0.052,1.648C-0.052,1.51 -0.052,1.369 -0.059,1.229C-0.06,1.212 -0.068,1.197 -0.08,1.187C-0.093,1.175 -0.111,1.17 -0.132,1.172C-0.172,1.175 -0.212,1.175 -0.25,1.174C-0.334,1.173 -0.414,1.173 -0.491,1.209C-0.63,1.276 -0.77,1.274 -0.907,1.204C-0.944,1.186 -0.992,1.182 -1.038,1.178C-1.052,1.177 -1.066,1.176 -1.08,1.174C-1.29,1.15 -1.549,1.058 -1.725,0.945C-1.877,0.847 -1.983,0.857 -2.115,0.979C-2.161,1.021 -2.205,1.064 -2.25,1.107C-2.294,1.151 -2.339,1.195 -2.385,1.237C-2.429,1.277 -2.414,1.297 -2.381,1.34C-2.376,1.346 -2.372,1.352 -2.367,1.358C-2.208,1.578 -2.147,1.779 -2.181,1.971C-2.239,2.3 -2.392,2.576 -2.624,2.771C-2.723,2.855 -2.858,2.949 -3.035,2.949L-3.054,2.949C-3.205,2.942 -3.358,2.945 -3.473,2.948C-3.476,2.949 -3.479,2.949 -3.482,2.949C-3.572,2.949 -3.645,2.914 -3.722,2.877L-3.743,2.867C-4.143,2.679 -4.257,2.314 -4.348,1.925C-4.36,1.872 -4.359,1.817 -4.344,1.775C-4.165,1.255 -3.759,0.939 -3.277,0.939C-3.261,0.939 -3.244,0.94 -3.227,0.94C-3.115,0.945 -2.993,0.958 -2.863,1.013C-2.68,1.091 -2.509,1.05 -2.383,0.898C-2.338,0.846 -2.287,0.798 -2.238,0.752C-2.208,0.724 -2.178,0.696 -2.149,0.667C-2.124,0.642 -2.11,0.613 -2.112,0.587C-2.112,0.568 -2.122,0.55 -2.14,0.535C-2.228,0.46 -2.263,0.361 -2.297,0.265C-2.313,0.217 -2.33,0.169 -2.353,0.125C-2.524,-0.202 -2.598,-0.508 -2.578,-0.812C-2.573,-0.891 -2.574,-0.941 -2.594,-0.962C-2.611,-0.981 -2.651,-0.985 -2.729,-0.986C-2.788,-0.986 -2.844,-0.985 -2.901,-0.983C-3.014,-0.978 -3.132,-0.974 -3.245,-0.992C-3.429,-1.021 -3.555,-0.935 -3.69,-0.844C-3.731,-0.817 -3.772,-0.788 -3.815,-0.764C-3.823,-0.759 -3.829,-0.745 -3.836,-0.73C-3.841,-0.717 -3.847,-0.703 -3.856,-0.692C-4.013,-0.482 -4.229,-0.338 -4.438,-0.199C-4.47,-0.178 -4.502,-0.157 -4.533,-0.136C-4.679,-0.037 -4.856,0.063 -5.066,0.063C-5.077,0.063 -5.089,0.062 -5.1,0.062C-5.111,0.063 -5.138,0.089 -5.14,0.103C-5.148,0.15 -5.147,0.2 -5.147,0.249L-5.147,0.286C-5.147,0.459 -5.147,0.633 -5.148,0.806C-5.149,1.263 -5.151,1.735 -5.144,2.2C-5.144,2.206 -5.145,2.211 -5.145,2.217C-5.134,2.498 -5.233,2.774 -5.167,3.06C-5.157,3.104 -5.142,3.148 -5.113,3.182C-5.061,3.245 -4.976,3.265 -4.897,3.283C-4.52,3.373 -4.119,3.543 -3.953,3.894C-3.864,4.081 -3.856,4.296 -3.849,4.504C-3.839,4.817 -3.829,5.13 -3.819,5.443C-3.799,5.455 -3.781,5.471 -3.771,5.494C-3.757,5.528 -3.761,5.567 -3.783,5.602C-3.8,5.627 -3.805,5.648 -3.814,5.672C-3.816,5.703 -3.82,5.733 -3.84,5.755C-3.843,5.787 -3.845,5.818 -3.834,5.846C-3.765,6.022 -3.702,6.148 -3.628,6.252C-3.497,6.437 -3.338,6.601 -3.069,6.541C-3.042,6.535 -3.014,6.537 -2.987,6.539C-2.966,6.54 -2.947,6.541 -2.927,6.539C-2.727,6.516 -2.531,6.46 -2.449,6.215C-2.428,6.153 -2.406,6.091 -2.384,6.03C-2.281,5.74 -2.175,5.439 -2.207,5.113C-2.22,4.985 -2.22,4.842 -2.207,4.69C-2.197,4.576 -2.246,4.496 -2.35,4.453C-2.459,4.408 -2.561,4.348 -2.574,4.216C-2.578,4.175 -2.595,4.134 -2.613,4.09C-2.652,3.994 -2.696,3.884 -2.586,3.775C-2.474,3.429 -2.393,3.365 -2.06,3.365C-2.056,3.365 -2.053,3.366 -2.049,3.365C-2.035,3.365 -2.021,3.365 -2.007,3.364C-1.942,3.362 -1.868,3.358 -1.813,3.411C-1.79,3.433 -1.767,3.455 -1.744,3.476C-1.661,3.551 -1.576,3.629 -1.529,3.725C-1.41,3.971 -1.543,4.374 -1.792,4.525C-1.914,4.599 -1.988,4.654 -1.974,4.785C-1.965,4.864 -1.969,4.944 -1.974,5.021C-1.98,5.155 -1.987,5.282 -1.936,5.405C-1.739,5.412 -1.544,5.419 -1.347,5.425L-1.33,5.426C-1.305,5.427 -1.281,5.428 -1.257,5.425C-1.019,5.396 -0.841,5.465 -0.705,5.638C-0.688,5.66 -0.668,5.679 -0.646,5.7C-0.634,5.713 -0.622,5.725 -0.61,5.738C-0.57,5.78 -0.524,5.801 -0.468,5.801L-0.46,5.801C-0.368,5.797 -0.274,5.799 -0.18,5.797C-0.131,5.795 -0.055,5.736 -0.016,5.67C0.005,5.633 0.011,5.601 0,5.58" style="fill:rgb(130,109,140);fill-rule:nonzero;"/>
            </g>
        </g>
    </g>
</svg>
