<?xml version="1.0" encoding="UTF-8" standalone="no"?>
<!DOCTYPE svg PUBLIC "-//W3C//DTD SVG 1.1//EN" "http://www.w3.org/Graphics/SVG/1.1/DTD/svg11.dtd">
<svg width="100%" height="100%" viewBox="0 0 20 20" version="1.1" xmlns="http://www.w3.org/2000/svg" xmlns:xlink="http://www.w3.org/1999/xlink" xml:space="preserve" xmlns:serif="http://www.serif.com/" style="fill-rule:evenodd;clip-rule:evenodd;stroke-linejoin:round;stroke-miterlimit:2;">
    <g transform="matrix(1.19979,0,0,1.19979,-210.293,-431.387)">
        <g id="Sirkaaj">
            <g transform="matrix(1,0,0,1,184.67,372.703)">
                <path d="M0,2.455C0.006,2.412 0.022,2.374 0.038,2.338C0.052,2.305 0.066,2.273 0.069,2.242C0.088,2.059 0.203,1.969 0.314,1.905L0.325,1.899C0.409,1.851 0.495,1.801 0.587,1.767C0.662,1.74 0.727,1.695 0.798,1.62C0.819,1.598 0.854,1.562 0.852,1.54C0.844,1.446 0.866,1.357 0.887,1.272C0.904,1.2 0.922,1.126 0.922,1.052L0.922,-0.99C0.922,-1.018 0.907,-1.045 0.88,-1.061C0.851,-1.08 0.814,-1.082 0.781,-1.067C0.693,-1.024 0.652,-0.962 0.654,-0.876C0.66,-0.634 0.658,-0.389 0.658,-0.152C0.657,-0.064 0.657,0.023 0.657,0.11L0.66,0.126C0.66,0.215 0.659,0.305 0.658,0.394C0.656,0.597 0.653,0.806 0.663,1.012C0.673,1.226 0.597,1.371 0.422,1.468C0.395,1.483 0.37,1.504 0.345,1.523C0.31,1.552 0.273,1.581 0.231,1.596C0.202,1.607 0.175,1.623 0.147,1.64C0.086,1.675 0.022,1.712 -0.06,1.697C-0.155,1.678 -0.184,1.736 -0.222,1.818L-0.227,1.827C-0.258,1.893 -0.259,1.957 -0.261,2.024L-0.262,2.044C-0.263,2.094 -0.264,2.144 -0.264,2.195C-0.265,2.272 -0.266,2.351 -0.271,2.429C-0.277,2.542 -0.373,2.628 -0.493,2.63L-0.494,2.63C-0.52,2.63 -0.551,2.619 -0.572,2.602C-0.593,2.585 -0.605,2.561 -0.605,2.535C-0.606,2.512 -0.596,2.49 -0.579,2.476C-0.467,2.384 -0.448,2.268 -0.454,2.109C-0.457,2.032 -0.455,1.953 -0.454,1.878C-0.453,1.814 -0.452,1.749 -0.454,1.685C-0.455,1.643 -0.466,1.595 -0.486,1.545C-0.507,1.493 -0.531,1.44 -0.554,1.389C-0.593,1.304 -0.633,1.217 -0.662,1.128C-0.708,0.985 -0.824,0.954 -0.939,0.935C-1.121,0.904 -1.233,0.945 -1.293,1.061C-1.368,1.206 -1.435,1.359 -1.5,1.507C-1.524,1.564 -1.549,1.621 -1.574,1.677C-1.576,1.681 -1.575,1.689 -1.575,1.696C-1.574,1.7 -1.574,1.705 -1.574,1.709C-1.574,1.752 -1.576,1.797 -1.577,1.84C-1.581,1.936 -1.585,2.036 -1.564,2.127C-1.56,2.149 -1.555,2.171 -1.551,2.193C-1.531,2.291 -1.511,2.392 -1.446,2.473C-1.419,2.508 -1.418,2.553 -1.445,2.596C-1.455,2.612 -1.472,2.622 -1.494,2.625C-1.53,2.63 -1.576,2.617 -1.607,2.59C-1.727,2.485 -1.776,2.378 -1.766,2.244C-1.758,2.138 -1.761,2.028 -1.765,1.921C-1.766,1.888 -1.767,1.855 -1.767,1.822C-1.769,1.713 -1.775,1.706 -1.879,1.699C-1.956,1.693 -2.025,1.676 -2.102,1.644C-2.287,1.566 -2.441,1.459 -2.573,1.315C-2.657,1.224 -2.691,1.142 -2.689,1.032C-2.684,0.691 -2.685,0.343 -2.685,0.007C-2.685,-0.178 -2.686,-0.362 -2.685,-0.547C-2.685,-0.571 -2.686,-0.595 -2.687,-0.619C-2.69,-0.723 -2.694,-0.83 -2.625,-0.928C-2.623,-0.935 -2.632,-0.965 -2.638,-0.97C-2.703,-1.007 -2.77,-1.038 -2.839,-1.064C-2.848,-1.064 -2.873,-1.051 -2.877,-1.044C-2.888,-0.993 -2.89,-0.939 -2.89,-0.897L-2.89,-0.395C-2.891,0.122 -2.891,0.657 -2.888,1.183C-2.888,1.244 -2.889,1.295 -2.889,1.34C-2.892,1.592 -2.892,1.592 -2.677,1.705C-2.63,1.73 -2.573,1.76 -2.504,1.799C-2.473,1.816 -2.441,1.833 -2.409,1.849C-2.314,1.897 -2.216,1.947 -2.151,2.024C-2.074,2.114 -2.041,2.234 -2.01,2.349C-1.998,2.393 -1.985,2.439 -1.971,2.482C-1.968,2.492 -1.968,2.502 -1.968,2.51C-1.968,2.515 -1.968,2.519 -1.967,2.524C-1.944,2.691 -1.896,2.856 -1.698,2.924C-1.67,2.934 -1.648,2.956 -1.627,2.977C-1.61,2.994 -1.594,3.011 -1.576,3.02C-1.451,3.084 -1.315,3.172 -1.252,3.342C-1.24,3.374 -1.21,3.402 -1.18,3.429C-1.172,3.437 -1.164,3.444 -1.156,3.451C-1.082,3.523 -1.006,3.537 -0.933,3.493C-0.913,3.481 -0.892,3.472 -0.871,3.464C-0.81,3.439 -0.757,3.417 -0.752,3.34L-0.751,3.335L-0.748,3.331C-0.613,3.164 -0.487,3.036 -0.316,2.949C-0.228,2.904 -0.132,2.849 -0.085,2.773C-0.032,2.687 -0.015,2.574 0,2.455" style="fill:rgb(122,149,161);fill-rule:nonzero;"/>
            </g>
            <g transform="matrix(1,0,0,1,187.141,367.257)">
                <path d="M0,-0.131L0,-0.261C0,-0.359 0.001,-0.457 0,-0.554C-0.001,-0.619 -0.029,-0.643 -0.105,-0.647C-0.111,-0.648 -0.117,-0.648 -0.123,-0.648C-0.248,-0.648 -0.348,-0.582 -0.438,-0.512C-0.536,-0.434 -0.631,-0.352 -0.723,-0.271C-0.801,-0.204 -0.881,-0.134 -0.963,-0.068C-0.978,-0.055 -0.993,-0.043 -1.009,-0.03C-1.139,0.078 -1.273,0.189 -1.457,0.213C-1.463,0.215 -1.477,0.234 -1.477,0.242C-1.471,0.267 -1.458,0.294 -1.445,0.319L-1.434,0.341C-1.364,0.484 -1.302,0.517 -1.188,0.468C-1.105,0.432 -1.025,0.416 -0.929,0.416L-0.924,0.416C-0.708,0.417 -0.455,0.418 -0.192,0.416C-0.072,0.415 -0.001,0.342 0.001,0.215C0.003,0.137 0.002,0.056 0.002,-0.021L0.002,-0.114L0,-0.131ZM-0.254,0.043C-0.33,0.053 -0.405,0.059 -0.472,0.064L-0.527,0.069L-0.623,0.063C-0.68,0.06 -0.729,0.058 -0.778,0.054C-0.796,0.053 -0.813,0.04 -0.825,0.016C-0.837,-0.005 -0.847,-0.038 -0.834,-0.061C-0.817,-0.093 -0.8,-0.122 -0.777,-0.123C-0.741,-0.124 -0.705,-0.126 -0.67,-0.128C-0.532,-0.135 -0.39,-0.142 -0.251,-0.11C-0.225,-0.103 -0.21,-0.056 -0.21,-0.033C-0.21,-0.012 -0.227,0.039 -0.254,0.043" style="fill:rgb(116,14,48);fill-rule:nonzero;"/>
            </g>
            <g transform="matrix(1,0,0,1,187.797,369.974)">
                <path d="M0,-4.117L-0.119,-4.121C-0.241,-4.126 -0.364,-4.13 -0.486,-4.133C-0.562,-4.134 -0.622,-4.132 -0.676,-4.125C-0.711,-4.121 -0.747,-4.107 -0.772,-4.088C-0.812,-4.057 -0.852,-4.027 -0.893,-3.997C-1.004,-3.914 -1.119,-3.83 -1.214,-3.73C-1.434,-3.497 -1.665,-3.399 -1.937,-3.424C-1.961,-3.427 -1.979,-3.421 -1.991,-3.408C-2.005,-3.394 -2.011,-3.372 -2.008,-3.347C-1.994,-3.223 -2.041,-3.12 -2.154,-3.031C-2.183,-3.008 -2.215,-2.982 -2.252,-2.971C-2.299,-2.956 -2.314,-2.92 -2.331,-2.877C-2.343,-2.849 -2.355,-2.82 -2.376,-2.789C-2.37,-2.782 -2.362,-2.775 -2.358,-2.775C-2.076,-2.741 -1.86,-2.813 -1.678,-3.001C-1.51,-3.175 -1.316,-3.328 -1.127,-3.476C-1.059,-3.529 -0.955,-3.596 -0.85,-3.608C-0.71,-3.624 -0.567,-3.62 -0.429,-3.615C-0.39,-3.614 -0.35,-3.613 -0.311,-3.612C-0.284,-3.612 -0.255,-3.572 -0.25,-3.548C-0.245,-3.523 -0.258,-3.498 -0.271,-3.469C-0.277,-3.456 -0.298,-3.44 -0.315,-3.44C-0.325,-3.44 -0.331,-3.441 -0.338,-3.441C-0.38,-3.441 -0.411,-3.432 -0.43,-3.413C-0.456,-3.387 -0.467,-3.342 -0.464,-3.265C-0.456,-3.038 -0.457,-2.807 -0.459,-2.584L-0.46,-2.494C-0.462,-2.22 -0.625,-2.054 -0.897,-2.049C-1.26,-2.044 -1.626,-2.041 -1.936,-2.039L-1.964,-2.039C-2.174,-2.039 -2.187,-2.057 -2.287,-2.319C-2.305,-2.366 -2.327,-2.412 -2.349,-2.455L-2.354,-2.465C-2.36,-2.476 -2.373,-2.503 -2.38,-2.505C-2.421,-2.513 -2.468,-2.516 -2.528,-2.513C-2.578,-2.511 -2.607,-2.491 -2.628,-2.443C-2.677,-2.336 -2.754,-2.212 -2.921,-2.203C-2.992,-2.199 -3.019,-2.171 -3.018,-2.104C-3.017,-2.043 -3.018,-1.993 -3.019,-1.951C-3.02,-1.863 -3.021,-1.814 -3.001,-1.793C-2.978,-1.77 -2.917,-1.771 -2.8,-1.771C-2.769,-1.771 -2.733,-1.772 -2.694,-1.771C-2.675,-1.771 -2.657,-1.771 -2.639,-1.77C-2.594,-1.769 -2.547,-1.768 -2.503,-1.773C-2.491,-1.774 -2.48,-1.775 -2.469,-1.775C-2.322,-1.775 -2.247,-1.667 -2.187,-1.565C-2.168,-1.532 -2.167,-1.49 -2.166,-1.45C-2.165,-1.424 -2.164,-1.397 -2.159,-1.374C-2.029,-0.833 -1.381,-1.306 -1.143,-1.02C-1.131,-1.004 -1.116,-0.99 -1.102,-0.975C-1.054,-0.924 -1.003,-0.872 -1.004,-0.786C-1.004,-0.706 -1.001,-0.64 -0.957,-0.576C-0.917,-0.52 -0.946,-0.473 -0.971,-0.433C-0.987,-0.407 -1.002,-0.382 -1.001,-0.356C-0.999,-0.309 -0.999,-0.261 -0.999,-0.214C-0.999,-0.16 -0.999,-0.103 -0.995,-0.049C-0.994,-0.024 -0.974,0.002 -0.929,0.002C-0.917,0.002 -0.905,0.003 -0.893,0.004C-0.881,0.005 -0.869,0.005 -0.857,0.006C-0.794,0.005 -0.743,0.005 -0.699,0.006C-0.597,0.007 -0.538,0.008 -0.517,-0.014C-0.495,-0.036 -0.496,-0.089 -0.497,-0.185C-0.497,-0.225 -0.498,-0.273 -0.497,-0.33L-0.497,-0.39C-0.497,-0.422 -0.497,-0.453 -0.496,-0.485L-0.496,-0.495C-0.496,-0.52 -0.495,-0.548 -0.476,-0.573C-0.401,-0.674 -0.323,-0.779 -0.201,-0.833C-0.175,-0.844 -0.132,-0.826 -0.115,-0.808C-0.096,-0.789 -0.078,-0.744 -0.092,-0.721C-0.105,-0.698 -0.122,-0.678 -0.14,-0.658C-0.156,-0.639 -0.171,-0.621 -0.183,-0.601C-0.269,-0.457 -0.254,-0.305 -0.238,-0.144C-0.234,-0.105 -0.23,-0.066 -0.227,-0.026C-0.161,0.017 -0.088,0.012 -0.01,0.007C0.023,0.005 0.056,0.002 0.09,0.004C0.157,0.008 0.225,0.007 0.292,0.006C0.351,0.005 0.414,0.004 0.475,0.007L0.499,0.007C0.64,0.007 0.715,-0.046 0.747,-0.169C0.764,-0.233 0.795,-0.295 0.835,-0.344C0.88,-0.398 0.864,-0.429 0.812,-0.478C0.792,-0.497 0.772,-0.515 0.752,-0.534C0.716,-0.568 0.679,-0.602 0.643,-0.636C0.476,-0.799 0.321,-0.979 0.171,-1.152C0,-1.349 -0.176,-1.554 -0.372,-1.734C-0.421,-1.779 -0.442,-1.844 -0.431,-1.912C-0.417,-1.992 -0.361,-2.064 -0.285,-2.097C-0.247,-2.114 -0.207,-2.128 -0.169,-2.141L-0.143,-2.15C0.006,-2.202 0.032,-2.236 0.033,-2.375C0.034,-2.564 0.034,-2.752 0.033,-2.941L0.033,-3.184C0.033,-3.227 0.034,-3.27 0.034,-3.313C0.035,-3.41 0.037,-3.509 0.031,-3.606C0.027,-3.665 0.031,-3.724 0.034,-3.782C0.04,-3.899 0.047,-4.009 0,-4.117" style="fill:rgb(122,149,161);fill-rule:nonzero;"/>
            </g>
            <g transform="matrix(1,0,0,1,180.241,367.245)">
                <path d="M0,-0.155L0,-0.002C-0.001,0.117 -0.001,0.24 0.001,0.361C0.002,0.391 0.027,0.415 0.06,0.418C0.11,0.422 0.161,0.424 0.211,0.425C0.237,0.426 0.263,0.427 0.289,0.428C0.377,0.431 0.469,0.429 0.557,0.427C0.609,0.426 0.662,0.425 0.715,0.425C0.878,0.425 1.042,0.436 1.202,0.493C1.206,0.495 1.213,0.495 1.221,0.494L1.236,0.494C1.239,0.495 1.241,0.495 1.244,0.495C1.323,0.495 1.391,0.445 1.422,0.364C1.441,0.316 1.419,0.237 1.382,0.22C1.346,0.203 1.309,0.188 1.273,0.173C1.146,0.12 1.014,0.065 0.915,-0.04C0.797,-0.166 0.661,-0.276 0.529,-0.383C0.457,-0.441 0.382,-0.501 0.311,-0.564C0.249,-0.619 0.181,-0.633 0.1,-0.633C0.091,-0.633 0.083,-0.632 0.075,-0.632C0.044,-0.631 -0.007,-0.621 -0.007,-0.561C-0.008,-0.462 -0.008,-0.364 -0.008,-0.265L-0.008,-0.155L0,-0.155ZM0.294,-0.116C0.419,-0.117 0.545,-0.118 0.67,-0.118C0.73,-0.118 0.765,-0.078 0.795,-0.042L0.803,-0.034C0.821,-0.012 0.829,0.009 0.822,0.026C0.82,0.033 0.812,0.046 0.789,0.05C0.717,0.061 0.644,0.068 0.573,0.075C0.546,0.078 0.519,0.08 0.493,0.083L0.474,0.085L0.474,0.072L0.435,0.073C0.39,0.073 0.345,0.073 0.302,0.072C0.264,0.071 0.232,0.056 0.214,0.031C0.198,0.011 0.194,-0.015 0.201,-0.041C0.214,-0.09 0.246,-0.116 0.294,-0.116" style="fill:rgb(116,14,48);fill-rule:nonzero;"/>
            </g>
            <g transform="matrix(1,0,0,1,178.137,366.648)">
                <path d="M0,1.518C-0.129,1.515 -0.241,1.515 -0.345,1.519C-0.362,1.519 -0.381,1.529 -0.401,1.539C-0.404,1.541 -0.407,1.543 -0.41,1.544C-0.406,1.549 -0.403,1.553 -0.399,1.557C-0.384,1.577 -0.369,1.596 -0.351,1.606C-0.172,1.698 0.014,1.811 0.233,1.961C0.339,2.034 0.452,2.099 0.562,2.162C0.635,2.204 0.71,2.247 0.782,2.292C0.839,2.327 1.278,1.908 1.269,1.853C1.268,1.846 1.262,1.834 1.235,1.817C1.132,1.751 1.033,1.676 0.937,1.602C0.894,1.569 0.85,1.536 0.807,1.504C0.787,1.489 0.777,1.474 0.777,1.458C0.776,1.443 0.784,1.429 0.8,1.415C0.809,1.408 0.819,1.398 0.828,1.389C0.859,1.358 0.882,1.338 0.901,1.346C0.998,1.392 1.071,1.436 1.131,1.484C1.152,1.501 1.172,1.519 1.193,1.536C1.26,1.593 1.324,1.647 1.412,1.687C1.435,1.697 1.435,1.698 1.449,1.683C1.468,1.662 1.487,1.642 1.507,1.622C1.542,1.586 1.575,1.553 1.602,1.514C1.609,1.504 1.598,1.455 1.579,1.435C1.549,1.403 1.505,1.382 1.457,1.359C1.283,1.274 1.205,1.144 1.211,0.95C1.219,0.67 1.217,0.385 1.215,0.109C1.214,-0.008 1.213,-0.125 1.213,-0.242L1.213,-0.395C1.213,-0.498 1.213,-0.6 1.212,-0.703C1.211,-0.788 1.201,-0.805 1.08,-0.807C1.022,-0.809 0.983,-0.806 0.964,-0.788C0.947,-0.772 0.941,-0.741 0.941,-0.675C0.94,-0.613 0.941,-0.551 0.941,-0.489C0.942,-0.398 0.943,-0.305 0.94,-0.213C0.937,-0.106 0.939,0.003 0.941,0.109C0.945,0.305 0.949,0.507 0.915,0.715C0.691,0.944 0.467,1.172 0.243,1.401C0.239,1.404 0.235,1.408 0.231,1.412C0.226,1.416 0.221,1.421 0.217,1.427C0.164,1.491 0.094,1.521 0,1.518" style="fill:rgb(116,14,48);fill-rule:nonzero;"/>
            </g>
            <g transform="matrix(1,0,0,1,186.389,368.764)">
                <path d="M0,0.323C-0.103,0.321 -0.207,0.322 -0.309,0.322C-0.385,0.322 -0.462,0.322 -0.539,0.321L-0.559,0.321C-0.593,0.322 -0.635,0.323 -0.66,0.302C-0.679,0.287 -0.699,0.272 -0.719,0.257C-0.824,0.178 -0.932,0.096 -0.939,-0.059C-0.942,-0.134 -0.969,-0.196 -0.998,-0.261C-1.004,-0.276 -1.01,-0.29 -1.016,-0.305C-1.033,-0.345 -1.051,-0.362 -1.081,-0.364C-1.158,-0.368 -1.235,-0.365 -1.311,-0.369C-1.491,-0.379 -1.683,-0.379 -1.849,-0.26C-1.878,-0.239 -1.922,-0.226 -1.965,-0.226C-2.107,-0.224 -2.251,-0.224 -2.391,-0.225L-2.549,-0.225L-2.553,-0.229C-2.63,-0.291 -2.706,-0.271 -2.786,-0.249C-2.82,-0.24 -2.855,-0.231 -2.89,-0.228C-2.982,-0.22 -3.074,-0.222 -3.165,-0.223C-3.227,-0.224 -3.291,-0.225 -3.352,-0.223L-3.373,-0.223C-3.464,-0.223 -3.542,-0.244 -3.615,-0.289C-3.726,-0.357 -3.855,-0.384 -4.006,-0.369C-4.05,-0.365 -4.096,-0.368 -4.139,-0.371C-4.225,-0.377 -4.305,-0.383 -4.375,-0.339C-4.45,-0.294 -4.464,-0.216 -4.48,-0.135C-4.49,-0.079 -4.501,-0.022 -4.53,0.027C-4.532,0.03 -4.532,0.038 -4.533,0.045L-4.533,0.057C-4.539,0.124 -4.578,0.179 -4.651,0.22L-4.671,0.231C-4.762,0.283 -4.856,0.335 -4.98,0.325C-5.1,0.314 -5.224,0.318 -5.344,0.321C-5.376,0.322 -5.408,0.323 -5.439,0.323C-5.528,0.325 -5.587,0.373 -5.615,0.467L-5.62,0.486C-5.636,0.539 -5.652,0.593 -5.662,0.647C-5.66,0.652 -5.643,0.669 -5.636,0.671C-5.492,0.673 -5.347,0.674 -5.203,0.674C-5.039,0.675 -4.876,0.676 -4.713,0.679L-4.708,0.679C-4.603,0.679 -4.534,0.633 -4.49,0.534C-4.413,0.358 -4.32,0.229 -4.201,0.128C-4.143,0.08 -4.085,0.058 -4.018,0.058L-3.158,0.058C-3.005,0.058 -2.85,0.057 -2.695,0.057C-2.278,0.057 -1.856,0.058 -1.438,0.06C-1.31,0.06 -1.202,0.122 -1.142,0.228C-1.121,0.267 -1.094,0.302 -1.066,0.337C-1.033,0.381 -0.998,0.427 -0.972,0.481C-0.896,0.639 -0.777,0.707 -0.618,0.682C-0.548,0.671 -0.474,0.674 -0.403,0.676C-0.371,0.677 -0.339,0.679 -0.308,0.679L-0.19,0.68C-0.101,0.68 -0.012,0.68 0.077,0.679C0.139,0.678 0.179,0.674 0.196,0.657C0.213,0.639 0.215,0.603 0.213,0.545C0.207,0.388 0.147,0.325 0,0.323" style="fill:rgb(116,14,48);fill-rule:nonzero;"/>
            </g>
            <g transform="matrix(1,0,0,1,181.782,366.596)">
                <path d="M0,-0.173C0.011,-0.121 0.006,-0.064 0.001,-0.014C-0.008,0.081 0.02,0.149 0.09,0.208C0.296,0.379 0.453,0.567 0.558,0.769C0.623,0.894 0.702,0.936 0.844,0.922C0.921,0.915 1.002,0.911 1.079,0.928C1.127,0.938 1.168,0.986 1.201,1.031C1.213,1.048 1.198,1.068 1.158,1.115C1.152,1.122 1.146,1.129 1.141,1.135C1.13,1.149 1.115,1.16 1.101,1.163C1.031,1.178 1.004,1.211 1.005,1.275C1.008,1.361 1.007,1.43 1.005,1.486C1.004,1.585 1.002,1.639 1.026,1.663C1.052,1.69 1.119,1.691 1.252,1.692C1.296,1.692 1.348,1.693 1.407,1.694C1.447,1.693 1.489,1.692 1.528,1.689C1.564,1.686 1.601,1.684 1.637,1.684C1.715,1.684 1.792,1.696 1.865,1.746C1.881,1.757 1.91,1.76 1.916,1.757C2.019,1.68 2.133,1.685 2.241,1.69C2.272,1.692 2.304,1.693 2.334,1.693C2.4,1.692 2.456,1.692 2.503,1.692L2.533,1.692C2.644,1.692 2.701,1.69 2.725,1.666C2.748,1.642 2.746,1.588 2.743,1.489C2.741,1.426 2.739,1.347 2.742,1.245C2.743,1.206 2.719,1.184 2.691,1.159C2.682,1.151 2.674,1.143 2.665,1.134C2.589,1.053 2.602,1.036 2.607,1.029C2.638,0.989 2.68,0.941 2.73,0.927C2.8,0.908 2.875,0.914 2.929,0.923C3.071,0.947 3.187,0.882 3.249,0.74C3.275,0.681 3.313,0.634 3.351,0.588C3.385,0.545 3.417,0.505 3.44,0.457C3.498,0.338 3.582,0.257 3.69,0.214C3.734,0.197 3.743,0.161 3.745,0.104C3.746,0.058 3.746,0.012 3.745,-0.033L3.746,-0.105C3.746,-0.112 3.746,-0.118 3.745,-0.124C3.744,-0.151 3.743,-0.179 3.747,-0.206C3.767,-0.35 3.722,-0.459 3.602,-0.56C3.488,-0.655 3.376,-0.756 3.267,-0.854C3.123,-0.983 2.975,-1.116 2.821,-1.238C2.747,-1.297 2.672,-1.355 2.596,-1.413C2.423,-1.547 2.244,-1.685 2.078,-1.837C1.983,-1.924 1.853,-1.933 1.753,-1.858C1.707,-1.824 1.662,-1.79 1.617,-1.756C1.442,-1.624 1.26,-1.488 1.094,-1.342C0.804,-1.088 0.507,-0.842 0.21,-0.612C0.074,-0.507 -0.045,-0.381 0,-0.173M2.543,-0.061C2.561,-0.129 2.58,-0.199 2.586,-0.27C2.597,-0.398 2.679,-0.49 2.838,-0.55C2.872,-0.563 2.913,-0.55 2.925,-0.546C2.945,-0.538 2.972,-0.506 2.976,-0.493L2.978,-0.485L2.964,-0.466C2.928,-0.419 2.891,-0.371 2.847,-0.331C2.793,-0.282 2.77,-0.223 2.77,-0.139C2.771,0.052 2.768,0.243 2.765,0.437L2.765,0.463C2.765,0.508 2.765,0.554 2.747,0.592C2.725,0.636 2.671,0.671 2.63,0.683C2.627,0.684 2.625,0.685 2.622,0.685C2.606,0.685 2.581,0.67 2.533,0.602C2.52,0.584 2.513,0.558 2.513,0.521C2.511,0.466 2.511,0.409 2.512,0.345L2.512,0.263C2.483,0.158 2.512,0.051 2.543,-0.061M0.839,-0.515C0.859,-0.541 0.901,-0.549 0.913,-0.55C0.973,-0.559 1.025,-0.542 1.067,-0.503C1.174,-0.399 1.227,-0.287 1.229,-0.159C1.23,-0.08 1.23,-0.001 1.229,0.079L1.229,0.167L1.232,0.184C1.232,0.219 1.233,0.254 1.233,0.289C1.234,0.379 1.234,0.473 1.23,0.565C1.229,0.587 1.22,0.606 1.204,0.619C1.188,0.633 1.168,0.64 1.144,0.64C1.14,0.64 1.136,0.64 1.132,0.639C1.08,0.634 1.048,0.602 1.046,0.553L1.043,0.453C1.039,0.298 1.034,0.137 1.042,-0.02C1.047,-0.137 1.011,-0.227 0.924,-0.31C0.882,-0.35 0.85,-0.389 0.826,-0.428C0.811,-0.452 0.824,-0.497 0.839,-0.515" style="fill:rgb(122,149,161);fill-rule:nonzero;"/>
            </g>
            <g transform="matrix(1,0,0,1,187.784,372.861)">
                <path d="M0,-2.044C-0.029,-2.08 -0.027,-2.137 -0.025,-2.192C-0.025,-2.208 -0.024,-2.224 -0.025,-2.239C-0.026,-2.291 -0.026,-2.342 -0.026,-2.394C-0.026,-2.456 -0.026,-2.521 -0.029,-2.584C-0.029,-2.594 -0.051,-2.618 -0.061,-2.619C-0.373,-2.623 -0.662,-2.623 -0.943,-2.621C-0.971,-2.621 -0.992,-2.595 -0.992,-2.56C-0.991,-2.321 -0.99,-2.126 -0.988,-1.946C-0.987,-1.904 -0.952,-1.894 -0.931,-1.892C-0.893,-1.889 -0.856,-1.89 -0.817,-1.889L-0.803,-1.889C-0.611,-1.889 -0.498,-1.956 -0.437,-2.104C-0.422,-2.141 -0.38,-2.178 -0.343,-2.185C-0.305,-2.193 -0.258,-2.16 -0.235,-2.139C-0.211,-2.116 -0.221,-2.06 -0.224,-2.049C-0.261,-1.88 -0.452,-1.707 -0.608,-1.7C-0.707,-1.695 -0.811,-1.694 -0.916,-1.696L-0.929,-1.696C-1.001,-1.696 -1.059,-1.683 -1.108,-1.624C-1.23,-1.477 -1.406,-1.436 -1.575,-1.396L-1.619,-1.386C-1.63,-1.383 -1.641,-1.381 -1.652,-1.379C-1.652,-1.418 -1.65,-1.457 -1.637,-1.493C-1.553,-1.722 -1.178,-1.668 -1.186,-1.956C-1.188,-2.056 -1.187,-2.158 -1.186,-2.257C-1.184,-2.385 -1.183,-2.517 -1.19,-2.647C-1.193,-2.706 -1.188,-2.766 -1.183,-2.823C-1.173,-2.939 -1.164,-3.049 -1.216,-3.156L-1.367,-3.157C-1.503,-3.157 -1.643,-3.158 -1.78,-3.158C-1.8,-3.157 -1.813,-3.147 -1.821,-3.133C-1.977,-3.139 -2.132,-3.167 -2.285,-3.209C-2.306,-3.214 -2.328,-3.22 -2.348,-3.226C-2.392,-3.172 -2.386,-3.11 -2.38,-3.045C-2.377,-3.015 -2.374,-2.984 -2.376,-2.954C-2.381,-2.875 -2.38,-2.794 -2.379,-2.716C-2.378,-2.687 -2.378,-2.657 -2.375,-2.628L-2.375,-2.439C-2.375,-2.306 -2.376,-2.172 -2.375,-2.039C-2.374,-2.017 -2.37,-1.99 -2.35,-1.977C-2.333,-1.965 -2.304,-1.967 -2.271,-1.982C-2.263,-1.985 -2.255,-1.991 -2.246,-1.997C-2.233,-2.007 -2.219,-2.017 -2.202,-2.021C-2.02,-2.053 -2.088,-2.246 -1.948,-2.297C-1.907,-2.311 -1.855,-2.29 -1.844,-2.25C-1.846,-2.212 -1.844,-2.176 -1.847,-2.139C-1.858,-1.955 -1.993,-1.798 -2.156,-1.782C-2.299,-1.767 -2.428,-1.722 -2.564,-1.674C-2.596,-1.664 -2.627,-1.653 -2.658,-1.642C-2.7,-1.628 -2.745,-1.624 -2.788,-1.621C-2.82,-1.618 -2.854,-1.615 -2.885,-1.608C-2.922,-1.6 -2.956,-1.57 -2.974,-1.531C-2.989,-1.496 -2.988,-1.458 -2.97,-1.428C-2.927,-1.352 -2.927,-1.282 -2.927,-1.199L-2.927,-0.101L-2.926,-0.085L-2.926,0.256C-2.926,0.539 -2.926,0.823 -2.925,1.106C-2.925,1.148 -2.922,1.172 -2.916,1.175C-2.907,1.182 -2.863,1.161 -2.843,1.151C-2.77,1.117 -2.731,1.069 -2.695,1.007C-2.65,0.929 -2.65,0.851 -2.65,0.768L-2.65,0.758C-2.649,0.317 -2.648,-0.152 -2.65,-0.625C-2.65,-0.648 -2.649,-0.67 -2.649,-0.693C-2.645,-0.796 -2.642,-0.894 -2.708,-0.985C-2.734,-1.021 -2.714,-1.092 -2.699,-1.143C-2.654,-1.298 -2.527,-1.372 -2.429,-1.407C-2.301,-1.453 -1.972,-1.622 -1.964,-1.382C-1.962,-1.35 -1.966,-1.317 -1.968,-1.284C-2.013,-1.245 -2.007,-1.185 -2,-1.122C-1.998,-1.096 -1.995,-1.069 -1.996,-1.044C-1.999,-0.955 -1.999,-0.863 -1.998,-0.775C-1.998,-0.742 -1.997,-0.71 -1.997,-0.677L-1.997,-0.551C-1.998,-0.461 -1.998,-0.368 -1.996,-0.277C-1.994,-0.203 -1.988,-0.128 -1.976,-0.055C-1.972,-0.052 -1.944,-0.041 -1.934,-0.044C-1.859,-0.063 -1.814,-0.11 -1.799,-0.184C-1.772,-0.316 -1.709,-0.434 -1.65,-0.547C-1.617,-0.61 -1.583,-0.674 -1.556,-0.739L-1.554,-0.744L-1.55,-0.746L-1.415,-0.838C-1.325,-0.9 -1.235,-0.961 -1.145,-1.022C-1.133,-1.031 -1.122,-1.041 -1.111,-1.05C-1.092,-1.066 -1.074,-1.082 -1.052,-1.093C-1.031,-1.103 -1.011,-1.114 -0.99,-1.125C-0.808,-1.218 -0.622,-1.315 -0.396,-1.268C-0.371,-1.263 -0.344,-1.264 -0.316,-1.267C-0.306,-1.267 -0.295,-1.268 -0.285,-1.268C-0.229,-1.27 -0.198,-1.28 -0.178,-1.327C-0.159,-1.374 -0.136,-1.42 -0.113,-1.464C-0.074,-1.539 -0.034,-1.617 -0.014,-1.704C-0.007,-1.735 0.003,-1.764 0.013,-1.792C0.044,-1.879 0.071,-1.954 0,-2.044" style="fill:rgb(179,188,195);fill-rule:nonzero;"/>
            </g>
            <g transform="matrix(1,0,0,1,182.472,372.397)">
                <path d="M0,-1.143L-0.011,-1.143C-0.095,-1.143 -0.171,-1.169 -0.244,-1.193C-0.286,-1.207 -0.329,-1.222 -0.372,-1.231C-0.415,-1.24 -0.457,-1.254 -0.498,-1.267C-0.577,-1.292 -0.65,-1.315 -0.735,-1.314L-0.746,-1.314C-0.885,-1.314 -0.997,-1.408 -1.026,-1.55C-1.036,-1.597 -1.05,-1.644 -1.064,-1.689C-1.073,-1.718 -1.081,-1.749 -1.089,-1.78C-1.084,-1.803 -1.081,-1.828 -1.069,-1.847C-0.977,-1.982 -0.906,-1.742 -0.886,-1.701C-0.827,-1.579 -0.76,-1.546 -0.619,-1.507C-0.609,-1.507 -0.585,-1.519 -0.581,-1.527C-0.575,-1.569 -0.572,-1.615 -0.57,-1.659C-0.568,-1.69 -0.567,-1.72 -0.564,-1.751C-0.554,-1.863 -0.56,-1.977 -0.565,-2.088C-0.574,-2.278 -0.583,-2.475 -0.517,-2.666C-0.512,-2.679 -0.524,-2.705 -0.546,-2.729C-0.617,-2.805 -0.756,-2.742 -0.842,-2.725C-1.004,-2.693 -1.166,-2.683 -1.331,-2.706C-1.355,-2.71 -1.381,-2.711 -1.403,-2.702C-1.5,-2.707 -1.593,-2.709 -1.684,-2.669C-1.685,-2.622 -1.686,-2.575 -1.688,-2.528C-1.691,-2.428 -1.694,-2.325 -1.695,-2.224C-1.696,-2.112 -1.695,-2 -1.695,-1.888C-1.695,-1.746 -1.694,-1.599 -1.696,-1.454C-1.697,-1.387 -1.676,-1.338 -1.63,-1.298C-1.496,-1.181 -1.327,-1.163 -1.308,-0.948C-1.307,-0.939 -1.307,-0.93 -1.307,-0.92C-1.483,-0.953 -1.65,-1.027 -1.815,-1.151C-1.898,-1.213 -1.966,-1.236 -2.046,-1.232C-2.085,-1.23 -2.123,-1.231 -2.161,-1.232C-2.187,-1.233 -2.214,-1.234 -2.239,-1.233L-2.245,-1.233C-2.363,-1.233 -2.47,-1.278 -2.591,-1.378C-2.642,-1.421 -2.651,-1.479 -2.66,-1.535C-2.668,-1.581 -2.675,-1.624 -2.704,-1.658L-2.717,-1.672L-2.701,-1.682C-2.696,-1.687 -2.691,-1.691 -2.685,-1.696C-2.672,-1.707 -2.657,-1.719 -2.64,-1.724C-2.578,-1.742 -2.504,-1.734 -2.484,-1.674C-2.414,-1.457 -2.243,-1.434 -2.044,-1.427L-2.038,-1.427C-1.999,-1.427 -1.963,-1.441 -1.936,-1.466C-1.907,-1.494 -1.891,-1.532 -1.89,-1.575C-1.887,-1.741 -1.888,-1.91 -1.889,-2.074C-1.89,-2.127 -1.908,-2.163 -1.996,-2.163C-2.146,-2.164 -2.297,-2.164 -2.448,-2.163L-2.667,-2.163C-2.711,-2.164 -2.756,-2.164 -2.802,-2.163C-2.856,-2.161 -2.886,-2.152 -2.903,-2.133C-2.921,-2.112 -2.926,-2.074 -2.918,-2.008C-2.913,-1.957 -2.907,-1.908 -2.887,-1.869C-2.84,-1.779 -2.846,-1.694 -2.904,-1.602C-2.915,-1.583 -2.924,-1.562 -2.933,-1.539C-2.943,-1.514 -2.953,-1.488 -2.969,-1.465C-2.981,-1.446 -2.98,-1.441 -2.973,-1.419L-2.97,-1.414C-2.898,-1.195 -2.822,-1.021 -2.73,-0.867C-2.706,-0.827 -2.667,-0.804 -2.623,-0.804L-2.602,-0.804C-2.59,-0.804 -2.578,-0.804 -2.566,-0.803C-2.544,-0.802 -2.524,-0.801 -2.503,-0.804C-2.462,-0.808 -2.423,-0.811 -2.385,-0.811C-2.207,-0.811 -2.055,-0.757 -1.922,-0.646C-1.884,-0.615 -1.84,-0.593 -1.792,-0.57C-1.759,-0.554 -1.725,-0.538 -1.693,-0.518C-1.345,-0.294 -1.3,-0.238 -1.157,0.148C-1.153,0.159 -1.153,0.169 -1.152,0.179C-1.151,0.182 -1.151,0.186 -1.151,0.19C-1.137,0.296 -1.06,0.353 -0.978,0.413C-0.965,0.423 -0.938,0.426 -0.922,0.42C-0.908,0.415 -0.89,0.392 -0.89,0.382C-0.888,0.229 -0.888,0.072 -0.888,-0.078L-0.888,-0.211L-0.885,-0.211C-0.885,-0.233 -0.884,-0.254 -0.884,-0.276C-0.883,-0.337 -0.882,-0.4 -0.886,-0.461C-0.889,-0.503 -0.886,-0.546 -0.884,-0.587C-0.881,-0.639 -0.882,-0.69 -0.889,-0.739C-0.889,-0.747 -0.885,-0.754 -0.886,-0.762C-0.888,-0.801 -0.9,-0.84 -0.893,-0.878C-0.882,-0.942 -0.823,-0.989 -0.759,-1.001C-0.462,-1.057 -0.222,-0.798 -0.224,-0.528C-0.225,-0.325 -0.225,-0.123 -0.225,0.08C-0.224,0.172 -0.224,0.264 -0.224,0.356C-0.224,0.356 -0.224,0.373 -0.233,0.373C-0.233,0.461 -0.232,0.549 -0.231,0.637C-0.23,0.86 -0.229,1.092 -0.236,1.319C-0.24,1.476 -0.171,1.58 -0.011,1.657C-0.001,1.662 0.01,1.662 0.017,1.658C0.023,1.655 0.026,1.649 0.027,1.642C0.038,1.558 0.043,1.484 0.043,1.418C0.043,1.136 0.044,0.853 0.044,0.571C0.044,0.148 0.044,-0.276 0.046,-0.699C0.046,-0.721 0.045,-0.743 0.044,-0.765C0.041,-0.845 0.039,-0.927 0.074,-1.009C0.086,-1.039 0.082,-1.076 0.062,-1.106C0.046,-1.13 0.023,-1.143 0,-1.143" style="fill:rgb(179,188,195);fill-rule:nonzero;"/>
            </g>
            <g transform="matrix(1,0,0,1,182.291,363.44)">
                <path d="M0,1.097C-0.001,1.061 0,1.023 0.002,0.986C0.006,0.907 0.01,0.824 -0.02,0.761C-0.054,0.687 -0.121,0.625 -0.186,0.564C-0.215,0.538 -0.245,0.51 -0.271,0.481C-0.289,0.463 -0.307,0.445 -0.325,0.426C-0.352,0.398 -0.38,0.37 -0.407,0.343C-0.469,0.28 -0.533,0.216 -0.594,0.15C-0.609,0.133 -0.621,0.126 -0.634,0.126C-0.648,0.126 -0.663,0.135 -0.685,0.147L-0.697,0.154C-0.908,0.269 -1.07,0.445 -1.212,0.601C-1.346,0.748 -1.469,0.828 -1.598,0.853C-1.743,0.881 -1.805,0.959 -1.856,1.076C-1.926,1.235 -1.931,1.26 -1.814,1.354C-1.503,1.605 -1.244,1.804 -0.999,1.98C-0.928,2.032 -0.84,2.085 -0.727,2.07C-0.643,2.061 -0.557,2.063 -0.473,2.065C-0.429,2.066 -0.383,2.067 -0.341,2.067C-0.304,2.065 -0.266,2.068 -0.229,2.07C-0.138,2.074 -0.045,2.078 0.035,2.049C0.096,2.027 0.147,1.974 0.201,1.918C0.229,1.888 0.259,1.856 0.291,1.83C0.329,1.798 0.37,1.769 0.41,1.74C0.452,1.711 0.494,1.68 0.533,1.647C0.64,1.557 0.748,1.463 0.852,1.373C0.939,1.298 1.025,1.222 1.112,1.148C1.264,1.018 1.541,1.025 1.694,1.162C1.885,1.334 2.077,1.505 2.269,1.676L2.523,1.903C2.529,1.909 2.536,1.915 2.542,1.922C2.554,1.934 2.564,1.945 2.577,1.952L2.613,1.973C2.708,2.028 2.798,2.079 2.918,2.071C3.076,2.059 3.237,2.063 3.393,2.066C3.428,2.067 3.463,2.067 3.498,2.068L3.507,2.068C3.609,2.068 3.687,2.04 3.765,1.974C3.855,1.899 3.951,1.831 4.045,1.764C4.135,1.701 4.228,1.635 4.313,1.564C4.357,1.528 4.406,1.497 4.454,1.468C4.538,1.417 4.616,1.369 4.671,1.288C4.687,1.265 4.693,1.243 4.69,1.237C4.683,1.221 4.676,1.204 4.669,1.187C4.612,1.052 4.558,0.924 4.409,0.866C4.361,0.846 4.314,0.824 4.268,0.802C4.235,0.786 4.201,0.77 4.167,0.755C4.083,0.719 3.979,0.664 3.92,0.565C3.861,0.465 3.771,0.397 3.684,0.331C3.634,0.293 3.583,0.255 3.537,0.21C3.488,0.162 3.41,0.13 3.353,0.131C3.324,0.133 3.299,0.18 3.276,0.222C3.268,0.238 3.26,0.253 3.253,0.266C3.212,0.331 3.152,0.398 3.069,0.469C2.806,0.695 2.699,0.914 2.723,1.179C2.725,1.197 2.716,1.216 2.699,1.229C2.677,1.248 2.644,1.255 2.616,1.245C2.598,1.24 2.55,1.22 2.547,1.191C2.543,1.15 2.543,1.108 2.543,1.067C2.542,1.032 2.542,0.996 2.54,0.961C2.525,0.763 2.596,0.593 2.757,0.439C2.856,0.345 2.952,0.244 3.045,0.146C3.075,0.115 3.104,0.085 3.133,0.054C3.169,0.018 3.156,-0.029 3.133,-0.06C3.086,-0.123 3.023,-0.161 2.955,-0.202C2.902,-0.234 2.847,-0.266 2.802,-0.312C2.765,-0.349 2.743,-0.358 2.699,-0.32C2.527,-0.174 2.394,0.016 2.291,0.262C2.279,0.291 2.273,0.322 2.266,0.355C2.26,0.383 2.255,0.413 2.245,0.441C2.236,0.466 2.185,0.475 2.162,0.471C2.139,0.467 2.093,0.446 2.091,0.418C2.089,0.405 2.088,0.392 2.086,0.379C2.073,0.277 2.06,0.172 2.123,0.073C2.141,0.044 2.162,0.015 2.182,-0.014C2.227,-0.078 2.273,-0.144 2.3,-0.214C2.326,-0.282 2.374,-0.329 2.42,-0.375C2.46,-0.415 2.499,-0.454 2.521,-0.504C2.458,-0.597 2.363,-0.655 2.273,-0.712C2.229,-0.739 2.183,-0.767 2.141,-0.8C1.91,-0.975 1.9,-0.977 1.632,-0.975L1.593,-0.975C1.542,-0.975 1.49,-0.974 1.438,-0.973C1.311,-0.971 1.18,-0.969 1.053,-0.979C0.953,-0.988 0.858,-0.962 0.775,-0.903C0.732,-0.872 0.688,-0.844 0.644,-0.814C0.521,-0.733 0.394,-0.649 0.294,-0.535C0.256,-0.492 0.253,-0.458 0.282,-0.422C0.346,-0.343 0.41,-0.26 0.471,-0.181L0.539,-0.092C0.672,0.08 0.661,0.251 0.636,0.426C0.633,0.453 0.584,0.472 0.561,0.473L0.559,0.473C0.533,0.473 0.509,0.457 0.489,0.444C0.473,0.434 0.465,0.412 0.465,0.396C0.469,0.144 0.332,-0.048 0.198,-0.204C0.181,-0.224 0.165,-0.243 0.151,-0.259C0.099,-0.322 0.068,-0.36 0.031,-0.362C-0.007,-0.366 -0.06,-0.328 -0.163,-0.228C-0.204,-0.188 -0.254,-0.157 -0.302,-0.127C-0.329,-0.11 -0.357,-0.093 -0.383,-0.075C-0.409,-0.056 -0.424,-0.033 -0.427,-0.011C-0.428,0.012 -0.417,0.037 -0.393,0.061C-0.322,0.135 -0.25,0.207 -0.179,0.28C-0.088,0.372 0.002,0.464 0.091,0.557L0.096,0.562C0.132,0.6 0.176,0.645 0.178,0.692C0.182,0.832 0.214,0.97 0.245,1.103L0.252,1.135C0.258,1.16 0.253,1.184 0.239,1.204C0.22,1.231 0.186,1.249 0.147,1.254C0.109,1.258 0.064,1.247 0.035,1.223C0.017,1.209 0.007,1.193 0.005,1.175C0.002,1.152 0.001,1.128 0,1.097" style="fill:rgb(179,188,195);fill-rule:nonzero;"/>
            </g>
            <g transform="matrix(1,0,0,1,181.585,369.118)">
                <path d="M0,-2.428C-0.001,-2.508 -0.065,-2.563 -0.124,-2.569C-0.183,-2.574 -0.249,-2.581 -0.313,-2.575C-0.445,-2.564 -0.531,-2.626 -0.6,-2.688C-0.787,-2.856 -0.959,-3.001 -1.125,-3.131C-1.222,-3.207 -1.357,-3.293 -1.531,-3.28C-1.624,-3.272 -1.719,-3.274 -1.813,-3.275L-1.956,-3.275C-2.029,-3.274 -2.039,-3.237 -2.039,-3.205C-2.04,-2.655 -2.042,-2.064 -2.041,-1.472C-2.041,-1.399 -2.005,-1.31 -1.902,-1.302C-1.733,-1.289 -1.671,-1.183 -1.617,-1.066C-1.585,-0.997 -1.577,-0.938 -1.638,-0.877C-1.712,-0.802 -1.785,-0.726 -1.859,-0.65C-1.998,-0.507 -2.141,-0.359 -2.288,-0.219C-2.364,-0.147 -2.432,-0.064 -2.498,0.017C-2.605,0.149 -2.716,0.286 -2.87,0.38C-2.881,0.387 -2.889,0.431 -2.886,0.47C-2.883,0.5 -2.867,0.532 -2.848,0.568C-2.812,0.635 -2.788,0.686 -2.768,0.727C-2.704,0.862 -2.705,0.861 -2.539,0.861C-2.499,0.861 -2.448,0.86 -2.385,0.861C-2.23,0.864 -2.07,0.862 -1.917,0.86L-1.847,0.859C-1.793,0.858 -1.768,0.834 -1.768,0.784C-1.768,0.745 -1.767,0.707 -1.766,0.668C-1.758,0.509 -1.75,0.344 -1.897,0.226C-1.919,0.209 -1.929,0.166 -1.924,0.139C-1.915,0.098 -1.897,0.06 -1.874,0.034C-1.857,0.014 -1.804,0.014 -1.782,0.03C-1.671,0.106 -1.547,0.221 -1.569,0.427C-1.578,0.509 -1.575,0.595 -1.573,0.679C-1.572,0.709 -1.571,0.74 -1.57,0.771C-1.569,0.838 -1.544,0.861 -1.466,0.861L-1.398,0.861C-1.351,0.861 -1.31,0.862 -1.275,0.862C-1.169,0.864 -1.11,0.865 -1.088,0.842C-1.065,0.82 -1.066,0.765 -1.068,0.664C-1.068,0.616 -1.069,0.558 -1.068,0.487L-1.067,0.45C-1.066,0.387 -1.065,0.321 -1.071,0.258C-1.084,0.126 -1.037,0.015 -0.964,-0.111C-0.923,-0.182 -0.857,-0.221 -0.763,-0.23C-0.521,-0.254 0.051,-0.11 0.092,-0.477C0.1,-0.543 0.123,-0.608 0.145,-0.67C0.152,-0.691 0.16,-0.712 0.166,-0.733C0.208,-0.858 0.277,-0.91 0.404,-0.914C0.491,-0.916 0.581,-0.916 0.666,-0.915L0.828,-0.915C1.008,-0.917 1.008,-0.917 1.01,-1.082C1.01,-1.109 1.009,-1.135 1.009,-1.162C1.008,-1.199 1.007,-1.238 1.009,-1.275C1.009,-1.296 1.003,-1.314 0.991,-1.327C0.984,-1.335 0.974,-1.339 0.964,-1.339C0.792,-1.343 0.669,-1.425 0.565,-1.606C0.553,-1.628 0.514,-1.647 0.463,-1.656C0.399,-1.668 0.333,-1.663 0.31,-1.644C0.282,-1.622 0.28,-1.591 0.278,-1.555C0.277,-1.541 0.276,-1.527 0.274,-1.514C0.238,-1.292 0.116,-1.184 -0.098,-1.183C-0.206,-1.182 -0.314,-1.183 -0.421,-1.183L-0.577,-1.183L-0.577,-1.193C-0.682,-1.193 -0.788,-1.192 -0.896,-1.192C-0.964,-1.192 -1.032,-1.192 -1.099,-1.194C-1.421,-1.199 -1.605,-1.388 -1.607,-1.713C-1.608,-1.947 -1.608,-2.197 -1.606,-2.444C-1.605,-2.524 -1.622,-2.574 -1.711,-2.59C-1.727,-2.592 -1.74,-2.601 -1.749,-2.614C-1.768,-2.642 -1.762,-2.685 -1.757,-2.707C-1.752,-2.734 -1.712,-2.759 -1.685,-2.761C-1.649,-2.764 -1.614,-2.763 -1.578,-2.762C-1.538,-2.762 -1.495,-2.761 -1.454,-2.765C-1.264,-2.785 -1.083,-2.734 -0.906,-2.61C-0.843,-2.566 -0.78,-2.522 -0.723,-2.471C-0.667,-2.421 -0.612,-2.368 -0.559,-2.316C-0.512,-2.27 -0.464,-2.225 -0.415,-2.18C-0.176,-1.961 0.069,-1.876 0.333,-1.919C0.343,-1.921 0.356,-1.933 0.368,-1.945C0.365,-1.95 0.36,-1.956 0.356,-1.96C0.337,-1.98 0.318,-2.002 0.3,-2.024C0.259,-2.073 0.219,-2.12 0.17,-2.143C0.03,-2.205 0.001,-2.302 0,-2.428" style="fill:rgb(122,149,161);fill-rule:nonzero;"/>
            </g>
            <g transform="matrix(1,0,0,1,185.184,369.502)">
                <path d="M0,-0.256C-0.025,-0.29 -0.055,-0.32 -0.085,-0.351C-0.099,-0.366 -0.114,-0.381 -0.129,-0.397C-0.188,-0.462 -0.256,-0.492 -0.345,-0.492L-0.352,-0.492C-0.626,-0.488 -0.905,-0.488 -1.175,-0.489C-1.388,-0.49 -1.601,-0.49 -1.813,-0.49L-2.156,-0.49C-2.312,-0.49 -2.469,-0.49 -2.624,-0.489C-2.861,-0.487 -3.046,-0.337 -3.097,-0.106C-3.104,-0.075 -3.104,-0.053 -3.098,-0.043C-3.046,0.045 -2.991,0.13 -2.935,0.21C-2.923,0.227 -2.906,0.232 -2.893,0.234C-2.869,0.236 -2.845,0.228 -2.825,0.211L-2.814,0.2C-2.781,0.171 -2.75,0.144 -2.749,0.1L-2.748,0.041C-2.747,-0.004 -2.746,-0.048 -2.744,-0.093C-2.741,-0.156 -2.702,-0.188 -2.656,-0.22C-2.543,-0.299 -2.421,-0.298 -2.301,-0.298L-2.278,-0.297C-2.154,-0.297 -2.145,-0.287 -2.092,-0.198C-2.086,-0.186 -2.078,-0.173 -2.069,-0.158C-2.036,-0.103 -2.031,-0.047 -2.026,0.007C-2.023,0.053 -2.019,0.097 -1.999,0.136C-1.998,0.138 -1.993,0.142 -1.99,0.142C-1.984,0.141 -1.974,0.133 -1.967,0.127C-1.927,0.094 -1.914,0.05 -1.9,-0.001C-1.897,-0.011 -1.894,-0.021 -1.891,-0.031C-1.834,-0.218 -1.734,-0.295 -1.547,-0.298C-1.531,-0.298 -1.516,-0.298 -1.5,-0.297C-1.477,-0.297 -1.454,-0.296 -1.432,-0.298L-1.408,-0.298C-1.293,-0.298 -1.212,-0.244 -1.173,-0.14C-1.164,-0.115 -1.152,-0.091 -1.139,-0.066C-1.11,-0.011 -1.08,0.046 -1.085,0.117C-1.083,0.12 -1.07,0.133 -1.062,0.137C-1.045,0.13 -1.029,0.115 -1.014,0.099C-0.983,0.069 -0.98,0.033 -0.975,-0.008C-0.974,-0.017 -0.973,-0.026 -0.973,-0.035C-0.944,-0.255 -0.9,-0.297 -0.702,-0.297L-0.676,-0.297C-0.646,-0.297 -0.615,-0.297 -0.584,-0.296C-0.387,-0.288 -0.272,-0.177 -0.25,0.025C-0.248,0.037 -0.248,0.05 -0.247,0.062C-0.244,0.112 -0.242,0.156 -0.199,0.186C-0.192,0.191 -0.185,0.198 -0.178,0.205C-0.156,0.227 -0.148,0.233 -0.127,0.214L-0.108,0.197C-0.077,0.169 -0.045,0.14 -0.016,0.109C0.131,-0.046 0.133,-0.08 0,-0.256" style="fill:rgb(153,128,94);fill-rule:nonzero;"/>
            </g>
            <g transform="matrix(1,0,0,1,185.211,371.422)">
                <path d="M0,-0.78C-0.003,-0.839 -0.007,-0.896 -0.001,-0.95L-0.001,-1.093C-0.001,-1.211 0,-1.323 -0.003,-1.434C-0.003,-1.459 -0.018,-1.487 -0.058,-1.487C-0.077,-1.487 -0.096,-1.488 -0.117,-1.488L-0.134,-1.488C-0.248,-1.484 -0.343,-1.498 -0.428,-1.58C-0.508,-1.657 -0.54,-1.749 -0.531,-1.871C-0.53,-1.881 -0.53,-1.893 -0.532,-1.904C-0.545,-1.956 -0.628,-2.022 -0.685,-2.021C-0.727,-2.016 -0.796,-1.957 -0.803,-1.911C-0.807,-1.886 -0.807,-1.86 -0.807,-1.835C-0.808,-1.795 -0.808,-1.754 -0.822,-1.717C-0.853,-1.631 -0.917,-1.577 -1.002,-1.567C-1.16,-1.548 -1.236,-1.584 -1.305,-1.72C-1.333,-1.774 -1.361,-1.83 -1.379,-1.89C-1.392,-1.937 -1.419,-1.956 -1.474,-1.958C-1.511,-1.96 -1.549,-1.96 -1.589,-1.96C-1.696,-1.957 -1.698,-1.956 -1.733,-1.854L-1.742,-1.825C-1.755,-1.787 -1.768,-1.748 -1.785,-1.711C-1.844,-1.582 -1.895,-1.553 -2.034,-1.564C-2.114,-1.571 -2.175,-1.609 -2.203,-1.67C-2.212,-1.692 -2.223,-1.713 -2.233,-1.735C-2.267,-1.803 -2.302,-1.874 -2.31,-1.957C-2.312,-1.98 -2.321,-1.997 -2.338,-2.009C-2.36,-2.026 -2.394,-2.03 -2.431,-2.023C-2.487,-2.011 -2.557,-1.979 -2.575,-1.891C-2.584,-1.846 -2.583,-1.797 -2.582,-1.75L-2.582,-1.702C-2.582,-1.626 -2.629,-1.598 -2.678,-1.567C-2.685,-1.563 -2.692,-1.558 -2.699,-1.554C-2.776,-1.504 -2.856,-1.483 -2.963,-1.487C-2.994,-1.487 -3.018,-1.482 -3.031,-1.47C-3.042,-1.459 -3.047,-1.444 -3.047,-1.422C-3.048,-1.127 -3.048,-0.832 -3.049,-0.537C-3.049,-0.483 -3.03,-0.457 -2.982,-0.443C-2.77,-0.383 -2.453,-0.363 -2.433,-0.091C-2.425,0.009 -2.453,0.108 -2.478,0.205C-2.48,0.211 -2.481,0.218 -2.483,0.225C-2.483,0.227 -2.484,0.229 -2.484,0.231C-2.5,0.299 -2.514,0.367 -2.506,0.436C-2.501,0.475 -2.487,0.514 -2.466,0.548C-2.499,0.597 -2.5,0.676 -2.5,0.826C-2.5,0.84 -2.5,0.852 -2.501,0.865C-2.502,0.891 -2.504,0.916 -2.499,0.94C-2.495,0.969 -2.499,1.002 -2.503,1.034C-2.512,1.106 -2.514,1.151 -2.46,1.163C-2.39,1.178 -2.377,1.137 -2.358,1.063C-2.347,1.024 -2.337,0.984 -2.312,0.957C-2.308,0.953 -2.308,0.939 -2.308,0.928C-2.308,0.915 -2.308,0.901 -2.303,0.888C-2.282,0.828 -2.204,0.773 -2.14,0.747C-2.109,0.735 -2.08,0.729 -2.054,0.729C-2.036,0.729 -2.019,0.732 -2.005,0.739C-1.99,0.748 -1.973,0.755 -1.956,0.762C-1.883,0.792 -1.8,0.827 -1.803,0.953C-1.803,0.991 -1.787,1.027 -1.769,1.065C-1.749,1.109 -1.728,1.153 -1.729,1.206C-1.729,1.215 -1.725,1.223 -1.717,1.231C-1.706,1.243 -1.687,1.25 -1.667,1.25L-1.664,1.25C-1.618,1.248 -1.574,1.249 -1.529,1.249C-1.484,1.25 -1.44,1.25 -1.395,1.249C-1.339,1.247 -1.313,1.224 -1.312,1.176C-1.31,1.12 -1.307,1.06 -1.301,0.983C-1.293,0.858 -1.197,0.795 -1.113,0.741C-1.057,0.704 -1.012,0.731 -0.973,0.754C-0.956,0.765 -0.94,0.774 -0.923,0.779C-0.792,0.816 -0.731,0.902 -0.729,1.051C-0.728,1.085 -0.719,1.122 -0.704,1.151C-0.7,1.159 -0.675,1.168 -0.657,1.169C-0.643,1.168 -0.62,1.153 -0.617,1.146C-0.613,1.082 -0.614,1.013 -0.614,0.948C-0.615,0.925 -0.615,0.903 -0.615,0.88L-0.615,0.864L-0.611,0.864L-0.61,0.786C-0.61,0.715 -0.61,0.644 -0.611,0.573C-0.611,0.567 -0.615,0.564 -0.616,0.559C-0.616,0.548 -0.615,0.537 -0.615,0.526C-0.62,0.428 -0.627,0.33 -0.631,0.232C-0.624,0.223 -0.618,0.211 -0.614,0.197C-0.611,0.185 -0.611,0.169 -0.612,0.143C-0.613,0.127 -0.613,0.107 -0.613,0.082C-0.608,0.048 -0.612,0.014 -0.62,-0.018C-0.572,-0.294 -0.413,-0.357 -0.14,-0.43C-0.103,-0.439 -0.066,-0.449 -0.03,-0.46C0.013,-0.565 0.006,-0.675 0,-0.78" style="fill:rgb(107,86,102);fill-rule:nonzero;"/>
            </g>
            <g transform="matrix(1,0,0,1,182.71,373.071)">
                <path d="M0,0.413L0.002,0.429L0.002,0.553C0.001,0.702 0.001,0.855 0.003,1.007C0.003,1.022 0.015,1.045 0.03,1.059C0.047,1.077 0.093,1.083 0.146,1.074C0.206,1.064 0.258,1.038 0.271,1.012L0.305,0.943C0.36,0.833 0.417,0.718 0.467,0.603C0.52,0.479 0.626,0.4 0.767,0.38C0.899,0.36 1.037,0.37 1.169,0.379L1.192,0.38C1.243,0.384 1.294,0.42 1.333,0.452C1.404,0.51 1.446,0.568 1.47,0.642C1.497,0.725 1.54,0.805 1.581,0.883C1.592,0.904 1.603,0.926 1.615,0.947C1.628,0.974 1.649,1.002 1.679,1.035C1.717,1.075 1.769,1.087 1.841,1.07C1.885,1.061 1.893,1.026 1.893,0.966C1.892,0.62 1.892,0.274 1.893,-0.072C1.893,-0.153 1.879,-0.192 1.794,-0.225C1.655,-0.279 1.575,-0.393 1.575,-0.536C1.575,-0.559 1.554,-0.587 1.535,-0.612L1.526,-0.625C1.508,-0.649 1.49,-0.662 1.482,-0.662L1.481,-0.662C1.474,-0.662 1.46,-0.647 1.45,-0.637C1.445,-0.631 1.44,-0.625 1.435,-0.621C1.391,-0.581 1.389,-0.53 1.386,-0.476C1.386,-0.456 1.385,-0.435 1.382,-0.415C1.361,-0.277 1.293,-0.209 1.173,-0.207C1.074,-0.205 0.973,-0.206 0.876,-0.207C0.821,-0.207 0.766,-0.208 0.711,-0.208C0.626,-0.208 0.598,-0.264 0.568,-0.324L0.566,-0.329C0.532,-0.399 0.501,-0.468 0.503,-0.553C0.504,-0.603 0.501,-0.643 0.456,-0.666C0.441,-0.674 0.416,-0.668 0.359,-0.557C0.327,-0.495 0.309,-0.441 0.301,-0.384C0.287,-0.294 0.22,-0.227 0.134,-0.219C0.028,-0.209 -0.006,-0.172 -0.002,-0.071C0.003,0.046 0.002,0.165 0.001,0.28C0.001,0.325 0,0.369 0,0.413" style="fill:rgb(153,128,94);fill-rule:nonzero;"/>
            </g>
            <g transform="matrix(1,0,0,1,181.335,360.934)">
                <path d="M0,0.996C0.017,1.002 0.084,0.991 0.131,0.948C0.21,0.876 0.297,0.812 0.382,0.75C0.525,0.645 0.673,0.537 0.787,0.386L0.727,0.328C0.697,0.299 0.667,0.27 0.637,0.242C0.588,0.195 0.565,0.135 0.567,0.058C0.567,0.034 0.559,0.009 0.553,0.005C0.534,-0.006 0.524,0.001 0.502,0.032L0.494,0.042C0.427,0.13 0.358,0.22 0.295,0.314C0.209,0.443 0.121,0.581 0.035,0.725C0.008,0.768 -0.009,0.815 -0.014,0.856C-0.019,0.899 -0.01,0.947 -0.001,0.992L0,0.996Z" style="fill:rgb(179,188,195);fill-rule:nonzero;"/>
            </g>
            <g transform="matrix(1,0,0,1,187.596,366.75)">
                <path d="M0,1.334C-0.022,1.383 0.002,1.407 0.047,1.445C0.077,1.469 0.108,1.495 0.116,1.534C0.119,1.545 0.121,1.556 0.127,1.564C0.141,1.584 0.159,1.595 0.177,1.598C0.196,1.6 0.214,1.595 0.231,1.582C0.317,1.515 0.402,1.449 0.488,1.382L0.652,1.255C0.69,1.225 0.732,1.225 0.776,1.254C0.794,1.266 0.805,1.286 0.807,1.31C0.811,1.345 0.796,1.384 0.769,1.413C0.764,1.418 0.76,1.422 0.755,1.427C0.741,1.441 0.728,1.456 0.712,1.468C0.654,1.512 0.595,1.556 0.536,1.6C0.493,1.632 0.45,1.664 0.408,1.695C0.374,1.72 0.357,1.744 0.355,1.767C0.347,1.882 0.779,2.243 0.848,2.193C1.119,1.994 1.415,1.824 1.7,1.661L1.783,1.613C1.874,1.561 1.94,1.505 1.996,1.433L1.984,1.43C1.96,1.423 1.937,1.418 1.914,1.416C1.798,1.41 1.682,1.405 1.565,1.4C1.565,1.4 1.45,1.395 1.445,1.391C1.411,1.358 1.377,1.326 1.342,1.294C1.266,1.222 1.187,1.148 1.112,1.071C1.096,1.055 1.08,1.039 1.064,1.024C1.006,0.97 0.947,0.913 0.918,0.827C0.905,0.788 0.86,0.742 0.825,0.732C0.713,0.7 0.698,0.623 0.699,0.545C0.7,0.447 0.7,0.349 0.7,0.252L0.699,-0.142C0.7,-0.362 0.7,-0.582 0.699,-0.802C0.698,-0.895 0.684,-0.907 0.571,-0.909C0.562,-0.908 0.549,-0.908 0.538,-0.908C0.523,-0.906 0.508,-0.906 0.489,-0.906C0.444,-0.906 0.435,-0.867 0.433,-0.854C0.426,-0.806 0.427,-0.756 0.427,-0.707L0.427,-0.665C0.427,-0.534 0.427,-0.403 0.426,-0.273C0.425,0.103 0.423,0.492 0.429,0.874C0.431,1.053 0.351,1.178 0.189,1.247C0.167,1.257 0.142,1.263 0.118,1.268C0.068,1.28 0.02,1.291 0,1.334" style="fill:rgb(116,14,48);fill-rule:nonzero;"/>
            </g>
            <g transform="matrix(1,0,0,1,180.644,360.87)">
                <path d="M0,1.606L0.002,1.606C0.017,1.599 0.032,1.593 0.048,1.589C0.13,1.565 0.189,1.508 0.253,1.449C0.31,1.393 0.37,1.336 0.451,1.307C0.466,1.301 0.485,1.259 0.489,1.225C0.495,1.162 0.489,1.097 0.483,1.037C0.465,0.865 0.498,0.719 0.584,0.591C0.593,0.578 0.6,0.564 0.608,0.551C0.619,0.531 0.63,0.511 0.645,0.493C0.724,0.388 0.673,0.291 0.612,0.21C0.567,0.149 0.509,0.095 0.453,0.044C0.437,0.029 0.422,0.014 0.406,0C0.402,0.144 0.357,0.273 0.314,0.398C0.303,0.428 0.293,0.458 0.284,0.488C0.236,0.631 0.176,0.78 0.1,0.943L0.092,0.958C0.068,1.01 0.045,1.058 0.052,1.113C0.07,1.256 0.028,1.388 -0.013,1.516L-0.016,1.528C-0.021,1.543 -0.013,1.566 -0.006,1.589C-0.004,1.594 -0.002,1.6 0,1.606" style="fill:rgb(122,149,161);fill-rule:nonzero;"/>
            </g>
            <g transform="matrix(1,0,0,1,177.785,363.964)">
                <path d="M0,1.052C0,1.059 0.008,1.07 0.016,1.08C0.023,1.09 0.03,1.1 0.035,1.111L0.039,1.122C0.056,1.166 0.072,1.205 0.081,1.207L0.082,1.207C0.092,1.207 0.119,1.185 0.15,1.16L0.172,1.142C0.312,1.028 0.366,0.896 0.343,0.727C0.339,0.691 0.34,0.655 0.341,0.619C0.342,0.604 0.342,0.588 0.342,0.572C0.342,0.548 0.342,0.524 0.341,0.5C0.34,0.448 0.338,0.394 0.343,0.341C0.354,0.235 0.313,0.165 0.212,0.113C0.166,0.09 0.118,0.069 0.071,0.048C-0.041,-0.001 -0.157,-0.053 -0.254,-0.139C-0.268,-0.151 -0.284,-0.155 -0.3,-0.155C-0.312,-0.155 -0.323,-0.153 -0.333,-0.149C-0.356,-0.14 -0.381,-0.119 -0.385,-0.088C-0.405,0.114 -0.409,0.271 -0.273,0.433C-0.127,0.607 0.015,0.798 0,1.052" style="fill:rgb(153,128,94);fill-rule:nonzero;"/>
            </g>
            <g transform="matrix(1,0,0,1,178.379,361.72)">
                <path d="M0,2.609C-0.003,2.7 -0.007,2.794 0.003,2.885C0.006,2.917 0.002,2.953 -0.002,2.987C-0.011,3.076 -0.013,3.131 0.042,3.153C0.13,3.188 0.175,3.117 0.225,3.043C0.242,3.018 0.259,2.993 0.278,2.972C0.381,2.857 0.489,2.795 0.598,2.789C0.645,2.786 0.693,2.785 0.739,2.784C0.769,2.784 0.799,2.783 0.829,2.782C0.879,2.78 0.888,2.751 0.896,2.692C0.91,2.573 0.88,2.494 0.802,2.435C0.762,2.406 0.724,2.368 0.69,2.324C0.66,2.287 0.665,2.234 0.704,2.201C0.741,2.168 0.792,2.166 0.829,2.198C0.89,2.251 0.951,2.308 1.009,2.362L1.028,2.38C1.074,2.424 1.086,2.479 1.091,2.527C1.094,2.556 1.09,2.586 1.087,2.616C1.08,2.68 1.074,2.735 1.123,2.767C1.198,2.816 1.297,2.835 1.4,2.852C1.474,2.864 1.552,2.864 1.627,2.865C1.653,2.865 1.679,2.866 1.705,2.866L1.715,2.866C1.772,2.866 1.811,2.851 1.829,2.784C1.893,2.547 2.058,2.394 2.32,2.329C2.394,2.311 2.45,2.279 2.507,2.224C2.543,2.19 2.578,2.154 2.612,2.119C2.694,2.035 2.778,1.949 2.872,1.88C3.223,1.628 3.591,1.355 4.032,1.02C4.216,0.881 4.382,0.757 4.564,0.651L4.579,0.642C4.657,0.596 4.746,0.545 4.854,0.548C4.984,0.552 5.116,0.551 5.245,0.55C5.395,0.549 5.55,0.547 5.702,0.554C5.856,0.561 6.004,0.614 6.129,0.708C6.254,0.802 6.38,0.895 6.506,0.989C6.683,1.12 6.865,1.256 7.044,1.391C7.147,1.469 7.255,1.545 7.358,1.619C7.621,1.806 7.893,1.999 8.122,2.24C8.159,2.28 8.207,2.309 8.276,2.332C8.321,2.348 8.362,2.372 8.401,2.396C8.437,2.418 8.474,2.44 8.513,2.454C8.636,2.501 8.701,2.578 8.727,2.714C8.753,2.839 8.802,2.863 8.927,2.866C9.074,2.87 9.209,2.835 9.353,2.798L9.37,2.794C9.441,2.776 9.466,2.748 9.465,2.685C9.46,2.445 9.568,2.28 9.787,2.196C9.84,2.176 9.867,2.204 9.888,2.226C9.891,2.229 9.894,2.233 9.897,2.236C9.913,2.251 9.934,2.274 9.932,2.302C9.932,2.32 9.922,2.337 9.903,2.353C9.895,2.359 9.888,2.366 9.88,2.374C9.858,2.394 9.835,2.416 9.806,2.424C9.745,2.442 9.718,2.48 9.718,2.549L9.719,2.595L9.719,2.664C9.72,2.717 9.724,2.753 9.742,2.769C9.755,2.782 9.784,2.786 9.831,2.785C9.843,2.784 9.856,2.784 9.869,2.784C10.115,2.784 10.294,2.888 10.414,3.1C10.417,3.105 10.419,3.11 10.422,3.116C10.43,3.13 10.439,3.149 10.448,3.152C10.475,3.162 10.508,3.166 10.552,3.165C10.586,3.165 10.608,3.143 10.608,3.111C10.61,2.998 10.61,2.883 10.609,2.773L10.609,2.633L10.613,2.633L10.613,2.513C10.614,2.391 10.614,2.27 10.613,2.148C10.612,2.063 10.564,2.001 10.513,1.934C10.504,1.923 10.496,1.913 10.488,1.902C10.428,1.899 10.373,1.878 10.321,1.858C10.263,1.836 10.209,1.816 10.148,1.816L10.13,1.816C10.059,1.821 9.987,1.819 9.918,1.817C9.835,1.815 9.75,1.813 9.669,1.822C9.428,1.847 9.227,1.743 9.049,1.651C9.031,1.641 9.015,1.626 9.001,1.612C8.987,1.6 8.974,1.587 8.959,1.579C8.849,1.522 8.758,1.439 8.67,1.359C8.646,1.337 8.622,1.315 8.598,1.294C8.529,1.234 8.455,1.177 8.383,1.123C8.335,1.086 8.287,1.049 8.239,1.011C8.112,0.908 7.979,0.807 7.851,0.709C7.711,0.602 7.567,0.491 7.428,0.378C7.278,0.256 7.12,0.139 6.967,0.026C6.809,-0.091 6.646,-0.212 6.492,-0.338C6.292,-0.502 6.105,-0.579 5.904,-0.579L5.881,-0.579C5.535,-0.568 5.182,-0.572 4.841,-0.575L4.687,-0.577L4.682,-0.577C4.575,-0.577 4.485,-0.543 4.404,-0.507C4.167,-0.399 3.964,-0.239 3.766,-0.083C3.691,-0.023 3.614,0.038 3.535,0.095C3.451,0.157 3.368,0.225 3.287,0.29C3.203,0.359 3.115,0.43 3.025,0.495C2.646,0.77 2.255,1.074 1.795,1.452C1.66,1.563 1.515,1.66 1.352,1.75C1.282,1.788 1.218,1.82 1.136,1.82C1.112,1.821 1.087,1.82 1.062,1.819C1.01,1.819 0.958,1.82 0.907,1.821C0.777,1.823 0.644,1.825 0.514,1.814C0.505,1.813 0.496,1.813 0.487,1.813C0.416,1.813 0.353,1.836 0.287,1.861C0.232,1.881 0.175,1.902 0.113,1.908C0.088,1.911 0.049,1.946 0.015,1.997C-0.025,2.059 -0.048,2.128 -0.037,2.159C0.012,2.309 0.006,2.462 0,2.609" style="fill:rgb(122,149,161);fill-rule:nonzero;"/>
            </g>
            <g transform="matrix(1,0,0,1,179.403,361.864)">
                <path d="M0,1.443C0.002,1.449 0.023,1.465 0.032,1.469C0.078,1.445 0.129,1.433 0.178,1.422C0.249,1.406 0.315,1.391 0.369,1.343C0.403,1.311 0.437,1.277 0.47,1.244C0.517,1.197 0.566,1.149 0.618,1.105C0.666,1.065 0.719,1.028 0.769,0.992C0.81,0.964 0.852,0.934 0.891,0.903C0.928,0.874 0.966,0.844 0.96,0.794C0.951,0.705 0.979,0.624 1.006,0.545C1.034,0.463 1.061,0.385 1.039,0.309L1.038,0.304C1.04,0.11 1.04,0.11 0.986,0.032C0.96,-0.004 0.928,-0.026 0.9,-0.026C0.897,-0.026 0.895,-0.026 0.892,-0.025C0.871,-0.022 0.854,-0.006 0.845,0.022C0.785,0.196 0.674,0.324 0.544,0.463C0.405,0.612 0.298,0.742 0.209,0.869C0.136,0.975 0.069,1.1 -0.002,1.263C-0.019,1.302 -0.012,1.354 -0.005,1.406C-0.003,1.418 -0.001,1.431 0,1.443" style="fill:rgb(179,188,195);fill-rule:nonzero;"/>
            </g>
            <g transform="matrix(1,0,0,1,178.7,363.044)">
                <path d="M0,-0.638C0.002,-0.615 0.014,-0.591 0.028,-0.566C0.038,-0.547 0.049,-0.526 0.055,-0.503C0.063,-0.478 0.07,-0.452 0.077,-0.427C0.139,-0.212 0.204,0.011 0.086,0.242C0.081,0.251 0.081,0.259 0.085,0.267C0.092,0.28 0.112,0.292 0.133,0.294C0.167,0.299 0.202,0.298 0.238,0.297C0.253,0.296 0.269,0.296 0.284,0.296C0.485,0.299 0.487,0.3 0.5,0.091C0.506,-0.003 0.544,-0.08 0.581,-0.154C0.594,-0.179 0.607,-0.205 0.619,-0.231C0.697,-0.413 0.658,-0.556 0.499,-0.67C0.481,-0.682 0.464,-0.696 0.446,-0.709C0.393,-0.748 0.34,-0.788 0.281,-0.816C0.259,-0.826 0.237,-0.842 0.216,-0.856C0.151,-0.9 0.094,-0.938 0.028,-0.88C-0.023,-0.834 -0.014,-0.761 -0.005,-0.689C-0.003,-0.672 -0.001,-0.654 0,-0.638" style="fill:rgb(107,86,102);fill-rule:nonzero;"/>
            </g>
            <g transform="matrix(1,0,0,1,181.934,360.376)">
                <path d="M0,-0.006L0,-0.001C-0.017,0.109 0.008,0.19 0.076,0.249C0.14,0.304 0.168,0.381 0.158,0.47C0.143,0.595 0.19,0.693 0.305,0.781C0.356,0.82 0.398,0.817 0.451,0.771C0.52,0.71 0.53,0.639 0.483,0.552C0.453,0.498 0.422,0.441 0.464,0.362C0.48,0.333 0.487,0.299 0.495,0.263C0.501,0.237 0.508,0.21 0.517,0.185C0.543,0.115 0.541,-0.105 0.507,-0.164C0.459,-0.244 0.412,-0.342 0.423,-0.461C0.426,-0.504 0.426,-0.549 0.425,-0.593C0.424,-0.625 0.423,-0.657 0.425,-0.689C0.426,-0.739 0.399,-0.771 0.362,-0.808C0.355,-0.816 0.349,-0.821 0.346,-0.823C0.328,-0.815 0.316,-0.808 0.315,-0.804C0.299,-0.651 0.227,-0.528 0.125,-0.391C0.033,-0.268 -0.023,-0.155 0,-0.006Z" style="fill:rgb(122,149,161);fill-rule:nonzero;"/>
            </g>
            <g transform="matrix(1,0,0,1,184.097,360.379)">
                <path d="M0,0.182C0.002,0.28 0.004,0.381 -0.053,0.475C-0.049,0.483 -0.039,0.496 -0.033,0.501C-0.02,0.5 -0.007,0.5 0.006,0.5C0.201,0.5 0.381,0.561 0.518,0.616C0.545,0.627 0.558,0.627 0.563,0.624C0.57,0.62 0.574,0.608 0.579,0.593C0.581,0.584 0.584,0.576 0.588,0.567C0.596,0.548 0.606,0.531 0.616,0.515C0.638,0.48 0.658,0.446 0.651,0.405C0.654,0.362 0.634,0.332 0.613,0.301C0.607,0.292 0.601,0.283 0.595,0.274C0.469,0.063 0.292,-0.11 0.122,-0.277C0.07,-0.328 0.019,-0.378 -0.032,-0.43C-0.043,-0.441 -0.051,-0.445 -0.055,-0.445C-0.059,-0.445 -0.061,-0.443 -0.063,-0.439C-0.07,-0.43 -0.076,-0.42 -0.077,-0.414C-0.077,-0.393 -0.079,-0.372 -0.081,-0.35C-0.089,-0.27 -0.095,-0.194 -0.05,-0.127C-0.001,-0.052 0.002,0.026 0,0.101C-0.001,0.128 0,0.155 0,0.182" style="fill:rgb(107,86,102);fill-rule:nonzero;"/>
            </g>
            <g transform="matrix(1,0,0,1,184.886,359.722)">
                <path d="M0,1.291C-0.011,1.313 -0.007,1.347 0.012,1.383C0.036,1.426 0.076,1.459 0.108,1.462L0.114,1.462C0.157,1.462 0.225,1.427 0.275,1.379C0.31,1.346 0.331,1.31 0.33,1.285C0.324,1.139 0.343,1.022 0.449,0.924C0.468,0.906 0.479,0.878 0.491,0.849C0.499,0.831 0.506,0.812 0.516,0.795C0.575,0.694 0.576,0.593 0.519,0.486C0.488,0.428 0.45,0.359 0.404,0.294C0.325,0.181 0.259,0.077 0.247,-0.055C0.245,-0.075 0.235,-0.099 0.222,-0.113C0.206,-0.132 0.186,-0.147 0.165,-0.163C0.161,-0.166 0.157,-0.168 0.154,-0.171L0.152,-0.168C0.143,-0.153 0.136,-0.14 0.135,-0.128L0.133,-0.098C0.128,-0.033 0.123,0.035 0.131,0.099C0.146,0.219 0.101,0.321 0.056,0.42L0.05,0.435C0.031,0.478 0.006,0.528 -0.029,0.57C-0.106,0.661 -0.101,0.733 -0.01,0.845C0.089,0.966 0.092,1.116 0,1.291" style="fill:rgb(122,149,161);fill-rule:nonzero;"/>
            </g>
            <g transform="matrix(1,0,0,1,182.687,359.977)">
                <path d="M0,1.012C0.038,1.053 0.066,1.036 0.105,1.003C0.117,0.994 0.128,0.985 0.139,0.979C0.244,0.922 0.355,0.917 0.462,0.912C0.491,0.911 0.521,0.91 0.551,0.907C0.586,0.905 0.598,0.874 0.599,0.846C0.599,0.839 0.599,0.832 0.6,0.825C0.601,0.807 0.603,0.789 0.597,0.78C0.479,0.587 0.538,0.403 0.603,0.263C0.629,0.206 0.654,0.151 0.669,0.092C0.68,0.049 0.652,0.018 0.612,-0.022C0.599,-0.035 0.587,-0.041 0.577,-0.041L0.572,-0.041C0.557,-0.038 0.541,-0.021 0.526,0.009C0.476,0.113 0.397,0.193 0.321,0.27C0.301,0.291 0.28,0.312 0.26,0.333C0.237,0.357 0.214,0.38 0.19,0.403C0.133,0.459 0.074,0.518 0.034,0.585C0.026,0.598 0.018,0.612 0.008,0.626C-0.035,0.694 -0.08,0.764 -0.062,0.851C-0.061,0.94 -0.056,0.952 0,1.012" style="fill:rgb(107,86,102);fill-rule:nonzero;"/>
            </g>
            <g transform="matrix(1,0,0,1,185.429,361.928)">
                <path d="M0,-0.994C-0.009,-0.857 -0.038,-0.702 -0.179,-0.588C-0.179,-0.573 -0.165,-0.526 -0.15,-0.514C-0.001,-0.396 0.152,-0.278 0.3,-0.164C0.37,-0.111 0.438,-0.057 0.507,-0.004C0.52,0.006 0.531,0.009 0.536,0.009C0.544,0.007 0.552,-0.003 0.56,-0.022C0.614,-0.139 0.614,-0.151 0.561,-0.243C0.407,-0.514 0.224,-0.773 0.065,-0.994C0.062,-0.998 0.043,-1 0.033,-1.001C0.026,-1.001 0.019,-1.002 0.013,-1.003C0.012,-1.002 0.01,-1.001 0.008,-1C0.006,-0.998 0.002,-0.996 0,-0.994" style="fill:rgb(179,188,195);fill-rule:nonzero;"/>
            </g>
            <g transform="matrix(1,0,0,1,176.349,366.152)">
                <path d="M0,-0.036C0.028,-0.021 0.061,-0.014 0.095,-0.006C0.123,-0 0.151,0.006 0.177,0.016C0.531,0.157 0.896,0.285 1.25,0.408C1.339,0.44 1.43,0.471 1.519,0.503L1.542,0.511C1.598,0.529 1.65,0.547 1.691,0.594C1.706,0.612 1.723,0.629 1.739,0.647C1.798,0.712 1.859,0.779 1.905,0.865C1.972,0.993 2.059,1.114 2.142,1.231C2.167,1.266 2.193,1.301 2.217,1.337C2.223,1.345 2.252,1.355 2.261,1.351C2.371,1.273 2.477,1.199 2.475,1.038C2.469,0.523 2.47,0.107 2.477,-0.27C2.48,-0.414 2.437,-0.492 2.335,-0.53C2.272,-0.554 2.248,-0.604 2.227,-0.647C2.217,-0.67 2.207,-0.691 2.192,-0.709C2.18,-0.723 2.175,-0.738 2.176,-0.753C2.178,-0.777 2.199,-0.794 2.217,-0.809C2.221,-0.813 2.226,-0.817 2.231,-0.821C2.251,-0.841 2.271,-0.851 2.29,-0.851L2.291,-0.851C2.311,-0.85 2.329,-0.841 2.346,-0.822C2.371,-0.796 2.397,-0.771 2.423,-0.746C2.452,-0.718 2.482,-0.689 2.51,-0.659C2.57,-0.594 2.637,-0.565 2.725,-0.565L2.734,-0.565C2.887,-0.568 3.042,-0.568 3.193,-0.567C3.345,-0.567 3.503,-0.566 3.657,-0.569L3.669,-0.569C3.765,-0.569 3.854,-0.547 3.955,-0.495C4.241,-0.349 4.483,-0.142 4.661,0.022C4.794,0.143 4.94,0.202 5.11,0.202L5.132,0.202C5.216,0.2 5.234,0.192 5.236,0.113C5.238,-0.004 5.26,-0.12 5.4,-0.182C5.513,-0.232 5.589,-0.322 5.669,-0.418L5.685,-0.436C5.683,-0.437 5.681,-0.438 5.679,-0.44C5.674,-0.443 5.667,-0.449 5.665,-0.449C5.625,-0.449 5.585,-0.45 5.546,-0.451C5.434,-0.454 5.318,-0.456 5.205,-0.449C5.192,-0.448 5.179,-0.448 5.166,-0.448C5.026,-0.448 4.897,-0.498 4.774,-0.6C4.628,-0.721 4.47,-0.83 4.318,-0.936C4.184,-1.028 4.045,-1.123 3.916,-1.227C3.812,-1.309 3.678,-1.357 3.505,-1.373C3.301,-1.391 3.091,-1.39 2.89,-1.388C2.8,-1.387 2.711,-1.387 2.622,-1.387L2.619,-1.387C2.554,-1.387 2.503,-1.364 2.467,-1.318C2.447,-1.294 2.429,-1.266 2.411,-1.239C2.38,-1.192 2.348,-1.144 2.305,-1.106C2.256,-1.062 2.193,-1.059 2.132,-1.056C2.091,-1.054 2.048,-1.051 2.009,-1.036L1.982,-1.025C1.875,-0.983 1.774,-0.944 1.694,-0.855C1.642,-0.798 1.586,-0.743 1.532,-0.691C1.468,-0.63 1.403,-0.566 1.344,-0.498C1.234,-0.37 1.101,-0.342 0.949,-0.415C0.911,-0.434 0.872,-0.441 0.832,-0.449C0.811,-0.453 0.791,-0.457 0.77,-0.462C0.698,-0.481 0.626,-0.503 0.556,-0.523C0.39,-0.573 0.219,-0.624 0.044,-0.641C0.026,-0.643 0.012,-0.653 -0.002,-0.662C-0.011,-0.669 -0.019,-0.675 -0.028,-0.678C-0.042,-0.683 -0.058,-0.684 -0.075,-0.686C-0.083,-0.687 -0.091,-0.688 -0.099,-0.689C-0.12,-0.692 -0.145,-0.686 -0.164,-0.671C-0.178,-0.658 -0.187,-0.642 -0.187,-0.627C-0.188,-0.589 -0.188,-0.552 -0.187,-0.515C-0.187,-0.45 -0.186,-0.383 -0.191,-0.318C-0.203,-0.168 -0.106,-0.094 0,-0.036" style="fill:rgb(107,86,102);fill-rule:nonzero;"/>
            </g>
            <g transform="matrix(1,0,0,1,175.566,366.044)">
                <path d="M0,0.835C0.131,0.916 0.262,0.996 0.394,1.076C0.572,1.185 0.756,1.297 0.936,1.41C1.034,1.472 1.136,1.532 1.235,1.59C1.426,1.703 1.623,1.82 1.804,1.956C1.88,2.013 1.939,2.023 1.994,1.985C2.062,1.94 2.131,1.929 2.211,1.929C2.238,1.929 2.271,1.93 2.3,1.93C2.36,1.93 2.42,1.929 2.481,1.929L2.532,1.929C2.581,1.929 2.621,1.912 2.654,1.877C2.677,1.854 2.703,1.831 2.727,1.809C2.782,1.761 2.834,1.715 2.857,1.658C2.881,1.598 2.838,1.556 2.787,1.507C2.76,1.48 2.732,1.452 2.714,1.42C2.679,1.354 2.633,1.292 2.589,1.232C2.537,1.161 2.483,1.088 2.444,1.008C2.386,0.888 2.293,0.805 2.149,0.745C2.059,0.707 1.964,0.672 1.868,0.642C1.769,0.61 1.667,0.581 1.568,0.553C1.43,0.513 1.287,0.472 1.149,0.424C1.109,0.409 1.068,0.395 1.028,0.38C0.883,0.326 0.733,0.27 0.575,0.262C0.531,0.26 0.5,0.233 0.481,0.181C0.472,0.157 0.461,0.134 0.45,0.112C0.423,0.056 0.394,-0.002 0.399,-0.076C0.405,-0.177 0.404,-0.281 0.403,-0.381C0.402,-0.433 0.401,-0.485 0.401,-0.538L0.401,-0.55C0.403,-0.595 0.404,-0.642 0.37,-0.665C0.244,-0.749 0.194,-0.877 0.146,-1C0.131,-1.04 0.115,-1.081 0.097,-1.12C0.095,-1.124 0.093,-1.129 0.091,-1.134C0.083,-1.151 0.076,-1.168 0.065,-1.175C0.053,-1.184 0.034,-1.188 0.022,-1.188C0.018,-1.188 0.015,-1.188 0.013,-1.187L-0.006,-1.174C-0.061,-1.14 -0.114,-1.108 -0.114,-1.031C-0.112,-0.843 -0.112,-0.654 -0.113,-0.466L-0.113,-0.184C-0.113,-0.107 -0.112,-0.03 -0.112,0.047C-0.112,0.237 -0.111,0.433 -0.114,0.625C-0.115,0.718 -0.078,0.787 0,0.835" style="fill:rgb(122,149,161);fill-rule:nonzero;"/>
            </g>
            <g transform="matrix(1,0,0,1,189.704,366.169)">
                <path d="M0,0.593C-0.098,0.623 -0.164,0.659 -0.222,0.714C-0.414,0.896 -0.553,1.124 -0.686,1.343C-0.721,1.4 -0.755,1.456 -0.79,1.512C-0.81,1.544 -0.808,1.561 -0.781,1.583C-0.607,1.728 -0.428,1.854 -0.18,1.808C-0.146,1.802 -0.114,1.799 -0.084,1.799C-0.001,1.799 0.068,1.823 0.126,1.87C0.133,1.877 0.179,1.869 0.21,1.852C0.274,1.815 0.339,1.774 0.401,1.735C0.444,1.708 0.488,1.68 0.532,1.654C0.655,1.579 0.779,1.505 0.903,1.431C1.186,1.263 1.478,1.088 1.76,0.907C1.791,0.888 1.823,0.869 1.855,0.85C1.952,0.793 2.051,0.734 2.126,0.644C2.185,0.572 2.221,0.509 2.219,0.417C2.215,0.234 2.216,0.047 2.217,-0.133L2.217,-0.353C2.217,-0.428 2.217,-0.503 2.216,-0.578C2.215,-0.756 2.215,-0.94 2.218,-1.122C2.22,-1.202 2.193,-1.238 2.108,-1.267C2.057,-1.284 2.009,-1.284 1.982,-1.266C1.968,-1.257 1.96,-1.243 1.959,-1.224C1.949,-1.065 1.86,-0.965 1.775,-0.888C1.766,-0.881 1.758,-0.872 1.749,-0.864C1.739,-0.855 1.729,-0.845 1.719,-0.836C1.663,-0.786 1.639,-0.727 1.641,-0.646C1.647,-0.454 1.643,-0.266 1.638,-0.107C1.634,0.042 1.589,0.096 1.432,0.146C1.365,0.167 1.296,0.183 1.229,0.198C1.164,0.213 1.096,0.229 1.032,0.249C0.873,0.298 0.713,0.354 0.558,0.408C0.376,0.471 0.187,0.537 0,0.593" style="fill:rgb(122,149,161);fill-rule:nonzero;"/>
            </g>
            <g transform="matrix(1,0,0,1,189.273,364.016)">
                <path d="M0,0.949C0.056,0.998 0.11,1.049 0.172,1.108C0.196,1.13 0.221,1.154 0.248,1.179C0.267,0.88 0.342,0.656 0.484,0.477C0.627,0.297 0.679,0.111 0.648,-0.109C0.646,-0.118 0.646,-0.127 0.646,-0.136L0.646,-0.148C0.644,-0.177 0.641,-0.224 0.634,-0.23L0.633,-0.23C0.623,-0.23 0.59,-0.209 0.571,-0.198C0.544,-0.181 0.516,-0.159 0.489,-0.138C0.433,-0.094 0.375,-0.049 0.31,-0.039C0.224,-0.027 0.162,0.015 0.097,0.06C0.061,0.085 0.024,0.111 -0.017,0.13C-0.067,0.155 -0.086,0.181 -0.086,0.228C-0.086,0.274 -0.086,0.32 -0.085,0.366C-0.084,0.483 -0.084,0.606 -0.089,0.725C-0.092,0.822 -0.065,0.891 0,0.949" style="fill:rgb(153,128,94);fill-rule:nonzero;"/>
            </g>
            <g transform="matrix(1,0,0,1,188.105,362.47)">
                <path d="M0,0.489C0.011,0.565 0.03,0.641 0.048,0.714C0.056,0.748 0.064,0.782 0.072,0.816C0.08,0.85 0.1,0.868 0.133,0.871C0.159,0.873 0.184,0.873 0.211,0.872L0.247,0.872L0.263,0.873L0.361,0.873C0.394,0.872 0.415,0.854 0.423,0.821C0.428,0.799 0.427,0.775 0.427,0.752C0.426,0.718 0.425,0.688 0.424,0.657C0.416,0.401 0.408,0.137 0.569,-0.105C0.622,-0.183 0.539,-0.289 0.485,-0.359C0.466,-0.384 0.427,-0.362 0.375,-0.325C0.356,-0.312 0.338,-0.3 0.321,-0.292C0.282,-0.272 0.247,-0.246 0.21,-0.219C0.176,-0.194 0.14,-0.168 0.101,-0.147C0.015,-0.101 -0.051,-0.023 -0.107,0.099C-0.154,0.201 -0.148,0.251 -0.082,0.311C-0.025,0.363 -0.009,0.43 0,0.489" style="fill:rgb(107,86,102);fill-rule:nonzero;"/>
            </g>
            <g transform="matrix(1,0,0,1,189.628,366.581)">
                <path d="M0,-0.921C-0.027,-0.951 -0.054,-0.982 -0.081,-1.012C-0.175,-1.121 -0.273,-1.234 -0.393,-1.324C-0.523,-1.422 -0.635,-1.498 -0.785,-1.498L-0.794,-1.498C-0.878,-1.498 -0.937,-1.526 -0.971,-1.582C-1.118,-1.822 -1.349,-1.838 -1.554,-1.822C-1.676,-1.813 -1.8,-1.813 -1.92,-1.813L-2.017,-1.813C-2.224,-1.811 -2.423,-1.746 -2.61,-1.618C-2.923,-1.403 -3.229,-1.171 -3.499,-0.966C-3.557,-0.922 -3.624,-0.881 -3.717,-0.881C-3.863,-0.881 -4.058,-0.881 -4.256,-0.876C-4.264,-0.876 -4.287,-0.857 -4.29,-0.844C-4.293,-0.83 -4.286,-0.801 -4.28,-0.796C-4.189,-0.755 -4.118,-0.687 -4.05,-0.622C-4.027,-0.599 -4.003,-0.577 -3.979,-0.555C-3.902,-0.487 -3.831,-0.406 -3.837,-0.279C-3.838,-0.248 -3.806,-0.233 -3.776,-0.229C-3.654,-0.214 -3.536,-0.249 -3.395,-0.345C-3.257,-0.438 -3.132,-0.545 -3.039,-0.628C-2.92,-0.733 -2.784,-0.826 -2.598,-0.929C-2.532,-0.965 -2.466,-0.998 -2.379,-0.998C-2.378,-0.998 -2.377,-0.997 -2.375,-0.997C-2.115,-0.994 -1.849,-0.996 -1.592,-0.997L-1.563,-0.997C-1.531,-0.997 -1.498,-0.995 -1.466,-0.993C-1.384,-0.989 -1.298,-0.984 -1.229,-1.011C-1.166,-1.036 -1.115,-1.089 -1.06,-1.146C-1.032,-1.174 -1.004,-1.204 -0.974,-1.229C-0.954,-1.245 -0.931,-1.254 -0.908,-1.262C-0.898,-1.266 -0.888,-1.269 -0.879,-1.273L-0.859,-1.282L-0.856,-1.261C-0.854,-1.246 -0.85,-1.231 -0.846,-1.216C-0.837,-1.18 -0.829,-1.142 -0.839,-1.108C-0.848,-1.078 -0.871,-1.055 -0.894,-1.032C-0.909,-1.017 -0.924,-1.002 -0.935,-0.985C-0.959,-0.946 -1,-0.928 -1.039,-0.91C-1.083,-0.891 -1.121,-0.874 -1.13,-0.829C-1.143,-0.768 -1.141,-0.703 -1.139,-0.639C-1.138,-0.614 -1.137,-0.588 -1.137,-0.563C-1.137,-0.468 -1.135,-0.371 -1.133,-0.278C-1.129,-0.067 -1.125,0.15 -1.143,0.363C-1.164,0.596 -1.089,0.765 -0.901,0.909C-0.898,0.911 -0.892,0.913 -0.885,0.915C-0.883,0.916 -0.88,0.917 -0.878,0.917C-0.864,0.903 -0.849,0.889 -0.834,0.875C-0.797,0.839 -0.758,0.802 -0.741,0.76C-0.69,0.634 -0.61,0.527 -0.532,0.423C-0.483,0.357 -0.432,0.289 -0.39,0.217C-0.361,0.168 -0.301,0.108 -0.238,0.09C0.006,0.023 0.246,-0.065 0.479,-0.151C0.616,-0.201 0.759,-0.254 0.901,-0.301C0.957,-0.32 1.012,-0.342 1.066,-0.364C1.173,-0.407 1.284,-0.451 1.404,-0.47C1.464,-0.48 1.525,-0.534 1.525,-0.619L1.525,-0.704C1.525,-0.828 1.525,-0.956 1.518,-1.081C1.518,-1.088 1.513,-1.096 1.505,-1.103C1.49,-1.115 1.468,-1.12 1.449,-1.116C1.438,-1.114 1.427,-1.112 1.416,-1.111C1.389,-1.107 1.365,-1.104 1.341,-1.096C1.215,-1.052 1.084,-1.022 0.957,-0.993C0.772,-0.951 0.581,-0.907 0.406,-0.821C0.39,-0.813 0.373,-0.812 0.355,-0.812L0.345,-0.812C0.338,-0.812 0.331,-0.812 0.325,-0.811C0.185,-0.795 0.084,-0.828 0,-0.921" style="fill:rgb(107,86,102);fill-rule:nonzero;"/>
            </g>
            <g transform="matrix(1,0,0,1,186.127,361.897)">
                <path d="M0,-0.385C0.02,-0.345 0.039,-0.303 0.066,-0.269C0.141,-0.173 0.155,-0.043 0.101,0.039C0.021,0.159 0.06,0.222 0.164,0.303C0.289,0.401 0.422,0.5 0.558,0.598L0.559,0.598C0.564,0.598 0.579,0.594 0.589,0.59C0.594,0.588 0.598,0.587 0.603,0.586C0.6,0.578 0.596,0.57 0.593,0.563C0.579,0.532 0.564,0.501 0.562,0.468C0.558,0.419 0.558,0.368 0.559,0.319C0.56,0.242 0.56,0.162 0.544,0.088C0.526,0.007 0.488,-0.072 0.451,-0.148C0.433,-0.183 0.416,-0.218 0.4,-0.254L0.361,-0.344C0.329,-0.418 0.297,-0.491 0.266,-0.565C0.247,-0.61 0.244,-0.658 0.24,-0.705C0.235,-0.772 0.23,-0.834 0.184,-0.889C0.173,-0.902 0.168,-0.919 0.163,-0.936C0.153,-0.972 0.147,-0.983 0.113,-0.975C0.081,-0.967 0.047,-0.947 0.029,-0.924C-0.133,-0.721 -0.14,-0.656 -0.023,-0.432C-0.015,-0.417 -0.008,-0.401 0,-0.385" style="fill:rgb(122,149,161);fill-rule:nonzero;"/>
            </g>
            <g transform="matrix(1,0,0,1,186.948,362.459)">
                <path d="M0,0.186C-0.002,0.234 0.021,0.275 0.062,0.298C0.209,0.379 0.331,0.495 0.449,0.608C0.513,0.669 0.593,0.725 0.696,0.781C0.738,0.804 0.786,0.817 0.837,0.83C0.861,0.836 0.884,0.843 0.906,0.85C0.917,0.853 0.948,0.863 0.958,0.857C0.967,0.85 0.968,0.814 0.968,0.802L0.968,0.775L0.969,0.732C1.011,0.627 0.944,0.519 0.872,0.416C0.845,0.377 0.819,0.337 0.794,0.298C0.724,0.19 0.653,0.079 0.55,-0.003C0.355,-0.16 0.239,-0.373 0.128,-0.594C0.121,-0.608 0.117,-0.622 0.114,-0.636C0.111,-0.647 0.108,-0.657 0.104,-0.667C0.101,-0.675 0.097,-0.677 0.097,-0.677C0.096,-0.677 0.09,-0.676 0.074,-0.661C-0.019,-0.574 -0.119,-0.434 -0.069,-0.267C-0.03,-0.137 0.008,0.018 0,0.186" style="fill:rgb(179,188,195);fill-rule:nonzero;"/>
            </g>
        </g>
    </g>
</svg>
