<?xml version="1.0" encoding="UTF-8" standalone="no"?>
<!DOCTYPE svg PUBLIC "-//W3C//DTD SVG 1.1//EN" "http://www.w3.org/Graphics/SVG/1.1/DTD/svg11.dtd">
<svg width="100%" height="100%" viewBox="0 0 20 20" version="1.1" xmlns="http://www.w3.org/2000/svg" xmlns:xlink="http://www.w3.org/1999/xlink" xml:space="preserve" xmlns:serif="http://www.serif.com/" style="fill-rule:evenodd;clip-rule:evenodd;stroke-linejoin:round;stroke-miterlimit:2;">
    <g transform="matrix(9.6295e-20,-0.00157262,-0.00157262,-9.6295e-20,20.8013,18.3427)">
        <g id="Sword-and-shield" serif:id="Sword and shield">
            <path d="M4527,13188C4519,13164 4507,13126 4501,13104C4495,13081 4483,13059 4475,13056C4467,13053 4460,13042 4460,13032C4460,13021 4451,12991 4441,12964C4418,12905 4382,12784 4378,12750C4376,12736 4369,12726 4362,12727C4356,12729 4348,12718 4345,12702C4342,12687 4332,12655 4324,12630C4316,12605 4297,12548 4282,12503C4267,12457 4250,12420 4244,12420C4238,12420 4213,12360 4190,12288C4167,12215 4140,12148 4130,12140C4120,12132 4109,12114 4105,12100C4101,12086 4086,12050 4072,12020C4058,11990 4042,11955 4037,11943C4031,11930 4020,11920 4013,11920C4005,11920 3990,11899 3978,11873C3955,11818 3914,11760 3899,11760C3886,11760 3854,11729 3848,11711C3846,11703 3822,11684 3794,11670C3756,11649 3744,11637 3742,11615C3737,11575 3747,11543 3773,11517C3785,11505 3800,11482 3807,11465C3841,11376 3870,11314 3882,11309C3889,11305 3914,11294 3938,11284C3962,11274 3986,11258 3991,11248C3996,11238 4009,11230 4018,11230C4028,11230 4057,11217 4083,11200C4109,11184 4135,11170 4140,11170C4145,11170 4162,11153 4177,11133C4214,11084 4233,11065 4253,11057C4262,11054 4278,11038 4287,11023C4320,10971 4354,10930 4364,10930C4377,10930 4412,10849 4436,10765C4457,10693 4461,10539 4443,10533C4436,10530 4426,10539 4421,10552C4411,10577 4391,10598 4357,10615C4346,10620 4322,10645 4305,10670C4288,10695 4264,10720 4252,10726C4220,10742 4190,10771 4190,10786C4190,10793 4170,10820 4145,10846C4120,10871 4100,10898 4100,10906C4100,10924 4025,10962 3997,10958C3976,10955 3975,10950 3969,10785C3965,10678 3956,10589 3945,10545C3936,10507 3925,10458 3920,10437C3916,10416 3906,10394 3897,10387C3889,10380 3874,10353 3865,10325C3856,10298 3842,10259 3833,10240C3825,10221 3812,10190 3804,10173C3797,10155 3786,10140 3780,10140C3774,10140 3762,10123 3754,10103C3746,10082 3731,10047 3721,10025C3711,10003 3698,9973 3691,9958C3685,9942 3674,9930 3667,9930C3651,9930 3602,9880 3586,9848C3580,9835 3565,9821 3552,9815C3533,9807 3530,9797 3530,9753C3530,9707 3533,9700 3549,9700C3560,9700 3570,9696 3572,9692C3578,9676 3636,9642 3667,9636C3684,9632 3701,9622 3704,9614C3707,9606 3723,9600 3744,9600C3777,9600 3793,9595 3867,9564C3884,9556 3901,9550 3905,9550C3924,9550 3980,9516 3980,9505C3980,9489 4112,9445 4134,9453C4143,9457 4157,9474 4165,9492C4184,9538 4218,9580 4246,9590C4259,9595 4270,9607 4270,9616C4270,9625 4286,9655 4305,9681C4324,9708 4340,9734 4340,9740C4340,9745 4350,9755 4362,9761C4396,9779 4460,9842 4460,9857C4460,9864 4466,9870 4474,9870C4481,9870 4493,9877 4501,9886C4539,9932 4665,9965 4689,9936C4701,9921 4699,9916 4677,9892C4662,9876 4650,9860 4650,9854C4649,9841 4603,9790 4592,9790C4581,9790 4550,9746 4550,9730C4550,9724 4539,9702 4525,9680C4511,9658 4500,9635 4500,9629C4500,9622 4489,9607 4476,9595C4451,9572 4400,9427 4400,9381C4400,9331 4376,9230 4364,9230C4330,9230 4332,9147 4368,9111C4383,9096 4401,9062 4408,9035C4415,9009 4430,8975 4440,8960C4451,8944 4460,8925 4460,8916C4460,8908 4468,8896 4479,8891C4492,8883 4500,8864 4505,8823C4509,8791 4518,8750 4526,8731C4534,8713 4540,8670 4540,8636C4540,8602 4547,8548 4555,8517C4572,8453 4575,8333 4561,8311C4546,8288 4526,8312 4510,8370C4503,8398 4488,8428 4478,8437C4468,8446 4460,8462 4460,8473C4460,8484 4456,8507 4451,8524C4446,8541 4432,8591 4419,8635C4382,8770 4379,8780 4366,8787C4360,8792 4346,8815 4336,8840C4299,8933 4270,9016 4270,9033C4270,9043 4263,9053 4253,9057C4231,9066 4150,9152 4150,9168C4150,9174 4142,9180 4132,9180C4109,9180 4040,9250 4040,9273C4040,9282 4033,9290 4024,9290C4016,9290 3994,9301 3977,9314C3959,9328 3924,9348 3897,9359C3871,9370 3850,9384 3850,9389C3850,9398 3803,9415 3710,9439C3685,9446 3645,9458 3620,9466C3595,9475 3565,9484 3553,9487C3540,9490 3530,9497 3530,9503C3530,9517 3498,9539 3478,9540C3468,9540 3456,9531 3450,9520C3444,9509 3419,9478 3395,9452C3370,9426 3350,9399 3350,9392C3350,9377 3326,9350 3313,9350C3300,9350 3234,9278 3226,9257C3223,9246 3211,9236 3200,9233C3178,9227 3140,9172 3140,9146C3140,9137 3120,9110 3095,9086C3070,9061 3050,9039 3050,9035C3050,9032 3034,9008 3015,8983C2996,8958 2980,8931 2980,8924C2980,8916 2973,8910 2965,8910C2957,8910 2944,8898 2936,8882C2928,8867 2913,8846 2901,8836C2889,8825 2880,8811 2880,8804C2880,8785 2797,8752 2721,8740C2613,8723 2550,8706 2550,8694C2550,8688 2539,8673 2526,8661C2512,8648 2500,8626 2498,8611C2496,8597 2490,8586 2483,8587C2476,8589 2466,8555 2456,8500C2436,8394 2448,8287 2481,8269C2491,8264 2500,8251 2500,8241C2500,8206 2579,8067 2615,8038C2634,8022 2650,8003 2650,7996C2650,7973 2688,7933 2726,7915C2746,7906 2764,7890 2767,7880C2777,7841 2928,7790 3035,7790C3093,7790 3129,7798 3221,7830C3284,7852 3329,7870 3323,7870C3305,7870 3307,7890 3324,7890C3337,7890 3409,7917 3478,7947C3497,7955 3521,7971 3531,7981C3574,8024 3640,8028 3640,7988C3640,7966 3617,7889 3589,7820C3579,7795 3568,7765 3565,7753C3561,7740 3555,7730 3551,7730C3546,7730 3518,7706 3489,7678C3428,7618 3395,7601 3283,7570C3196,7545 3091,7540 3015,7558C2988,7564 2934,7574 2895,7581C2823,7593 2733,7625 2715,7646C2699,7663 2647,7697 2623,7704C2586,7716 2563,7682 2562,7617C2562,7564 2531,7416 2508,7357C2502,7342 2489,7325 2479,7319C2468,7314 2460,7301 2460,7291C2460,7281 2448,7255 2434,7234C2419,7213 2404,7184 2400,7170C2397,7156 2384,7140 2372,7134C2345,7121 2310,7077 2310,7057C2310,7038 2234,7000 2197,7000C2168,7000 2163,7009 2181,7027C2187,7033 2198,7049 2204,7061C2210,7074 2226,7090 2238,7096C2270,7112 2320,7161 2320,7176C2320,7198 2354,7259 2367,7260C2380,7260 2380,7261 2409,7380C2439,7504 2450,7591 2450,7716C2450,7846 2442,7861 2388,7840C2351,7825 2290,7772 2290,7755C2290,7748 2278,7737 2263,7729C2247,7722 2216,7703 2193,7688C2170,7673 2144,7660 2135,7660C2127,7660 2117,7653 2113,7644C2095,7598 1830,7553 1732,7581C1707,7588 1660,7593 1626,7592C1510,7590 1366,7619 1356,7645C1353,7653 1342,7660 1331,7660C1320,7660 1290,7672 1265,7686C1239,7700 1209,7713 1198,7715C1173,7720 1150,7739 1150,7754C1150,7766 1097,7810 1083,7810C1071,7810 1020,7866 1020,7879C1020,7906 915,7929 887,7908C859,7887 861,7753 889,7687C901,7660 910,7632 910,7624C910,7617 919,7595 930,7575C941,7555 950,7531 950,7520C950,7509 956,7500 963,7500C971,7500 996,7461 1020,7414C1045,7364 1071,7325 1081,7323C1091,7320 1102,7308 1106,7296C1112,7277 1156,7212 1171,7200C1175,7197 1179,7186 1181,7175C1184,7164 1191,7155 1197,7155C1211,7155 1270,7076 1270,7057C1270,7043 1311,7000 1324,7000C1336,7000 1370,6960 1370,6947C1370,6933 1421,6880 1434,6880C1450,6879 1490,6844 1490,6830C1490,6816 1541,6774 1552,6777C1556,6779 1582,6757 1609,6730C1637,6702 1662,6680 1666,6680C1669,6680 1709,6652 1753,6619C1798,6585 1850,6551 1870,6542C1967,6500 1989,6488 1992,6479C1994,6473 2020,6459 2050,6448C2096,6430 2137,6426 2307,6421C2444,6417 2513,6411 2521,6403C2534,6390 2547,6332 2559,6230C2563,6194 2572,6155 2579,6142C2590,6121 2593,6120 2608,6133C2631,6152 2715,6192 2769,6210C2793,6218 2815,6232 2817,6241C2820,6252 2842,6261 2893,6269C2933,6276 2981,6286 3001,6291C3049,6303 3282,6303 3314,6290C3329,6285 3400,6279 3473,6278C3598,6275 3642,6281 3701,6310C3709,6314 3743,6323 3776,6330C3814,6338 3843,6351 3857,6366C3869,6379 3888,6390 3898,6390C3909,6390 3938,6408 3963,6430C3988,6452 4013,6470 4019,6470C4025,6470 4030,6474 4030,6479C4030,6484 4050,6510 4075,6536C4100,6563 4120,6591 4120,6598C4120,6604 4126,6610 4133,6610C4148,6610 4215,6687 4224,6715C4227,6726 4240,6740 4252,6745C4264,6751 4291,6781 4313,6813C4334,6844 4357,6870 4364,6870C4377,6870 4458,7024 4462,7058C4464,7071 4479,7090 4498,7102L4531,7123L4525,7084C4513,7011 4488,6936 4473,6925C4453,6910 4458,6714 4478,6701C4486,6697 4500,6662 4510,6624C4520,6586 4537,6521 4548,6480C4566,6412 4579,6322 4580,6248C4580,6232 4586,6220 4593,6220C4606,6220 4615,6190 4641,6068C4647,6039 4661,5993 4671,5966C4682,5939 4690,5909 4690,5898C4690,5887 4699,5876 4710,5873C4731,5867 4737,5845 4720,5835C4702,5824 4673,5849 4652,5892C4627,5943 4606,5970 4593,5970C4582,5970 4500,6123 4500,6144C4500,6152 4492,6164 4482,6169C4472,6174 4457,6198 4450,6222C4427,6294 4371,6410 4360,6410C4354,6410 4343,6427 4334,6448C4292,6545 4288,6550 4255,6550C4222,6550 4186,6519 4160,6468C4153,6452 4138,6440 4128,6440C4118,6440 4110,6437 4110,6432C4110,6428 4092,6414 4070,6400C4048,6386 4030,6371 4030,6365C4029,6360 4013,6347 3992,6336C3972,6326 3929,6304 3898,6289C3866,6273 3840,6254 3840,6246C3840,6239 3825,6227 3808,6220C3790,6213 3754,6197 3729,6184C3703,6171 3675,6160 3666,6160C3657,6160 3639,6149 3626,6135C3609,6116 3579,6104 3514,6089C3465,6078 3411,6065 3394,6060C3377,6054 3314,6050 3253,6050C3120,6050 3043,6037 3018,6010C3008,5999 2989,5990 2977,5990C2965,5990 2933,5978 2905,5965C2878,5951 2850,5940 2843,5940C2837,5940 2814,5919 2794,5894C2773,5869 2745,5844 2733,5839C2716,5833 2695,5799 2657,5720C2628,5660 2600,5610 2594,5610C2583,5610 2574,5592 2549,5519C2529,5460 2515,5448 2471,5448C2447,5449 2427,5443 2423,5435C2418,5428 2400,5420 2381,5418C2348,5415 2347,5413 2324,5335C2311,5291 2300,5236 2300,5213C2300,5190 2294,5151 2286,5128C2278,5104 2270,5068 2267,5046C2263,5025 2254,5003 2247,4996C2239,4990 2230,4974 2227,4960C2224,4946 2214,4908 2206,4876C2198,4843 2193,4813 2196,4808C2203,4798 2256,4807 2282,4823C2291,4829 2301,4841 2303,4850C2305,4858 2320,4871 2336,4879C2352,4887 2385,4903 2410,4915C2435,4928 2470,4941 2488,4945C2506,4949 2524,4958 2526,4965C2530,4973 2563,4980 2625,4985C2731,4993 2800,4985 2800,4965C2800,4950 2831,4940 2882,4940C2928,4940 2950,4948 2950,4966C2950,4974 2956,4980 2964,4980C2981,4980 3060,5067 3060,5086C3060,5094 3065,5100 3071,5100C3077,5100 3102,5114 3126,5131C3151,5148 3188,5166 3208,5172C3228,5177 3251,5189 3258,5198C3269,5213 3291,5214 3428,5212C3544,5210 3586,5206 3592,5197C3596,5189 3616,5178 3637,5172C3848,5107 3853,5105 3863,5078C3866,5068 3878,5060 3888,5060C3898,5060 3927,5046 3953,5030C3979,5013 4004,5000 4008,5000C4028,5000 4070,4974 4066,4964C4063,4958 4072,4948 4086,4941C4099,4935 4110,4926 4110,4920C4110,4915 4116,4910 4124,4910C4138,4910 4170,4869 4170,4850C4170,4832 4230,4762 4251,4757C4261,4754 4270,4745 4270,4736C4270,4727 4281,4702 4295,4680C4309,4658 4327,4622 4336,4600C4345,4578 4358,4560 4365,4560C4372,4560 4383,4545 4390,4527C4396,4510 4412,4471 4426,4442C4439,4413 4450,4383 4450,4374C4450,4366 4462,4348 4476,4335C4501,4311 4542,4213 4533,4198C4523,4180 4440,4233 4440,4257C4440,4278 4379,4360 4363,4360C4356,4360 4345,4372 4339,4388C4327,4420 4261,4490 4243,4490C4236,4490 4230,4496 4230,4503C4230,4519 4148,4600 4132,4600C4125,4600 4120,4606 4120,4613C4120,4631 4050,4697 4018,4709C4002,4715 3990,4725 3990,4732C3990,4746 3932,4784 3863,4816C3840,4826 3819,4843 3816,4853C3814,4863 3802,4870 3788,4870C3776,4870 3756,4877 3746,4885C3718,4906 3632,4933 3613,4926C3599,4920 3601,4915 3623,4892C3638,4876 3650,4859 3650,4852C3650,4845 3656,4840 3663,4840C3680,4840 3760,4745 3760,4725C3760,4716 3769,4706 3779,4703C3806,4696 3880,4536 3880,4484C3880,4471 3886,4457 3893,4453C3923,4435 3935,4376 3935,4255C3934,4131 3921,4070 3894,4070C3886,4070 3880,4060 3880,4045C3880,4031 3886,4020 3893,4020C3901,4020 3912,4009 3918,3995C3924,3982 3943,3964 3959,3955C3976,3947 3993,3928 3996,3915C3999,3901 4008,3890 4015,3890C4022,3890 4037,3866 4049,3837C4078,3769 4110,3708 4124,3695C4141,3680 4184,3611 4209,3558C4222,3531 4237,3510 4242,3510C4255,3510 4279,3480 4280,3463C4280,3456 4293,3428 4310,3400C4326,3372 4340,3342 4340,3334C4340,3325 4348,3316 4358,3314C4376,3309 4411,3261 4443,3198C4454,3177 4469,3160 4476,3160C4484,3160 4493,3152 4497,3143C4500,3133 4515,3097 4531,3062C4547,3028 4560,2996 4560,2990C4560,2971 4584,2930 4595,2930C4602,2930 4613,2915 4620,2898C4626,2880 4642,2840 4655,2810C4668,2780 4682,2744 4686,2730C4689,2716 4700,2698 4710,2690C4729,2674 4810,2449 4810,2411C4810,2399 4817,2387 4825,2384C4833,2380 4848,2350 4859,2316C4875,2264 4876,2246 4867,2206C4859,2168 4859,2150 4872,2112C4880,2086 4898,2030 4911,1988C4924,1945 4941,1910 4948,1910C4955,1910 4970,1889 4982,1863C4994,1836 5014,1792 5027,1764C5039,1736 5050,1708 5050,1702C5050,1695 5054,1690 5060,1690C5074,1690 5093,1648 5131,1535C5149,1480 5171,1428 5180,1419C5190,1409 5202,1368 5210,1324C5233,1178 5229,1185 5285,1185L5334,1185L5352,1235C5362,1263 5370,1304 5370,1326C5370,1375 5393,1435 5415,1443C5423,1447 5430,1460 5430,1472C5431,1485 5445,1533 5461,1580C5478,1627 5497,1680 5504,1697C5510,1715 5519,1730 5525,1730C5534,1730 5578,1797 5591,1830C5611,1885 5637,1930 5648,1930C5654,1930 5660,1936 5660,1943C5660,1950 5672,1989 5686,2030C5706,2086 5714,2136 5720,2225C5728,2359 5741,2419 5764,2432C5773,2437 5780,2450 5780,2460C5780,2470 5785,2482 5790,2485C5796,2488 5800,2502 5800,2514C5800,2527 5808,2559 5819,2586C5829,2613 5843,2653 5850,2675C5857,2697 5871,2721 5881,2728C5892,2735 5900,2750 5900,2760C5900,2778 5909,2802 5962,2917C5973,2941 5988,2960 5996,2960C6004,2960 6010,2967 6010,2976C6010,2984 6023,3017 6039,3048C6055,3079 6074,3117 6080,3132C6087,3146 6100,3160 6109,3163C6118,3165 6131,3180 6139,3196C6146,3212 6161,3241 6172,3260C6183,3279 6197,3307 6203,3322C6209,3338 6220,3350 6226,3350C6239,3350 6300,3439 6300,3458C6300,3476 6334,3530 6346,3530C6353,3530 6361,3541 6364,3554C6369,3576 6431,3666 6463,3700C6484,3722 6520,3783 6520,3798C6520,3823 6563,3900 6576,3900C6584,3900 6590,3906 6590,3913C6590,3920 6603,3939 6618,3956C6634,3972 6651,3994 6657,4005C6670,4030 6666,4144 6651,4208C6641,4246 6642,4268 6654,4320C6663,4356 6670,4402 6670,4422C6670,4449 6676,4462 6690,4470C6702,4476 6710,4491 6710,4505C6710,4545 6785,4709 6807,4717C6814,4720 6820,4727 6820,4733C6820,4739 6838,4765 6860,4791C6882,4817 6900,4843 6900,4849C6900,4855 6913,4866 6929,4874C6958,4889 6974,4913 6963,4924C6950,4937 6912,4929 6864,4905C6837,4891 6810,4880 6803,4880C6797,4880 6775,4864 6754,4845C6734,4826 6712,4810 6707,4810C6687,4810 6590,4746 6590,4733C6590,4726 6583,4720 6575,4720C6566,4720 6540,4702 6516,4680C6492,4658 6465,4640 6456,4640C6447,4640 6440,4635 6440,4630C6440,4614 6349,4520 6334,4520C6326,4520 6320,4512 6320,4502C6320,4492 6302,4466 6280,4445C6258,4424 6240,4398 6240,4388C6240,4378 6234,4370 6226,4370C6208,4370 6153,4301 6139,4261C6133,4244 6123,4230 6117,4230C6110,4230 6093,4216 6078,4198C6064,4180 6048,4168 6045,4172C6032,4185 6092,4338 6112,4343C6122,4346 6130,4357 6130,4369C6130,4380 6141,4409 6155,4434C6169,4459 6180,4484 6180,4489C6180,4511 6215,4580 6226,4580C6232,4580 6244,4597 6253,4618C6286,4692 6332,4770 6343,4770C6357,4770 6400,4833 6400,4853C6400,4868 6451,4920 6466,4920C6480,4921 6520,4957 6520,4969C6520,4975 6532,4985 6548,4992C6563,4998 6600,5016 6631,5031C6662,5047 6695,5060 6705,5060C6714,5060 6724,5069 6727,5079C6730,5090 6739,5101 6748,5104C6758,5107 6790,5118 6820,5130C6891,5156 6975,5180 7001,5180C7012,5180 7023,5187 7026,5195C7031,5207 7058,5210 7180,5210C7302,5210 7329,5207 7334,5195C7337,5186 7352,5180 7369,5180C7386,5180 7420,5165 7450,5145C7479,5126 7506,5110 7510,5110C7515,5110 7522,5100 7526,5088C7529,5076 7547,5046 7565,5021C7582,4996 7600,4968 7603,4958C7610,4938 7681,4925 7709,4939C7720,4945 7738,4950 7749,4950C7761,4950 7770,4957 7770,4965C7770,4978 7792,4980 7905,4980C8016,4980 8040,4977 8040,4966C8040,4950 8051,4946 8115,4935C8170,4926 8229,4893 8270,4850C8307,4811 8367,4790 8375,4813C8382,4831 8334,5061 8322,5069C8308,5077 8292,5140 8273,5260C8262,5328 8250,5364 8233,5388C8220,5406 8205,5418 8201,5416C8197,5413 8185,5421 8175,5432C8159,5451 8156,5452 8146,5438C8137,5425 8133,5425 8122,5436C8115,5444 8101,5450 8090,5450C8066,5450 8037,5491 8015,5559C8005,5589 7987,5623 7974,5635C7961,5647 7950,5662 7950,5668C7950,5690 7876,5822 7860,5828C7836,5838 7780,5887 7780,5899C7780,5912 7650,5973 7588,5990C7561,5997 7540,6008 7540,6015C7540,6028 7407,6050 7323,6050C7225,6050 6983,6106 6969,6132C6964,6142 6951,6150 6940,6150C6929,6150 6894,6162 6863,6177C6831,6191 6794,6208 6781,6214C6768,6220 6755,6232 6753,6241C6750,6250 6732,6266 6712,6276C6692,6287 6654,6307 6629,6323C6604,6338 6575,6350 6566,6350C6557,6350 6550,6356 6550,6363C6550,6373 6514,6399 6445,6436C6434,6442 6410,6473 6391,6504C6359,6558 6355,6561 6326,6556C6284,6547 6261,6523 6248,6473C6243,6449 6232,6430 6225,6430C6219,6430 6206,6413 6197,6393C6162,6308 6142,6253 6136,6226C6132,6209 6118,6186 6104,6173C6091,6161 6080,6144 6080,6135C6080,6127 6069,6099 6056,6072C6043,6046 6027,6013 6020,5998C6013,5984 6000,5970 5991,5967C5981,5965 5961,5939 5946,5909C5912,5841 5890,5814 5862,5806C5846,5801 5840,5803 5840,5814C5840,5837 5862,5880 5874,5880C5894,5880 5962,6141 5977,6275C5981,6303 5988,6330 5995,6335C6006,6344 6022,6408 6034,6485C6036,6502 6048,6547 6060,6585C6072,6624 6085,6678 6089,6706C6093,6734 6103,6765 6113,6774C6141,6802 6135,6910 6105,6910C6092,6910 6090,6917 6071,7020C6060,7076 6064,7110 6081,7110C6086,7110 6090,7099 6090,7086C6090,7072 6096,7055 6103,7048C6119,7031 6160,6965 6185,6916C6195,6895 6214,6874 6226,6870C6238,6865 6251,6851 6255,6838C6264,6810 6329,6740 6346,6740C6353,6740 6362,6730 6366,6718C6370,6705 6388,6675 6406,6651C6425,6627 6440,6603 6440,6598C6440,6593 6465,6566 6495,6538C6525,6511 6550,6482 6550,6474C6550,6466 6556,6460 6563,6460C6570,6460 6594,6447 6616,6431C6637,6416 6671,6398 6690,6391C6709,6385 6732,6371 6740,6361C6757,6340 6889,6296 6986,6279C7049,6268 7082,6270 7315,6301C7443,6318 7720,6280 7720,6246C7720,6240 7752,6227 7790,6218C7831,6208 7873,6191 7890,6176C7927,6145 7978,6133 7994,6151C8015,6175 8031,6237 8035,6307C8037,6345 8039,6378 8039,6382C8040,6386 8047,6396 8056,6404C8069,6417 8103,6420 8268,6420C8443,6420 8470,6423 8509,6440C8533,6451 8558,6460 8566,6460C8573,6460 8584,6468 8589,6478C8594,6488 8618,6505 8642,6515C8754,6563 8799,6586 8799,6596C8800,6606 8867,6652 8923,6680C8938,6687 8950,6699 8950,6705C8950,6719 9005,6770 9020,6770C9034,6770 9078,6817 9085,6841C9088,6851 9108,6869 9129,6881C9150,6892 9174,6914 9183,6928C9206,6968 9236,7000 9249,7000C9264,7000 9309,7050 9310,7067C9310,7073 9333,7098 9360,7121C9388,7144 9410,7169 9410,7176C9410,7196 9472,7280 9487,7280C9494,7280 9500,7287 9500,7295C9500,7303 9514,7331 9530,7357C9547,7383 9560,7409 9560,7415C9560,7435 9585,7479 9598,7482C9610,7485 9647,7564 9671,7640C9690,7700 9704,7730 9715,7730C9721,7730 9731,7752 9737,7779C9752,7843 9739,7879 9693,7903C9660,7919 9656,7920 9609,7903C9582,7893 9560,7881 9560,7875C9560,7864 9496,7810 9482,7810C9471,7810 9430,7766 9430,7754C9430,7731 9293,7660 9248,7660C9238,7660 9227,7653 9224,7646C9214,7620 9119,7597 8990,7589C8921,7584 8840,7577 8810,7573C8774,7567 8739,7569 8707,7576C8681,7583 8625,7592 8582,7595C8498,7603 8450,7622 8450,7646C8450,7656 8444,7660 8436,7657C8429,7654 8406,7669 8384,7692C8362,7714 8335,7736 8322,7741C8310,7746 8301,7755 8302,7761C8307,7780 8227,7831 8184,7837C8125,7845 8116,7829 8124,7727C8137,7546 8149,7452 8164,7397C8173,7365 8180,7337 8180,7335C8180,7333 8188,7324 8197,7314C8207,7305 8220,7283 8226,7266C8233,7249 8244,7219 8251,7200C8267,7157 8307,7100 8321,7100C8334,7100 8354,7081 8368,7053C8375,7041 8400,7024 8425,7015C8450,7005 8470,6991 8470,6984C8470,6961 8418,6968 8378,6995C8357,7009 8329,7025 8315,7030C8301,7035 8287,7048 8283,7057C8280,7067 8256,7095 8231,7120C8189,7162 8138,7249 8109,7328C8103,7345 8092,7360 8085,7360C8070,7360 8034,7484 8009,7624C8004,7657 7997,7687 7994,7692C7985,7706 7961,7701 7909,7675C7882,7661 7855,7652 7850,7655C7844,7659 7840,7654 7840,7646C7840,7619 7772,7595 7590,7559C7528,7547 7482,7533 7477,7524C7466,7505 7440,7506 7440,7525C7440,7533 7428,7542 7413,7545C7397,7549 7366,7555 7343,7561C7320,7566 7291,7570 7278,7570C7250,7570 7130,7629 7130,7642C7130,7657 7047,7740 7033,7740C7026,7740 7020,7747 7020,7756C7020,7765 7012,7784 7002,7798C6979,7831 6947,7949 6952,7981C6956,8014 7005,8021 7013,7991C7016,7979 7025,7970 7034,7970C7042,7970 7064,7962 7082,7952C7100,7942 7145,7923 7183,7910C7220,7897 7250,7881 7250,7875C7250,7869 7269,7859 7293,7853C7316,7847 7367,7830 7405,7815C7467,7791 7484,7789 7560,7794C7642,7799 7730,7819 7778,7842C7791,7849 7808,7869 7817,7888C7826,7906 7843,7925 7854,7930C7878,7939 7908,7970 7924,8002C7930,8014 7949,8031 7965,8040C7992,8054 8048,8140 8066,8193C8070,8202 8078,8210 8085,8210C8107,8210 8123,8335 8118,8468C8114,8581 8112,8591 8089,8612C8076,8625 8052,8650 8037,8669C8019,8690 7995,8706 7972,8711C7929,8721 7835,8740 7802,8746C7790,8749 7772,8759 7762,8770C7753,8781 7740,8790 7733,8790C7726,8790 7720,8796 7720,8804C7720,8811 7696,8840 7666,8868C7607,8924 7546,9003 7531,9043C7525,9058 7515,9070 7508,9070C7494,9070 7458,9120 7427,9182C7416,9203 7396,9226 7382,9232C7368,9239 7353,9254 7350,9266C7344,9292 7290,9354 7267,9363C7258,9366 7250,9375 7250,9383C7250,9398 7172,9475 7148,9483C7138,9487 7130,9496 7130,9504C7130,9513 7121,9524 7111,9530C7088,9542 7020,9517 7020,9496C7020,9479 6977,9460 6938,9460C6889,9460 6736,9410 6721,9389C6714,9379 6702,9370 6694,9370C6687,9370 6659,9357 6633,9342C6607,9326 6577,9311 6568,9307C6558,9304 6550,9291 6550,9280C6550,9255 6513,9218 6464,9195C6445,9186 6426,9170 6422,9161C6412,9136 6357,9075 6337,9067C6328,9064 6320,9053 6320,9044C6320,9035 6312,9013 6301,8996C6291,8979 6272,8935 6260,8898C6247,8860 6231,8830 6224,8830C6218,8830 6210,8820 6207,8808C6204,8795 6188,8740 6172,8685C6156,8630 6139,8571 6135,8553C6132,8535 6121,8511 6111,8498C6101,8485 6090,8462 6087,8445C6074,8372 6054,8309 6045,8307C6039,8306 6034,8365 6032,8465C6028,8685 6066,8885 6115,8903C6123,8907 6130,8916 6130,8924C6130,8933 6139,8959 6149,8982C6159,9006 6178,9049 6191,9078C6203,9106 6219,9130 6226,9130C6240,9130 6254,9193 6245,9220C6241,9231 6233,9240 6226,9240C6211,9240 6180,9333 6174,9397C6167,9472 6130,9574 6106,9583C6099,9586 6090,9601 6087,9617C6084,9632 6071,9661 6057,9681C6044,9700 6030,9729 6026,9744C6023,9758 6009,9775 5997,9779C5962,9793 5890,9887 5890,9920C5890,9939 5931,9952 5972,9945C6014,9937 6090,9879 6090,9854C6090,9846 6096,9840 6103,9840C6119,9840 6210,9749 6210,9732C6210,9725 6216,9720 6223,9720C6241,9720 6320,9635 6320,9616C6320,9607 6327,9600 6335,9600C6351,9600 6410,9525 6410,9505C6410,9485 6445,9460 6474,9460C6509,9460 6560,9487 6560,9505C6560,9513 6569,9520 6579,9520C6590,9520 6615,9528 6637,9539C6692,9565 6770,9592 6808,9598C6827,9600 6844,9608 6847,9616C6850,9623 6868,9632 6888,9635C6951,9645 6999,9662 7016,9682C7026,9692 7039,9700 7047,9700C7055,9700 7060,9712 7060,9736C7060,9765 7052,9779 7020,9809C6998,9829 6980,9851 6980,9856C6980,9868 6938,9910 6925,9910C6913,9910 6891,9943 6890,9961C6890,9969 6877,9994 6861,10016C6845,10038 6828,10068 6825,10083C6821,10098 6812,10110 6805,10110C6790,10110 6775,10147 6735,10275C6719,10325 6697,10374 6685,10385C6652,10416 6612,10633 6601,10840C6595,10954 6595,10955 6569,10958C6543,10961 6516,10939 6496,10898C6490,10885 6474,10870 6462,10864C6429,10848 6389,10808 6379,10782C6374,10770 6360,10756 6348,10751C6322,10741 6266,10683 6257,10657C6253,10648 6242,10637 6233,10633C6207,10624 6140,10558 6146,10548C6149,10544 6137,10540 6121,10540C6092,10540 6090,10542 6090,10580C6090,10608 6095,10622 6108,10629C6122,10636 6130,10660 6139,10722C6151,10808 6205,10950 6225,10950C6237,10950 6280,11003 6280,11019C6280,11034 6330,11090 6344,11090C6351,11090 6376,11113 6399,11140C6422,11168 6448,11190 6457,11190C6478,11190 6560,11238 6560,11250C6560,11256 6566,11260 6574,11260C6582,11260 6611,11276 6640,11295C6669,11314 6695,11330 6699,11330C6706,11330 6770,11464 6770,11480C6770,11486 6786,11506 6805,11526C6862,11583 6863,11636 6808,11651C6774,11660 6720,11700 6720,11717C6720,11724 6709,11735 6696,11739C6670,11749 6610,11825 6610,11849C6609,11869 6586,11900 6573,11900C6563,11900 6530,11959 6530,11977C6530,11981 6519,12002 6505,12022C6491,12042 6480,12069 6480,12080C6480,12093 6472,12104 6461,12107C6450,12110 6438,12128 6430,12153C6424,12176 6410,12220 6400,12250C6390,12280 6379,12318 6376,12333C6372,12349 6359,12371 6346,12383C6333,12395 6320,12421 6317,12440C6314,12459 6299,12511 6283,12555C6266,12599 6250,12652 6246,12672C6242,12693 6233,12713 6226,12717C6211,12726 6170,12853 6170,12889C6170,12901 6161,12930 6150,12952C6139,12975 6130,13005 6130,13018C6130,13033 6123,13044 6110,13047C6099,13050 6090,13059 6090,13066C6090,13074 6086,13088 6081,13098C6076,13107 6067,13134 6061,13158C6054,13181 6045,13200 6040,13200C6034,13200 6030,13044 6030,12788C6030,12373 6023,12264 5995,12244C5987,12238 5978,12208 5974,12176C5970,12145 5963,12117 5959,12114C5954,12111 5950,12098 5950,12084C5950,12050 5891,11940 5873,11940C5865,11940 5845,11929 5828,11915C5798,11889 5789,11888 5620,11886C5590,11885 5559,11881 5553,11877C5535,11866 5537,11810 5555,11767C5577,11713 5576,11479 5553,11400C5543,11367 5530,11340 5524,11340C5519,11340 5495,11300 5472,11250C5446,11196 5423,11160 5414,11160C5406,11160 5396,11150 5391,11138C5386,11125 5364,11098 5342,11077C5291,11028 5267,11030 5223,11090C5204,11115 5177,11149 5162,11166C5112,11223 5100,11240 5100,11255C5100,11263 5096,11270 5090,11270C5085,11270 5080,11279 5080,11290C5080,11301 5073,11310 5065,11310C5042,11310 5008,11441 5003,11555C4999,11627 5002,11674 5014,11723C5031,11794 5034,11847 5024,11874C5017,11892 4989,11895 4973,11879C4953,11859 4811,11884 4736,11921C4672,11952 4645,11999 4616,12133C4612,12148 4603,12160 4596,12160C4586,12160 4580,12181 4575,12233C4571,12272 4561,12329 4554,12358C4537,12422 4534,13003 4550,13061C4565,13114 4567,13222 4554,13227C4547,13229 4535,13212 4527,13188ZM2145,6980C2149,6974 2139,6970 2123,6970C2101,6970 2098,6972 2110,6980C2129,6992 2137,6992 2145,6980Z" style="fill:rgb(51,51,51);fill-rule:nonzero;stroke:black;stroke-width:127.18px;"/>
            <path d="M7913,10710C7903,10699 7893,10680 7890,10667C7887,10655 7874,10640 7862,10634C7837,10622 7780,10564 7780,10552C7780,10539 7745,10510 7729,10510C7721,10510 7697,10496 7676,10480C7654,10463 7630,10450 7623,10450C7616,10450 7610,10444 7610,10437C7610,10418 7430,10330 7393,10330C7385,10330 7381,10326 7385,10321C7392,10309 7374,10304 7288,10290C7251,10284 7203,10282 7183,10286C7162,10289 7132,10287 7116,10281C7090,10271 7088,10267 7095,10234C7103,10186 7146,10090 7158,10090C7163,10090 7170,10080 7173,10068C7195,9979 7252,9870 7276,9870C7284,9870 7290,9863 7290,9854C7290,9846 7308,9817 7330,9791C7352,9765 7370,9736 7370,9727C7370,9709 7411,9694 7435,9704C7443,9707 7454,9720 7459,9733C7464,9746 7484,9768 7503,9782C7522,9797 7543,9824 7550,9842C7571,9893 7611,9950 7626,9950C7634,9950 7640,9957 7640,9966C7640,9974 7653,10000 7668,10023C7684,10046 7700,10078 7704,10093C7708,10108 7726,10136 7745,10155C7764,10173 7780,10194 7780,10201C7780,10207 7794,10235 7810,10262C7827,10288 7840,10319 7840,10330C7840,10341 7846,10350 7853,10350C7866,10350 7871,10362 7912,10500C7922,10536 7935,10579 7940,10596C7953,10635 7953,10717 7940,10725C7935,10728 7923,10722 7913,10710Z" style="fill:rgb(51,51,51);fill-rule:nonzero;stroke:black;stroke-width:127.18px;"/>
            <path d="M2651,10693C2624,10642 2698,10340 2737,10340C2744,10340 2750,10334 2750,10326C2750,10299 2830,10141 2849,10131C2860,10125 2873,10105 2879,10087C2886,10068 2902,10038 2915,10020C2929,10001 2940,9980 2940,9972C2940,9964 2958,9940 2980,9918C3002,9896 3020,9871 3020,9862C3020,9843 3068,9790 3085,9790C3100,9790 3140,9747 3140,9732C3140,9725 3156,9720 3180,9720C3205,9720 3220,9725 3220,9733C3220,9739 3238,9768 3260,9795C3282,9823 3300,9850 3300,9857C3300,9864 3308,9874 3318,9879C3343,9893 3420,10055 3420,10094C3420,10103 3426,10110 3433,10110C3448,10110 3465,10157 3476,10227C3484,10282 3475,10286 3320,10293C3225,10297 3193,10302 3185,10313C3179,10322 3154,10336 3129,10345C3052,10374 2951,10425 2950,10435C2950,10446 2901,10478 2840,10508C2821,10517 2801,10534 2795,10545C2773,10588 2747,10620 2734,10620C2727,10620 2711,10638 2700,10659C2676,10708 2664,10716 2651,10693Z" style="fill:rgb(51,51,51);fill-rule:nonzero;stroke:black;stroke-width:127.18px;"/>
            <path d="M3453,4188C3456,4120 3468,4018 3480,3960C3492,3902 3505,3830 3510,3800C3523,3722 3530,3700 3546,3700C3556,3700 3560,3686 3560,3653C3561,3626 3566,3585 3572,3560C3577,3535 3586,3367 3590,3185C3595,3004 3603,2830 3610,2800C3616,2770 3625,2671 3630,2580C3639,2398 3646,2360 3666,2360C3676,2360 3680,2330 3683,2228C3685,2155 3692,2064 3698,2025C3713,1932 3731,1781 3736,1700C3739,1664 3745,1626 3750,1615C3755,1604 3761,1578 3765,1557C3768,1537 3775,1520 3780,1520C3786,1520 3790,1505 3790,1487C3790,1470 3795,1439 3801,1420C3810,1387 3818,1350 3840,1240C3867,1097 3884,1034 3896,1024C3904,1018 3910,1007 3910,1000C3910,993 3924,927 3940,853C3957,780 3970,708 3970,694C3970,680 3977,645 3985,616C3998,572 4004,564 4022,565C4041,566 4045,577 4062,671C4072,728 4084,820 4090,875C4109,1073 4120,1143 4134,1154C4141,1160 4153,1203 4160,1250C4177,1365 4207,1505 4220,1529C4225,1540 4230,1558 4230,1569C4230,1580 4236,1593 4243,1597C4260,1607 4350,1796 4350,1821C4350,1831 4356,1840 4364,1840C4373,1840 4383,1860 4390,1893C4401,1942 4414,1984 4456,2123C4466,2154 4477,2180 4480,2180C4484,2180 4496,2206 4509,2238C4521,2269 4536,2306 4541,2318C4546,2331 4564,2347 4581,2353C4629,2372 4630,2403 4581,2450C4558,2472 4540,2499 4540,2509C4540,2528 4510,2589 4485,2620C4478,2628 4460,2664 4445,2700C4396,2818 4375,2860 4365,2860C4360,2861 4343,2887 4329,2918C4314,2949 4294,2993 4284,3014C4274,3035 4258,3055 4249,3057C4239,3060 4227,3075 4221,3092C4215,3108 4197,3141 4180,3166C4164,3191 4150,3218 4150,3226C4150,3233 4144,3240 4137,3240C4123,3240 4060,3323 4060,3343C4059,3359 4029,3396 4010,3402C4001,3405 3988,3420 3980,3436C3954,3488 3915,3540 3902,3540C3895,3540 3886,3550 3881,3563C3876,3575 3856,3607 3836,3633C3816,3659 3800,3687 3800,3695C3800,3703 3794,3710 3786,3710C3771,3710 3742,3752 3702,3831C3689,3858 3672,3880 3664,3880C3656,3880 3644,3892 3638,3908C3632,3923 3614,3962 3598,3994C3583,4027 3570,4059 3570,4066C3570,4073 3562,4084 3551,4089C3534,4099 3508,4173 3493,4255C3490,4272 3483,4291 3478,4298C3453,4328 3449,4306 3453,4188Z" style="fill:rgb(51,51,51);fill-rule:nonzero;stroke:black;stroke-width:127.18px;"/>
            <path d="M7080,4207C7068,4167 7056,4129 7054,4122C7052,4115 7045,4111 7039,4112C7033,4114 7021,4095 7013,4070C6987,3994 6930,3882 6914,3876C6906,3873 6891,3853 6882,3833C6854,3771 6819,3720 6805,3720C6797,3720 6788,3710 6784,3698C6778,3676 6722,3599 6682,3555C6652,3522 6610,3462 6610,3452C6610,3441 6569,3403 6565,3410C6561,3419 6515,3356 6497,3316C6487,3295 6471,3276 6460,3273C6450,3270 6436,3254 6429,3237C6422,3219 6403,3183 6388,3157C6373,3131 6360,3103 6360,3096C6360,3088 6352,3080 6342,3078C6331,3075 6313,3051 6301,3024C6289,2997 6269,2954 6257,2928C6245,2902 6229,2880 6223,2880C6216,2880 6210,2875 6210,2868C6210,2844 6116,2670 6103,2670C6096,2670 6090,2665 6090,2658C6090,2652 6077,2618 6060,2583C6044,2549 6030,2516 6030,2512C6030,2494 6004,2450 5994,2450C5988,2450 5976,2432 5968,2411C5951,2369 5958,2350 5990,2350C6008,2350 6050,2310 6050,2293C6050,2287 6057,2269 6065,2254C6073,2238 6083,2208 6086,2187C6090,2166 6100,2145 6110,2140C6119,2135 6133,2109 6140,2083C6147,2057 6158,2017 6165,1995C6172,1973 6186,1920 6196,1878C6206,1835 6219,1800 6226,1800C6236,1800 6280,1714 6280,1693C6280,1688 6289,1665 6300,1642C6311,1620 6320,1594 6320,1585C6320,1576 6327,1567 6336,1563C6361,1554 6379,1498 6400,1355C6437,1113 6446,1070 6456,1070C6474,1070 6480,1045 6480,962C6481,918 6487,868 6496,845C6506,819 6513,756 6516,661C6519,581 6522,514 6525,512C6535,502 6548,523 6554,559C6557,580 6566,600 6574,603C6587,608 6594,629 6620,745C6627,773 6638,821 6647,854C6655,886 6664,946 6667,987C6672,1045 6677,1063 6691,1071C6702,1076 6710,1088 6710,1098C6710,1108 6719,1140 6730,1170C6741,1200 6750,1248 6750,1276C6750,1304 6754,1340 6759,1356C6764,1372 6773,1418 6780,1457C6788,1504 6796,1530 6805,1530C6823,1530 6830,1553 6830,1616C6830,1646 6837,1705 6846,1747C6862,1827 6876,1950 6890,2135C6898,2253 6906,2289 6926,2305C6936,2312 6940,2354 6941,2455C6942,2557 6947,2614 6961,2665C6978,2727 6980,2772 6980,3071C6980,3262 6985,3432 6991,3466C7017,3613 7024,3643 7037,3656C7046,3664 7053,3699 7056,3742C7059,3782 7067,3833 7075,3855C7110,3961 7136,4259 7112,4274C7107,4277 7093,4247 7080,4207Z" style="fill:rgb(51,51,51);fill-rule:nonzero;stroke:black;stroke-width:127.18px;"/>
        </g>
    </g>
</svg>
