<?xml version="1.0" encoding="UTF-8" standalone="no"?>
<!DOCTYPE svg PUBLIC "-//W3C//DTD SVG 1.1//EN" "http://www.w3.org/Graphics/SVG/1.1/DTD/svg11.dtd">
<svg width="100%" height="100%" viewBox="0 0 20 20" version="1.1" xmlns="http://www.w3.org/2000/svg" xmlns:xlink="http://www.w3.org/1999/xlink" xml:space="preserve" xmlns:serif="http://www.serif.com/" style="fill-rule:evenodd;clip-rule:evenodd;stroke-linejoin:round;stroke-miterlimit:2;">
    <g transform="matrix(1.22713,0,0,1.22713,-23.5454,-2.2713)">
        <g id="Taraska">
            <g transform="matrix(1,0,0,1,34.672,7.9769)">
                <path d="M0,-1.305C-0.115,-1.306 -0.23,-1.306 -0.345,-1.306C-0.47,-1.306 -0.601,-1.305 -0.735,-1.307C-0.794,-1.307 -0.833,-1.29 -0.862,-1.251C-0.921,-1.174 -0.967,-1.108 -1.005,-1.045C-1.021,-1.018 -1.037,-0.992 -1.052,-0.965C-1.115,-0.86 -1.179,-0.75 -1.267,-0.655C-1.343,-0.575 -1.404,-0.478 -1.464,-0.384C-1.48,-0.36 -1.495,-0.336 -1.51,-0.313C-1.64,-0.116 -1.627,0.026 -1.469,0.148C-1.456,0.158 -1.442,0.18 -1.443,0.207C-1.443,0.235 -1.444,0.266 -1.461,0.287C-1.479,0.31 -1.516,0.327 -1.547,0.327C-1.682,0.324 -1.794,0.235 -1.809,0.12C-1.842,-0.129 -1.797,-0.326 -1.667,-0.498C-1.475,-0.751 -1.331,-0.961 -1.213,-1.159C-0.882,-1.717 -0.513,-2.269 -0.087,-2.846C-0.009,-2.952 0.044,-3.06 0.077,-3.178C0.084,-3.203 0.069,-3.253 0.048,-3.271C0.027,-3.29 -0.025,-3.301 -0.047,-3.29C-0.196,-3.217 -0.345,-3.135 -0.488,-3.055L-0.529,-3.033C-0.547,-3.023 -0.565,-3.009 -0.583,-2.997C-0.611,-2.976 -0.64,-2.955 -0.673,-2.943C-0.711,-2.93 -0.767,-2.934 -0.809,-2.955C-0.835,-2.967 -0.849,-2.983 -0.852,-3.002C-0.856,-3.032 -0.829,-3.057 -0.811,-3.073C-0.807,-3.076 -0.804,-3.079 -0.802,-3.081C-0.711,-3.17 -0.603,-3.27 -0.469,-3.349C-0.221,-3.492 -0.214,-3.506 -0.092,-3.745L-0.054,-3.818C-0.019,-3.885 0.016,-3.953 0.055,-4.019C0.095,-4.085 0.07,-4.131 0.018,-4.183L-0.004,-4.204C-0.017,-4.218 -0.03,-4.231 -0.043,-4.243C-0.136,-4.331 -0.15,-4.332 -0.237,-4.269C-0.318,-4.211 -0.397,-4.152 -0.476,-4.093C-0.643,-3.968 -0.816,-3.84 -0.995,-3.725C-1.103,-3.656 -1.139,-3.56 -1.162,-3.466C-1.182,-3.384 -1.181,-3.294 -1.179,-3.207C-1.179,-3.181 -1.178,-3.155 -1.178,-3.128C-1.178,-3.051 -1.179,-2.973 -1.18,-2.895C-1.183,-2.676 -1.186,-2.45 -1.173,-2.229C-1.131,-1.545 -1.875,-1.683 -2.275,-1.656C-2.331,-1.652 -2.388,-1.648 -2.444,-1.656C-2.453,-1.657 -2.463,-1.657 -2.472,-1.657C-2.483,-1.657 -2.495,-1.657 -2.506,-1.656L-2.527,-1.655C-2.62,-1.652 -2.636,-1.637 -2.636,-1.55C-2.636,-1.43 -2.636,-1.31 -2.637,-1.19C-2.638,-0.774 -2.639,-0.343 -2.632,0.081C-2.629,0.224 -2.68,0.33 -2.797,0.425C-2.853,0.47 -2.911,0.513 -2.968,0.554C-3.023,0.595 -3.081,0.637 -3.135,0.681C-3.201,0.735 -3.232,0.8 -3.232,0.888C-3.227,1.433 -3.228,1.969 -3.23,2.605C-3.23,2.664 -3.203,2.717 -3.166,2.73C-3.054,2.77 -2.971,2.849 -2.89,2.926C-2.855,2.96 -2.818,2.995 -2.778,3.027C-2.767,3.001 -2.756,2.976 -2.744,2.951C-2.714,2.888 -2.686,2.828 -2.681,2.767C-2.663,2.566 -2.578,2.392 -2.42,2.235C-2.41,2.224 -2.398,2.213 -2.387,2.202C-2.347,2.164 -2.307,2.125 -2.277,2.08C-2.016,1.702 -1.709,1.342 -1.363,1.011L-1.343,0.991C-1.278,0.93 -1.211,0.866 -1.162,0.793C-0.962,0.493 -0.716,0.224 -0.477,-0.035L-0.456,-0.058C-0.308,-0.22 -0.176,-0.398 -0.049,-0.571C0.039,-0.689 0.129,-0.811 0.224,-0.927C0.245,-0.952 0.253,-0.999 0.252,-1.033C0.249,-1.144 0.1,-1.304 0,-1.305" style="fill:rgb(143,110,115);fill-rule:nonzero;"/>
            </g>
            <g transform="matrix(1,0,0,1,31.445,10.9169)">
                <rect x="0" y="0" width="0.001" height="0.001" style="fill:rgb(120,73,76);"/>
            </g>
            <g transform="matrix(1,0,0,1,26.971,14.1669)">
                <path d="M0,0.994C-0.001,1.023 -0.003,1.053 -0.002,1.08L-0.001,1.097C0,1.133 0.001,1.17 0.015,1.197C0.032,1.232 0.069,1.261 0.096,1.279C0.103,1.282 0.119,1.276 0.129,1.273C0.137,1.271 0.146,1.268 0.154,1.267C0.166,1.265 0.179,1.261 0.191,1.258C0.213,1.252 0.235,1.246 0.256,1.246C0.265,1.246 0.274,1.247 0.283,1.25C0.296,1.254 0.308,1.259 0.321,1.265C0.355,1.28 0.38,1.291 0.418,1.266C0.452,1.243 0.503,1.248 0.549,1.253C0.623,1.262 0.688,1.251 0.713,1.227C0.721,1.219 0.724,1.211 0.723,1.202C0.713,1.099 0.742,1.005 0.77,0.914C0.791,0.846 0.812,0.776 0.817,0.704C0.834,0.418 0.885,0.365 1.152,0.365C1.197,0.365 1.246,0.366 1.293,0.367C1.438,0.374 1.493,0.421 1.542,0.58C1.546,0.595 1.55,0.611 1.553,0.626C1.559,0.651 1.564,0.675 1.575,0.695C1.58,0.7 1.612,0.702 1.625,0.703L1.632,0.703C1.636,0.703 1.645,0.696 1.647,0.693C1.676,0.635 1.677,0.571 1.678,0.503C1.68,0.417 1.682,0.328 1.742,0.251L1.738,0.246C1.734,0.239 1.729,0.232 1.726,0.227C1.708,0.191 1.692,0.155 1.675,0.119C1.638,0.042 1.601,-0.039 1.555,-0.11C1.471,-0.241 1.361,-0.297 1.215,-0.29C1.024,-0.28 0.829,-0.283 0.641,-0.285C0.561,-0.285 0.48,-0.286 0.399,-0.286L-0.416,-0.287L-0.461,-0.287C-0.501,-0.287 -0.544,-0.288 -0.584,-0.282C-0.632,-0.276 -0.669,-0.262 -0.691,-0.243C-0.864,-0.094 -0.95,0.067 -0.953,0.252C-0.955,0.345 -0.95,0.444 -0.937,0.549C-0.934,0.583 -0.911,0.617 -0.889,0.651C-0.879,0.667 -0.864,0.678 -0.849,0.689C-0.847,0.691 -0.844,0.693 -0.842,0.694C-0.841,0.693 -0.839,0.691 -0.838,0.69C-0.827,0.678 -0.817,0.667 -0.814,0.657C-0.747,0.412 -0.723,0.37 -0.555,0.37L-0.544,0.37C-0.514,0.37 -0.484,0.367 -0.453,0.364C-0.355,0.355 -0.252,0.345 -0.166,0.424C-0.093,0.491 -0.076,0.58 -0.06,0.666C-0.051,0.718 -0.04,0.772 -0.017,0.819C0.008,0.87 0.004,0.933 0,0.994" style="fill:rgb(190,75,84);fill-rule:nonzero;"/>
            </g>
            <g transform="matrix(1,0,0,1,30.93,13.6909)">
                <path d="M0,1.909C0.1,1.979 0.194,2.044 0.316,2.054C0.344,2.056 0.378,2.07 0.403,2.09C0.449,2.126 0.473,2.107 0.514,2.058C0.578,1.98 0.54,1.943 0.527,1.931C0.295,1.71 0.282,1.432 0.297,1.215C0.305,1.088 0.303,0.958 0.301,0.832C0.3,0.781 0.299,0.729 0.299,0.678L0.294,0.678L0.294,0.458C0.295,0.244 0.295,0.022 0.292,-0.196C0.292,-0.202 0.291,-0.21 0.284,-0.214C0.279,-0.217 0.271,-0.216 0.264,-0.211C0.247,-0.202 0.229,-0.192 0.213,-0.183C0.134,-0.141 0.067,-0.105 0.072,0.008C0.081,0.177 0.011,0.304 -0.13,0.373C-0.154,0.385 -0.169,0.402 -0.173,0.421C-0.176,0.441 -0.169,0.463 -0.15,0.482C-0.086,0.552 -0.087,0.633 -0.087,0.711L-0.088,0.736C-0.087,0.81 -0.086,0.884 -0.085,0.958C-0.083,1.139 -0.08,1.326 -0.092,1.509C-0.097,1.584 -0.073,1.649 -0.048,1.718C-0.026,1.778 -0.003,1.839 -0.002,1.907L0,1.909Z" style="fill:rgb(120,73,76);fill-rule:nonzero;"/>
            </g>
            <g transform="matrix(1,0,0,1,24.374,12.7929)">
                <path d="M0,0.528C0.012,0.529 0.025,0.53 0.037,0.531C0.081,0.535 0.126,0.539 0.169,0.535C0.178,0.535 0.188,0.534 0.197,0.534C0.306,0.534 0.397,0.59 0.47,0.701C0.525,0.785 0.59,0.897 0.609,1.013C0.617,1.064 0.64,1.105 0.664,1.15C0.688,1.192 0.712,1.236 0.721,1.287C0.725,1.29 0.751,1.3 0.768,1.3L0.772,1.3C0.791,1.299 0.817,1.283 0.82,1.273C0.828,1.254 0.831,1.232 0.834,1.21C0.837,1.19 0.839,1.17 0.846,1.15C0.846,1.149 0.87,1.076 0.909,1.072C0.934,1.07 0.96,1.066 0.986,1.063C1.146,1.043 1.312,1.021 1.461,1.108C1.555,1.162 1.596,1.127 1.651,1.064C1.801,0.889 1.995,0.803 2.243,0.803L2.268,0.803C2.583,0.811 2.902,0.809 3.212,0.808C3.369,0.807 3.527,0.806 3.684,0.807C4.003,0.807 4.138,0.877 4.371,1.162C4.374,1.165 4.378,1.168 4.383,1.172C4.39,1.177 4.397,1.183 4.403,1.192C4.415,1.208 4.42,1.209 4.42,1.209C4.42,1.209 4.426,1.208 4.439,1.19C4.531,1.056 4.672,1.048 4.798,1.054C4.854,1.058 4.912,1.059 4.969,1.058L4.97,1.058C5.032,1.058 5.061,1.098 5.081,1.138L5.093,1.163C5.108,1.193 5.121,1.222 5.139,1.249C5.157,1.275 5.179,1.29 5.202,1.29L5.207,1.29C5.231,1.287 5.251,1.268 5.262,1.237C5.292,1.157 5.318,1.074 5.344,0.994C5.36,0.943 5.377,0.891 5.394,0.84C5.439,0.708 5.527,0.535 5.762,0.535L5.778,0.535C5.834,0.537 5.892,0.54 5.944,0.527C5.974,0.519 6.01,0.494 6.038,0.461C6.089,0.401 6.08,0.33 6.071,0.255C6.069,0.232 6.066,0.209 6.065,0.186C6.062,0.178 6.033,0.158 6.021,0.158C5.896,0.158 5.81,0.115 5.75,0.022C5.729,-0.011 5.698,-0.039 5.665,-0.067C5.619,-0.105 5.563,-0.123 5.505,-0.112C5.447,-0.102 5.395,-0.065 5.364,-0.011C5.336,0.036 5.314,0.087 5.293,0.137C5.26,0.215 5.225,0.295 5.168,0.365C5.057,0.501 4.916,0.501 4.805,0.485C4.723,0.473 4.631,0.373 4.627,0.289C4.62,0.151 4.618,0.016 4.617,-0.097C4.616,-0.157 4.586,-0.199 4.553,-0.236C4.526,-0.265 4.482,-0.281 4.446,-0.273C4.432,-0.27 4.414,-0.261 4.408,-0.24C4.397,-0.201 4.381,-0.164 4.365,-0.127C4.337,-0.061 4.311,0.001 4.307,0.076C4.298,0.268 4.142,0.393 3.995,0.403C3.853,0.412 3.743,0.407 3.677,0.347C3.611,0.287 3.593,0.178 3.589,0.034C3.587,0.005 3.586,-0.024 3.584,-0.054C3.58,-0.139 3.574,-0.227 3.585,-0.312C3.593,-0.372 3.569,-0.421 3.545,-0.474C3.521,-0.524 3.496,-0.575 3.499,-0.637C3.5,-0.686 3.493,-0.694 3.493,-0.695C3.49,-0.695 3.479,-0.693 3.439,-0.663C3.426,-0.652 3.413,-0.64 3.4,-0.628C3.359,-0.59 3.317,-0.551 3.251,-0.551C3.207,-0.55 3.162,-0.548 3.117,-0.546C3.005,-0.542 2.888,-0.537 2.776,-0.555C2.764,-0.557 2.751,-0.559 2.739,-0.561C2.632,-0.576 2.499,-0.595 2.458,-0.754C2.456,-0.76 2.456,-0.767 2.455,-0.772C2.447,-0.769 2.43,-0.75 2.43,-0.741C2.427,-0.693 2.428,-0.643 2.428,-0.596C2.43,-0.5 2.431,-0.4 2.405,-0.309C2.366,-0.176 2.344,-0.032 2.335,0.144C2.327,0.322 2.25,0.391 2.041,0.406C1.868,0.42 1.743,0.358 1.664,0.221C1.632,0.165 1.615,0.103 1.617,0.052C1.62,-0.033 1.585,-0.101 1.547,-0.173C1.534,-0.2 1.519,-0.228 1.507,-0.256C1.503,-0.268 1.495,-0.275 1.485,-0.278C1.465,-0.286 1.438,-0.277 1.422,-0.267C1.351,-0.227 1.315,-0.178 1.313,-0.117C1.311,-0.062 1.31,-0.007 1.309,0.048C1.308,0.121 1.307,0.196 1.303,0.27C1.296,0.393 1.2,0.48 1.058,0.492C1.045,0.494 1.032,0.494 1.02,0.494C0.868,0.494 0.757,0.409 0.682,0.233C0.651,0.161 0.622,0.082 0.594,-0.003C0.563,-0.097 0.515,-0.109 0.42,-0.113C0.415,-0.113 0.41,-0.114 0.405,-0.114C0.299,-0.114 0.222,-0.066 0.198,0.015C0.161,0.139 0.079,0.146 -0.008,0.154C-0.031,0.156 -0.07,0.167 -0.073,0.216C-0.075,0.248 -0.077,0.28 -0.077,0.289C-0.077,0.321 -0.078,0.344 -0.078,0.363C-0.078,0.394 -0.078,0.411 -0.077,0.427C-0.07,0.497 -0.05,0.524 0,0.528" style="fill:rgb(196,135,72);fill-rule:nonzero;"/>
            </g>
            <g transform="matrix(1,0,0,1,28.171,10.0699)">
                <path d="M0,2.393C0.003,2.452 0.007,2.512 0,2.572C-0.012,2.657 0.022,2.724 0.058,2.794C0.073,2.823 0.088,2.852 0.1,2.883C0.104,2.894 0.113,2.901 0.125,2.906C0.143,2.912 0.167,2.909 0.185,2.9C0.248,2.864 0.305,2.823 0.298,2.757C0.29,2.667 0.32,2.589 0.349,2.514C0.371,2.457 0.392,2.403 0.397,2.344C0.401,2.295 0.428,2.235 0.533,2.23C0.569,2.228 0.606,2.227 0.644,2.227C0.693,2.227 0.742,2.229 0.791,2.232C0.931,2.24 1.022,2.329 1.03,2.462C1.032,2.513 1.033,2.566 1.034,2.616C1.034,2.692 1.035,2.771 1.044,2.847C1.049,2.884 1.085,2.924 1.116,2.958L1.129,2.973C1.132,2.977 1.138,2.976 1.142,2.976C1.166,2.972 1.204,2.944 1.224,2.903C1.243,2.862 1.262,2.82 1.28,2.778C1.3,2.731 1.322,2.682 1.345,2.635C1.465,2.393 1.479,2.385 1.752,2.398C1.916,2.405 2.096,2.441 2.181,2.644C2.181,2.642 2.186,2.645 2.204,2.649C2.211,2.65 2.227,2.654 2.231,2.651C2.24,2.643 2.249,2.629 2.26,2.614C2.263,2.609 2.266,2.604 2.27,2.599C2.261,2.581 2.254,2.563 2.246,2.545C2.209,2.462 2.175,2.384 2.072,2.333C1.712,2.156 1.35,1.971 1,1.791C0.709,1.642 0.408,1.488 0.111,1.34C-0.146,1.213 -0.306,1.019 -0.393,0.732C-0.412,0.671 -0.424,0.609 -0.435,0.549C-0.457,0.434 -0.48,0.316 -0.545,0.215L-0.548,0.21L-0.547,0.203C-0.54,0.11 -0.568,0.024 -0.597,-0.068C-0.628,-0.167 -0.661,-0.269 -0.645,-0.379C-0.635,-0.449 -0.681,-0.5 -0.733,-0.545C-0.764,-0.573 -0.808,-0.584 -0.853,-0.574C-0.896,-0.564 -0.932,-0.536 -0.948,-0.499C-0.956,-0.481 -0.965,-0.464 -0.974,-0.446C-0.997,-0.401 -1.021,-0.354 -1.021,-0.312C-1.022,-0.112 -1.076,0.077 -1.128,0.26C-1.163,0.383 -1.199,0.51 -1.219,0.638C-1.257,0.89 -1.394,1.104 -1.605,1.243C-1.703,1.307 -1.785,1.355 -1.862,1.394C-2.075,1.501 -2.288,1.608 -2.501,1.715C-2.754,1.841 -3.006,1.968 -3.258,2.096C-3.414,2.175 -3.578,2.266 -3.774,2.38C-3.85,2.424 -3.884,2.494 -3.87,2.578C-3.868,2.597 -3.857,2.618 -3.846,2.637C-3.843,2.636 -3.84,2.636 -3.839,2.635C-3.801,2.601 -3.757,2.56 -3.718,2.517C-3.644,2.437 -3.561,2.398 -3.466,2.398C-3.456,2.398 -3.447,2.399 -3.438,2.399C-3.4,2.402 -3.358,2.401 -3.313,2.395C-3.18,2.377 -3.08,2.432 -3.017,2.559C-2.96,2.672 -2.903,2.785 -2.848,2.9C-2.844,2.909 -2.84,2.92 -2.836,2.932C-2.831,2.947 -2.824,2.97 -2.817,2.973C-2.814,2.975 -2.811,2.973 -2.809,2.972C-2.771,2.957 -2.729,2.909 -2.711,2.862C-2.7,2.832 -2.701,2.796 -2.704,2.757C-2.704,2.737 -2.705,2.717 -2.704,2.697C-2.696,2.496 -2.675,2.366 -2.597,2.295C-2.52,2.226 -2.395,2.217 -2.206,2.227C-2.153,2.23 -2.089,2.244 -2.062,2.33C-2.053,2.361 -2.039,2.389 -2.025,2.419C-1.997,2.479 -1.968,2.541 -1.974,2.618C-1.984,2.735 -1.91,2.803 -1.812,2.881C-1.78,2.906 -1.764,2.894 -1.734,2.859C-1.71,2.832 -1.68,2.794 -1.678,2.762C-1.674,2.702 -1.675,2.64 -1.675,2.58C-1.676,2.484 -1.676,2.385 -1.66,2.289C-1.652,2.239 -1.639,2.189 -1.626,2.14C-1.6,2.039 -1.576,1.943 -1.588,1.839C-1.593,1.792 -1.597,1.738 -1.576,1.701C-1.524,1.611 -1.453,1.487 -1.316,1.474C-1.227,1.466 -1.204,1.534 -1.187,1.59C-1.178,1.619 -1.17,1.647 -1.154,1.665C-1.131,1.69 -1.127,1.729 -1.124,1.766C-1.123,1.777 -1.122,1.786 -1.121,1.795C-1.112,1.863 -1.091,1.887 -1.038,1.888C-1.003,1.888 -0.967,1.888 -0.932,1.887C-0.84,1.887 -0.745,1.887 -0.651,1.891L-0.643,1.891C-0.551,1.891 -0.511,1.826 -0.482,1.756C-0.473,1.734 -0.471,1.709 -0.47,1.682C-0.467,1.638 -0.464,1.588 -0.425,1.55C-0.424,1.549 -0.331,1.46 -0.301,1.488C-0.281,1.504 -0.251,1.514 -0.222,1.525C-0.166,1.544 -0.102,1.566 -0.097,1.642C-0.093,1.725 -0.07,1.807 -0.048,1.886C-0.018,1.995 0.013,2.107 0,2.229C-0.007,2.282 -0.003,2.338 0,2.393" style="fill:rgb(143,110,115);fill-rule:nonzero;"/>
            </g>
            <g transform="matrix(1,0,0,1,20.995,3.9189)">
                <path d="M0,-1.233C0.039,-1.174 0.042,-1.106 0.045,-1.041C0.048,-0.963 0.051,-0.89 0.11,-0.832C0.138,-0.806 0.125,-0.744 0.123,-0.732C0.104,-0.64 0.134,-0.559 0.165,-0.473C0.193,-0.398 0.221,-0.321 0.215,-0.238C0.21,-0.158 0.236,-0.085 0.263,-0.008C0.292,0.077 0.323,0.164 0.311,0.259C0.309,0.274 0.336,0.304 0.347,0.317C0.351,0.322 0.355,0.326 0.359,0.332C0.372,0.347 0.39,0.369 0.403,0.37C0.406,0.372 0.41,0.37 0.416,0.365C0.492,0.299 0.577,0.301 0.657,0.304C0.676,0.304 0.696,0.305 0.714,0.305C0.856,0.303 1.001,0.303 1.141,0.304L2.002,0.304C2.049,0.303 2.089,0.299 2.124,0.292C2.163,0.284 2.201,0.238 2.217,0.182C2.23,0.14 2.225,0.102 2.207,0.084C2.177,0.055 2.148,0.024 2.119,-0.006C2.04,-0.089 1.959,-0.175 1.864,-0.233C1.772,-0.29 1.694,-0.361 1.619,-0.429C1.581,-0.464 1.542,-0.499 1.502,-0.532C1.446,-0.578 1.39,-0.622 1.334,-0.667C1.258,-0.726 1.18,-0.788 1.105,-0.852C0.982,-0.957 0.859,-1.064 0.737,-1.17C0.613,-1.278 0.488,-1.387 0.363,-1.494C0.342,-1.511 0.317,-1.524 0.29,-1.537C0.266,-1.549 0.241,-1.561 0.218,-1.578C0.195,-1.596 0.178,-1.605 0.16,-1.605C0.141,-1.605 0.123,-1.594 0.1,-1.573C-0.019,-1.465 -0.095,-1.378 0,-1.233" style="fill:rgb(158,54,35);fill-rule:nonzero;"/>
            </g>
            <g transform="matrix(1,0,0,1,24.391,2.7039)">
                <path d="M0,-0.485C-0.133,-0.59 -0.27,-0.698 -0.388,-0.825C-0.415,-0.854 -0.534,-0.861 -0.565,-0.841C-0.607,-0.814 -0.607,-0.773 -0.607,-0.725L-0.607,-0.565C-0.621,-0.462 -0.59,-0.352 -0.558,-0.235C-0.526,-0.122 -0.494,-0.006 -0.495,0.118C-0.452,0.172 -0.442,0.234 -0.432,0.295C-0.429,0.316 -0.425,0.338 -0.421,0.359C-0.418,0.372 -0.414,0.374 -0.414,0.374C-0.412,0.376 -0.397,0.371 -0.387,0.369C-0.109,0.286 0.14,0.157 0.413,0.009C0.442,-0.007 0.457,-0.021 0.46,-0.035C0.462,-0.049 0.453,-0.069 0.433,-0.093C0.307,-0.244 0.151,-0.367 0,-0.485" style="fill:rgb(190,75,84);fill-rule:nonzero;"/>
            </g>
            <g transform="matrix(1,0,0,1,26.261,3.4349)">
                <path d="M0,1.015C-0.013,0.96 -0.016,0.902 -0.019,0.846C-0.038,0.459 -0.161,0.176 -0.406,-0.049L-0.411,-0.053C-0.564,-0.194 -0.724,-0.34 -0.827,-0.536C-0.886,-0.647 -0.96,-0.667 -1.093,-0.608C-1.13,-0.592 -1.166,-0.573 -1.201,-0.555C-1.29,-0.508 -1.381,-0.461 -1.488,-0.448C-1.504,-0.446 -1.512,-0.43 -1.516,-0.421C-1.526,-0.393 -1.521,-0.358 -1.503,-0.34C-1.483,-0.319 -1.464,-0.298 -1.444,-0.277C-1.387,-0.215 -1.327,-0.152 -1.264,-0.095C-0.965,0.179 -0.976,0.528 -1.031,0.864C-1.037,0.893 -1.098,0.905 -1.123,0.903C-1.148,0.899 -1.198,0.877 -1.203,0.846C-1.215,0.776 -1.226,0.702 -1.219,0.63C-1.204,0.493 -1.243,0.359 -1.329,0.244C-1.361,0.202 -1.39,0.159 -1.421,0.116C-1.511,-0.012 -1.604,-0.145 -1.731,-0.244C-1.772,-0.277 -1.807,-0.291 -1.864,-0.265C-1.941,-0.23 -2.02,-0.197 -2.096,-0.166C-2.198,-0.125 -2.304,-0.082 -2.403,-0.032C-2.562,0.048 -2.641,0.153 -2.658,0.31C-2.667,0.394 -2.707,0.475 -2.744,0.553C-2.762,0.59 -2.781,0.627 -2.795,0.665C-2.813,0.709 -2.815,0.742 -2.802,0.761C-2.792,0.776 -2.771,0.784 -2.739,0.785C-2.703,0.785 -2.667,0.786 -2.631,0.787C-2.512,0.79 -2.389,0.793 -2.269,0.786C-2.259,0.785 -2.249,0.785 -2.24,0.785C-2.113,0.785 -1.99,0.833 -1.868,0.932C-1.727,1.045 -1.612,1.175 -1.526,1.319C-1.396,1.534 -1.24,1.736 -1.089,1.932C-1.045,1.99 -1,2.047 -0.956,2.106C-0.823,2.282 -0.664,2.354 -0.459,2.332C-0.282,2.313 -0.101,2.319 0.076,2.325C0.127,2.326 0.179,2.328 0.229,2.329L0.247,2.329C0.337,2.329 0.413,2.312 0.486,2.241C0.614,2.118 0.775,2.063 0.967,2.077C1.067,2.084 1.17,2.082 1.27,2.079C1.304,2.079 1.339,2.078 1.372,2.077C1.458,2.077 1.544,2.088 1.598,2.167C1.701,2.319 1.846,2.341 2.032,2.329C2.092,2.325 2.153,2.326 2.211,2.326C2.232,2.327 2.253,2.327 2.274,2.328L2.291,2.327C2.389,2.327 2.488,2.328 2.586,2.328C2.645,2.328 2.704,2.327 2.763,2.326C2.936,2.324 3.072,2.253 3.143,2.125C3.238,1.957 3.355,1.803 3.468,1.654C3.572,1.516 3.68,1.374 3.769,1.222C3.812,1.148 3.872,1.081 3.929,1.019C4.073,0.865 4.241,0.787 4.429,0.787C4.442,0.787 4.455,0.787 4.469,0.788C4.508,0.79 4.548,0.789 4.587,0.788L4.897,0.788C4.939,0.787 5.003,0.786 5.011,0.774C5.017,0.765 4.998,0.722 4.986,0.697L4.965,0.648C4.938,0.588 4.91,0.526 4.885,0.464C4.879,0.447 4.878,0.43 4.878,0.413C4.878,0.4 4.878,0.388 4.875,0.378C4.804,0.147 4.66,-0.012 4.447,-0.094C4.348,-0.133 4.248,-0.171 4.148,-0.21L3.992,-0.27L3.901,-0.185C3.83,-0.118 3.76,-0.052 3.69,0.016C3.663,0.042 3.637,0.069 3.611,0.096C3.597,0.111 3.584,0.125 3.571,0.139C3.43,0.283 3.366,0.441 3.375,0.621C3.378,0.676 3.374,0.732 3.371,0.786C3.369,0.803 3.368,0.82 3.367,0.837C3.366,0.856 3.35,0.876 3.324,0.891C3.3,0.906 3.264,0.916 3.238,0.905C3.19,0.882 3.168,0.862 3.166,0.84C3.14,0.551 3.148,0.248 3.385,-0.01C3.425,-0.053 3.463,-0.102 3.5,-0.15C3.54,-0.201 3.581,-0.255 3.627,-0.304L3.639,-0.316C3.654,-0.331 3.67,-0.347 3.674,-0.363C3.68,-0.382 3.675,-0.414 3.67,-0.42L3.662,-0.424C3.518,-0.497 3.369,-0.572 3.217,-0.632C3.157,-0.655 3.077,-0.655 3.045,-0.597C2.959,-0.441 2.834,-0.317 2.714,-0.198C2.665,-0.15 2.614,-0.1 2.566,-0.048C2.398,0.135 2.246,0.323 2.24,0.602C2.238,0.674 2.218,0.747 2.199,0.818C2.181,0.881 2.163,0.947 2.158,1.013C2.156,1.034 2.131,1.054 2.115,1.059L2.107,1.061C2.079,1.069 2.048,1.078 2.022,1.066C1.996,1.054 1.971,1.019 1.965,0.988C1.92,0.717 1.989,0.461 2.055,0.27C2.111,0.106 2.22,-0.046 2.38,-0.183C2.461,-0.253 2.532,-0.324 2.59,-0.394C2.7,-0.526 2.804,-0.665 2.901,-0.795C2.909,-0.807 2.908,-0.841 2.9,-0.855C2.769,-1.067 2.524,-1.208 2.244,-1.233L2.188,-1.238C2.064,-1.248 1.947,-1.257 1.824,-1.301C1.718,-1.339 1.569,-1.335 1.416,-1.292C1.172,-1.224 0.958,-1.224 0.741,-1.294C0.605,-1.337 0.477,-1.336 0.38,-1.291C0.249,-1.23 0.117,-1.231 -0.006,-1.24C-0.086,-1.247 -0.156,-1.221 -0.23,-1.193C-0.296,-1.169 -0.364,-1.145 -0.437,-1.145L-0.45,-1.145C-0.476,-1.121 -0.502,-1.096 -0.528,-1.072C-0.593,-1.012 -0.659,-0.95 -0.722,-0.887C-0.761,-0.848 -0.761,-0.804 -0.722,-0.762C-0.626,-0.658 -0.534,-0.547 -0.445,-0.44C-0.339,-0.311 -0.228,-0.177 -0.108,-0.055C0.163,0.221 0.257,0.584 0.172,1.024C0.166,1.053 0.112,1.068 0.086,1.068C0.085,1.068 0.084,1.068 0.083,1.067C0.054,1.066 0.007,1.044 0,1.015" style="fill:rgb(120,73,76);fill-rule:nonzero;"/>
            </g>
            <g transform="matrix(1,0,0,1,24.239,6.8609)">
                <path d="M0,-1.608C0.027,-1.565 0.054,-1.523 0.081,-1.481C0.152,-1.371 0.225,-1.257 0.292,-1.142C0.362,-1.02 0.431,-0.894 0.499,-0.772C0.559,-0.662 0.62,-0.552 0.682,-0.443C0.702,-0.409 0.73,-0.38 0.759,-0.349C0.77,-0.338 0.78,-0.327 0.791,-0.316C0.843,-0.258 0.895,-0.232 0.961,-0.232C1.017,-0.232 1.073,-0.234 1.129,-0.235C1.313,-0.238 1.505,-0.243 1.692,-0.227C1.889,-0.211 2.041,-0.272 2.166,-0.419C2.193,-0.45 2.224,-0.481 2.259,-0.512C2.339,-0.584 2.35,-0.678 2.351,-0.769C2.351,-0.857 2.329,-0.88 2.248,-0.881L2.044,-0.882C1.787,-0.883 1.522,-0.884 1.252,-0.879C1.148,-0.879 1.067,-0.92 0.992,-1.012C0.982,-1.024 0.971,-1.036 0.959,-1.047C0.94,-1.067 0.921,-1.087 0.906,-1.111C0.747,-1.368 0.562,-1.611 0.383,-1.848C0.336,-1.911 0.288,-1.975 0.24,-2.038L0.2,-2.093C0.139,-2.175 0.077,-2.259 0.006,-2.336C-0.052,-2.399 -0.114,-2.426 -0.204,-2.426C-0.476,-2.422 -0.751,-2.423 -1.019,-2.424L-1.302,-2.424L-1.321,-2.422L-1.59,-2.422C-1.858,-2.423 -2.126,-2.422 -2.395,-2.422C-2.409,-2.423 -2.42,-2.422 -2.432,-2.422C-2.475,-2.423 -2.52,-2.423 -2.562,-2.415C-2.679,-2.394 -2.769,-2.29 -2.77,-2.172C-2.773,-1.806 -2.774,-1.445 -2.774,-1.099C-2.773,-0.889 -2.629,-0.741 -2.425,-0.741C-2.404,-0.741 -2.383,-0.74 -2.362,-0.738C-2.296,-0.736 -2.227,-0.732 -2.18,-0.759C-2.059,-0.828 -1.935,-0.825 -1.816,-0.822L-1.713,-0.822C-1.578,-0.826 -1.441,-0.826 -1.309,-0.826C-1.088,-0.827 -0.885,-0.805 -0.684,-0.703C-0.488,-0.604 -0.385,-0.398 -0.321,-0.195C-0.282,-0.069 -0.225,0.051 -0.169,0.168C-0.113,0.288 -0.054,0.412 -0.014,0.542C0.026,0.669 0.117,0.814 0.327,0.814C0.345,0.814 0.364,0.812 0.383,0.81C0.449,0.803 0.52,0.803 0.601,0.81C0.689,0.818 0.736,0.769 0.782,0.687C0.788,0.677 0.79,0.664 0.793,0.65C0.796,0.636 0.8,0.621 0.806,0.607C0.878,0.457 0.981,0.293 1.191,0.215C1.28,0.182 1.364,0.132 1.446,0.083C1.471,0.068 1.496,0.053 1.521,0.038C1.53,0.033 1.537,0.013 1.543,-0.005C1.538,-0.008 1.532,-0.012 1.529,-0.012L1.405,-0.014C1.249,-0.016 1.088,-0.018 0.93,-0.014L0.917,-0.014C0.811,-0.014 0.729,-0.05 0.652,-0.132C0.562,-0.228 0.489,-0.329 0.426,-0.444C0.345,-0.592 0.254,-0.738 0.166,-0.879C0.114,-0.962 0.062,-1.046 0.011,-1.13C-0.076,-1.276 -0.15,-1.41 -0.215,-1.538C-0.228,-1.564 -0.229,-1.6 -0.217,-1.627C-0.207,-1.65 -0.189,-1.665 -0.167,-1.672C-0.135,-1.68 -0.1,-1.668 -0.067,-1.655C-0.058,-1.652 -0.049,-1.648 -0.04,-1.646C-0.022,-1.64 -0.009,-1.623 0,-1.608" style="fill:rgb(158,54,35);fill-rule:nonzero;"/>
            </g>
            <g transform="matrix(1,0,0,1,23.104,8.5629)">
                <path d="M0,-0.242C0.017,-0.229 0.033,-0.214 0.048,-0.199C0.075,-0.173 0.1,-0.15 0.128,-0.141C0.346,-0.076 0.346,0.098 0.344,0.252C0.343,0.566 0.343,0.886 0.344,1.196L0.344,1.602C0.344,1.729 0.344,1.86 0.347,2.003C0.375,1.988 0.401,1.973 0.427,1.959C0.502,1.917 0.567,1.881 0.638,1.855C0.706,1.83 0.731,1.793 0.731,1.714C0.729,1.345 0.729,0.976 0.729,0.607L0.729,0.469C0.729,0.358 0.73,0.26 0.733,0.168C0.734,0.089 0.778,0.043 0.852,0.04C0.937,0.037 1.023,0.041 1.109,0.036C1.203,0.031 1.314,0.045 1.39,0.006C1.433,-0.017 1.459,-0.084 1.484,-0.149C1.491,-0.166 1.498,-0.184 1.504,-0.2C1.524,-0.247 1.553,-0.272 1.594,-0.298C1.643,-0.329 1.691,-0.366 1.736,-0.401C1.756,-0.417 1.777,-0.433 1.798,-0.448C1.828,-0.471 1.874,-0.516 1.848,-0.571C1.84,-0.588 1.795,-0.608 1.758,-0.611C1.702,-0.614 1.646,-0.614 1.591,-0.613C1.533,-0.611 1.474,-0.612 1.415,-0.615C1.247,-0.627 1.137,-0.692 1.058,-0.828C1.034,-0.868 1.008,-0.908 0.982,-0.947C0.908,-1.058 0.832,-1.173 0.813,-1.317C0.743,-1.426 0.699,-1.549 0.656,-1.667C0.596,-1.833 0.533,-2.004 0.403,-2.135L0.398,-2.14L0.397,-2.145C0.379,-2.245 0.305,-2.242 0.218,-2.243C0.151,-2.243 0.094,-2.243 0.047,-2.244L-0.018,-2.244C-0.098,-2.244 -0.145,-2.24 -0.164,-2.221C-0.187,-2.198 -0.185,-2.144 -0.183,-2.044C-0.181,-1.998 -0.18,-1.94 -0.181,-1.87C-0.182,-1.709 -0.181,-1.546 -0.18,-1.389C-0.179,-1.138 -0.177,-0.879 -0.187,-0.624C-0.193,-0.457 -0.137,-0.343 0,-0.242M0.406,-1.269C0.406,-1.3 0.436,-1.325 0.464,-1.351C0.474,-1.359 0.483,-1.367 0.491,-1.375C0.494,-1.378 0.521,-1.405 0.546,-1.399C0.564,-1.395 0.585,-1.37 0.586,-1.35C0.595,-1.207 0.603,-1.063 0.61,-0.919L0.617,-0.798L0.61,-0.699C0.602,-0.576 0.594,-0.453 0.584,-0.33C0.582,-0.312 0.561,-0.286 0.541,-0.284L0.538,-0.284C0.52,-0.284 0.5,-0.297 0.489,-0.309C0.481,-0.317 0.472,-0.326 0.462,-0.334C0.434,-0.359 0.404,-0.385 0.404,-0.417C0.398,-0.7 0.398,-0.987 0.406,-1.269" style="fill:rgb(190,75,84);fill-rule:nonzero;"/>
            </g>
            <g transform="matrix(1,0,0,1,29.5,18.1039)">
                <path d="M0,-2.955C0.002,-2.963 -0.011,-2.993 -0.023,-3C-0.035,-3.008 -0.061,-3.004 -0.082,-3.001L-0.091,-3C-0.096,-2.999 -0.105,-2.992 -0.112,-2.982C-0.154,-2.927 -0.2,-2.872 -0.243,-2.819C-0.359,-2.68 -0.479,-2.536 -0.54,-2.365C-0.642,-2.08 -0.818,-1.931 -1.094,-1.895C-1.194,-1.821 -1.308,-1.817 -1.417,-1.814C-1.448,-1.812 -1.479,-1.812 -1.508,-1.809C-1.556,-1.805 -1.605,-1.805 -1.652,-1.804C-1.773,-1.803 -1.888,-1.801 -2.004,-1.746C-2.104,-1.7 -2.253,-1.721 -2.351,-1.761C-2.45,-1.8 -2.556,-1.815 -2.675,-1.805C-2.84,-1.788 -2.994,-1.832 -3.143,-1.872C-3.182,-1.884 -3.221,-1.894 -3.261,-1.904C-3.386,-1.935 -3.492,-1.978 -3.576,-2.031C-3.66,-2.084 -3.695,-2.172 -3.73,-2.257C-3.744,-2.292 -3.758,-2.327 -3.775,-2.359C-3.79,-2.387 -3.806,-2.415 -3.822,-2.442C-3.855,-2.5 -3.889,-2.559 -3.915,-2.621C-3.984,-2.787 -4.118,-2.9 -4.237,-3C-4.245,-3.006 -4.261,-3.01 -4.279,-3.01C-4.286,-3.01 -4.294,-3.009 -4.301,-3.008C-4.312,-3.006 -4.316,-3.002 -4.317,-3C-4.318,-2.998 -4.32,-2.992 -4.309,-2.972C-4.212,-2.789 -4.13,-2.595 -4.05,-2.408C-3.979,-2.24 -3.905,-2.066 -3.821,-1.901C-3.795,-1.851 -3.765,-1.802 -3.735,-1.754C-3.674,-1.657 -3.611,-1.556 -3.59,-1.447C-3.545,-1.215 -3.403,-1.103 -3.203,-1.005C-3.188,-0.997 -3.174,-0.99 -3.16,-0.982C-3.124,-0.963 -3.09,-0.945 -3.054,-0.935C-2.724,-0.847 -2.606,-0.58 -2.539,-0.357C-2.529,-0.323 -2.516,-0.29 -2.503,-0.259C-2.49,-0.226 -2.477,-0.193 -2.467,-0.16C-2.423,-0.01 -2.331,0.055 -2.169,0.044L-2.164,0.044C-1.963,0.044 -1.847,-0.039 -1.809,-0.209C-1.798,-0.254 -1.779,-0.295 -1.76,-0.335C-1.737,-0.384 -1.714,-0.43 -1.71,-0.483C-1.697,-0.663 -1.571,-0.753 -1.451,-0.817C-1.349,-0.871 -1.231,-0.932 -1.11,-0.986C-0.991,-1.039 -0.838,-1.134 -0.78,-1.285C-0.731,-1.414 -0.666,-1.535 -0.604,-1.653C-0.55,-1.754 -0.495,-1.857 -0.451,-1.963C-0.363,-2.174 -0.267,-2.378 -0.173,-2.574C-0.119,-2.688 -0.056,-2.821 0,-2.955" style="fill:rgb(120,73,76);fill-rule:nonzero;"/>
            </g>
            <g transform="matrix(1,0,0,1,30.418,15.6849)">
                <path d="M0,-1.745C-0.037,-1.76 -0.048,-1.842 -0.041,-1.88C-0.035,-1.916 -0.019,-1.949 -0.004,-1.981C0.004,-2 0.014,-2.02 0.021,-2.039C0.031,-2.067 0.028,-2.096 0.013,-2.118C0.003,-2.133 -0.012,-2.141 -0.029,-2.142C-0.08,-2.144 -0.14,-2.146 -0.198,-2.142C-0.363,-2.133 -0.378,-2.111 -0.445,-1.938C-0.468,-1.879 -0.487,-1.818 -0.505,-1.759C-0.531,-1.674 -0.559,-1.586 -0.599,-1.502C-0.673,-1.345 -0.796,-1.304 -0.958,-1.291L-0.971,-1.291C-1.052,-1.291 -1.074,-1.355 -1.092,-1.407C-1.101,-1.434 -1.11,-1.46 -1.125,-1.477C-1.142,-1.496 -1.15,-1.52 -1.158,-1.543C-1.164,-1.561 -1.17,-1.579 -1.179,-1.592C-1.187,-1.603 -1.211,-1.614 -1.24,-1.62C-1.297,-1.63 -1.379,-1.605 -1.426,-1.563C-1.441,-1.549 -1.458,-1.528 -1.457,-1.505C-1.446,-1.365 -1.478,-1.231 -1.509,-1.101C-1.536,-0.987 -1.564,-0.869 -1.562,-0.751C-1.561,-0.662 -1.602,-0.609 -1.693,-0.581C-1.71,-0.576 -1.726,-0.564 -1.743,-0.551C-1.761,-0.537 -1.779,-0.523 -1.801,-0.516C-1.888,-0.486 -1.963,-0.488 -2.018,-0.523C-2.071,-0.559 -2.104,-0.625 -2.111,-0.715C-2.113,-0.735 -2.114,-0.755 -2.115,-0.776C-2.117,-0.814 -2.118,-0.849 -2.125,-0.884C-2.128,-0.899 -2.15,-0.921 -2.168,-0.928C-2.242,-0.956 -2.319,-0.95 -2.368,-0.912C-2.402,-0.886 -2.418,-0.848 -2.413,-0.803C-2.402,-0.681 -2.431,-0.567 -2.459,-0.457C-2.479,-0.379 -2.499,-0.298 -2.504,-0.217C-2.513,-0.077 -2.597,-0.001 -2.748,0.002C-2.764,0.002 -2.78,0.003 -2.796,0.004C-2.892,0.007 -2.991,0.011 -3.077,-0.054C-3.166,0.008 -3.266,0.005 -3.365,0.003L-3.402,0.002C-3.417,0.002 -3.432,0.001 -3.446,-0C-3.553,-0.008 -3.661,-0.096 -3.653,-0.211C-3.644,-0.343 -3.674,-0.472 -3.702,-0.597C-3.723,-0.688 -3.745,-0.782 -3.751,-0.878C-3.754,-0.906 -3.767,-0.941 -3.862,-0.936C-3.94,-0.932 -4.025,-0.872 -4.039,-0.812C-4.044,-0.79 -4.044,-0.768 -4.045,-0.743C-4.045,-0.724 -4.046,-0.705 -4.048,-0.686C-4.059,-0.607 -4.082,-0.556 -4.121,-0.528C-4.161,-0.5 -4.217,-0.493 -4.297,-0.507C-4.469,-0.538 -4.592,-0.678 -4.596,-0.848C-4.599,-0.952 -4.626,-1.054 -4.651,-1.153C-4.682,-1.269 -4.713,-1.389 -4.707,-1.515C-4.705,-1.557 -4.811,-1.618 -4.892,-1.622L-4.901,-1.622C-4.966,-1.622 -4.983,-1.586 -5.005,-1.508C-5.036,-1.395 -5.065,-1.342 -5.111,-1.319C-5.162,-1.293 -5.226,-1.309 -5.321,-1.344C-5.454,-1.393 -5.534,-1.478 -5.582,-1.618C-5.627,-1.753 -5.672,-1.884 -5.727,-2.011C-5.766,-2.099 -5.832,-2.145 -5.921,-2.145C-5.93,-2.145 -5.938,-2.144 -5.947,-2.143C-5.965,-2.142 -5.984,-2.143 -6.002,-2.143C-6.012,-2.144 -6.021,-2.144 -6.034,-2.144C-6.063,-2.144 -6.086,-2.136 -6.101,-2.121C-6.114,-2.106 -6.119,-2.087 -6.118,-2.062C-6.108,-1.904 -6.098,-1.741 -6.255,-1.621C-6.271,-1.608 -6.275,-1.56 -6.278,-1.528L-6.279,-1.515C-6.294,-1.335 -6.207,-1.209 -6.029,-1.151C-5.979,-1.134 -5.93,-1.117 -5.881,-1.1C-5.761,-1.059 -5.636,-1.017 -5.512,-0.983C-5.054,-0.855 -4.743,-0.593 -4.563,-0.182C-4.554,-0.16 -4.541,-0.14 -4.528,-0.118C-4.511,-0.091 -4.494,-0.062 -4.484,-0.031C-4.417,0.167 -4.252,0.246 -4.126,0.278C-4.077,0.29 -4.029,0.305 -3.98,0.319C-3.843,0.358 -3.703,0.4 -3.555,0.397C-3.436,0.395 -3.314,0.395 -3.196,0.396L-3.04,0.396L-3.021,0.397C-2.984,0.397 -2.947,0.398 -2.911,0.398C-2.812,0.4 -2.71,0.401 -2.611,0.395C-2.578,0.393 -2.544,0.393 -2.513,0.393C-2.434,0.394 -2.358,0.393 -2.281,0.362C-2.171,0.318 -2.056,0.284 -1.945,0.25C-1.899,0.236 -1.854,0.223 -1.809,0.208C-1.786,0.168 -1.764,0.128 -1.743,0.087C-1.693,-0.004 -1.641,-0.099 -1.593,-0.193C-1.374,-0.621 -1.06,-0.88 -0.634,-0.986C-0.556,-1.005 -0.479,-1.035 -0.405,-1.063C-0.312,-1.098 -0.216,-1.135 -0.115,-1.154C-0.002,-1.175 0.094,-1.265 0.107,-1.363C0.11,-1.382 0.114,-1.404 0.118,-1.425C0.142,-1.55 0.167,-1.679 0,-1.745" style="fill:rgb(143,110,115);fill-rule:nonzero;"/>
            </g>
            <g transform="matrix(1,0,0,1,23.886,15.2019)">
                <path d="M0,-1.145C-0.118,-1.245 -0.189,-1.379 -0.216,-1.557C-0.23,-1.645 -0.289,-1.691 -0.358,-1.737C-0.361,-1.74 -0.378,-1.74 -0.401,-1.73C-0.422,-1.72 -0.432,-1.708 -0.433,-1.704C-0.435,-1.65 -0.437,-1.592 -0.437,-1.535L-0.438,-1.2C-0.438,-0.833 -0.439,-0.455 -0.437,-0.083C-0.435,0.073 -0.445,0.211 -0.574,0.317C-0.624,0.359 -0.624,0.427 -0.622,0.513L-0.622,0.519L-0.618,0.529C-0.612,0.546 -0.602,0.571 -0.589,0.595C-0.58,0.591 -0.567,0.586 -0.558,0.581C-0.55,0.578 -0.542,0.575 -0.536,0.572C-0.495,0.556 -0.452,0.546 -0.411,0.535C-0.344,0.518 -0.281,0.502 -0.223,0.464C-0.173,0.43 -0.146,0.402 -0.122,0.356C-0.073,0.264 -0.05,0.177 -0.052,0.083C-0.055,-0.14 -0.055,-0.368 -0.054,-0.587L-0.054,-0.803C-0.055,-0.879 -0.056,-0.959 0.01,-1.025C0.028,-1.043 0.037,-1.062 0.036,-1.082C0.035,-1.104 0.022,-1.126 0,-1.145" style="fill:rgb(120,73,76);fill-rule:nonzero;"/>
            </g>
            <g transform="matrix(1,0,0,1,21.569,6.8849)">
                <path d="M0,0.899L-0.014,0.871C-0.078,0.744 -0.145,0.613 -0.234,0.504C-0.392,0.308 -0.532,0.092 -0.649,-0.138C-0.679,-0.196 -0.707,-0.217 -0.758,-0.217C-0.832,-0.217 -0.906,-0.215 -0.981,-0.213C-1.133,-0.209 -1.291,-0.204 -1.445,-0.216C-1.459,-0.217 -1.471,-0.218 -1.484,-0.218C-1.609,-0.218 -1.698,-0.165 -1.783,-0.042C-1.832,0.031 -1.833,0.113 -1.783,0.172C-1.76,0.2 -1.733,0.228 -1.707,0.254C-1.663,0.299 -1.617,0.345 -1.584,0.399C-1.367,0.757 -1.083,1.059 -0.86,1.283C-0.822,1.321 -0.789,1.366 -0.757,1.409C-0.739,1.434 -0.721,1.459 -0.702,1.483C-0.647,1.55 -0.593,1.62 -0.542,1.688C-0.424,1.842 -0.302,2.001 -0.161,2.134C0.182,2.458 0.476,2.831 0.76,3.192C0.823,3.271 0.886,3.351 0.949,3.43C1.019,3.517 1.06,3.627 1.099,3.734C1.129,3.815 1.152,3.9 1.173,3.981C1.184,4.02 1.194,4.059 1.205,4.098C1.21,4.108 1.255,4.123 1.279,4.123C1.313,4.02 1.394,3.971 1.473,3.923C1.514,3.897 1.553,3.873 1.586,3.841C1.643,3.787 1.666,3.737 1.665,3.669C1.664,3.42 1.664,3.171 1.664,2.922C1.665,2.699 1.665,2.476 1.664,2.254C1.663,2.148 1.657,2.04 1.651,1.936C1.649,1.89 1.646,1.843 1.644,1.796C1.61,1.775 1.576,1.753 1.541,1.732C1.461,1.68 1.377,1.628 1.298,1.572C1.147,1.464 1.07,1.312 1.07,1.12C1.071,0.91 1.071,0.7 1.071,0.49C1.071,0.228 1.071,-0.034 1.073,-0.296C1.073,-0.36 1.075,-0.417 1.093,-0.469C1.097,-0.479 1.101,-0.489 1.105,-0.498C1.113,-0.517 1.123,-0.539 1.118,-0.547C1.116,-0.549 1.109,-0.556 1.076,-0.557C0.634,-0.574 0.251,-0.342 -0.133,-0.671C-0.161,-0.694 -0.189,-0.718 -0.219,-0.734C-0.283,-0.768 -0.315,-0.817 -0.316,-0.884C-0.319,-1.019 -0.318,-1.156 -0.318,-1.288L-0.318,-1.423L-0.32,-1.442L-0.32,-1.771C-0.321,-1.86 -0.321,-1.952 -0.317,-2.043C-0.314,-2.107 -0.336,-2.164 -0.36,-2.225C-0.388,-2.297 -0.416,-2.371 -0.402,-2.456C-0.392,-2.512 -0.437,-2.554 -0.476,-2.579C-0.71,-2.728 -0.94,-2.899 -1.158,-3.085C-1.208,-3.127 -1.271,-3.158 -1.332,-3.189C-1.346,-3.196 -1.36,-3.203 -1.374,-3.21C-1.394,-3.221 -1.427,-3.224 -1.433,-3.218C-1.505,-3.154 -1.574,-3.082 -1.64,-3.012C-1.643,-3.007 -1.642,-2.995 -1.639,-2.988C-1.627,-2.96 -1.615,-2.931 -1.602,-2.903C-1.51,-2.686 -1.413,-2.461 -1.198,-2.347C-1.122,-2.306 -1.057,-2.25 -0.995,-2.196C-0.918,-2.129 -0.845,-2.066 -0.752,-2.03C-0.734,-2.022 -0.721,-2.01 -0.714,-1.992C-0.702,-1.96 -0.711,-1.92 -0.724,-1.893C-0.746,-1.847 -0.796,-1.83 -0.858,-1.847C-0.912,-1.861 -0.962,-1.891 -1.012,-1.922L-1.082,-1.965C-1.224,-2.053 -1.371,-2.144 -1.511,-2.241C-1.547,-2.265 -1.559,-2.251 -1.579,-2.227C-1.583,-2.223 -1.586,-2.219 -1.589,-2.216C-1.625,-2.179 -1.643,-2.14 -1.64,-2.132C-1.629,-2.105 -1.619,-2.076 -1.608,-2.048C-1.57,-1.944 -1.53,-1.837 -1.461,-1.761C-1.345,-1.633 -1.256,-1.487 -1.169,-1.345C-1.125,-1.273 -1.08,-1.199 -1.031,-1.128C-0.992,-1.071 -0.955,-1.013 -0.917,-0.955C-0.81,-0.792 -0.7,-0.623 -0.561,-0.472C-0.442,-0.203 -0.27,0.041 -0.105,0.277C-0.04,0.369 0.026,0.464 0.089,0.56C0.154,0.658 0.2,0.761 0.245,0.861C0.262,0.899 0.279,0.936 0.297,0.974C0.322,1.027 0.325,1.071 0.303,1.111C0.291,1.133 0.28,1.156 0.268,1.18C0.217,1.283 0.163,1.39 0.051,1.458C-0.007,1.493 -0.037,1.46 -0.057,1.439C-0.062,1.434 -0.067,1.428 -0.073,1.424C-0.093,1.408 -0.121,1.371 -0.116,1.341C-0.111,1.31 -0.085,1.284 -0.06,1.262C0.053,1.164 0.073,1.042 0,0.899" style="fill:rgb(143,110,115);fill-rule:nonzero;"/>
            </g>
            <g transform="matrix(1,0,0,1,29.873,2.2159)">
                <path d="M0,0.499C0.143,0.59 0.303,0.651 0.458,0.711C0.571,0.755 0.688,0.8 0.798,0.857C0.812,0.863 0.818,0.864 0.82,0.863C0.823,0.862 0.828,0.858 0.835,0.842C0.844,0.821 0.856,0.8 0.867,0.779C0.891,0.736 0.914,0.696 0.913,0.658C0.909,0.54 0.938,0.427 0.967,0.318C0.997,0.201 1.029,0.079 1.016,-0.046C1.013,-0.08 1.021,-0.138 1.032,-0.162L1.031,-0.162C1.043,-0.192 1.053,-0.214 1.061,-0.232C1.072,-0.26 1.079,-0.275 1.082,-0.289C1.085,-0.305 1.083,-0.318 1.076,-0.328C1.065,-0.344 1.044,-0.351 1.028,-0.354C0.992,-0.36 0.958,-0.365 0.926,-0.365C0.854,-0.365 0.792,-0.344 0.735,-0.281L0.698,-0.24C0.604,-0.135 0.508,-0.027 0.389,0.04C0.278,0.103 0.19,0.192 0.106,0.277C0.065,0.318 0.024,0.36 -0.02,0.399C-0.031,0.409 -0.044,0.424 -0.042,0.444C-0.04,0.463 -0.026,0.483 0,0.499" style="fill:rgb(190,75,84);fill-rule:nonzero;"/>
            </g>
            <g transform="matrix(1,0,0,1,33.413,2.5999)">
                <path d="M0,1.412C0.015,1.364 0.029,1.319 0.037,1.272C0.05,1.198 0.065,1.125 0.08,1.052C0.093,0.988 0.106,0.924 0.117,0.861C0.127,0.808 0.146,0.756 0.164,0.706C0.194,0.622 0.222,0.544 0.212,0.46C0.201,0.367 0.23,0.284 0.258,0.204C0.282,0.135 0.304,0.07 0.304,-0.002C0.313,-0.096 0.233,-0.243 0.128,-0.283C0.085,-0.299 0.065,-0.278 0.032,-0.239C0.016,-0.22 0,-0.201 -0.022,-0.189L-0.044,-0.176C-0.097,-0.146 -0.151,-0.116 -0.197,-0.077C-0.377,0.077 -0.559,0.235 -0.734,0.388L-0.937,0.563C-0.953,0.578 -0.97,0.593 -0.986,0.608C-1.022,0.642 -1.059,0.676 -1.1,0.704C-1.245,0.802 -1.378,0.92 -1.506,1.035C-1.626,1.142 -1.751,1.254 -1.886,1.349C-1.899,1.358 -1.91,1.371 -1.92,1.384C-1.927,1.393 -1.934,1.402 -1.942,1.409C-1.961,1.429 -1.956,1.436 -1.937,1.459C-1.928,1.47 -1.917,1.482 -1.913,1.497C-1.891,1.576 -1.858,1.625 -1.761,1.625L-1.756,1.625C-1.428,1.621 -1.093,1.622 -0.77,1.622C-0.656,1.622 -0.542,1.623 -0.428,1.623L-0.394,1.623C-0.307,1.623 -0.217,1.627 -0.133,1.691C-0.113,1.707 -0.094,1.711 -0.077,1.703C-0.058,1.694 -0.047,1.672 -0.047,1.642C-0.046,1.56 -0.023,1.485 0,1.412" style="fill:rgb(158,54,35);fill-rule:nonzero;"/>
            </g>
            <g transform="matrix(1,0,0,1,31.821,8.9139)">
                <path d="M0,-0.985C0.002,-1.156 0.002,-1.33 0.001,-1.498L0.001,-1.694L-0.001,-1.713L-0.001,-1.916C0,-2.116 0,-2.323 -0.002,-2.527C-0.002,-2.563 -0.026,-2.586 -0.064,-2.588C-0.094,-2.589 -0.123,-2.589 -0.153,-2.588C-0.209,-2.587 -0.267,-2.586 -0.323,-2.596C-0.49,-2.628 -0.609,-2.562 -0.721,-2.377L-0.728,-2.366C-0.791,-2.262 -0.857,-2.154 -0.882,-2.041C-0.918,-1.874 -0.997,-1.725 -1.073,-1.581C-1.119,-1.493 -1.167,-1.402 -1.205,-1.308C-1.302,-1.065 -1.482,-0.953 -1.755,-0.964C-1.849,-0.967 -1.949,-0.966 -2.053,-0.96C-2.067,-0.958 -2.092,-0.938 -2.099,-0.92C-2.106,-0.904 -2.104,-0.876 -2.095,-0.854C-2.085,-0.833 -2.066,-0.812 -2.046,-0.8C-1.868,-0.698 -1.702,-0.589 -1.629,-0.381C-1.616,-0.342 -1.564,-0.314 -1.509,-0.314L-1.506,-0.314C-1.364,-0.316 -1.225,-0.315 -1.12,-0.312C-1.025,-0.311 -0.983,-0.265 -0.98,-0.16C-0.979,-0.115 -0.979,-0.072 -0.979,-0.028L-0.979,0.351C-0.978,0.648 -0.977,0.954 -0.982,1.256C-0.983,1.368 -0.949,1.443 -0.87,1.496C-0.835,1.521 -0.796,1.543 -0.758,1.565C-0.724,1.585 -0.689,1.605 -0.655,1.627C-0.637,1.639 -0.621,1.643 -0.611,1.639C-0.602,1.635 -0.599,1.621 -0.598,1.613C-0.591,1.534 -0.592,1.453 -0.592,1.374L-0.592,1.139C-0.591,0.726 -0.591,0.314 -0.592,-0.099C-0.592,-0.28 -0.52,-0.409 -0.371,-0.493C-0.345,-0.508 -0.321,-0.53 -0.296,-0.553C-0.267,-0.579 -0.238,-0.607 -0.202,-0.624C-0.065,-0.688 -0.003,-0.799 0,-0.985M-0.636,-1.098C-0.643,-0.955 -0.649,-0.82 -0.66,-0.684C-0.663,-0.654 -0.721,-0.633 -0.745,-0.632L-0.746,-0.632C-0.775,-0.632 -0.819,-0.648 -0.831,-0.676C-0.851,-0.722 -0.855,-0.772 -0.855,-0.806C-0.857,-1.05 -0.857,-1.301 -0.855,-1.573C-0.855,-1.626 -0.848,-1.669 -0.835,-1.704C-0.824,-1.732 -0.778,-1.75 -0.751,-1.751L-0.75,-1.751C-0.725,-1.751 -0.667,-1.732 -0.664,-1.703C-0.652,-1.565 -0.643,-1.427 -0.636,-1.294L-0.63,-1.206L-0.636,-1.098Z" style="fill:rgb(190,75,84);fill-rule:nonzero;"/>
            </g>
            <g transform="matrix(1,0,0,1,30.224,7.3009)">
                <path d="M0,-2.504C-0.082,-2.382 -0.172,-2.263 -0.259,-2.147C-0.389,-1.975 -0.523,-1.797 -0.635,-1.607C-0.67,-1.548 -0.721,-1.5 -0.771,-1.453C-0.795,-1.431 -0.82,-1.408 -0.842,-1.385C-0.883,-1.341 -0.934,-1.321 -1.01,-1.321C-1.086,-1.322 -1.162,-1.321 -1.238,-1.321L-1.509,-1.321C-1.685,-1.321 -1.862,-1.321 -2.039,-1.32C-2.077,-1.319 -2.108,-1.305 -2.126,-1.279C-2.146,-1.25 -2.148,-1.21 -2.133,-1.169C-2.128,-1.154 -2.123,-1.14 -2.118,-1.126C-2.1,-1.075 -2.081,-1.021 -2.051,-0.98C-1.892,-0.766 -1.729,-0.669 -1.526,-0.669L-1.502,-0.669C-1.257,-0.678 -1.036,-0.685 -0.813,-0.667C-0.664,-0.657 -0.583,-0.738 -0.507,-0.831C-0.488,-0.854 -0.476,-0.882 -0.462,-0.912C-0.452,-0.934 -0.442,-0.956 -0.429,-0.977C-0.325,-1.146 -0.22,-1.315 -0.115,-1.483C0.003,-1.673 0.122,-1.864 0.239,-2.054C0.27,-2.103 0.308,-2.124 0.36,-2.118C0.382,-2.115 0.405,-2.097 0.422,-2.068C0.439,-2.039 0.452,-1.991 0.437,-1.953C0.409,-1.886 0.382,-1.821 0.346,-1.761C0.167,-1.467 0.018,-1.222 -0.144,-0.972C-0.212,-0.866 -0.289,-0.764 -0.364,-0.666L-0.418,-0.594C-0.495,-0.491 -0.594,-0.446 -0.731,-0.452C-0.928,-0.461 -1.099,-0.461 -1.268,-0.452C-1.203,-0.346 -1.12,-0.279 -0.998,-0.233C-0.746,-0.135 -0.583,0.04 -0.512,0.289C-0.496,0.345 -0.469,0.367 -0.411,0.367C-0.27,0.367 -0.125,0.367 0.018,0.366C0.082,0.365 0.117,0.337 0.154,0.259C0.19,0.18 0.23,0.102 0.268,0.027C0.354,-0.143 0.443,-0.318 0.5,-0.505C0.56,-0.7 0.658,-0.981 0.819,-1.11C1.005,-1.26 1.349,-1.267 1.562,-1.266C1.753,-1.266 1.944,-1.264 2.141,-1.263C2.239,-1.261 2.331,-1.261 2.431,-1.215C2.574,-1.149 2.719,-1.161 2.86,-1.247C2.939,-1.295 2.987,-1.331 2.987,-1.419C2.986,-1.692 2.987,-1.966 2.988,-2.239L2.989,-2.321C2.989,-2.358 2.996,-2.393 3.002,-2.427C3.014,-2.492 3.026,-2.553 2.995,-2.629L2.986,-2.649C2.904,-2.84 2.896,-2.861 2.687,-2.861C2.474,-2.862 2.263,-2.861 2.052,-2.86C1.57,-2.858 1.073,-2.855 0.583,-2.871L0.554,-2.871C0.34,-2.871 0.191,-2.794 0.059,-2.614C0.047,-2.599 0.039,-2.58 0.029,-2.56C0.021,-2.541 0.012,-2.522 0,-2.504" style="fill:rgb(158,54,35);fill-rule:nonzero;"/>
            </g>
            <g transform="matrix(1,0,0,1,31.649,8.3149)">
                <path d="M0,2.931C-0.004,2.79 -0.075,2.686 -0.212,2.62L-0.203,2.603L-0.216,2.618C-0.474,2.494 -0.737,2.361 -0.985,2.203C-1.078,1.948 -1.027,1.601 -1.027,1.343C-1.027,1.343 -1.027,1.217 -1.022,1.217L-1.022,0.594C-1.023,0.533 -1.048,0.505 -1.104,0.505C-1.104,0.505 -1.171,0.503 -1.172,0.503C-1.339,0.501 -1.523,0.459 -1.688,0.486C-1.707,0.415 -1.723,0.342 -1.713,0.264C-1.709,0.234 -1.729,0.191 -1.752,0.163L-1.759,0.154C-1.79,0.116 -1.819,0.079 -1.874,0.077C-1.888,0.075 -1.899,0.08 -1.907,0.088C-1.923,0.102 -1.932,0.134 -1.934,0.182C-1.935,0.216 -1.935,0.25 -1.935,0.284C-1.935,0.322 -1.934,0.359 -1.936,0.397C-1.94,0.467 -1.986,0.511 -2.04,0.55C-2.053,0.56 -2.068,0.573 -2.088,0.569C-2.107,0.565 -2.128,0.539 -2.129,0.519C-2.131,0.45 -2.133,0.381 -2.136,0.312C-2.143,0.114 -2.15,-0.092 -2.146,-0.294C-2.142,-0.465 -2.181,-0.625 -2.224,-0.787C-2.245,-0.863 -2.286,-0.918 -2.338,-0.939C-2.586,-1.034 -2.801,-1.189 -3.008,-1.338C-3.116,-1.415 -3.229,-1.496 -3.344,-1.567C-3.409,-1.608 -3.47,-1.658 -3.515,-1.697C-3.679,-1.84 -3.765,-2.004 -3.771,-2.185C-3.773,-2.241 -3.794,-2.286 -3.817,-2.334C-3.829,-2.361 -3.842,-2.389 -3.851,-2.418C-3.891,-2.546 -3.972,-2.596 -4.127,-2.592C-4.234,-2.587 -4.343,-2.588 -4.448,-2.59L-4.558,-2.59C-4.668,-2.59 -4.745,-2.532 -4.755,-2.442C-4.762,-2.38 -4.785,-2.324 -4.807,-2.27C-4.833,-2.207 -4.857,-2.147 -4.857,-2.078C-4.858,-1.9 -4.975,-1.787 -5.1,-1.691C-5.422,-1.444 -5.775,-1.189 -6.167,-0.998C-6.328,-0.919 -6.403,-0.796 -6.404,-0.61C-6.405,-0.478 -6.404,-0.346 -6.404,-0.214C-6.404,-0.046 -6.404,0.123 -6.405,0.292C-6.406,0.342 -6.409,0.407 -6.431,0.463C-6.446,0.503 -6.49,0.551 -6.541,0.56C-6.58,0.56 -6.627,0.512 -6.645,0.486C-6.671,0.447 -6.681,0.396 -6.685,0.36C-6.689,0.319 -6.69,0.278 -6.691,0.238C-6.692,0.194 -6.693,0.148 -6.698,0.105C-6.7,0.095 -6.703,0.089 -6.713,0.086C-6.717,0.086 -6.723,0.088 -6.728,0.093L-6.747,0.107C-6.828,0.172 -6.904,0.234 -6.916,0.347C-6.922,0.397 -6.922,0.448 -6.923,0.498C-7.142,0.474 -7.598,0.4 -7.599,0.665C-7.6,0.795 -7.6,0.925 -7.6,1.055L-7.6,1.204L-7.597,1.223L-7.597,1.356C-7.598,1.64 -7.407,2.057 -7.686,2.261C-7.707,2.272 -7.727,2.286 -7.748,2.297L-7.819,2.333C-8.017,2.434 -8.222,2.539 -8.418,2.652C-8.568,2.739 -8.636,2.855 -8.631,3.017C-8.618,3.408 -8.624,3.805 -8.631,4.178C-8.636,4.438 -8.53,4.628 -8.309,4.76C-8.273,4.781 -8.239,4.807 -8.207,4.832C-8.16,4.868 -8.115,4.902 -8.065,4.923C-7.868,5.009 -7.752,5.164 -7.691,5.425C-7.683,5.461 -7.662,5.497 -7.644,5.527C-7.637,5.524 -7.628,5.522 -7.616,5.522C-7.61,5.522 -7.598,5.51 -7.586,5.499C-7.638,5.426 -7.637,5.342 -7.637,5.26C-7.636,5.186 -7.635,5.115 -7.633,5.043C-7.63,4.846 -7.627,4.642 -7.641,4.444C-7.655,4.237 -7.555,4.113 -7.455,4.019C-7.386,3.953 -7.31,3.913 -7.238,3.878C-7.041,3.785 -6.845,3.683 -6.655,3.584L-6.503,3.504C-6.304,3.401 -6.117,3.272 -5.921,3.169C-5.752,3.081 -5.646,3.034 -5.667,2.809C-5.682,2.66 -5.679,2.507 -5.675,2.36C-5.673,2.294 -5.672,2.229 -5.672,2.163C-5.672,2.076 -5.673,1.988 -5.675,1.9C-5.679,1.705 -5.683,1.502 -5.666,1.303C-5.654,1.155 -5.68,1.011 -5.706,0.87C-5.73,0.738 -5.755,0.6 -5.748,0.461C-5.744,0.384 -5.772,0.341 -5.84,0.319C-5.887,0.303 -5.925,0.268 -5.963,0.232L-5.982,0.214C-6.022,0.178 -6.022,0.124 -5.984,0.077C-5.966,0.054 -5.919,0.035 -5.889,0.045C-5.816,0.072 -5.731,0.105 -5.657,0.15C-5.569,0.204 -5.529,0.271 -5.541,0.342C-5.553,0.412 -5.529,0.474 -5.503,0.539C-5.482,0.592 -5.46,0.648 -5.46,0.709C-5.46,0.775 -5.459,0.841 -5.459,0.907C-5.458,0.984 -5.458,1.061 -5.458,1.138L-5.457,1.706L-5.457,2.556C-5.457,2.662 -5.455,2.774 -5.452,2.9C-5.452,2.904 -5.447,2.913 -5.437,2.923C-5.435,2.925 -5.43,2.928 -5.427,2.93L-5.414,2.923C-5.229,2.832 -5.037,2.737 -4.982,2.527C-4.957,2.431 -4.929,2.333 -4.901,2.238C-4.818,1.95 -4.733,1.652 -4.715,1.345L-4.715,1.318C-4.716,1.296 -4.716,1.273 -4.707,1.252C-4.697,1.231 -4.688,1.209 -4.679,1.187C-4.643,1.097 -4.606,1.005 -4.486,0.949C-4.344,0.884 -4.245,0.904 -4.113,0.964C-3.97,1.031 -3.908,1.123 -3.908,1.274C-3.908,1.408 -3.875,1.539 -3.844,1.666C-3.825,1.74 -3.806,1.816 -3.793,1.893C-3.762,2.082 -3.711,2.277 -3.647,2.456C-3.561,2.697 -3.438,2.834 -3.248,2.901C-3.22,2.91 -3.183,2.925 -3.175,2.919C-3.174,2.918 -3.169,2.91 -3.168,2.872C-3.166,2.672 -3.165,2.471 -3.165,2.271C-3.164,2.11 -3.164,1.948 -3.164,1.787L-3.164,1.627C-3.164,1.565 -3.163,1.503 -3.162,1.441C-3.16,1.305 -3.157,1.164 -3.166,1.026C-3.174,0.919 -3.148,0.817 -3.124,0.718C-3.098,0.61 -3.072,0.508 -3.085,0.399C-3.099,0.27 -3.034,0.169 -2.899,0.117C-2.874,0.107 -2.85,0.095 -2.824,0.081C-2.8,0.067 -2.774,0.053 -2.747,0.042C-2.726,0.034 -2.703,0.036 -2.681,0.038C-2.672,0.038 -2.664,0.039 -2.653,0.039C-2.594,0.039 -2.555,0.071 -2.549,0.125C-2.545,0.154 -2.557,0.197 -2.581,0.215C-2.601,0.23 -2.623,0.239 -2.645,0.248C-2.663,0.256 -2.68,0.263 -2.695,0.272C-2.83,0.362 -2.885,0.462 -2.881,0.609C-2.872,0.884 -2.874,1.164 -2.875,1.434C-2.876,1.546 -2.877,1.658 -2.877,1.77C-2.877,1.77 -2.877,1.789 -2.883,1.789C-2.882,1.895 -2.882,2.002 -2.881,2.108C-2.88,2.392 -2.879,2.685 -2.886,2.973C-2.892,3.241 -2.381,3.309 -2.198,3.403C-1.864,3.577 -1.535,3.776 -1.208,3.963C-1.124,4.011 -1.085,4.077 -1.049,4.141C-1.039,4.157 -1.03,4.174 -1.019,4.19C-0.99,4.237 -0.987,4.304 -0.987,4.363C-0.986,4.542 -0.986,4.72 -0.987,4.898C-0.987,5.092 -0.987,5.286 -0.986,5.48C-0.985,5.485 -0.967,5.498 -0.954,5.508C-0.949,5.504 -0.944,5.498 -0.942,5.495C-0.933,5.477 -0.922,5.457 -0.912,5.438C-0.888,5.396 -0.862,5.351 -0.862,5.311C-0.862,5.159 -0.781,5.041 -0.622,4.959C-0.577,4.936 -0.537,4.903 -0.498,4.872C-0.451,4.832 -0.401,4.792 -0.34,4.769C-0.235,4.73 -0.167,4.654 -0.094,4.574C-0.081,4.559 -0.068,4.545 -0.055,4.531C-0.012,4.484 0.007,4.44 0.007,4.391L0.007,3.971C0.008,3.63 0.009,3.278 0,2.931" style="fill:rgb(120,73,76);fill-rule:nonzero;"/>
            </g>
        </g>
    </g>
</svg>
