<?xml version="1.0" encoding="UTF-8" standalone="no"?>
<!DOCTYPE svg PUBLIC "-//W3C//DTD SVG 1.1//EN" "http://www.w3.org/Graphics/SVG/1.1/DTD/svg11.dtd">
<svg width="100%" height="100%" viewBox="0 0 20 20" version="1.1" xmlns="http://www.w3.org/2000/svg" xmlns:xlink="http://www.w3.org/1999/xlink" xml:space="preserve" xmlns:serif="http://www.serif.com/" style="fill-rule:evenodd;clip-rule:evenodd;stroke-linejoin:round;stroke-miterlimit:2;">
    <g transform="matrix(0.885359,0,0,0.885359,1.14641,-6.66512)">
        <g id="Tarragua">
            <g transform="matrix(1,0,0,1,4.38363,19.85)">
                <path d="M0,-8.445C-0.181,-8.454 -0.195,-8.436 -0.26,-8.264C-0.288,-8.192 -0.287,-8.121 -0.287,-8.045C-0.287,-8.005 -0.286,-7.963 -0.291,-7.922C-0.299,-7.847 -0.307,-7.771 -0.369,-7.71C-0.452,-7.629 -0.535,-7.547 -0.618,-7.465C-0.815,-7.271 -1.019,-7.07 -1.225,-6.88C-1.236,-6.87 -1.246,-6.862 -1.255,-6.853C-1.306,-6.809 -1.345,-6.774 -1.372,-6.7C-1.426,-6.55 -1.45,-6.395 -1.449,-6.194C-1.448,-5.491 -1.448,-4.787 -1.448,-4.083C-1.448,-3.124 -1.448,-2.134 -1.446,-1.159C-1.445,-0.928 -1.509,-0.746 -1.649,-0.588C-1.751,-0.473 -1.847,-0.349 -1.941,-0.229C-1.98,-0.179 -2.02,-0.128 -2.06,-0.078C-2.062,-0.075 -2.063,-0.061 -2.056,-0.039C-2.049,-0.015 -2.038,-0.001 -2.033,0.001L-1.971,0.002C-1.703,0.006 -1.426,0.009 -1.153,0.009C-1.113,0.009 -1.068,-0.004 -1.046,-0.024C-0.858,-0.189 -0.659,-0.393 -0.679,-0.715C-0.688,-0.862 -0.685,-1.01 -0.682,-1.154C-0.68,-1.229 -0.678,-1.304 -0.678,-1.379L-0.678,-2.827C-0.678,-3.552 -0.678,-4.276 -0.677,-5C-0.677,-5.029 -0.68,-5.061 -0.682,-5.091C-0.689,-5.17 -0.695,-5.251 -0.662,-5.314C-0.605,-5.424 -0.608,-5.534 -0.61,-5.65C-0.612,-5.692 -0.612,-5.737 -0.61,-5.78C-0.603,-5.917 -0.602,-6.061 -0.604,-6.221C-0.607,-6.347 -0.569,-6.438 -0.483,-6.508C-0.459,-6.528 -0.435,-6.549 -0.411,-6.571C-0.359,-6.618 -0.304,-6.667 -0.242,-6.7C-0.142,-6.754 -0.068,-6.83 0.01,-6.911C0.024,-6.925 0.037,-6.94 0.052,-6.954C0.09,-6.994 0.109,-7.041 0.109,-7.099L0.109,-7.736L0.112,-7.736L0.112,-8.335C0.111,-8.425 0.097,-8.44 0,-8.445" style="fill:rgb(81,57,61);fill-rule:nonzero;"/>
            </g>
            <g transform="matrix(1,0,0,1,14.4976,15.726)">
                <path d="M0,1.424C0.041,1.335 0.059,1.239 0.077,1.145C0.089,1.087 0.101,1.027 0.118,0.968C0.198,0.689 0.282,0.391 0.332,0.094C0.369,-0.126 0.426,-0.338 0.482,-0.537C0.496,-0.588 0.503,-0.639 0.508,-0.688C0.513,-0.722 0.517,-0.757 0.524,-0.792C0.532,-0.832 0.549,-0.868 0.566,-0.904C0.592,-0.96 0.617,-1.012 0.606,-1.074C0.595,-1.136 0.622,-1.186 0.647,-1.23C0.664,-1.262 0.681,-1.293 0.683,-1.324C0.694,-1.473 0.69,-1.627 0.686,-1.775L0.686,-1.805C0.683,-1.811 0.656,-1.829 0.636,-1.834C0.615,-1.839 0.587,-1.832 0.575,-1.822C0.518,-1.772 0.484,-1.718 0.467,-1.651C0.431,-1.507 0.386,-1.369 0.333,-1.24C0.251,-1.041 0.166,-0.824 0.099,-0.593C0.061,-0.459 0.007,-0.328 -0.046,-0.201C-0.086,-0.106 -0.127,-0.007 -0.161,0.093C-0.28,0.443 -0.414,0.789 -0.553,1.142C-0.633,1.344 -0.706,1.552 -0.777,1.753C-0.856,1.978 -0.938,2.211 -1.029,2.436C-1.127,2.677 -1.234,2.76 -1.454,2.762C-1.547,2.764 -1.639,2.763 -1.73,2.763L-1.852,2.763C-1.893,2.763 -1.934,2.764 -1.974,2.765C-2.064,2.767 -2.158,2.77 -2.251,2.76C-2.408,2.742 -2.519,2.808 -2.621,2.979C-2.626,2.989 -2.613,3.033 -2.587,3.072C-2.587,3.072 -2.578,3.083 -2.523,3.083L-2.489,3.082C-2.338,3.083 -2.183,3.08 -2.067,3.23C-2.046,3.258 -1.961,3.259 -1.92,3.26C-1.788,3.261 -1.654,3.261 -1.522,3.261L-1.43,3.261C-1.315,3.261 -1.198,3.261 -1.083,3.263L-1.073,3.263C-0.964,3.263 -0.885,3.229 -0.825,3.157C-0.807,3.136 -0.789,3.116 -0.77,3.095C-0.722,3.04 -0.672,2.984 -0.637,2.921C-0.599,2.851 -0.556,2.782 -0.516,2.716C-0.475,2.649 -0.432,2.58 -0.394,2.511C-0.32,2.375 -0.259,2.229 -0.2,2.088C-0.155,1.981 -0.109,1.87 -0.057,1.765C-0.03,1.708 -0.029,1.648 -0.027,1.59C-0.025,1.534 -0.024,1.476 0,1.424" style="fill:rgb(188,189,202);fill-rule:nonzero;"/>
            </g>
            <g transform="matrix(1,0,0,1,5.91163,14.688)">
                <path d="M0,3.503C0.021,3.541 0.043,3.579 0.065,3.616C0.114,3.703 0.166,3.792 0.212,3.881C0.222,3.901 0.233,3.922 0.243,3.943C0.27,3.999 0.299,4.057 0.335,4.107C0.411,4.211 0.511,4.314 0.684,4.302C0.776,4.295 0.87,4.297 0.96,4.298C0.995,4.299 1.03,4.3 1.064,4.3L1.083,4.299C1.146,4.299 1.209,4.297 1.274,4.297C1.313,4.297 1.353,4.298 1.392,4.3C1.534,4.308 1.67,4.306 1.769,4.174C1.806,4.125 1.863,4.121 1.916,4.121C1.921,4.121 1.926,4.121 1.932,4.122L1.968,4.122C2.046,4.122 2.128,4.12 2.21,4.117C2.242,4.115 2.252,4.11 2.254,4.107C2.261,4.096 2.248,4.054 2.24,4.029C2.188,3.867 2.094,3.797 1.928,3.797L1.901,3.797C1.727,3.805 1.551,3.804 1.382,3.802C1.263,3.801 1.139,3.8 1.019,3.802L1.01,3.802C0.851,3.802 0.751,3.735 0.696,3.591C0.686,3.566 0.674,3.543 0.662,3.518C0.641,3.479 0.62,3.439 0.61,3.39C0.577,3.24 0.518,3.095 0.46,2.954C0.443,2.912 0.425,2.869 0.409,2.826C0.303,2.554 0.196,2.262 0.084,1.935C0.009,1.72 -0.072,1.504 -0.151,1.296C-0.232,1.082 -0.315,0.86 -0.391,0.64C-0.462,0.432 -0.549,0.188 -0.643,-0.046C-0.658,-0.084 -0.673,-0.121 -0.689,-0.159C-0.765,-0.345 -0.843,-0.538 -0.897,-0.737C-0.915,-0.802 -0.971,-0.811 -1.01,-0.806C-1.079,-0.799 -1.108,-0.773 -1.108,-0.721C-1.108,-0.693 -1.111,-0.663 -1.115,-0.634C-1.121,-0.574 -1.127,-0.511 -1.104,-0.469C-1.069,-0.404 -1.062,-0.333 -1.054,-0.265C-1.047,-0.202 -1.04,-0.142 -1.012,-0.096C-0.965,-0.023 -0.957,0.055 -0.951,0.129C-0.944,0.199 -0.939,0.265 -0.901,0.322C-0.859,0.388 -0.859,0.463 -0.86,0.535C-0.861,0.598 -0.862,0.658 -0.832,0.702C-0.778,0.783 -0.767,0.871 -0.757,0.956C-0.748,1.029 -0.74,1.098 -0.705,1.164C-0.642,1.284 -0.617,1.444 -0.602,1.585C-0.595,1.651 -0.572,1.714 -0.55,1.775C-0.519,1.863 -0.486,1.953 -0.498,2.054C-0.507,2.13 -0.48,2.198 -0.451,2.27C-0.42,2.346 -0.388,2.426 -0.402,2.515C-0.306,2.823 -0.183,3.181 0,3.503" style="fill:rgb(188,189,202);fill-rule:nonzero;"/>
            </g>
            <g transform="matrix(1,0,0,1,8.83963,19.611)">
                <path d="M0,-0.513C-0.144,-0.511 -0.288,-0.512 -0.432,-0.512L-0.566,-0.512C-0.656,-0.512 -0.745,-0.512 -0.834,-0.511C-0.881,-0.511 -0.93,-0.503 -0.977,-0.494L-1.002,-0.49C-1.005,-0.489 -1.011,-0.483 -1.012,-0.48C-1.012,-0.48 -1.004,-0.472 -1,-0.466C-0.998,-0.464 -0.995,-0.461 -0.993,-0.458C-0.926,-0.372 -0.826,-0.338 -0.728,-0.306C-0.706,-0.298 -0.685,-0.291 -0.664,-0.283C-0.404,-0.189 -0.138,-0.099 0.119,-0.012L0.308,0.053C0.458,0.104 0.531,0.072 0.601,-0.07C0.625,-0.121 0.647,-0.175 0.667,-0.228C0.677,-0.251 0.686,-0.274 0.695,-0.296C0.69,-0.311 0.686,-0.326 0.682,-0.34C0.675,-0.369 0.668,-0.395 0.654,-0.407C0.637,-0.421 0.62,-0.436 0.603,-0.451C0.504,-0.536 0.41,-0.617 0.266,-0.543C0.196,-0.506 0.124,-0.509 0.058,-0.511C0.039,-0.512 0.019,-0.513 0,-0.513" style="fill:rgb(81,57,61);fill-rule:nonzero;"/>
            </g>
            <g transform="matrix(1,0,0,1,4.44163,11.935)">
                <path d="M0,10.192C-0.019,10.13 -0.037,10.068 -0.054,10.006C-0.07,9.947 -0.083,9.885 -0.095,9.825C-0.138,9.623 -0.182,9.414 -0.357,9.269C-0.371,9.258 -0.377,9.231 -0.377,9.22L-0.377,9.21L-0.357,9.196C-0.336,9.182 -0.312,9.166 -0.286,9.161C-0.191,9.147 -0.113,9.178 -0.072,9.246C-0.061,9.265 -0.048,9.284 -0.035,9.303C0.02,9.387 0.076,9.474 0.076,9.563C0.077,9.65 0.104,9.726 0.133,9.807C0.158,9.876 0.184,9.947 0.191,10.026C0.206,10.195 0.281,10.364 0.353,10.507C0.376,10.552 0.393,10.573 0.43,10.574L0.485,10.575C0.568,10.578 0.654,10.58 0.737,10.577C0.774,10.575 0.822,10.566 0.844,10.544L0.867,10.521C0.994,10.398 1.114,10.282 1.151,10.093L1.153,10.083C1.172,9.985 1.19,9.893 1.191,9.797C1.196,9.195 1.198,8.66 1.197,8.162C1.197,8.066 1.21,7.956 1.306,7.869C1.373,7.808 1.381,7.731 1.384,7.643C1.387,7.556 1.363,7.472 1.341,7.391C1.325,7.337 1.309,7.28 1.302,7.223C1.284,7.089 1.25,6.956 1.217,6.828C1.191,6.724 1.163,6.615 1.145,6.507C1.12,6.364 1.082,6.221 1.044,6.084C0.996,5.907 0.947,5.724 0.925,5.536C0.903,5.334 0.867,5.15 0.818,4.989C0.729,4.691 0.663,4.383 0.599,4.085C0.541,3.816 0.482,3.538 0.406,3.269C0.399,3.247 0.393,3.225 0.386,3.202C0.36,3.115 0.333,3.024 0.322,2.932C0.319,2.91 0.317,2.888 0.314,2.866C0.304,2.758 0.293,2.655 0.234,2.563L0.231,2.557L0.232,2.55C0.244,2.461 0.215,2.38 0.185,2.296C0.156,2.216 0.126,2.133 0.133,2.041C0.148,1.819 0.296,1.662 0.501,1.651C0.511,1.651 0.52,1.65 0.529,1.65C0.672,1.65 0.754,1.711 0.786,1.84C0.849,2.091 0.944,2.335 1.036,2.572C1.118,2.783 1.204,3.003 1.266,3.226C1.326,3.444 1.382,3.606 1.448,3.753C1.545,3.969 1.627,4.195 1.7,4.446C1.738,4.576 1.791,4.704 1.843,4.827C1.889,4.939 1.938,5.054 1.975,5.172C2.032,5.354 2.101,5.535 2.168,5.712C2.211,5.827 2.256,5.946 2.298,6.064C2.353,6.222 2.432,6.307 2.539,6.324C2.658,6.345 2.784,6.337 2.907,6.33C2.945,6.328 2.982,6.326 3.02,6.324C3.028,6.322 3.05,6.295 3.054,6.277L3.056,6.263C3.065,6.211 3.075,6.163 3.038,6.126C2.952,6.037 2.863,5.952 2.787,5.88C2.727,5.824 2.7,5.757 2.701,5.671C2.702,5.54 2.701,5.41 2.7,5.28C2.698,5.089 2.696,4.892 2.701,4.698C2.706,4.49 2.647,4.325 2.518,4.195C2.421,4.098 2.347,3.986 2.297,3.863C2.244,3.735 2.155,3.632 2.022,3.548C1.732,3.364 1.723,3.322 1.725,3.153C1.725,3.113 1.725,3.067 1.721,3.008C1.707,2.819 1.723,2.605 1.943,2.45C2.003,2.409 2.054,2.35 2.096,2.299C2.307,2.043 2.523,1.946 2.796,1.987C2.849,1.996 2.896,1.973 2.931,1.93C2.974,1.876 2.985,1.799 2.959,1.735C2.946,1.7 2.933,1.664 2.92,1.629C2.905,1.583 2.888,1.536 2.869,1.492C2.839,1.422 2.789,1.366 2.737,1.305C2.674,1.234 2.609,1.16 2.576,1.06C2.561,1.013 2.508,0.974 2.456,0.936C2.434,0.92 2.412,0.904 2.393,0.888C2.04,0.583 1.852,0.342 1.649,-0.067C1.641,-0.084 1.632,-0.1 1.622,-0.116C1.602,-0.151 1.58,-0.188 1.572,-0.228C1.54,-0.39 1.408,-0.442 1.281,-0.493C1.265,-0.499 1.25,-0.505 1.235,-0.511C1.196,-0.527 1.153,-0.531 1.106,-0.535C1.039,-0.54 0.971,-0.545 0.911,-0.588C0.846,-0.527 0.768,-0.525 0.692,-0.522C0.639,-0.52 0.588,-0.517 0.543,-0.496C0.516,-0.483 0.491,-0.473 0.469,-0.462C0.309,-0.391 0.261,-0.369 0.272,-0.14C0.275,-0.092 0.274,-0.044 0.272,0.004C0.271,0.058 0.269,0.114 0.274,0.168C0.28,0.239 0.276,0.31 0.272,0.38C0.265,0.511 0.258,0.634 0.311,0.755C0.365,0.757 0.42,0.76 0.475,0.763C0.604,0.77 0.739,0.777 0.867,0.77C0.878,0.769 0.889,0.769 0.899,0.769C1.072,0.769 1.212,0.84 1.328,0.911C1.35,0.925 1.37,0.944 1.389,0.963C1.413,0.986 1.436,1.008 1.461,1.016C1.577,1.052 1.61,1.142 1.641,1.228C1.649,1.251 1.658,1.274 1.668,1.296C1.681,1.324 1.656,1.375 1.633,1.393C1.61,1.412 1.554,1.427 1.53,1.407C1.466,1.356 1.393,1.296 1.333,1.225C1.221,1.093 1.091,1.041 0.921,1.061C0.87,1.067 0.818,1.065 0.766,1.064C0.698,1.062 0.629,1.062 0.56,1.059C0.461,1.054 0.357,1.05 0.26,1.067C0.173,1.082 0.118,1.148 0.059,1.217C0.022,1.26 -0.016,1.305 -0.063,1.338C-0.067,1.341 -0.07,1.345 -0.073,1.349C-0.081,1.356 -0.089,1.365 -0.101,1.369C-0.444,1.496 -0.47,1.777 -0.447,2.062C-0.442,2.113 -0.444,2.165 -0.445,2.215C-0.445,2.238 -0.446,2.261 -0.446,2.284L-0.445,3.273C-0.445,4.325 -0.444,5.413 -0.447,6.483C-0.447,6.539 -0.445,6.594 -0.443,6.65C-0.437,6.854 -0.429,7.065 -0.522,7.264C-0.503,7.488 -0.577,7.687 -0.748,7.87C-0.754,7.876 -0.757,7.891 -0.756,7.915C-0.751,7.918 -0.743,7.921 -0.738,7.921C-0.694,7.922 -0.648,7.921 -0.602,7.921C-0.516,7.92 -0.426,7.918 -0.339,7.929C-0.319,7.932 -0.301,7.933 -0.283,7.933C-0.146,7.933 -0.042,7.863 0.037,7.719C0.094,7.615 0.146,7.5 0.142,7.359C0.131,7.005 0.134,6.646 0.137,6.298L0.139,6.033C0.139,5.978 0.15,5.92 0.168,5.859C0.178,5.829 0.235,5.814 0.262,5.818C0.293,5.822 0.319,5.845 0.342,5.866C0.355,5.878 0.355,5.899 0.355,5.916L0.355,6.25C0.356,6.685 0.357,7.122 0.357,7.558C0.357,7.662 0.333,7.744 0.282,7.817C0.267,7.837 0.262,7.859 0.267,7.877C0.273,7.898 0.291,7.915 0.318,7.926C0.638,8.063 0.75,8.348 0.844,8.654C0.854,8.687 0.854,8.711 0.843,8.728C0.828,8.751 0.8,8.755 0.78,8.758L0.773,8.76C0.704,8.771 0.657,8.764 0.627,8.739C0.604,8.719 0.592,8.689 0.59,8.649C0.587,8.54 0.528,8.466 0.464,8.387C0.437,8.353 0.409,8.317 0.386,8.279C0.336,8.196 0.215,8.146 0.059,8.146L0.056,8.146C-0.651,8.151 -1.369,8.151 -2.065,8.15C-2.301,8.15 -2.537,8.149 -2.772,8.149L-2.791,8.149L-2.791,8.142C-3.713,8.142 -4.635,8.142 -5.556,8.143L-5.573,8.143C-5.611,8.143 -5.648,8.142 -5.684,8.15C-5.704,8.154 -5.728,8.173 -5.733,8.187C-5.74,8.205 -5.736,8.237 -5.725,8.25C-5.709,8.27 -5.693,8.29 -5.677,8.311C-5.63,8.373 -5.582,8.436 -5.522,8.467C-5.417,8.521 -5.33,8.595 -5.245,8.667C-5.188,8.716 -5.128,8.766 -5.065,8.809C-4.816,8.975 -4.567,9.148 -4.326,9.316C-4.201,9.402 -4.076,9.489 -3.951,9.574C-3.745,9.716 -3.537,9.862 -3.336,10.004C-3.012,10.231 -2.676,10.467 -2.34,10.688C-2.259,10.742 -2.191,10.761 -2.109,10.757L-2.09,10.757C-2.063,10.757 -2.035,10.76 -2.007,10.763C-1.935,10.771 -1.867,10.78 -1.83,10.73C-1.788,10.674 -1.818,10.641 -1.874,10.587C-1.903,10.561 -1.932,10.533 -1.945,10.5C-1.964,10.453 -1.984,10.407 -2.005,10.36C-2.031,10.302 -2.058,10.242 -2.081,10.182C-2.118,10.086 -2.148,9.986 -2.177,9.89C-2.218,9.756 -2.26,9.619 -2.32,9.488C-2.386,9.344 -2.46,9.293 -2.595,9.297C-2.742,9.301 -2.893,9.289 -3.038,9.279L-3.077,9.276C-3.097,9.275 -3.113,9.265 -3.123,9.249C-3.135,9.23 -3.136,9.204 -3.126,9.179L-3.121,9.166C-3.107,9.13 -3.095,9.099 -3.071,9.098L-2.974,9.094C-2.789,9.085 -2.597,9.076 -2.411,9.084C-2.325,9.088 -2.236,9.137 -2.138,9.234L-2.132,9.239L-2.132,9.247C-2.131,9.356 -2.085,9.447 -2.036,9.544C-1.993,9.63 -1.949,9.718 -1.936,9.819C-1.919,9.96 -1.868,10.113 -1.773,10.3C-1.619,10.609 -1.388,10.76 -1.066,10.76L-0.955,10.76C-0.833,10.76 -0.704,10.76 -0.58,10.755C-0.544,10.753 -0.494,10.727 -0.492,10.714C-0.461,10.58 -0.36,10.58 -0.27,10.58C-0.172,10.58 -0.067,10.579 0.039,10.577C0.053,10.577 0.091,10.576 0.095,10.57C0.099,10.565 0.092,10.533 0.086,10.505C0.061,10.399 0.03,10.294 0,10.192" style="fill:rgb(108,101,124);fill-rule:nonzero;"/>
            </g>
            <g transform="matrix(1,0,0,1,8.69963,24.265)">
                <path d="M0,-1.594C-0.021,-1.66 -0.043,-1.727 -0.045,-1.799C-0.05,-1.96 -0.09,-2.094 -0.171,-2.218C-0.343,-2.062 -0.47,-1.867 -0.592,-1.679C-0.62,-1.634 -0.649,-1.591 -0.678,-1.548C-0.716,-1.491 -0.72,-1.451 -0.693,-1.407C-0.632,-1.31 -0.63,-1.2 -0.63,-1.093C-0.629,-0.98 -0.628,-0.872 -0.56,-0.778C-0.54,-0.751 -0.543,-0.714 -0.546,-0.678C-0.547,-0.664 -0.548,-0.65 -0.548,-0.637C-0.54,-0.449 -0.526,-0.247 -0.472,-0.042C-0.434,0.102 -0.436,0.258 -0.439,0.408C-0.439,0.476 -0.44,0.546 -0.437,0.614C-0.437,0.616 -0.433,0.62 -0.43,0.624C-0.409,0.58 -0.388,0.537 -0.368,0.494C-0.309,0.373 -0.254,0.259 -0.204,0.14C-0.056,-0.21 0.066,-0.528 0.033,-0.893C0.02,-1.044 0.023,-1.193 0.042,-1.337C0.054,-1.428 0.026,-1.512 0,-1.594" style="fill:rgb(108,101,124);fill-rule:nonzero;"/>
            </g>
            <g transform="matrix(1,0,0,1,7.83463,23.893)">
                <path d="M0,-0.775C-0.004,-0.781 -0.009,-0.788 -0.012,-0.797C-0.023,-0.831 -0.048,-0.856 -0.078,-0.863C-0.083,-0.864 -0.088,-0.865 -0.092,-0.865C-0.109,-0.865 -0.123,-0.859 -0.135,-0.846C-0.145,-0.836 -0.155,-0.825 -0.165,-0.815C-0.334,-0.63 -0.485,-0.425 -0.313,-0.145C-0.293,-0.111 -0.293,-0.069 -0.294,-0.028C-0.294,-0.007 -0.295,0.016 -0.292,0.035C-0.29,0.051 -0.282,0.067 -0.275,0.084C-0.274,0.086 -0.274,0.088 -0.273,0.09C-0.267,0.087 -0.261,0.084 -0.255,0.082C-0.231,0.071 -0.206,0.06 -0.198,0.045C-0.091,-0.158 -0.022,-0.375 0.008,-0.51L0.008,-0.623C0.008,-0.686 0.008,-0.725 0.007,-0.763C0.007,-0.766 0.003,-0.771 0,-0.775" style="fill:rgb(96,85,96);fill-rule:nonzero;"/>
            </g>
            <g transform="matrix(1,0,0,1,8.32863,22.114)">
                <path d="M0,-0.278C0.091,-0.376 0.175,-0.485 0.256,-0.589C0.37,-0.735 0.486,-0.886 0.627,-1.014C0.657,-1.041 0.683,-1.085 0.637,-1.142C0.505,-1.305 0.43,-1.45 0.396,-1.61C0.381,-1.683 0.336,-1.754 0.292,-1.821C0.273,-1.851 0.254,-1.88 0.237,-1.91C0.235,-1.915 0.229,-1.919 0.222,-1.924C0.22,-1.925 0.218,-1.927 0.217,-1.928L0.203,-1.924C0.189,-1.919 0.174,-1.914 0.168,-1.906L0.145,-1.88C0.096,-1.824 0.046,-1.765 0.008,-1.702C-0.069,-1.577 -0.144,-1.448 -0.217,-1.324C-0.331,-1.129 -0.449,-0.927 -0.573,-0.733C-0.945,-0.151 -1.293,0.441 -1.583,0.943C-1.691,1.129 -1.836,1.217 -2.054,1.228C-2.201,1.236 -2.349,1.237 -2.493,1.238C-2.582,1.238 -2.672,1.239 -2.762,1.241C-2.771,1.241 -2.786,1.252 -2.798,1.262C-2.799,1.262 -2.799,1.263 -2.8,1.264C-2.797,1.267 -2.793,1.269 -2.79,1.27C-2.656,1.312 -2.522,1.354 -2.388,1.396C-2.193,1.457 -1.998,1.518 -1.803,1.581C-1.59,1.65 -1.488,1.618 -1.348,1.443C-1.272,1.347 -1.197,1.251 -1.122,1.154C-0.949,0.931 -0.771,0.701 -0.58,0.487C-0.467,0.361 -0.366,0.225 -0.267,0.093C-0.22,0.029 -0.172,-0.035 -0.123,-0.098C-0.105,-0.122 -0.089,-0.148 -0.074,-0.174C-0.052,-0.209 -0.029,-0.247 0,-0.278" style="fill:rgb(81,57,61);fill-rule:nonzero;"/>
            </g>
            <g transform="matrix(1,0,0,1,6.19163,19.973)">
                <path d="M0,3.152C0.167,3.151 0.274,3.089 0.371,2.939C0.459,2.801 0.547,2.659 0.632,2.523C0.735,2.357 0.842,2.187 0.95,2.021C1.213,1.616 1.468,1.194 1.713,0.786C1.769,0.693 1.824,0.6 1.881,0.508C1.951,0.39 2.012,0.264 2.071,0.141L2.097,0.087C2.1,0.077 2.089,0.045 2.081,0.041C1.973,-0.01 1.854,0.006 1.751,0.029C1.676,0.045 1.634,0.124 1.599,0.207C1.573,0.27 1.53,0.326 1.488,0.379C1.467,0.406 1.446,0.433 1.427,0.461C0.961,1.153 0.544,1.779 0.172,2.436C0.143,2.486 0.103,2.53 0.064,2.572C0.043,2.594 0.021,2.617 0.002,2.641C-0.066,2.726 -0.152,2.763 -0.277,2.763L-0.283,2.763C-0.476,2.762 -0.67,2.761 -0.864,2.761C-1.172,2.761 -1.48,2.763 -1.781,2.764C-1.837,2.764 -1.895,2.771 -1.951,2.777L-1.994,2.783C-1.997,2.784 -2.006,2.798 -2.01,2.821C-2.015,2.844 -2.012,2.861 -2.009,2.865L-1.994,2.883C-1.98,2.899 -1.967,2.915 -1.953,2.928C-1.878,2.992 -1.788,3.019 -1.692,3.048C-1.621,3.068 -1.547,3.09 -1.481,3.129C-1.424,3.162 -1.367,3.159 -1.303,3.155C-1.28,3.153 -1.258,3.151 -1.234,3.152C-1.096,3.153 -0.956,3.153 -0.82,3.153L-0.481,3.153C-0.32,3.153 -0.161,3.153 0,3.152" style="fill:rgb(188,189,202);fill-rule:nonzero;"/>
            </g>
            <g transform="matrix(1,0,0,1,5.69163,20.006)">
                <path d="M0,2.507C0.006,2.509 0.014,2.508 0.029,2.508C0.039,2.507 0.052,2.507 0.069,2.507L0.073,2.508C0.2,2.542 0.321,2.485 0.444,2.334C0.486,2.283 0.527,2.226 0.571,2.16C0.884,1.675 1.197,1.189 1.51,0.703L1.795,0.26C1.807,0.24 1.809,0.218 1.799,0.199C1.788,0.179 1.765,0.167 1.739,0.167L1.594,0.165C1.324,0.164 1.045,0.161 0.768,0.164L0.744,0.164C0.607,0.164 0.488,0.148 0.402,0.024C0.393,0.01 0.372,0.001 0.353,-0.009C0.347,-0.011 0.341,-0.015 0.335,-0.018C0.303,-0.035 0.261,-0.031 0.226,-0.01C0.193,0.009 0.174,0.041 0.173,0.074C0.172,0.221 0.171,0.368 0.169,0.515C0.165,0.949 0.161,1.398 0.166,1.838C0.168,2.105 0.102,2.293 -0.05,2.45C-0.056,2.456 -0.059,2.469 -0.062,2.483C-0.062,2.485 -0.062,2.487 -0.063,2.489C-0.059,2.49 -0.056,2.491 -0.053,2.492C-0.035,2.498 -0.018,2.503 0,2.507" style="fill:rgb(108,101,124);fill-rule:nonzero;"/>
            </g>
            <g transform="matrix(1,0,0,1,10.7156,19.048)">
                <path d="M0,0.636L0.025,0.636C0.039,0.636 0.052,0.636 0.066,0.637C0.106,0.638 0.144,0.639 0.175,0.628C0.314,0.574 0.456,0.523 0.594,0.473C0.829,0.389 1.071,0.302 1.303,0.198C1.341,0.182 1.377,0.16 1.409,0.134C1.422,0.124 1.432,0.109 1.442,0.092C1.444,0.09 1.446,0.086 1.447,0.083C1.445,0.082 1.442,0.08 1.44,0.078C1.429,0.068 1.415,0.056 1.407,0.056C1.127,0.052 0.847,0.053 0.569,0.051C0.535,0.05 0.5,0.053 0.466,0.055C0.377,0.061 0.287,0.066 0.213,0.032C0.139,-0.003 0.09,0.015 0.033,0.035C0.019,0.04 0.005,0.045 -0.01,0.049C-0.166,0.095 -0.173,0.105 -0.175,0.253L-0.177,0.261C-0.213,0.332 -0.176,0.397 -0.133,0.473C-0.113,0.51 -0.091,0.547 -0.077,0.586C-0.067,0.618 -0.038,0.636 0,0.636" style="fill:rgb(81,57,61);fill-rule:nonzero;"/>
            </g>
            <g transform="matrix(1,0,0,1,14.1376,22.063)">
                <path d="M0,-1.634C-0.002,-1.733 -0.004,-1.831 -0.004,-1.93C-0.004,-1.972 -0.012,-2.014 -0.026,-2.047C-0.031,-2.058 -0.058,-2.071 -0.081,-2.075C-0.154,-2.086 -0.215,-2.063 -0.259,-2.008C-0.336,-1.909 -0.439,-1.892 -0.532,-1.892C-0.537,-1.892 -0.542,-1.893 -0.547,-1.893C-0.85,-1.897 -1.162,-1.895 -1.43,-1.893C-1.441,-1.894 -1.459,-1.893 -1.474,-1.894C-1.528,-1.898 -1.579,-1.898 -1.632,-1.865C-1.592,-1.803 -1.55,-1.742 -1.508,-1.681C-1.409,-1.535 -1.307,-1.385 -1.218,-1.229C-1.023,-0.888 -0.8,-0.558 -0.584,-0.238C-0.481,-0.085 -0.374,0.073 -0.271,0.23C-0.171,0.384 -0.044,0.452 0.149,0.452C0.162,0.452 0.175,0.451 0.189,0.451C0.213,0.45 0.229,0.444 0.234,0.435C0.239,0.428 0.234,0.414 0.23,0.407C0.215,0.375 0.195,0.342 0.176,0.311C0.132,0.238 0.087,0.163 0.087,0.086C0.086,-0.058 0.061,-0.202 0.038,-0.341C0.008,-0.512 -0.022,-0.689 -0.008,-0.871C0.009,-1.124 0.005,-1.383 0,-1.634" style="fill:rgb(108,101,124);fill-rule:nonzero;"/>
            </g>
            <g transform="matrix(1,0,0,1,13.3716,18.472)">
                <path d="M0,-4.063C-0.027,-4.08 -0.049,-4.105 -0.068,-4.13C-0.171,-4.266 -0.298,-4.325 -0.491,-4.325L-0.506,-4.325C-1.2,-4.314 -1.906,-4.317 -2.589,-4.32L-2.936,-4.322C-2.963,-4.321 -2.99,-4.32 -3.017,-4.318C-3.122,-4.313 -3.232,-4.308 -3.33,-4.386C-3.358,-4.408 -3.397,-4.406 -3.427,-4.381C-3.513,-4.308 -3.61,-4.313 -3.705,-4.318C-3.729,-4.32 -3.752,-4.321 -3.778,-4.321C-4.47,-4.318 -5.162,-4.321 -5.854,-4.319C-5.983,-4.318 -6.115,-4.315 -6.243,-4.313C-6.301,-4.312 -6.359,-4.31 -6.418,-4.309L-6.826,-3.918C-6.833,-3.91 -6.841,-3.903 -6.848,-3.895C-6.861,-3.881 -6.874,-3.866 -6.89,-3.855C-6.971,-3.791 -6.987,-3.705 -6.987,-3.596C-6.986,-3.302 -6.946,-3.24 -6.706,-3.15C-6.661,-3.132 -6.575,-3.106 -6.505,-3.122C-6.364,-3.152 -6.237,-3.113 -6.113,-3.075C-6.03,-3.049 -5.944,-3.023 -5.858,-3.019C-5.799,-3.017 -5.741,-2.967 -5.698,-2.93L-5.677,-2.911C-5.615,-2.858 -5.552,-2.804 -5.511,-2.735C-5.42,-2.584 -5.3,-2.453 -5.184,-2.326C-5.145,-2.283 -5.106,-2.241 -5.068,-2.197C-5.057,-2.184 -5.046,-2.164 -5.047,-2.145L-5.048,-2.133C-5.05,-2.106 -5.053,-2.074 -5.071,-2.054C-5.089,-2.033 -5.12,-2.028 -5.147,-2.024L-5.158,-2.022C-5.177,-2.017 -5.201,-2.025 -5.214,-2.038L-5.268,-2.089C-5.419,-2.231 -5.574,-2.379 -5.692,-2.558C-5.698,-2.568 -5.704,-2.578 -5.711,-2.587C-5.744,-2.64 -5.778,-2.694 -5.822,-2.714C-5.984,-2.789 -6.157,-2.843 -6.306,-2.888C-6.323,-2.895 -6.37,-2.856 -6.398,-2.834C-6.424,-2.814 -6.433,-2.794 -6.405,-2.754C-6.343,-2.664 -6.284,-2.572 -6.225,-2.482C-6.182,-2.416 -6.139,-2.348 -6.094,-2.283C-6.046,-2.209 -5.993,-2.146 -5.903,-2.157C-5.888,-2.158 -5.874,-2.159 -5.86,-2.159C-5.716,-2.159 -5.625,-2.066 -5.553,-1.972C-5.495,-1.896 -5.451,-1.807 -5.408,-1.722L-5.401,-1.708C-5.387,-1.679 -5.407,-1.629 -5.428,-1.609C-5.452,-1.587 -5.495,-1.58 -5.522,-1.584C-5.549,-1.588 -5.573,-1.606 -5.594,-1.622L-5.604,-1.63C-5.651,-1.664 -5.689,-1.711 -5.724,-1.755C-5.789,-1.834 -5.849,-1.908 -5.959,-1.921C-5.969,-1.923 -5.973,-1.92 -5.975,-1.918C-6.003,-1.893 -6.005,-1.715 -6.006,-1.448C-6.006,-1.4 -6.005,-1.352 -6.005,-1.304C-6.003,-1.192 -6.002,-1.076 -6.008,-0.961C-6.013,-0.869 -5.974,-0.798 -5.901,-0.761C-5.757,-0.689 -5.673,-0.602 -5.628,-0.477C-5.594,-0.383 -5.408,-0.225 -5.317,-0.197C-5.188,-0.156 -5.108,-0.055 -5.048,0.039C-5.017,0.087 -4.998,0.142 -4.98,0.196C-4.97,0.225 -4.96,0.255 -4.949,0.283C-4.93,0.328 -4.895,0.345 -4.823,0.335C-4.758,0.328 -4.731,0.301 -4.732,0.246L-4.732,0.094C-4.733,-0.073 -4.734,-0.247 -4.729,-0.418C-4.725,-0.519 -4.755,-0.601 -4.825,-0.683C-4.91,-0.785 -4.986,-0.896 -5.056,-1.002C-5.071,-1.024 -5.077,-1.052 -5.071,-1.079C-5.066,-1.105 -5.05,-1.128 -5.028,-1.143C-5.005,-1.157 -4.951,-1.177 -4.925,-1.158C-4.707,-0.997 -4.487,-0.782 -4.505,-0.414C-4.514,-0.253 -4.511,-0.088 -4.508,0.072C-4.507,0.13 -4.506,0.188 -4.505,0.247C-4.505,0.277 -4.496,0.299 -4.479,0.315C-4.457,0.334 -4.422,0.341 -4.377,0.335C-4.31,0.326 -4.281,0.299 -4.281,0.247C-4.279,-0.052 -4.278,-0.349 -4.277,-0.648L-4.276,-0.946C-4.276,-0.968 -4.278,-0.99 -4.279,-1.012C-4.283,-1.067 -4.287,-1.123 -4.267,-1.172C-4.26,-1.192 -4.252,-1.213 -4.246,-1.235C-4.219,-1.318 -4.191,-1.41 -4.093,-1.425C-4.087,-1.425 -4.081,-1.429 -4.075,-1.43C-4.067,-1.43 -4.059,-1.433 -4.051,-1.429C-4.027,-1.416 -4.022,-1.385 -4.02,-1.357C-4.007,-1.218 -3.997,-1.08 -3.989,-0.941C-3.987,-0.899 -3.984,-0.857 -3.982,-0.815C-3.976,-0.719 -3.903,-0.677 -3.832,-0.648C-3.732,-0.607 -3.677,-0.92 -3.667,-0.971C-3.636,-1.123 -3.591,-1.273 -3.53,-1.416C-3.497,-1.496 -3.446,-1.587 -3.461,-1.676C-3.473,-1.742 -3.481,-1.799 -3.481,-1.867C-3.48,-2.015 -3.48,-2.163 -3.48,-2.312C-3.48,-2.469 -3.502,-2.644 -3.464,-2.798C-3.456,-2.831 -3.444,-2.865 -3.417,-2.885C-3.389,-2.906 -3.351,-2.908 -3.316,-2.908C-3.294,-2.909 -3.27,-2.908 -3.252,-2.895C-3.231,-2.879 -3.224,-2.851 -3.221,-2.825C-3.211,-2.743 -3.219,-2.667 -3.221,-2.587C-3.223,-2.496 -3.202,-2.399 -3.194,-2.309C-3.171,-2.067 -3.219,-1.825 -3.182,-1.582C-3.168,-1.494 -3.146,-1.407 -3.124,-1.32C-3.087,-1.172 -3.049,-1.024 -3.012,-0.876C-2.991,-0.79 -3.014,-0.602 -2.865,-0.644C-2.756,-0.675 -2.699,-0.74 -2.695,-0.839C-2.693,-0.896 -2.69,-0.955 -2.685,-1.013C-2.675,-1.1 -2.658,-1.186 -2.625,-1.264C-2.608,-1.303 -2.577,-1.345 -2.535,-1.339C-2.528,-1.338 -2.52,-1.334 -2.513,-1.33C-2.49,-1.293 -2.474,-1.249 -2.474,-1.197C-2.471,-1.027 -2.472,-0.854 -2.472,-0.687C-2.472,-0.687 -2.473,-0.509 -2.465,-0.509L-2.465,-0.288C-2.466,-0.108 -2.466,0.077 -2.463,0.26C-2.463,0.311 -2.421,0.327 -2.354,0.335C-2.321,0.34 -2.286,0.33 -2.263,0.311C-2.254,0.303 -2.244,0.291 -2.243,0.274C-2.242,0.156 -2.241,0.039 -2.241,-0.079C-2.24,-0.182 -2.24,-0.285 -2.239,-0.388C-2.236,-0.644 -2.053,-0.993 -1.838,-1.149C-1.825,-1.159 -1.804,-1.164 -1.782,-1.164C-1.761,-1.164 -1.742,-1.159 -1.732,-1.148C-1.715,-1.13 -1.676,-1.08 -1.673,-1.025C-1.667,-0.943 -1.72,-0.891 -1.766,-0.845C-1.783,-0.829 -1.799,-0.813 -1.813,-0.797C-1.826,-0.78 -1.841,-0.764 -1.856,-0.749C-1.901,-0.702 -1.943,-0.658 -1.943,-0.59L-1.943,-0.437C-1.943,-0.198 -1.943,0.05 -1.937,0.293C-1.933,0.301 -1.888,0.326 -1.851,0.334C-1.804,0.345 -1.749,0.335 -1.728,0.28C-1.721,0.26 -1.721,0.236 -1.721,0.211C-1.721,0.192 -1.721,0.172 -1.718,0.152C-1.683,-0.043 -1.541,-0.181 -1.356,-0.201C-1.329,-0.203 -1.301,-0.202 -1.274,-0.202C-1.225,-0.2 -1.18,-0.199 -1.146,-0.217C-1.1,-0.24 -1.1,-0.281 -1.103,-0.344C-1.104,-0.378 -1.106,-0.413 -1.094,-0.446C-1.076,-0.498 -1.044,-0.552 -1.002,-0.598C-0.945,-0.664 -0.881,-0.721 -0.81,-0.784C-0.76,-0.828 -0.739,-0.882 -0.74,-0.965C-0.742,-1.229 -0.743,-1.518 -0.742,-1.848C-0.742,-1.89 -0.76,-1.914 -0.796,-1.921C-0.818,-1.923 -0.848,-1.918 -0.859,-1.906C-0.925,-1.839 -0.988,-1.767 -1.049,-1.696L-1.063,-1.68C-1.069,-1.673 -1.074,-1.662 -1.08,-1.652C-1.088,-1.635 -1.097,-1.618 -1.113,-1.607C-1.163,-1.57 -1.224,-1.565 -1.298,-1.591C-1.322,-1.6 -1.34,-1.622 -1.347,-1.651C-1.357,-1.692 -1.345,-1.74 -1.316,-1.772L-1.27,-1.823C-1.197,-1.903 -1.122,-1.986 -1.042,-2.062C-1.016,-2.087 -0.948,-2.144 -0.881,-2.147C-0.783,-2.151 -0.708,-2.193 -0.637,-2.284C-0.541,-2.409 -0.442,-2.543 -0.326,-2.706C-0.313,-2.723 -0.289,-2.767 -0.323,-2.802C-0.33,-2.81 -0.338,-2.82 -0.346,-2.83C-0.376,-2.868 -0.395,-2.888 -0.437,-2.869C-0.448,-2.865 -0.458,-2.86 -0.469,-2.854C-0.5,-2.839 -0.532,-2.823 -0.566,-2.822C-0.785,-2.82 -0.937,-2.731 -1.043,-2.542C-1.069,-2.496 -1.106,-2.457 -1.141,-2.419C-1.183,-2.374 -1.228,-2.326 -1.253,-2.266C-1.282,-2.198 -1.343,-2.145 -1.403,-2.094C-1.414,-2.084 -1.425,-2.075 -1.436,-2.065C-1.471,-2.034 -1.526,-2.021 -1.564,-2.015C-1.59,-2.01 -1.619,-2.021 -1.645,-2.032L-1.657,-2.037C-1.676,-2.045 -1.688,-2.056 -1.692,-2.07C-1.698,-2.092 -1.686,-2.114 -1.672,-2.134C-1.651,-2.163 -1.633,-2.194 -1.615,-2.225C-1.589,-2.269 -1.562,-2.314 -1.529,-2.354C-1.487,-2.405 -1.44,-2.454 -1.395,-2.501C-1.302,-2.598 -1.206,-2.699 -1.146,-2.826C-1.116,-2.891 -1.049,-2.919 -0.985,-2.947L-0.962,-2.957C-0.772,-3.04 -0.564,-3.117 -0.329,-3.117C-0.314,-3.117 -0.301,-3.117 -0.286,-3.116C-0.132,-3.11 0.012,-3.154 0.149,-3.252C0.192,-3.283 0.231,-3.318 0.235,-3.379C0.257,-3.671 0.253,-3.908 0,-4.063" style="fill:rgb(151,163,185);fill-rule:nonzero;"/>
            </g>
            <g transform="matrix(1,0,0,1,14.1256,23.273)">
                <path d="M0,-4.486C0,-4.52 0.001,-4.552 -0.023,-4.584C-0.123,-4.306 -0.286,-4.14 -0.533,-4.061C-0.549,-4.055 -0.565,-4.05 -0.581,-4.044C-0.657,-4.019 -0.729,-3.995 -0.812,-3.995L-0.83,-3.995C-0.93,-3.999 -1.031,-3.998 -1.131,-3.998C-1.219,-3.997 -1.313,-3.998 -1.404,-4.001C-1.609,-4.007 -1.806,-4.013 -1.957,-3.825C-2.042,-3.802 -2.12,-3.765 -2.202,-3.725C-2.276,-3.689 -2.354,-3.652 -2.436,-3.627C-2.603,-3.576 -2.77,-3.519 -2.932,-3.464C-3.026,-3.432 -3.119,-3.4 -3.213,-3.369C-3.309,-3.338 -3.356,-3.291 -3.46,-3.356C-3.565,-3.421 -3.639,-3.482 -3.772,-3.437C-3.813,-3.423 -3.835,-3.382 -3.86,-3.347C-3.92,-3.264 -4.018,-3.208 -4.12,-3.198C-4.222,-3.189 -4.327,-3.226 -4.402,-3.297C-4.493,-3.384 -4.51,-3.54 -4.66,-3.45C-4.793,-3.369 -4.865,-3.283 -5.006,-3.348C-5.131,-3.404 -5.259,-3.452 -5.395,-3.471C-5.447,-3.479 -5.495,-3.501 -5.542,-3.524C-5.561,-3.533 -5.581,-3.542 -5.601,-3.55C-5.772,-3.619 -5.943,-3.688 -6.114,-3.756C-6.114,-3.756 -6.326,-3.842 -6.329,-3.847C-6.436,-4.008 -6.598,-4.003 -6.771,-4.001L-6.785,-4C-6.872,-3.998 -6.958,-3.998 -7.044,-3.998C-7.176,-3.998 -7.313,-3.998 -7.447,-3.992C-7.454,-3.991 -7.46,-3.991 -7.467,-3.991C-7.566,-3.991 -7.646,-4.028 -7.73,-4.067L-7.745,-4.074C-7.899,-4.146 -8.02,-4.26 -8.129,-4.435C-8.16,-4.484 -8.194,-4.531 -8.226,-4.575C-8.229,-4.579 -8.233,-4.582 -8.242,-4.58C-8.248,-4.571 -8.257,-4.555 -8.257,-4.55C-8.232,-4.484 -8.216,-4.414 -8.2,-4.347C-8.191,-4.304 -8.18,-4.259 -8.168,-4.217C-8.144,-4.132 -8.124,-4.044 -8.105,-3.959C-8.078,-3.837 -8.05,-3.711 -8.007,-3.592C-7.952,-3.437 -7.815,-3.329 -7.676,-3.328C-7.54,-3.327 -7.405,-3.328 -7.269,-3.328C-7.084,-3.329 -6.892,-3.329 -6.703,-3.326C-6.563,-3.324 -6.45,-3.332 -6.36,-3.437C-6.318,-3.486 -6.225,-3.498 -6.188,-3.499C-6.122,-3.503 -6.055,-3.504 -5.991,-3.503C-5.912,-3.503 -5.828,-3.502 -5.747,-3.51C-5.736,-3.511 -5.724,-3.511 -5.714,-3.511C-5.579,-3.511 -5.498,-3.428 -5.433,-3.349C-5.403,-3.313 -5.382,-3.27 -5.362,-3.229C-5.356,-3.217 -5.351,-3.206 -5.345,-3.195C-5.311,-3.126 -5.275,-3.058 -5.241,-2.989C-5.146,-2.802 -5.047,-2.61 -4.955,-2.417C-4.855,-2.208 -4.885,-2.026 -5.046,-1.877C-5.079,-1.846 -5.111,-1.812 -5.141,-1.778C-5.179,-1.736 -5.218,-1.693 -5.262,-1.655C-5.366,-1.568 -5.366,-1.458 -5.352,-1.351C-5.345,-1.301 -5.336,-1.238 -5.308,-1.194C-5.268,-1.132 -5.264,-1.062 -5.261,-0.993C-5.257,-0.914 -5.253,-0.84 -5.195,-0.779C-5.173,-0.756 -5.174,-0.715 -5.176,-0.675C-5.176,-0.662 -5.177,-0.65 -5.176,-0.638C-5.168,-0.421 -5.082,-0.23 -4.983,-0.009L-4.967,0.026C-4.956,-0.024 -4.951,-0.072 -4.946,-0.119C-4.936,-0.214 -4.926,-0.303 -4.868,-0.38C-4.89,-0.544 -4.857,-0.704 -4.824,-0.857C-4.82,-0.875 -4.817,-0.894 -4.813,-0.913C-4.786,-0.968 -4.774,-1.035 -4.76,-1.097C-4.737,-1.197 -4.66,-1.313 -4.559,-1.288C-4.538,-1.282 -4.52,-1.271 -4.504,-1.256C-4.474,-1.227 -4.455,-1.184 -4.446,-1.142C-4.423,-1.04 -4.414,-0.922 -4.368,-0.826C-4.324,-0.736 -4.312,-0.644 -4.301,-0.556C-4.296,-0.519 -4.292,-0.48 -4.284,-0.443C-4.272,-0.379 -4.254,-0.315 -4.236,-0.254C-4.211,-0.166 -4.185,-0.076 -4.175,0.018C-4.172,0.041 -4.133,0.081 -4.1,0.093C-4.086,0.098 -4.08,0.096 -4.08,0.095C-4.073,0.091 -4.07,0.072 -4.068,0.058C-4.067,0.049 -4.065,0.039 -4.063,0.031C-4.048,-0.026 -4.03,-0.083 -4.013,-0.14C-3.976,-0.258 -3.939,-0.382 -3.922,-0.505C-3.909,-0.604 -3.885,-0.703 -3.862,-0.798C-3.83,-0.934 -3.801,-1.078 -3.733,-1.201C-3.717,-1.23 -3.698,-1.258 -3.669,-1.272C-3.589,-1.308 -3.516,-1.208 -3.487,-1.125C-3.446,-1.012 -3.419,-0.896 -3.394,-0.779C-3.386,-0.722 -3.374,-0.666 -3.357,-0.608C-3.328,-0.503 -3.298,-0.394 -3.316,-0.278C-3.325,-0.229 -3.319,-0.178 -3.314,-0.124C-3.312,-0.103 -3.31,-0.082 -3.309,-0.062C-3.308,-0.056 -3.308,-0.05 -3.308,-0.044C-3.308,-0.026 -3.307,-0.001 -3.3,0.005C-3.296,0.008 -3.29,0.007 -3.284,0.007C-3.258,0.002 -3.219,-0.035 -3.207,-0.069C-3.162,-0.188 -3.124,-0.312 -3.091,-0.437C-3.056,-0.576 -3.02,-0.716 -3.003,-0.857C-2.996,-0.918 -2.974,-0.976 -2.954,-1.032C-2.924,-1.112 -2.896,-1.188 -2.902,-1.288C-2.796,-1.421 -2.844,-1.512 -2.967,-1.635C-3.038,-1.704 -3.098,-1.784 -3.155,-1.862C-3.192,-1.912 -3.23,-1.963 -3.27,-2.01C-3.361,-2.118 -3.371,-2.22 -3.302,-2.35C-3.198,-2.546 -3.101,-2.751 -3.006,-2.948C-2.965,-3.035 -2.923,-3.122 -2.881,-3.208C-2.875,-3.221 -2.869,-3.234 -2.863,-3.247C-2.845,-3.287 -2.826,-3.329 -2.799,-3.365C-2.743,-3.439 -2.685,-3.505 -2.581,-3.505C-2.577,-3.505 -2.572,-3.505 -2.568,-3.504C-2.484,-3.5 -2.396,-3.502 -2.305,-3.509C-2.081,-3.527 -1.9,-3.481 -1.753,-3.37C-1.696,-3.327 -1.635,-3.326 -1.557,-3.327C-1.401,-3.328 -1.246,-3.328 -1.093,-3.328L-0.629,-3.328C-0.615,-3.328 -0.601,-3.327 -0.586,-3.326C-0.528,-3.323 -0.474,-3.321 -0.432,-3.361C-0.41,-3.382 -0.387,-3.402 -0.363,-3.421C-0.285,-3.488 -0.211,-3.551 -0.181,-3.649C-0.171,-3.682 -0.168,-3.72 -0.166,-3.757C-0.162,-3.809 -0.158,-3.862 -0.134,-3.907C-0.101,-3.968 -0.095,-4.03 -0.09,-4.096C-0.087,-4.13 -0.084,-4.165 -0.077,-4.2C-0.069,-4.235 -0.053,-4.267 -0.037,-4.298C-0.013,-4.343 0.01,-4.386 0.002,-4.439C0,-4.455 0,-4.471 0,-4.486" style="fill:rgb(151,163,185);fill-rule:nonzero;"/>
            </g>
            <g transform="matrix(1,0,0,1,10.6126,19.112)">
                <path d="M0,-1.057C-0.015,-1.057 -0.032,-1.049 -0.05,-1.042C-0.056,-1.039 -0.061,-1.037 -0.067,-1.034C-0.28,-0.952 -0.304,-0.96 -0.397,-1.133C-0.444,-1.221 -0.435,-1.317 -0.447,-1.415C-0.462,-1.535 -0.478,-1.655 -0.496,-1.775C-0.502,-1.812 -0.515,-1.859 -0.553,-1.866C-0.577,-1.87 -0.601,-1.855 -0.614,-1.835C-0.628,-1.816 -0.633,-1.791 -0.638,-1.768C-0.676,-1.589 -0.722,-1.416 -0.769,-1.242L-0.777,-1.216C-0.806,-1.114 -0.837,-1.041 -0.898,-1.008C-0.959,-0.976 -1.041,-0.991 -1.145,-1.024C-1.172,-1.033 -1.211,-1.046 -1.217,-1.041C-1.222,-1.036 -1.222,-1.003 -1.223,-0.983C-1.224,-0.911 -1.224,-0.84 -1.223,-0.768L-1.224,-0.596C-1.224,-0.534 -1.225,-0.472 -1.224,-0.411C-1.222,-0.32 -1.193,-0.312 -1.15,-0.311C-1.143,-0.311 -1.14,-0.315 -1.135,-0.316C-1.117,-0.295 -1.089,-0.286 -1.063,-0.277C-0.925,-0.228 -0.928,-0.12 -0.898,-0.005C-0.861,0.139 -0.85,0.238 -0.886,0.389C-0.89,0.406 -0.902,0.419 -0.912,0.43C-0.933,0.453 -0.937,0.461 -0.919,0.479C-0.846,0.557 -0.788,0.639 -0.743,0.728C-0.721,0.772 -0.637,0.808 -0.573,0.813C-0.544,0.813 -0.486,0.76 -0.47,0.718C-0.44,0.641 -0.408,0.579 -0.353,0.53C-0.281,0.466 -0.274,0.405 -0.329,0.328C-0.432,0.183 -0.288,-0.118 -0.146,-0.198C-0.113,-0.216 -0.076,-0.234 -0.044,-0.256C-0.027,-0.254 -0.011,-0.264 0.002,-0.28C0.008,-0.289 0.016,-0.296 0.024,-0.305C0.035,-0.315 0.05,-0.329 0.05,-0.336C0.055,-0.575 0.055,-0.81 0.052,-1.035C0.048,-1.039 0.021,-1.055 0,-1.057" style="fill:rgb(108,101,124);fill-rule:nonzero;"/>
            </g>
            <g transform="matrix(1,0,0,1,7.62863,12.807)">
                <path d="M0,0.816C0.024,1.118 0.063,1.134 0.354,1.123C0.426,1.12 0.483,1.095 0.55,1.061C0.646,1.013 0.68,0.957 0.656,0.892C0.65,0.875 0.644,0.858 0.637,0.842C0.602,0.752 0.567,0.658 0.568,0.552C0.569,0.52 0.551,0.476 0.525,0.451C0.484,0.408 0.444,0.365 0.404,0.322C0.286,0.196 0.166,0.065 0.027,-0.033C-0.031,-0.073 -0.084,-0.117 -0.14,-0.162C-0.203,-0.215 -0.269,-0.268 -0.343,-0.318C-0.376,-0.087 -0.376,0.178 -0.169,0.413C-0.071,0.524 -0.012,0.663 0,0.816" style="fill:rgb(96,85,96);fill-rule:nonzero;"/>
            </g>
            <g transform="matrix(1,0,0,1,9.42963,25.772)">
                <path d="M0,-1.689C-0.03,-1.794 -0.062,-1.904 -0.082,-2.013C-0.09,-2.055 -0.137,-2.105 -0.18,-2.131C-0.212,-2.152 -0.252,-2.157 -0.294,-2.161C-0.346,-2.167 -0.404,-2.174 -0.451,-2.216C-0.491,-2.165 -0.485,-2.102 -0.478,-2.041C-0.477,-2.029 -0.475,-2.016 -0.474,-2.003C-0.462,-1.842 -0.52,-1.699 -0.576,-1.561C-0.585,-1.539 -0.594,-1.517 -0.602,-1.494C-0.657,-1.354 -0.663,-1.245 -0.62,-1.132C-0.59,-1.051 -0.565,-0.968 -0.54,-0.888C-0.503,-0.767 -0.465,-0.642 -0.409,-0.523C-0.311,-0.314 -0.271,-0.111 -0.291,0.079C-0.302,0.181 -0.297,0.288 -0.292,0.39C-0.29,0.432 -0.288,0.473 -0.287,0.515C-0.286,0.517 -0.283,0.522 -0.279,0.527C-0.277,0.525 -0.274,0.523 -0.271,0.522C-0.256,0.512 -0.241,0.503 -0.228,0.491C-0.199,0.466 -0.187,0.431 -0.175,0.393C-0.17,0.377 -0.165,0.361 -0.158,0.346C-0.119,0.254 -0.098,0.154 -0.077,0.058C-0.057,-0.039 -0.036,-0.139 0.005,-0.235C0.025,-0.285 0.035,-0.34 0.044,-0.398C0.054,-0.454 0.063,-0.512 0.084,-0.569C0.114,-0.648 0.106,-0.742 0.099,-0.825C0.096,-0.858 0.093,-0.889 0.093,-0.915C0.142,-1.201 0.07,-1.449 0,-1.689" style="fill:rgb(96,85,96);fill-rule:nonzero;"/>
            </g>
            <g transform="matrix(1,0,0,1,11.8206,24.632)">
                <path d="M0,-2.189C-0.083,-2.307 -0.168,-2.428 -0.286,-2.517C-0.289,-2.519 -0.297,-2.52 -0.306,-2.52C-0.316,-2.52 -0.328,-2.519 -0.341,-2.516C-0.36,-2.51 -0.368,-2.502 -0.369,-2.5L-0.388,-2.443C-0.408,-2.382 -0.428,-2.319 -0.444,-2.256C-0.461,-2.189 -0.472,-2.118 -0.479,-2.046L-0.48,-2.029C-0.488,-1.949 -0.494,-1.865 -0.548,-1.788C-0.577,-1.745 -0.56,-1.713 -0.529,-1.664C-0.508,-1.632 -0.488,-1.599 -0.488,-1.56L-0.488,-1.494C-0.488,-1.3 -0.487,-1.099 -0.484,-0.901L-0.484,-0.844C-0.485,-0.776 -0.485,-0.705 -0.462,-0.648C-0.354,-0.375 -0.234,-0.1 -0.118,0.166L-0.059,0.299C-0.054,0.309 -0.039,0.32 -0.024,0.33C-0.024,0.331 -0.023,0.331 -0.023,0.331C-0.021,0.327 -0.02,0.323 -0.018,0.318C-0.012,0.298 -0.002,0.268 -0.007,0.26C-0.115,0.095 -0.084,-0.082 -0.044,-0.217C-0.04,-0.231 -0.036,-0.245 -0.032,-0.258C-0.015,-0.313 0.001,-0.365 0.007,-0.421C0.013,-0.473 0.015,-0.526 0.016,-0.577C0.02,-0.681 0.023,-0.789 0.062,-0.899C0.098,-0.995 0.099,-1.106 0.1,-1.214C0.101,-1.265 0.101,-1.318 0.105,-1.369C0.108,-1.401 0.112,-1.436 0.131,-1.461C0.183,-1.53 0.184,-1.609 0.185,-1.692C0.185,-1.726 0.186,-1.762 0.19,-1.797C0.188,-1.809 0.189,-1.826 0.189,-1.843C0.191,-1.894 0.192,-1.943 0.156,-1.984C0.099,-2.049 0.049,-2.12 0,-2.189" style="fill:rgb(108,101,124);fill-rule:nonzero;"/>
            </g>
            <g transform="matrix(1,0,0,1,12.3556,23.892)">
                <path d="M0,-0.785C-0.033,-0.823 -0.064,-0.859 -0.112,-0.875C-0.134,-0.831 -0.135,-0.781 -0.136,-0.728C-0.138,-0.658 -0.14,-0.585 -0.192,-0.524L-0.158,-0.434C-0.127,-0.351 -0.095,-0.266 -0.067,-0.18C-0.057,-0.153 -0.054,-0.124 -0.05,-0.096C-0.047,-0.067 -0.043,-0.039 -0.034,-0.013C-0.021,0.022 0.012,0.054 0.04,0.08C0.047,0.087 0.071,0.09 0.079,0.09C0.141,0.013 0.157,-0.08 0.173,-0.178C0.186,-0.259 0.2,-0.343 0.243,-0.417C0.205,-0.527 0.158,-0.64 0.059,-0.724C0.037,-0.742 0.018,-0.764 0,-0.785" style="fill:rgb(96,85,96);fill-rule:nonzero;"/>
            </g>
            <g transform="matrix(1,0,0,1,11.1216,25.946)">
                <path d="M0,-1.974C0.008,-2.051 -0.02,-2.117 -0.051,-2.186C-0.061,-2.208 -0.072,-2.232 -0.081,-2.255L-0.084,-2.265C-0.089,-2.278 -0.101,-2.309 -0.108,-2.315C-0.153,-2.321 -0.205,-2.322 -0.254,-2.324C-0.275,-2.324 -0.296,-2.325 -0.317,-2.326L-0.323,-2.326C-0.363,-2.326 -0.377,-2.303 -0.396,-2.262C-0.401,-2.251 -0.407,-2.24 -0.413,-2.229C-0.465,-2.137 -0.491,-2.048 -0.494,-1.949C-0.495,-1.893 -0.519,-1.845 -0.543,-1.797C-0.571,-1.74 -0.598,-1.685 -0.585,-1.621L-0.582,-1.611L-0.589,-1.604C-0.663,-1.523 -0.662,-1.426 -0.66,-1.315L-0.659,-1.274C-0.656,-1.241 -0.658,-1.204 -0.659,-1.168C-0.662,-1.081 -0.666,-0.991 -0.605,-0.912L-0.602,-0.908L-0.602,-0.902C-0.591,-0.704 -0.54,-0.511 -0.491,-0.325C-0.461,-0.211 -0.43,-0.094 -0.409,0.024C-0.396,0.092 -0.369,0.155 -0.344,0.216C-0.326,0.258 -0.308,0.301 -0.294,0.346C-0.293,0.347 -0.289,0.349 -0.286,0.352C-0.282,0.348 -0.276,0.343 -0.275,0.341C-0.266,0.273 -0.262,0.22 -0.26,0.171C-0.259,0.125 -0.26,0.076 -0.263,0.029C-0.267,-0.073 -0.272,-0.179 -0.239,-0.271C-0.207,-0.359 -0.182,-0.451 -0.156,-0.539C-0.128,-0.641 -0.098,-0.746 -0.059,-0.848C-0.033,-0.917 -0.007,-0.973 0.015,-1.024C0.114,-1.247 0.16,-1.349 0.013,-1.79C-0.003,-1.84 -0.008,-1.902 0,-1.974" style="fill:rgb(96,85,96);fill-rule:nonzero;"/>
            </g>
            <g transform="matrix(1,0,0,1,14.3246,20.629)">
                <path d="M0,2.722C-0.192,2.717 -0.39,2.712 -0.586,2.719C-0.713,2.724 -0.815,2.68 -0.908,2.578C-0.967,2.514 -1.027,2.445 -1.071,2.367C-1.446,1.706 -1.857,1.052 -2.255,0.419L-2.309,0.333C-2.387,0.209 -2.463,0.084 -2.54,-0.04C-2.622,-0.174 -2.704,-0.308 -2.787,-0.441C-2.791,-0.445 -2.812,-0.447 -2.823,-0.449C-2.83,-0.449 -2.836,-0.45 -2.843,-0.451C-2.847,-0.448 -2.851,-0.444 -2.856,-0.44C-2.87,-0.429 -2.882,-0.418 -2.89,-0.406C-2.947,-0.314 -2.987,-0.21 -3.025,-0.11C-3.078,0.029 -3.132,0.172 -3.235,0.292C-3.273,0.337 -3.267,0.412 -3.22,0.472C-3.186,0.517 -3.151,0.563 -3.117,0.609C-3.073,0.668 -3.029,0.726 -2.984,0.784C-2.949,0.829 -2.911,0.872 -2.874,0.915C-2.817,0.979 -2.758,1.046 -2.707,1.122C-2.507,1.424 -2.295,1.703 -2.078,1.951C-1.868,2.191 -1.648,2.453 -1.457,2.74C-1.383,2.851 -1.305,2.936 -1.223,2.991L-1.196,3.009C-1.079,3.089 -0.958,3.173 -0.818,3.049L-0.814,3.046L-0.809,3.045C-0.611,3.003 -0.414,2.942 -0.224,2.882C-0.091,2.841 0.045,2.798 0.182,2.762C0.19,2.761 0.198,2.752 0.207,2.743L0.206,2.743C0.19,2.734 0.175,2.727 0.162,2.726C0.108,2.725 0.054,2.724 0,2.722" style="fill:rgb(81,57,61);fill-rule:nonzero;"/>
            </g>
            <g transform="matrix(1,0,0,1,10.5496,24.738)">
                <path d="M0,-1.747C-0.009,-1.772 -0.02,-1.799 -0.029,-1.825C-0.051,-1.891 -0.05,-1.964 -0.05,-2.035C-0.05,-2.068 -0.05,-2.103 -0.052,-2.135C-0.053,-2.138 -0.057,-2.142 -0.06,-2.146C-0.061,-2.145 -0.062,-2.144 -0.064,-2.143C-0.071,-2.139 -0.083,-2.13 -0.085,-2.126C-0.089,-2.094 -0.091,-2.06 -0.092,-2.026C-0.094,-2.001 -0.095,-1.977 -0.097,-1.952C-0.112,-1.802 -0.241,-1.345 -0.297,-1.243C-0.375,-1.105 -0.506,-1.113 -0.622,-1.121C-0.73,-1.128 -0.824,-1.212 -0.824,-1.3C-0.824,-1.382 -0.851,-1.458 -0.878,-1.532C-0.909,-1.62 -0.942,-1.711 -0.93,-1.81C-0.919,-1.893 -0.95,-1.961 -0.983,-2.031C-0.997,-2.063 -1.013,-2.096 -1.024,-2.13C-1.031,-2.15 -1.037,-2.156 -1.039,-2.156C-1.052,-2.143 -1.057,-2.134 -1.057,-2.13C-1.063,-1.986 -1.069,-1.837 -1.071,-1.691C-1.072,-1.563 -1.07,-1.448 -1.066,-1.34C-1.064,-1.288 -1.042,-1.242 -1.019,-1.193C-0.999,-1.151 -0.978,-1.107 -0.969,-1.058C-0.959,-1.005 -0.943,-0.954 -0.927,-0.9C-0.909,-0.844 -0.891,-0.786 -0.881,-0.726C-0.869,-0.656 -0.849,-0.585 -0.83,-0.516C-0.815,-0.463 -0.8,-0.407 -0.788,-0.352C-0.779,-0.312 -0.766,-0.271 -0.754,-0.231C-0.729,-0.152 -0.703,-0.069 -0.705,0.021C-0.651,0.072 -0.641,0.139 -0.632,0.204C-0.622,0.268 -0.614,0.328 -0.563,0.369C-0.548,0.381 -0.533,0.393 -0.517,0.403C-0.514,0.405 -0.512,0.407 -0.509,0.409C-0.505,0.403 -0.501,0.398 -0.499,0.393C-0.488,0.35 -0.469,0.309 -0.451,0.269C-0.416,0.191 -0.383,0.118 -0.395,0.029C-0.404,-0.033 -0.384,-0.101 -0.366,-0.148C-0.298,-0.326 -0.249,-0.512 -0.2,-0.693C-0.143,-0.906 -0.084,-1.127 0.005,-1.335C0.028,-1.39 0.032,-1.441 0.038,-1.52C0.039,-1.54 0.04,-1.562 0.042,-1.584L0.042,-1.585C0.046,-1.626 0.024,-1.685 0,-1.747" style="fill:rgb(188,189,202);fill-rule:nonzero;"/>
            </g>
            <g transform="matrix(1,0,0,1,15.8476,20.395)">
                <path d="M0,2.35C-0.069,2.342 -0.138,2.341 -0.209,2.342L-0.218,2.342C-0.345,2.342 -0.471,2.341 -0.597,2.341C-0.979,2.339 -1.375,2.337 -1.762,2.343L-1.771,2.343C-1.903,2.343 -2,2.291 -2.075,2.18C-2.117,2.116 -2.154,2.047 -2.19,1.98C-2.222,1.921 -2.254,1.86 -2.291,1.804C-2.633,1.271 -2.996,0.71 -3.401,0.089C-3.478,-0.03 -3.567,-0.154 -3.677,-0.301C-3.737,-0.381 -3.803,-0.417 -3.885,-0.407C-3.958,-0.4 -4.033,-0.406 -4.105,-0.4C-4.11,-0.397 -4.124,-0.379 -4.128,-0.37L-4.105,-0.324C-4.051,-0.213 -3.994,-0.098 -3.929,0.009C-3.81,0.207 -3.689,0.403 -3.568,0.599C-3.358,0.94 -3.141,1.292 -2.937,1.643C-2.877,1.747 -2.808,1.849 -2.742,1.947C-2.633,2.109 -2.52,2.276 -2.439,2.46C-2.426,2.491 -2.4,2.518 -2.372,2.546C-2.358,2.561 -2.343,2.576 -2.33,2.592C-2.243,2.698 -2.14,2.743 -2,2.735C-1.867,2.727 -1.73,2.728 -1.598,2.73C-1.547,2.73 -1.496,2.731 -1.444,2.732L-1.426,2.731C-1.38,2.731 -1.334,2.729 -1.288,2.727C-1.243,2.726 -1.196,2.724 -1.15,2.724C-1.094,2.724 -1.037,2.727 -0.982,2.734C-0.75,2.767 -0.539,2.694 -0.334,2.622C-0.247,2.592 -0.157,2.561 -0.066,2.538C-0.038,2.531 -0.009,2.493 0.014,2.463L0.019,2.457C0.032,2.44 0.039,2.411 0.035,2.394C0.03,2.375 0.008,2.351 0,2.35" style="fill:rgb(188,189,202);fill-rule:nonzero;"/>
            </g>
            <g transform="matrix(1,0,0,1,21.2386,13.988)">
                <path d="M0,6.094C-0.072,6.091 -0.147,6.089 -0.22,6.089L-1.448,6.091C-2.856,6.092 -4.312,6.094 -5.744,6.093L-5.746,6.093C-5.858,6.093 -5.934,6.124 -6.002,6.198C-6.013,6.21 -6.023,6.22 -6.033,6.231C-6.112,6.314 -6.186,6.392 -6.199,6.518C-6.205,6.584 -6.274,6.645 -6.328,6.694L-6.334,6.698C-6.341,6.705 -6.353,6.707 -6.369,6.706C-6.398,6.702 -6.45,6.682 -6.469,6.654C-6.493,6.618 -6.498,6.553 -6.48,6.511C-6.419,6.36 -6.364,6.235 -6.294,6.116C-6.257,6.055 -6.192,6.008 -6.127,5.968C-6.075,5.935 -6.018,5.909 -5.963,5.884C-5.944,5.876 -5.924,5.867 -5.906,5.859C-5.912,5.834 -5.917,5.809 -5.921,5.783C-5.934,5.717 -5.946,5.654 -5.977,5.602C-6.033,5.506 -6.045,5.412 -6.044,5.299C-6.043,5.026 -6.043,4.754 -6.043,4.482L-6.043,3.972C-6.043,3.931 -6.04,3.889 -6.036,3.849L-6.035,3.839C-6.033,3.81 -6.005,3.786 -5.979,3.773C-5.949,3.758 -5.922,3.755 -5.903,3.766C-5.869,3.786 -5.836,3.807 -5.835,3.835C-5.828,4.041 -5.825,4.251 -5.822,4.453L-5.822,4.497C-5.821,4.536 -5.825,4.576 -5.828,4.616C-5.835,4.699 -5.842,4.778 -5.814,4.84C-5.755,4.97 -5.756,5.101 -5.756,5.226C-5.756,5.272 -5.756,5.318 -5.753,5.364C-5.752,5.39 -5.751,5.416 -5.751,5.442C-5.75,5.475 -5.749,5.508 -5.747,5.54C-5.732,5.733 -5.586,5.869 -5.393,5.873L-5.378,5.874C-5.325,5.874 -5.271,5.876 -5.217,5.873C-5.147,5.87 -5.078,5.865 -5.008,5.86L-4.932,5.854C-4.936,5.786 -4.972,5.731 -5.009,5.674C-5.028,5.646 -5.047,5.617 -5.062,5.586C-5.138,5.433 -5.171,5.297 -5.164,5.159C-5.159,5.04 -5.163,4.918 -5.165,4.801C-5.167,4.729 -5.169,4.657 -5.169,4.585L-5.169,3.858C-5.17,2.618 -5.171,1.337 -5.165,0.077C-5.164,-0.02 -5.189,-0.112 -5.214,-0.201C-5.233,-0.272 -5.253,-0.346 -5.26,-0.423C-5.291,-0.452 -5.321,-0.482 -5.351,-0.514C-5.42,-0.585 -5.492,-0.659 -5.575,-0.711C-5.695,-0.786 -5.818,-0.872 -5.877,-1.029C-5.886,-1.054 -5.888,-1.047 -5.889,-1.047C-5.896,-1.047 -5.911,-1.04 -5.917,-1.037C-6.066,-0.968 -6.222,-0.979 -6.371,-0.988C-6.423,-0.992 -6.477,-0.995 -6.529,-0.995L-6.534,-0.995C-6.746,-0.995 -6.905,-0.934 -7.036,-0.805C-7.086,-0.756 -7.14,-0.708 -7.202,-0.659C-7.213,-0.65 -7.226,-0.657 -7.231,-0.659C-7.232,-0.659 -7.287,-0.688 -7.286,-0.717L-7.286,-0.746C-7.286,-0.798 -7.286,-0.857 -7.257,-0.896C-7.069,-1.151 -6.816,-1.28 -6.504,-1.28L-6.493,-1.28C-6.336,-1.278 -6.181,-1.28 -6.051,-1.283C-5.988,-1.284 -5.959,-1.31 -5.959,-1.367L-5.959,-1.536C-5.959,-1.818 -5.958,-2.101 -5.959,-2.383C-5.959,-2.432 -5.984,-2.459 -6.04,-2.498C-6.127,-2.56 -6.225,-2.566 -6.329,-2.571C-6.425,-2.576 -6.524,-2.581 -6.611,-2.634C-6.672,-2.584 -6.744,-2.58 -6.814,-2.576C-6.873,-2.573 -6.929,-2.57 -6.977,-2.54C-6.995,-2.528 -7.014,-2.518 -7.033,-2.508C-7.097,-2.473 -7.158,-2.44 -7.187,-2.356C-7.218,-2.264 -7.267,-2.177 -7.314,-2.092C-7.337,-2.05 -7.36,-2.008 -7.381,-1.965C-7.547,-1.635 -7.78,-1.349 -8.074,-1.118C-8.1,-1.097 -8.127,-1.079 -8.153,-1.062C-8.245,-1.002 -8.324,-0.95 -8.32,-0.814C-8.317,-0.75 -8.403,-0.681 -8.429,-0.661C-8.527,-0.586 -8.558,-0.48 -8.591,-0.367C-8.606,-0.314 -8.622,-0.258 -8.646,-0.207C-8.649,-0.197 -8.632,-0.167 -8.597,-0.118C-8.567,-0.078 -8.523,-0.06 -8.459,-0.06L-8.456,-0.06C-8.404,-0.06 -8.358,-0.061 -8.318,-0.062L-8.222,-0.062C-8.02,-0.062 -7.999,-0.042 -7.846,0.115C-7.805,0.158 -7.754,0.211 -7.686,0.277L-7.679,0.284C-7.67,0.292 -7.662,0.3 -7.654,0.308C-7.624,0.341 -7.59,0.372 -7.556,0.403C-7.479,0.475 -7.398,0.549 -7.361,0.642C-7.326,0.728 -7.33,0.83 -7.335,0.928C-7.338,0.98 -7.341,1.034 -7.337,1.084C-7.328,1.226 -7.38,1.328 -7.499,1.393C-7.724,1.518 -7.889,1.687 -8.001,1.909C-8.052,2.01 -8.122,2.11 -8.228,2.234C-8.288,2.305 -8.315,2.374 -8.314,2.461C-8.313,2.494 -8.31,2.529 -8.308,2.564C-8.299,2.653 -8.291,2.746 -8.327,2.819C-8.39,2.949 -8.387,3.077 -8.384,3.212C-8.383,3.265 -8.382,3.319 -8.385,3.372C-8.39,3.439 -8.389,3.507 -8.388,3.572C-8.388,3.623 -8.387,3.675 -8.389,3.725C-8.392,3.803 -8.426,3.853 -8.492,3.878C-8.605,3.92 -8.677,4.018 -8.741,4.104C-8.759,4.129 -8.758,4.175 -8.737,4.216C-8.719,4.252 -8.691,4.275 -8.666,4.275C-8.503,4.278 -8.341,4.277 -8.18,4.279L-8.178,4.279C-8.113,4.279 -8.063,4.246 -8.02,4.176C-7.966,4.088 -7.931,4.015 -7.911,3.946C-7.837,3.683 -7.738,3.426 -7.642,3.177C-7.615,3.107 -7.588,3.038 -7.562,2.968L-7.526,2.871C-7.418,2.585 -7.307,2.289 -7.21,1.995C-7.123,1.732 -7.025,1.468 -6.931,1.212C-6.806,0.87 -6.675,0.516 -6.568,0.162C-6.523,0.012 -6.447,-0.131 -6.373,-0.27L-6.35,-0.313C-6.311,-0.388 -6.221,-0.424 -6.136,-0.398C-6.122,-0.394 -6.107,-0.39 -6.092,-0.386C-6.014,-0.366 -5.926,-0.343 -5.893,-0.287C-5.881,-0.267 -5.867,-0.248 -5.852,-0.228C-5.796,-0.151 -5.732,-0.064 -5.789,0.078C-5.852,0.235 -5.888,0.405 -5.923,0.571C-5.944,0.669 -5.965,0.77 -5.993,0.868C-6.037,1.032 -6.069,1.188 -6.086,1.33C-6.095,1.402 -6.117,1.471 -6.14,1.538C-6.172,1.637 -6.203,1.732 -6.191,1.834L-6.19,1.843L-6.195,1.849C-6.251,1.92 -6.255,2.009 -6.258,2.095C-6.262,2.168 -6.265,2.243 -6.301,2.306C-6.343,2.379 -6.353,2.456 -6.364,2.536C-6.374,2.613 -6.385,2.692 -6.425,2.767C-6.51,2.929 -6.529,3.125 -6.53,3.261C-6.53,3.34 -6.557,3.41 -6.583,3.478C-6.614,3.56 -6.643,3.638 -6.627,3.725L-6.625,3.732L-6.628,3.738C-6.685,3.838 -6.697,3.946 -6.711,4.06C-6.719,4.133 -6.728,4.208 -6.75,4.281C-6.792,4.426 -6.827,4.576 -6.86,4.721C-6.871,4.769 -6.882,4.818 -6.894,4.866C-6.903,4.906 -6.914,4.946 -6.926,4.984C-6.946,5.054 -6.967,5.126 -6.975,5.198C-6.988,5.34 -7.014,5.442 -7.06,5.54C-7.089,5.601 -7.071,5.674 -7.016,5.717C-6.898,5.809 -6.883,5.935 -6.884,6.046C-6.884,6.132 -6.882,6.217 -6.881,6.303C-6.879,6.466 -6.877,6.633 -6.886,6.798C-6.896,6.971 -6.869,7.143 -6.843,7.308C-6.832,7.38 -6.82,7.455 -6.812,7.53C-6.8,7.63 -6.799,7.744 -6.808,7.886C-6.817,8.035 -6.805,8.188 -6.655,8.302C-6.62,8.328 -6.595,8.365 -6.571,8.401C-6.562,8.414 -6.553,8.429 -6.543,8.441C-6.536,8.451 -6.53,8.463 -6.524,8.474C-6.519,8.484 -6.511,8.501 -6.507,8.503C-6.354,8.53 -6.196,8.558 -6.047,8.494C-6.03,8.486 -6.009,8.464 -5.997,8.44C-5.985,8.416 -5.977,8.389 -5.968,8.361C-5.964,8.347 -5.96,8.334 -5.955,8.32C-5.898,8.152 -5.852,7.977 -5.806,7.808C-5.774,7.691 -5.742,7.57 -5.707,7.451C-5.66,7.295 -5.567,7.206 -5.475,7.133C-5.441,7.106 -5.386,7.109 -5.341,7.111C-5.311,7.113 -5.287,7.127 -5.267,7.14C-5.261,7.143 -5.256,7.146 -5.251,7.15L-5.243,7.154L-5.241,7.165C-5.24,7.176 -5.247,7.201 -5.257,7.212C-5.277,7.234 -5.298,7.256 -5.319,7.276C-5.363,7.319 -5.403,7.359 -5.43,7.407C-5.474,7.484 -5.499,7.576 -5.523,7.664L-5.529,7.685C-5.558,7.789 -5.583,7.898 -5.607,8.001C-5.643,8.158 -5.681,8.321 -5.733,8.478C-5.733,8.486 -5.713,8.514 -5.704,8.517C-5.646,8.527 -5.583,8.526 -5.524,8.526C-5.509,8.526 -5.494,8.525 -5.479,8.525C-5.336,8.525 -5.193,8.539 -5.089,8.698C-5.082,8.706 -5.037,8.706 -5.022,8.706C-4.97,8.706 -4.917,8.708 -4.865,8.711C-4.742,8.716 -4.615,8.722 -4.499,8.695C-4.465,8.687 -4.43,8.68 -4.394,8.673C-4.223,8.642 -4.046,8.609 -3.986,8.397L-3.984,8.392L-3.981,8.388C-3.874,8.289 -3.835,8.161 -3.794,8.025C-3.781,7.98 -3.767,7.934 -3.75,7.889C-3.71,7.78 -3.675,7.665 -3.641,7.555C-3.617,7.476 -3.592,7.395 -3.566,7.316C-3.505,7.137 -3.367,7.028 -3.198,7.025C-3.021,7.023 -2.841,7.024 -2.667,7.027C-2.593,7.028 -2.547,7.079 -2.512,7.129C-2.5,7.145 -2.488,7.163 -2.49,7.182C-2.493,7.203 -2.52,7.224 -2.539,7.225C-2.582,7.227 -2.625,7.23 -2.667,7.232C-2.784,7.24 -2.904,7.248 -3.023,7.242L-3.037,7.242C-3.113,7.242 -3.174,7.273 -3.239,7.306C-3.259,7.316 -3.28,7.326 -3.301,7.336C-3.34,7.353 -3.344,7.385 -3.347,7.436C-3.349,7.465 -3.351,7.494 -3.364,7.52C-3.426,7.637 -3.462,7.765 -3.498,7.889C-3.513,7.942 -3.529,7.995 -3.545,8.047L-3.555,8.075C-3.623,8.287 -3.693,8.506 -3.881,8.688C-3.607,8.728 -3.377,8.715 -3.164,8.535C-3.088,8.471 -3.001,8.418 -2.917,8.367C-2.841,8.322 -2.764,8.274 -2.695,8.22C-2.393,7.98 -2.068,7.764 -1.754,7.554C-1.568,7.431 -1.377,7.303 -1.193,7.172C-1.084,7.095 -0.977,7.017 -0.869,6.938C-0.605,6.745 -0.333,6.546 -0.048,6.373C0.016,6.334 0.051,6.279 0.056,6.21C0.058,6.173 0.046,6.131 0.026,6.109C0.018,6.099 0.009,6.094 0,6.094" style="fill:rgb(108,101,124);fill-rule:nonzero;"/>
            </g>
            <g transform="matrix(1,0,0,1,16.2906,15.081)">
                <path d="M0,1.111L0,2.116C0.001,2.307 0.002,2.498 0.003,2.688C0.005,3.123 0.007,3.572 0,4.014C-0.004,4.28 0.145,4.446 0.304,4.623C0.319,4.64 0.335,4.657 0.35,4.675C0.45,4.787 0.565,4.784 0.687,4.78C0.708,4.78 0.73,4.779 0.75,4.779C0.762,4.779 0.774,4.78 0.785,4.78C0.889,4.784 1,4.784 1.138,4.78C1.211,4.778 1.286,4.772 1.358,4.767C1.38,4.765 1.402,4.764 1.423,4.762C1.422,4.707 1.389,4.67 1.35,4.627C1.318,4.591 1.285,4.555 1.27,4.505C1.254,4.45 1.2,4.402 1.148,4.356C1.133,4.342 1.118,4.329 1.104,4.315C0.916,4.134 0.83,3.917 0.834,3.633C0.842,3.029 0.841,2.415 0.839,1.821C0.839,1.586 0.838,1.352 0.838,1.118L0.839,1.099C0.839,0.882 0.839,0.665 0.838,0.449C0.836,-0.172 0.835,-0.812 0.846,-1.443C0.848,-1.537 0.822,-1.623 0.797,-1.706C0.775,-1.782 0.751,-1.86 0.748,-1.943C0.721,-1.971 0.696,-2.002 0.67,-2.031C0.613,-2.1 0.553,-2.17 0.481,-2.214C0.306,-2.319 0.168,-2.463 0.034,-2.604C-0.041,-2.682 -0.119,-2.764 -0.202,-2.837C-0.328,-2.946 -0.391,-3.096 -0.389,-3.282C-0.389,-3.345 -0.391,-3.41 -0.393,-3.473C-0.394,-3.512 -0.395,-3.551 -0.396,-3.59C-0.397,-3.645 -0.427,-3.67 -0.491,-3.673C-0.555,-3.676 -0.62,-3.675 -0.681,-3.673L-0.711,-3.673C-0.767,-3.672 -0.79,-3.645 -0.79,-3.579C-0.789,-3.396 -0.789,-3.212 -0.788,-3.028C-0.788,-2.844 -0.788,-2.66 -0.787,-2.476C-0.786,-2.265 -0.704,-2.117 -0.537,-2.024C-0.508,-2.009 -0.482,-1.986 -0.457,-1.965C-0.425,-1.938 -0.396,-1.912 -0.362,-1.901C-0.146,-1.829 -0.082,-1.65 -0.03,-1.458C-0.005,-1.36 -0.002,-1.257 -0.002,-1.15C0,-0.397 0,0.357 0,1.111" style="fill:rgb(81,57,61);fill-rule:nonzero;"/>
            </g>
            <g transform="matrix(1,0,0,1,9.70363,13.131)">
                <path d="M0,-0.42C-0.026,-0.459 -0.051,-0.499 -0.076,-0.539C-0.178,-0.702 -0.282,-0.87 -0.476,-0.958C-0.593,-1.011 -0.681,-1.113 -0.71,-1.23C-0.713,-1.244 -0.718,-1.249 -0.721,-1.249L-0.722,-1.249C-0.725,-1.249 -0.73,-1.247 -0.736,-1.243C-0.772,-1.213 -0.847,-0.979 -0.832,-0.942L-0.818,-0.906C-0.797,-0.852 -0.775,-0.797 -0.745,-0.749C-0.526,-0.413 -0.442,-0.086 -0.488,0.253C-0.499,0.328 -0.47,0.39 -0.44,0.454C-0.429,0.478 -0.417,0.503 -0.408,0.528C-0.323,0.748 -0.173,0.829 0.095,0.798C0.154,0.791 0.178,0.765 0.18,0.705C0.182,0.626 0.182,0.55 0.181,0.452L0.181,0.292C0.235,0.086 0.171,-0.167 0,-0.42" style="fill:rgb(96,85,96);fill-rule:nonzero;"/>
            </g>
            <g transform="matrix(1,0,0,1,11.0816,13.938)">
                <path d="M0,-1.991C-0.016,-1.999 -0.05,-1.996 -0.06,-1.986C-0.119,-1.932 -0.178,-1.875 -0.235,-1.82C-0.313,-1.744 -0.393,-1.665 -0.476,-1.593C-0.669,-1.423 -0.777,-1.196 -0.881,-0.975C-0.904,-0.925 -0.927,-0.876 -0.951,-0.827C-0.968,-0.794 -0.97,-0.749 -0.97,-0.709C-0.973,-0.503 -0.973,-0.334 -0.97,-0.18C-0.968,-0.083 -0.898,-0.016 -0.79,-0.01C-0.77,-0.009 -0.75,-0.009 -0.729,-0.01L-0.703,-0.01C-0.54,0.008 -0.447,-0.046 -0.387,-0.202C-0.376,-0.23 -0.367,-0.253 -0.359,-0.274C-0.313,-0.387 -0.3,-0.417 -0.301,-0.665C-0.301,-0.725 -0.294,-0.784 -0.281,-0.841L-0.271,-0.883C-0.217,-1.106 -0.163,-1.338 -0.032,-1.534C0.055,-1.662 0.051,-1.789 0.037,-1.941C0.035,-1.958 0.017,-1.984 0,-1.991" style="fill:rgb(96,85,96);fill-rule:nonzero;"/>
            </g>
            <g transform="matrix(1,0,0,1,11.0566,13.226)">
                <path d="M0,0.702C0.013,0.702 0.026,0.701 0.04,0.701C0.045,0.701 0.05,0.701 0.056,0.702C0.282,0.709 0.397,0.706 0.45,0.653C0.504,0.6 0.506,0.486 0.505,0.288C0.506,0.263 0.507,0.24 0.508,0.217C0.512,0.158 0.515,0.106 0.515,0.054C0.514,0.033 0.506,0.008 0.494,-0.007L0.492,-0.007C0.483,-0.007 0.462,-0.002 0.455,0.004C0.293,0.156 0.123,0.32 -0.081,0.519L-0.085,0.522C-0.112,0.549 -0.146,0.582 -0.15,0.612C-0.154,0.638 -0.128,0.689 -0.112,0.694C-0.079,0.705 -0.04,0.705 0,0.702" style="fill:rgb(188,189,202);fill-rule:nonzero;"/>
            </g>
            <g transform="matrix(1,0,0,1,12.7316,13.928)">
                <path d="M0,-1.368L-0.017,-1.368C-0.05,-1.368 -0.095,-1.367 -0.111,-1.351C-0.192,-1.269 -0.289,-1.203 -0.382,-1.139C-0.501,-1.057 -0.624,-0.973 -0.715,-0.854C-0.73,-0.833 -0.746,-0.815 -0.763,-0.796C-0.81,-0.741 -0.854,-0.69 -0.873,-0.61C-0.882,-0.573 -0.892,-0.536 -0.903,-0.5C-0.936,-0.383 -0.967,-0.273 -0.952,-0.153C-0.946,-0.103 -0.874,-0.019 -0.832,-0.012C-0.788,-0.006 -0.744,-0.003 -0.72,-0.001L-0.693,-0.001C-0.653,0 -0.625,0 -0.605,0C-0.594,0 -0.584,0 -0.575,-0.001C-0.446,-0.007 -0.412,-0.037 -0.363,-0.193C-0.35,-0.235 -0.34,-0.279 -0.331,-0.321C-0.305,-0.435 -0.279,-0.552 -0.195,-0.639C-0.066,-0.772 -0.031,-0.934 0.005,-1.104C0.02,-1.172 0.035,-1.242 0.056,-1.309C0.06,-1.321 0.058,-1.334 0.05,-1.344C0.039,-1.36 0.021,-1.368 0,-1.368" style="fill:rgb(96,85,96);fill-rule:nonzero;"/>
            </g>
            <g transform="matrix(1,0,0,1,9.08463,13.351)">
                <path d="M0,0.422C-0.018,0.39 -0.035,0.358 -0.059,0.333L-0.073,0.318C-0.204,0.181 -0.34,0.039 -0.514,-0.05C-0.551,-0.069 -0.581,-0.099 -0.61,-0.129L-0.619,-0.138C-0.634,-0.153 -0.641,-0.153 -0.641,-0.153C-0.641,-0.153 -0.646,-0.151 -0.651,-0.134C-0.656,-0.122 -0.66,-0.109 -0.663,-0.097C-0.679,-0.027 -0.652,0.032 -0.623,0.094C-0.598,0.148 -0.572,0.203 -0.571,0.269C-0.568,0.548 -0.556,0.575 -0.286,0.575L-0.13,0.575C-0.106,0.575 -0.082,0.575 -0.059,0.574C-0.039,0.573 -0.017,0.555 -0.002,0.528C0.017,0.495 0.02,0.459 0.008,0.436L0,0.422Z" style="fill:rgb(188,189,202);fill-rule:nonzero;"/>
            </g>
        </g>
    </g>
</svg>
