<?xml version="1.0" encoding="UTF-8" standalone="no"?>
<!DOCTYPE svg PUBLIC "-//W3C//DTD SVG 1.1//EN" "http://www.w3.org/Graphics/SVG/1.1/DTD/svg11.dtd">
<svg width="100%" height="100%" viewBox="0 0 20 20" version="1.1" xmlns="http://www.w3.org/2000/svg" xmlns:xlink="http://www.w3.org/1999/xlink" xml:space="preserve" xmlns:serif="http://www.serif.com/" style="fill-rule:evenodd;clip-rule:evenodd;stroke-linejoin:round;stroke-miterlimit:2;">
    <g transform="matrix(0.872689,0,0,0.872689,1.27311,1.27311)">
        <g id="Toramat">
            <g transform="matrix(1,0,0,1,10.3468,12.4535)">
                <path d="M0,5.822C0.032,5.798 0.066,5.773 0.103,5.762C0.191,5.737 0.272,5.673 0.35,5.611C0.371,5.594 0.393,5.577 0.414,5.561C0.614,5.41 0.731,5.266 0.795,5.094C0.833,4.991 0.878,4.888 0.921,4.79C0.965,4.691 1.011,4.587 1.049,4.483C1.12,4.289 1.226,4.106 1.328,3.93C1.383,3.836 1.439,3.739 1.49,3.641C1.611,3.406 1.759,3.223 1.943,3.081C2.032,3.013 2.119,2.941 2.204,2.871C2.36,2.742 2.522,2.608 2.696,2.494C2.974,2.311 3.088,2.106 3.131,1.71C3.133,1.693 3.134,1.679 3.133,1.667C3.122,1.55 3.177,1.465 3.239,1.391C3.278,1.343 3.315,1.291 3.352,1.241C3.398,1.177 3.446,1.111 3.5,1.05C3.586,0.954 3.618,0.868 3.608,0.764C3.6,0.685 3.6,0.602 3.609,0.519C3.627,0.354 3.586,0.228 3.472,0.099C3.436,0.059 3.41,0.025 3.39,-0.002C3.366,-0.033 3.348,-0.057 3.336,-0.058C3.319,-0.058 3.281,-0.022 3.224,0.032L3.21,0.046C3.182,0.072 3.155,0.099 3.127,0.126C3.087,0.167 3.045,0.209 3.001,0.247C2.95,0.293 2.926,0.328 2.925,0.362C2.923,0.39 2.938,0.419 2.974,0.465L2.974,0.648C2.973,0.893 2.972,1.137 2.97,1.382C2.97,1.402 2.956,1.429 2.936,1.44C2.909,1.454 2.878,1.47 2.841,1.47C2.81,1.466 2.763,1.439 2.753,1.406C2.739,1.361 2.739,1.313 2.739,1.256C2.738,1.166 2.738,1.075 2.738,0.984C2.738,0.857 2.773,0.668 2.703,0.567C2.538,0.633 2.387,0.878 2.239,0.995C2.07,1.129 1.886,1.245 1.749,1.415C1.673,1.51 1.572,1.559 1.474,1.607C1.444,1.622 1.414,1.636 1.385,1.652C1.305,1.696 1.212,1.69 1.136,1.634C1.116,1.62 1.097,1.602 1.079,1.585C1.05,1.557 1.021,1.531 0.99,1.519C0.872,1.476 0.806,1.386 0.743,1.299C0.715,1.26 0.686,1.22 0.652,1.185C0.519,1.047 0.518,0.892 0.518,0.742L0.518,0.677C0.517,0.633 0.517,0.589 0.517,0.544L0.518,0.484C0.517,0.475 0.518,0.464 0.518,0.455C0.519,0.432 0.52,0.412 0.516,0.393C0.512,0.379 0.498,0.363 0.485,0.35C0.479,0.354 0.471,0.359 0.466,0.364C0.443,0.387 0.419,0.41 0.394,0.433C0.337,0.486 0.279,0.541 0.235,0.604C0.173,0.691 0.088,0.705 0.006,0.719C-0.039,0.727 -0.081,0.734 -0.12,0.753C-0.313,0.849 -0.499,0.795 -0.679,0.741C-0.713,0.731 -0.746,0.721 -0.78,0.712C-0.928,0.673 -0.988,0.571 -1.051,0.443C-1.063,0.42 -1.083,0.396 -1.107,0.376C-1.119,0.367 -1.137,0.36 -1.16,0.357C-1.163,0.361 -1.168,0.37 -1.168,0.374L-1.171,0.442C-1.174,0.53 -1.177,0.621 -1.173,0.709C-1.163,0.915 -1.231,1.089 -1.381,1.244C-1.401,1.264 -1.421,1.284 -1.44,1.305C-1.486,1.355 -1.534,1.406 -1.587,1.45C-1.948,1.748 -2.068,1.747 -2.437,1.448C-2.503,1.396 -3.374,0.536 -3.387,0.664C-3.391,0.775 -3.392,0.887 -3.393,0.999C-3.394,1.096 -3.395,1.193 -3.397,1.291C-3.398,1.341 -3.411,1.393 -3.434,1.434C-3.448,1.46 -3.486,1.465 -3.52,1.47L-3.532,1.472C-3.552,1.472 -3.585,1.461 -3.593,1.44C-3.596,1.431 -3.599,1.423 -3.603,1.415C-3.618,1.378 -3.633,1.34 -3.633,1.3C-3.637,0.979 -3.637,0.719 -3.632,0.479C-3.631,0.398 -3.642,0.333 -3.701,0.278C-3.732,0.249 -3.762,0.219 -3.793,0.188C-3.83,0.15 -3.868,0.112 -3.908,0.077C-3.925,0.061 -3.942,0.043 -3.959,0.025C-4.018,-0.042 -4.06,-0.08 -4.116,-0.049C-4.172,-0.018 -4.206,0.07 -4.236,0.149L-4.247,0.179C-4.264,0.222 -4.264,0.275 -4.264,0.326L-4.264,0.36C-4.265,0.425 -4.264,0.49 -4.264,0.555C-4.263,0.65 -4.262,0.747 -4.266,0.844C-4.27,0.959 -4.236,1.046 -4.154,1.127C-4.132,1.15 -4.107,1.171 -4.082,1.193C-3.996,1.27 -3.906,1.35 -3.884,1.472C-3.874,1.53 -3.855,1.584 -3.835,1.64C-3.802,1.733 -3.768,1.829 -3.776,1.938C-3.789,2.113 -3.704,2.282 -3.561,2.369C-3.376,2.483 -3.208,2.621 -3.045,2.757C-2.895,2.881 -2.74,3.009 -2.572,3.116C-2.466,3.184 -2.378,3.279 -2.34,3.369C-2.288,3.49 -2.214,3.601 -2.144,3.708C-2.078,3.809 -2.009,3.913 -1.957,4.026C-1.795,4.379 -1.624,4.761 -1.471,5.157L-1.466,5.169C-1.433,5.254 -1.402,5.335 -1.336,5.389C-1.113,5.568 -0.862,5.722 -0.571,5.857C-0.56,5.857 -0.513,5.826 -0.492,5.797C-0.469,5.766 -0.454,5.719 -0.453,5.677C-0.451,5.302 -0.451,4.92 -0.452,4.551L-0.452,4.325C-0.452,4.316 -0.451,4.306 -0.45,4.297C-0.449,4.276 -0.447,4.253 -0.454,4.243C-0.54,4.116 -0.534,3.978 -0.527,3.845C-0.525,3.802 -0.523,3.758 -0.524,3.716C-0.531,3.452 -0.529,3.188 -0.526,2.943C-0.524,2.829 -0.567,2.739 -0.656,2.667C-0.71,2.624 -0.765,2.582 -0.82,2.54C-0.903,2.477 -0.989,2.411 -1.07,2.342C-1.205,2.227 -1.341,2.214 -1.485,2.304C-1.535,2.334 -1.601,2.367 -1.681,2.35C-1.711,2.343 -1.753,2.324 -1.771,2.294C-1.788,2.265 -1.79,2.217 -1.775,2.184C-1.731,2.087 -1.645,2.05 -1.562,2.015C-1.525,1.999 -1.489,1.983 -1.457,1.962C-1.384,1.916 -1.298,1.915 -1.21,1.963C-0.975,2.089 -0.676,2.268 -0.438,2.531C-0.391,2.582 -0.36,2.604 -0.332,2.605C-0.306,2.605 -0.276,2.586 -0.232,2.54C-0.006,2.305 0.224,2.085 0.539,1.972C0.544,1.97 0.55,1.966 0.556,1.962C0.563,1.956 0.571,1.951 0.58,1.947C0.64,1.925 0.736,1.946 0.838,2.007C0.926,2.059 1.034,2.152 1.046,2.244C1.051,2.278 1.02,2.325 0.991,2.34C0.964,2.355 0.905,2.361 0.877,2.337C0.667,2.165 0.474,2.27 0.293,2.394C0.201,2.458 0.12,2.542 0.041,2.622C-0.002,2.667 -0.046,2.712 -0.092,2.754C-0.174,2.829 -0.21,2.916 -0.208,3.036C-0.204,3.361 -0.204,3.693 -0.205,4.014C-0.205,4.138 -0.206,4.263 -0.206,4.388L-0.206,4.712C-0.207,5.001 -0.207,5.301 -0.204,5.595C-0.204,5.62 -0.207,5.648 -0.21,5.673C-0.218,5.745 -0.226,5.811 -0.175,5.852C-0.114,5.902 -0.068,5.873 0,5.822" style="fill:rgb(133,91,89);fill-rule:nonzero;"/>
            </g>
            <g transform="matrix(1,0,0,1,17.8298,13.9275)">
                <path d="M0,-2.466C-0.289,-2.609 -0.588,-2.756 -0.902,-2.872C-0.917,-2.878 -0.93,-2.88 -0.942,-2.88C-0.977,-2.88 -1.002,-2.858 -1.023,-2.811C-1.078,-2.685 -1.14,-2.551 -1.22,-2.428C-1.253,-2.376 -1.285,-2.319 -1.315,-2.264C-1.401,-2.107 -1.49,-1.945 -1.655,-1.86C-1.788,-1.793 -1.808,-1.721 -1.804,-1.584C-1.801,-1.506 -1.802,-1.426 -1.802,-1.349C-1.803,-1.314 -1.803,-1.28 -1.803,-1.246L-1.803,-1.097C-1.802,-0.972 -1.802,-0.843 -1.804,-0.716C-1.805,-0.657 -1.778,-0.609 -1.725,-0.575C-1.661,-0.533 -1.592,-0.492 -1.521,-0.465C-1.327,-0.395 -1.132,-0.316 -0.944,-0.239C-0.703,-0.14 -0.454,-0.038 -0.203,0.045C-0.094,0.082 0.014,0.125 0.119,0.168C0.243,0.218 0.371,0.271 0.502,0.31C0.741,0.382 0.993,0.414 1.219,0.165C1.421,-0.058 1.64,-0.271 1.853,-0.478C2.204,-0.82 2.568,-1.174 2.862,-1.581C2.876,-1.601 2.891,-1.623 2.905,-1.644C2.934,-1.689 2.965,-1.736 3.004,-1.775C3.039,-1.811 3.08,-1.841 3.12,-1.871C3.154,-1.896 3.189,-1.922 3.22,-1.951C3.27,-1.998 3.293,-2.054 3.287,-2.11C3.281,-2.174 3.239,-2.233 3.17,-2.277C3.104,-2.317 3.037,-2.319 2.964,-2.283C2.924,-2.264 2.883,-2.245 2.841,-2.226C2.74,-2.179 2.636,-2.132 2.546,-2.068C2.418,-1.977 2.272,-1.945 2.131,-1.914C2.044,-1.895 1.955,-1.875 1.872,-1.842C1.731,-1.786 1.55,-1.793 1.386,-1.861C1.277,-1.905 1.168,-1.953 1.063,-2.001C0.942,-2.054 0.817,-2.11 0.693,-2.16C0.654,-2.176 0.617,-2.2 0.58,-2.224C0.506,-2.272 0.436,-2.317 0.371,-2.283C0.297,-2.244 0.247,-2.148 0.198,-2.054C0.186,-2.032 0.175,-2.009 0.162,-1.988C0.074,-1.829 0.005,-1.657 -0.062,-1.492C-0.105,-1.385 -0.15,-1.275 -0.199,-1.168C-0.22,-1.124 -0.214,-1.101 -0.194,-1.064C-0.15,-0.984 -0.104,-0.898 -0.066,-0.809C-0.053,-0.779 -0.067,-0.726 -0.089,-0.703C-0.111,-0.68 -0.165,-0.657 -0.196,-0.671C-0.33,-0.734 -0.43,-0.838 -0.471,-0.956C-0.504,-1.052 -0.497,-1.15 -0.452,-1.24C-0.396,-1.354 -0.349,-1.475 -0.303,-1.593C-0.213,-1.824 -0.12,-2.063 0.052,-2.261C0.079,-2.292 0.09,-2.33 0.083,-2.368C0.074,-2.408 0.044,-2.444 0,-2.466" style="fill:rgb(161,152,129);fill-rule:nonzero;"/>
            </g>
            <g transform="matrix(1,0,0,1,16.6718,10.0745)">
                <path d="M0,0.046C0.002,0.022 0.004,-0.002 0.003,-0.026C0.002,-0.113 0,-0.2 -0.003,-0.288C-0.008,-0.518 -0.013,-0.755 -0.007,-0.989C-0.003,-1.146 -0.047,-1.289 -0.157,-1.465C-0.17,-1.485 -0.189,-1.505 -0.207,-1.523C-0.237,-1.552 -0.267,-1.582 -0.277,-1.621C-0.306,-1.728 -0.371,-1.736 -0.511,-1.734L-0.515,-1.734L-0.519,-1.735C-0.546,-1.744 -0.573,-1.749 -0.599,-1.749C-0.727,-1.749 -0.821,-1.637 -0.897,-1.521C-0.983,-1.392 -1.023,-1.25 -1.02,-1.086C-1.015,-0.81 -1.016,-0.529 -1.016,-0.258C-1.017,-0.041 -1.018,0.184 -1.015,0.406C-1.015,0.457 -1.018,0.509 -1.022,0.559C-1.03,0.687 -1.039,0.806 -0.987,0.919C-0.936,1.031 -0.937,1.147 -0.937,1.258C-0.938,1.338 -0.939,1.413 -0.921,1.488C-0.901,1.574 -0.865,1.657 -0.822,1.748C-0.812,1.769 -0.779,1.785 -0.737,1.79C-0.68,1.795 -0.624,1.78 -0.603,1.753C-0.347,1.412 -0.169,1.118 -0.043,0.827C-0.033,0.804 -0.023,0.782 -0.013,0.76C0.067,0.583 0.142,0.417 0.02,0.221C-0.009,0.174 -0.004,0.109 0,0.046M-0.432,0.104C-0.442,0.334 -0.452,0.564 -0.464,0.794C-0.465,0.816 -0.49,0.843 -0.511,0.846L-0.516,0.846C-0.535,0.846 -0.551,0.834 -0.565,0.824C-0.622,0.783 -0.681,0.735 -0.681,0.655C-0.681,0.206 -0.679,-0.242 -0.678,-0.691C-0.678,-0.771 -0.624,-0.819 -0.569,-0.861C-0.554,-0.872 -0.536,-0.886 -0.516,-0.886C-0.515,-0.886 -0.513,-0.886 -0.512,-0.885C-0.491,-0.884 -0.468,-0.856 -0.465,-0.835L-0.46,-0.795C-0.452,-0.73 -0.443,-0.663 -0.442,-0.597C-0.44,-0.445 -0.44,-0.291 -0.441,-0.142L-0.441,0.008L-0.428,0.009L-0.432,0.104Z" style="fill:rgb(218,145,65);fill-rule:nonzero;"/>
            </g>
            <g transform="matrix(1,0,0,1,13.9438,11.7475)">
                <path d="M0,2.338C0.099,2.34 0.198,2.339 0.297,2.338L0.445,2.338C0.52,2.338 0.597,2.338 0.673,2.341L0.69,2.341C0.831,2.341 0.917,2.287 0.994,2.151C1.112,1.942 1.263,1.749 1.565,1.748C1.691,1.748 1.765,1.663 1.767,1.514C1.769,1.402 1.768,1.291 1.768,1.178L1.766,1.034C1.766,1.01 1.765,0.984 1.764,0.96C1.763,0.905 1.761,0.848 1.768,0.792C1.794,0.564 1.73,0.354 1.656,0.159C1.652,0.149 1.649,0.138 1.644,0.127C1.639,0.109 1.632,0.09 1.624,0.073C1.606,0.033 1.582,0.009 1.555,0.004C1.527,-0.003 1.501,0.016 1.485,0.032C1.24,0.277 1.017,0.554 0.805,0.879C0.729,0.995 0.629,1.05 0.505,1.04C0.444,1.035 0.379,1.032 0.318,1.04C0.287,1.045 0.251,1.061 0.253,1.114C0.254,1.149 0.252,1.184 0.251,1.218L0.249,1.259C0.248,1.307 0.25,1.356 0.251,1.404C0.255,1.518 0.259,1.635 0.224,1.738C0.189,1.842 0.114,1.932 0.043,2.019C0.012,2.056 -0.02,2.095 -0.048,2.133C-0.054,2.142 -0.062,2.151 -0.07,2.159C-0.074,2.162 -0.077,2.167 -0.081,2.17C-0.136,2.231 -0.145,2.271 -0.114,2.306C-0.098,2.325 -0.055,2.337 0,2.338" style="fill:rgb(113,102,84);fill-rule:nonzero;"/>
            </g>
            <g transform="matrix(1,0,0,1,21.4398,10.3575)">
                <path d="M0,-2.539C-0.049,-2.636 -0.096,-2.728 -0.188,-2.788C-0.392,-2.921 -0.555,-3.031 -0.701,-3.133C-0.737,-3.159 -0.758,-3.152 -0.801,-3.129C-1.122,-2.947 -1.437,-2.868 -1.768,-2.89C-2.122,-2.914 -2.886,-3.015 -2.894,-2.495C-2.897,-2.34 -2.896,-2.181 -2.894,-2.028C-2.894,-1.927 -2.893,-1.825 -2.894,-1.723L-2.894,-1.684C-2.894,-1.539 -2.894,-1.388 -2.905,-1.24C-2.907,-1.214 -2.92,-1.192 -2.942,-1.176C-2.969,-1.156 -3.006,-1.15 -3.041,-1.159C-3.062,-1.165 -3.125,-1.193 -3.126,-1.23C-3.13,-1.437 -3.129,-1.648 -3.129,-1.852C-3.129,-1.852 -3.129,-1.98 -3.138,-1.98L-3.138,-2.049C-3.14,-2.285 -3.143,-2.52 -3.146,-2.756C-3.287,-2.821 -3.431,-2.811 -3.584,-2.801C-3.68,-2.794 -3.78,-2.788 -3.878,-2.802C-3.893,-2.804 -3.908,-2.804 -3.926,-2.804C-3.941,-2.802 -3.957,-2.803 -3.974,-2.805C-3.985,-2.806 -3.997,-2.807 -4.008,-2.807C-4.089,-2.807 -4.154,-2.773 -4.204,-2.703C-4.235,-2.661 -4.269,-2.619 -4.302,-2.576C-4.376,-2.483 -4.453,-2.385 -4.505,-2.28C-4.531,-2.226 -4.572,-2.182 -4.611,-2.139C-4.661,-2.086 -4.707,-2.035 -4.712,-1.978C-4.717,-1.914 -4.68,-1.847 -4.641,-1.775C-4.618,-1.732 -4.594,-1.688 -4.578,-1.643C-4.556,-1.578 -4.543,-1.5 -4.54,-1.405C-4.537,-1.334 -4.54,-1.262 -4.543,-1.191C-4.548,-1.054 -4.554,-0.912 -4.517,-0.786C-4.461,-0.592 -4.453,-0.407 -4.449,-0.217C-4.448,-0.18 -4.447,-0.143 -4.445,-0.106C-4.442,0.016 -4.437,0.143 -4.448,0.267C-4.458,0.402 -4.404,0.486 -4.273,0.541C-4.252,0.55 -4.23,0.56 -4.208,0.572C-4.16,0.596 -4.108,0.62 -4.066,0.619C-4.015,0.616 -4.012,0.587 -4.009,0.528C-4.007,0.498 -4.006,0.466 -3.992,0.44C-3.914,0.299 -3.813,0.206 -3.674,0.145C-3.393,0.023 -3.135,-0.144 -2.899,-0.305C-2.853,-0.337 -2.808,-0.37 -2.764,-0.403C-2.668,-0.473 -2.57,-0.546 -2.463,-0.6C-2.21,-0.73 -1.973,-0.893 -1.745,-1.051C-1.654,-1.113 -1.559,-1.179 -1.466,-1.241C-1.334,-1.328 -1.196,-1.409 -1.062,-1.488C-0.847,-1.614 -0.625,-1.745 -0.419,-1.906C-0.196,-1.981 -0.112,-2.167 -0.023,-2.363C-0.014,-2.385 -0.004,-2.406 0.005,-2.427C0.025,-2.468 0.024,-2.492 0,-2.539" style="fill:rgb(113,102,84);fill-rule:nonzero;"/>
            </g>
            <g transform="matrix(1,0,0,1,6.20376,11.7725)">
                <path d="M0,2.27C-0.015,2.245 -0.026,2.217 -0.038,2.191C-0.059,2.142 -0.079,2.097 -0.111,2.071C-0.319,1.909 -0.397,1.692 -0.363,1.369C-0.355,1.293 -0.359,1.214 -0.363,1.137L-0.365,1.084C-0.367,1.041 -0.391,1.016 -0.433,1.014C-0.479,1.012 -0.527,1.009 -0.573,1.016C-0.71,1.033 -0.826,0.985 -0.925,0.861C-0.948,0.832 -0.974,0.805 -1,0.779C-1.042,0.736 -1.085,0.693 -1.114,0.64C-1.226,0.443 -1.384,0.293 -1.55,0.135C-1.61,0.078 -1.671,0.019 -1.731,-0.042C-1.742,-0.009 -1.751,0.024 -1.76,0.056C-1.789,0.161 -1.816,0.26 -1.912,0.331C-1.936,0.348 -1.95,0.402 -1.951,0.441C-1.953,0.676 -1.952,0.911 -1.952,1.145L-1.952,1.547C-1.952,1.59 -1.933,1.617 -1.89,1.637C-1.871,1.646 -1.852,1.655 -1.833,1.665C-1.782,1.691 -1.73,1.717 -1.677,1.728C-1.462,1.772 -1.249,1.848 -1.15,2.109C-1.134,2.151 -1.093,2.187 -1.052,2.222L-1.029,2.243C-0.998,2.27 -0.956,2.307 -0.923,2.308C-0.654,2.312 -0.365,2.31 -0.011,2.304C-0.002,2.304 0.005,2.302 0.007,2.298C0.009,2.294 0.008,2.283 0,2.27" style="fill:rgb(113,102,84);fill-rule:nonzero;"/>
            </g>
            <g transform="matrix(1,0,0,1,3.55676,8.93946)">
                <path d="M0,2.327C0.003,2.334 0.005,2.34 0.008,2.345C0.039,2.392 0.068,2.44 0.098,2.488C0.181,2.625 0.268,2.767 0.388,2.881C0.425,2.915 0.476,2.929 0.521,2.918C0.556,2.908 0.583,2.884 0.594,2.85C0.609,2.802 0.628,2.753 0.646,2.707C0.694,2.583 0.744,2.455 0.743,2.316C0.741,2.032 0.742,1.748 0.742,1.463L0.742,1.093L0.747,1.093C0.747,0.986 0.746,0.879 0.745,0.772C0.745,0.49 0.743,0.198 0.75,-0.089C0.754,-0.222 0.713,-0.322 0.618,-0.415C0.601,-0.431 0.585,-0.448 0.569,-0.464C0.542,-0.493 0.513,-0.523 0.483,-0.549C0.442,-0.584 0.358,-0.602 0.278,-0.602C0.208,-0.602 0.14,-0.589 0.105,-0.56C-0.06,-0.424 -0.155,-0.276 -0.163,-0.142C-0.17,-0.037 -0.194,0.066 -0.217,0.165C-0.247,0.291 -0.277,0.422 -0.27,0.556C-0.253,0.849 -0.255,1.073 -0.277,1.28C-0.314,1.643 -0.228,1.978 -0.012,2.302C-0.006,2.31 -0.003,2.319 0,2.327M0.175,0.442C0.175,0.36 0.236,0.312 0.285,0.273C0.303,0.258 0.323,0.243 0.343,0.247C0.365,0.252 0.386,0.281 0.388,0.302L0.391,0.336C0.4,0.418 0.409,0.504 0.41,0.588C0.412,0.713 0.412,0.841 0.412,0.964C0.412,1.008 0.412,1.053 0.411,1.097L0.425,1.098L0.417,1.266C0.408,1.488 0.398,1.709 0.387,1.929L0.387,1.93C0.386,1.952 0.361,1.979 0.339,1.982L0.334,1.982C0.316,1.982 0.298,1.969 0.284,1.958C0.239,1.923 0.173,1.872 0.173,1.787C0.173,1.309 0.173,0.869 0.175,0.442" style="fill:rgb(218,145,65);fill-rule:nonzero;"/>
            </g>
            <g transform="matrix(1,0,0,1,4.54176,8.90146)">
                <path d="M0,2.106C-0.002,2.311 0.052,2.475 0.169,2.622C0.21,2.673 0.249,2.727 0.287,2.779C0.359,2.877 0.433,2.979 0.522,3.067C0.622,3.166 0.708,3.28 0.792,3.391C0.832,3.444 0.873,3.497 0.914,3.549C0.931,3.57 0.953,3.596 0.977,3.606C1.013,3.623 1.063,3.646 1.099,3.639C1.331,3.606 1.412,3.516 1.409,3.294C1.407,3.192 1.39,3.135 1.292,3.086C1.192,3.036 1.112,2.947 1.035,2.862L1.002,2.826C0.958,2.778 0.917,2.702 0.924,2.642C0.935,2.54 0.907,2.442 0.881,2.348C0.861,2.279 0.841,2.209 0.835,2.136C0.826,2.012 0.828,1.886 0.83,1.764C0.831,1.711 0.832,1.658 0.832,1.605L0.832,0.519L0.83,0.498L0.83,-1.091C0.83,-1.109 0.831,-1.128 0.831,-1.146C0.833,-1.191 0.834,-1.237 0.827,-1.28C0.8,-1.436 0.686,-1.54 0.546,-1.54C0.538,-1.54 0.53,-1.539 0.522,-1.539C0.467,-1.534 0.405,-1.522 0.37,-1.47C0.32,-1.397 0.272,-1.323 0.224,-1.248C0.178,-1.177 0.131,-1.106 0.084,-1.036C0.025,-0.949 -0.001,-0.856 0,-0.735C0.004,0.047 0.008,1.076 0,2.106M0.434,-0.568C0.434,-0.616 0.445,-0.648 0.468,-0.665C0.479,-0.674 0.5,-0.682 0.531,-0.672C0.58,-0.657 0.621,-0.605 0.642,-0.566C0.664,-0.522 0.668,-0.467 0.668,-0.419C0.67,-0.254 0.67,-0.089 0.67,0.076L0.67,0.806C0.669,1.035 0.669,1.265 0.671,1.494C0.671,1.587 0.633,1.657 0.554,1.71L0.547,1.714C0.534,1.723 0.519,1.733 0.503,1.733C0.5,1.733 0.498,1.733 0.495,1.732C0.467,1.726 0.453,1.686 0.452,1.681L0.45,1.676C0.441,1.648 0.43,1.616 0.43,1.585C0.431,0.867 0.432,0.149 0.434,-0.568" style="fill:rgb(161,152,129);fill-rule:nonzero;"/>
            </g>
            <g transform="matrix(1,0,0,1,6.25276,3.50346)">
                <path d="M0,0.836C-0.019,0.856 -0.042,0.88 -0.056,0.906C-0.073,0.94 -0.08,0.966 -0.079,0.985C-0.075,1.028 -0.067,1.075 -0.045,1.102C-0.022,1.131 0.021,1.119 0.052,1.096C0.303,0.903 0.591,0.728 0.986,0.529C1.311,0.364 1.692,0.201 2.061,0.248C2.12,0.247 2.178,0.248 2.229,0.248C2.341,0.248 2.429,0.248 2.516,0.247C2.539,0.246 2.56,0.238 2.573,0.224C2.583,0.213 2.587,0.199 2.586,0.183C2.572,-0.003 2.5,-0.151 2.372,-0.258C2.346,-0.28 2.293,-0.282 2.25,-0.284C2.024,-0.295 1.853,-0.27 1.702,-0.2L1.697,-0.198L1.691,-0.199C1.669,-0.201 1.648,-0.202 1.627,-0.202C1.41,-0.202 1.234,-0.095 1.049,0.016C1.019,0.035 0.989,0.053 0.959,0.07C0.937,0.083 0.918,0.1 0.897,0.119C0.868,0.144 0.838,0.171 0.802,0.184C0.516,0.288 0.314,0.503 0.119,0.711C0.08,0.753 0.04,0.795 0,0.836" style="fill:rgb(113,102,84);fill-rule:nonzero;"/>
            </g>
            <g transform="matrix(1,0,0,1,5.88776,4.02646)">
                <path d="M0,-1.178L-0.137,-1.034C-0.229,-0.936 -0.322,-0.837 -0.415,-0.739C-0.498,-0.652 -0.481,-0.56 -0.452,-0.497C-0.447,-0.485 -0.441,-0.473 -0.435,-0.461C-0.406,-0.401 -0.375,-0.339 -0.388,-0.26C-0.399,-0.188 -0.435,-0.152 -0.494,-0.152L-0.495,-0.152C-0.527,-0.152 -0.572,-0.166 -0.592,-0.192C-0.617,-0.226 -0.633,-0.266 -0.649,-0.305L-0.657,-0.325C-0.753,-0.561 -0.734,-0.746 -0.599,-0.926C-0.519,-1.032 -0.423,-1.114 -0.331,-1.195C-0.308,-1.215 -0.284,-1.234 -0.262,-1.255C-0.115,-1.385 -0.103,-1.395 -0.223,-1.535C-0.261,-1.58 -0.307,-1.64 -0.322,-1.705C-0.359,-1.866 -0.391,-2.044 -0.425,-2.264C-0.435,-2.327 -0.465,-2.352 -0.534,-2.352C-0.569,-2.353 -0.602,-2.353 -0.633,-2.353C-0.739,-2.353 -0.832,-2.351 -0.919,-2.347C-1.091,-2.34 -1.156,-2.273 -1.159,-2.101C-1.16,-1.954 -1.16,-1.806 -1.159,-1.662L-1.158,-1.522C-1.158,-1.329 -1.157,-1.136 -1.156,-0.943C-1.155,-0.881 -1.156,-0.82 -1.156,-0.758C-1.157,-0.613 -1.158,-0.464 -1.147,-0.318C-1.14,-0.229 -1.123,-0.138 -1.107,-0.051C-1.089,0.044 -1.071,0.143 -1.065,0.242C-1.052,0.479 -0.969,0.662 -0.805,0.819C-0.727,0.893 -0.665,0.956 -0.615,1.007C-0.504,1.119 -0.449,1.175 -0.404,1.175C-0.365,1.175 -0.321,1.129 -0.239,1.047C-0.184,0.992 -0.109,0.916 -0.006,0.826C0.076,0.753 0.059,0.695 -0.004,0.605C-0.06,0.528 -0.059,0.429 -0.003,0.355C0.037,0.301 0.077,0.245 0.116,0.189C0.267,-0.027 0.423,-0.25 0.68,-0.38C0.705,-0.393 0.722,-0.412 0.728,-0.435C0.734,-0.458 0.728,-0.484 0.712,-0.507C0.466,-0.852 0.464,-0.856 0,-1.178" style="fill:rgb(218,145,65);fill-rule:nonzero;"/>
            </g>
            <g transform="matrix(1,0,0,1,8.85076,8.47346)">
                <path d="M0,3.257C0,2.002 0.001,0.747 0.003,-0.508C0.003,-0.533 0.002,-0.558 0.001,-0.583C-0.003,-0.687 -0.008,-0.795 0.068,-0.893C0.079,-0.906 0.082,-0.943 0.074,-0.963C0.057,-1.005 0.041,-1.047 0.025,-1.089C-0.026,-1.221 -0.079,-1.358 -0.15,-1.48C-0.221,-1.601 -0.313,-1.715 -0.401,-1.824C-0.431,-1.861 -0.462,-1.898 -0.491,-1.936C-0.554,-2.017 -0.642,-2.048 -0.744,-2.083L-0.761,-2.089C-0.979,-2.166 -1.204,-2.158 -1.422,-2.153C-1.53,-2.149 -1.643,-2.146 -1.753,-2.153L-1.754,-2.153C-1.792,-2.153 -1.884,-2.05 -1.887,-2.004C-1.89,-1.968 -1.889,-1.931 -1.889,-1.895L-1.889,-1.861C-1.889,-1.601 -1.889,-1.341 -1.888,-1.082C-1.887,-0.324 -1.886,0.458 -1.894,1.228C-1.895,1.394 -1.834,1.513 -1.695,1.614C-1.638,1.655 -1.573,1.688 -1.509,1.719C-1.489,1.73 -1.469,1.74 -1.448,1.751C-1.423,1.764 -1.396,1.775 -1.369,1.786C-1.352,1.793 -1.336,1.8 -1.319,1.808C-1.302,1.815 -1.286,1.816 -1.275,1.809C-1.265,1.802 -1.26,1.789 -1.26,1.773C-1.259,1.587 -1.258,1.402 -1.258,1.216C-1.258,0.951 -1.257,0.686 -1.256,0.421L-1.256,0.374C-1.257,0.308 -1.258,0.239 -1.237,0.178C-1.222,0.137 -1.183,0.108 -1.145,0.081C-1.13,0.069 -1.115,0.058 -1.102,0.046L-1.086,0.032L-1.038,0.087C-1.007,0.121 -0.976,0.156 -0.947,0.192C-0.936,0.206 -0.938,0.224 -0.939,0.24C-0.939,0.245 -0.94,0.249 -0.94,0.253L-0.939,0.635C-0.938,1.038 -0.938,1.442 -0.939,1.846C-0.939,1.959 -1.056,2.073 -1.179,2.081C-1.19,2.082 -1.201,2.083 -1.213,2.084C-1.269,2.089 -1.332,2.093 -1.38,2.068C-1.424,2.046 -1.468,2.024 -1.512,2.003C-1.695,1.913 -1.884,1.821 -2.023,1.652C-2.099,1.56 -2.131,1.479 -2.131,1.38C-2.128,0.961 -2.128,0.536 -2.128,0.124L-2.128,-1.854C-2.128,-1.923 -2.128,-2.01 -2.139,-2.091C-2.144,-2.131 -2.172,-2.154 -2.217,-2.154C-2.249,-2.154 -2.282,-2.156 -2.315,-2.157C-2.347,-2.158 -2.38,-2.16 -2.413,-2.16C-2.443,-2.16 -2.474,-2.159 -2.504,-2.155C-2.737,-2.13 -2.878,-2.039 -2.977,-1.852C-3.106,-1.608 -3.165,-1.38 -3.164,-1.135C-3.16,-0.467 -3.161,0.212 -3.162,0.869C-3.163,1.102 -3.163,1.335 -3.163,1.568C-3.163,1.6 -3.161,1.636 -3.158,1.67C-3.15,1.755 -3.143,1.843 -3.178,1.911C-3.259,2.066 -3.249,2.229 -3.239,2.386C-3.236,2.429 -3.233,2.472 -3.232,2.515C-3.228,2.709 -3.192,2.897 -3.13,3.06C-3.1,3.138 -3.025,3.204 -2.953,3.267C-2.927,3.289 -2.901,3.312 -2.878,3.335C-2.74,3.468 -2.591,3.595 -2.447,3.718C-2.292,3.851 -2.131,3.988 -1.983,4.135C-1.681,4.433 -1.359,4.721 -1.049,5C-0.959,5.079 -0.87,5.159 -0.782,5.239C-0.579,5.423 -0.453,5.42 -0.243,5.228L-0.221,5.208C-0.17,5.162 -0.117,5.114 -0.078,5.059C0.01,4.939 0.095,4.807 0.084,4.638C0.077,4.53 0.079,4.42 0.08,4.314C0.081,4.261 0.082,4.208 0.082,4.154C0.082,4.106 0.085,4.055 0.088,4.007C0.096,3.895 0.103,3.779 0.068,3.684C0.02,3.555 0,3.427 0,3.257" style="fill:rgb(113,102,84);fill-rule:nonzero;"/>
            </g>
            <g transform="matrix(1,0,0,1,2.28376,12.3975)">
                <path d="M0,0.596C0.013,0.582 0.026,0.567 0.039,0.552C0.099,0.482 0.107,0.399 0.063,0.307C0.019,0.214 -0.022,0.119 -0.063,0.027C-0.165,-0.207 -0.271,-0.449 -0.415,-0.665C-0.463,-0.735 -0.477,-0.733 -0.617,-0.704C-0.807,-0.665 -0.976,-0.577 -1.14,-0.492C-1.209,-0.455 -1.28,-0.418 -1.352,-0.385C-1.488,-0.322 -1.603,-0.294 -1.726,-0.294L-1.774,-0.293C-1.917,-0.291 -2.065,-0.29 -2.195,-0.385C-2.405,-0.411 -2.593,-0.499 -2.775,-0.585C-2.859,-0.624 -2.946,-0.665 -3.034,-0.699L-3.042,-0.705C-3.083,-0.753 -3.122,-0.771 -3.161,-0.771C-3.211,-0.771 -3.261,-0.742 -3.315,-0.71C-3.328,-0.702 -3.34,-0.695 -3.353,-0.688C-3.404,-0.659 -3.431,-0.632 -3.435,-0.606C-3.439,-0.58 -3.422,-0.546 -3.381,-0.503C-3.342,-0.462 -3.299,-0.422 -3.257,-0.383C-3.17,-0.301 -3.08,-0.216 -3.017,-0.115C-2.947,-0.005 -2.86,0.092 -2.775,0.185C-2.713,0.254 -2.649,0.324 -2.592,0.4C-2.447,0.595 -2.277,0.743 -2.13,0.863C-1.989,0.978 -1.83,1.119 -1.727,1.285C-1.639,1.426 -1.521,1.539 -1.407,1.648L-1.381,1.673C-1.129,1.915 -0.883,1.962 -0.629,1.817C-0.282,1.714 0.055,1.582 0.381,1.455C0.688,1.335 1.005,1.211 1.326,1.112C1.406,1.087 1.467,1.039 1.532,0.988C1.588,0.945 1.645,0.9 1.713,0.872L1.717,0.78C1.72,0.703 1.723,0.628 1.725,0.552C1.726,0.496 1.726,0.44 1.726,0.384L1.725,0.332L1.721,0.311L1.721,0.164C1.721,0.038 1.722,-0.092 1.72,-0.219C1.719,-0.271 1.674,-0.286 1.647,-0.29C1.636,-0.291 1.624,-0.292 1.612,-0.293C1.556,-0.299 1.492,-0.305 1.459,-0.366C1.407,-0.461 1.34,-0.549 1.274,-0.633C1.177,-0.759 1.076,-0.889 1.022,-1.048C1.001,-1.109 0.968,-1.168 0.935,-1.225L0.917,-1.257C0.865,-1.349 0.809,-1.366 0.709,-1.319C0.657,-1.295 0.606,-1.27 0.554,-1.245C0.396,-1.168 0.232,-1.088 0.058,-1.032L0.026,-1.022C-0.061,-0.995 -0.161,-0.965 -0.213,-0.875C-0.236,-0.836 -0.187,-0.737 -0.066,-0.574C0.038,-0.434 0.099,-0.274 0.157,-0.119C0.198,-0.012 0.239,0.098 0.295,0.2C0.372,0.341 0.34,0.516 0.312,0.67L0.309,0.686C0.292,0.777 0.154,0.865 0.031,0.865L0.02,0.865C-0.015,0.863 -0.057,0.841 -0.075,0.814C-0.093,0.787 -0.105,0.733 -0.086,0.702C-0.061,0.664 -0.03,0.629 0,0.596" style="fill:rgb(161,152,129);fill-rule:nonzero;"/>
            </g>
            <g transform="matrix(1,0,0,1,9.31376,4.44646)">
                <path d="M0,1.984C0.127,1.854 0.25,1.802 0.398,1.816C0.426,1.817 0.447,1.812 0.463,1.798C0.481,1.782 0.49,1.755 0.49,1.72L0.492,0.927C0.492,0.875 0.491,0.824 0.49,0.772C0.488,0.639 0.485,0.502 0.496,0.367C0.507,0.235 0.474,0.116 0.441,-0.01C0.429,-0.052 0.418,-0.094 0.408,-0.137C0.381,-0.255 0.325,-0.324 0.22,-0.367C0.205,-0.374 0.19,-0.38 0.175,-0.386C0.091,-0.423 0.01,-0.457 -0.088,-0.455C-0.287,-0.448 -0.49,-0.45 -0.685,-0.45C-0.791,-0.45 -0.898,-0.451 -1.004,-0.45C-1.022,-0.45 -1.04,-0.444 -1.059,-0.437L-1.065,-0.435C-1.063,-0.431 -1.061,-0.426 -1.059,-0.421C-1.048,-0.396 -1.037,-0.372 -1.021,-0.357C-0.944,-0.282 -0.909,-0.195 -0.91,-0.083C-0.912,0.036 -0.912,0.155 -0.911,0.274C-0.91,0.41 -0.91,0.55 -0.912,0.688C-0.917,0.908 -1.079,1.076 -1.289,1.079C-1.495,1.082 -1.704,1.08 -1.907,1.079C-1.99,1.079 -2.074,1.078 -2.158,1.078L-2.168,1.078C-2.184,1.08 -2.202,1.079 -2.217,1.07C-2.247,1.05 -2.278,1.03 -2.289,1C-2.301,0.97 -2.302,0.915 -2.278,0.891C-2.272,0.884 -2.265,0.877 -2.258,0.869C-2.215,0.824 -2.166,0.774 -2.115,0.774C-2.099,0.776 -2.084,0.774 -2.068,0.774C-2.001,0.774 -1.933,0.771 -1.868,0.768C-1.68,0.758 -1.487,0.75 -1.298,0.813C-1.28,0.819 -1.245,0.807 -1.214,0.784C-1.18,0.76 -1.155,0.729 -1.155,0.71C-1.154,0.568 -1.154,0.425 -1.154,0.283C-1.154,0.168 -1.154,0.053 -1.153,-0.062C-1.152,-0.119 -1.18,-0.165 -1.236,-0.204C-1.306,-0.253 -1.39,-0.307 -1.479,-0.34C-1.527,-0.357 -1.602,-0.362 -1.645,-0.339C-1.76,-0.276 -1.879,-0.217 -1.994,-0.159C-2.185,-0.064 -2.381,0.035 -2.566,0.151C-2.641,0.198 -2.71,0.257 -2.777,0.315C-2.889,0.412 -3.005,0.511 -3.156,0.56C-3.279,0.6 -3.366,0.686 -3.459,0.776C-3.481,0.798 -3.504,0.82 -3.527,0.841C-3.602,0.911 -3.617,0.996 -3.627,1.085C-3.636,1.166 -3.63,1.251 -3.624,1.333C-3.613,1.487 -3.602,1.646 -3.687,1.798C-3.68,1.809 -3.656,1.836 -3.64,1.853C-3.629,1.865 -3.618,1.878 -3.609,1.888C-3.602,1.896 -3.595,1.902 -3.59,1.902C-3.587,1.902 -3.578,1.899 -3.564,1.88C-3.432,1.705 -3.259,1.626 -3.009,1.626C-2.993,1.626 -2.977,1.626 -2.96,1.627C-2.456,1.646 -1.964,1.639 -1.418,1.627L-1.395,1.627C-1.149,1.627 -0.958,1.713 -0.81,1.888C-0.709,2.009 -0.615,2.138 -0.524,2.264C-0.495,2.304 -0.466,2.344 -0.437,2.383C-0.41,2.42 -0.384,2.441 -0.365,2.441L-0.362,2.441C-0.346,2.439 -0.334,2.42 -0.327,2.403C-0.258,2.247 -0.143,2.129 -0.031,2.016L0,1.984Z" style="fill:rgb(133,91,89);fill-rule:nonzero;"/>
            </g>
            <g transform="matrix(1,0,0,1,-0.949237,9.66446)">
                <path d="M0,-1.16C0.231,-1.011 0.462,-0.863 0.692,-0.715C1.251,-0.355 1.828,0.016 2.398,0.379C2.573,0.491 2.807,0.636 3.054,0.757C3.384,0.92 3.389,0.925 3.552,1.243C3.561,1.263 3.572,1.282 3.586,1.306C3.613,1.292 3.641,1.277 3.669,1.263C3.746,1.222 3.827,1.179 3.911,1.147C3.976,1.123 3.988,1.086 3.988,1.023C3.99,0.881 3.992,0.74 3.994,0.598C3.999,0.279 4.004,-0.051 3.999,-0.375C3.995,-0.644 4.038,-0.858 4.13,-1.03C4.216,-1.191 4.186,-1.296 4.097,-1.446C4.064,-1.503 4.024,-1.557 3.985,-1.609C3.941,-1.669 3.895,-1.732 3.857,-1.8C3.717,-2.051 3.511,-2.158 3.246,-2.114C3.125,-2.095 3,-2.098 2.878,-2.102C2.808,-2.103 2.737,-2.105 2.666,-2.103C2.643,-2.102 2.622,-2.094 2.618,-2.083C2.612,-2.073 2.623,-2.056 2.63,-2.046C2.682,-1.976 2.682,-1.898 2.681,-1.822L2.681,-1.804C2.681,-1.531 2.68,-1.258 2.679,-0.985L2.679,-0.878C2.68,-0.77 2.68,-0.658 2.671,-0.549C2.668,-0.502 2.579,-0.466 2.547,-0.458C2.495,-0.446 2.439,-0.467 2.407,-0.493C2.382,-0.513 2.37,-0.538 2.371,-0.561C2.376,-0.65 2.37,-0.742 2.364,-0.83C2.352,-1.026 2.339,-1.228 2.437,-1.422C2.455,-1.458 2.458,-1.517 2.442,-1.54C2.37,-1.645 2.368,-1.758 2.365,-1.868C2.364,-1.916 2.363,-1.967 2.355,-2.015C2.343,-2.092 2.253,-2.183 2.183,-2.187C1.788,-2.214 1.363,-2.207 0.955,-2.205C0.83,-2.205 0.716,-2.248 0.606,-2.289C0.558,-2.307 0.508,-2.326 0.447,-2.347C0.383,-2.427 0.321,-2.466 0.259,-2.466C0.194,-2.466 0.126,-2.423 0.051,-2.333C0.021,-2.296 -0.022,-2.272 -0.063,-2.249C-0.092,-2.233 -0.121,-2.216 -0.145,-2.197C-0.255,-2.104 -0.362,-2.007 -0.463,-1.907C-0.513,-1.857 -0.524,-1.782 -0.49,-1.706C-0.394,-1.487 -0.239,-1.314 0,-1.16" style="fill:rgb(113,102,84);fill-rule:nonzero;"/>
            </g>
            <g transform="matrix(1,0,0,1,2.34276,5.51846)">
                <path d="M0,1.195L0.01,1.209C0.042,1.253 0.072,1.296 0.102,1.341C0.204,1.49 0.31,1.644 0.452,1.765C0.535,1.837 0.606,1.927 0.662,2.033C0.724,2.15 0.806,2.259 0.884,2.366C0.908,2.397 0.932,2.43 0.956,2.462C1.026,2.559 1.105,2.597 1.221,2.592C1.295,2.587 1.366,2.585 1.433,2.585C1.584,2.585 1.72,2.595 1.846,2.616C1.865,2.618 1.881,2.623 1.896,2.626C1.918,2.632 1.938,2.637 1.945,2.632C1.949,2.629 1.957,2.616 1.961,2.566C1.986,2.177 2.235,1.914 2.477,1.658L2.511,1.626C2.544,1.615 2.578,1.6 2.612,1.586C2.738,1.53 2.87,1.472 3.019,1.605C3.03,1.615 3.042,1.617 3.056,1.611C3.081,1.602 3.108,1.571 3.114,1.528C3.117,1.503 3.118,1.478 3.119,1.451C3.121,1.379 3.123,1.306 3.177,1.24C3.206,1.205 3.218,1.172 3.214,1.139C3.21,1.102 3.184,1.065 3.136,1.025C3.056,0.961 3.022,0.877 3.028,0.752C3.031,0.676 3.017,0.625 2.931,0.59C2.789,0.53 2.643,0.475 2.502,0.421C2.268,0.331 2.025,0.239 1.795,0.128C1.785,0.123 1.774,0.122 1.765,0.126C1.748,0.134 1.732,0.157 1.723,0.187C1.712,0.221 1.7,0.256 1.687,0.291C1.657,0.374 1.627,0.46 1.627,0.543C1.627,0.64 1.593,0.722 1.56,0.801C1.538,0.853 1.517,0.902 1.506,0.956C1.498,0.993 1.487,1.027 1.476,1.061C1.44,1.174 1.41,1.271 1.491,1.387C1.526,1.436 1.522,1.508 1.518,1.577C1.517,1.596 1.516,1.615 1.516,1.633C1.516,1.66 1.496,1.685 1.479,1.706C1.475,1.711 1.471,1.716 1.468,1.721L1.463,1.728L1.454,1.73L1.451,1.73C1.433,1.73 1.398,1.704 1.398,1.704C1.251,1.599 1.187,1.483 1.19,1.327C1.193,1.154 1.201,1.01 1.275,0.856C1.325,0.751 1.349,0.639 1.375,0.521C1.399,0.407 1.424,0.29 1.474,0.181C1.509,0.106 1.465,0.042 1.409,0.015L1.386,0.004C1.352,-0.013 1.317,-0.031 1.282,-0.043C1.252,-0.054 1.224,-0.071 1.197,-0.088C1.144,-0.121 1.099,-0.15 1.054,-0.128C1.008,-0.106 0.971,-0.017 0.956,0.061C0.91,0.282 0.848,0.474 0.764,0.648C0.756,0.666 0.77,0.711 0.798,0.76C0.849,0.848 0.789,0.887 0.749,0.913C0.739,0.92 0.729,0.926 0.721,0.932C0.704,0.949 0.685,0.954 0.668,0.954C0.638,0.951 0.619,0.927 0.601,0.905C0.596,0.898 0.59,0.891 0.584,0.886C0.483,0.787 0.487,0.642 0.533,0.548C0.561,0.491 0.576,0.43 0.591,0.371C0.607,0.31 0.623,0.248 0.653,0.189C0.686,0.122 0.71,0.048 0.732,-0.024C0.763,-0.127 0.797,-0.234 0.863,-0.327C0.841,-0.373 0.819,-0.419 0.797,-0.465C0.741,-0.582 0.684,-0.702 0.631,-0.822C0.615,-0.859 0.605,-0.9 0.596,-0.939C0.587,-0.978 0.579,-1.013 0.564,-1.047C0.545,-1.093 0.521,-1.137 0.498,-1.181C0.47,-1.234 0.441,-1.289 0.419,-1.346C0.397,-1.406 0.362,-1.432 0.296,-1.439C0.264,-1.442 0.233,-1.441 0.2,-1.44C0.184,-1.44 0.169,-1.439 0.154,-1.439L0.111,-1.442L0.01,-1.442C-0.118,-1.438 -0.201,-1.355 -0.21,-1.22C-0.213,-1.168 -0.212,-1.113 -0.21,-1.059C-0.207,-0.949 -0.203,-0.834 -0.245,-0.738C-0.298,-0.614 -0.301,-0.498 -0.303,-0.374C-0.304,-0.342 -0.304,-0.309 -0.306,-0.277C-0.309,-0.219 -0.307,-0.159 -0.305,-0.101C-0.302,-0.016 -0.299,0.072 -0.311,0.158C-0.321,0.23 -0.295,0.292 -0.267,0.358C-0.239,0.425 -0.21,0.495 -0.224,0.574C-0.268,0.823 -0.132,1.012 0,1.195" style="fill:rgb(161,152,129);fill-rule:nonzero;"/>
            </g>
            <g transform="matrix(1,0,0,1,14.1878,13.3875)">
                <path d="M0,-6.622C-0.166,-6.993 -0.364,-7.105 -0.774,-7.07C-0.862,-7.063 -0.945,-6.986 -0.948,-6.909C-0.951,-6.84 -0.95,-6.769 -0.95,-6.7L-0.95,-3.483C-0.949,-3.408 -0.975,-3.345 -1.026,-3.295C-1.043,-3.278 -1.061,-3.261 -1.079,-3.244C-1.12,-3.207 -1.161,-3.169 -1.194,-3.126C-1.306,-2.984 -1.463,-2.932 -1.615,-2.881C-1.658,-2.867 -1.701,-2.853 -1.743,-2.836C-1.798,-2.816 -1.868,-2.826 -1.934,-2.865C-2.005,-2.908 -2.055,-2.973 -2.063,-3.036C-2.067,-3.065 -2.068,-3.095 -2.068,-3.136C-2.067,-3.634 -2.067,-4.133 -2.065,-4.632L-2.065,-4.645C-2.065,-4.675 -2.066,-4.709 -2.052,-4.736C-2.039,-4.76 -2.013,-4.781 -1.973,-4.8C-1.943,-4.814 -1.901,-4.8 -1.876,-4.784C-1.847,-4.766 -1.831,-4.744 -1.83,-4.721C-1.826,-4.59 -1.823,-4.462 -1.823,-4.334C-1.823,-4.209 -1.823,-4.083 -1.822,-3.957C-1.822,-3.681 -1.821,-3.404 -1.819,-3.128C-1.817,-3.121 -1.796,-3.099 -1.787,-3.096L-1.767,-3.102C-1.7,-3.118 -1.63,-3.134 -1.572,-3.167C-1.364,-3.286 -1.177,-3.42 -1.183,-3.737C-1.197,-4.466 -1.195,-5.208 -1.192,-5.925C-1.19,-6.21 -1.189,-6.494 -1.189,-6.778L-1.189,-6.804C-1.189,-6.859 -1.189,-6.915 -1.193,-6.969C-1.198,-7.04 -1.226,-7.069 -1.287,-7.069L-1.288,-7.069C-1.348,-7.069 -1.409,-7.069 -1.47,-7.068C-1.647,-7.066 -1.832,-7.064 -2.012,-7.073C-2.109,-7.078 -2.198,-7.047 -2.289,-7.013C-2.346,-6.992 -2.404,-6.971 -2.465,-6.959C-2.534,-6.946 -2.566,-6.878 -2.6,-6.806C-2.615,-6.773 -2.631,-6.739 -2.651,-6.71L-2.666,-6.689C-2.74,-6.58 -2.818,-6.467 -2.9,-6.36C-3.029,-6.191 -3.089,-5.997 -3.086,-5.749C-3.079,-5.093 -3.08,-4.426 -3.081,-3.781C-3.082,-3.536 -3.082,-3.291 -3.082,-3.046L-3.082,-3.025L-3.086,-3.025L-3.086,-2.288C-3.086,-1.655 -3.086,-1.023 -3.085,-0.391C-3.085,0.016 -3.085,0.016 -2.785,0.295C-2.78,0.3 -2.775,0.304 -2.771,0.309C-2.765,0.316 -2.759,0.322 -2.753,0.326C-2.68,0.368 -2.606,0.41 -2.533,0.452L-2.478,0.483C-2.42,0.435 -2.362,0.385 -2.305,0.337C-2.237,0.279 -2.168,0.222 -2.099,0.165C-1.913,0.012 -1.72,-0.147 -1.551,-0.326L-1.495,-0.384C-1.36,-0.528 -1.22,-0.678 -1.059,-0.794C-0.78,-0.998 -0.535,-1.245 -0.298,-1.485C-0.181,-1.603 -0.06,-1.725 0.064,-1.841C0.133,-1.906 0.163,-1.985 0.156,-2.083C0.151,-2.134 0.154,-2.186 0.156,-2.236C0.157,-2.266 0.159,-2.296 0.159,-2.326C0.159,-2.66 0.158,-2.993 0.158,-3.327C0.157,-4.201 0.156,-5.106 0.16,-5.995C0.162,-6.228 0.084,-6.434 0,-6.622" style="fill:rgb(113,102,84);fill-rule:nonzero;"/>
            </g>
            <g transform="matrix(1,0,0,1,17.8788,7.69146)">
                <path d="M0,-3.121C-0.021,-3.247 -0.043,-3.377 -0.056,-3.508C-0.062,-3.575 -0.092,-3.607 -0.154,-3.61C-0.25,-3.613 -0.346,-3.608 -0.444,-3.616C-0.543,-3.626 -0.615,-3.581 -0.656,-3.493C-0.681,-3.438 -0.708,-3.384 -0.734,-3.331C-0.804,-3.191 -0.877,-3.047 -0.911,-2.887C-0.924,-2.827 -0.957,-2.772 -0.99,-2.719C-1.033,-2.647 -1.074,-2.58 -1.067,-2.504C-1.058,-2.411 -1.02,-2.319 -0.984,-2.229C-0.967,-2.189 -0.951,-2.149 -0.937,-2.108C-0.926,-2.078 -0.916,-2.047 -0.906,-2.017C-0.882,-1.944 -0.858,-1.869 -0.826,-1.8C-0.76,-1.657 -0.772,-1.512 -0.792,-1.365C-0.797,-1.33 -0.828,-1.303 -0.858,-1.277C-0.869,-1.268 -0.881,-1.258 -0.89,-1.248C-0.915,-1.222 -0.945,-1.211 -0.969,-1.221C-0.987,-1.228 -0.997,-1.246 -0.997,-1.269C-0.993,-1.476 -1.059,-1.672 -1.123,-1.862C-1.157,-1.964 -1.192,-2.071 -1.217,-2.178C-1.226,-2.217 -1.259,-2.256 -1.286,-2.288C-1.298,-2.301 -1.324,-2.316 -1.336,-2.32C-1.437,-2.236 -1.557,-2.147 -1.716,-2.134C-1.724,-2.125 -1.738,-2.094 -1.736,-2.084C-1.689,-1.934 -1.643,-1.804 -1.596,-1.687C-1.464,-1.36 -1.421,-1.02 -1.462,-0.647C-1.47,-0.577 -1.51,-0.535 -1.55,-0.495L-1.567,-0.477C-1.576,-0.466 -1.595,-0.456 -1.629,-0.459C-1.675,-0.465 -1.73,-0.499 -1.751,-0.536C-1.775,-0.578 -1.764,-0.602 -1.749,-0.638C-1.668,-0.825 -1.663,-1.035 -1.732,-1.278C-1.751,-1.346 -1.776,-1.413 -1.8,-1.478C-1.841,-1.587 -1.882,-1.7 -1.901,-1.821C-1.913,-1.898 -1.955,-1.994 -1.994,-2.006C-2.06,-2.028 -2.161,-1.988 -2.235,-1.958C-2.561,-1.828 -2.881,-1.691 -3.15,-1.575C-3.188,-1.559 -3.233,-1.527 -3.248,-1.495C-3.266,-1.453 -3.279,-1.407 -3.292,-1.362C-3.322,-1.259 -3.352,-1.151 -3.454,-1.077C-3.453,-1.069 -3.449,-1.053 -3.437,-1.019C-3.393,-0.895 -3.344,-0.755 -3.293,-0.619C-3.282,-0.591 -3.266,-0.572 -3.246,-0.566C-3.224,-0.559 -3.199,-0.566 -3.173,-0.583C-3.109,-0.628 -3.047,-0.65 -2.985,-0.65C-2.897,-0.65 -2.81,-0.604 -2.72,-0.513L-2.673,-0.464C-2.588,-0.378 -2.501,-0.289 -2.421,-0.195C-2.278,-0.025 -2.196,0.186 -2.184,0.415C-2.183,0.437 -2.18,0.496 -2.168,0.502C-2.168,0.502 -2.162,0.505 -2.14,0.493C-1.903,0.353 -1.65,0.398 -1.427,0.436L-1.401,0.441C-1.325,0.456 -1.289,0.46 -1.256,0.406C-0.975,-0.046 -0.713,-0.399 -0.43,-0.704C-0.342,-0.799 -0.264,-0.909 -0.19,-1.016C-0.165,-1.051 -0.141,-1.086 -0.116,-1.12C-0.088,-1.158 -0.062,-1.198 -0.06,-1.235C-0.054,-1.336 -0.028,-1.434 -0.003,-1.528C0.031,-1.659 0.067,-1.793 0.048,-1.934C0.036,-2.02 0.039,-2.108 0.042,-2.211C0.043,-2.263 0.045,-2.32 0.045,-2.383C0.085,-2.614 0.044,-2.86 0,-3.121" style="fill:rgb(161,152,129);fill-rule:nonzero;"/>
            </g>
            <g transform="matrix(1,0,0,1,14.0118,7.62846)">
                <path d="M0,4.685L0,4.715C0.002,4.801 0.058,4.821 0.123,4.843C0.146,4.851 0.169,4.859 0.19,4.871C0.331,4.951 0.389,4.929 0.502,4.818C0.643,4.68 0.767,4.523 0.888,4.371C1.002,4.228 1.12,4.08 1.252,3.946C1.359,3.837 1.412,3.68 1.408,3.478C1.4,3.121 1.402,2.757 1.403,2.405C1.404,2.264 1.404,2.123 1.404,1.982L1.406,1.626C1.406,1.246 1.407,0.866 1.405,0.486C1.405,0.471 1.405,0.454 1.406,0.437C1.407,0.374 1.409,0.303 1.381,0.266C1.333,0.207 1.292,0.141 1.253,0.077C1.185,-0.032 1.116,-0.144 1.012,-0.226C0.977,-0.253 0.93,-0.266 0.885,-0.266C0.841,-0.266 0.8,-0.254 0.773,-0.229C0.66,-0.127 0.568,-0.027 0.571,0.159C0.581,0.734 0.579,1.32 0.577,1.885C0.576,2.066 0.576,2.247 0.575,2.427C0.575,2.573 0.574,2.719 0.572,2.865C0.57,3.149 0.567,3.442 0.572,3.73C0.575,3.875 0.529,3.988 0.426,4.087C0.394,4.119 0.361,4.151 0.328,4.183C0.247,4.262 0.164,4.345 0.077,4.421C-0.004,4.495 -0.002,4.583 0,4.685M0.813,1.526C0.813,1.272 0.813,1.019 0.814,0.766C0.815,0.718 0.828,0.665 0.851,0.623C0.865,0.597 0.902,0.592 0.936,0.587L0.948,0.586C0.966,0.58 0.997,0.594 1.008,0.612L1.013,0.619C1.029,0.646 1.047,0.675 1.047,0.707C1.049,1.106 1.05,1.505 1.051,1.903C1.051,2.196 1.052,2.488 1.053,2.781C1.054,2.855 1.024,2.916 0.965,2.962C0.945,2.978 0.917,2.988 0.876,2.993L0.873,2.993C0.866,2.993 0.859,2.99 0.851,2.984C0.841,2.975 0.825,2.955 0.825,2.936C0.819,2.696 0.815,2.497 0.813,2.31C0.812,2.189 0.812,2.069 0.813,1.948L0.813,1.526Z" style="fill:rgb(161,152,129);fill-rule:nonzero;"/>
            </g>
            <g transform="matrix(1,0,0,1,14.2868,5.47246)">
                <path d="M0,-0.053C-0.123,-0.207 -0.274,-0.351 -0.448,-0.481C-0.55,-0.556 -0.639,-0.617 -0.721,-0.665C-0.831,-0.731 -0.941,-0.802 -1.048,-0.871C-1.332,-1.054 -1.625,-1.243 -1.957,-1.351L-1.965,-1.353C-2.024,-1.373 -2.065,-1.386 -2.117,-1.354C-2.144,-1.337 -2.173,-1.324 -2.201,-1.311C-2.231,-1.298 -2.259,-1.285 -2.285,-1.269C-2.38,-1.207 -2.419,-1.142 -2.417,-1.053C-2.413,-0.913 -2.413,-0.771 -2.413,-0.633C-2.414,-0.548 -2.414,-0.462 -2.413,-0.377C-2.413,-0.346 -2.407,-0.316 -2.395,-0.296C-2.364,-0.24 -2.313,-0.19 -2.28,-0.205C-2.16,-0.265 -2.036,-0.261 -1.918,-0.255C-1.845,-0.253 -1.776,-0.25 -1.708,-0.261C-1.591,-0.279 -1.499,-0.239 -1.408,-0.2C-1.383,-0.189 -1.357,-0.178 -1.331,-0.168C-1.303,-0.157 -1.284,-0.135 -1.281,-0.107C-1.277,-0.077 -1.292,-0.047 -1.32,-0.027C-1.33,-0.02 -1.34,-0.012 -1.35,-0.004C-1.382,0.022 -1.415,0.048 -1.451,0.049C-1.829,0.056 -2.136,0.055 -2.418,0.048C-2.48,0.046 -2.564,-0.003 -2.592,-0.056C-2.603,-0.077 -2.615,-0.097 -2.627,-0.117C-2.679,-0.206 -2.733,-0.298 -2.732,-0.415C-2.732,-0.464 -2.733,-0.513 -2.733,-0.561C-2.737,-0.863 -2.741,-1.174 -2.549,-1.474L-3.456,-1.477C-3.494,-1.477 -3.533,-1.479 -3.57,-1.479C-3.596,-1.479 -3.622,-1.478 -3.648,-1.476C-3.823,-1.46 -4.02,-1.275 -4.046,-1.101C-4.057,-1.021 -4.059,-0.936 -4.059,-0.864L-4.059,0.632C-4.058,0.756 -4.058,0.756 -3.921,0.795C-3.734,0.849 -3.527,0.926 -3.433,1.161C-3.411,1.217 -3.373,1.265 -3.332,1.317C-3.312,1.342 -3.292,1.367 -3.274,1.393C-3.26,1.414 -3.242,1.426 -3.226,1.426L-3.221,1.426C-3.206,1.424 -3.193,1.41 -3.184,1.387C-3.138,1.262 -3.052,1.166 -2.97,1.073C-2.906,1.002 -2.841,0.929 -2.794,0.843C-2.713,0.694 -2.543,0.608 -2.326,0.607C-1.848,0.603 -1.362,0.604 -0.892,0.606L-0.492,0.608C-0.287,0.608 -0.156,0.679 -0.079,0.833C-0.07,0.85 -0.044,0.869 -0.024,0.873C-0.003,0.878 0.03,0.867 0.035,0.86C0.077,0.777 0.069,0.689 0.06,0.596C0.057,0.562 0.054,0.527 0.054,0.492C0.053,0.441 0.058,0.387 0.063,0.335C0.077,0.192 0.089,0.058 0,-0.053" style="fill:rgb(133,91,89);fill-rule:nonzero;"/>
            </g>
            <g transform="matrix(1,0,0,1,10.7648,12.5075)">
                <path d="M0,-5.574C-0.02,-5.615 -0.051,-5.65 -0.084,-5.688C-0.115,-5.724 -0.148,-5.761 -0.17,-5.804C-0.231,-5.92 -0.336,-5.981 -0.503,-5.996C-0.658,-6.01 -0.819,-6.005 -0.974,-6.001C-1.008,-6 -1.043,-5.999 -1.078,-5.998C-1.124,-5.997 -1.17,-5.984 -1.199,-5.962C-1.393,-5.823 -1.498,-5.624 -1.61,-5.413L-1.637,-5.362C-1.682,-5.279 -1.658,-5.226 -1.631,-5.163C-1.618,-5.133 -1.604,-5.102 -1.599,-5.067C-1.593,-5.022 -1.594,-4.976 -1.596,-4.933C-1.597,-4.912 -1.598,-4.892 -1.598,-4.872C-1.598,-3.603 -1.598,-2.336 -1.597,-1.067C-1.597,-0.895 -1.595,-0.706 -1.592,-0.49C-1.591,-0.474 -1.592,-0.456 -1.593,-0.438C-1.595,-0.391 -1.597,-0.342 -1.578,-0.312C-1.537,-0.242 -1.501,-0.168 -1.466,-0.097C-1.392,0.054 -1.315,0.211 -1.18,0.327C-1.11,0.387 -1.044,0.427 -0.95,0.427L-0.939,0.427C-0.899,0.426 -0.861,0.425 -0.826,0.425C-0.776,0.425 -0.731,0.426 -0.689,0.427C-0.39,0.436 -0.33,0.435 -0.15,-0.011C-0.144,-0.026 -0.134,-0.038 -0.125,-0.048L-0.118,-0.055C0.077,-0.282 0.103,-0.557 0.102,-0.797C0.101,-1.31 0.101,-1.824 0.101,-2.337L0.102,-2.936L0.107,-2.936C0.106,-3.128 0.106,-3.319 0.105,-3.51C0.104,-4.057 0.103,-4.622 0.112,-5.178C0.113,-5.326 0.062,-5.445 0,-5.574M-0.624,-2.665C-0.624,-2.204 -0.624,-1.743 -0.625,-1.282C-0.625,-1.194 -0.625,-1.092 -0.635,-0.992C-0.638,-0.96 -0.675,-0.906 -0.708,-0.905L-0.717,-0.905C-0.768,-0.905 -0.817,-0.919 -0.849,-0.942C-0.889,-0.971 -0.924,-1.019 -0.94,-1.067C-0.951,-1.102 -0.949,-1.14 -0.947,-1.176C-0.946,-1.19 -0.945,-1.203 -0.945,-1.217L-0.945,-2.125C-0.945,-2.992 -0.945,-3.89 -0.948,-4.772C-0.949,-4.922 -0.918,-5.059 -0.852,-5.192C-0.842,-5.213 -0.827,-5.238 -0.802,-5.244C-0.788,-5.249 -0.772,-5.246 -0.756,-5.236C-0.729,-5.218 -0.701,-5.199 -0.678,-5.174C-0.62,-5.113 -0.622,-5.037 -0.624,-4.971C-0.624,-4.958 -0.625,-4.945 -0.625,-4.933C-0.624,-4.492 -0.624,-4.052 -0.623,-3.612L-0.624,-2.665Z" style="fill:rgb(199,112,39);fill-rule:nonzero;"/>
            </g>
            <g transform="matrix(1,0,0,1,14.3378,3.78846)">
                <path d="M0,-0.732C-0.069,-0.783 -0.144,-0.83 -0.215,-0.876C-0.245,-0.895 -0.274,-0.913 -0.303,-0.932C-0.324,-0.914 -0.345,-0.895 -0.367,-0.876C-0.424,-0.826 -0.484,-0.773 -0.539,-0.719C-0.65,-0.608 -0.761,-0.494 -0.869,-0.383C-0.91,-0.341 -0.952,-0.298 -0.993,-0.256C-0.934,-0.194 -0.875,-0.133 -0.817,-0.074C-0.671,0.077 -0.534,0.218 -0.39,0.358C-0.212,0.531 -0.175,0.729 -0.28,0.946C-0.312,1.013 -0.294,1.04 -0.248,1.068C-0.137,1.135 -0.03,1.203 0.061,1.298C0.162,1.403 0.231,1.407 0.342,1.31L0.367,1.287C0.569,1.112 0.778,0.929 0.792,0.629L0.793,0.621L0.798,0.616C0.876,0.531 0.876,0.427 0.876,0.317L0.876,0.265C0.88,0.01 0.883,-0.245 0.886,-0.5L0.889,-0.794C0.889,-0.824 0.887,-0.856 0.884,-0.887C0.878,-0.958 0.872,-1.03 0.899,-1.089C0.981,-1.261 0.974,-1.442 0.968,-1.616C0.966,-1.688 0.964,-1.763 0.967,-1.836C0.974,-1.989 0.944,-2.028 0.779,-2.081C0.599,-2.139 0.412,-2.121 0.271,-2.098C0.241,-2.094 0.202,-2.05 0.186,-2.015C0.164,-1.962 0.152,-1.898 0.154,-1.84C0.162,-1.606 0.106,-1.411 -0.016,-1.243C-0.062,-1.18 -0.053,-1.128 0.016,-1.064C0.037,-1.045 0.057,-1.025 0.077,-1.004C0.113,-0.968 0.149,-0.931 0.19,-0.901C0.397,-0.75 0.481,-0.537 0.446,-0.25C0.444,-0.23 0.443,-0.211 0.441,-0.191C0.439,-0.146 0.436,-0.1 0.421,-0.057C0.409,-0.024 0.382,0.002 0.356,0.027C0.345,0.037 0.334,0.048 0.325,0.058C0.308,0.077 0.29,0.087 0.272,0.087L0.27,0.087C0.249,0.086 0.23,0.074 0.213,0.05C0.206,0.041 0.199,0.033 0.191,0.025C0.162,-0.007 0.126,-0.046 0.162,-0.126C0.269,-0.366 0.214,-0.575 0,-0.732" style="fill:rgb(218,145,65);fill-rule:nonzero;"/>
            </g>
            <g transform="matrix(1,0,0,1,12.5018,4.45146)">
                <path d="M0,-1.063C-0.041,-1.09 -0.083,-1.119 -0.12,-1.119L-0.122,-1.119C-0.128,-1.118 -0.134,-1.118 -0.14,-1.118C-0.262,-1.118 -0.379,-1.148 -0.493,-1.177C-0.615,-1.207 -0.738,-1.24 -0.869,-1.233L-0.887,-1.233C-1.12,-1.233 -1.225,-1.152 -1.301,-0.919C-1.309,-0.894 -1.317,-0.869 -1.324,-0.843C-1.329,-0.823 -1.334,-0.803 -1.34,-0.784C-1.35,-0.75 -1.362,-0.712 -1.359,-0.704C-1.353,-0.7 -1.317,-0.7 -1.294,-0.699C-1.193,-0.698 -1.093,-0.698 -0.992,-0.698C-0.839,-0.698 -0.68,-0.698 -0.524,-0.695L-0.51,-0.695C-0.435,-0.693 -0.35,-0.692 -0.282,-0.659C-0.17,-0.603 -0.05,-0.556 0.065,-0.511C0.297,-0.42 0.535,-0.326 0.738,-0.159C0.854,-0.063 0.99,0.014 1.12,0.089C1.166,0.115 1.211,0.141 1.256,0.168C1.27,0.177 1.309,0.174 1.318,0.169C1.348,0.123 1.362,0.078 1.355,0.066C1.204,-0.214 1.022,-0.42 0.799,-0.562C0.532,-0.732 0.263,-0.899 0.036,-1.039C0.024,-1.047 0.012,-1.055 0,-1.063" style="fill:rgb(113,102,84);fill-rule:nonzero;"/>
            </g>
        </g>
    </g>
</svg>
