<?xml version="1.0" encoding="UTF-8" standalone="no"?>
<!DOCTYPE svg PUBLIC "-//W3C//DTD SVG 1.1//EN" "http://www.w3.org/Graphics/SVG/1.1/DTD/svg11.dtd">
<svg width="100%" height="100%" viewBox="0 0 20 20" version="1.1" xmlns="http://www.w3.org/2000/svg" xmlns:xlink="http://www.w3.org/1999/xlink" xml:space="preserve" xmlns:serif="http://www.serif.com/" style="fill-rule:evenodd;clip-rule:evenodd;stroke-linejoin:round;stroke-miterlimit:2;">
    <g transform="matrix(0.952796,0,0,0.952796,0.472036,-9.09718)">
        <g id="Vyraxen">
            <g transform="matrix(1,0,0,1,6.46913,24.089)">
                <path d="M0,-0.261C-0.031,-0.28 -0.062,-0.3 -0.093,-0.319C-0.262,-0.425 -0.437,-0.534 -0.577,-0.688C-0.602,-0.714 -0.629,-0.727 -0.663,-0.727C-0.682,-0.727 -0.703,-0.723 -0.726,-0.715C-0.775,-0.697 -0.825,-0.676 -0.873,-0.656C-0.997,-0.604 -1.125,-0.55 -1.267,-0.539C-1.28,-0.538 -1.295,-0.527 -1.311,-0.516C-1.321,-0.509 -1.332,-0.502 -1.342,-0.497C-1.37,-0.482 -1.39,-0.454 -1.393,-0.426C-1.395,-0.415 -1.394,-0.394 -1.377,-0.38C-1.3,-0.311 -1.214,-0.255 -1.111,-0.191C-0.858,-0.037 -0.582,0.078 -0.315,0.19C-0.111,0.274 0.099,0.362 0.299,0.466C0.303,0.466 0.322,0.456 0.334,0.449L0.346,0.443C0.306,0.38 0.286,0.31 0.286,0.23C0.283,0.021 0.19,-0.139 0,-0.261" style="fill:rgb(196,135,72);fill-rule:nonzero;"/>
            </g>
            <g transform="matrix(1,0,0,1,14.8721,24.349)">
                <path d="M0,-0.796C-0.157,-0.801 -0.3,-0.857 -0.439,-0.91C-0.489,-0.93 -0.541,-0.95 -0.592,-0.967C-0.624,-0.978 -0.65,-0.984 -0.674,-0.984C-0.7,-0.984 -0.722,-0.976 -0.745,-0.956C-0.783,-0.922 -0.82,-0.884 -0.855,-0.848C-0.933,-0.768 -1.013,-0.686 -1.11,-0.638C-1.211,-0.588 -1.285,-0.517 -1.364,-0.443C-1.399,-0.409 -1.436,-0.374 -1.474,-0.342C-1.592,-0.245 -1.641,-0.126 -1.619,0.012L-1.619,0.048C-1.619,0.073 -1.619,0.095 -1.618,0.117C-1.617,0.165 -1.61,0.179 -1.603,0.184C-1.597,0.188 -1.58,0.188 -1.539,0.169C-1.506,0.153 -1.474,0.137 -1.442,0.12C-1.376,0.086 -1.309,0.051 -1.237,0.028C-0.958,-0.062 -0.695,-0.201 -0.441,-0.336C-0.285,-0.419 -0.124,-0.504 0.04,-0.578C0.096,-0.603 0.087,-0.681 0.077,-0.725C0.069,-0.756 0.05,-0.794 0,-0.796" style="fill:rgb(196,135,72);fill-rule:nonzero;"/>
            </g>
            <g transform="matrix(1,0,0,1,5.42713,20.709)">
                <path d="M0,1.724C0.036,1.742 0.07,1.741 0.099,1.724C0.133,1.704 0.153,1.66 0.154,1.607C0.155,1.496 0.155,1.384 0.154,1.273L0.154,1.105L0.155,1.105C0.155,1.072 0.154,1.04 0.152,1.007C0.149,0.918 0.146,0.827 0.159,0.738C0.176,0.616 0.143,0.507 0.109,0.391C0.094,0.34 0.078,0.288 0.067,0.235C0.057,0.187 0.027,0.168 -0.01,0.144C-0.022,0.136 -0.034,0.128 -0.046,0.12C-0.23,-0.018 -0.442,0.015 -0.625,0.066C-0.758,0.102 -0.893,0.12 -1.051,0.122C-1.335,0.126 -1.619,0.128 -1.903,0.13C-2.052,0.131 -2.202,0.132 -2.351,0.134L-2.4,0.134C-2.446,0.134 -2.495,0.134 -2.54,0.142C-2.558,0.144 -2.584,0.167 -2.593,0.187C-2.637,0.293 -2.591,0.434 -2.497,0.478C-2.42,0.513 -2.344,0.55 -2.269,0.586C-2.134,0.651 -1.996,0.718 -1.855,0.778C-1.469,0.939 -1.084,1.133 -0.712,1.354C-0.513,1.472 -0.301,1.576 -0.096,1.677L0,1.724Z" style="fill:rgb(64,79,89);fill-rule:nonzero;"/>
            </g>
            <g transform="matrix(1,0,0,1,1.82713,15.011)">
                <path d="M0,-0.858C0.019,-0.804 0.051,-0.751 0.081,-0.7C0.091,-0.684 0.1,-0.668 0.109,-0.652C0.133,-0.611 0.159,-0.571 0.184,-0.53C0.235,-0.451 0.287,-0.368 0.323,-0.28C0.434,-0.001 0.651,0.198 0.859,0.39L0.921,0.446C0.935,0.459 0.942,0.457 0.946,0.457C0.964,0.456 0.984,0.429 0.996,0.411L1,0.405C1.018,0.38 1.032,0.351 1.046,0.321C1.058,0.294 1.071,0.266 1.088,0.24C1.184,0.094 1.18,-0.042 1.076,-0.23C0.899,-0.546 0.768,-0.882 0.673,-1.14C0.624,-1.271 0.57,-1.403 0.519,-1.53C0.442,-1.718 0.363,-1.912 0.3,-2.108C0.257,-2.237 0.213,-2.318 0.147,-2.387C0.102,-2.435 0.056,-2.481 0.009,-2.528C-0.056,-2.594 -0.123,-2.663 -0.187,-2.732C-0.21,-2.758 -0.188,-2.822 -0.168,-2.846C-0.146,-2.871 -0.089,-2.896 -0.061,-2.881C0.186,-2.753 0.359,-2.531 0.498,-2.352C0.513,-2.334 0.515,-2.311 0.517,-2.289C0.518,-2.276 0.519,-2.264 0.522,-2.254C0.724,-1.663 0.977,-1.051 1.297,-0.382C1.362,-0.246 1.395,-0.113 1.402,0.036C1.409,0.215 1.329,0.357 1.252,0.495L1.23,0.535C1.196,0.595 1.199,0.637 1.238,0.682C1.259,0.707 1.281,0.73 1.304,0.749C1.613,1.024 1.83,1.312 1.966,1.628C1.992,1.688 2.025,1.741 2.063,1.781C2.248,1.977 2.407,2.219 2.537,2.5C2.608,2.655 2.731,2.716 2.842,2.756C3.049,2.831 3.226,2.87 3.384,2.877C3.672,2.889 3.966,2.887 4.25,2.884C4.379,2.882 4.509,2.88 4.637,2.882C4.697,2.882 4.723,2.853 4.731,2.779C4.731,2.771 4.732,2.764 4.732,2.757C4.732,2.748 4.733,2.739 4.734,2.73C4.771,2.463 4.906,2.334 5.147,2.316C5.147,2.313 5.146,2.31 5.145,2.307C5.132,2.176 5.105,2.046 5.065,1.92C5.055,1.889 5.044,1.856 5.036,1.824C5.028,1.815 5.019,1.806 5.011,1.797C4.978,1.761 4.943,1.725 4.926,1.679C4.908,1.63 4.888,1.581 4.868,1.533C4.807,1.381 4.743,1.224 4.719,1.056C4.657,1 4.643,0.926 4.629,0.855C4.619,0.801 4.609,0.751 4.58,0.708C4.534,0.64 4.464,0.626 4.389,0.612C4.323,0.6 4.255,0.587 4.201,0.536C4.192,0.527 4.172,0.52 4.151,0.525C4.137,0.527 4.12,0.534 4.11,0.555C4.092,0.595 4.072,0.634 4.052,0.673C3.995,0.787 3.936,0.905 3.905,1.027C3.886,1.1 3.848,1.166 3.811,1.231C3.75,1.334 3.694,1.432 3.723,1.546C3.754,1.668 3.817,1.785 3.878,1.899C3.905,1.951 3.934,2.004 3.959,2.058C3.97,2.079 3.969,2.102 3.958,2.121C3.943,2.148 3.909,2.165 3.866,2.168C3.81,2.172 3.726,2.169 3.679,2.093C3.655,2.052 3.634,2.009 3.614,1.967C3.6,1.938 3.586,1.909 3.57,1.88C3.44,1.638 3.438,1.409 3.564,1.18C3.613,1.091 3.646,0.991 3.678,0.895C3.72,0.77 3.763,0.64 3.842,0.526C3.866,0.491 3.867,0.411 3.846,0.367C3.804,0.284 3.729,0.233 3.634,0.224C3.558,0.216 3.502,0.25 3.459,0.324C3.416,0.401 3.381,0.486 3.347,0.567L3.323,0.624C3.307,0.662 3.292,0.703 3.278,0.742C3.251,0.822 3.222,0.904 3.175,0.974C3.136,1.03 3.134,1.092 3.133,1.157C3.131,1.218 3.13,1.281 3.094,1.339C3.076,1.369 3.022,1.379 2.993,1.378C2.965,1.374 2.908,1.35 2.902,1.315L2.896,1.281C2.871,1.126 2.842,0.95 2.932,0.83C3.009,0.727 3.053,0.607 3.096,0.491C3.14,0.375 3.185,0.254 3.263,0.149C3.276,0.131 3.281,0.109 3.276,0.088C3.27,0.059 3.248,0.034 3.218,0.018C3.093,-0.048 2.971,-0.124 2.853,-0.198C2.695,-0.298 2.531,-0.4 2.357,-0.479C2.13,-0.581 1.955,-0.737 1.824,-0.956C1.746,-1.087 1.655,-1.213 1.567,-1.334C1.462,-1.478 1.353,-1.627 1.266,-1.786C1.161,-1.977 1.023,-2.147 0.89,-2.312C0.808,-2.413 0.724,-2.517 0.647,-2.626C0.544,-2.772 0.384,-2.981 0.184,-3.099C0.029,-3.19 -0.134,-3.276 -0.292,-3.36C-0.492,-3.466 -0.699,-3.575 -0.895,-3.698C-0.973,-3.747 -1.062,-3.736 -1.161,-3.718C-1.177,-3.715 -1.186,-3.708 -1.188,-3.702C-1.189,-3.699 -1.187,-3.695 -1.183,-3.691C-1.034,-3.551 -0.969,-3.366 -0.907,-3.188C-0.886,-3.128 -0.865,-3.067 -0.841,-3.01C-0.733,-2.748 -0.618,-2.464 -0.519,-2.173C-0.497,-2.108 -0.477,-2.041 -0.457,-1.976C-0.41,-1.82 -0.361,-1.658 -0.281,-1.512C-0.158,-1.285 -0.066,-1.043 0,-0.858" style="fill:rgb(196,135,72);fill-rule:nonzero;"/>
            </g>
            <g transform="matrix(1,0,0,1,6.52113,18.138)">
                <path d="M-0.143,0.831L0.367,0.831C0.519,0.828 0.525,0.822 0.522,0.647C0.522,0.625 0.521,0.603 0.52,0.581C0.519,0.539 0.517,0.495 0.519,0.452C0.525,0.361 0.492,0.286 0.414,0.216C0.391,0.196 0.369,0.175 0.347,0.154C0.312,0.12 0.276,0.085 0.237,0.055C0.194,0.021 0.154,0.002 0.124,0.002C-0.168,0 -0.483,0.002 -0.84,0.008C-0.851,0.008 -0.882,0.036 -0.883,0.048C-0.885,0.261 -0.886,0.514 -0.875,0.769C-0.872,0.783 -0.819,0.822 -0.789,0.823C-0.634,0.828 -0.475,0.827 -0.323,0.826L-0.143,0.826L-0.143,0.831ZM-0.384,0.463C-0.418,0.457 -0.436,0.392 -0.434,0.365C-0.432,0.335 -0.41,0.276 -0.376,0.271C-0.142,0.229 0.092,0.244 0.288,0.264C0.317,0.267 0.335,0.302 0.355,0.343C0.37,0.378 0.357,0.418 0.342,0.442C0.324,0.469 0.302,0.485 0.279,0.485C0.199,0.486 0.119,0.486 0.038,0.486L-0.034,0.486L-0.035,0.505L-0.057,0.502C-0.084,0.499 -0.112,0.496 -0.139,0.493C-0.22,0.485 -0.303,0.476 -0.384,0.463" style="fill:rgb(64,79,89);fill-rule:nonzero;"/>
            </g>
            <g transform="matrix(1,0,0,1,6.11413,12.749)">
                <path d="M0,1.367C0,1.387 0,1.405 0.006,1.42C0.047,1.539 0.086,1.658 0.125,1.777C0.222,2.07 0.322,2.374 0.444,2.662C0.522,2.846 0.587,3.039 0.649,3.225C0.709,3.405 0.771,3.592 0.846,3.77C0.872,3.832 0.869,3.905 0.865,3.975C0.894,4.026 0.889,4.078 0.906,4.133C0.923,4.185 0.954,4.225 0.989,4.27C1.01,4.296 1.03,4.323 1.05,4.35C1.076,4.385 1.103,4.42 1.118,4.461C1.131,4.496 1.131,4.536 1.119,4.571C1.205,4.571 1.291,4.569 1.374,4.57C1.458,4.57 1.541,4.569 1.625,4.57L1.677,4.57C1.724,4.571 1.77,4.572 1.813,4.564C1.897,4.549 1.947,4.48 1.974,4.425C2.004,4.365 1.949,4.314 1.914,4.29C1.64,4.102 1.496,3.821 1.357,3.548C1.289,3.417 1.219,3.28 1.136,3.157C1.117,3.129 1.152,3.067 1.176,3.05C1.202,3.031 1.259,3.018 1.289,3.037C1.476,3.152 1.569,3.347 1.629,3.505C1.724,3.752 1.887,3.955 2.157,4.16C2.167,4.152 2.177,4.145 2.186,4.138C2.207,4.123 2.222,4.112 2.232,4.098C2.336,3.956 2.473,3.891 2.672,3.891L2.711,3.891C2.921,3.9 3.136,3.897 3.343,3.895C3.438,3.893 3.532,3.892 3.627,3.892C3.692,3.892 3.724,3.861 3.724,3.798C3.728,3.428 3.729,3.058 3.73,2.688C3.73,2.568 3.731,2.448 3.732,2.327C3.734,2.003 3.736,1.667 3.728,1.338C3.724,1.211 3.756,1.094 3.787,0.981C3.804,0.915 3.823,0.847 3.833,0.779C3.838,0.747 3.901,0.729 3.93,0.729L3.933,0.729C3.961,0.731 4.019,0.752 4.028,0.786C4.041,0.841 4.047,0.904 4.048,0.98C4.049,1.458 4.05,1.937 4.05,2.415C4.05,2.757 4.051,3.099 4.051,3.44C4.052,3.564 4.052,3.696 4.059,3.825C4.061,3.864 4.089,3.889 4.133,3.89C4.198,3.893 4.262,3.894 4.325,3.894L4.543,3.895C4.756,3.897 4.977,3.898 5.194,3.896L5.199,3.896C5.306,3.896 5.39,3.933 5.464,4.012C5.501,4.052 5.541,4.089 5.583,4.129C5.598,4.142 5.613,4.156 5.629,4.171C5.661,4.141 5.693,4.112 5.725,4.084C5.811,4.007 5.893,3.935 5.959,3.849C6.001,3.797 6.029,3.732 6.057,3.67C6.088,3.604 6.119,3.535 6.165,3.478C6.206,3.427 6.238,3.368 6.269,3.311C6.322,3.215 6.375,3.116 6.473,3.049C6.502,3.03 6.543,3.033 6.576,3.036C6.598,3.037 6.617,3.053 6.633,3.078C6.65,3.107 6.662,3.152 6.649,3.182C6.645,3.19 6.641,3.198 6.637,3.206C6.634,3.212 6.631,3.218 6.628,3.225C6.593,3.298 6.548,3.367 6.504,3.433C6.425,3.552 6.351,3.664 6.329,3.805L6.328,3.811L6.324,3.816C6.286,3.856 6.254,3.904 6.223,3.951C6.158,4.047 6.091,4.146 5.969,4.198C5.937,4.212 5.911,4.241 5.883,4.272C5.866,4.289 5.85,4.307 5.832,4.323C5.813,4.339 5.809,4.349 5.809,4.354C5.809,4.356 5.808,4.362 5.817,4.371C5.829,4.386 5.842,4.4 5.854,4.415C5.922,4.495 5.985,4.571 6.102,4.571L6.105,4.571C6.301,4.569 6.5,4.57 6.699,4.572C6.686,4.537 6.687,4.497 6.7,4.461C6.715,4.42 6.741,4.385 6.768,4.35C6.788,4.323 6.809,4.296 6.829,4.27C6.864,4.225 6.895,4.185 6.912,4.133C6.918,4.11 6.92,4.088 6.923,4.066C6.921,4.061 6.913,4.057 6.913,4.052L6.914,4.015C6.914,3.931 6.915,3.844 6.939,3.764C6.982,3.622 7.037,3.483 7.091,3.348L7.12,3.275C7.149,3.203 7.181,3.131 7.213,3.061C7.277,2.919 7.343,2.772 7.378,2.621C7.443,2.346 7.522,2.112 7.621,1.903C7.68,1.779 7.712,1.644 7.742,1.514C7.768,1.404 7.795,1.29 7.838,1.183C7.842,1.172 7.819,1.126 7.785,1.094C7.72,1.03 7.672,1.031 7.608,1.095C7.348,1.356 7.086,1.622 6.828,1.885C6.79,1.924 6.751,1.963 6.712,2.001C6.561,2.15 6.405,2.304 6.298,2.493C6.285,2.517 6.265,2.535 6.246,2.552C6.24,2.558 6.234,2.563 6.229,2.568C6.218,2.579 6.206,2.589 6.195,2.599C6.183,2.61 6.17,2.621 6.158,2.634C6.116,2.676 6.06,2.685 6.004,2.66C5.978,2.648 5.96,2.629 5.951,2.604C5.941,2.574 5.944,2.538 5.96,2.507C6.049,2.331 6.154,2.191 6.281,2.083C6.39,1.99 6.439,1.896 6.445,1.77C6.448,1.72 6.467,1.671 6.488,1.619C6.504,1.58 6.52,1.54 6.529,1.499C6.547,1.413 6.562,1.326 6.578,1.24C6.601,1.112 6.625,0.979 6.656,0.85C6.687,0.719 6.722,0.587 6.756,0.458C6.814,0.244 6.873,0.023 6.913,-0.199L6.917,-0.208C6.986,-0.306 6.992,-0.418 7,-0.535C7.005,-0.624 7.011,-0.716 7.046,-0.801C7.115,-0.969 7.108,-1.146 7.101,-1.317C7.101,-1.347 7.099,-1.377 7.098,-1.407C7.098,-1.422 7.09,-1.433 7.083,-1.44C7.068,-1.454 7.044,-1.463 7.019,-1.463L7.016,-1.463L7.005,-1.462C6.93,-1.461 6.876,-1.459 6.844,-1.376C6.807,-1.281 6.759,-1.188 6.711,-1.098C6.693,-1.062 6.674,-1.026 6.656,-0.991C6.604,-0.888 6.553,-0.784 6.502,-0.681C6.304,-0.279 6.1,0.135 5.852,0.518L5.826,0.558C5.749,0.675 5.67,0.797 5.606,0.922C5.524,1.081 5.468,1.223 5.434,1.355C5.418,1.418 5.381,1.474 5.346,1.527C5.288,1.615 5.234,1.698 5.269,1.808C5.304,1.916 5.302,2.026 5.299,2.132C5.298,2.183 5.296,2.237 5.3,2.289C5.3,2.295 5.301,2.302 5.301,2.309C5.305,2.34 5.309,2.374 5.291,2.398C5.222,2.491 5.222,2.595 5.222,2.706C5.221,2.77 5.221,2.837 5.206,2.901C5.202,2.918 5.185,2.941 5.172,2.949L5.164,2.954L5.147,2.952C5.118,2.944 5.081,2.936 5.062,2.91C4.958,2.767 4.943,2.592 5.02,2.392C5.064,2.276 5.101,2.144 5.042,2.042C4.99,1.953 4.989,1.86 4.987,1.769C4.985,1.684 4.984,1.603 4.942,1.531C4.875,1.416 4.877,1.294 4.88,1.176C4.882,1.12 4.883,1.061 4.876,1.005C4.873,0.978 4.875,0.95 4.877,0.923C4.881,0.883 4.884,0.846 4.869,0.823C4.792,0.699 4.787,0.559 4.782,0.425C4.776,0.287 4.772,0.157 4.696,0.042L4.691,0.035L4.692,0.026C4.711,-0.086 4.679,-0.19 4.645,-0.3C4.618,-0.388 4.59,-0.48 4.591,-0.577C4.592,-0.666 4.566,-0.751 4.538,-0.84C4.505,-0.947 4.47,-1.058 4.487,-1.177C4.422,-1.271 4.416,-1.379 4.411,-1.483C4.406,-1.57 4.402,-1.651 4.364,-1.721C4.325,-1.793 4.32,-1.867 4.313,-1.938C4.308,-2.008 4.302,-2.075 4.266,-2.133C4.206,-2.229 4.206,-2.33 4.206,-2.428C4.206,-2.473 4.206,-2.519 4.2,-2.564C4.189,-2.645 4.029,-3.125 3.987,-3.17C3.965,-3.193 3.912,-3.205 3.876,-3.2C3.835,-3.196 3.782,-3.168 3.778,-3.155C3.76,-3.034 3.717,-2.918 3.675,-2.805C3.615,-2.641 3.553,-2.472 3.567,-2.29C3.573,-2.215 3.558,-2.138 3.52,-2.049C3.491,-1.98 3.478,-1.906 3.464,-1.828C3.448,-1.737 3.431,-1.642 3.385,-1.555C3.401,-1.443 3.368,-1.339 3.336,-1.24C3.31,-1.159 3.286,-1.082 3.285,-1.001C3.284,-0.893 3.254,-0.79 3.225,-0.69C3.188,-0.56 3.152,-0.436 3.175,-0.303L3.176,-0.293L3.17,-0.286C3.101,-0.201 3.096,-0.102 3.092,0.002C3.09,0.039 3.088,0.079 3.083,0.117C3.072,0.197 3.055,0.277 3.038,0.354C3.021,0.428 3.005,0.504 2.994,0.58C2.99,0.612 2.986,0.644 2.982,0.676C2.969,0.782 2.956,0.892 2.917,1.003C2.892,1.07 2.896,1.148 2.9,1.231C2.904,1.315 2.909,1.402 2.88,1.478C2.784,1.732 2.79,1.995 2.795,2.25C2.797,2.352 2.799,2.458 2.795,2.562C2.793,2.607 2.794,2.654 2.794,2.698C2.795,2.733 2.795,2.769 2.794,2.803L2.794,2.814C2.794,2.845 2.794,2.88 2.777,2.907C2.761,2.932 2.73,2.946 2.702,2.957L2.693,2.961C2.669,2.972 2.645,2.972 2.624,2.962C2.605,2.953 2.592,2.936 2.585,2.914C2.568,2.859 2.561,2.812 2.56,2.769C2.556,2.565 2.556,2.364 2.556,2.141C2.556,2.015 2.556,1.884 2.56,1.755C2.563,1.677 2.517,1.626 2.469,1.571C2.433,1.531 2.396,1.49 2.379,1.436C2.374,1.419 2.373,1.402 2.372,1.385C2.372,1.369 2.371,1.354 2.366,1.343C2.335,1.277 2.306,1.209 2.278,1.143C2.208,0.98 2.136,0.81 2.035,0.666C1.937,0.525 1.858,0.372 1.781,0.224C1.736,0.137 1.69,0.047 1.64,-0.04L1.61,-0.091C1.479,-0.317 1.344,-0.55 1.225,-0.787L1.212,-0.811C1.167,-0.9 1.12,-0.992 1.104,-1.103C1.092,-1.183 1.04,-1.262 0.99,-1.337C0.979,-1.354 0.968,-1.371 0.957,-1.387C0.936,-1.422 0.888,-1.446 0.853,-1.462C0.814,-1.48 0.768,-1.477 0.731,-1.454C0.697,-1.433 0.675,-1.399 0.673,-1.361C0.667,-1.228 0.693,-1.096 0.719,-0.968C0.733,-0.899 0.748,-0.828 0.756,-0.757C0.77,-0.649 0.798,-0.541 0.825,-0.437C0.856,-0.318 0.888,-0.195 0.899,-0.069C0.95,-0.007 0.952,0.07 0.954,0.137C0.956,0.195 0.957,0.25 0.987,0.291C1.04,0.364 1.047,0.444 1.052,0.521C1.057,0.587 1.062,0.649 1.096,0.702C1.146,0.779 1.149,0.861 1.152,0.94C1.154,0.989 1.156,1.036 1.168,1.08C1.197,1.18 1.215,1.282 1.232,1.381C1.244,1.449 1.256,1.521 1.272,1.59C1.277,1.61 1.281,1.63 1.286,1.65C1.323,1.823 1.362,2.002 1.528,2.117C1.62,2.181 1.692,2.272 1.762,2.36L1.796,2.401C1.82,2.431 1.825,2.472 1.83,2.513C1.831,2.524 1.832,2.535 1.834,2.545C1.84,2.581 1.83,2.614 1.807,2.635C1.788,2.653 1.76,2.66 1.734,2.652C1.619,2.623 1.557,2.54 1.498,2.459C1.474,2.427 1.449,2.393 1.421,2.364C1.027,1.955 0.636,1.56 0.272,1.193C0.259,1.18 0.246,1.166 0.234,1.151C0.186,1.097 0.142,1.044 0.058,1.055C0.013,1.06 -0.024,1.149 -0.002,1.329C0,1.341 0,1.354 0,1.367" style="fill:rgb(64,79,89);fill-rule:nonzero;"/>
            </g>
            <g transform="matrix(1,0,0,1,17.1331,22.332)">
                <path d="M0,-1.475C-0.037,-1.492 -0.086,-1.49 -0.134,-1.489L-0.179,-1.489C-0.374,-1.491 -0.569,-1.492 -0.763,-1.494C-1.034,-1.495 -1.304,-1.497 -1.573,-1.501L-1.579,-1.501C-1.69,-1.502 -1.794,-1.504 -1.907,-1.549C-2,-1.585 -2.111,-1.585 -2.22,-1.584L-2.277,-1.584C-2.452,-1.584 -2.621,-1.42 -2.626,-1.245C-2.63,-1.1 -2.629,-0.953 -2.628,-0.81C-2.627,-0.747 -2.627,-0.684 -2.627,-0.621L-2.627,-0.6L-2.631,-0.6L-2.631,-0.141C-2.631,-0.093 -2.631,-0.045 -2.629,0.003C-2.627,0.048 -2.613,0.08 -2.59,0.094C-2.563,0.11 -2.528,0.099 -2.504,0.087C-1.671,-0.326 -0.838,-0.74 -0.005,-1.154C0.015,-1.164 0.032,-1.18 0.051,-1.197L0.065,-1.21C0.104,-1.245 0.145,-1.298 0.119,-1.353C0.094,-1.405 0.046,-1.454 0,-1.475" style="fill:rgb(64,79,89);fill-rule:nonzero;"/>
            </g>
            <g transform="matrix(1,0,0,1,13.0781,20.606)">
                <path d="M0,0.43C-0.067,0.43 -0.134,0.429 -0.201,0.428C-0.283,0.427 -0.364,0.427 -0.446,0.427C-0.526,0.428 -0.604,0.404 -0.676,0.382C-0.708,0.372 -0.74,0.362 -0.771,0.354C-0.938,0.314 -1.102,0.257 -1.26,0.202C-1.452,0.136 -1.65,0.067 -1.853,0.027C-2.147,-0.029 -2.33,-0.178 -2.398,-0.415C-2.415,-0.473 -2.446,-0.529 -2.477,-0.581C-2.491,-0.605 -2.516,-0.627 -2.531,-0.628C-2.566,-0.631 -2.599,-0.634 -2.633,-0.637C-2.787,-0.65 -2.946,-0.663 -3.096,-0.729C-3.109,-0.736 -3.145,-0.725 -3.164,-0.71C-3.257,-0.637 -3.361,-0.64 -3.46,-0.643C-3.476,-0.643 -3.491,-0.643 -3.507,-0.644C-3.622,-0.644 -3.668,-0.6 -3.694,-0.468C-3.735,-0.264 -3.873,-0.115 -4.073,-0.058C-4.122,-0.044 -4.167,-0.024 -4.215,-0.002C-4.253,0.016 -4.293,0.034 -4.335,0.048C-4.492,0.101 -4.655,0.145 -4.812,0.188C-4.982,0.234 -5.159,0.282 -5.328,0.341C-5.471,0.391 -5.627,0.438 -5.799,0.428C-5.906,0.422 -6.016,0.427 -6.122,0.43L-6.134,0.431C-6.176,0.432 -6.222,0.44 -6.269,0.453C-6.33,0.469 -6.383,0.57 -6.383,0.669C-6.383,0.735 -6.36,0.765 -6.297,0.782C-6.12,0.83 -5.998,0.931 -5.933,1.082C-5.926,1.098 -5.906,1.112 -5.885,1.125C-5.88,1.13 -5.874,1.133 -5.869,1.137C-5.841,1.157 -5.796,1.163 -5.749,1.152C-5.705,1.141 -5.67,1.117 -5.656,1.088C-5.623,1.019 -5.593,0.95 -5.561,0.871C-5.507,0.745 -5.415,0.68 -5.285,0.678C-5.206,0.676 -5.125,0.68 -5.046,0.671C-4.899,0.656 -4.827,0.744 -4.758,0.846C-4.714,0.912 -4.665,0.95 -4.615,0.957C-4.573,0.965 -4.53,0.951 -4.487,0.918C-4.399,0.851 -4.32,0.781 -4.312,0.665C-4.299,0.486 -4.195,0.389 -4.01,0.385C-3.925,0.384 -3.823,0.381 -3.72,0.384C-3.62,0.386 -3.597,0.47 -3.582,0.525C-3.577,0.543 -3.569,0.554 -3.561,0.556C-3.552,0.557 -3.536,0.55 -3.521,0.534C-3.482,0.493 -3.456,0.443 -3.439,0.378C-3.379,0.144 -3.331,0.106 -3.097,0.104C-3.075,0.104 -3.054,0.105 -3.033,0.104C-2.955,0.104 -2.878,0.101 -2.808,0.162C-2.704,0.253 -2.611,0.348 -2.623,0.501C-2.624,0.51 -2.62,0.523 -2.614,0.535C-2.611,0.541 -2.606,0.547 -2.601,0.553C-2.599,0.552 -2.597,0.551 -2.595,0.549C-2.585,0.542 -2.569,0.531 -2.568,0.525C-2.555,0.467 -2.525,0.391 -2.426,0.385C-2.336,0.381 -2.257,0.38 -2.184,0.383C-1.949,0.393 -1.839,0.483 -1.76,0.727C-1.757,0.738 -1.757,0.748 -1.757,0.758C-1.757,0.764 -1.757,0.771 -1.756,0.775C-1.719,0.894 -1.66,0.943 -1.539,0.958C-1.443,0.969 -1.363,0.923 -1.333,0.834C-1.296,0.721 -1.232,0.671 -1.122,0.671L-1.105,0.671L-1.068,0.674C-1.017,0.676 -0.965,0.679 -0.914,0.674C-0.903,0.673 -0.893,0.673 -0.883,0.673C-0.745,0.673 -0.657,0.757 -0.571,0.851C-0.522,0.904 -0.511,0.965 -0.502,1.024C-0.498,1.044 -0.495,1.063 -0.491,1.082C-0.484,1.109 -0.455,1.135 -0.415,1.15C-0.368,1.166 -0.317,1.163 -0.288,1.141L-0.277,1.133C-0.231,1.099 -0.179,1.06 -0.165,1.016C-0.137,0.929 -0.084,0.878 0.01,0.847C0.065,0.829 0.123,0.804 0.182,0.774C0.218,0.756 0.235,0.725 0.236,0.677C0.238,0.556 0.234,0.494 0.204,0.463C0.18,0.439 0.135,0.43 0.043,0.43L0,0.43Z" style="fill:rgb(196,135,72);fill-rule:nonzero;"/>
            </g>
            <g transform="matrix(1,0,0,1,8.88913,24.491)">
                <path d="M0,0.547C0.134,0.456 0.286,0.427 0.463,0.457C0.586,0.478 0.605,0.546 0.6,0.598C0.591,0.68 0.617,0.752 0.644,0.828C0.664,0.885 0.685,0.944 0.69,1.006C0.698,1.101 0.699,1.197 0.7,1.29C0.7,1.34 0.7,1.39 0.701,1.439C0.702,1.464 0.708,1.481 0.716,1.485C0.72,1.487 0.735,1.491 0.778,1.46C0.885,1.385 0.993,1.347 1.104,1.347C1.219,1.347 1.337,1.388 1.46,1.469C1.471,1.476 1.485,1.481 1.505,1.488C1.509,1.49 1.513,1.491 1.517,1.493C1.516,1.337 1.546,1.188 1.576,1.043C1.607,0.893 1.639,0.738 1.632,0.581C1.631,0.547 1.66,0.498 1.691,0.485L1.721,0.473C1.799,0.44 1.88,0.405 1.964,0.399C2.01,0.396 2.062,0.437 2.105,0.474C2.114,0.481 2.122,0.489 2.13,0.495L2.136,0.499C2.189,0.544 2.224,0.568 2.266,0.535C2.276,0.526 2.294,0.5 2.3,0.422C2.304,0.366 2.304,0.308 2.304,0.252C2.303,0.213 2.303,0.174 2.304,0.135C2.306,0.069 2.281,0.02 2.232,-0.005C2.081,-0.081 1.979,-0.209 1.911,-0.409C1.898,-0.448 1.88,-0.487 1.863,-0.524C1.848,-0.557 1.832,-0.59 1.819,-0.624C1.721,-0.886 1.646,-0.943 1.395,-0.944L1.171,-0.944C1.024,-0.944 0.872,-0.943 0.722,-0.946L0.718,-0.946C0.63,-0.946 0.561,-0.9 0.513,-0.81C0.42,-0.635 0.313,-0.428 0.227,-0.217C0.175,-0.092 0.102,-0.018 -0.01,0.021C-0.055,0.037 -0.075,0.064 -0.073,0.105C-0.07,0.153 -0.067,0.2 -0.064,0.248C-0.059,0.339 -0.054,0.434 -0.045,0.526C-0.037,0.534 -0.011,0.546 0,0.547" style="fill:rgb(158,54,35);fill-rule:nonzero;"/>
            </g>
            <g transform="matrix(1,0,0,1,12.2501,26.619)">
                <path d="M0,-2.021L0,-2.111C-0.001,-2.144 -0.008,-2.167 -0.019,-2.173C-0.031,-2.179 -0.055,-2.17 -0.084,-2.151C-0.148,-2.107 -0.215,-2.113 -0.284,-2.17C-0.32,-2.199 -0.355,-2.23 -0.389,-2.261C-0.438,-2.304 -0.488,-2.348 -0.54,-2.387C-0.569,-2.409 -0.626,-2.405 -0.674,-2.377C-0.709,-2.358 -0.729,-2.331 -0.727,-2.308C-0.712,-2.167 -0.742,-2.032 -0.772,-1.902C-0.797,-1.789 -0.824,-1.672 -0.818,-1.555C-0.812,-1.412 -0.895,-1.364 -0.983,-1.314L-1.012,-1.297C-1.119,-1.233 -1.206,-1.244 -1.292,-1.332C-1.301,-1.341 -1.309,-1.349 -1.318,-1.357C-1.333,-1.372 -1.348,-1.386 -1.361,-1.401C-1.395,-1.439 -1.437,-1.43 -1.465,-1.415C-1.478,-1.409 -1.493,-1.378 -1.495,-1.353C-1.504,-1.279 -1.507,-1.203 -1.511,-1.13C-1.518,-0.969 -1.525,-0.804 -1.584,-0.64C-1.613,-0.558 -1.609,-0.465 -1.604,-0.365C-1.602,-0.316 -1.6,-0.265 -1.602,-0.216C-1.606,-0.125 -1.712,-0.012 -1.804,-0.001C-1.807,-0.001 -1.81,0 -1.813,0C-1.879,0 -1.988,-0.08 -2.011,-0.149C-2.019,-0.174 -2.022,-0.2 -2.025,-0.225C-2.027,-0.248 -2.029,-0.269 -2.036,-0.289C-2.048,-0.329 -2.069,-0.37 -2.096,-0.41C-2.128,-0.457 -2.187,-0.483 -2.25,-0.477C-2.307,-0.473 -2.354,-0.444 -2.374,-0.4C-2.391,-0.365 -2.407,-0.328 -2.423,-0.291C-2.451,-0.227 -2.48,-0.161 -2.515,-0.099C-2.539,-0.055 -2.599,-0.023 -2.642,-0.015C-2.682,-0.011 -2.733,-0.044 -2.77,-0.075C-2.827,-0.122 -2.89,-0.195 -2.891,-0.243C-2.892,-0.294 -2.895,-0.344 -2.898,-0.395C-2.905,-0.52 -2.912,-0.65 -2.899,-0.776C-2.888,-0.875 -2.916,-0.964 -2.946,-1.058C-2.974,-1.146 -3.002,-1.236 -2.997,-1.335C-2.994,-1.38 -3.004,-1.411 -3.024,-1.422C-3.05,-1.435 -3.097,-1.42 -3.151,-1.38C-3.159,-1.373 -3.166,-1.365 -3.173,-1.358L-3.182,-1.348C-3.284,-1.241 -3.382,-1.229 -3.504,-1.31C-3.515,-1.317 -3.527,-1.324 -3.539,-1.332C-3.61,-1.375 -3.676,-1.417 -3.671,-1.533C-3.668,-1.618 -3.671,-1.704 -3.673,-1.788C-3.675,-1.862 -3.677,-1.939 -3.675,-2.015C-3.673,-2.102 -3.694,-2.18 -3.746,-2.276C-3.783,-2.345 -3.807,-2.38 -3.833,-2.386C-3.861,-2.392 -3.9,-2.37 -3.962,-2.328C-4.02,-2.289 -4.079,-2.251 -4.137,-2.214C-4.172,-2.192 -4.207,-2.17 -4.241,-2.148C-4.333,-2.088 -4.415,-2.149 -4.442,-2.169C-4.465,-2.186 -4.472,-2.185 -4.472,-2.185C-4.472,-2.185 -4.477,-2.182 -4.48,-2.165C-4.537,-1.881 -4.475,-1.703 -4.285,-1.606C-4.015,-1.468 -3.86,-1.25 -3.796,-0.923C-3.789,-0.886 -3.775,-0.85 -3.76,-0.813C-3.746,-0.776 -3.731,-0.739 -3.723,-0.7C-3.713,-0.651 -3.694,-0.625 -3.656,-0.606C-3.637,-0.598 -3.619,-0.587 -3.6,-0.577C-3.562,-0.556 -3.525,-0.537 -3.487,-0.526C-3.353,-0.49 -3.279,-0.409 -3.233,-0.247C-3.209,-0.163 -3.17,-0.081 -3.131,-0.002C-3.101,0.059 -3.071,0.121 -3.047,0.186C-3.029,0.235 -2.992,0.249 -2.95,0.266C-2.921,0.277 -2.89,0.289 -2.866,0.313C-2.843,0.336 -2.823,0.329 -2.786,0.312C-2.751,0.297 -2.702,0.275 -2.655,0.319C-2.634,0.339 -2.571,0.348 -2.55,0.335C-2.469,0.285 -2.379,0.264 -2.262,0.27C-2.24,0.271 -2.218,0.27 -2.196,0.269L-2.155,0.269C-2.091,0.269 -2.028,0.276 -1.972,0.327C-1.935,0.361 -1.903,0.348 -1.855,0.322C-1.815,0.301 -1.765,0.275 -1.714,0.31C-1.67,0.34 -1.629,0.352 -1.592,0.342C-1.547,0.332 -1.505,0.293 -1.468,0.228C-1.37,0.057 -1.292,-0.126 -1.227,-0.285C-1.166,-0.434 -1.061,-0.532 -0.915,-0.575C-0.818,-0.604 -0.77,-0.654 -0.747,-0.749C-0.739,-0.781 -0.726,-0.81 -0.713,-0.839C-0.699,-0.868 -0.687,-0.896 -0.68,-0.925C-0.633,-1.135 -0.527,-1.309 -0.357,-1.457C-0.328,-1.482 -0.3,-1.509 -0.272,-1.536C-0.231,-1.576 -0.189,-1.618 -0.143,-1.653C-0.025,-1.741 0.02,-1.857 0,-2.021Z" style="fill:rgb(196,135,72);fill-rule:nonzero;"/>
            </g>
            <g transform="matrix(1,0,0,1,19.3431,17.873)">
                <path d="M0,-6.582L-0.007,-6.583C-0.099,-6.598 -0.193,-6.613 -0.263,-6.56C-0.485,-6.389 -0.737,-6.269 -0.982,-6.153C-1.049,-6.121 -1.116,-6.089 -1.183,-6.055C-1.39,-5.952 -1.539,-5.823 -1.637,-5.661C-1.697,-5.562 -1.751,-5.491 -1.813,-5.431C-2.014,-5.236 -2.184,-5.015 -2.332,-4.756C-2.42,-4.602 -2.521,-4.456 -2.632,-4.324C-2.729,-4.209 -2.807,-4.094 -2.869,-3.973C-3.015,-3.69 -3.233,-3.476 -3.514,-3.338L-3.575,-3.309C-3.721,-3.238 -3.873,-3.164 -4.004,-3.057C-4.065,-3.006 -4.14,-2.972 -4.212,-2.94C-4.255,-2.92 -4.3,-2.9 -4.341,-2.876C-4.375,-2.857 -4.417,-2.816 -4.424,-2.8C-4.408,-2.763 -4.391,-2.725 -4.374,-2.688C-4.329,-2.584 -4.282,-2.478 -4.241,-2.368C-4.195,-2.246 -4.143,-2.123 -4.093,-2.003C-4.058,-1.922 -4.023,-1.84 -3.991,-1.758C-3.947,-1.649 -4.008,-1.576 -4.066,-1.525C-4.107,-1.489 -4.182,-1.487 -4.208,-1.489C-4.226,-1.489 -4.243,-1.505 -4.255,-1.517C-4.261,-1.525 -4.284,-1.554 -4.281,-1.579C-4.257,-1.806 -4.352,-1.993 -4.453,-2.19L-4.479,-2.242C-4.518,-2.319 -4.544,-2.404 -4.569,-2.485C-4.576,-2.509 -4.583,-2.533 -4.591,-2.556C-4.609,-2.613 -4.653,-2.638 -4.716,-2.639C-4.782,-2.638 -4.845,-2.626 -4.895,-2.606C-4.95,-2.585 -4.989,-2.546 -5.004,-2.5C-5.017,-2.459 -5.009,-2.415 -4.981,-2.374C-4.917,-2.279 -4.882,-2.172 -4.849,-2.069C-4.82,-1.98 -4.791,-1.888 -4.742,-1.807C-4.615,-1.591 -4.623,-1.352 -4.64,-1.192C-4.662,-0.985 -4.742,-0.827 -4.879,-0.722C-4.922,-0.689 -4.989,-0.682 -5.035,-0.731C-5.055,-0.753 -5.076,-0.804 -5.062,-0.836C-5.026,-0.927 -4.99,-1.015 -4.938,-1.094C-4.863,-1.211 -4.855,-1.331 -4.914,-1.484C-4.947,-1.57 -4.977,-1.66 -5.005,-1.746C-5.026,-1.808 -5.046,-1.869 -5.068,-1.93L-5.076,-1.955C-5.105,-2.034 -5.134,-2.116 -5.173,-2.19C-5.202,-2.243 -5.245,-2.291 -5.292,-2.323C-5.329,-2.348 -5.36,-2.331 -5.409,-2.301C-5.421,-2.294 -5.432,-2.288 -5.443,-2.282C-5.481,-2.262 -5.527,-2.248 -5.586,-2.241C-5.655,-2.233 -5.687,-2.208 -5.705,-2.149C-5.718,-2.105 -5.738,-2.064 -5.757,-2.024C-5.772,-1.994 -5.786,-1.962 -5.798,-1.93C-5.84,-1.818 -5.881,-1.705 -5.922,-1.591C-5.987,-1.413 -6.054,-1.228 -6.123,-1.047C-6.129,-1.031 -6.147,-1.021 -6.166,-1.014C-6.174,-0.99 -6.181,-0.965 -6.188,-0.941C-6.229,-0.816 -6.256,-0.686 -6.269,-0.555C-6.27,-0.55 -6.272,-0.545 -6.272,-0.54C-6.054,-0.512 -5.93,-0.385 -5.897,-0.134C-5.876,0.02 -5.876,0.02 -5.755,0.021C-5.664,0.02 -5.572,0.02 -5.48,0.018C-5.402,0.018 -5.321,0.017 -5.241,0.017C-5.139,0.017 -5.036,0.018 -4.934,0.023C-4.772,0.031 -4.609,0.007 -4.452,-0.018C-4.349,-0.035 -4.242,-0.051 -4.136,-0.058C-3.957,-0.07 -3.83,-0.147 -3.721,-0.309C-3.575,-0.529 -3.429,-0.754 -3.288,-0.973C-3.174,-1.15 -3.06,-1.327 -2.944,-1.503C-2.89,-1.584 -2.831,-1.663 -2.775,-1.74C-2.72,-1.814 -2.664,-1.889 -2.613,-1.967C-2.582,-2.014 -2.534,-2.039 -2.489,-2.063C-2.436,-2.09 -2.388,-2.116 -2.368,-2.174C-2.342,-2.25 -2.379,-2.307 -2.419,-2.368C-2.449,-2.413 -2.479,-2.46 -2.484,-2.518C-2.485,-2.52 -2.489,-2.525 -2.492,-2.529C-2.498,-2.536 -2.504,-2.543 -2.507,-2.553C-2.591,-2.775 -2.591,-2.962 -2.509,-3.126C-2.4,-3.343 -2.301,-3.569 -2.206,-3.788C-2.153,-3.91 -2.098,-4.037 -2.042,-4.16C-1.942,-4.38 -1.862,-4.58 -1.797,-4.771C-1.737,-4.947 -1.661,-5.113 -1.595,-5.252C-1.495,-5.461 -1.321,-5.617 -1.063,-5.729C-1.056,-5.732 -1.034,-5.742 -0.977,-5.681C-0.962,-5.664 -0.963,-5.631 -0.969,-5.614C-1.002,-5.52 -1.074,-5.464 -1.144,-5.408C-1.163,-5.394 -1.182,-5.379 -1.201,-5.363C-1.307,-5.27 -1.385,-5.145 -1.446,-4.972C-1.503,-4.809 -1.569,-4.646 -1.633,-4.489C-1.692,-4.345 -1.753,-4.197 -1.806,-4.049C-1.876,-3.851 -1.967,-3.662 -2.055,-3.479C-2.115,-3.355 -2.177,-3.226 -2.231,-3.098C-2.24,-3.076 -2.253,-3.057 -2.267,-3.039C-2.282,-3.018 -2.296,-2.998 -2.301,-2.977C-2.314,-2.923 -2.328,-2.855 -2.313,-2.798C-2.28,-2.673 -2.243,-2.531 -2.137,-2.428C-2.105,-2.396 -2.096,-2.404 -2.088,-2.411L-2.036,-2.459C-1.804,-2.675 -1.585,-2.88 -1.434,-3.161C-1.301,-3.412 -1.185,-3.677 -1.073,-3.933C-0.973,-4.16 -0.87,-4.395 -0.755,-4.621C-0.743,-4.643 -0.738,-4.668 -0.733,-4.696C-0.729,-4.716 -0.725,-4.735 -0.719,-4.754C-0.536,-5.311 -0.329,-5.942 -0.005,-6.505C0.006,-6.524 0.014,-6.547 0.018,-6.572C0.013,-6.576 0.004,-6.581 0,-6.582" style="fill:rgb(196,135,72);fill-rule:nonzero;"/>
            </g>
            <g transform="matrix(1,0,0,1,13.9881,18.124)">
                <path d="M0,0.846C0.091,0.846 0.182,0.846 0.273,0.844C0.342,0.842 0.379,0.812 0.383,0.753C0.384,0.742 0.385,0.732 0.386,0.721C0.389,0.699 0.391,0.679 0.39,0.659C0.386,0.515 0.381,0.37 0.376,0.225L0.37,0.052C0.247,0 0.121,0.006 -0.011,0.013C-0.081,0.016 -0.153,0.02 -0.223,0.014C-0.27,0.011 -0.318,0.012 -0.365,0.013C-0.413,0.014 -0.463,0.015 -0.512,0.011C-0.621,0.001 -0.709,0.035 -0.798,0.119L-0.807,0.128C-1.02,0.329 -1.02,0.329 -1.023,0.645C-1.024,0.677 -1.023,0.709 -1.022,0.741C-1.02,0.807 -0.99,0.841 -0.932,0.842C-0.796,0.842 -0.66,0.843 -0.523,0.842L-0.332,0.842L-0.332,0.845C-0.222,0.845 -0.112,0.846 0,0.846M-0.388,0.498C-0.413,0.498 -0.437,0.497 -0.462,0.497L-0.462,0.501L-0.483,0.499C-0.511,0.499 -0.538,0.499 -0.566,0.5C-0.593,0.501 -0.621,0.501 -0.649,0.501C-0.689,0.501 -0.729,0.5 -0.77,0.496C-0.804,0.493 -0.835,0.477 -0.851,0.452C-0.861,0.436 -0.87,0.41 -0.858,0.372C-0.838,0.314 -0.82,0.288 -0.797,0.284C-0.605,0.252 -0.401,0.25 -0.132,0.279C-0.098,0.282 -0.075,0.34 -0.067,0.364C-0.056,0.395 -0.06,0.426 -0.076,0.451C-0.092,0.475 -0.12,0.491 -0.149,0.493C-0.229,0.5 -0.31,0.499 -0.388,0.498" style="fill:rgb(64,79,89);fill-rule:nonzero;"/>
            </g>
            <g transform="matrix(1,0,0,1,13.3031,22.779)">
                <path d="M0,-0.344C-0.001,-0.394 -0.003,-0.455 -0.001,-0.531C0.001,-0.622 0.001,-0.716 0,-0.807L0,-0.94C0.001,-0.964 0.002,-0.986 -0.004,-1.004C-0.013,-1.031 -0.03,-1.056 -0.045,-1.062C-0.064,-1.072 -0.101,-1.069 -0.11,-1.06C-0.164,-1.013 -0.214,-0.96 -0.263,-0.909C-0.28,-0.892 -0.297,-0.874 -0.313,-0.857C-0.36,-0.809 -0.419,-0.784 -0.497,-0.778C-0.801,-0.755 -0.841,-0.779 -0.991,-1.068L-1.01,-1.105C-1.025,-1.134 -1.04,-1.165 -1.057,-1.194C-1.076,-1.228 -1.118,-1.252 -1.168,-1.258C-1.223,-1.263 -1.279,-1.247 -1.311,-1.213L-1.318,-1.206C-1.348,-1.174 -1.379,-1.141 -1.389,-1.106C-1.423,-0.989 -1.509,-0.972 -1.583,-0.972L-1.602,-0.972C-1.631,-0.972 -1.66,-0.971 -1.69,-0.969C-1.773,-0.964 -1.858,-0.96 -1.931,-0.989C-1.948,-0.995 -1.965,-1.001 -1.983,-1.007C-2.093,-1.045 -2.229,-1.091 -2.226,-1.279C-2.226,-1.326 -2.255,-1.378 -2.283,-1.429C-2.294,-1.448 -2.304,-1.467 -2.314,-1.486C-2.331,-1.522 -2.367,-1.545 -2.413,-1.549C-2.47,-1.553 -2.519,-1.529 -2.548,-1.486C-2.55,-1.484 -2.551,-1.477 -2.552,-1.472C-2.553,-1.463 -2.555,-1.452 -2.56,-1.442C-2.576,-1.412 -2.596,-1.384 -2.613,-1.36C-2.659,-1.297 -2.744,-1.257 -2.83,-1.257L-2.847,-1.257C-2.936,-1.263 -3.009,-1.311 -3.053,-1.393C-3.085,-1.453 -3.111,-1.518 -3.136,-1.581C-3.156,-1.634 -3.178,-1.689 -3.204,-1.74C-3.22,-1.773 -3.271,-1.814 -3.286,-1.814C-3.334,-1.797 -3.392,-1.756 -3.409,-1.712C-3.423,-1.676 -3.431,-1.637 -3.44,-1.597C-3.453,-1.529 -3.468,-1.459 -3.513,-1.396C-3.522,-1.383 -3.528,-1.37 -3.535,-1.358C-3.557,-1.316 -3.583,-1.269 -3.656,-1.267C-3.674,-1.266 -3.693,-1.265 -3.711,-1.264C-3.788,-1.258 -3.876,-1.252 -3.944,-1.324C-3.972,-1.354 -3.993,-1.391 -4.014,-1.427C-4.025,-1.446 -4.036,-1.465 -4.049,-1.484C-4.071,-1.518 -4.101,-1.537 -4.135,-1.538C-4.173,-1.54 -4.214,-1.518 -4.246,-1.48C-4.275,-1.444 -4.284,-1.404 -4.293,-1.361C-4.296,-1.345 -4.3,-1.329 -4.304,-1.312C-4.363,-1.106 -4.484,-0.999 -4.683,-0.976C-4.898,-0.951 -5.137,-0.959 -5.285,-1.215C-5.287,-1.219 -5.294,-1.224 -5.302,-1.228C-5.307,-1.232 -5.312,-1.235 -5.317,-1.239C-5.348,-1.264 -5.42,-1.249 -5.469,-1.219C-5.519,-1.187 -5.538,-1.135 -5.558,-1.081C-5.576,-1.031 -5.594,-0.978 -5.639,-0.94C-5.658,-0.925 -5.676,-0.906 -5.694,-0.887C-5.736,-0.843 -5.779,-0.797 -5.832,-0.789C-6.009,-0.764 -6.23,-0.733 -6.37,-0.948C-6.394,-0.986 -6.419,-1.023 -6.451,-1.072L-6.477,-1.11C-6.484,-1.086 -6.491,-1.067 -6.496,-1.049C-6.51,-1.007 -6.518,-0.981 -6.519,-0.956C-6.521,-0.855 -6.52,-0.753 -6.52,-0.651C-6.519,-0.514 -6.519,-0.373 -6.523,-0.234C-6.526,-0.105 -6.485,-0.057 -6.354,-0.039C-6.218,-0.021 -6.11,0.058 -6.007,0.133C-5.945,0.179 -5.88,0.226 -5.811,0.259C-5.778,0.275 -5.764,0.319 -5.75,0.361C-5.747,0.372 -5.743,0.383 -5.739,0.393C-5.732,0.411 -5.728,0.43 -5.723,0.449C-5.717,0.476 -5.711,0.501 -5.698,0.522C-5.686,0.541 -5.663,0.552 -5.643,0.567C-5.633,0.664 -5.615,0.763 -5.587,0.865C-5.6,0.866 -5.614,0.873 -5.624,0.884C-5.637,0.9 -5.643,0.921 -5.64,0.944C-5.632,1.014 -5.61,1.084 -5.589,1.151C-5.559,1.247 -5.528,1.347 -5.533,1.455C-5.534,1.466 -5.531,1.469 -5.531,1.469C-5.529,1.469 -5.519,1.47 -5.495,1.456C-5.471,1.442 -5.442,1.433 -5.414,1.426C-5.379,1.416 -5.345,1.406 -5.331,1.387C-5.201,1.205 -5.021,1.205 -4.842,1.206L-4.792,1.206C-4.641,1.206 -4.541,1.277 -4.487,1.424C-4.477,1.45 -4.465,1.462 -4.46,1.462C-4.461,1.461 -4.451,1.46 -4.44,1.437C-4.353,1.262 -4.255,1.054 -4.18,0.831C-4.117,0.645 -3.968,0.535 -3.768,0.528C-3.552,0.52 -3.332,0.523 -3.119,0.525C-2.998,0.527 -2.877,0.528 -2.755,0.528L-2.754,0.528C-2.63,0.528 -2.534,0.589 -2.469,0.709C-2.45,0.744 -2.436,0.782 -2.424,0.819C-2.405,0.874 -2.388,0.925 -2.354,0.962C-2.302,1.02 -2.287,1.088 -2.274,1.154C-2.262,1.213 -2.25,1.268 -2.212,1.314C-2.175,1.359 -2.135,1.4 -2.097,1.401C-2.073,1.401 -2.046,1.384 -2.017,1.349C-1.923,1.241 -1.828,1.196 -1.709,1.205C-1.692,1.206 -1.676,1.207 -1.659,1.208C-1.55,1.214 -1.446,1.22 -1.342,1.313C-1.252,1.394 -1.187,1.428 -1.138,1.414C-1.089,1.402 -1.047,1.342 -1.004,1.225C-1.001,1.216 -0.996,1.208 -0.991,1.202C-0.988,1.197 -0.984,1.191 -0.983,1.188C-0.981,1.16 -0.977,1.133 -0.973,1.105C-0.962,1.039 -0.951,0.971 -0.964,0.91C-0.971,0.881 -0.993,0.871 -1.021,0.866C-0.96,0.767 -0.916,0.646 -0.888,0.536C-0.88,0.506 -0.872,0.475 -0.866,0.445C-0.748,0.237 -0.557,0.122 -0.376,0.043C0.006,-0.122 0.006,-0.122 0,-0.344" style="fill:rgb(121,69,28);fill-rule:nonzero;"/>
            </g>
            <g transform="matrix(1,0,0,1,18.4831,30.432)">
                <path d="M0,-13.948C-0.06,-14.024 -0.158,-14.058 -0.228,-14.027C-0.248,-14.019 -0.268,-14.01 -0.288,-14.002C-0.355,-13.974 -0.425,-13.946 -0.476,-13.902C-0.62,-13.776 -0.791,-13.698 -0.955,-13.622C-1.005,-13.599 -1.053,-13.576 -1.102,-13.552C-1.463,-13.373 -1.836,-13.189 -2.184,-12.966C-2.214,-12.948 -2.242,-12.919 -2.269,-12.89C-2.319,-12.841 -2.366,-12.794 -2.421,-12.793C-2.562,-12.792 -2.641,-12.713 -2.724,-12.629C-2.749,-12.604 -2.775,-12.578 -2.803,-12.554C-2.818,-12.54 -2.835,-12.524 -2.851,-12.508C-2.902,-12.457 -2.955,-12.406 -3.007,-12.41C-3.106,-12.419 -3.189,-12.386 -3.279,-12.352C-3.367,-12.318 -3.459,-12.285 -3.562,-12.292C-3.679,-12.302 -3.733,-12.297 -3.759,-12.273C-3.786,-12.248 -3.787,-12.191 -3.787,-12.083L-3.786,-11.994C-3.785,-11.865 -3.785,-11.732 -3.788,-11.6C-3.79,-11.543 -3.804,-11.491 -3.828,-11.455C-3.921,-11.319 -4.08,-11.156 -4.311,-11.146C-4.608,-11.135 -4.91,-11.139 -5.202,-11.143C-5.323,-11.145 -5.445,-11.147 -5.567,-11.148L-5.575,-11.148L-5.582,-11.154C-5.641,-11.219 -5.691,-11.199 -5.767,-11.159C-5.781,-11.151 -5.794,-11.145 -5.808,-11.138C-5.829,-11.129 -5.85,-11.12 -5.871,-11.111C-5.935,-11.083 -6.002,-11.053 -6.061,-11.016C-6.152,-10.958 -6.194,-10.889 -6.193,-10.799C-6.19,-10.636 -6.194,-10.47 -6.197,-10.31L-6.2,-10.171C-6.201,-10.147 -6.218,-10.121 -6.247,-10.102C-6.272,-10.086 -6.309,-10.074 -6.338,-10.086C-6.392,-10.109 -6.42,-10.133 -6.421,-10.157C-6.423,-10.25 -6.423,-10.345 -6.424,-10.437C-6.424,-10.566 -6.425,-10.7 -6.433,-10.831C-6.444,-11.017 -6.334,-11.127 -6.225,-11.21C-6.147,-11.27 -6.063,-11.331 -5.971,-11.355C-5.848,-11.387 -5.817,-11.48 -5.783,-11.579C-5.777,-11.596 -5.772,-11.613 -5.766,-11.629C-5.744,-11.686 -5.749,-11.756 -5.753,-11.823C-5.755,-11.852 -5.757,-11.881 -5.756,-11.91C-5.756,-11.977 -5.785,-12.009 -5.845,-12.01L-5.966,-12.01C-6.242,-12.012 -6.528,-12.014 -6.809,-12.011C-6.963,-12.01 -7.039,-11.949 -7.057,-11.815C-7.066,-11.748 -7.092,-11.691 -7.117,-11.636C-7.138,-11.59 -7.158,-11.547 -7.168,-11.5C-7.179,-11.45 -7.305,-11.441 -7.306,-11.441L-7.308,-11.441C-7.343,-11.441 -7.374,-11.501 -7.381,-11.525C-7.413,-11.644 -7.375,-11.75 -7.337,-11.852C-7.315,-11.913 -7.292,-11.976 -7.286,-12.039C-7.282,-12.074 -7.249,-12.112 -7.219,-12.128C-7.183,-12.147 -7.148,-12.168 -7.113,-12.189C-6.977,-12.271 -6.834,-12.354 -6.642,-12.339C-6.421,-12.32 -6.193,-12.323 -5.974,-12.326C-5.861,-12.327 -5.745,-12.328 -5.631,-12.327L-5.625,-12.327C-5.493,-12.327 -5.408,-12.387 -5.358,-12.515C-5.348,-12.541 -5.335,-12.566 -5.323,-12.59C-5.314,-12.609 -5.304,-12.627 -5.296,-12.645C-5.283,-12.675 -5.289,-12.722 -5.311,-12.767C-5.332,-12.809 -5.364,-12.84 -5.394,-12.848C-5.451,-12.862 -5.514,-12.869 -5.576,-12.87C-5.636,-12.871 -5.696,-12.872 -5.757,-12.873C-5.951,-12.876 -6.151,-12.879 -6.346,-12.867C-6.505,-12.856 -6.623,-12.916 -6.73,-13.057C-6.759,-13.096 -6.787,-13.136 -6.814,-13.176C-6.875,-13.264 -6.938,-13.355 -7.019,-13.431C-7.108,-13.513 -7.189,-13.547 -7.299,-13.547L-7.302,-13.547C-8.183,-13.541 -8.956,-13.542 -9.667,-13.547L-9.67,-13.547C-9.786,-13.547 -9.87,-13.508 -9.941,-13.42C-10.054,-13.28 -10.163,-13.142 -10.266,-13.01C-10.345,-12.909 -10.445,-12.864 -10.574,-12.868C-10.749,-12.874 -10.927,-12.873 -11.1,-12.872C-11.198,-12.872 -11.295,-12.871 -11.393,-12.872L-11.395,-12.872C-11.451,-12.872 -11.497,-12.85 -11.548,-12.801C-11.634,-12.716 -11.612,-12.609 -11.591,-12.506C-11.572,-12.416 -11.501,-12.353 -11.406,-12.338C-11.35,-12.328 -11.29,-12.33 -11.232,-12.331C-11.211,-12.331 -11.19,-12.333 -11.17,-12.331L-11.156,-12.331C-11.053,-12.331 -10.949,-12.332 -10.846,-12.333C-10.62,-12.335 -10.386,-12.336 -10.155,-12.33C-9.846,-12.321 -9.6,-12.085 -9.572,-11.768C-9.567,-11.706 -9.569,-11.641 -9.572,-11.579C-9.572,-11.561 -9.573,-11.543 -9.574,-11.525C-9.574,-11.497 -9.592,-11.47 -9.62,-11.451C-9.648,-11.433 -9.681,-11.428 -9.707,-11.438C-9.736,-11.45 -9.773,-11.468 -9.79,-11.496C-9.806,-11.524 -9.813,-11.566 -9.807,-11.604C-9.783,-11.761 -9.874,-11.862 -9.977,-11.96C-10.038,-12.017 -10.111,-12.015 -10.189,-12.013L-10.237,-12.013C-10.485,-12.015 -10.744,-12.015 -11.008,-12.013C-11.091,-12.013 -11.146,-12.012 -11.162,-11.993C-11.178,-11.972 -11.164,-11.905 -11.14,-11.795C-11.125,-11.729 -11.12,-11.661 -11.122,-11.596C-11.125,-11.518 -11.094,-11.457 -11.027,-11.409C-10.989,-11.381 -10.947,-11.356 -10.907,-11.331C-10.854,-11.299 -10.799,-11.266 -10.749,-11.226L-10.731,-11.21C-10.658,-11.152 -10.576,-11.087 -10.551,-11.005C-10.48,-10.779 -10.408,-10.516 -10.459,-10.248C-10.469,-10.197 -10.514,-10.152 -10.547,-10.12C-10.576,-10.092 -10.625,-10.085 -10.644,-10.083C-10.674,-10.081 -10.701,-10.089 -10.721,-10.106C-10.743,-10.125 -10.756,-10.155 -10.758,-10.19C-10.763,-10.268 -10.763,-10.346 -10.764,-10.422C-10.764,-10.458 -10.765,-10.493 -10.765,-10.529C-10.766,-10.59 -10.766,-10.643 -10.765,-10.688C-10.761,-10.948 -10.761,-10.963 -11.165,-11.148C-11.264,-11.194 -11.324,-11.194 -11.401,-11.152C-11.433,-11.135 -11.473,-11.138 -11.511,-11.142C-11.526,-11.143 -11.541,-11.144 -11.554,-11.145C-11.652,-11.144 -11.749,-11.145 -11.846,-11.145C-12.082,-11.145 -12.327,-11.145 -12.567,-11.139L-12.58,-11.139C-12.761,-11.139 -12.896,-11.234 -13.009,-11.323C-13.1,-11.396 -13.097,-11.5 -13.094,-11.591C-13.094,-11.612 -13.093,-11.633 -13.094,-11.653C-13.095,-11.735 -13.096,-11.818 -13.096,-11.9C-13.097,-12.009 -13.097,-12.122 -13.101,-12.232C-13.101,-12.247 -13.125,-12.277 -13.14,-12.282C-13.185,-12.296 -13.234,-12.3 -13.274,-12.293C-13.41,-12.27 -13.533,-12.31 -13.652,-12.347C-13.697,-12.361 -13.743,-12.376 -13.789,-12.387C-13.977,-12.432 -14.139,-12.528 -14.282,-12.681C-14.322,-12.723 -14.38,-12.769 -14.424,-12.769C-14.532,-12.77 -14.599,-12.827 -14.663,-12.882C-14.682,-12.898 -14.702,-12.914 -14.722,-12.929C-14.874,-13.041 -15.037,-13.143 -15.196,-13.241L-15.235,-13.266C-15.398,-13.368 -15.578,-13.444 -15.751,-13.517C-15.821,-13.547 -15.891,-13.576 -15.96,-13.607C-16.128,-13.683 -16.29,-13.778 -16.446,-13.871C-16.519,-13.914 -16.593,-13.957 -16.667,-13.999C-16.692,-14.012 -16.72,-14.023 -16.75,-14.031C-16.847,-14.056 -16.909,-14.007 -16.972,-13.926C-17.007,-13.879 -17.027,-13.826 -16.937,-13.748C-16.748,-13.585 -16.607,-13.38 -16.471,-13.182L-16.451,-13.152C-16.246,-12.853 -16.036,-12.548 -15.772,-12.297C-15.546,-12.081 -15.348,-11.838 -15.166,-11.553C-15.059,-11.387 -14.906,-11.182 -14.663,-11.072C-14.632,-11.058 -14.616,-11.042 -14.612,-11.021C-14.608,-11.003 -14.616,-10.984 -14.633,-10.967C-14.666,-10.933 -14.703,-10.901 -14.741,-10.871C-14.756,-10.859 -14.771,-10.87 -14.783,-10.879C-14.788,-10.882 -14.796,-10.889 -14.8,-10.889C-14.933,-10.926 -15.061,-10.983 -15.184,-11.038C-15.259,-11.072 -15.337,-11.107 -15.415,-11.136C-15.488,-11.164 -15.565,-11.188 -15.639,-11.212C-15.786,-11.258 -15.939,-11.307 -16.08,-11.386C-16.225,-11.467 -16.281,-11.443 -16.386,-11.323C-16.408,-11.299 -16.418,-11.268 -16.414,-11.239C-16.412,-11.224 -16.405,-11.202 -16.382,-11.187C-16.152,-11.035 -15.959,-10.839 -15.772,-10.648C-15.672,-10.546 -15.568,-10.44 -15.46,-10.343C-15.455,-10.338 -15.449,-10.333 -15.445,-10.328C-15.439,-10.322 -15.433,-10.316 -15.426,-10.311C-15.154,-10.096 -14.82,-9.998 -14.529,-9.923C-14.437,-9.9 -14.334,-9.906 -14.233,-9.913C-14.19,-9.915 -14.145,-9.918 -14.102,-9.919L-14.055,-9.919C-13.95,-9.919 -13.843,-9.92 -13.734,-9.945C-13.794,-9.975 -13.842,-10.019 -13.889,-10.062C-13.94,-10.11 -13.988,-10.154 -14.05,-10.18C-14.126,-10.211 -14.201,-10.28 -14.232,-10.348L-14.253,-10.393C-14.327,-10.551 -14.403,-10.714 -14.427,-10.883C-14.451,-11.041 -14.443,-11.206 -14.436,-11.365C-14.432,-11.43 -14.43,-11.496 -14.428,-11.56C-14.428,-11.586 -14.409,-11.613 -14.379,-11.632C-14.359,-11.645 -14.338,-11.651 -14.32,-11.651C-14.309,-11.651 -14.3,-11.649 -14.291,-11.645C-14.238,-11.62 -14.213,-11.598 -14.211,-11.574L-14.207,-11.531C-14.197,-11.433 -14.188,-11.332 -14.2,-11.234C-14.222,-11.048 -14.165,-10.873 -14.109,-10.705L-14.088,-10.64C-14.052,-10.531 -13.978,-10.439 -13.867,-10.367C-13.614,-10.203 -13.318,-10.014 -13.012,-9.856C-12.773,-9.733 -12.665,-9.55 -12.662,-9.261C-12.654,-8.718 -12.654,-8.228 -12.662,-7.764C-12.664,-7.573 -12.602,-7.413 -12.467,-7.261C-12.351,-7.13 -12.205,-7.034 -12.064,-6.942C-12.022,-6.915 -11.98,-6.887 -11.938,-6.859C-11.835,-6.788 -11.737,-6.709 -11.641,-6.618C-11.478,-6.464 -11.399,-6.272 -11.409,-6.046C-11.41,-5.994 -11.408,-5.94 -11.406,-5.889C-11.403,-5.83 -11.401,-5.768 -11.405,-5.707C-11.42,-5.459 -11.328,-5.243 -11.121,-5.046C-11.023,-4.952 -10.926,-4.854 -10.833,-4.758C-10.782,-4.706 -10.73,-4.653 -10.679,-4.601C-10.511,-4.433 -10.432,-4.231 -10.438,-3.984C-10.443,-3.787 -10.441,-3.587 -10.439,-3.393C-10.437,-3.16 -10.435,-2.918 -10.444,-2.681C-10.456,-2.375 -10.396,-2.134 -10.254,-1.922C-10.226,-1.88 -10.186,-1.815 -10.168,-1.745C-10.088,-1.426 -9.946,-1.137 -9.76,-0.801C-9.72,-0.729 -9.69,-0.656 -9.661,-0.585C-9.58,-0.384 -9.48,-0.186 -9.384,0.004L-9.337,0.098C-9.332,0.103 -9.296,0.11 -9.274,0.105C-9.254,0.1 -9.228,0.077 -9.227,0.064C-9.222,0.037 -9.222,0.01 -9.222,-0.02C-9.222,-0.056 -9.222,-0.094 -9.212,-0.129C-9.205,-0.152 -9.198,-0.174 -9.192,-0.197C-9.149,-0.336 -9.11,-0.467 -9.206,-0.61C-9.24,-0.661 -9.233,-0.735 -9.227,-0.807C-9.226,-0.825 -9.224,-0.843 -9.223,-0.86C-9.217,-0.997 -9.251,-1.131 -9.285,-1.26C-9.317,-1.387 -9.351,-1.519 -9.348,-1.656C-9.347,-1.681 -9.361,-1.709 -9.376,-1.738C-9.391,-1.767 -9.405,-1.797 -9.409,-1.829C-9.417,-1.916 -9.445,-1.953 -9.524,-1.983C-9.657,-2.034 -9.724,-2.137 -9.707,-2.266C-9.703,-2.297 -9.693,-2.339 -9.667,-2.362C-9.642,-2.383 -9.591,-2.397 -9.56,-2.383C-9.511,-2.36 -9.47,-2.32 -9.442,-2.293C-9.354,-2.201 -9.271,-2.194 -9.175,-2.269C-9.149,-2.29 -9.119,-2.305 -9.09,-2.319C-9.062,-2.333 -9.035,-2.347 -9.012,-2.365C-8.952,-2.413 -8.896,-2.39 -8.859,-2.374C-8.835,-2.365 -8.819,-2.345 -8.812,-2.317C-8.801,-2.272 -8.817,-2.214 -8.852,-2.174L-8.871,-2.152C-8.938,-2.073 -9.007,-1.991 -9.121,-1.96C-9.127,-1.957 -9.139,-1.938 -9.144,-1.927C-9.092,-1.863 -9.093,-1.786 -9.093,-1.712C-9.093,-1.642 -9.094,-1.576 -9.049,-1.525C-8.919,-1.379 -8.837,-1.206 -8.757,-1.037C-8.71,-0.937 -8.661,-0.834 -8.603,-0.739C-8.574,-0.691 -8.516,-0.658 -8.458,-0.658C-8.434,-0.658 -8.39,-0.664 -8.366,-0.705L-8.36,-0.716C-8.146,-1.069 -7.924,-1.434 -7.801,-1.84C-7.788,-1.882 -7.787,-1.912 -7.798,-1.931C-7.806,-1.946 -7.822,-1.957 -7.846,-1.964C-7.998,-2.007 -8.056,-2.13 -8.102,-2.252C-8.105,-2.259 -8.108,-2.266 -8.111,-2.273C-8.122,-2.296 -8.134,-2.321 -8.124,-2.347C-8.117,-2.364 -8.101,-2.377 -8.076,-2.387C-8.047,-2.398 -8.014,-2.398 -7.985,-2.398L-7.974,-2.398C-7.913,-2.398 -7.874,-2.361 -7.84,-2.328C-7.828,-2.317 -7.816,-2.306 -7.803,-2.296C-7.664,-2.19 -7.663,-2.19 -7.502,-2.306C-7.496,-2.311 -7.491,-2.316 -7.487,-2.32C-7.48,-2.328 -7.474,-2.334 -7.466,-2.34C-7.404,-2.384 -7.348,-2.402 -7.311,-2.387C-7.29,-2.379 -7.276,-2.362 -7.271,-2.339L-7.268,-2.324C-7.254,-2.262 -7.238,-2.191 -7.266,-2.142C-7.302,-2.078 -7.372,-2.015 -7.448,-1.979C-7.516,-1.946 -7.539,-1.916 -7.542,-1.86C-7.543,-1.841 -7.542,-1.821 -7.541,-1.802C-7.538,-1.751 -7.536,-1.698 -7.561,-1.66C-7.619,-1.567 -7.626,-1.47 -7.633,-1.366C-7.636,-1.328 -7.638,-1.289 -7.644,-1.251C-7.653,-1.185 -7.668,-1.119 -7.684,-1.055C-7.704,-0.968 -7.725,-0.878 -7.73,-0.79C-7.74,-0.609 -7.739,-0.424 -7.738,-0.245C-7.737,-0.154 -7.737,-0.062 -7.737,0.029C-7.738,0.055 -7.731,0.077 -7.718,0.09C-7.708,0.1 -7.696,0.105 -7.681,0.105L-7.68,0.105C-7.645,0.105 -7.594,0.088 -7.575,0.063C-7.565,0.048 -7.554,0.034 -7.543,0.02C-7.487,-0.056 -7.429,-0.133 -7.412,-0.214C-7.367,-0.438 -7.262,-0.636 -7.16,-0.827C-7.136,-0.87 -7.113,-0.914 -7.091,-0.957C-6.963,-1.207 -6.847,-1.468 -6.749,-1.734C-6.733,-1.776 -6.72,-1.819 -6.706,-1.861C-6.677,-1.954 -6.646,-2.049 -6.597,-2.133C-6.54,-2.23 -6.515,-2.325 -6.516,-2.44C-6.516,-2.593 -6.516,-2.747 -6.515,-2.9C-6.513,-3.192 -6.511,-3.494 -6.521,-3.791C-6.529,-4.04 -6.472,-4.26 -6.341,-4.481C-6.277,-4.589 -6.201,-4.676 -6.134,-4.747C-6.072,-4.813 -6.006,-4.878 -5.942,-4.941C-5.882,-4.999 -5.819,-5.061 -5.76,-5.123C-5.609,-5.284 -5.542,-5.447 -5.556,-5.622C-5.566,-5.746 -5.536,-5.864 -5.506,-5.979C-5.477,-6.091 -5.448,-6.208 -5.458,-6.327C-5.461,-6.36 -5.441,-6.391 -5.421,-6.421C-5.412,-6.435 -5.402,-6.449 -5.396,-6.463C-5.312,-6.648 -5.167,-6.76 -5.036,-6.845L-4.984,-6.879C-4.805,-6.995 -4.62,-7.115 -4.469,-7.276C-4.342,-7.413 -4.292,-7.531 -4.295,-7.685C-4.302,-7.983 -4.3,-8.286 -4.299,-8.58C-4.298,-8.7 -4.298,-8.82 -4.297,-8.94C-4.297,-8.97 -4.299,-8.999 -4.3,-9.029C-4.304,-9.097 -4.307,-9.166 -4.294,-9.233C-4.261,-9.397 -4.218,-9.551 -4.165,-9.687C-4.128,-9.78 -4.038,-9.818 -3.958,-9.85C-3.932,-9.861 -3.907,-9.872 -3.884,-9.884C-3.665,-9.998 -3.38,-10.155 -3.118,-10.353C-3.089,-10.375 -3.056,-10.393 -3.024,-10.41C-2.945,-10.453 -2.87,-10.493 -2.863,-10.59C-2.858,-10.655 -2.832,-10.713 -2.806,-10.769C-2.772,-10.842 -2.74,-10.912 -2.757,-10.995C-2.769,-11.055 -2.765,-11.117 -2.762,-11.177C-2.761,-11.198 -2.76,-11.22 -2.76,-11.241L-2.759,-11.27C-2.756,-11.371 -2.754,-11.476 -2.744,-11.579C-2.741,-11.613 -2.683,-11.641 -2.653,-11.645C-2.624,-11.648 -2.588,-11.63 -2.561,-11.615C-2.54,-11.603 -2.528,-11.576 -2.528,-11.556C-2.527,-11.485 -2.524,-11.412 -2.521,-11.341C-2.513,-11.173 -2.505,-10.998 -2.53,-10.83C-2.566,-10.591 -2.637,-10.325 -2.887,-10.165C-2.974,-10.11 -3.062,-10.058 -3.165,-9.997C-3.198,-9.977 -3.234,-9.956 -3.271,-9.933C-3.119,-9.921 -2.982,-9.92 -2.848,-9.919C-2.771,-9.919 -2.696,-9.918 -2.62,-9.915C-2.605,-9.914 -2.589,-9.914 -2.574,-9.914C-2.193,-9.914 -1.868,-10.089 -1.573,-10.278C-1.278,-10.468 -1.027,-10.724 -0.785,-10.972C-0.718,-11.04 -0.651,-11.109 -0.583,-11.176C-0.555,-11.204 -0.541,-11.231 -0.542,-11.258C-0.542,-11.287 -0.56,-11.319 -0.594,-11.35C-0.695,-11.444 -0.744,-11.462 -0.868,-11.392C-1.038,-11.296 -1.225,-11.235 -1.405,-11.177C-1.593,-11.116 -1.787,-11.053 -1.962,-10.95C-2.024,-10.912 -2.107,-10.886 -2.193,-10.876C-2.228,-10.874 -2.258,-10.902 -2.289,-10.931C-2.298,-10.939 -2.307,-10.948 -2.316,-10.955C-2.34,-10.976 -2.351,-10.996 -2.348,-11.016C-2.345,-11.036 -2.33,-11.052 -2.303,-11.064C-2.068,-11.164 -1.914,-11.353 -1.75,-11.571C-1.453,-11.97 -1.208,-12.265 -0.958,-12.528C-0.86,-12.63 -0.775,-12.739 -0.696,-12.863C-0.538,-13.108 -0.36,-13.364 -0.122,-13.574C-0.073,-13.616 -0.03,-13.664 0.01,-13.711C0.063,-13.773 0.059,-13.872 0,-13.948M-3.61,-10.69C-3.673,-10.605 -3.758,-10.564 -3.874,-10.564C-4.191,-10.568 -4.522,-10.568 -4.887,-10.563C-5.17,-10.558 -5.31,-10.423 -5.314,-10.148C-5.315,-10.12 -5.314,-10.091 -5.313,-10.062C-5.312,-10.011 -5.31,-9.957 -5.316,-9.905C-5.325,-9.818 -5.327,-9.73 -5.281,-9.675C-5.248,-9.635 -5.191,-9.612 -5.107,-9.605C-5.011,-9.598 -4.933,-9.493 -4.93,-9.368C-4.929,-9.34 -4.93,-9.312 -4.93,-9.283C-4.933,-9.185 -4.935,-9.092 -4.875,-9.006C-4.849,-8.968 -4.857,-8.889 -4.882,-8.851C-4.944,-8.759 -4.942,-8.659 -4.941,-8.553C-4.94,-8.532 -4.94,-8.51 -4.94,-8.489C-4.941,-8.442 -4.942,-8.395 -4.943,-8.348C-4.946,-8.204 -4.949,-8.056 -4.936,-7.912C-4.915,-7.693 -5.05,-7.577 -5.171,-7.501C-5.316,-7.41 -5.461,-7.338 -5.6,-7.289C-5.762,-7.231 -5.828,-7.136 -5.806,-6.989C-5.79,-6.887 -5.823,-6.798 -5.856,-6.712C-5.885,-6.633 -5.912,-6.56 -5.906,-6.476L-5.903,-6.442C-5.891,-6.273 -5.877,-6.098 -5.924,-5.942C-5.965,-5.803 -5.98,-5.669 -5.996,-5.527L-6.002,-5.479C-6.007,-5.436 -6.036,-5.396 -6.061,-5.361L-6.071,-5.347C-6.085,-5.327 -6.114,-5.291 -6.152,-5.276C-6.309,-5.213 -6.443,-5.099 -6.538,-4.947C-6.702,-4.685 -6.722,-4.38 -6.996,-4.196C-7.12,-4.113 -7.187,-4.038 -7.255,-3.907C-7.32,-3.783 -7.381,-3.655 -7.443,-3.525C-7.546,-3.306 -7.711,-3.208 -7.959,-3.219C-8.315,-3.232 -8.671,-3.232 -9.017,-3.218C-9.244,-3.208 -9.412,-3.307 -9.502,-3.5C-9.524,-3.547 -9.551,-3.595 -9.576,-3.64C-9.643,-3.76 -9.67,-3.867 -9.706,-3.993C-9.736,-4.098 -9.823,-4.138 -9.906,-4.205C-9.94,-4.234 -10.189,-4.367 -10.194,-4.388C-10.205,-4.427 -10.22,-4.467 -10.238,-4.506C-10.273,-4.583 -10.308,-4.662 -10.295,-4.755C-10.284,-4.825 -10.336,-4.878 -10.386,-4.928L-10.401,-4.941C-10.53,-5.072 -10.673,-5.211 -10.85,-5.377C-10.934,-5.455 -10.971,-5.54 -10.967,-5.646C-10.966,-5.697 -10.968,-5.75 -10.97,-5.801C-10.974,-5.878 -10.977,-5.957 -10.966,-6.034C-10.953,-6.129 -10.981,-6.214 -11.01,-6.304C-11.035,-6.38 -11.06,-6.458 -11.059,-6.543C-11.057,-6.697 -11.054,-6.856 -11.148,-7.006C-11.146,-7.231 -11.308,-7.309 -11.488,-7.376L-11.535,-7.393C-11.669,-7.441 -11.807,-7.491 -11.909,-7.605C-11.961,-7.662 -12.019,-7.727 -12.019,-7.827C-12.02,-8.258 -12.022,-8.719 -12.026,-9.322C-12.027,-9.419 -12.009,-9.523 -11.868,-9.557C-11.829,-9.566 -11.792,-9.587 -11.752,-9.61C-11.736,-9.62 -11.719,-9.629 -11.702,-9.638C-11.66,-9.659 -11.643,-9.686 -11.644,-9.73C-11.645,-9.805 -11.645,-9.881 -11.645,-9.957C-11.644,-10.026 -11.643,-10.095 -11.644,-10.164C-11.647,-10.416 -11.787,-10.558 -12.037,-10.562C-12.228,-10.566 -12.423,-10.566 -12.611,-10.566C-12.757,-10.566 -12.903,-10.566 -13.05,-10.568C-13.127,-10.568 -13.189,-10.579 -13.242,-10.599C-13.288,-10.617 -13.326,-10.661 -13.356,-10.701C-13.365,-10.714 -13.364,-10.731 -13.354,-10.752C-13.334,-10.791 -13.269,-10.864 -13.22,-10.865C-13.079,-10.868 -12.936,-10.866 -12.797,-10.867L-12.666,-10.866L-12.666,-10.879L-12.516,-10.88C-12.43,-10.88 -12.345,-10.88 -12.259,-10.879C-12.034,-10.879 -11.832,-10.797 -11.663,-10.718C-11.508,-10.645 -11.421,-10.513 -11.403,-10.328C-11.396,-10.251 -11.397,-10.172 -11.399,-10.096C-11.4,-10.045 -11.401,-9.993 -11.4,-9.941C-11.399,-9.917 -11.4,-9.891 -11.401,-9.864C-11.403,-9.792 -11.405,-9.716 -11.373,-9.679C-11.32,-9.617 -11.239,-9.627 -11.155,-9.638C-11.111,-9.644 -11.065,-9.65 -11.021,-9.646C-11.012,-9.646 -10.998,-9.654 -10.986,-9.662C-10.973,-9.67 -10.96,-9.678 -10.945,-9.683C-10.79,-9.731 -10.632,-9.776 -10.479,-9.82C-10.231,-9.89 -9.974,-9.962 -9.729,-10.05C-9.499,-10.132 -9.339,-10.238 -9.307,-10.488C-9.283,-10.679 -9.08,-10.733 -8.931,-10.771C-8.82,-10.801 -8.663,-10.829 -8.537,-10.745C-8.471,-10.701 -8.423,-10.716 -8.35,-10.739L-8.337,-10.743C-7.998,-10.847 -7.783,-10.752 -7.617,-10.425C-7.468,-10.131 -7.462,-10.12 -7.151,-10.024C-7.014,-9.983 -6.875,-9.943 -6.74,-9.904C-6.489,-9.833 -6.229,-9.759 -5.978,-9.668C-5.911,-9.644 -5.833,-9.644 -5.752,-9.644C-5.72,-9.644 -5.686,-9.644 -5.654,-9.642C-5.625,-9.642 -5.599,-9.648 -5.584,-9.662C-5.567,-9.678 -5.558,-9.702 -5.558,-9.736C-5.557,-9.776 -5.556,-9.816 -5.556,-9.856C-5.553,-9.991 -5.55,-10.129 -5.557,-10.265C-5.564,-10.399 -5.5,-10.486 -5.433,-10.578C-5.307,-10.749 -5.117,-10.841 -4.836,-10.868C-4.551,-10.895 -4.258,-10.887 -3.975,-10.88C-3.875,-10.877 -3.776,-10.875 -3.677,-10.873C-3.642,-10.873 -3.607,-10.823 -3.597,-10.795C-3.587,-10.766 -3.589,-10.717 -3.61,-10.69" style="fill:rgb(158,54,35);fill-rule:nonzero;"/>
            </g>
        </g>
    </g>
</svg>
