<?xml version="1.0" encoding="UTF-8" standalone="no"?>
<!DOCTYPE svg PUBLIC "-//W3C//DTD SVG 1.1//EN" "http://www.w3.org/Graphics/SVG/1.1/DTD/svg11.dtd">
<svg width="100%" height="100%" viewBox="0 0 20 20" version="1.1" xmlns="http://www.w3.org/2000/svg" xmlns:xlink="http://www.w3.org/1999/xlink" xml:space="preserve" xmlns:serif="http://www.serif.com/" style="fill-rule:evenodd;clip-rule:evenodd;stroke-linejoin:round;stroke-miterlimit:2;">
    <g transform="matrix(1.02964,0,0,1.02964,-0.296404,-0.296404)">
        <g id="Xitheros">
            <g transform="matrix(1,0,0,1,15.0109,11.7062)">
                <path d="M0,2.886C-0.079,2.797 -0.166,2.713 -0.251,2.631C-0.409,2.478 -0.572,2.319 -0.693,2.124C-0.699,2.113 -0.708,2.105 -0.714,2.102C-0.809,2.07 -0.88,2.003 -0.949,1.939C-1.007,1.886 -1.061,1.835 -1.129,1.802C-1.275,1.73 -1.38,1.611 -1.485,1.484C-1.611,1.331 -1.668,1.18 -1.665,1.007C-1.659,0.584 -1.66,0.154 -1.661,-0.263C-1.661,-0.428 -1.662,-0.593 -1.662,-0.758L-1.661,-0.777L-1.661,-2.568C-1.661,-2.623 -1.662,-2.68 -1.672,-2.734C-1.675,-2.744 -1.701,-2.765 -1.718,-2.767C-1.736,-2.77 -1.754,-2.771 -1.771,-2.771C-1.852,-2.771 -1.933,-2.746 -2.031,-2.692C-2.103,-2.653 -2.135,-2.629 -2.134,-2.556C-2.132,-2.179 -2.133,-1.802 -2.133,-1.426L-2.133,-0.504C-2.133,0.165 -2.132,0.856 -2.136,1.536C-2.136,1.64 -2.102,1.705 -2.035,1.731C-1.848,1.802 -1.699,1.929 -1.554,2.051C-1.464,2.128 -1.37,2.207 -1.27,2.271C-1.163,2.339 -1.103,2.45 -1.088,2.61C-1.085,2.642 -1.08,2.673 -1.075,2.704C-1.06,2.803 -1.045,2.906 -1.092,3.019C-1.116,3.076 -1.11,3.149 -1.105,3.22C-1.104,3.25 -1.101,3.281 -1.101,3.311C-1.102,3.971 -1.102,4.632 -1.101,5.292C-1.101,5.334 -1.101,5.372 -1.102,5.405C-1.103,5.54 -1.104,5.608 -1.077,5.634C-1.054,5.657 -0.999,5.656 -0.898,5.653C-0.852,5.652 -0.793,5.651 -0.727,5.651L-0.724,5.651C-0.675,5.651 -0.634,5.631 -0.59,5.588L-0.559,5.556C-0.481,5.477 -0.4,5.394 -0.279,5.355C-0.159,5.316 -0.068,5.225 0.021,5.136C0.041,5.116 0.062,5.095 0.084,5.074C0.13,5.03 0.149,4.979 0.149,4.897L0.148,4.824C0.147,4.325 0.145,3.81 0.15,3.302C0.151,3.14 0.101,3 0,2.886" style="fill:rgb(165,119,113);fill-rule:nonzero;"/>
            </g>
            <g transform="matrix(1,0,0,1,13.5469,16.8232)">
                <path d="M0,-2.666C-0.143,-2.807 -0.311,-2.942 -0.529,-3.092L-0.558,-3.112C-0.618,-3.155 -0.681,-3.199 -0.74,-3.202L-0.742,-3.202C-0.766,-3.202 -0.797,-3.169 -0.828,-3.138C-0.849,-3.116 -0.87,-3.094 -0.894,-3.077C-1.02,-2.987 -1.164,-2.979 -1.305,-2.97C-1.334,-2.968 -1.364,-2.967 -1.393,-2.964C-1.659,-2.94 -1.947,-2.87 -2.065,-2.524C-2.088,-2.458 -2.119,-2.395 -2.15,-2.334C-2.18,-2.271 -2.213,-2.206 -2.235,-2.138C-2.36,-1.767 -2.583,-1.471 -2.896,-1.258L-2.91,-1.248C-2.967,-1.211 -3.001,-1.188 -2.996,-1.119C-2.992,-1.045 -2.952,-1.034 -2.876,-1.021L-2.866,-1.02C-2.709,-0.992 -2.546,-0.959 -2.37,-0.919C-2.342,-0.912 -2.318,-0.897 -2.295,-0.882C-2.28,-0.873 -2.267,-0.865 -2.253,-0.858C-2.045,-0.763 -1.973,-0.607 -2.026,-0.37C-2.041,-0.308 -2.047,-0.255 -2.048,-0.207C-2.051,0.001 -2.05,0.206 -2.049,0.395C-2.047,0.512 -2.027,0.536 -1.926,0.536L0.01,0.536C0.068,0.536 0.103,0.528 0.121,0.509C0.141,0.489 0.145,0.457 0.145,0.407C0.144,0.063 0.144,-0.282 0.144,-0.626L0.144,-0.989L0.153,-0.989C0.153,-1.107 0.153,-1.226 0.152,-1.344C0.151,-1.659 0.15,-1.984 0.156,-2.305C0.158,-2.448 0.112,-2.556 0,-2.666" style="fill:rgb(87,82,76);fill-rule:nonzero;"/>
            </g>
            <g transform="matrix(1,0,0,1,13.9579,8.16622)">
                <path d="M0,0.147C0.015,0.076 -0.019,-0.001 -0.091,-0.064L-0.109,-0.08C-0.145,-0.112 -0.182,-0.145 -0.223,-0.166C-0.428,-0.271 -0.638,-0.376 -0.866,-0.485C-0.906,-0.504 -0.95,-0.512 -0.967,-0.515C-0.971,-0.516 -0.974,-0.517 -0.975,-0.517C-0.992,-0.518 -1.007,-0.519 -1.021,-0.519C-1.078,-0.519 -1.116,-0.509 -1.137,-0.49C-1.156,-0.473 -1.165,-0.445 -1.166,-0.401C-1.166,-0.368 -1.166,-0.335 -1.167,-0.302C-1.169,-0.193 -1.17,-0.082 -1.164,0.028C-1.152,0.21 -1.197,0.333 -1.307,0.427C-1.315,0.433 -1.323,0.442 -1.324,0.45C-1.324,0.455 -1.32,0.463 -1.311,0.472C-1.289,0.495 -1.267,0.519 -1.245,0.544C-1.229,0.562 -1.213,0.581 -1.196,0.599C-1.165,0.632 -1.117,0.666 -1.069,0.632C-0.965,0.558 -0.847,0.519 -0.732,0.482C-0.662,0.458 -0.59,0.435 -0.522,0.403C-0.451,0.371 -0.373,0.352 -0.299,0.335C-0.252,0.324 -0.203,0.313 -0.157,0.298C-0.071,0.27 -0.014,0.215 0,0.147" style="fill:rgb(165,119,113);fill-rule:nonzero;"/>
            </g>
            <g transform="matrix(1,0,0,1,7.51289,6.75522)">
                <path d="M0,1.036L0.054,1.036C0.135,1.036 0.217,1.04 0.299,1.088C0.322,1.101 0.357,1.098 0.395,1.078C0.446,1.051 0.485,1.002 0.488,0.961C0.495,0.84 0.5,0.73 0.491,0.62C0.485,0.539 0.49,0.456 0.494,0.377C0.503,0.232 0.512,0.096 0.458,-0.038L0.278,-0.044C0.164,-0.047 0.047,-0.044 -0.066,-0.056C-0.153,-0.065 -0.228,-0.03 -0.307,0.007C-0.478,0.086 -0.633,0.198 -0.761,0.337C-0.856,0.439 -0.946,0.545 -1.036,0.651C-1.102,0.729 -1.208,0.818 -1.243,0.917C-1.255,0.952 -1.243,0.994 -1.214,1.016C-1.165,1.055 -1.04,1.035 -0.981,1.035C-0.873,1.036 -0.766,1.036 -0.658,1.036L0,1.036M0.193,0.651C0.185,0.656 0.177,0.661 0.169,0.666C0.14,0.685 0.109,0.705 0.075,0.707C0.032,0.711 -0.012,0.712 -0.055,0.712C-0.112,0.712 -0.168,0.71 -0.224,0.71L-0.243,0.71L-0.243,0.708L-0.313,0.708C-0.383,0.708 -0.452,0.709 -0.522,0.707C-0.586,0.705 -0.633,0.646 -0.632,0.567C-0.631,0.495 -0.579,0.432 -0.518,0.432L-0.446,0.431C-0.274,0.429 -0.097,0.426 0.077,0.431C0.111,0.431 0.142,0.452 0.171,0.473C0.179,0.479 0.187,0.484 0.195,0.489C0.225,0.507 0.242,0.537 0.242,0.57C0.241,0.603 0.223,0.633 0.193,0.651" style="fill:rgb(210,181,75);fill-rule:nonzero;"/>
            </g>
            <g transform="matrix(1,0,0,1,13.8629,14.0682)">
                <path d="M0,-7.471C-0.151,-7.526 -0.302,-7.609 -0.449,-7.717C-0.521,-7.77 -0.606,-7.798 -0.689,-7.824C-0.778,-7.853 -0.871,-7.882 -0.949,-7.945C-0.99,-7.978 -1.031,-7.975 -1.081,-7.938C-1.113,-7.915 -1.145,-7.892 -1.177,-7.869C-1.247,-7.819 -1.321,-7.766 -1.389,-7.711C-1.53,-7.599 -1.644,-7.491 -1.601,-7.301C-1.596,-7.281 -1.61,-7.254 -1.625,-7.244L-1.636,-7.238C-1.66,-7.223 -1.687,-7.205 -1.713,-7.212C-1.773,-7.228 -1.827,-7.27 -1.858,-7.324C-1.884,-7.368 -1.891,-7.415 -1.88,-7.457L-1.876,-7.474C-1.844,-7.595 -1.808,-7.731 -1.689,-7.793C-1.622,-7.827 -1.565,-7.879 -1.512,-7.929C-1.451,-7.985 -1.39,-8.042 -1.314,-8.075C-1.2,-8.124 -1.202,-8.192 -1.206,-8.296C-1.208,-8.351 -1.22,-8.387 -1.24,-8.398C-1.254,-8.406 -1.276,-8.403 -1.303,-8.387C-1.433,-8.315 -1.555,-8.308 -1.724,-8.366C-1.939,-8.439 -2.142,-8.528 -2.345,-8.639C-2.43,-8.686 -2.491,-8.727 -2.501,-8.839C-2.51,-8.942 -2.573,-9.004 -2.679,-9.013C-2.969,-9.04 -3.141,-9.238 -3.234,-9.399C-3.278,-9.474 -3.335,-9.541 -3.391,-9.605C-3.462,-9.689 -3.537,-9.776 -3.583,-9.883C-3.598,-9.918 -3.637,-9.947 -3.682,-9.959C-3.719,-9.969 -3.754,-9.965 -3.778,-9.947C-3.842,-9.899 -3.914,-9.884 -3.983,-9.869C-4.025,-9.86 -4.065,-9.852 -4.103,-9.836C-4.26,-9.772 -4.463,-9.723 -4.636,-9.907C-4.658,-9.931 -4.701,-9.949 -4.734,-9.949C-5.112,-9.952 -5.504,-9.955 -5.897,-9.945C-5.963,-9.943 -6.044,-9.915 -6.124,-9.865C-6.167,-9.838 -6.164,-9.787 -6.161,-9.733C-6.159,-9.715 -6.158,-9.698 -6.159,-9.681C-6.161,-9.6 -6.147,-9.477 -6.176,-9.4C-6.191,-9.36 -6.233,-9.328 -6.274,-9.337C-6.319,-9.346 -6.344,-9.396 -6.353,-9.441C-6.375,-9.558 -6.377,-9.665 -6.379,-9.785C-6.379,-9.817 -6.401,-9.848 -6.437,-9.866C-6.465,-9.88 -6.505,-9.887 -6.535,-9.866C-6.724,-9.73 -6.88,-9.557 -6.995,-9.421C-7.008,-9.406 -7.017,-9.379 -7.017,-9.355C-7.018,-9.306 -7.019,-9.257 -7.021,-9.208C-7.025,-9.072 -7.03,-8.932 -7.011,-8.798C-6.993,-8.677 -6.965,-8.555 -6.83,-8.513C-6.761,-8.49 -6.696,-8.453 -6.637,-8.416C-6.611,-8.4 -6.604,-8.35 -6.61,-8.322C-6.616,-8.295 -6.641,-8.253 -6.672,-8.247C-6.793,-8.221 -6.933,-8.215 -7.041,-8.348C-7.157,-8.49 -7.26,-8.651 -7.236,-8.864C-7.231,-8.913 -7.229,-8.958 -7.263,-8.998C-7.3,-8.958 -7.338,-8.918 -7.376,-8.88C-7.469,-8.784 -7.565,-8.685 -7.644,-8.569C-7.761,-8.398 -7.906,-8.247 -8.062,-8.132C-8.247,-7.996 -8.467,-7.853 -8.74,-7.891C-8.893,-7.912 -8.995,-7.841 -9.139,-7.807C-9.588,-7.701 -10.038,-7.595 -10.488,-7.489C-10.624,-7.457 -10.762,-7.425 -10.902,-7.436C-11.062,-7.45 -11.247,-7.513 -11.368,-7.406C-11.558,-7.238 -11.733,-7.07 -11.983,-6.975C-12.306,-6.853 -12.607,-6.685 -12.888,-6.525C-13.134,-6.384 -13.289,-6.183 -13.444,-5.924C-13.535,-5.774 -13.576,-5.61 -13.575,-5.408C-13.571,-4.849 -13.572,-4.28 -13.573,-3.731L-13.573,-2.908C-13.573,-2.755 -13.564,-2.745 -13.431,-2.744C-13.219,-2.742 -13,-2.733 -12.789,-2.755C-12.547,-2.78 -12.288,-2.756 -12.043,-2.753C-11.743,-2.75 -11.443,-2.747 -11.142,-2.744C-10.992,-2.742 -10.828,-2.742 -10.628,-2.744C-10.527,-2.745 -10.507,-2.767 -10.505,-2.883C-10.504,-2.957 -10.505,-3.03 -10.505,-3.104L-10.505,-3.592C-10.505,-3.964 -10.505,-4.35 -10.509,-4.729C-10.511,-4.93 -10.456,-5.083 -10.336,-5.209C-10.286,-5.261 -10.241,-5.309 -10.2,-5.359C-10.205,-5.369 -10.215,-5.385 -10.221,-5.388L-10.327,-5.387C-10.895,-5.391 -11.484,-5.393 -12.061,-5.389C-12.247,-5.388 -12.368,-5.251 -12.369,-5.04L-12.369,-4.794C-12.37,-4.789 -12.371,-4.784 -12.372,-4.779C-12.378,-4.706 -12.397,-4.612 -12.469,-4.605C-12.59,-4.592 -12.586,-4.801 -12.586,-4.878C-12.586,-4.908 -12.587,-4.939 -12.587,-4.97C-12.588,-5.039 -12.589,-5.11 -12.585,-5.18C-12.575,-5.351 -12.447,-5.517 -12.258,-5.602C-12.096,-5.676 -11.939,-5.681 -11.75,-5.681C-10.887,-5.681 -10.026,-5.681 -9.163,-5.682C-9.133,-5.682 -9.103,-5.681 -9.073,-5.68C-9.004,-5.678 -8.933,-5.675 -8.865,-5.686C-8.654,-5.719 -8.452,-5.763 -8.314,-5.939C-8.287,-5.974 -8.26,-6.009 -8.233,-6.045C-8.175,-6.122 -8.115,-6.202 -8.048,-6.273C-7.807,-6.525 -7.595,-6.802 -7.356,-7.057C-7.168,-7.258 -6.962,-7.462 -6.702,-7.566C-6.575,-7.616 -6.44,-7.586 -6.304,-7.585C-6.134,-7.585 -5.963,-7.587 -5.793,-7.588C-5.209,-7.594 -4.626,-7.643 -4.042,-7.654C-3.987,-7.654 -3.929,-7.656 -3.883,-7.686C-3.85,-7.708 -3.827,-7.742 -3.797,-7.769C-3.767,-7.795 -3.722,-7.811 -3.687,-7.791C-3.657,-7.773 -3.648,-7.731 -3.657,-7.696C-3.666,-7.662 -3.69,-7.633 -3.713,-7.606C-3.76,-7.55 -3.811,-7.491 -3.879,-7.464C-3.959,-7.432 -4.046,-7.453 -4.128,-7.438C-4.233,-7.419 -4.34,-7.417 -4.446,-7.412C-4.645,-7.403 -4.844,-7.393 -5.044,-7.384C-5.223,-7.376 -5.423,-7.394 -5.598,-7.358C-5.608,-7.356 -5.627,-7.332 -5.634,-7.31C-5.657,-7.234 -5.617,-7.129 -5.542,-7.096C-5.504,-7.079 -5.461,-7.076 -5.419,-7.075C-5.307,-7.07 -5.195,-7.066 -5.083,-7.061C-5.025,-7.059 -4.965,-7.056 -4.917,-7.024C-4.869,-6.992 -4.843,-6.936 -4.824,-6.881C-4.809,-6.837 -4.798,-6.788 -4.813,-6.744C-4.827,-6.699 -4.877,-6.664 -4.921,-6.68C-5.001,-6.71 -4.978,-6.836 -5.063,-6.865C-5.13,-6.888 -5.26,-6.853 -5.334,-6.853C-5.416,-6.853 -5.504,-6.852 -5.59,-6.844C-5.603,-6.842 -5.63,-6.819 -5.631,-6.809C-5.633,-6.772 -5.636,-6.733 -5.64,-6.696C-5.667,-6.435 -5.456,-6.15 -5.732,-5.948C-5.823,-5.882 -5.95,-5.868 -6.053,-5.912C-6.096,-5.93 -6.133,-5.957 -6.177,-5.974C-6.235,-5.996 -6.3,-5.997 -6.363,-5.998C-6.822,-6.003 -7.281,-6.005 -7.739,-6.005C-7.808,-6.005 -7.879,-6.005 -7.939,-5.973C-8.166,-5.856 -8.254,-5.544 -8.539,-5.51C-8.616,-5.5 -8.691,-5.477 -8.765,-5.453C-8.877,-5.418 -8.991,-5.38 -9.121,-5.393C-9.251,-5.406 -9.385,-5.402 -9.515,-5.398L-9.592,-5.395C-9.703,-5.392 -9.824,-5.403 -9.921,-5.364C-9.957,-5.35 -9.984,-5.299 -10.01,-5.249C-10.024,-5.222 -10.038,-5.194 -10.055,-5.17C-10.073,-5.144 -10.099,-5.123 -10.12,-5.106C-10.191,-5.048 -10.222,-4.972 -10.221,-4.854C-10.22,-4.376 -10.22,-3.897 -10.22,-3.419L-10.22,-2.871C-10.22,-2.865 -10.22,-2.858 -10.219,-2.851C-10.218,-2.844 -10.218,-2.836 -10.218,-2.828C-10.218,-2.772 -10.189,-2.747 -10.129,-2.746L-10.013,-2.745C-9.853,-2.743 -9.688,-2.742 -9.526,-2.746C-9.253,-2.753 -9.249,-2.755 -9.042,-2.914L-9.032,-2.922C-9.002,-2.944 -8.982,-2.97 -8.959,-2.999L-8.952,-3.008C-8.896,-3.079 -8.842,-3.152 -8.79,-3.224C-8.659,-3.402 -8.524,-3.586 -8.356,-3.738C-8.325,-3.766 -8.294,-3.797 -8.279,-3.831C-8.224,-3.96 -8.128,-4.055 -8.035,-4.147C-7.997,-4.184 -7.958,-4.222 -7.922,-4.263C-7.845,-4.351 -7.747,-4.39 -7.602,-4.39C-6.957,-4.385 -6.301,-4.385 -5.667,-4.386C-5.465,-4.387 -5.262,-4.387 -5.06,-4.387L-4.881,-4.387C-4.726,-4.387 -4.569,-4.386 -4.413,-4.388C-4.318,-4.389 -4.226,-4.466 -4.225,-4.546C-4.223,-4.665 -4.193,-4.787 -4.122,-4.886C-4.085,-4.938 -4.032,-4.986 -3.969,-4.99C-3.905,-4.994 -3.837,-4.937 -3.85,-4.875C-3.862,-4.824 -3.916,-4.797 -3.958,-4.765C-4.039,-4.703 -4.004,-4.562 -4.003,-4.473C-4.002,-4.358 -4.045,-4.267 -4.135,-4.198C-4.41,-3.985 -4.717,-3.83 -5.015,-3.68C-5.045,-3.665 -5.084,-3.664 -5.11,-3.669C-5.223,-3.688 -5.307,-3.649 -5.386,-3.543C-5.418,-3.5 -5.468,-3.444 -5.526,-3.426C-5.671,-3.38 -5.789,-3.288 -5.904,-3.199C-5.964,-3.152 -6.026,-3.103 -6.091,-3.062C-6.252,-2.96 -6.33,-2.813 -6.33,-2.612L-6.33,-1.721C-6.33,-1.127 -6.33,-0.533 -6.331,0.061C-6.331,0.152 -6.312,0.237 -6.266,0.339C-6.234,0.41 -6.214,0.447 -6.138,0.447C-5.948,0.446 -5.757,0.447 -5.566,0.447C-5.259,0.448 -4.942,0.448 -4.63,0.443C-4.586,0.442 -4.538,0.446 -4.493,0.449C-4.371,0.458 -4.256,0.466 -4.147,0.407C-4.144,0.361 -4.141,0.315 -4.138,0.27C-4.125,0.061 -4.119,-0.143 -4.127,-0.352C-4.128,-0.403 -4.132,-0.458 -4.168,-0.495C-4.188,-0.516 -4.219,-0.531 -4.226,-0.56C-4.23,-0.578 -4.223,-0.596 -4.214,-0.612C-4.168,-0.692 -4.061,-0.733 -3.973,-0.703C-3.747,-0.625 -3.837,-0.178 -3.838,0.008C-3.838,0.044 -3.838,0.081 -3.831,0.115C-3.827,0.134 -3.81,0.161 -3.802,0.164C-3.757,0.164 -3.719,0.154 -3.704,0.138C-3.684,0.117 -3.669,0.09 -3.654,0.061C-3.634,0.026 -3.615,-0.01 -3.584,-0.036C-3.454,-0.146 -3.444,-0.288 -3.446,-0.448C-3.449,-0.725 -3.448,-1.007 -3.447,-1.28C-3.447,-1.53 -3.446,-1.788 -3.448,-2.042C-3.45,-2.254 -3.4,-2.394 -3.291,-2.486C-3.18,-2.577 -3.136,-2.695 -3.089,-2.82C-3.067,-2.878 -3.045,-2.939 -3.014,-2.995C-3.011,-3.002 -3.008,-3.011 -3.006,-3.019C-3,-3.039 -2.993,-3.062 -2.971,-3.071C-2.956,-3.078 -2.937,-3.076 -2.914,-3.064C-2.883,-3.049 -2.858,-3.023 -2.843,-3.004C-2.792,-2.937 -2.783,-2.849 -2.82,-2.78C-2.845,-2.734 -2.868,-2.684 -2.89,-2.636C-2.95,-2.504 -3.012,-2.368 -3.133,-2.269C-3.203,-2.212 -3.233,-2.134 -3.23,-2.016C-3.228,-1.934 -3.229,-1.85 -3.231,-1.77C-3.231,-1.722 -3.232,-1.675 -3.232,-1.627L-3.232,-1.233C-3.232,-0.905 -3.232,-0.576 -3.233,-0.248C-3.233,-0.186 -3.235,-0.121 -3.264,-0.074C-3.313,0.004 -3.368,0.079 -3.421,0.152C-3.451,0.192 -3.48,0.232 -3.509,0.272C-3.556,0.34 -3.625,0.369 -3.691,0.396C-3.731,0.413 -3.769,0.428 -3.802,0.452C-3.817,0.462 -3.833,0.47 -3.848,0.477C-3.881,0.492 -3.908,0.505 -3.922,0.544C-3.971,0.683 -4.077,0.743 -4.246,0.732C-4.326,0.726 -4.407,0.726 -4.486,0.728C-4.581,0.73 -4.678,0.729 -4.774,0.729C-4.942,0.729 -5.11,0.73 -5.28,0.73C-5.58,0.73 -5.884,0.729 -6.19,0.725C-6.289,0.725 -6.357,0.766 -6.41,0.857L-6.467,0.955C-6.567,1.127 -6.671,1.304 -6.761,1.485C-6.93,1.822 -7.086,2.125 -7.28,2.412C-7.282,2.415 -7.284,2.428 -7.275,2.45C-7.267,2.474 -7.254,2.489 -7.249,2.49C-7.179,2.493 -7.107,2.496 -7.036,2.498L-6.999,2.498C-6.646,2.498 -6.381,2.357 -6.187,2.068C-6.119,1.966 -6.032,1.874 -5.947,1.786C-5.913,1.75 -5.879,1.715 -5.847,1.678C-5.675,1.489 -5.446,1.397 -5.145,1.396L-4.886,1.395C-4.49,1.393 -4.081,1.391 -3.679,1.399L-3.668,1.399C-3.533,1.399 -3.425,1.348 -3.328,1.293C-3.189,1.215 -3.079,1.103 -3.012,0.968C-2.983,0.912 -2.954,0.856 -2.926,0.8C-2.809,0.57 -2.687,0.333 -2.59,0.091C-2.54,-0.033 -2.484,-0.122 -2.408,-0.199C-2.341,-0.266 -2.262,-0.311 -2.194,-0.346C-2.044,-0.422 -1.975,-0.55 -1.976,-0.75C-1.978,-0.943 -2.005,-1.15 -1.985,-1.34C-1.965,-1.525 -1.793,-1.54 -1.756,-1.368C-1.731,-1.247 -1.763,-1.091 -1.761,-0.967L-1.761,-0.837C-1.761,-0.751 -1.761,-0.665 -1.76,-0.579C-1.759,-0.512 -1.757,-0.46 -1.74,-0.447C-1.723,-0.435 -1.675,-0.449 -1.619,-0.466L-1.592,-0.474C-1.561,-0.484 -1.529,-0.493 -1.497,-0.502C-1.281,-0.562 -1.205,-0.659 -1.204,-0.875C-1.203,-2.168 -1.204,-3.461 -1.204,-4.754C-1.204,-4.771 -1.205,-4.789 -1.205,-4.806C-1.205,-4.845 -1.206,-4.887 -1.203,-4.927C-1.201,-4.983 -1.218,-5.028 -1.258,-5.067L-1.271,-5.081C-1.307,-5.117 -1.344,-5.154 -1.377,-5.193C-1.494,-5.331 -1.501,-5.484 -1.396,-5.603C-1.312,-5.698 -1.28,-5.786 -1.288,-5.898C-1.299,-6.062 -1.333,-6.302 -1.302,-6.461C-1.266,-6.651 -1.087,-6.622 -0.957,-6.711C-0.726,-6.751 -0.506,-6.838 -0.293,-6.922C-0.159,-6.975 -0.021,-7.029 0.119,-7.072C0.152,-7.082 0.17,-7.109 0.173,-7.151C0.184,-7.309 0.16,-7.412 0,-7.471M-12.064,-4.288C-12.058,-4.332 -12.052,-4.373 -12.057,-4.411C-12.066,-4.465 -12.063,-4.52 -12.061,-4.573C-12.06,-4.618 -12.058,-4.665 -12.062,-4.709C-12.072,-4.806 -12.03,-4.881 -11.99,-4.953C-11.976,-4.978 -11.962,-5.004 -11.95,-5.029C-11.922,-5.094 -11.847,-5.09 -11.811,-5.087L-11.804,-5.087C-11.758,-5.084 -11.724,-5.066 -11.711,-5.037C-11.702,-5.018 -11.704,-4.996 -11.717,-4.977C-11.839,-4.801 -11.851,-4.601 -11.846,-4.428C-11.839,-4.116 -11.862,-4.038 -11.903,-4.014C-11.911,-4.009 -11.921,-4.006 -11.93,-4.006C-11.943,-4.006 -11.957,-4.01 -11.973,-4.02C-12.095,-4.088 -12.079,-4.194 -12.064,-4.288" style="fill:rgb(174,171,155);fill-rule:nonzero;"/>
            </g>
            <g transform="matrix(1,0,0,1,7.85689,16.8132)">
                <path d="M0,-6.238C-0.165,-6.238 -0.294,-6.146 -0.4,-6.052C-0.574,-5.898 -0.701,-5.721 -0.789,-5.51C-0.837,-5.395 -0.853,-5.308 -0.798,-5.205C-0.774,-5.16 -0.747,-5.071 -0.777,-5.024C-0.853,-4.904 -0.847,-4.778 -0.841,-4.645C-0.839,-4.607 -0.837,-4.57 -0.838,-4.533C-0.839,-4.427 -0.839,-4.32 -0.839,-4.214C-0.874,-4.019 -0.993,-3.836 -1.173,-3.751C-1.275,-3.703 -1.362,-3.662 -1.446,-3.613C-1.478,-3.594 -1.501,-3.547 -1.52,-3.505L-1.53,-3.485C-1.535,-3.474 -1.534,-3.458 -1.533,-3.441C-1.532,-3.429 -1.531,-3.418 -1.531,-3.407C-1.54,-3.249 -1.531,-3.115 -1.334,-3.068C-1.246,-3.048 -1.187,-2.954 -1.195,-2.845C-1.198,-2.806 -1.198,-2.765 -1.196,-2.718C-1.189,-2.606 -1.23,-2.543 -1.334,-2.508C-1.379,-2.494 -1.488,-2.452 -1.527,-2.384C-1.588,-2.281 -1.636,-2.155 -1.676,-1.999C-1.695,-1.923 -1.586,-1.888 -1.563,-1.881C-1.435,-1.844 -1.441,-1.746 -1.447,-1.66C-1.455,-1.553 -1.518,-1.479 -1.578,-1.407C-1.619,-1.359 -1.657,-1.314 -1.68,-1.259C-1.694,-1.227 -1.767,-1.232 -1.781,-1.234C-1.797,-1.237 -1.813,-1.238 -1.828,-1.238C-1.917,-1.238 -1.975,-1.188 -2.015,-1.079C-2.041,-1.007 -2.073,-0.942 -2.108,-0.885C-2.138,-0.836 -2.135,-0.795 -2.098,-0.752C-2.012,-0.651 -1.894,-0.595 -1.809,-0.497C-1.767,-0.449 -1.74,-0.383 -1.753,-0.319C-1.756,-0.303 -1.759,-0.284 -1.758,-0.267C-1.759,-0.266 -1.76,-0.265 -1.76,-0.265C-1.791,-0.212 -1.823,-0.16 -1.854,-0.108C-1.891,-0.044 -1.872,-0.02 -1.865,-0.013C-1.858,-0.004 -1.853,0 -1.844,0C-1.829,0 -1.81,-0.024 -1.799,-0.038C-1.621,-0.261 -1.456,-0.509 -1.306,-0.779C-1.244,-0.89 -1.179,-1.001 -1.116,-1.11C-0.99,-1.325 -0.861,-1.548 -0.752,-1.777L-0.751,-1.777C-0.715,-1.854 -0.674,-1.935 -0.617,-1.998C-0.546,-2.075 -0.532,-2.159 -0.532,-2.261C-0.534,-2.595 -0.535,-2.928 -0.536,-3.261C-0.538,-3.949 -0.54,-4.66 -0.547,-5.358C-0.549,-5.595 -0.471,-5.78 -0.301,-5.939C-0.283,-5.956 -0.264,-5.973 -0.246,-5.989C-0.201,-6.029 -0.154,-6.07 -0.118,-6.117C-0.095,-6.148 -0.061,-6.16 -0.028,-6.173C0.015,-6.189 0.043,-6.201 0.054,-6.235C0.035,-6.237 0.017,-6.238 0,-6.238" style="fill:rgb(165,119,113);fill-rule:nonzero;"/>
            </g>
            <g transform="matrix(1,0,0,1,9.32789,2.94422)">
                <path d="M0,0.954C0.017,0.964 0.035,0.974 0.051,0.987C0.119,1.045 0.194,1.053 0.307,1.046L0.313,1.046L0.319,1.049C0.37,1.084 0.413,1.061 0.478,1.021C0.526,0.991 0.577,0.957 0.642,0.962C0.652,0.963 0.662,0.963 0.672,0.963C0.809,0.963 0.916,0.889 0.999,0.737C1.102,0.548 1.233,0.377 1.36,0.212C1.427,0.126 1.495,0.036 1.559,-0.055C1.569,-0.068 1.575,-0.083 1.583,-0.098C1.584,-0.1 1.584,-0.102 1.585,-0.103C1.579,-0.106 1.573,-0.108 1.566,-0.11C1.542,-0.121 1.518,-0.13 1.501,-0.126C1.37,-0.088 1.235,-0.049 1.11,0.01C0.832,0.142 0.533,0.29 0.169,0.478C0.104,0.512 0.046,0.565 -0.011,0.615L-0.026,0.629C-0.075,0.673 -0.073,0.731 -0.07,0.792C-0.069,0.814 -0.068,0.836 -0.07,0.858C-0.073,0.913 -0.041,0.931 0,0.954" style="fill:rgb(87,82,76);fill-rule:nonzero;"/>
            </g>
            <g transform="matrix(1,0,0,1,9.08689,12.4482)">
                <path d="M0,-2.439C0.004,-2.441 0.008,-2.444 0.007,-2.451C-0.006,-2.462 -0.019,-2.472 -0.029,-2.473C-0.151,-2.48 -0.271,-2.481 -0.372,-2.481L-1.107,-2.481C-1.518,-2.481 -1.94,-2.481 -2.358,-2.483C-2.385,-2.483 -2.413,-2.481 -2.441,-2.479C-2.528,-2.473 -2.618,-2.467 -2.702,-2.518C-2.725,-2.533 -2.742,-2.527 -2.766,-2.519C-2.777,-2.516 -2.789,-2.512 -2.802,-2.51C-2.978,-2.485 -3.101,-2.407 -3.168,-2.28C-3.217,-2.185 -3.284,-2.097 -3.375,-2.004C-3.551,-1.823 -3.7,-1.615 -3.844,-1.414L-3.899,-1.337C-4.142,-1 -4.451,-0.836 -4.854,-0.836C-5.738,-0.843 -6.637,-0.843 -7.505,-0.841L-8.389,-0.841C-8.493,-0.841 -8.593,-0.836 -8.686,-0.827C-8.691,-0.824 -8.707,-0.797 -8.709,-0.779C-8.711,-0.761 -8.701,-0.732 -8.695,-0.727C-8.641,-0.71 -8.587,-0.702 -8.538,-0.702C-8.393,-0.701 -8.161,-0.753 -8.064,-0.613C-8.024,-0.556 -8.008,-0.48 -7.982,-0.416C-7.989,-0.409 -7.996,-0.402 -7.999,-0.397C-7.987,-0.364 -7.976,-0.329 -7.966,-0.295C-7.923,-0.157 -7.883,-0.027 -7.749,0.052C-7.679,0.094 -7.549,0.065 -7.505,-0.001C-7.484,-0.033 -7.465,-0.065 -7.446,-0.098C-7.415,-0.149 -7.383,-0.203 -7.345,-0.251C-7.308,-0.298 -7.246,-0.346 -7.183,-0.348C-6.934,-0.353 -6.681,-0.36 -6.556,-0.072C-6.533,-0.019 -6.491,-0.006 -6.436,-0.004C-6.403,-0.003 -6.371,-0.003 -6.339,-0.004C-6.314,-0.004 -6.289,-0.004 -6.254,-0.005C-6.155,-0.005 -6.091,-0.028 -6.058,-0.137C-6.032,-0.221 -5.95,-0.274 -5.851,-0.274C-5.845,-0.274 -5.838,-0.273 -5.831,-0.273C-5.778,-0.269 -5.722,-0.274 -5.662,-0.279C-5.537,-0.289 -5.445,-0.251 -5.382,-0.162C-5.366,-0.141 -5.348,-0.12 -5.328,-0.099C-5.251,-0.024 -5.14,0.012 -5.029,-0.001C-4.932,-0.014 -4.85,-0.064 -4.805,-0.141C-4.796,-0.155 -4.787,-0.17 -4.779,-0.185C-4.741,-0.254 -4.698,-0.332 -4.628,-0.334C-4.579,-0.336 -4.529,-0.342 -4.481,-0.349C-4.309,-0.371 -4.131,-0.395 -3.972,-0.222C-3.922,-0.168 -3.839,-0.149 -3.755,-0.172C-3.669,-0.196 -3.605,-0.258 -3.59,-0.331C-3.579,-0.388 -3.559,-0.444 -3.539,-0.498C-3.426,-0.813 -3.477,-1.171 -3.443,-1.501C-3.417,-1.762 -3.28,-1.902 -3.094,-2.074C-3.05,-2.114 -3.005,-2.156 -2.963,-2.199C-2.933,-2.229 -2.888,-2.241 -2.839,-2.253C-2.804,-2.261 -2.77,-2.271 -2.736,-2.28C-2.639,-2.307 -2.538,-2.335 -2.421,-2.335C-2.086,-2.331 -1.744,-2.332 -1.414,-2.332C-1.08,-2.332 -0.735,-2.333 -0.388,-2.329C-0.245,-2.329 -0.128,-2.382 -0.003,-2.438L0.008,-2.422L0,-2.439Z" style="fill:rgb(165,119,113);fill-rule:nonzero;"/>
            </g>
            <g transform="matrix(1,0,0,1,11.8269,4.51622)">
                <path d="M0,0.809C0.037,0.828 0.078,0.836 0.121,0.845C0.19,0.858 0.26,0.872 0.314,0.931C0.495,0.953 0.67,0.962 0.832,0.855C0.94,0.783 1.061,0.713 1.199,0.641C1.599,0.432 2.022,0.189 2.531,-0.122C2.481,-0.153 2.428,-0.149 2.372,-0.145C2.352,-0.143 2.333,-0.142 2.314,-0.142L2.313,-0.142C1.964,-0.143 1.614,-0.142 1.263,-0.142C1.053,-0.142 0.842,-0.141 0.633,-0.142L0.632,-0.142C0.272,-0.142 -0.031,0.012 -0.223,0.292C-0.245,0.326 -0.251,0.376 -0.253,0.402C-0.267,0.665 -0.237,0.69 0,0.809" style="fill:rgb(165,119,113);fill-rule:nonzero;"/>
            </g>
            <g transform="matrix(1,0,0,1,8.63089,2.76522)">
                <path d="M0,1.131C0.032,1.133 0.065,1.134 0.087,1.136L0.204,1.136C0.304,1.137 0.363,1.136 0.386,1.113C0.411,1.088 0.411,1.024 0.411,0.907L0.411,0.857C0.411,0.845 0.411,0.835 0.412,0.824C0.413,0.806 0.414,0.789 0.413,0.772C0.406,0.656 0.485,0.593 0.554,0.55C0.608,0.517 0.666,0.487 0.722,0.459C0.778,0.431 0.835,0.402 0.888,0.369C1.025,0.285 1.03,0.146 1.014,0.008C1.011,0.006 0.987,-0.006 0.98,-0.006C0.627,0.167 0.31,0.427 0.039,0.766C-0.003,0.818 -0.023,0.892 -0.044,0.963C-0.05,0.987 -0.057,1.01 -0.064,1.032C-0.071,1.053 -0.067,1.077 -0.053,1.098C-0.04,1.117 -0.02,1.13 0,1.131" style="fill:rgb(165,119,113);fill-rule:nonzero;"/>
            </g>
            <g transform="matrix(1,0,0,1,10.9489,2.72422)">
                <path d="M0,1.97C0.029,2.009 0.078,2.034 0.138,2.043C0.218,2.055 0.301,2.034 0.357,1.991C0.429,1.937 0.481,1.868 0.537,1.795C0.592,1.724 0.649,1.65 0.725,1.592C0.828,1.513 0.923,1.417 1.014,1.325C1.053,1.286 1.091,1.247 1.131,1.21L1.149,1.192C1.173,1.169 1.199,1.146 1.214,1.119C1.279,1 1.372,0.904 1.463,0.811C1.519,0.752 1.578,0.691 1.628,0.626C1.801,0.403 1.991,0.18 2.208,-0.054C2.207,-0.058 2.206,-0.063 2.204,-0.065C2.2,-0.069 2.194,-0.074 2.186,-0.079C2.183,-0.081 2.18,-0.083 2.177,-0.085C2.163,-0.084 2.147,-0.084 2.131,-0.084C2.124,-0.085 2.118,-0.085 2.111,-0.085C2.079,-0.085 2.048,-0.083 2.021,-0.074C1.951,-0.05 1.878,-0.035 1.807,-0.021C1.739,-0.007 1.674,0.005 1.612,0.026C1.041,0.215 0.492,0.445 -0.019,0.71C-0.136,0.77 -0.226,0.832 -0.293,0.9C-0.367,0.974 -0.423,1.07 -0.476,1.163L-0.483,1.175C-0.509,1.221 -0.508,1.277 -0.478,1.318C-0.319,1.539 -0.163,1.755 0,1.97" style="fill:rgb(150,120,182);fill-rule:nonzero;"/>
            </g>
            <g transform="matrix(1,0,0,1,14.1309,3.54922)">
                <path d="M0,0.215C-0.021,0.214 -0.041,0.213 -0.061,0.213C-0.178,0.213 -0.294,0.214 -0.411,0.215C-0.717,0.216 -1.033,0.218 -1.342,0.207C-1.353,0.206 -1.362,0.206 -1.372,0.206C-1.534,0.206 -1.644,0.259 -1.733,0.381C-1.75,0.404 -1.769,0.424 -1.788,0.444C-1.809,0.466 -1.828,0.487 -1.845,0.511C-1.856,0.527 -1.861,0.558 -1.855,0.573C-1.849,0.587 -1.82,0.603 -1.804,0.604C-0.964,0.607 -0.135,0.608 0.653,0.608C0.687,0.608 0.728,0.596 0.763,0.575C0.822,0.539 0.881,0.505 0.941,0.47C1.099,0.379 1.262,0.284 1.406,0.17C1.471,0.119 1.54,0.07 1.607,0.024C1.765,-0.086 1.928,-0.2 2.044,-0.361C2.001,-0.393 1.954,-0.39 1.902,-0.388C1.888,-0.388 1.875,-0.387 1.863,-0.387C1.108,-0.388 0.354,-0.388 -0.401,-0.388L-0.928,-0.388C-0.946,-0.388 -0.964,-0.388 -0.981,-0.387C-1.089,-0.379 -1.226,-0.247 -1.253,-0.125C-1.256,-0.114 -1.253,-0.104 -1.247,-0.096C-1.237,-0.083 -1.215,-0.075 -1.191,-0.075C-1.045,-0.074 -0.9,-0.074 -0.755,-0.074C-0.526,-0.073 -0.298,-0.072 -0.07,-0.071L-0.03,-0.071C0.03,-0.072 0.092,-0.073 0.147,-0.054C0.183,-0.041 0.209,-0.006 0.233,0.028C0.243,0.041 0.254,0.055 0.264,0.067L0.276,0.08L0.262,0.093C0.25,0.104 0.238,0.117 0.226,0.129C0.197,0.159 0.167,0.191 0.129,0.205C0.089,0.22 0.043,0.218 0,0.215" style="fill:rgb(174,171,155);fill-rule:nonzero;"/>
            </g>
            <g transform="matrix(1,0,0,1,14.2069,5.38022)">
                <path d="M0,0.449C-0.237,0.443 -0.478,0.444 -0.712,0.446C-0.818,0.446 -0.924,0.448 -1.029,0.446C-1.057,0.445 -1.088,0.444 -1.116,0.447C-1.127,0.448 -1.138,0.448 -1.151,0.447L-1.167,0.447C-1.189,0.447 -1.21,0.449 -1.219,0.458C-1.221,0.46 -1.227,0.466 -1.226,0.482C-1.224,0.509 -1.164,0.567 -1.12,0.574C-0.897,0.613 -0.707,0.728 -0.523,0.84L-0.5,0.854C-0.357,0.94 -0.201,0.965 -0.021,0.928C0.01,0.922 0.041,0.916 0.073,0.91C0.193,0.888 0.317,0.866 0.419,0.813C0.558,0.742 0.707,0.703 0.85,0.666C0.933,0.644 1.019,0.621 1.102,0.593C1.231,0.549 1.367,0.516 1.514,0.495C1.698,0.469 1.882,0.415 2.059,0.364C2.107,0.35 2.156,0.336 2.204,0.322C2.236,0.314 2.268,0.277 2.293,0.248C2.332,0.202 2.345,0.144 2.327,0.095C2.311,0.054 2.278,0.029 2.232,0.023C2.183,0.016 2.14,-0.004 2.098,-0.024C2.038,-0.052 1.981,-0.078 1.913,-0.063C1.835,-0.048 1.766,-0.075 1.699,-0.102C1.65,-0.122 1.604,-0.141 1.556,-0.141L1.543,-0.141C1.531,-0.14 1.52,-0.139 1.509,-0.139C1.418,-0.139 1.335,-0.165 1.254,-0.19C1.173,-0.215 1.096,-0.239 1.013,-0.239C1.006,-0.239 0.998,-0.238 0.99,-0.238C0.906,-0.238 0.825,-0.263 0.748,-0.287C0.652,-0.316 0.562,-0.343 0.464,-0.33L0.456,-0.329L0.45,-0.333C0.385,-0.382 0.309,-0.392 0.228,-0.401C0.154,-0.41 0.077,-0.419 0.01,-0.462C-0.077,-0.516 -0.153,-0.489 -0.251,-0.445C-0.416,-0.371 -0.572,-0.275 -0.724,-0.183C-0.904,-0.073 -1.09,0.042 -1.292,0.12C-1.296,0.122 -1.3,0.125 -1.304,0.13C-1.302,0.131 -1.301,0.133 -1.299,0.134C-1.291,0.142 -1.277,0.154 -1.272,0.155C-1.078,0.157 -0.883,0.157 -0.692,0.157L-0.522,0.157L-0.522,0.16L-0.363,0.16C-0.196,0.159 -0.023,0.159 0.148,0.161C0.197,0.162 0.245,0.174 0.277,0.195C0.304,0.212 0.323,0.239 0.341,0.265C0.348,0.275 0.355,0.286 0.364,0.296L0.376,0.312L0.359,0.323C0.353,0.328 0.347,0.332 0.34,0.337C0.325,0.348 0.308,0.359 0.29,0.368C0.213,0.407 0.122,0.449 0.01,0.449L0,0.449Z" style="fill:rgb(87,82,76);fill-rule:nonzero;"/>
            </g>
            <g transform="matrix(1,0,0,1,14.2889,10.2652)">
                <path d="M0,0.119C0.023,0.105 0.047,0.087 0.049,0.06C0.052,0.028 0.021,0.005 -0.006,-0.012C-0.223,-0.146 -0.444,-0.271 -0.671,-0.388C-0.688,-0.397 -0.705,-0.408 -0.721,-0.419C-0.721,-0.097 -0.72,0.222 -0.72,0.538C-0.691,0.519 -0.66,0.501 -0.629,0.485C-0.414,0.373 -0.204,0.251 0,0.119" style="fill:rgb(87,82,76);fill-rule:nonzero;"/>
            </g>
            <g transform="matrix(1,0,0,1,19.5529,7.01822)">
                <path d="M0,3.417C-0.048,3.394 -0.101,3.376 -0.151,3.358C-0.206,3.339 -0.262,3.32 -0.314,3.295C-0.45,3.228 -0.599,3.19 -0.743,3.153C-0.839,3.128 -0.938,3.103 -1.034,3.069C-1.105,3.044 -1.178,3.021 -1.251,2.997C-1.377,2.957 -1.507,2.915 -1.631,2.863C-1.723,2.824 -1.823,2.802 -1.919,2.78C-2.04,2.753 -2.164,2.725 -2.274,2.665C-2.333,2.634 -2.4,2.628 -2.464,2.622C-2.551,2.614 -2.641,2.607 -2.714,2.538C-2.75,2.551 -2.788,2.564 -2.825,2.578C-2.914,2.611 -3.007,2.645 -3.1,2.67C-3.226,2.702 -3.347,2.755 -3.465,2.806C-3.562,2.849 -3.663,2.892 -3.767,2.925C-3.871,2.957 -3.961,2.965 -4.064,2.9C-4.116,2.868 -4.173,2.84 -4.228,2.813C-4.273,2.791 -4.319,2.769 -4.363,2.744C-4.405,2.72 -4.437,2.676 -4.457,2.644C-4.472,2.618 -4.473,2.573 -4.458,2.545C-4.443,2.516 -4.404,2.499 -4.381,2.492C-4.281,2.459 -4.207,2.511 -4.141,2.556C-4.124,2.567 -4.108,2.578 -4.092,2.588C-3.946,2.673 -3.823,2.681 -3.668,2.615C-3.379,2.493 -3.036,2.353 -2.68,2.245C-2.488,2.187 -2.284,2.122 -2.085,2.04C-2.035,2.019 -1.955,1.969 -1.967,1.857C-1.97,1.832 -1.971,1.807 -1.972,1.781C-1.974,1.722 -1.977,1.661 -2.002,1.617C-2.017,1.592 -2.066,1.581 -2.113,1.57C-2.137,1.565 -2.16,1.559 -2.182,1.552C-2.327,1.502 -2.473,1.452 -2.618,1.402C-2.767,1.35 -2.916,1.3 -3.065,1.249C-3.428,1.125 -3.803,0.997 -4.17,0.865C-4.368,0.794 -4.563,0.741 -4.762,0.871C-4.798,0.895 -4.851,0.892 -4.898,0.888C-4.929,0.886 -4.965,0.861 -4.979,0.834C-4.993,0.807 -4.997,0.76 -4.98,0.734C-4.873,0.572 -4.703,0.53 -4.568,0.512C-4.549,0.509 -4.525,0.506 -4.51,0.52C-4.45,0.579 -4.375,0.582 -4.297,0.587C-4.248,0.59 -4.197,0.592 -4.15,0.609C-3.813,0.728 -3.477,0.848 -3.14,0.968L-2.92,1.047C-2.9,1.054 -2.88,1.062 -2.859,1.071C-2.828,1.083 -2.797,1.096 -2.764,1.105C-2.71,1.121 -2.655,1.134 -2.6,1.148C-2.506,1.17 -2.41,1.195 -2.317,1.226C-2.205,1.265 -2.094,1.313 -1.987,1.36C-1.941,1.381 -1.895,1.4 -1.848,1.42C-1.844,1.422 -1.839,1.424 -1.834,1.427C-1.832,1.428 -1.829,1.43 -1.826,1.431C-1.69,1.322 -1.548,1.235 -1.395,1.168C-1.245,1.102 -1.097,1.026 -0.953,0.953C-0.885,0.918 -0.817,0.883 -0.748,0.849C-0.712,0.831 -0.689,0.812 -0.689,0.771L-0.69,0.752C-0.691,0.701 -0.692,0.648 -0.686,0.597C-0.674,0.499 -0.716,0.429 -0.817,0.374L-0.827,0.369C-0.872,0.344 -0.919,0.319 -0.967,0.307C-1.184,0.251 -1.387,0.155 -1.584,0.061C-1.675,0.017 -1.77,-0.028 -1.864,-0.068C-1.944,-0.102 -2.024,-0.138 -2.104,-0.174C-2.34,-0.279 -2.585,-0.388 -2.84,-0.457C-2.966,-0.491 -3.086,-0.545 -3.202,-0.596C-3.363,-0.668 -3.53,-0.742 -3.711,-0.763L-3.718,-0.766C-3.92,-0.893 -4.124,-0.84 -4.315,-0.776C-4.372,-0.757 -4.43,-0.738 -4.488,-0.719C-4.601,-0.683 -4.719,-0.645 -4.832,-0.601C-4.932,-0.563 -5.037,-0.536 -5.139,-0.509C-5.182,-0.498 -5.226,-0.486 -5.269,-0.474C-5.318,-0.387 -5.309,-0.296 -5.299,-0.2C-5.293,-0.144 -5.288,-0.086 -5.294,-0.029C-5.306,0.078 -5.358,0.153 -5.443,0.186C-5.515,0.214 -5.586,0.246 -5.656,0.277C-5.828,0.354 -6.005,0.433 -6.198,0.463C-6.203,0.464 -6.21,0.468 -6.215,0.471C-6.211,0.488 -6.205,0.509 -6.196,0.515C-6.15,0.548 -6.097,0.576 -6.053,0.599L-5.957,0.65C-5.829,0.718 -5.697,0.788 -5.565,0.851C-5.5,0.882 -5.414,0.932 -5.402,1.007C-5.391,1.083 -5.372,1.159 -5.355,1.232C-5.34,1.293 -5.325,1.355 -5.314,1.417C-5.311,1.435 -5.324,1.45 -5.336,1.464L-5.362,1.495C-5.431,1.575 -5.501,1.658 -5.628,1.66C-5.707,1.662 -5.782,1.682 -5.863,1.725C-5.944,1.767 -5.988,1.79 -5.988,1.889C-5.987,2.13 -5.987,2.369 -5.986,2.608C-5.97,2.605 -5.954,2.6 -5.938,2.602C-5.886,2.612 -5.841,2.644 -5.798,2.675C-5.652,2.781 -5.512,2.902 -5.35,2.985C-5.237,3.042 -5.105,3.054 -4.984,3.088C-4.769,3.075 -4.602,3.112 -4.459,3.214C-4.282,3.34 -4.091,3.353 -3.906,3.35C-3.408,3.34 -2.902,3.342 -2.412,3.343C-2.25,3.343 -2.087,3.344 -1.924,3.344C-1.855,3.344 -1.799,3.349 -1.749,3.361C-1.72,3.367 -1.698,3.414 -1.694,3.443C-1.692,3.47 -1.708,3.527 -1.736,3.533C-1.817,3.552 -1.887,3.561 -1.949,3.561C-2.272,3.562 -2.595,3.562 -2.919,3.562L-3.327,3.562C-3.442,3.562 -3.557,3.563 -3.671,3.565C-3.699,3.565 -3.725,3.579 -3.737,3.6C-3.747,3.615 -3.747,3.632 -3.739,3.648C-3.732,3.661 -3.725,3.674 -3.718,3.687C-3.689,3.736 -3.66,3.786 -3.66,3.852C-3.66,3.886 -3.636,3.936 -3.622,3.94C-3.505,3.975 -3.428,4.058 -3.354,4.137C-3.321,4.171 -3.288,4.207 -3.252,4.238C-3.209,4.274 -3.169,4.3 -3.113,4.3L-2.933,4.3C-2.837,4.301 -2.737,4.303 -2.64,4.3C-2.605,4.298 -2.567,4.3 -2.532,4.302C-2.422,4.305 -2.321,4.31 -2.228,4.255C-2.145,4.205 -2.055,4.2 -1.967,4.196C-1.902,4.192 -1.834,4.189 -1.769,4.165C-1.525,4.078 -1.262,4.033 -1.009,3.989C-0.96,3.981 -0.912,3.973 -0.864,3.964C-0.59,3.916 -0.327,3.845 -0.129,3.789C-0.118,3.785 -0.107,3.783 -0.095,3.78C-0.054,3.769 -0.01,3.758 0.022,3.736C0.117,3.67 0.163,3.611 0.159,3.562C0.155,3.514 0.102,3.465 0,3.417M-4.513,-0.008C-4.506,-0.013 -4.499,-0.019 -4.492,-0.024C-4.467,-0.045 -4.44,-0.068 -4.408,-0.078C-4.39,-0.084 -4.37,-0.068 -4.351,-0.053C-4.342,-0.045 -4.332,-0.037 -4.324,-0.033C-4.143,0.058 -3.76,0.15 -3.564,0.15C-3.385,0.15 -3.203,0.151 -3.024,0.15L-2.537,0.15C-2.434,0.15 -2.333,0.152 -2.236,0.155C-2.192,0.156 -2.153,0.176 -2.132,0.206C-2.116,0.23 -2.113,0.258 -2.123,0.285C-2.142,0.34 -2.178,0.366 -2.231,0.366L-3.069,0.366L-3.069,0.371L-3.088,0.37C-3.241,0.371 -3.393,0.369 -3.549,0.369C-3.653,0.369 -3.756,0.37 -3.858,0.371L-3.867,0.371C-4.129,0.371 -4.33,0.233 -4.515,0.092C-4.537,0.075 -4.543,0.057 -4.543,0.044C-4.543,0.026 -4.532,0.008 -4.513,-0.008M-4.618,1.506C-4.616,1.486 -4.605,1.467 -4.584,1.451C-4.578,1.446 -4.572,1.439 -4.565,1.432C-4.545,1.408 -4.512,1.369 -4.462,1.409C-4.248,1.587 -3.996,1.619 -3.787,1.619C-3.765,1.619 -3.743,1.618 -3.722,1.618C-3.527,1.612 -3.327,1.614 -3.135,1.616L-2.994,1.617C-2.94,1.618 -2.898,1.624 -2.862,1.638C-2.833,1.65 -2.815,1.695 -2.814,1.722C-2.814,1.746 -2.831,1.807 -2.861,1.81C-2.971,1.823 -3.085,1.831 -3.2,1.835C-3.245,1.837 -3.291,1.837 -3.336,1.837C-3.405,1.837 -3.474,1.836 -3.543,1.836L-3.561,1.834C-3.604,1.834 -3.647,1.834 -3.689,1.833C-3.795,1.832 -3.905,1.831 -4.012,1.835C-4.023,1.835 -4.033,1.836 -4.043,1.836C-4.26,1.836 -4.438,1.752 -4.587,1.58C-4.61,1.553 -4.62,1.529 -4.618,1.506" style="fill:rgb(150,120,182);fill-rule:nonzero;"/>
            </g>
            <g transform="matrix(1,0,0,1,17.9889,15.1362)">
                <path d="M0,-3.452C-0.097,-3.493 -0.193,-3.543 -0.284,-3.591C-0.329,-3.615 -0.373,-3.638 -0.419,-3.661L-0.424,-3.664C-0.437,-3.67 -0.466,-3.685 -0.477,-3.685L-0.478,-3.685C-0.565,-3.626 -0.665,-3.62 -0.76,-3.615C-0.836,-3.611 -0.907,-3.606 -0.973,-3.578C-1.146,-3.503 -1.324,-3.518 -1.498,-3.533C-1.538,-3.536 -1.577,-3.54 -1.616,-3.542C-1.721,-3.548 -1.786,-3.629 -1.848,-3.708C-1.879,-3.748 -1.912,-3.788 -1.948,-3.818C-1.96,-3.827 -1.973,-3.838 -1.982,-3.852C-2.074,-3.983 -2.214,-3.981 -2.306,-3.94C-2.458,-3.872 -2.62,-3.833 -2.776,-3.794C-2.941,-3.754 -3.112,-3.712 -3.268,-3.637C-3.322,-3.611 -3.371,-3.62 -3.406,-3.662C-3.422,-3.681 -3.427,-3.712 -3.42,-3.746C-3.411,-3.788 -3.389,-3.821 -3.36,-3.836C-3.351,-3.841 -3.343,-3.845 -3.333,-3.85C-3.291,-3.874 -3.246,-3.898 -3.199,-3.9C-3.067,-3.909 -2.942,-3.956 -2.822,-4.002C-2.723,-4.039 -2.621,-4.079 -2.513,-4.097C-2.439,-4.109 -2.387,-4.196 -2.384,-4.269C-2.382,-4.347 -2.421,-4.401 -2.514,-4.451C-2.54,-4.465 -2.569,-4.471 -2.601,-4.478C-2.64,-4.487 -2.682,-4.496 -2.714,-4.52C-2.897,-4.655 -3.086,-4.742 -3.285,-4.788C-3.319,-4.774 -3.358,-4.76 -3.394,-4.745C-3.56,-4.677 -3.68,-4.539 -3.813,-4.423C-3.967,-4.29 -4.142,-4.185 -4.317,-4.081C-4.349,-4.062 -4.384,-4.046 -4.42,-4.044C-4.42,-3.571 -4.42,-3.104 -4.421,-2.654C-4.421,-2.472 -4.355,-2.314 -4.286,-2.147L-4.281,-2.136C-4.245,-2.048 -4.189,-1.981 -4.102,-1.921L-4.058,-1.89C-3.887,-1.773 -3.711,-1.651 -3.557,-1.51C-3.396,-1.362 -3.241,-1.203 -3.09,-1.049C-3.004,-0.96 -2.914,-0.868 -2.825,-0.779C-2.676,-0.633 -2.606,-0.453 -2.609,-0.228C-2.614,0.139 -2.612,0.513 -2.611,0.875L-2.609,1.15C-2.609,1.164 -2.61,1.178 -2.611,1.192C-2.614,1.242 -2.616,1.29 -2.584,1.336C-2.55,1.303 -2.518,1.269 -2.485,1.236C-2.404,1.15 -2.319,1.062 -2.221,0.995C-2.037,0.87 -1.879,0.711 -1.726,0.557C-1.631,0.462 -1.534,0.364 -1.432,0.275C-1.381,0.231 -1.357,0.176 -1.358,0.1C-1.36,-0.383 -1.361,-0.898 -1.356,-1.408C-1.355,-1.496 -1.389,-1.555 -1.465,-1.602C-1.508,-1.628 -1.555,-1.649 -1.601,-1.669C-1.684,-1.705 -1.77,-1.743 -1.836,-1.815C-1.864,-1.846 -1.883,-1.914 -1.864,-1.949C-1.846,-1.983 -1.771,-2.016 -1.733,-1.999C-1.581,-1.93 -1.437,-1.851 -1.317,-1.784C-1.254,-1.748 -1.193,-1.744 -1.129,-1.769C-1.115,-1.775 -1.1,-1.785 -1.086,-1.795C-1.063,-1.81 -1.04,-1.826 -1.013,-1.831C-0.8,-1.866 -0.603,-1.957 -0.411,-2.045C-0.276,-2.107 -0.136,-2.171 0.008,-2.216C0.026,-2.221 0.047,-2.239 0.065,-2.263C0.07,-2.27 0.075,-2.288 0.076,-2.3C0.059,-2.308 0.042,-2.317 0.026,-2.327C-0.028,-2.357 -0.084,-2.388 -0.139,-2.392C-0.26,-2.401 -0.372,-2.439 -0.481,-2.476C-0.543,-2.497 -0.607,-2.519 -0.671,-2.534C-0.729,-2.548 -0.787,-2.565 -0.843,-2.581C-0.998,-2.626 -1.16,-2.671 -1.326,-2.669C-1.448,-2.667 -1.521,-2.628 -1.557,-2.546C-1.598,-2.451 -1.657,-2.42 -1.758,-2.394C-1.861,-2.368 -1.977,-2.337 -2.071,-2.288C-2.127,-2.259 -2.187,-2.244 -2.245,-2.23C-2.31,-2.214 -2.372,-2.199 -2.431,-2.164C-2.479,-2.135 -2.534,-2.129 -2.593,-2.122C-2.649,-2.115 -2.706,-2.109 -2.758,-2.082C-2.905,-2.007 -3.029,-2.11 -3.127,-2.194L-3.152,-2.214C-3.192,-2.249 -3.154,-2.365 -3.143,-2.392C-3.134,-2.414 -3.116,-2.429 -3.093,-2.434C-3.063,-2.441 -3.028,-2.432 -3.003,-2.411C-2.88,-2.304 -2.73,-2.334 -2.612,-2.372C-2.423,-2.432 -2.231,-2.498 -2.047,-2.562C-1.97,-2.588 -1.893,-2.614 -1.816,-2.641C-1.807,-2.648 -1.792,-2.701 -1.8,-2.723C-1.808,-2.749 -1.839,-2.779 -1.88,-2.803C-2.011,-2.879 -2.486,-3.01 -2.64,-3.012C-2.676,-3.012 -2.717,-3.012 -2.756,-3.01C-2.802,-3.008 -2.848,-3.006 -2.898,-3.008C-2.925,-3.009 -2.981,-3.039 -2.981,-3.069C-2.98,-3.088 -2.975,-3.18 -2.935,-3.195C-2.904,-3.207 -2.872,-3.228 -2.841,-3.249C-2.769,-3.298 -2.688,-3.351 -2.605,-3.288C-2.534,-3.233 -2.456,-3.224 -2.374,-3.215C-2.303,-3.208 -2.229,-3.2 -2.16,-3.16C-2.077,-3.113 -1.984,-3.087 -1.885,-3.059C-1.82,-3.041 -1.752,-3.023 -1.688,-2.997L-1.669,-2.989C-1.609,-2.965 -1.551,-2.943 -1.494,-2.952C-1.365,-2.975 -1.248,-2.939 -1.135,-2.906C-1.046,-2.88 -0.961,-2.855 -0.872,-2.855L-0.858,-2.855L-0.853,-2.851C-0.698,-2.724 -0.556,-2.784 -0.406,-2.847C-0.362,-2.865 -0.317,-2.885 -0.273,-2.898C-0.195,-2.921 -0.124,-2.977 -0.055,-3.031C-0.023,-3.056 0.009,-3.081 0.041,-3.103C0.11,-3.149 0.109,-3.219 0.109,-3.293L0.109,-3.319C0.11,-3.393 0.073,-3.422 0,-3.452" style="fill:rgb(174,171,155);fill-rule:nonzero;"/>
            </g>
        </g>
    </g>
</svg>
