<?xml version="1.0" encoding="UTF-8"?>
<svg xmlns="http://www.w3.org/2000/svg" xmlns:xlink="http://www.w3.org/1999/xlink" width="595.275591" height="841.889764" viewBox="0 0 595.275591 841.889764">
<defs>
<clipPath id="clip-0">
<path clip-rule="nonzero" d="M 194.171875 349 L 242 349 L 242 391 L 194.171875 391 Z M 194.171875 349 "/>
</clipPath>
<clipPath id="clip-1">
<path clip-rule="nonzero" d="M 243 349 L 290.550781 349 L 290.550781 391 L 243 391 Z M 243 349 "/>
</clipPath>
</defs>
<path fill="none" stroke-width="0.25" stroke-linecap="butt" stroke-linejoin="miter" stroke="rgb(0%, 0%, 0%)" stroke-opacity="1" stroke-miterlimit="4" d="M 26.000293 -0.000531684 C 23.238704 -0.000531684 20.999392 2.23878 20.999392 5.000369 L 20.999392 76.001031 L 10.998969 78.000564 L 10.998969 85.000998 L 20.999392 87.000532 L 9.999891 87.000532 L -0.000531684 89.000065 L -0.000531684 117.000423 L 9.999891 118.999957 L 20.999392 118.999957 C 20.999392 121.917263 22.158322 124.714681 24.221246 126.777604 C 26.284169 128.840527 29.082964 129.999457 32.000271 129.999457 L 99.000488 129.999457 C 101.917795 129.999457 104.715213 128.840527 106.778136 126.777604 C 108.841059 124.714681 109.999989 121.917263 109.999989 118.999957 L 120.99949 118.999957 L 130.999913 117.000423 L 130.999913 89.000065 L 120.99949 87.000532 L 109.999989 87.000532 L 120.000412 85.000998 L 120.000412 78.000564 L 109.999989 76.001031 L 109.999989 5.000369 C 109.999989 3.673318 109.473579 2.402767 108.535135 1.464323 C 107.598069 0.527257 106.326139 -0.000531684 105.000467 -0.000531684 Z M 26.000293 -0.000531684 " transform="matrix(2.834646, 0, 0, 2.834646, 56.692913, 56.692913)"/>
<path fill-rule="nonzero" fill="rgb(76.862745%, 52.941176%, 28.235294%)" fill-opacity="1" d="M 224.128906 374.96875 C 224.515625 374.96875 224.832031 374.765625 225.164062 374.550781 C 225.320312 374.457031 225.472656 374.359375 225.632812 374.28125 L 226.074219 374.066406 C 228.273438 373 230.542969 371.890625 232.761719 370.769531 C 232.882812 370.707031 233.011719 370.644531 233.140625 370.589844 C 233.574219 370.398438 233.980469 370.21875 234.253906 369.832031 C 234.292969 369.773438 234.339844 369.71875 234.386719 369.660156 C 234.488281 369.539062 234.589844 369.421875 234.601562 369.3125 C 234.652344 368.589844 234.640625 367.867188 234.621094 367.25 C 234.617188 367.195312 234.484375 367.058594 234.414062 367.050781 C 234.09375 367.007812 233.773438 366.996094 233.324219 366.984375 C 233.140625 366.976562 232.929688 366.96875 232.695312 366.957031 C 232.332031 366.902344 231.113281 366.785156 230.128906 367.757812 C 229.015625 368.855469 227.707031 369.703125 226.445312 370.523438 C 226.132812 370.71875 225.832031 370.925781 225.523438 371.128906 C 225.035156 371.449219 224.589844 371.855469 224.164062 372.253906 L 224.128906 372.285156 C 223.972656 372.421875 223.820312 372.636719 223.820312 372.785156 C 223.824219 373.003906 223.808594 373.222656 223.796875 373.4375 C 223.761719 373.960938 223.726562 374.464844 223.929688 374.953125 C 224 374.964844 224.0625 374.96875 224.128906 374.96875 M 227.976562 370.46875 L 228.054688 370.460938 C 228.089844 370.460938 228.125 370.457031 228.160156 370.457031 L 228.222656 370.457031 L 228.28125 370.460938 L 229.410156 370.46875 C 229.597656 370.480469 229.949219 370.507812 230.304688 370.5625 C 230.464844 370.589844 230.582031 370.863281 230.585938 371.003906 C 230.597656 371.132812 230.5 371.457031 230.34375 371.46875 C 229.527344 371.550781 228.808594 371.59375 228.125 371.613281 C 227.78125 371.609375 227.511719 371.535156 227.375 371.359375 C 227.273438 371.246094 227.246094 371.097656 227.28125 370.933594 C 227.378906 370.511719 227.710938 370.488281 227.976562 370.46875 "/>
<path fill-rule="nonzero" fill="rgb(74.509804%, 29.411765%, 32.941176%)" fill-opacity="1" d="M 244.585938 393.277344 L 244.585938 394.625 C 244.585938 394.777344 244.59375 394.925781 244.605469 395.078125 C 244.613281 395.203125 244.6875 395.300781 244.761719 395.347656 C 244.792969 395.367188 244.851562 395.390625 244.910156 395.359375 L 244.976562 395.332031 C 245.0625 395.292969 245.183594 395.230469 245.203125 395.175781 C 246.078125 392.882812 246.078125 392.882812 247.757812 391.332031 L 247.816406 391.269531 C 248.078125 391.03125 248.351562 390.785156 248.484375 390.488281 L 248.625 390.195312 C 249.207031 388.953125 249.804688 387.671875 250.269531 386.367188 C 250.53125 385.613281 250.519531 385.066406 250.238281 384.703125 C 249.996094 384.402344 249.5 384.199219 249.117188 384.136719 C 248.492188 384.039062 247.949219 383.761719 247.429688 383.496094 C 247.285156 383.429688 247.144531 383.355469 247 383.285156 C 246.867188 383.222656 246.675781 383.164062 246.542969 383.234375 C 246.421875 383.304688 246.382812 383.484375 246.371094 383.617188 C 246.332031 384.097656 246.246094 384.578125 246.164062 385.042969 C 246.023438 385.816406 245.882812 386.609375 245.953125 387.417969 C 246.046875 388.433594 246.007812 389.472656 245.113281 390.25 C 245.066406 390.292969 245.046875 390.414062 245.03125 390.527344 C 245.015625 390.636719 245 390.75 244.953125 390.847656 C 244.550781 391.6875 244.542969 392.585938 244.585938 393.277344 "/>
<path fill-rule="nonzero" fill="rgb(40.392157%, 20%, 35.294118%)" fill-opacity="1" d="M 220.996094 382.238281 C 220.980469 382.902344 220.960938 383.585938 221.019531 384.253906 C 221.035156 384.40625 221.019531 384.566406 221.011719 384.71875 C 220.992188 384.960938 220.972656 385.195312 221.054688 385.359375 C 221.5625 386.335938 221.496094 387.371094 221.433594 388.363281 L 221.421875 388.5625 C 221.367188 389.480469 221.53125 390.386719 221.6875 391.265625 C 221.828125 392.082031 221.976562 392.925781 221.957031 393.773438 C 221.964844 393.8125 222.09375 393.925781 222.1875 393.953125 C 222.296875 393.984375 222.460938 393.960938 222.519531 393.910156 C 222.734375 393.734375 222.964844 393.519531 223.09375 393.273438 C 223.636719 392.257812 224.078125 391.09375 224.460938 389.710938 C 224.871094 388.203125 225.714844 387.179688 227.03125 386.605469 C 227.503906 386.390625 227.964844 386.128906 228.410156 385.871094 C 228.585938 385.765625 228.753906 385.667969 228.929688 385.566406 C 228.824219 385.339844 228.714844 385.117188 228.609375 384.878906 C 228.328125 384.273438 228.035156 383.636719 227.761719 383.007812 C 227.554688 382.523438 227.433594 382.007812 227.320312 381.511719 C 227.199219 381 227.082031 380.472656 226.863281 379.984375 C 226.578125 379.359375 226.738281 378.644531 227.253906 378.167969 C 227.519531 377.933594 227.953125 377.785156 228.1875 377.960938 C 228.457031 378.167969 228.492188 378.503906 228.371094 378.710938 C 228.015625 379.335938 228.179688 379.949219 228.378906 380.519531 C 228.792969 381.726562 229.296875 383.144531 229.832031 384.550781 C 229.929688 384.816406 230.242188 384.859375 230.492188 384.785156 C 230.757812 384.699219 231.023438 384.570312 231.277344 384.441406 C 231.355469 384.402344 231.429688 384.367188 231.507812 384.328125 C 232.988281 383.613281 232.988281 383.613281 232.367188 382.207031 C 231.949219 381.257812 231.519531 380.261719 231.132812 379.261719 C 230.953125 378.792969 230.894531 378.398438 230.957031 378.101562 C 231.152344 377.207031 231.535156 376.558594 232.113281 376.117188 C 232.242188 376.015625 232.480469 375.976562 232.636719 376.035156 C 232.925781 376.140625 233.0625 376.382812 233.007812 376.671875 C 233 376.738281 232.988281 376.800781 232.984375 376.867188 C 232.964844 377.070312 232.9375 377.273438 232.804688 377.378906 C 231.875 378.082031 232.242188 378.800781 232.664062 379.640625 C 232.726562 379.753906 232.785156 379.867188 232.84375 379.984375 C 233.132812 380.527344 233.429688 381.09375 233.535156 381.761719 C 233.589844 382.097656 233.824219 382.425781 234.050781 382.742188 C 234.136719 382.863281 234.214844 382.976562 234.289062 383.089844 C 234.339844 383.164062 234.460938 383.21875 234.566406 383.257812 C 234.578125 383.25 234.585938 383.238281 234.589844 383.234375 C 234.625 383.203125 234.667969 383.175781 234.710938 383.15625 C 235.335938 382.886719 235.960938 382.625 236.585938 382.359375 C 237.210938 382.097656 237.839844 381.835938 238.464844 381.566406 C 238.890625 381.382812 239.148438 381.082031 239.253906 380.632812 C 239.324219 380.332031 239.429688 380.027344 239.527344 379.765625 C 239.746094 379.144531 240.113281 378.765625 240.636719 378.613281 C 240.652344 378.609375 240.671875 378.589844 240.699219 378.574219 C 240.730469 378.542969 240.777344 378.503906 240.835938 378.492188 C 241.488281 378.34375 241.605469 377.953125 241.597656 377.234375 C 241.570312 374.367188 241.574219 371.457031 241.582031 368.640625 L 241.585938 366.152344 C 241.585938 365.566406 241.589844 365.042969 241.609375 364.535156 C 241.617188 364.386719 241.683594 364.242188 241.808594 364.132812 C 241.964844 364 242.160156 363.945312 242.386719 363.960938 C 242.554688 363.984375 243.085938 364.039062 243.109375 364.570312 C 243.132812 365.109375 243.132812 365.667969 243.132812 366.203125 L 243.132812 366.421875 C 243.140625 370.1875 243.140625 373.957031 243.140625 377.730469 C 243.140625 378.042969 243.199219 378.242188 243.496094 378.335938 C 244.585938 378.65625 245.027344 379.574219 245.40625 380.570312 C 245.710938 381.34375 246.171875 381.824219 246.714844 381.933594 C 247.273438 382.046875 247.785156 382.292969 248.277344 382.523438 C 248.789062 382.769531 249.316406 383.019531 249.890625 383.117188 L 249.996094 383.136719 C 250.238281 383.191406 250.269531 383.183594 250.417969 382.933594 C 250.914062 382.078125 251.28125 381.15625 251.644531 380.261719 C 251.886719 379.640625 252.144531 379 252.441406 378.390625 C 252.527344 378.207031 252.476562 378.140625 252.386719 378.015625 C 252.367188 377.988281 252.34375 377.953125 252.316406 377.917969 C 252.050781 377.484375 251.765625 377.023438 251.492188 376.558594 C 251.425781 376.4375 251.425781 376.304688 251.492188 376.195312 C 251.566406 376.066406 251.722656 376.003906 251.886719 376.003906 L 251.988281 376.007812 C 252.222656 376.011719 252.488281 376.011719 252.601562 376.160156 C 253.039062 376.71875 253.453125 377.269531 253.738281 377.875 C 253.941406 378.304688 253.742188 378.671875 253.550781 379.03125 C 253.441406 379.230469 253.324219 379.4375 253.296875 379.644531 C 253.25 379.992188 253.097656 380.320312 252.953125 380.636719 C 252.910156 380.738281 252.863281 380.84375 252.820312 380.941406 C 252.398438 381.945312 252.015625 382.828125 251.652344 383.640625 C 251.617188 383.714844 251.621094 383.765625 251.632812 383.78125 C 251.644531 383.796875 251.675781 383.808594 251.722656 383.808594 C 252.273438 383.835938 252.738281 384.074219 253.1875 384.308594 C 253.34375 384.390625 253.5 384.46875 253.65625 384.539062 C 254.035156 384.707031 254.289062 384.753906 254.476562 384.679688 C 254.660156 384.605469 254.808594 384.421875 254.953125 384.09375 L 255.152344 383.625 C 255.464844 382.898438 255.789062 382.148438 256.046875 381.375 C 256.40625 380.28125 256.550781 379.347656 256.085938 378.363281 C 256.027344 378.234375 256.019531 378.132812 256.066406 378.042969 C 256.140625 377.910156 256.324219 377.882812 256.46875 377.863281 L 256.523438 377.855469 C 256.75 377.824219 256.925781 377.839844 257.039062 377.910156 C 257.625 378.269531 258.15625 379.445312 257.84375 380.019531 C 257.488281 380.691406 257.28125 381.449219 257.078125 382.171875 C 256.785156 383.238281 256.476562 384.339844 255.703125 385.238281 C 255.671875 385.273438 255.664062 385.339844 255.671875 385.402344 C 255.691406 385.488281 255.746094 385.601562 255.867188 385.667969 L 256.015625 385.746094 C 256.289062 385.898438 256.578125 386.058594 256.871094 386.167969 C 258.835938 386.898438 260.011719 388.273438 260.46875 390.363281 C 260.5 390.496094 260.539062 390.621094 260.574219 390.753906 C 260.640625 390.984375 260.710938 391.222656 260.730469 391.46875 C 260.792969 392.113281 261.105469 392.636719 261.4375 393.191406 C 261.574219 393.421875 261.714844 393.652344 261.832031 393.890625 C 261.863281 393.9375 262.097656 393.957031 262.199219 393.964844 C 262.265625 393.972656 262.328125 393.976562 262.382812 393.984375 C 262.488281 394 262.582031 393.980469 262.652344 393.921875 C 262.71875 393.871094 262.757812 393.796875 262.765625 393.722656 L 262.796875 393.414062 C 262.851562 392.835938 262.90625 392.238281 262.828125 391.671875 C 262.757812 391.203125 262.90625 390.792969 263.042969 390.398438 C 263.164062 390.078125 263.269531 389.777344 263.273438 389.4375 L 263.277344 388.808594 C 263.292969 387.070312 263.308594 385.28125 263.65625 383.503906 C 263.84375 382.550781 263.8125 381.53125 263.789062 380.550781 C 263.78125 380.011719 263.765625 379.457031 263.785156 378.914062 C 263.804688 378.359375 263.609375 377.96875 263.148438 377.640625 C 263.089844 377.589844 263.03125 377.550781 262.96875 377.507812 C 262.792969 377.371094 262.609375 377.234375 262.414062 377.132812 C 261.902344 376.875 261.386719 376.601562 260.890625 376.335938 C 259.679688 375.6875 258.421875 375.023438 257.128906 374.53125 C 255.789062 374.023438 254.496094 373.367188 253.246094 372.734375 C 252.109375 372.160156 250.9375 371.570312 249.738281 371.085938 C 249.457031 370.972656 249.066406 370.652344 249.050781 370.367188 C 249.042969 370.027344 248.917969 369.710938 248.789062 369.386719 C 248.640625 369.007812 248.480469 368.609375 248.511719 368.164062 C 248.515625 368.058594 248.527344 367.957031 248.535156 367.851562 C 248.574219 367.332031 248.621094 366.785156 248.425781 366.390625 C 248.070312 365.6875 248.070312 364.976562 248.070312 364.289062 C 248.070312 364.003906 248.070312 363.714844 248.042969 363.429688 C 248.015625 363.140625 248.015625 362.847656 248.015625 362.566406 C 248.015625 362.390625 248.007812 362.21875 248.003906 362.042969 C 247.988281 361.542969 247.898438 361.453125 247.429688 361.449219 C 245.136719 361.441406 242.121094 361.4375 239.125 361.453125 C 238.597656 361.457031 238.066406 361.484375 237.550781 361.507812 C 237.332031 361.523438 237.117188 361.53125 236.898438 361.542969 C 236.636719 362 236.660156 362.492188 236.6875 363.007812 C 236.703125 363.304688 236.722656 363.605469 236.675781 363.910156 C 236.660156 363.988281 236.671875 364.082031 236.679688 364.171875 C 236.691406 364.335938 236.703125 364.5 236.621094 364.636719 C 236.195312 365.324219 236.21875 366.105469 236.25 366.859375 L 236.253906 367.027344 C 236.269531 367.488281 236.136719 367.910156 236.007812 368.316406 C 235.859375 368.78125 235.722656 369.214844 235.777344 369.691406 C 235.878906 370.5625 235.242188 370.953125 234.753906 371.171875 C 234.148438 371.441406 233.550781 371.757812 232.96875 372.0625 C 232.160156 372.484375 231.320312 372.917969 230.457031 373.253906 C 228.824219 373.878906 227.238281 374.683594 225.707031 375.460938 C 224.722656 375.957031 223.707031 376.472656 222.683594 376.933594 C 221.972656 377.257812 221.398438 377.695312 220.921875 378.28125 C 220.894531 378.308594 220.871094 378.335938 220.847656 378.363281 C 220.722656 378.503906 220.648438 378.59375 220.699219 378.757812 C 221.050781 379.910156 221.027344 381.089844 220.996094 382.238281 "/>
<path fill-rule="nonzero" fill="rgb(61.960784%, 21.176471%, 13.72549%)" fill-opacity="1" d="M 253.300781 393.152344 C 253.296875 393.28125 253.289062 393.441406 253.339844 393.570312 C 253.515625 394.039062 253.671875 394.53125 253.828125 395.007812 C 254.21875 396.210938 254.625 397.457031 255.316406 398.558594 C 255.332031 398.578125 255.386719 398.609375 255.40625 398.613281 C 255.597656 398.59375 255.679688 398.574219 255.707031 398.5625 L 255.742188 398.382812 C 255.816406 397.941406 255.898438 397.492188 255.882812 397.050781 C 255.847656 395.75 256.320312 394.667969 257.328125 393.753906 C 257.960938 393.171875 258.585938 392.5625 259.1875 391.964844 L 259.3125 391.84375 C 259.457031 391.703125 259.511719 391.589844 259.394531 391.386719 C 259.246094 391.132812 259.191406 390.828125 259.144531 390.535156 L 259.132812 390.496094 C 258.941406 389.398438 258.585938 388.335938 257.339844 387.976562 C 256.925781 387.855469 256.601562 387.601562 256.292969 387.359375 C 256.0625 387.179688 255.847656 387.011719 255.59375 386.894531 C 255.441406 386.820312 255.191406 386.8125 254.988281 386.875 C 254.933594 386.894531 254.894531 386.914062 254.882812 386.933594 C 254.871094 386.972656 254.910156 387.058594 254.9375 387.125 C 254.957031 387.164062 254.976562 387.210938 254.992188 387.25 C 255.332031 388.242188 255.226562 389.226562 254.679688 390.175781 L 254.585938 390.335938 C 254.3125 390.804688 254.039062 391.289062 253.691406 391.710938 C 253.375 392.101562 253.304688 392.511719 253.300781 393.007812 L 253.300781 393.152344 "/>
<path fill-rule="nonzero" fill="rgb(76.862745%, 52.941176%, 28.235294%)" fill-opacity="1" d="M 250.035156 344.773438 L 249.980469 344.773438 C 244.53125 344.839844 239.128906 344.820312 234.5625 344.785156 L 234.53125 344.785156 C 233.796875 344.785156 233.296875 345.007812 232.855469 345.535156 C 232.660156 345.765625 232.625 345.882812 232.789062 346.179688 C 233.109375 346.773438 233.523438 347.277344 234.066406 347.71875 C 234.140625 347.777344 234.238281 347.792969 234.332031 347.765625 C 234.460938 347.734375 234.566406 347.628906 234.617188 347.488281 C 234.625 347.464844 234.625 347.433594 234.632812 347.398438 C 234.636719 347.355469 234.640625 347.3125 234.65625 347.265625 C 235.023438 346.214844 235.175781 346.011719 236.117188 345.992188 C 236.710938 345.976562 237.3125 345.980469 237.898438 345.984375 C 238.226562 345.984375 238.546875 345.984375 238.878906 345.992188 L 238.890625 345.992188 C 239.363281 345.992188 239.820312 346.078125 240.011719 346.730469 C 240.132812 347.128906 240.371094 347.507812 240.632812 347.898438 C 240.738281 348.054688 240.945312 348.238281 241.09375 348.242188 C 241.933594 348.277344 242.777344 348.277344 243.609375 348.238281 C 243.730469 348.234375 243.898438 348.101562 244.078125 347.882812 C 244.183594 347.753906 244.246094 347.578125 244.300781 347.40625 L 244.335938 347.3125 C 244.757812 346.140625 244.925781 346 246 345.984375 C 246.550781 345.976562 247.105469 345.980469 247.640625 345.984375 C 248.015625 345.992188 248.382812 345.992188 248.761719 345.992188 C 249.226562 345.992188 249.5 346.199219 249.671875 346.683594 C 249.769531 346.949219 249.933594 347.191406 250.105469 347.453125 C 250.164062 347.542969 250.226562 347.636719 250.289062 347.734375 L 252.109375 345.921875 C 251.582031 345.113281 250.972656 344.773438 250.035156 344.773438 "/>
<path fill-rule="nonzero" fill="rgb(44.313725%, 40.784314%, 52.156863%)" fill-opacity="1" d="M 230.234375 349.511719 C 230.496094 349.773438 230.765625 350.046875 231.023438 350.328125 C 231.496094 350.855469 232.019531 351.089844 232.714844 351.089844 L 232.75 351.089844 C 235.054688 351.0625 237.394531 351.0625 239.664062 351.070312 C 240.472656 351.070312 241.28125 351.074219 242.097656 351.074219 L 242.195312 351.070312 L 244.671875 351.0625 C 247.152344 351.070312 249.628906 351.0625 252.097656 351.074219 L 252.113281 351.074219 C 252.726562 351.074219 253.128906 350.914062 253.464844 350.550781 C 253.726562 350.257812 254.011719 349.980469 254.285156 349.714844 C 254.441406 349.554688 254.601562 349.394531 254.761719 349.230469 C 255.074219 348.917969 254.949219 348.710938 254.828125 348.582031 C 254.402344 348.121094 254.050781 347.753906 253.710938 347.429688 C 253.453125 347.1875 253.25 347.066406 253.066406 347.066406 L 253.039062 347.066406 C 252.839844 347.082031 252.628906 347.234375 252.382812 347.550781 L 252.273438 347.6875 C 252.03125 348 251.777344 348.320312 251.488281 348.601562 C 250.917969 349.148438 249.847656 349.132812 249.273438 348.558594 C 248.941406 348.21875 248.628906 347.875 248.476562 347.390625 C 248.40625 347.167969 248.164062 347.136719 248.050781 347.136719 L 248.039062 347.136719 C 247.550781 347.140625 247.070312 347.132812 246.597656 347.128906 L 246.410156 347.121094 C 246.089844 347.121094 245.835938 347.289062 245.597656 347.671875 C 245.527344 347.777344 245.484375 347.902344 245.433594 348.03125 C 245.375 348.1875 245.3125 348.351562 245.203125 348.492188 C 244.777344 349.035156 244.277344 349.523438 243.382812 349.449219 C 242.765625 349.394531 242.132812 349.402344 241.519531 349.410156 L 240.628906 349.410156 C 239.75 349.402344 239.429688 348.796875 239.257812 348.265625 C 238.886719 347.132812 238.839844 347.132812 237.777344 347.121094 C 237.445312 347.121094 237.109375 347.128906 236.777344 347.132812 L 236.632812 347.136719 C 236.324219 347.140625 236.125 347.359375 235.976562 347.574219 C 235.917969 347.652344 235.886719 347.757812 235.851562 347.867188 C 235.816406 347.976562 235.789062 348.09375 235.722656 348.195312 C 235.4375 348.644531 234.988281 348.945312 234.492188 349.007812 C 234.027344 349.0625 233.570312 348.925781 233.207031 348.589844 C 232.9375 348.34375 232.675781 348.070312 232.421875 347.8125 C 232.253906 347.632812 232.078125 347.453125 231.90625 347.285156 C 231.667969 347.050781 231.445312 347.03125 231.242188 347.214844 C 230.8125 347.613281 230.371094 348.046875 229.941406 348.507812 C 229.636719 348.828125 229.773438 349.039062 229.894531 349.167969 C 230.011719 349.28125 230.121094 349.394531 230.234375 349.511719 "/>
<path fill-rule="nonzero" fill="rgb(61.960784%, 21.176471%, 13.72549%)" fill-opacity="1" d="M 224.945312 351.804688 C 225.15625 351.597656 225.363281 351.386719 225.574219 351.175781 L 225.917969 350.824219 L 231.445312 345.28125 C 231.542969 345.175781 231.648438 345.070312 231.746094 344.96875 C 231.863281 344.855469 231.976562 344.738281 232.089844 344.625 C 232.351562 344.363281 232.421875 344.015625 232.277344 343.675781 C 231.882812 342.75 231.453125 341.980469 230.304688 341.980469 C 230.226562 341.980469 230.152344 341.984375 230.074219 341.988281 C 230 341.996094 229.929688 342 229.859375 342 C 228.84375 342 227.921875 341.398438 227.375 340.355469 C 227.046875 339.75 226.609375 339.277344 226.144531 338.777344 C 226.007812 338.632812 225.875 338.488281 225.746094 338.339844 C 224.835938 339.121094 224.28125 340.128906 223.75 341.105469 C 223.617188 341.347656 223.484375 341.59375 223.34375 341.832031 C 222.792969 342.777344 222.304688 343.78125 221.835938 344.753906 C 221.71875 344.988281 221.605469 345.222656 221.492188 345.453125 C 221.34375 345.753906 221.210938 346.066406 221.078125 346.367188 C 220.855469 346.890625 220.628906 347.425781 220.320312 347.910156 C 220.140625 348.199219 220.117188 348.523438 220.085938 348.871094 C 220.058594 349.273438 220.027344 349.6875 219.71875 350.03125 C 220.128906 350.699219 220.09375 351.425781 220.058594 352.121094 C 220.039062 352.464844 220.023438 352.8125 220.058594 353.148438 C 220.085938 353.445312 220.066406 353.765625 220.046875 354.070312 C 220.023438 354.558594 219.992188 355.015625 220.152344 355.398438 C 220.460938 356.125 220.472656 356.851562 220.488281 357.546875 C 220.496094 357.738281 220.496094 357.929688 220.503906 358.121094 C 220.519531 358.441406 220.503906 358.773438 220.488281 359.09375 C 220.460938 359.71875 220.433594 360.3125 220.617188 360.835938 C 220.902344 361.65625 220.925781 362.464844 220.949219 363.25 C 220.960938 363.503906 220.964844 363.757812 220.984375 364.015625 C 221.019531 364.558594 221.027344 365.109375 221.03125 365.652344 L 221.03125 365.859375 C 221.035156 366.152344 221.175781 366.292969 221.507812 366.332031 C 222.324219 366.4375 222.421875 366.34375 222.78125 365.601562 C 222.945312 365.261719 223.035156 364.9375 223.074219 364.554688 C 223.105469 364.296875 223.109375 364.035156 223.121094 363.78125 C 223.140625 363.21875 223.15625 362.640625 223.367188 362.054688 C 223.550781 361.550781 223.5625 360.972656 223.566406 360.40625 C 223.570312 360.136719 223.578125 359.859375 223.601562 359.589844 C 223.613281 359.460938 223.640625 359.269531 223.734375 359.121094 C 224 358.703125 224 358.25 224 357.78125 C 224 357.492188 224 357.199219 224.058594 356.914062 C 224.109375 356.6875 224.167969 356.460938 224.226562 356.234375 C 224.386719 355.65625 224.53125 355.105469 224.484375 354.507812 C 224.464844 354.214844 224.476562 353.921875 224.480469 353.640625 C 224.488281 353.390625 224.496094 353.136719 224.484375 352.890625 C 224.460938 352.472656 224.605469 352.140625 224.945312 351.804688 "/>
<path fill-rule="nonzero" fill="rgb(74.509804%, 29.411765%, 32.941176%)" fill-opacity="1" d="M 238.371094 384.816406 C 238.363281 384.605469 238.363281 384.386719 238.359375 384.167969 C 238.359375 383.964844 238.355469 383.746094 238.335938 383.484375 C 238.328125 383.359375 238.253906 383.253906 238.144531 383.199219 C 238.035156 383.144531 237.917969 383.15625 237.816406 383.21875 C 237.242188 383.605469 236.601562 383.824219 235.980469 384.039062 C 235.75 384.113281 235.519531 384.191406 235.296875 384.277344 C 234.308594 384.660156 234.195312 384.769531 234.394531 385.851562 C 234.492188 386.386719 234.679688 386.917969 234.863281 387.429688 C 234.980469 387.75 235.097656 388.089844 235.191406 388.417969 C 235.574219 389.738281 236.089844 390.609375 236.871094 391.25 C 238.253906 392.382812 239.125 393.679688 239.515625 395.210938 C 239.519531 395.226562 239.546875 395.253906 239.570312 395.273438 C 239.582031 395.261719 239.589844 395.257812 239.601562 395.246094 C 239.640625 395.210938 239.71875 395.148438 239.71875 395.125 C 239.738281 394.660156 239.738281 394.195312 239.734375 393.742188 L 239.734375 393.175781 L 239.765625 393.175781 C 239.765625 393.09375 239.757812 393.007812 239.757812 392.917969 C 239.753906 392.660156 239.746094 392.382812 239.773438 392.113281 C 239.847656 391.355469 239.667969 390.617188 239.207031 389.78125 C 238.59375 388.65625 238.316406 387.574219 238.363281 386.472656 C 238.382812 385.925781 238.378906 385.363281 238.371094 384.816406 "/>
<path fill-rule="nonzero" fill="rgb(76.862745%, 52.941176%, 28.235294%)" fill-opacity="1" d="M 219.882812 383.199219 C 219.882812 383.03125 219.890625 382.855469 219.878906 382.695312 C 219.875 382.59375 219.867188 382.484375 219.863281 382.386719 L 219.859375 382.238281 C 219.839844 381.902344 219.703125 381.753906 219.417969 381.75 L 218.65625 381.75 L 218.277344 381.753906 C 217.96875 381.753906 217.664062 381.75 217.351562 381.75 C 217.128906 381.75 216.90625 381.75 216.683594 381.765625 C 216.507812 381.773438 216.394531 381.910156 216.375 382.121094 C 216.261719 383.246094 216.523438 384.339844 217.125 385.292969 C 217.753906 386.296875 218.722656 387.066406 219.65625 387.816406 L 219.863281 387.984375 C 219.878906 387.996094 219.949219 387.996094 220.074219 387.960938 C 220.203125 387.921875 220.277344 387.859375 220.285156 387.839844 C 220.269531 386.921875 220.25 385.996094 220.226562 385.066406 L 220.222656 384.703125 C 219.867188 384.230469 219.875 383.707031 219.882812 383.199219 "/>
<path fill-rule="nonzero" fill="rgb(61.960784%, 21.176471%, 13.72549%)" fill-opacity="1" d="M 204.332031 393.15625 C 204.347656 393.222656 204.355469 393.285156 204.386719 393.324219 C 204.511719 393.5 204.660156 393.660156 204.796875 393.808594 C 204.839844 393.851562 204.878906 393.890625 204.917969 393.9375 C 204.960938 393.890625 205.007812 393.855469 205.054688 393.816406 C 205.210938 393.695312 205.359375 393.578125 205.414062 393.441406 C 205.886719 392.214844 206.703125 391.289062 207.507812 390.453125 C 207.6875 390.261719 207.835938 390.035156 207.984375 389.816406 C 208.167969 389.535156 208.363281 389.242188 208.625 389.015625 C 209.902344 387.941406 210.382812 386.5 210.203125 384.351562 C 210.195312 384.277344 210.195312 384.199219 210.1875 384.125 C 210.183594 384.042969 210.179688 383.96875 210.175781 383.894531 C 210.167969 383.824219 210.121094 383.746094 210.035156 383.6875 C 209.910156 383.597656 209.742188 383.5625 209.601562 383.59375 C 209.378906 383.652344 209.15625 383.722656 208.96875 383.785156 C 207.558594 384.257812 206.21875 384.941406 204.917969 385.601562 L 204.476562 385.824219 C 203.691406 386.226562 203.320312 386.585938 203.457031 387.445312 C 203.511719 387.761719 203.496094 388.089844 203.484375 388.410156 C 203.476562 388.550781 203.472656 388.691406 203.472656 388.832031 L 203.472656 388.933594 L 203.457031 388.933594 C 203.457031 388.972656 203.457031 389.011719 203.464844 389.046875 C 203.46875 389.210938 203.476562 389.375 203.449219 389.539062 C 203.246094 390.792969 203.503906 391.898438 204.242188 392.902344 C 204.296875 392.980469 204.316406 393.074219 204.332031 393.15625 "/>
<path fill-rule="nonzero" fill="rgb(61.960784%, 21.176471%, 13.72549%)" fill-opacity="1" d="M 229.578125 388.152344 C 229.523438 387.984375 229.554688 387.800781 229.578125 387.621094 C 229.617188 387.355469 229.648438 387.125 229.4375 386.96875 C 229.171875 386.773438 228.992188 386.882812 228.699219 387.109375 C 228.515625 387.25 228.328125 387.394531 228.089844 387.414062 C 227.988281 387.417969 227.878906 387.523438 227.765625 387.636719 C 227.648438 387.757812 227.53125 387.871094 227.382812 387.925781 C 226.21875 388.351562 225.824219 389.332031 225.59375 390.234375 C 225.523438 390.5 225.414062 390.78125 225.257812 391.085938 C 225.125 391.371094 225.15625 391.597656 225.359375 391.800781 C 225.742188 392.179688 226.128906 392.558594 226.515625 392.929688 C 226.789062 393.1875 227.0625 393.449219 227.328125 393.71875 C 228.1875 394.546875 228.753906 395.796875 228.8125 396.972656 C 228.828125 397.234375 228.839844 397.496094 228.84375 397.757812 C 228.859375 398.101562 228.867188 398.457031 228.894531 398.804688 C 228.898438 398.839844 228.984375 398.90625 229.042969 398.949219 C 229.070312 398.929688 229.113281 398.894531 229.132812 398.871094 C 229.875 397.972656 230.269531 396.871094 230.640625 395.804688 C 230.703125 395.621094 230.765625 395.441406 230.835938 395.261719 C 231.671875 392.929688 231.703125 392.707031 230.363281 390.746094 C 229.765625 389.882812 229.429688 389.148438 229.578125 388.152344 "/>
<path fill-rule="nonzero" fill="rgb(74.509804%, 29.411765%, 32.941176%)" fill-opacity="1" d="M 210.238281 389.324219 C 209.996094 389.65625 209.6875 390 209.304688 390.367188 C 209.003906 390.652344 209.003906 390.984375 209.003906 391.367188 C 208.996094 391.433594 208.996094 391.507812 208.996094 391.578125 C 208.988281 391.8125 209.097656 392.011719 209.214844 392.222656 C 209.355469 392.488281 209.503906 392.753906 209.441406 393.109375 C 209.355469 393.640625 209.523438 394.121094 209.710938 394.632812 C 209.789062 394.835938 209.863281 395.042969 209.921875 395.257812 C 210.238281 396.445312 210.6875 397.351562 211.300781 398.035156 C 212.65625 399.546875 214 400.726562 215.40625 401.65625 C 215.664062 401.824219 215.9375 401.976562 216.207031 402.128906 C 216.664062 402.378906 217.132812 402.644531 217.527344 402.992188 C 217.898438 403.324219 218.207031 403.734375 218.5 404.136719 C 218.691406 404.40625 218.894531 404.679688 219.113281 404.925781 C 219.480469 405.328125 219.636719 405.75 219.609375 406.246094 C 219.5625 407.195312 219.746094 407.988281 220.175781 408.667969 C 220.652344 408.109375 220.796875 407.398438 220.929688 406.703125 C 220.996094 406.367188 221.066406 406.019531 221.175781 405.691406 C 221.367188 405.082031 221.332031 404.371094 221.292969 403.6875 C 221.273438 403.375 221.257812 403.050781 221.265625 402.742188 C 221.265625 402.433594 221.167969 402.1875 220.960938 401.988281 C 220.027344 401.089844 219.382812 399.972656 218.761719 398.894531 C 218.414062 398.285156 218.046875 397.660156 217.636719 397.078125 C 217.34375 396.65625 217.03125 396.160156 217.074219 395.535156 C 217.097656 395.144531 217.089844 394.734375 217.074219 394.332031 C 217.054688 393.652344 217.035156 392.957031 217.203125 392.304688 C 217.4375 391.40625 217.492188 390.535156 217.550781 389.617188 L 217.566406 389.40625 C 217.621094 388.480469 217.601562 387.664062 216.738281 387.050781 C 216.152344 386.636719 215.90625 385.929688 215.730469 385.234375 C 215.683594 385.066406 215.609375 384.902344 215.535156 384.75 C 215.449219 384.566406 215.367188 384.371094 215.332031 384.171875 C 215.257812 383.746094 215.242188 383.304688 215.226562 382.878906 C 215.222656 382.625 215.210938 382.355469 215.1875 382.097656 C 215.171875 381.894531 215.042969 381.769531 214.851562 381.765625 C 214.757812 381.761719 214.667969 381.753906 214.574219 381.746094 C 214.347656 381.726562 214.140625 381.707031 213.972656 381.769531 C 213.339844 382.019531 212.671875 382.335938 211.941406 382.738281 C 211.835938 382.800781 211.742188 383.050781 211.726562 383.234375 C 211.699219 383.75 211.667969 384.300781 211.738281 384.832031 C 211.816406 385.46875 211.640625 386.0625 211.46875 386.636719 C 211.359375 387.003906 211.25 387.375 211.207031 387.75 C 211.15625 388.1875 210.835938 388.589844 210.515625 388.972656 C 210.421875 389.09375 210.324219 389.207031 210.238281 389.324219 "/>
<path fill-rule="nonzero" fill="rgb(61.960784%, 21.176471%, 13.72549%)" fill-opacity="1" d="M 206.113281 359.363281 C 206.1875 359.304688 206.273438 359.242188 206.355469 359.183594 C 206.574219 359.03125 206.800781 358.867188 206.941406 358.664062 C 207.296875 358.160156 207.804688 358.046875 208.292969 357.933594 C 208.550781 357.878906 208.800781 357.824219 209.019531 357.714844 C 209.5625 357.453125 210.199219 357.492188 210.859375 357.828125 C 211.121094 357.964844 211.402344 358.03125 211.679688 358.03125 C 212.136719 358.03125 212.613281 357.855469 213.113281 357.5 L 213.183594 357.453125 C 214.128906 356.78125 215.113281 356.085938 216.152344 355.511719 C 216.390625 355.378906 216.65625 355.109375 216.585938 354.578125 C 216.582031 354.519531 216.59375 354.453125 216.597656 354.390625 C 216.617188 354.261719 216.640625 354.097656 216.582031 354.011719 C 216.265625 353.496094 216.214844 352.914062 216.171875 352.355469 C 216.125 351.773438 216.082031 351.226562 215.757812 350.75 L 215.738281 350.722656 L 215.742188 350.679688 C 215.796875 350.085938 215.644531 349.523438 215.480469 348.929688 C 215.316406 348.347656 215.148438 347.742188 215.210938 347.105469 C 215.238281 346.820312 215.042969 346.628906 214.835938 346.425781 C 214.769531 346.367188 214.714844 346.332031 214.671875 346.316406 C 214.671875 346.316406 214.660156 346.328125 214.652344 346.332031 C 214.640625 346.382812 214.628906 346.433594 214.617188 346.480469 C 214.574219 346.640625 214.53125 346.800781 214.550781 346.9375 C 214.757812 348.222656 213.921875 349.128906 213.175781 349.769531 C 213.046875 349.878906 212.925781 349.984375 212.800781 350.09375 C 212.136719 350.679688 211.449219 351.28125 210.578125 351.640625 C 209.507812 352.070312 208.535156 352.769531 207.691406 353.722656 C 207.316406 354.140625 206.859375 354.664062 206.765625 355.199219 C 206.621094 355.984375 206.417969 356.765625 206.222656 357.523438 C 206.089844 358.046875 205.945312 358.589844 205.832031 359.128906 C 205.832031 359.179688 205.976562 359.320312 206.019531 359.367188 C 206.03125 359.375 206.09375 359.375 206.113281 359.363281 "/>
<g clip-path="url(#clip-0)">
<path fill-rule="nonzero" fill="rgb(44.313725%, 40.784314%, 52.156863%)" fill-opacity="1" d="M 194.683594 389.722656 C 194.964844 389.902344 195.292969 390.058594 195.683594 390.214844 C 196.484375 390.523438 196.757812 390.441406 197.089844 389.777344 C 197.582031 388.785156 198.332031 387.941406 199.378906 387.195312 C 199.625 387.015625 199.914062 386.898438 200.191406 386.777344 C 200.625 386.59375 201.03125 386.421875 201.300781 386.074219 C 201.65625 385.605469 202.132812 385.449219 202.59375 385.300781 C 202.835938 385.214844 203.070312 385.140625 203.285156 385.015625 C 203.433594 384.9375 203.539062 384.808594 203.558594 384.679688 C 203.566406 384.597656 203.546875 384.535156 203.492188 384.480469 C 202.699219 383.636719 202.128906 382.628906 201.582031 381.65625 L 201.457031 381.433594 C 201.394531 381.324219 201.394531 381.179688 201.460938 381.035156 C 201.5625 380.828125 201.765625 380.664062 201.972656 380.628906 C 202.21875 380.589844 202.542969 380.613281 202.726562 380.761719 C 202.8125 380.828125 202.859375 380.921875 202.863281 381.027344 C 202.886719 381.726562 203.292969 382.167969 203.730469 382.628906 L 203.816406 382.71875 C 204.941406 383.929688 204.941406 383.929688 206.5625 383.378906 C 206.734375 383.320312 206.851562 383.214844 206.898438 383.09375 C 206.933594 383.007812 206.921875 382.917969 206.875 382.832031 C 206.808594 382.726562 206.75 382.625 206.683594 382.519531 C 206.480469 382.167969 206.277344 381.808594 206.015625 381.507812 C 205.617188 381.046875 205.375 380.503906 205.136719 379.976562 C 205.03125 379.75 204.925781 379.523438 204.8125 379.296875 C 204.660156 379.011719 204.613281 378.617188 204.695312 378.351562 C 204.828125 377.914062 205.082031 377.515625 205.328125 377.132812 C 205.414062 377.003906 205.617188 377.003906 205.796875 377 L 205.839844 377 C 205.949219 377 206.089844 377.117188 206.109375 377.222656 C 206.117188 377.296875 206.132812 377.367188 206.148438 377.4375 C 206.199219 377.675781 206.253906 377.914062 206.203125 378.140625 C 206 379.140625 206.386719 379.929688 207.039062 380.800781 C 207.15625 380.960938 207.289062 381.109375 207.425781 381.253906 C 207.699219 381.558594 207.980469 381.871094 208.140625 382.296875 C 208.167969 382.371094 208.226562 382.429688 208.3125 382.464844 C 208.445312 382.53125 208.65625 382.523438 208.824219 382.460938 C 209.128906 382.339844 209.433594 382.222656 209.742188 382.113281 C 210.753906 381.730469 211.800781 381.34375 212.753906 380.773438 C 213.421875 380.375 214.085938 380.1875 214.789062 380.1875 C 214.851562 380.1875 214.910156 380.1875 214.96875 380.191406 C 216.046875 380.242188 217.144531 380.226562 218.210938 380.207031 C 218.589844 380.203125 218.964844 380.195312 219.347656 380.191406 C 219.421875 380.191406 219.605469 380.191406 219.636719 380.148438 C 219.675781 380.097656 219.636719 379.890625 219.617188 379.785156 C 219.238281 377.929688 219.5625 377.222656 221.183594 376.375 C 221.296875 376.316406 221.417969 376.261719 221.535156 376.210938 C 221.691406 376.136719 221.847656 376.066406 221.992188 375.980469 C 222.445312 375.714844 222.644531 375.40625 222.632812 374.972656 C 222.625 374.59375 222.628906 374.210938 222.632812 373.84375 C 222.640625 373.382812 222.644531 372.90625 222.625 372.4375 C 222.597656 371.855469 222.828125 371.394531 223.347656 370.980469 C 223.488281 370.871094 223.640625 370.773438 223.789062 370.679688 C 223.894531 370.617188 224.003906 370.546875 224.109375 370.472656 C 224.605469 370.125 225.128906 369.796875 225.636719 369.472656 C 226.644531 368.847656 227.683594 368.199219 228.550781 367.332031 C 229.269531 366.601562 229.976562 366.125 230.636719 365.914062 C 231.203125 365.742188 231.828125 365.777344 232.4375 365.800781 C 232.675781 365.816406 232.917969 365.832031 233.152344 365.832031 L 233.300781 365.832031 C 233.496094 365.832031 233.683594 365.832031 233.878906 365.835938 C 234.109375 365.839844 234.34375 365.847656 234.566406 365.839844 C 234.964844 365.839844 235.089844 365.757812 235.117188 365.21875 C 235.164062 364.3125 235.242188 363.542969 235.464844 362.742188 C 235.664062 362.019531 235.8125 360.976562 235.394531 360.097656 C 235.207031 359.707031 235.347656 359.398438 235.464844 359.128906 C 235.550781 358.945312 235.625 358.777344 235.613281 358.582031 C 235.570312 358.117188 235.988281 358.003906 236.289062 357.917969 C 236.367188 357.894531 236.449219 357.875 236.511719 357.847656 C 237.09375 357.609375 237.558594 357.195312 238.015625 356.792969 C 238.457031 356.398438 238.910156 355.992188 239.476562 355.738281 C 239.824219 355.582031 240.144531 355.335938 240.460938 355.097656 C 240.621094 354.976562 240.792969 354.847656 240.96875 354.726562 C 241.457031 354.402344 241.625 353.953125 241.542969 353.210938 C 241.488281 352.726562 241.371094 352.613281 240.945312 352.613281 C 240.042969 352.605469 239.148438 352.605469 238.253906 352.605469 C 236.988281 352.613281 235.738281 352.605469 234.484375 352.601562 C 234.386719 352.597656 234.273438 352.601562 234.167969 352.605469 C 233.671875 352.617188 233.15625 352.628906 232.644531 352.328125 C 232.480469 352.234375 232.34375 352.214844 232.234375 352.273438 C 232.121094 352.34375 232.050781 352.507812 232.050781 352.726562 C 232.039062 353.601562 232.035156 354.472656 232.035156 355.351562 C 232.035156 355.859375 232.03125 356.371094 232.03125 356.875 C 232.03125 356.964844 232.035156 357.054688 232.046875 357.148438 C 232.058594 357.386719 232.078125 357.628906 231.980469 357.828125 C 231.917969 357.964844 231.851562 358.09375 231.789062 358.226562 C 231.222656 359.394531 230.636719 360.597656 229.492188 361.394531 C 229.429688 361.433594 229.316406 361.457031 229.207031 361.457031 C 229.085938 361.457031 228.972656 361.429688 228.921875 361.363281 C 228.804688 361.195312 228.753906 360.984375 228.703125 360.78125 L 228.695312 360.726562 C 228.675781 360.644531 228.734375 360.570312 228.789062 360.503906 C 228.804688 360.488281 228.820312 360.46875 228.828125 360.457031 C 228.992188 360.226562 229.179688 360.003906 229.363281 359.785156 C 229.761719 359.296875 230.179688 358.796875 230.351562 358.242188 C 230.554688 357.597656 230.535156 356.855469 230.515625 356.140625 C 230.511719 355.863281 230.5 355.582031 230.507812 355.300781 C 230.515625 354.832031 230.515625 354.359375 230.515625 353.886719 C 230.511719 353.4375 230.511719 352.984375 230.515625 352.53125 C 230.527344 352.191406 230.441406 351.898438 230.226562 351.515625 C 229.96875 351.054688 229.65625 350.648438 229.28125 350.269531 C 228.859375 349.851562 228.636719 349.835938 228.261719 350.199219 C 228.105469 350.355469 227.945312 350.515625 227.792969 350.675781 C 227.523438 350.960938 227.246094 351.253906 226.949219 351.5 C 226.019531 352.273438 225.796875 353.347656 225.636719 354.464844 C 225.613281 354.632812 225.621094 354.820312 225.632812 355.003906 C 225.648438 355.300781 225.660156 355.617188 225.53125 355.867188 C 225.214844 356.46875 225.101562 357.140625 225.164062 358.03125 C 225.195312 358.507812 225.0625 358.9375 224.921875 359.351562 C 224.804688 359.734375 224.6875 360.09375 224.695312 360.484375 C 224.707031 361.21875 224.558594 361.933594 224.414062 362.632812 C 224.257812 363.398438 224.09375 364.1875 224.148438 364.992188 C 224.167969 365.324219 224.035156 365.65625 223.90625 365.976562 C 223.828125 366.160156 223.75 366.347656 223.707031 366.53125 C 223.566406 367.101562 223.0625 367.589844 222.359375 367.832031 C 221.839844 368.015625 221.234375 367.921875 220.738281 367.589844 C 220.242188 367.253906 219.929688 366.730469 219.894531 366.1875 C 219.855469 365.492188 219.84375 364.789062 219.835938 364.109375 C 219.828125 363.8125 219.824219 363.507812 219.820312 363.210938 C 219.363281 362.359375 219.382812 361.457031 219.398438 360.585938 C 219.40625 360.183594 219.417969 359.765625 219.378906 359.363281 C 219.363281 359.1875 219.359375 359.011719 219.351562 358.84375 C 219.347656 358.707031 219.347656 358.574219 219.335938 358.441406 C 219.332031 358.359375 219.25 358.277344 219.128906 358.226562 C 219.019531 358.183594 218.871094 358.171875 218.792969 358.246094 C 217.851562 359.113281 216.742188 359.761719 215.675781 360.378906 C 215.035156 360.753906 214.367188 361.140625 213.753906 361.566406 C 214.046875 361.980469 214.328125 362.40625 214.605469 362.816406 C 215.382812 363.984375 216.1875 365.191406 217.289062 366.140625 C 217.53125 366.347656 217.714844 366.703125 217.730469 366.992188 C 217.773438 368.097656 217.75 369.226562 217.730469 370.21875 C 217.730469 370.363281 217.570312 370.472656 217.378906 370.585938 C 217.28125 370.644531 217.125 370.636719 216.964844 370.550781 C 216.835938 370.480469 216.691406 370.359375 216.6875 370.214844 C 216.675781 370.082031 216.667969 369.945312 216.65625 369.8125 C 216.628906 369.410156 216.597656 369 216.617188 368.589844 C 216.65625 367.632812 216.34375 366.855469 215.65625 366.214844 C 214.757812 365.375 214.074219 364.355469 213.414062 363.367188 C 213.238281 363.105469 213.0625 362.84375 212.878906 362.585938 C 212.800781 362.46875 212.679688 362.40625 212.542969 362.402344 L 212.53125 362.402344 C 212.359375 362.402344 212.191406 362.492188 212.074219 362.640625 L 212.03125 362.699219 C 211.90625 362.851562 211.78125 363.011719 211.757812 363.164062 C 211.726562 363.347656 211.734375 363.542969 211.734375 363.742188 C 211.738281 363.929688 211.742188 364.125 211.714844 364.316406 C 211.578125 365.328125 211.878906 366.054688 212.65625 366.609375 C 212.988281 366.847656 213.15625 367.132812 213.148438 367.449219 L 213.144531 367.835938 C 213.128906 368.460938 213.117188 369.117188 213.078125 369.757812 C 213.066406 369.902344 212.90625 370 212.753906 370.09375 L 212.722656 370.113281 C 212.625 370.179688 212.472656 370.167969 212.328125 370.09375 C 212.203125 370.03125 212.054688 369.890625 212.050781 369.726562 C 212.046875 369.527344 212.046875 369.332031 212.039062 369.132812 C 212.039062 368.800781 212.039062 368.457031 212.015625 368.121094 C 212 367.882812 211.929688 367.671875 211.832031 367.558594 C 211.375 367.039062 210.527344 366.867188 209.894531 367.175781 C 209.746094 367.25 209.601562 367.335938 209.464844 367.417969 C 209.210938 367.570312 208.953125 367.722656 208.671875 367.800781 C 208.1875 367.941406 208.011719 368.195312 208.023438 368.699219 C 208.03125 368.890625 208.023438 369.082031 208.023438 369.269531 C 208.015625 369.613281 208.011719 369.964844 208.066406 370.296875 C 208.25 371.425781 207.839844 372.308594 206.847656 372.933594 C 205.703125 373.660156 204.738281 374.621094 203.804688 375.550781 C 203.46875 375.894531 203.117188 376.246094 202.757812 376.582031 C 202.425781 376.894531 202.0625 377.167969 201.707031 377.4375 C 201.578125 377.527344 201.453125 377.621094 201.328125 377.71875 C 201.039062 377.9375 200.757812 378.152344 200.46875 378.363281 C 199.25 379.273438 197.988281 380.210938 196.996094 381.421875 C 196.671875 381.820312 196.285156 382.210938 195.847656 382.578125 C 194.824219 383.453125 194.453125 384.253906 194.609375 385.265625 C 194.640625 385.5 194.691406 385.816406 194.5625 386.015625 C 194.175781 386.609375 194.191406 387.242188 194.207031 387.910156 C 194.210938 388.234375 194.21875 388.566406 194.179688 388.894531 C 194.136719 389.222656 194.292969 389.484375 194.683594 389.722656 "/>
</g>
<path fill-rule="nonzero" fill="rgb(61.960784%, 21.176471%, 13.72549%)" fill-opacity="1" d="M 258.800781 338.332031 C 258.671875 338.335938 258.550781 338.421875 258.453125 338.574219 C 258.289062 338.832031 258.136719 339.101562 257.980469 339.363281 C 257.792969 339.675781 257.597656 340.003906 257.394531 340.316406 C 256.671875 341.410156 255.699219 341.984375 254.488281 342.027344 C 254.414062 342.027344 254.339844 342.035156 254.261719 342.035156 C 254.035156 342.039062 253.800781 342.039062 253.589844 342.082031 C 253.363281 342.128906 253.042969 342.460938 252.769531 342.925781 C 252.472656 343.4375 252.316406 343.96875 252.398438 344.207031 C 252.425781 344.316406 252.488281 344.472656 252.574219 344.570312 C 252.839844 344.859375 253.121094 345.140625 253.394531 345.414062 L 254.878906 346.910156 C 256.488281 348.527344 258.097656 350.144531 259.714844 351.757812 C 260.082031 352.128906 260.246094 352.523438 260.234375 353.050781 C 260.230469 353.265625 260.226562 353.484375 260.214844 353.710938 C 260.1875 354.558594 260.15625 355.433594 260.347656 356.234375 C 260.378906 356.355469 260.410156 356.480469 260.445312 356.601562 C 260.59375 357.214844 260.75 357.839844 260.707031 358.480469 C 260.683594 358.875 260.804688 359.253906 260.921875 359.617188 C 261.03125 359.957031 261.144531 360.3125 261.136719 360.683594 C 261.125 361.402344 261.277344 362.113281 261.421875 362.808594 C 261.605469 363.652344 261.789062 364.527344 261.683594 365.429688 C 261.675781 365.488281 261.691406 365.558594 261.699219 365.621094 C 261.785156 365.996094 262.320312 366.347656 262.796875 366.347656 L 262.835938 366.347656 C 262.882812 366.328125 262.929688 366.316406 262.980469 366.300781 C 263.039062 366.289062 263.140625 366.261719 263.160156 366.238281 C 263.21875 366.054688 263.308594 365.871094 263.398438 365.695312 C 263.574219 365.339844 263.738281 365.007812 263.726562 364.59375 C 263.710938 364.21875 263.726562 363.839844 263.746094 363.46875 C 263.765625 363.011719 263.785156 362.53125 263.746094 362.074219 C 263.695312 361.546875 263.828125 361.070312 263.957031 360.609375 C 264.046875 360.265625 264.136719 359.949219 264.160156 359.609375 C 264.203125 358.960938 264.214844 358.289062 264.226562 357.652344 C 264.257812 356.277344 264.285156 354.859375 264.597656 353.460938 C 264.78125 352.636719 264.746094 351.742188 264.71875 350.878906 C 264.707031 350.53125 264.691406 350.164062 264.691406 349.808594 L 264.699219 349.664062 C 264.699219 349.332031 264.703125 348.988281 264.589844 348.714844 C 264.449219 348.378906 264.320312 348.027344 264.195312 347.683594 C 263.894531 346.84375 263.582031 345.96875 263.03125 345.25 C 262.628906 344.714844 262.328125 344.128906 262.042969 343.558594 C 261.921875 343.328125 261.804688 343.097656 261.683594 342.875 C 261.4375 342.421875 261.207031 341.953125 260.980469 341.507812 C 260.742188 341.027344 260.492188 340.53125 260.230469 340.054688 C 259.933594 339.515625 259.546875 339.011719 259.207031 338.574219 C 259.082031 338.410156 258.929688 338.332031 258.800781 338.332031 "/>
<path fill-rule="nonzero" fill="rgb(74.509804%, 29.411765%, 32.941176%)" fill-opacity="1" d="M 197.277344 373.667969 C 197.835938 373.683594 198.363281 373.703125 198.867188 373.300781 C 199.449219 372.839844 200.0625 372.402344 200.660156 371.984375 C 201.15625 371.632812 201.671875 371.273438 202.15625 370.894531 C 202.597656 370.558594 203.054688 370.492188 203.476562 370.457031 C 204.316406 370.394531 205.046875 370.558594 205.722656 370.964844 C 205.769531 370.992188 205.824219 371.019531 205.875 371.042969 C 205.960938 371.078125 206.050781 371.121094 206.128906 371.183594 C 206.289062 371.316406 206.410156 371.300781 206.566406 371.152344 C 206.769531 370.953125 206.988281 370.671875 206.863281 370.480469 C 206.496094 369.917969 206.496094 369.316406 206.496094 368.734375 L 206.496094 368.441406 C 206.492188 368.03125 206.714844 367.742188 206.882812 367.5625 C 207.199219 367.226562 207.523438 366.914062 208.003906 366.730469 C 208.367188 366.589844 208.71875 366.402344 209.0625 366.21875 C 209.3125 366.085938 209.5625 365.949219 209.828125 365.832031 C 210.101562 365.707031 210.164062 365.507812 210.183594 365.1875 C 210.1875 365.082031 210.183594 364.976562 210.183594 364.875 L 210.183594 364.828125 L 210.175781 364.730469 C 210.175781 364.660156 210.175781 364.589844 210.179688 364.515625 C 210.183594 364.355469 210.195312 364.207031 210.164062 364.0625 C 210.140625 363.925781 210.066406 363.800781 209.992188 363.765625 C 209.964844 363.757812 209.925781 363.746094 209.863281 363.785156 C 209.394531 364.089844 208.882812 364.125 208.386719 364.160156 C 208.050781 364.183594 207.730469 364.203125 207.4375 364.308594 C 206.664062 364.574219 205.925781 364.621094 205.144531 364.660156 L 204.722656 364.6875 C 204.335938 364.714844 203.941406 364.738281 203.550781 364.683594 C 202.863281 364.570312 202.285156 364.902344 201.710938 365.269531 C 200.742188 365.878906 200.09375 366.820312 199.710938 368.121094 L 199.6875 368.21875 C 199.21875 369.828125 198.738281 371.488281 197.652344 372.863281 C 197.574219 372.960938 197.496094 373.046875 197.421875 373.144531 C 197.3125 373.273438 197.203125 373.394531 197.109375 373.53125 C 197.132812 373.578125 197.195312 373.660156 197.222656 373.667969 Z M 197.277344 373.667969 "/>
<path fill-rule="nonzero" fill="rgb(74.509804%, 29.411765%, 32.941176%)" fill-opacity="1" d="M 264.269531 408.179688 L 264.417969 408.558594 C 264.441406 408.609375 264.480469 408.660156 264.527344 408.699219 L 264.558594 408.699219 C 264.625 408.640625 264.636719 408.609375 264.636719 408.605469 C 264.617188 408.050781 264.773438 407.507812 264.921875 406.992188 C 265.058594 406.503906 265.203125 406.003906 265.195312 405.492188 L 265.195312 405.457031 L 265.21875 405.429688 C 265.453125 405.128906 265.675781 404.8125 265.890625 404.5 C 266.53125 403.566406 267.191406 402.605469 268.375 402.15625 C 269.097656 401.882812 269.671875 401.367188 270.199219 400.867188 C 270.5 400.574219 270.851562 400.289062 271.269531 400.003906 C 273.269531 398.597656 273.996094 397.609375 274.640625 395.386719 C 274.683594 395.21875 274.738281 395.046875 274.789062 394.878906 C 275.03125 394.054688 275.289062 393.207031 275.324219 392.328125 C 275.335938 392.09375 275.449219 391.886719 275.554688 391.683594 C 275.707031 391.394531 275.835938 391.152344 275.699219 390.875 C 275.539062 390.5625 275.285156 390.277344 275.039062 390.011719 C 274.929688 389.890625 274.820312 389.765625 274.714844 389.648438 C 274.675781 389.597656 274.628906 389.554688 274.585938 389.515625 C 274.519531 389.449219 274.453125 389.378906 274.398438 389.304688 C 273.667969 388.242188 272.847656 387.035156 272.988281 385.484375 C 273.027344 385.023438 273.015625 384.539062 273.007812 384.078125 C 273.007812 383.859375 273.003906 383.636719 273.003906 383.417969 C 273.003906 383.035156 272.972656 382.773438 272.546875 382.648438 C 272.117188 382.519531 271.6875 382.304688 271.300781 382.027344 C 270.90625 381.742188 270.480469 381.730469 270.054688 381.742188 C 269.691406 381.753906 269.542969 381.871094 269.523438 382.140625 L 269.511719 382.257812 C 269.496094 382.441406 269.484375 382.632812 269.496094 382.816406 C 269.53125 383.289062 269.378906 383.722656 269.226562 384.144531 C 269.066406 384.585938 268.910156 385.007812 268.980469 385.472656 L 268.988281 385.511719 L 268.960938 385.542969 C 268.84375 385.714844 268.734375 385.898438 268.625 386.078125 C 268.375 386.492188 268.117188 386.90625 267.769531 387.234375 C 267.273438 387.703125 267.089844 388.207031 267.144531 388.996094 C 267.167969 389.351562 267.175781 389.710938 267.179688 390.066406 C 267.179688 390.390625 267.183594 390.734375 267.203125 391.074219 C 267.21875 391.296875 267.210938 391.523438 267.203125 391.746094 C 267.191406 392.363281 267.167969 392.945312 267.566406 393.460938 L 267.585938 393.484375 L 267.585938 393.515625 C 267.679688 394.785156 267.621094 395.847656 267.050781 396.890625 C 266.136719 398.546875 265.105469 400.15625 263.976562 401.675781 C 263.582031 402.207031 263.417969 402.6875 263.4375 403.289062 C 263.441406 403.496094 263.441406 403.699219 263.441406 403.964844 L 263.441406 404.410156 C 263.261719 405.65625 263.753906 406.882812 264.269531 408.179688 "/>
<path fill-rule="nonzero" fill="rgb(76.862745%, 52.941176%, 28.235294%)" fill-opacity="1" d="M 264.65625 387.867188 C 265.609375 387.445312 266.453125 386.738281 267.234375 385.714844 C 267.875 384.871094 268.121094 383.78125 268.304688 382.824219 C 268.386719 382.390625 268.4375 382.066406 268.300781 381.910156 C 268.1875 381.773438 267.90625 381.726562 267.375 381.730469 C 266.746094 381.742188 266.019531 381.753906 265.296875 381.742188 L 265.289062 381.742188 C 265.066406 381.742188 264.902344 381.875 264.894531 382.003906 C 264.867188 382.589844 264.738281 383.15625 264.609375 383.699219 C 264.445312 384.4375 264.285156 385.125 264.394531 385.742188 L 264.394531 386.457031 C 264.394531 386.917969 264.394531 387.289062 264.398438 387.65625 C 264.398438 387.773438 264.425781 387.855469 264.46875 387.886719 C 264.507812 387.910156 264.574219 387.90625 264.65625 387.867188 "/>
<path fill-rule="nonzero" fill="rgb(76.862745%, 52.941176%, 28.235294%)" fill-opacity="1" d="M 260.132812 371.832031 C 259.722656 371.535156 259.285156 371.226562 258.824219 370.957031 C 257.566406 370.242188 256.234375 369.441406 255.148438 368.273438 C 254.101562 367.15625 253.03125 366.757812 251.777344 367.015625 C 251.621094 367.023438 251.492188 367.015625 251.359375 367.011719 C 251.042969 367.007812 250.710938 366.996094 250.398438 367.039062 C 250.242188 367.050781 250.074219 367.195312 249.929688 367.320312 L 249.886719 367.355469 C 249.785156 367.4375 249.691406 367.5625 249.855469 367.796875 C 250.097656 368.128906 250.085938 368.5 250.070312 368.859375 C 250.070312 368.96875 250.0625 369.082031 250.070312 369.1875 C 250.085938 369.667969 250.238281 369.898438 250.691406 370.113281 C 253.023438 371.246094 255.367188 372.433594 257.640625 373.578125 C 258.492188 374.011719 259.339844 374.445312 260.195312 374.871094 C 260.28125 374.910156 260.34375 374.933594 260.398438 374.933594 C 260.417969 374.933594 260.4375 374.929688 260.453125 374.921875 C 260.488281 374.894531 260.542969 374.824219 260.546875 374.574219 L 260.546875 373.835938 C 260.542969 373.476562 260.539062 373.101562 260.554688 372.734375 C 260.566406 372.347656 260.429688 372.050781 260.132812 371.832031 M 257.191406 371.476562 C 256.140625 371.722656 255.195312 371.707031 254.308594 371.433594 C 254.15625 371.386719 254.101562 371.066406 254.125 370.945312 C 254.144531 370.816406 254.273438 370.550781 254.441406 370.53125 C 254.765625 370.488281 255.101562 370.472656 255.453125 370.457031 C 255.589844 370.449219 255.726562 370.441406 255.867188 370.4375 C 255.972656 370.441406 256.0625 370.449219 256.15625 370.457031 C 256.457031 370.480469 256.804688 370.507812 257.144531 370.5625 C 257.265625 370.585938 257.332031 370.746094 257.394531 370.902344 L 257.421875 370.96875 C 257.476562 371.085938 257.476562 371.207031 257.425781 371.300781 C 257.382812 371.390625 257.296875 371.449219 257.191406 371.476562 "/>
<path fill-rule="nonzero" fill="rgb(44.313725%, 40.784314%, 52.156863%)" fill-opacity="1" d="M 212.167969 336.84375 C 212.828125 340 213.21875 340.957031 214.746094 343.25 C 214.796875 343.328125 214.863281 343.398438 214.941406 343.472656 C 215.027344 343.566406 215.125 343.671875 215.1875 343.792969 C 215.277344 343.949219 215.367188 344.109375 215.460938 344.269531 C 215.960938 345.15625 216.484375 346.074219 216.417969 347.222656 C 216.402344 347.445312 216.503906 347.679688 216.601562 347.925781 C 216.675781 348.105469 216.757812 348.289062 216.792969 348.476562 C 216.835938 348.691406 216.835938 348.914062 216.839844 349.128906 C 216.851562 349.464844 216.855469 349.777344 216.988281 350.019531 C 217.207031 350.421875 217.214844 350.839844 217.222656 351.246094 C 217.226562 351.609375 217.234375 351.953125 217.390625 352.246094 C 217.730469 352.851562 217.730469 353.460938 217.730469 354.050781 C 217.730469 354.285156 217.730469 354.519531 217.753906 354.75 C 217.773438 354.996094 217.777344 355.242188 217.777344 355.480469 L 217.785156 355.679688 C 217.789062 356.039062 217.96875 356.320312 218.316406 356.523438 C 218.324219 356.523438 218.34375 356.527344 218.390625 356.507812 C 218.601562 356.394531 218.914062 355.941406 218.9375 355.660156 C 218.945312 355.496094 218.949219 355.351562 218.941406 355.214844 C 218.910156 354.839844 218.914062 354.457031 218.921875 354.089844 C 218.941406 353.234375 218.957031 352.421875 218.523438 351.609375 C 217.9375 349.261719 219.445312 346.253906 220.515625 344.269531 C 221.230469 342.933594 222.046875 341.660156 222.824219 340.367188 C 223.324219 339.53125 224.089844 337.15625 225.050781 336.796875 C 226.058594 336.414062 226.953125 338.078125 227.519531 338.722656 C 228.300781 339.605469 229.167969 340.449219 230.347656 340.738281 C 230.535156 340.785156 230.71875 340.828125 230.902344 340.878906 C 231.304688 340.996094 231.761719 340.976562 232.199219 340.953125 C 232.566406 340.9375 232.917969 340.9375 233.277344 340.9375 C 234.617188 340.9375 235.957031 340.933594 237.296875 340.933594 C 237.773438 340.933594 238.246094 340.933594 238.714844 340.9375 C 239.035156 340.9375 239.347656 340.980469 239.636719 341.0625 C 239.800781 341.105469 239.882812 341.394531 239.882812 341.527344 C 239.882812 341.671875 239.785156 341.921875 239.636719 341.980469 C 239.390625 342.074219 239.117188 342.082031 238.929688 342.082031 C 238.28125 342.089844 237.628906 342.089844 236.972656 342.089844 C 236.394531 342.082031 235.8125 342.082031 235.238281 342.089844 L 234.84375 342.089844 C 234.449219 342.089844 234.035156 342.09375 233.644531 342.144531 C 233.503906 342.160156 233.351562 342.316406 233.214844 342.457031 L 233.164062 342.515625 C 233.113281 342.566406 233.085938 342.605469 233.085938 342.644531 C 233.085938 342.710938 233.164062 342.777344 233.230469 342.847656 C 233.265625 342.878906 233.296875 342.914062 233.320312 342.941406 C 233.753906 343.445312 234.191406 343.664062 234.824219 343.664062 C 236.660156 343.621094 238.53125 343.628906 240.34375 343.636719 C 241.042969 343.640625 241.746094 343.640625 242.445312 343.640625 L 245.679688 343.640625 C 246.089844 343.640625 246.496094 343.636719 246.90625 343.632812 C 247.863281 343.621094 248.859375 343.609375 249.839844 343.664062 L 249.949219 343.664062 C 250.644531 343.664062 251.078125 343.320312 251.503906 342.808594 C 251.644531 342.640625 251.597656 342.558594 251.433594 342.375 C 251.285156 342.207031 251.03125 342.023438 250.710938 342.09375 C 250.566406 342.128906 250.417969 342.183594 250.277344 342.242188 C 250.0625 342.328125 249.847656 342.417969 249.621094 342.421875 C 248.53125 342.460938 247.238281 342.492188 245.917969 342.417969 C 245.585938 342.402344 245.257812 342.234375 244.953125 342.074219 C 244.84375 342.019531 244.734375 341.964844 244.628906 341.914062 C 244.535156 341.871094 244.5 341.804688 244.488281 341.757812 C 244.46875 341.652344 244.507812 341.53125 244.628906 341.402344 C 244.902344 341.074219 245.234375 340.921875 245.707031 340.921875 C 247.488281 340.941406 249.292969 340.9375 251.050781 340.941406 L 251.941406 340.941406 C 252.089844 340.933594 252.238281 340.941406 252.386719 340.945312 C 252.84375 340.957031 253.320312 340.960938 253.773438 340.882812 C 254.378906 340.789062 255.082031 340.648438 255.679688 340.335938 C 256.089844 340.125 256.488281 339.324219 256.746094 338.933594 C 257.210938 338.238281 257.597656 337.566406 258.210938 336.980469 C 258.34375 336.851562 258.488281 336.722656 258.667969 336.679688 C 259.027344 336.574219 259.390625 336.828125 259.664062 337.082031 C 261.332031 338.617188 262.230469 340.742188 263.199219 342.742188 C 264.191406 344.800781 265.214844 346.738281 265.917969 348.917969 L 266.019531 349.222656 C 266.195312 349.761719 266.320312 350.257812 266.003906 350.820312 C 265.910156 350.984375 265.847656 351.207031 265.84375 351.421875 C 265.820312 352.359375 265.808594 353.292969 265.792969 354.230469 C 265.789062 354.675781 265.78125 355.128906 265.769531 355.574219 C 265.769531 355.957031 265.992188 356.207031 266.269531 356.46875 C 266.367188 356.558594 266.410156 356.5625 266.414062 356.5625 C 266.414062 356.5625 266.429688 356.554688 266.449219 356.503906 C 266.507812 356.339844 266.574219 356.179688 266.640625 356.027344 C 266.835938 355.5625 267.019531 355.125 266.980469 354.585938 C 266.921875 353.796875 266.902344 352.972656 267.15625 352.28125 C 267.359375 351.703125 267.40625 351.164062 267.453125 350.523438 C 267.472656 350.183594 267.585938 349.878906 267.695312 349.578125 C 267.816406 349.257812 267.933594 348.917969 267.9375 348.550781 C 267.945312 347.957031 268.089844 347.367188 268.226562 346.792969 C 268.335938 346.351562 268.449219 345.890625 268.496094 345.429688 C 268.535156 345.03125 268.824219 344.675781 269.101562 344.324219 C 269.226562 344.167969 269.355469 344.011719 269.457031 343.851562 L 269.613281 343.609375 C 270.132812 342.792969 270.65625 341.984375 271.164062 341.164062 C 271.347656 340.867188 271.484375 340.625 271.585938 340.390625 C 271.855469 339.761719 272.019531 339.074219 272.179688 338.421875 C 272.261719 338.074219 272.347656 337.714844 272.453125 337.375 C 272.847656 335.992188 272.601562 335.011719 271.683594 334.371094 C 271.511719 334.246094 271.398438 334.050781 271.289062 333.867188 C 271.238281 333.785156 271.191406 333.695312 271.132812 333.617188 C 269.726562 331.664062 268.539062 330.429688 266.753906 329.046875 C 266.453125 328.820312 266.207031 328.699219 266.011719 328.699219 C 265.824219 328.699219 265.632812 328.6875 265.441406 328.671875 C 264.871094 328.632812 264.324219 328.597656 263.808594 328.894531 C 263.386719 329.144531 262.914062 329.128906 262.40625 328.851562 L 262.351562 328.824219 C 262.285156 328.789062 262.136719 328.710938 262.082031 328.710938 C 261.628906 329.007812 261.105469 329.082031 260.597656 329.15625 C 260.226562 329.210938 259.839844 329.265625 259.480469 329.414062 C 258.050781 330.007812 256.855469 331.015625 255.71875 332.59375 C 255.074219 333.488281 254.332031 334.234375 253.570312 334.984375 C 252.988281 335.550781 252.457031 335.878906 251.980469 335.957031 C 251.589844 336.019531 251.179688 336.105469 250.792969 336.195312 C 249.785156 336.421875 248.742188 336.652344 247.667969 336.449219 C 247.484375 336.414062 247.320312 336.300781 247.164062 336.1875 L 247.050781 336.105469 C 246.902344 336.003906 246.816406 335.835938 246.835938 335.675781 C 246.851562 335.550781 246.921875 335.457031 247.035156 335.414062 C 247.175781 335.363281 247.3125 335.296875 247.453125 335.234375 C 247.863281 335.046875 248.292969 334.851562 248.828125 334.9375 C 249.046875 334.976562 249.273438 334.957031 249.507812 334.9375 C 249.742188 334.921875 249.976562 334.90625 250.207031 334.9375 C 251.105469 335.070312 251.746094 334.636719 252.433594 334.175781 C 252.617188 334.050781 252.804688 333.929688 252.996094 333.8125 C 253.414062 333.039062 254.03125 332.4375 254.632812 331.859375 C 255.003906 331.496094 255.386719 331.125 255.714844 330.714844 C 255.808594 330.597656 255.851562 330.449219 255.828125 330.3125 C 255.8125 330.246094 255.773438 330.152344 255.667969 330.085938 L 252.363281 328.199219 C 251.582031 328.566406 251.011719 329.207031 250.460938 329.824219 C 250.183594 330.136719 249.902344 330.457031 249.585938 330.742188 C 248.785156 331.476562 247.914062 331.480469 247.175781 331.398438 C 247.011719 331.375 246.851562 331.265625 246.769531 331.117188 C 246.703125 331.003906 246.695312 330.875 246.742188 330.765625 C 246.867188 330.507812 246.957031 330.34375 247.074219 330.363281 C 247.703125 330.421875 248.222656 330.097656 248.710938 329.769531 C 249.210938 329.421875 249.65625 328.953125 250.085938 328.503906 C 250.234375 328.347656 250.382812 328.191406 250.53125 328.039062 C 250.914062 327.660156 251.089844 327.445312 251.082031 327.292969 C 251.070312 327.140625 250.886719 326.980469 250.507812 326.6875 C 250.324219 326.546875 250.125 326.414062 249.925781 326.285156 C 249.617188 326.082031 249.300781 325.871094 249.027344 325.613281 C 248.125 324.765625 247.234375 324.417969 246.226562 324.523438 C 246.183594 324.527344 246.128906 324.527344 246.078125 324.527344 C 245.5625 324.527344 245.160156 324.238281 244.855469 323.65625 C 244.554688 323.078125 244.265625 322.480469 243.988281 321.90625 C 243.808594 321.539062 243.632812 321.171875 243.449219 320.804688 L 243.417969 320.738281 C 243.292969 320.496094 243.167969 320.246094 242.996094 320.050781 C 242.738281 319.75 242.386719 319.789062 242.011719 319.835938 C 241.9375 319.84375 241.863281 319.851562 241.789062 319.855469 C 241.515625 319.875 241.417969 320.042969 241.3125 320.390625 C 241.003906 321.433594 240.484375 322.398438 239.984375 323.332031 C 239.882812 323.519531 239.777344 323.707031 239.683594 323.894531 C 239.472656 324.289062 239.128906 324.511719 238.742188 324.511719 C 238.710938 324.511719 238.675781 324.511719 238.640625 324.507812 C 237.308594 324.378906 236.363281 324.726562 235.675781 325.609375 C 235.558594 325.746094 235.390625 325.820312 235.222656 325.898438 C 235.09375 325.945312 234.972656 326 234.882812 326.074219 C 234.566406 326.351562 234.257812 326.660156 233.960938 326.957031 C 233.84375 327.074219 233.722656 327.195312 233.605469 327.316406 C 233.699219 327.683594 233.972656 327.910156 234.257812 328.15625 C 234.40625 328.273438 234.5625 328.410156 234.691406 328.558594 C 235.347656 329.332031 236.105469 330.074219 237.226562 330.320312 C 237.402344 330.359375 237.535156 330.503906 237.664062 330.640625 C 237.710938 330.683594 237.753906 330.730469 237.792969 330.765625 C 237.867188 330.835938 237.921875 330.941406 237.933594 331.027344 C 237.949219 331.117188 237.867188 331.261719 237.769531 331.292969 C 236.980469 331.515625 236.070312 331.636719 235.320312 330.886719 C 235.089844 330.65625 234.859375 330.429688 234.632812 330.199219 C 234.050781 329.625 233.449219 329.027344 232.875 328.433594 C 232.597656 328.15625 232.367188 328.136719 232 328.359375 C 231.320312 328.769531 230.621094 329.171875 229.945312 329.566406 C 229.648438 329.734375 229.355469 329.90625 229.058594 330.074219 C 228.953125 330.136719 228.875 330.253906 228.847656 330.367188 C 228.839844 330.429688 228.84375 330.484375 228.867188 330.507812 C 230.039062 331.9375 230.957031 333.011719 231.839844 333.988281 C 232.40625 334.609375 233.183594 334.925781 234.148438 334.925781 L 234.246094 334.925781 C 234.988281 334.910156 235.773438 334.902344 236.5625 334.96875 C 236.835938 334.996094 237.089844 335.1875 237.3125 335.351562 L 237.390625 335.414062 C 237.496094 335.488281 237.558594 335.644531 237.589844 335.875 C 237.628906 336.171875 237.460938 336.375 237.113281 336.445312 C 236.085938 336.652344 235.101562 336.441406 234.148438 336.226562 C 233.703125 336.128906 233.246094 336.03125 232.789062 335.972656 C 232.160156 335.898438 231.578125 335.398438 231.355469 335.1875 L 231.136719 334.976562 C 230.160156 334.050781 229.152344 333.089844 228.300781 332.027344 C 226.59375 329.871094 226.371094 329.734375 223.558594 329.035156 C 223.453125 329.007812 223.351562 328.980469 223.253906 328.949219 C 222.789062 328.820312 222.421875 328.710938 221.949219 329 C 221.691406 329.15625 221.363281 329.042969 221.046875 328.933594 C 220.957031 328.90625 220.867188 328.871094 220.777344 328.84375 C 219.203125 328.410156 217.898438 328.730469 216.691406 329.871094 C 215.898438 330.621094 215.207031 331.484375 214.539062 332.320312 C 213.84375 333.1875 213.117188 334.085938 212.285156 334.863281 C 212.253906 334.890625 212.234375 334.964844 212.21875 335.03125 C 212.199219 335.109375 212.175781 335.195312 212.125 335.261719 C 211.832031 335.679688 211.667969 335.988281 211.984375 336.378906 C 212.089844 336.515625 212.140625 336.699219 212.167969 336.84375 "/>
<path fill-rule="nonzero" fill="rgb(61.960784%, 21.176471%, 13.72549%)" fill-opacity="1" d="M 274.550781 386.714844 C 274.53125 387.1875 274.765625 387.535156 275.027344 387.875 C 275.542969 388.566406 276.121094 389.230469 276.675781 389.871094 C 277.722656 391.085938 278.808594 392.347656 279.578125 393.816406 C 279.625 393.898438 279.695312 393.953125 279.761719 393.953125 L 279.769531 393.953125 C 279.828125 393.953125 279.882812 393.917969 279.917969 393.851562 C 280.035156 393.640625 280.148438 393.414062 280.257812 393.195312 C 280.453125 392.820312 280.652344 392.425781 280.894531 392.070312 C 281.382812 391.359375 281.445312 390.609375 281.113281 389.558594 C 280.742188 388.378906 280.746094 388.195312 281.15625 387.101562 C 281.316406 386.683594 281.253906 386.4375 280.949219 386.257812 C 279.292969 385.269531 277.886719 384.574219 276.527344 384.078125 L 276.296875 383.992188 C 275.890625 383.84375 275.472656 383.6875 275.050781 383.613281 C 274.65625 383.539062 274.425781 383.5625 274.292969 383.679688 C 274.175781 383.785156 274.128906 383.988281 274.148438 384.273438 C 274.152344 384.320312 274.152344 384.371094 274.148438 384.445312 L 274.144531 384.652344 C 274.03125 384.996094 274.167969 385.34375 274.308594 385.707031 C 274.4375 386.023438 274.566406 386.351562 274.550781 386.714844 "/>
<path fill-rule="nonzero" fill="rgb(74.509804%, 29.411765%, 32.941176%)" fill-opacity="1" d="M 236.898438 359.175781 C 236.671875 359.257812 236.667969 359.507812 236.6875 359.855469 C 236.703125 360.15625 236.855469 360.285156 237.191406 360.285156 C 238.453125 360.292969 239.714844 360.292969 240.96875 360.292969 L 245.394531 360.292969 C 246.09375 360.292969 246.796875 360.292969 247.503906 360.285156 C 247.714844 360.285156 247.871094 360.230469 247.960938 360.128906 C 248.042969 360.027344 248.070312 359.878906 248.035156 359.6875 C 247.988281 359.433594 247.898438 359.230469 247.8125 359.183594 C 246.761719 358.644531 245.839844 357.898438 244.953125 357.183594 L 244.84375 357.09375 C 244.378906 356.722656 243.855469 356.40625 243.347656 356.101562 C 243.089844 355.949219 242.832031 355.789062 242.578125 355.625 C 242.324219 355.460938 242.117188 355.390625 241.875 355.582031 C 241.640625 355.753906 241.414062 355.949219 241.1875 356.132812 C 240.65625 356.574219 240.105469 357.03125 239.492188 357.34375 C 239.070312 357.550781 238.710938 357.875 238.363281 358.183594 C 237.933594 358.570312 237.484375 358.964844 236.898438 359.175781 "/>
<path fill-rule="nonzero" fill="rgb(61.960784%, 21.176471%, 13.72549%)" fill-opacity="1" d="M 270.265625 347.925781 C 270.210938 347.679688 270.109375 347.445312 270.003906 347.222656 C 269.894531 346.976562 269.78125 346.726562 269.730469 346.445312 C 269.710938 346.421875 269.632812 346.386719 269.578125 346.367188 C 269.558594 346.386719 269.542969 346.414062 269.539062 346.433594 C 269.585938 347.09375 269.421875 347.734375 269.257812 348.359375 C 269.105469 348.96875 268.941406 349.59375 268.988281 350.234375 L 268.992188 350.269531 L 268.972656 350.304688 C 268.675781 350.714844 268.644531 351.191406 268.609375 351.699219 C 268.585938 352.105469 268.558594 352.527344 268.371094 352.910156 C 268.167969 353.332031 268.152344 353.742188 268.136719 354.175781 C 268.132812 354.339844 268.128906 354.5 268.113281 354.664062 C 268.074219 355.0625 268.3125 355.328125 268.574219 355.546875 C 268.632812 355.601562 268.699219 355.65625 268.761719 355.714844 C 268.933594 355.867188 269.089844 356.015625 269.273438 356.085938 C 270.207031 356.4375 271.023438 356.976562 271.761719 357.734375 C 271.949219 357.921875 272.199219 358.003906 272.527344 357.976562 C 272.65625 357.964844 272.789062 357.964844 272.921875 357.957031 C 273.242188 357.953125 273.574219 357.945312 273.835938 357.824219 C 274.53125 357.515625 275.1875 357.496094 275.886719 357.78125 C 276.070312 357.855469 276.261719 357.910156 276.449219 357.96875 C 276.984375 358.128906 277.535156 358.296875 277.910156 358.820312 C 278.007812 358.957031 278.148438 359.066406 278.285156 359.179688 C 278.324219 359.210938 278.363281 359.238281 278.398438 359.273438 C 278.398438 359.269531 278.429688 359.265625 278.441406 359.257812 C 278.492188 359.21875 278.527344 359.167969 278.53125 359.144531 C 278.542969 359.054688 278.542969 358.957031 278.535156 358.796875 L 278.535156 358.472656 L 278.546875 358.429688 C 278.726562 358.078125 278.566406 357.71875 278.378906 357.304688 C 278.230469 356.980469 278.082031 356.652344 278.066406 356.277344 C 278.027344 355.421875 277.644531 354.636719 276.929688 353.941406 C 276.769531 353.789062 276.605469 353.625 276.449219 353.464844 C 275.554688 352.578125 274.628906 351.652344 273.371094 351.203125 C 273.058594 351.09375 272.792969 350.878906 272.535156 350.675781 C 272.371094 350.546875 272.203125 350.414062 272.03125 350.3125 C 271.101562 349.757812 270.492188 348.929688 270.265625 347.925781 "/>
<g clip-path="url(#clip-1)">
<path fill-rule="nonzero" fill="rgb(44.313725%, 40.784314%, 52.156863%)" fill-opacity="1" d="M 286.78125 380.496094 C 286.078125 379.78125 285.34375 379.035156 284.410156 378.5625 C 283.4375 378.0625 282.65625 377.289062 281.902344 376.542969 C 281.792969 376.433594 281.679688 376.324219 281.570312 376.214844 C 281.351562 376.003906 281.136719 375.777344 280.925781 375.558594 C 280.398438 375.007812 279.859375 374.445312 279.238281 374.023438 C 278.78125 373.714844 278.375 373.355469 277.980469 373.007812 C 277.757812 372.808594 277.523438 372.605469 277.292969 372.417969 C 276.804688 372.03125 276.601562 371.558594 276.636719 370.933594 C 276.6875 370.199219 276.691406 369.398438 276.65625 368.414062 C 276.652344 368.261719 276.511719 368.039062 276.378906 367.960938 C 276.050781 367.773438 275.699219 367.609375 275.355469 367.453125 C 275.222656 367.394531 275.085938 367.335938 274.953125 367.269531 C 274.894531 367.242188 274.828125 367.207031 274.769531 367.175781 C 274.625 367.105469 274.496094 367.039062 274.359375 366.992188 C 273.945312 366.878906 273.535156 366.941406 273.222656 367.167969 C 272.90625 367.386719 272.722656 367.726562 272.695312 368.132812 C 272.683594 368.273438 272.691406 368.414062 272.695312 368.550781 C 272.699219 368.714844 272.703125 368.890625 272.691406 369.0625 C 272.660156 369.277344 272.582031 369.515625 272.460938 369.726562 C 272.375 369.875 272.207031 370.003906 272.042969 370.050781 C 271.90625 370.085938 271.671875 369.921875 271.632812 369.789062 C 271.59375 369.664062 271.578125 369.527344 271.5625 369.398438 C 271.542969 369.222656 271.523438 369.050781 271.445312 368.933594 C 270.96875 368.140625 271.101562 367.453125 271.859375 366.777344 C 272.167969 366.507812 272.4375 366.242188 272.683594 365.980469 C 273.160156 365.46875 273.140625 363.261719 272.644531 362.652344 C 272.511719 362.492188 272.328125 362.394531 272.148438 362.394531 C 272.054688 362.390625 271.925781 362.421875 271.820312 362.550781 C 271.714844 362.683594 271.617188 362.832031 271.527344 362.976562 C 271.457031 363.085938 271.390625 363.191406 271.316406 363.292969 C 271.164062 363.503906 271.015625 363.710938 270.867188 363.921875 C 270.449219 364.503906 270.019531 365.109375 269.5625 365.6875 C 269.394531 365.902344 269.191406 366.089844 268.992188 366.277344 C 268.667969 366.574219 268.367188 366.855469 268.222656 367.207031 C 268.054688 367.597656 268.066406 368.089844 268.089844 368.566406 C 268.09375 368.785156 268.101562 369.003906 268.089844 369.210938 L 268.089844 369.390625 C 268.082031 369.484375 268.082031 369.582031 268.078125 369.679688 C 268.066406 369.761719 268.058594 369.882812 267.988281 369.957031 C 267.835938 370.113281 267.671875 370.265625 267.511719 370.414062 L 267.277344 370.636719 L 267.046875 370.382812 C 266.898438 370.21875 266.746094 370.050781 266.609375 369.875 C 266.535156 369.789062 266.550781 369.644531 266.570312 369.570312 C 266.609375 369.367188 266.652344 369.160156 266.699219 368.957031 C 266.867188 368.222656 267.035156 367.464844 267.015625 366.691406 L 267.011719 366.644531 L 267.046875 366.609375 C 267.179688 366.480469 267.265625 366.3125 267.351562 366.128906 C 267.492188 365.832031 267.640625 365.523438 268.027344 365.359375 C 268.332031 365.230469 268.605469 364.898438 268.804688 364.625 C 269.25 364.007812 269.679688 363.367188 270.101562 362.753906 C 270.273438 362.503906 270.441406 362.257812 270.609375 362.007812 C 270.742188 361.816406 270.667969 361.511719 270.445312 361.355469 C 270.390625 361.3125 270.335938 361.273438 270.28125 361.238281 C 270.15625 361.144531 270.023438 361.050781 269.890625 360.972656 C 268.539062 360.164062 266.972656 359.183594 265.371094 357.761719 C 265.367188 358.128906 265.371094 358.46875 265.378906 358.808594 C 265.394531 359.652344 265.402344 360.386719 265.257812 361.101562 L 265.203125 361.355469 C 265.039062 362.167969 264.882812 362.941406 264.882812 363.761719 C 264.882812 363.972656 264.871094 364.1875 264.863281 364.398438 C 264.851562 364.71875 264.835938 365.050781 264.855469 365.371094 C 264.894531 366.042969 264.601562 366.589844 264.320312 367.121094 C 264.28125 367.195312 264.242188 367.265625 264.203125 367.339844 C 264.097656 367.539062 263.84375 367.773438 263.605469 367.8125 C 263.371094 367.851562 263.132812 367.886719 262.890625 367.886719 C 262.519531 367.886719 262.140625 367.800781 261.785156 367.519531 C 261.070312 366.953125 260.652344 366.1875 260.574219 365.304688 C 260.5 364.445312 260.339844 363.59375 260.1875 362.761719 L 260.117188 362.410156 C 260.03125 361.9375 259.976562 361.453125 259.925781 360.984375 C 259.863281 360.425781 259.796875 359.84375 259.675781 359.277344 L 259.664062 359.230469 C 259.464844 358.289062 259.253906 357.316406 259.203125 356.371094 C 259.179688 355.867188 259.0625 355.386719 258.953125 354.921875 C 258.84375 354.449219 258.734375 353.960938 258.710938 353.464844 C 258.671875 352.722656 258.273438 352.160156 257.902344 351.699219 C 257.554688 351.261719 257.136719 350.863281 256.730469 350.488281 C 256.582031 350.347656 256.4375 350.210938 256.292969 350.070312 C 256.09375 349.871094 255.898438 349.890625 255.613281 350.109375 C 255.503906 350.195312 255.386719 350.292969 255.285156 350.414062 C 255.121094 350.613281 254.929688 350.789062 254.738281 350.964844 C 254.367188 351.316406 254.015625 351.644531 253.839844 352.117188 C 253.738281 352.398438 253.863281 352.652344 253.984375 352.925781 C 254.089844 353.136719 254.195312 353.363281 254.195312 353.609375 L 254.195312 354.300781 C 254.199219 354.488281 254.203125 354.675781 254.203125 354.867188 C 254.21875 355.289062 254.230469 355.730469 254.1875 356.15625 C 254.03125 357.828125 254.511719 359.160156 255.652344 360.210938 C 255.808594 360.351562 255.9375 360.578125 256.011719 360.828125 C 256.054688 360.976562 255.957031 361.234375 255.816406 361.324219 C 255.441406 361.570312 254.871094 361.503906 254.644531 361.175781 C 254.566406 361.066406 254.480469 360.953125 254.402344 360.832031 C 254.132812 360.460938 253.855469 360.066406 253.632812 359.65625 C 253.066406 358.628906 252.527344 357.511719 252.660156 356.152344 C 252.738281 355.328125 252.714844 354.472656 252.683594 353.648438 C 252.679688 353.335938 252.671875 353.023438 252.664062 352.707031 C 252.660156 352.507812 252.601562 352.363281 252.5 352.300781 C 252.390625 352.234375 252.238281 352.253906 252.054688 352.347656 C 251.589844 352.585938 251.136719 352.605469 250.679688 352.605469 L 247.449219 352.605469 C 246.21875 352.617188 244.886719 352.628906 243.53125 352.652344 C 243.449219 352.65625 243.308594 352.746094 243.261719 352.832031 C 243.003906 353.277344 243.199219 354.285156 243.585938 354.578125 C 244.816406 355.507812 246.082031 356.425781 247.308594 357.3125 L 247.625 357.546875 C 247.796875 357.664062 247.980469 357.785156 248.152344 357.894531 C 248.351562 358.027344 248.558594 358.160156 248.757812 358.304688 C 249.046875 358.535156 249.195312 358.832031 249.1875 359.183594 L 249.179688 359.398438 C 249.164062 359.78125 249.15625 360.175781 249.160156 360.5625 C 249.164062 360.855469 249.164062 361.148438 249.164062 361.441406 C 249.164062 362.285156 249.164062 363.164062 249.234375 364.015625 C 249.285156 364.675781 249.464844 365.261719 249.730469 365.667969 C 249.925781 365.960938 250.253906 365.914062 250.636719 365.859375 C 250.808594 365.835938 250.996094 365.8125 251.167969 365.824219 C 251.542969 365.855469 251.925781 365.847656 252.296875 365.800781 C 253.578125 365.65625 254.6875 366.070312 255.671875 367.078125 C 256.644531 368.074219 257.828125 368.78125 258.96875 369.460938 L 259.015625 369.484375 C 259.769531 369.9375 260.546875 370.398438 261.277344 370.914062 C 261.882812 371.351562 262.15625 371.890625 262.097656 372.566406 C 262.0625 373.019531 262.070312 373.480469 262.078125 373.933594 C 262.085938 374.3125 262.089844 374.710938 262.070312 375.105469 C 262.042969 375.65625 262.242188 375.933594 262.832031 376.160156 L 262.980469 376.21875 C 263.570312 376.449219 264.242188 376.707031 264.644531 377.164062 C 265.039062 377.617188 264.984375 378.207031 264.9375 378.777344 C 264.917969 379 264.894531 379.238281 264.90625 379.453125 C 264.929688 380.101562 265.023438 380.207031 265.554688 380.207031 C 266.628906 380.210938 267.707031 380.214844 268.789062 380.210938 L 270.171875 380.210938 C 270.277344 380.210938 270.382812 380.207031 270.484375 380.207031 C 270.777344 380.207031 271.066406 380.234375 271.324219 380.480469 C 272.023438 381.144531 272.875 381.425781 273.910156 381.730469 C 274.269531 381.835938 274.625 381.980469 274.964844 382.121094 C 275.175781 382.210938 275.386719 382.296875 275.597656 382.378906 C 276.175781 382.589844 276.285156 382.574219 276.726562 381.910156 C 276.902344 381.640625 277.097656 381.378906 277.285156 381.125 C 277.453125 380.902344 277.625 380.667969 277.78125 380.429688 L 277.863281 380.316406 C 278.414062 379.511719 278.890625 378.8125 278.222656 377.867188 C 278.167969 377.792969 278.179688 377.628906 278.246094 377.554688 L 278.304688 377.492188 C 278.4375 377.335938 278.578125 377.179688 278.75 377.070312 C 278.90625 376.976562 279.171875 377.195312 279.230469 377.269531 L 279.277344 377.308594 C 279.425781 377.472656 279.597656 377.660156 279.632812 377.875 C 279.867188 379.351562 279.597656 380.46875 278.78125 381.386719 C 278.429688 381.785156 278.121094 382.210938 277.808594 382.644531 C 277.769531 382.707031 277.757812 382.84375 277.792969 382.984375 C 277.832031 383.144531 277.910156 383.277344 277.984375 383.320312 C 278.203125 383.433594 278.4375 383.539062 278.660156 383.636719 L 278.800781 383.699219 C 279.460938 383.992188 279.632812 383.96875 280.125 383.507812 C 280.953125 382.742188 281.53125 381.902344 281.886719 380.929688 C 281.96875 380.707031 282.464844 380.683594 282.5625 380.679688 L 282.574219 380.679688 C 282.738281 380.679688 282.886719 380.984375 282.90625 381.109375 C 282.964844 381.605469 282.984375 382.324219 282.390625 382.890625 C 282.125 383.148438 281.867188 383.433594 281.621094 383.707031 L 281.445312 383.894531 C 281.179688 384.191406 281.070312 384.449219 281.125 384.667969 C 281.183594 384.898438 281.425781 385.097656 281.828125 385.234375 C 281.914062 385.269531 282.027344 385.269531 282.136719 385.261719 C 282.359375 385.265625 282.621094 385.25 282.730469 385.511719 C 282.988281 386.113281 283.5 386.320312 284.042969 386.539062 C 284.179688 386.601562 284.324219 386.660156 284.464844 386.722656 C 285.820312 387.371094 286.773438 388.300781 287.386719 389.59375 C 287.421875 389.667969 287.453125 389.753906 287.476562 389.839844 C 287.582031 390.144531 287.65625 390.332031 287.953125 390.332031 L 287.96875 390.332031 C 288.410156 390.324219 288.757812 390.277344 289.054688 390.183594 C 289.363281 390.09375 289.675781 389.945312 290.054688 389.707031 C 290.410156 389.488281 290.570312 389.210938 290.542969 388.859375 C 290.53125 388.699219 290.535156 388.53125 290.542969 388.367188 C 290.554688 388.054688 290.570312 387.75 290.445312 387.546875 C 290.074219 386.917969 290.089844 386.273438 290.101562 385.652344 C 290.109375 385.519531 290.109375 385.390625 290.109375 385.253906 C 290.101562 384.308594 289.785156 383.527344 289.125 382.863281 C 288.796875 382.535156 288.46875 382.203125 288.140625 381.871094 C 287.765625 381.488281 287.394531 381.109375 287.015625 380.726562 Z M 286.78125 380.496094 "/>
</g>
<path fill-rule="nonzero" fill="rgb(74.509804%, 29.411765%, 32.941176%)" fill-opacity="1" d="M 277.003906 364.398438 C 276.535156 364.277344 276.054688 364.144531 275.558594 364.171875 L 275.535156 364.171875 C 275.355469 364.171875 275.179688 364.078125 275.011719 363.984375 C 274.96875 363.960938 274.929688 363.941406 274.886719 363.921875 L 274.839844 363.894531 C 274.53125 363.730469 274.378906 363.683594 274.238281 363.914062 C 274.148438 364.0625 274.121094 364.3125 274.167969 364.492188 C 274.382812 365.269531 274.617188 365.878906 275.417969 366.109375 C 275.746094 366.199219 276.050781 366.363281 276.34375 366.527344 C 276.511719 366.617188 276.691406 366.710938 276.863281 366.789062 C 277.558594 367.101562 277.882812 367.597656 277.855469 368.308594 C 277.835938 368.699219 277.835938 369.097656 277.835938 369.484375 C 277.835938 369.789062 277.835938 370.082031 277.828125 370.382812 C 277.824219 370.734375 277.832031 371.226562 278.019531 371.324219 C 278.113281 371.378906 278.320312 371.371094 278.761719 371.058594 C 278.804688 371.023438 278.855469 371.007812 278.898438 370.992188 C 278.925781 370.984375 278.953125 370.980469 278.980469 370.964844 C 280.292969 370.195312 281.585938 370.285156 282.914062 371.238281 C 283.273438 371.5 283.65625 371.75 284.015625 371.992188 C 284.589844 372.367188 285.175781 372.761719 285.710938 373.191406 C 286.289062 373.664062 286.863281 373.789062 287.605469 373.605469 C 286.289062 371.972656 285.636719 370.898438 285.054688 368.746094 C 284.875 368.078125 284.578125 367.472656 284.296875 366.882812 C 284.230469 366.75 284.167969 366.617188 284.101562 366.476562 C 283.734375 365.695312 283.152344 365.242188 282.28125 365.046875 C 282.101562 365.007812 281.925781 364.957031 281.75 364.90625 C 281.355469 364.792969 280.984375 364.6875 280.574219 364.6875 L 280.542969 364.6875 C 279.714844 364.699219 278.84375 364.699219 277.992188 364.605469 C 277.660156 364.566406 277.324219 364.480469 277.003906 364.398438 "/>
</svg>
