<?xml version="1.0" encoding="UTF-8"?>
<svg xmlns="http://www.w3.org/2000/svg" xmlns:xlink="http://www.w3.org/1999/xlink" width="595.275591" height="841.889764" viewBox="0 0 595.275591 841.889764">
<defs>
<clipPath id="clip-0">
<path clip-rule="nonzero" d="M 224 376 L 261 376 L 261 412.441406 L 224 412.441406 Z M 224 376 "/>
</clipPath>
<clipPath id="clip-1">
<path clip-rule="nonzero" d="M 203 316.0625 L 282 316.0625 L 282 382 L 203 382 Z M 203 316.0625 "/>
</clipPath>
</defs>
<path fill="none" stroke-width="0.25" stroke-linecap="butt" stroke-linejoin="miter" stroke="rgb(0%, 0%, 0%)" stroke-opacity="1" stroke-miterlimit="4" d="M 26.000293 -0.000531684 C 23.238704 -0.000531684 20.999392 2.23878 20.999392 5.000369 L 20.999392 76.001031 L 10.998969 78.000564 L 10.998969 85.000998 L 20.999392 87.000532 L 9.999891 87.000532 L -0.000531684 89.000065 L -0.000531684 117.000423 L 9.999891 118.999957 L 20.999392 118.999957 C 20.999392 121.917263 22.158322 124.714681 24.221246 126.777604 C 26.284169 128.840527 29.082964 129.999457 32.000271 129.999457 L 99.000488 129.999457 C 101.917795 129.999457 104.715213 128.840527 106.778136 126.777604 C 108.841059 124.714681 109.999989 121.917263 109.999989 118.999957 L 120.99949 118.999957 L 130.999913 117.000423 L 130.999913 89.000065 L 120.99949 87.000532 L 109.999989 87.000532 L 120.000412 85.000998 L 120.000412 78.000564 L 109.999989 76.001031 L 109.999989 5.000369 C 109.999989 3.673318 109.473579 2.402767 108.535135 1.464323 C 107.598069 0.527257 106.326139 -0.000531684 105.000467 -0.000531684 Z M 26.000293 -0.000531684 " transform="matrix(2.834646, 0, 0, 2.834646, 56.692913, 56.692913)"/>
<path fill-rule="nonzero" fill="rgb(76.862745%, 52.941176%, 28.235294%)" fill-opacity="1" d="M 258.574219 346.875 C 258.714844 346.960938 258.859375 347.054688 259 347.140625 C 259.777344 347.628906 260.582031 348.128906 261.222656 348.835938 C 261.339844 348.953125 261.460938 349.015625 261.617188 349.015625 C 261.707031 349.015625 261.800781 348.996094 261.90625 348.960938 C 262.132812 348.875 262.363281 348.78125 262.582031 348.6875 C 263.152344 348.449219 263.738281 348.203125 264.390625 348.152344 C 264.449219 348.148438 264.519531 348.097656 264.59375 348.046875 C 264.640625 348.011719 264.691406 347.980469 264.734375 347.957031 C 264.863281 347.890625 264.957031 347.761719 264.96875 347.632812 C 264.980469 347.582031 264.972656 347.484375 264.894531 347.421875 C 264.542969 347.105469 264.148438 346.847656 263.675781 346.554688 C 262.511719 345.847656 261.246094 345.316406 260.019531 344.804688 C 259.082031 344.417969 258.121094 344.015625 257.199219 343.535156 C 257.183594 343.535156 257.09375 343.582031 257.039062 343.613281 L 256.984375 343.640625 C 257.167969 343.933594 257.261719 344.253906 257.261719 344.621094 C 257.273438 345.578125 257.703125 346.316406 258.574219 346.875 "/>
<path fill-rule="nonzero" fill="rgb(76.862745%, 52.941176%, 28.235294%)" fill-opacity="1" d="M 219.992188 348.136719 C 220.714844 348.160156 221.371094 348.417969 222.007812 348.660156 C 222.238281 348.753906 222.476562 348.84375 222.710938 348.921875 C 222.855469 348.972656 222.976562 349 223.085938 349 C 223.207031 349 223.308594 348.964844 223.414062 348.871094 C 223.585938 348.714844 223.757812 348.542969 223.917969 348.375 C 224.277344 348.007812 224.644531 347.632812 225.089844 347.410156 C 225.550781 347.183594 225.890625 346.855469 226.253906 346.515625 C 226.414062 346.359375 226.585938 346.199219 226.761719 346.054688 C 227.300781 345.609375 227.527344 345.0625 227.425781 344.425781 L 227.425781 344.261719 C 227.425781 344.148438 227.425781 344.046875 227.421875 343.945312 C 227.417969 343.726562 227.382812 343.660156 227.351562 343.636719 C 227.324219 343.621094 227.246094 343.621094 227.058594 343.707031 C 226.90625 343.78125 226.761719 343.855469 226.613281 343.933594 C 226.308594 344.085938 226.003906 344.25 225.671875 344.355469 C 224.390625 344.765625 223.183594 345.40625 222.015625 346.027344 C 221.300781 346.40625 220.5625 346.796875 219.808594 347.136719 C 219.550781 347.25 219.59375 347.609375 219.640625 347.8125 C 219.675781 347.953125 219.761719 348.128906 219.992188 348.136719 "/>
<path fill-rule="nonzero" fill="rgb(25.098039%, 30.980392%, 34.901961%)" fill-opacity="1" d="M 263.359375 353.28125 C 263.191406 353.195312 263.035156 353.203125 262.902344 353.28125 C 262.746094 353.371094 262.65625 353.574219 262.652344 353.816406 C 262.648438 354.328125 262.648438 354.839844 262.652344 355.351562 L 262.652344 356.121094 L 262.648438 356.121094 C 262.648438 356.273438 262.652344 356.421875 262.660156 356.570312 C 262.675781 356.980469 262.6875 357.398438 262.628906 357.808594 C 262.550781 358.367188 262.703125 358.867188 262.859375 359.398438 C 262.925781 359.632812 263 359.875 263.050781 360.117188 C 263.097656 360.335938 263.234375 360.425781 263.402344 360.535156 C 263.460938 360.570312 263.515625 360.609375 263.570312 360.644531 C 264.414062 361.277344 265.386719 361.125 266.226562 360.890625 C 266.839844 360.726562 267.457031 360.644531 268.183594 360.636719 C 269.488281 360.617188 270.792969 360.609375 272.097656 360.597656 C 272.78125 360.59375 273.46875 360.589844 274.152344 360.582031 L 274.378906 360.582031 C 274.589844 360.582031 274.8125 360.582031 275.019531 360.542969 C 275.101562 360.535156 275.222656 360.429688 275.265625 360.335938 C 275.464844 359.851562 275.253906 359.203125 274.824219 359 C 274.46875 358.839844 274.121094 358.671875 273.777344 358.503906 C 273.15625 358.207031 272.523438 357.898438 271.875 357.625 C 270.101562 356.882812 268.335938 355.992188 266.628906 354.980469 C 265.714844 354.4375 264.742188 353.960938 263.800781 353.496094 Z M 263.359375 353.28125 "/>
<path fill-rule="nonzero" fill="rgb(76.862745%, 52.941176%, 28.235294%)" fill-opacity="1" d="M 279.886719 391.296875 C 279.800781 391.050781 279.652344 390.804688 279.515625 390.570312 C 279.46875 390.496094 279.429688 390.425781 279.386719 390.351562 C 279.277344 390.164062 279.15625 389.980469 279.042969 389.789062 C 278.808594 389.429688 278.570312 389.046875 278.40625 388.644531 C 277.894531 387.363281 276.898438 386.449219 275.941406 385.566406 L 275.660156 385.308594 C 275.59375 385.25 275.5625 385.257812 275.542969 385.257812 C 275.460938 385.265625 275.371094 385.386719 275.3125 385.46875 L 275.296875 385.496094 C 275.214844 385.613281 275.148438 385.746094 275.085938 385.882812 C 275.03125 386.007812 274.96875 386.136719 274.890625 386.253906 C 274.449219 386.925781 274.46875 387.550781 274.945312 388.414062 C 275.757812 389.863281 276.359375 391.40625 276.796875 392.589844 C 277.023438 393.191406 277.269531 393.800781 277.503906 394.382812 C 277.859375 395.246094 278.21875 396.136719 278.511719 397.035156 C 278.707031 397.628906 278.910156 398 279.210938 398.316406 C 279.417969 398.539062 279.628906 398.75 279.847656 398.964844 C 280.144531 399.269531 280.453125 399.585938 280.746094 399.902344 C 280.851562 400.019531 280.75 400.3125 280.660156 400.425781 C 280.558594 400.539062 280.296875 400.652344 280.167969 400.585938 C 279.035156 399.996094 278.238281 398.976562 277.601562 398.15625 C 277.53125 398.074219 277.523438 397.96875 277.511719 397.867188 C 277.507812 397.808594 277.503906 397.753906 277.492188 397.707031 C 276.5625 394.992188 275.402344 392.183594 273.933594 389.113281 C 273.632812 388.488281 273.480469 387.875 273.449219 387.191406 C 273.417969 386.371094 273.785156 385.71875 274.140625 385.085938 L 274.238281 384.902344 C 274.394531 384.625 274.382812 384.433594 274.203125 384.226562 C 274.105469 384.109375 274.003906 384.003906 273.898438 383.917969 C 272.480469 382.65625 271.484375 381.332031 270.859375 379.882812 C 270.742188 379.605469 270.589844 379.363281 270.414062 379.179688 C 269.566406 378.28125 268.835938 377.167969 268.238281 375.878906 C 267.914062 375.167969 267.347656 374.886719 266.839844 374.703125 C 265.886719 374.359375 265.074219 374.179688 264.351562 374.148438 C 263.027344 374.09375 261.679688 374.101562 260.375 374.117188 C 259.78125 374.125 259.183594 374.132812 258.597656 374.125 C 258.320312 374.125 258.203125 374.257812 258.164062 374.597656 C 258.164062 374.632812 258.160156 374.667969 258.160156 374.699219 C 258.160156 374.738281 258.15625 374.78125 258.152344 374.824219 C 257.980469 376.046875 257.363281 376.640625 256.253906 376.722656 C 256.253906 376.738281 256.261719 376.75 256.265625 376.765625 C 256.324219 377.367188 256.449219 377.964844 256.632812 378.542969 C 256.675781 378.683594 256.726562 378.835938 256.765625 378.984375 C 256.800781 379.023438 256.84375 379.066406 256.878906 379.105469 C 257.03125 379.273438 257.191406 379.4375 257.269531 379.648438 C 257.351562 379.875 257.445312 380.097656 257.535156 380.320312 C 257.816406 381.015625 258.109375 381.738281 258.21875 382.507812 C 258.503906 382.765625 258.570312 383.105469 258.632812 383.433594 C 258.679688 383.679688 258.726562 383.910156 258.859375 384.105469 C 259.070312 384.417969 259.390625 384.484375 259.734375 384.546875 C 260.039062 384.601562 260.351562 384.664062 260.597656 384.894531 C 260.640625 384.9375 260.730469 384.96875 260.828125 384.945312 C 260.894531 384.9375 260.96875 384.90625 261.015625 384.808594 C 261.097656 384.625 261.191406 384.445312 261.28125 384.265625 C 261.542969 383.742188 261.816406 383.203125 261.957031 382.640625 C 262.046875 382.308594 262.21875 382.003906 262.390625 381.707031 C 262.667969 381.234375 262.925781 380.78125 262.792969 380.257812 C 262.652344 379.699219 262.363281 379.160156 262.082031 378.636719 C 261.957031 378.398438 261.824219 378.15625 261.710938 377.910156 C 261.660156 377.8125 261.664062 377.707031 261.714844 377.617188 C 261.785156 377.496094 261.941406 377.417969 262.136719 377.402344 C 262.394531 377.386719 262.78125 377.398438 262.996094 377.746094 C 263.105469 377.9375 263.203125 378.132812 263.292969 378.324219 C 263.359375 378.460938 263.421875 378.59375 263.496094 378.726562 C 264.09375 379.835938 264.101562 380.886719 263.523438 381.941406 C 263.296875 382.347656 263.148438 382.808594 263 383.25 C 262.808594 383.820312 262.609375 384.417969 262.246094 384.941406 C 262.136719 385.101562 262.132812 385.46875 262.230469 385.671875 C 262.421875 386.054688 262.765625 386.289062 263.203125 386.328125 C 263.550781 386.367188 263.808594 386.210938 264.003906 385.871094 C 264.203125 385.515625 264.363281 385.125 264.519531 384.753906 L 264.628906 384.492188 C 264.703125 384.316406 264.773438 384.128906 264.835938 383.949219 C 264.960938 383.582031 265.09375 383.207031 265.308594 382.886719 C 265.488281 382.628906 265.496094 382.34375 265.503906 382.046875 C 265.511719 381.765625 265.515625 381.476562 265.679688 381.210938 C 265.765625 381.070312 266.011719 381.027344 266.144531 381.03125 C 266.273438 381.046875 266.535156 381.160156 266.5625 381.320312 L 266.589844 381.476562 C 266.707031 382.1875 266.839844 382.996094 266.425781 383.546875 C 266.070312 384.019531 265.871094 384.570312 265.671875 385.101562 C 265.46875 385.636719 265.261719 386.191406 264.90625 386.671875 C 264.847656 386.757812 264.824219 386.855469 264.847656 386.953125 C 264.875 387.085938 264.972656 387.203125 265.113281 387.273438 C 265.6875 387.578125 266.246094 387.925781 266.789062 388.265625 C 267.511719 388.726562 268.265625 389.195312 269.066406 389.558594 C 270.109375 390.023438 270.910156 390.742188 271.511719 391.746094 C 271.871094 392.347656 272.289062 392.925781 272.691406 393.480469 C 273.175781 394.144531 273.675781 394.828125 274.074219 395.558594 C 274.558594 396.433594 275.191406 397.214844 275.800781 397.972656 C 276.175781 398.4375 276.5625 398.914062 276.917969 399.414062 C 277.390625 400.085938 278.125 401.042969 279.042969 401.585938 C 279.753906 402.003906 280.503906 402.398438 281.226562 402.785156 C 282.144531 403.269531 283.097656 403.773438 283.996094 404.335938 C 284.355469 404.5625 284.761719 404.511719 285.21875 404.429688 C 285.292969 404.414062 285.332031 404.382812 285.34375 404.355469 C 285.347656 404.339844 285.335938 404.324219 285.320312 404.304688 C 284.636719 403.660156 284.335938 402.8125 284.050781 401.996094 C 283.957031 401.71875 283.859375 401.4375 283.75 401.175781 C 283.253906 399.976562 282.726562 398.671875 282.269531 397.335938 C 282.167969 397.035156 282.078125 396.730469 281.984375 396.429688 C 281.769531 395.714844 281.542969 394.96875 281.175781 394.300781 C 280.613281 393.257812 280.191406 392.144531 279.886719 391.296875 "/>
<path fill-rule="nonzero" fill="rgb(25.098039%, 30.980392%, 34.901961%)" fill-opacity="1" d="M 258.992188 369.183594 L 256.648438 369.183594 C 255.953125 369.199219 255.925781 369.226562 255.9375 370.03125 C 255.9375 370.128906 255.941406 370.230469 255.949219 370.332031 C 255.953125 370.523438 255.960938 370.726562 255.953125 370.925781 C 255.925781 371.34375 256.078125 371.6875 256.433594 372.007812 C 256.539062 372.101562 256.640625 372.195312 256.742188 372.292969 C 256.902344 372.449219 257.066406 372.609375 257.246094 372.746094 C 257.445312 372.902344 257.628906 372.992188 257.765625 372.992188 C 259.105469 373 260.554688 372.992188 262.191406 372.964844 C 262.242188 372.964844 262.386719 372.835938 262.390625 372.78125 C 262.398438 371.800781 262.402344 370.640625 262.351562 369.46875 C 262.339844 369.40625 262.09375 369.226562 261.957031 369.222656 C 261.246094 369.199219 260.515625 369.203125 259.816406 369.207031 L 258.992188 369.207031 Z M 260.097656 370.875 C 260.253906 370.902344 260.335938 371.199219 260.328125 371.324219 C 260.320312 371.460938 260.21875 371.734375 260.0625 371.753906 C 258.988281 371.949219 257.914062 371.878906 257.011719 371.789062 C 256.878906 371.773438 256.796875 371.613281 256.707031 371.425781 C 256.636719 371.265625 256.695312 371.082031 256.765625 370.96875 C 256.847656 370.847656 256.949219 370.773438 257.054688 370.773438 C 257.421875 370.769531 257.789062 370.769531 258.160156 370.769531 L 258.492188 370.769531 L 258.496094 370.679688 L 258.597656 370.695312 C 258.722656 370.707031 258.847656 370.722656 258.972656 370.738281 C 259.34375 370.773438 259.726562 370.816406 260.097656 370.875 "/>
<g clip-path="url(#clip-0)">
<path fill-rule="nonzero" fill="rgb(25.098039%, 30.980392%, 34.901961%)" fill-opacity="1" d="M 260.203125 391.464844 C 260.203125 391.375 260.203125 391.292969 260.175781 391.222656 C 259.988281 390.675781 259.808594 390.128906 259.628906 389.585938 C 259.183594 388.238281 258.726562 386.84375 258.164062 385.519531 C 257.808594 384.675781 257.507812 383.789062 257.222656 382.9375 C 256.949219 382.109375 256.664062 381.25 256.320312 380.433594 C 256.199219 380.148438 256.214844 379.8125 256.230469 379.492188 C 256.097656 379.257812 256.121094 379.019531 256.042969 378.765625 C 255.964844 378.527344 255.824219 378.34375 255.664062 378.136719 C 255.566406 378.019531 255.476562 377.894531 255.382812 377.769531 C 255.261719 377.609375 255.140625 377.449219 255.070312 377.261719 C 255.011719 377.101562 255.011719 376.917969 255.066406 376.753906 C 254.671875 376.753906 254.277344 376.765625 253.894531 376.761719 C 253.507812 376.761719 253.128906 376.765625 252.742188 376.761719 L 252.503906 376.761719 C 252.289062 376.753906 252.078125 376.75 251.878906 376.789062 C 251.492188 376.855469 251.265625 377.171875 251.140625 377.425781 C 251.003906 377.703125 251.253906 377.9375 251.414062 378.046875 C 252.675781 378.910156 253.335938 380.199219 253.972656 381.453125 C 254.285156 382.054688 254.605469 382.683594 254.988281 383.25 C 255.074219 383.375 254.914062 383.660156 254.804688 383.738281 C 254.683594 383.828125 254.421875 383.886719 254.285156 383.800781 C 253.425781 383.269531 253 382.375 252.722656 381.648438 C 252.289062 380.515625 251.539062 379.585938 250.300781 378.644531 C 250.253906 378.679688 250.207031 378.710938 250.167969 378.742188 C 250.070312 378.8125 250 378.863281 249.957031 378.925781 C 249.476562 379.578125 248.847656 379.878906 247.9375 379.878906 L 247.757812 379.878906 C 246.792969 379.835938 245.804688 379.851562 244.855469 379.859375 C 244.417969 379.867188 243.988281 379.875 243.550781 379.875 C 243.253906 379.875 243.105469 380.015625 243.105469 380.304688 C 243.085938 382.003906 243.082031 383.703125 243.078125 385.402344 C 243.078125 385.953125 243.074219 386.503906 243.070312 387.058594 C 243.058594 388.546875 243.050781 390.089844 243.085938 391.601562 C 243.105469 392.183594 242.957031 392.71875 242.816406 393.238281 C 242.738281 393.542969 242.652344 393.855469 242.605469 394.167969 C 242.582031 394.3125 242.292969 394.394531 242.160156 394.394531 L 242.144531 394.394531 C 242.015625 394.386719 241.75 394.289062 241.710938 394.132812 C 241.648438 393.882812 241.621094 393.59375 241.617188 393.242188 C 241.613281 391.050781 241.609375 388.851562 241.609375 386.65625 C 241.609375 385.085938 241.605469 383.515625 241.605469 381.949219 C 241.597656 381.378906 241.597656 380.773438 241.566406 380.179688 C 241.558594 380.003906 241.429688 379.886719 241.226562 379.882812 C 240.929688 379.867188 240.636719 379.863281 240.347656 379.863281 L 239.34375 379.859375 C 238.367188 379.851562 237.351562 379.847656 236.355469 379.855469 L 236.332031 379.855469 C 235.84375 379.855469 235.457031 379.683594 235.117188 379.324219 C 234.945312 379.140625 234.761719 378.96875 234.570312 378.785156 C 234.5 378.726562 234.433594 378.660156 234.359375 378.59375 C 234.210938 378.730469 234.066406 378.863281 233.917969 378.992188 C 233.523438 379.34375 233.148438 379.675781 232.84375 380.070312 C 232.652344 380.308594 232.523438 380.609375 232.394531 380.894531 C 232.25 381.195312 232.109375 381.511719 231.898438 381.773438 C 231.710938 382.007812 231.5625 382.28125 231.421875 382.542969 C 231.175781 382.980469 230.933594 383.4375 230.484375 383.742188 C 230.351562 383.832031 230.164062 383.816406 230.011719 383.804688 C 229.910156 383.800781 229.824219 383.726562 229.75 383.609375 C 229.671875 383.476562 229.617188 383.269531 229.675781 383.132812 C 229.695312 383.097656 229.710938 383.058594 229.730469 383.023438 C 229.746094 382.996094 229.757812 382.96875 229.773438 382.9375 C 229.933594 382.601562 230.140625 382.285156 230.339844 381.980469 C 230.703125 381.433594 231.042969 380.921875 231.144531 380.273438 L 231.148438 380.246094 L 231.167969 380.222656 C 231.34375 380.039062 231.488281 379.816406 231.632812 379.601562 C 231.929688 379.160156 232.238281 378.707031 232.796875 378.46875 C 232.945312 378.402344 233.0625 378.269531 233.191406 378.128906 C 233.269531 378.050781 233.34375 377.96875 233.425781 377.894531 C 233.515625 377.820312 233.53125 377.773438 233.53125 377.753906 C 233.53125 377.742188 233.535156 377.714844 233.496094 377.675781 C 233.441406 377.605469 233.378906 377.539062 233.324219 377.472656 C 233.011719 377.105469 232.722656 376.753906 232.1875 376.753906 L 232.171875 376.753906 C 231.273438 376.765625 230.359375 376.761719 229.445312 376.75 C 229.503906 376.910156 229.5 377.09375 229.441406 377.261719 C 229.371094 377.449219 229.253906 377.609375 229.128906 377.769531 C 229.039062 377.894531 228.941406 378.019531 228.847656 378.136719 C 228.6875 378.34375 228.546875 378.527344 228.46875 378.765625 C 228.441406 378.871094 228.429688 378.972656 228.417969 379.074219 C 228.425781 379.097656 228.464844 379.117188 228.464844 379.140625 L 228.457031 379.308594 C 228.457031 379.695312 228.453125 380.09375 228.34375 380.460938 C 228.148438 381.113281 227.894531 381.75 227.644531 382.371094 L 227.511719 382.707031 C 227.378906 383.035156 227.234375 383.367188 227.085938 383.6875 C 226.792969 384.339844 226.488281 385.015625 226.328125 385.710938 C 226.03125 386.972656 225.667969 388.046875 225.210938 389.003906 C 224.941406 389.574219 224.792969 390.195312 224.65625 390.792969 C 224.539062 391.296875 224.414062 391.820312 224.214844 392.3125 C 224.199219 392.363281 224.304688 392.574219 224.460938 392.71875 C 224.757812 393.015625 224.976562 393.007812 225.273438 392.714844 C 226.464844 391.515625 227.667969 390.296875 228.855469 389.089844 C 229.027344 388.910156 229.207031 388.730469 229.386719 388.554688 C 230.078125 387.871094 230.796875 387.164062 231.285156 386.296875 C 231.347656 386.1875 231.4375 386.105469 231.527344 386.027344 C 231.554688 386 231.582031 385.976562 231.605469 385.953125 C 231.65625 385.902344 231.710938 385.855469 231.761719 385.808594 C 231.816406 385.757812 231.875 385.710938 231.929688 385.648438 C 232.121094 385.457031 232.378906 385.414062 232.636719 385.53125 C 232.757812 385.585938 232.839844 385.671875 232.878906 385.789062 C 232.925781 385.925781 232.914062 386.089844 232.839844 386.234375 C 232.429688 387.039062 231.949219 387.683594 231.363281 388.179688 C 230.863281 388.605469 230.640625 389.039062 230.613281 389.617188 C 230.597656 389.847656 230.511719 390.070312 230.414062 390.308594 C 230.339844 390.488281 230.269531 390.671875 230.226562 390.859375 C 230.144531 391.253906 230.074219 391.65625 230 392.050781 C 229.894531 392.636719 229.785156 393.25 229.644531 393.839844 C 229.5 394.441406 229.339844 395.046875 229.183594 395.640625 C 228.917969 396.621094 228.648438 397.636719 228.464844 398.65625 L 228.445312 398.699219 C 228.128906 399.148438 228.101562 399.664062 228.0625 400.199219 C 228.039062 400.609375 228.011719 401.03125 227.851562 401.421875 C 227.535156 402.191406 227.566406 403.003906 227.601562 403.789062 C 227.601562 403.929688 227.609375 404.066406 227.613281 404.203125 C 227.613281 404.273438 227.652344 404.324219 227.683594 404.355469 C 227.75 404.417969 227.863281 404.460938 227.976562 404.460938 L 227.992188 404.460938 L 228.039062 404.457031 C 228.386719 404.453125 228.632812 404.441406 228.78125 404.0625 C 228.949219 403.625 229.171875 403.199219 229.390625 402.785156 C 229.472656 402.621094 229.5625 402.453125 229.644531 402.292969 C 229.882812 401.820312 230.117188 401.34375 230.351562 400.871094 C 231.257812 399.023438 232.195312 397.125 233.335938 395.363281 L 233.453125 395.179688 C 233.808594 394.644531 234.171875 394.082031 234.464844 393.511719 C 234.839844 392.78125 235.097656 392.128906 235.253906 391.523438 C 235.328125 391.234375 235.496094 390.976562 235.65625 390.730469 C 235.925781 390.328125 236.171875 389.945312 236.011719 389.441406 C 235.851562 388.945312 235.859375 388.441406 235.875 387.953125 C 235.878906 387.71875 235.886719 387.472656 235.871094 387.234375 C 235.871094 387.207031 235.863281 387.171875 235.863281 387.140625 C 235.847656 387 235.828125 386.84375 235.910156 386.734375 C 236.226562 386.304688 236.226562 385.828125 236.226562 385.320312 C 236.230469 385.023438 236.230469 384.71875 236.300781 384.421875 C 236.320312 384.34375 236.398438 384.238281 236.457031 384.203125 L 236.492188 384.179688 L 236.570312 384.1875 C 236.703125 384.226562 236.875 384.261719 236.960938 384.382812 C 237.441406 385.039062 237.507812 385.84375 237.15625 386.761719 C 236.953125 387.292969 236.78125 387.898438 237.054688 388.367188 C 237.292969 388.777344 237.296875 389.203125 237.304688 389.621094 C 237.316406 390.011719 237.320312 390.382812 237.511719 390.714844 C 237.820312 391.242188 237.8125 391.800781 237.796875 392.34375 C 237.789062 392.601562 237.785156 392.871094 237.816406 393.128906 C 237.828125 393.253906 237.820312 393.382812 237.8125 393.503906 C 237.792969 393.6875 237.78125 393.859375 237.847656 393.964844 C 238.203125 394.535156 238.226562 395.175781 238.246094 395.792969 C 238.273438 396.425781 238.292969 397.023438 238.640625 397.550781 L 238.664062 397.582031 L 238.660156 397.625 C 238.574219 398.136719 238.71875 398.617188 238.875 399.121094 C 239 399.523438 239.128906 399.945312 239.125 400.390625 C 239.121094 400.800781 239.238281 401.191406 239.367188 401.601562 C 239.519531 402.089844 239.679688 402.601562 239.601562 403.148438 C 239.902344 403.578125 239.929688 404.074219 239.949219 404.550781 C 239.972656 404.953125 239.992188 405.324219 240.167969 405.644531 C 240.347656 405.976562 240.367188 406.316406 240.402344 406.640625 C 240.425781 406.960938 240.453125 407.269531 240.617188 407.535156 C 240.890625 407.976562 240.890625 408.441406 240.890625 408.890625 C 240.890625 409.097656 240.890625 409.308594 240.917969 409.515625 C 240.96875 409.886719 241.703125 412.089844 241.898438 412.296875 C 242 412.402344 242.242188 412.457031 242.40625 412.4375 C 242.597656 412.417969 242.839844 412.289062 242.859375 412.230469 C 242.941406 411.671875 243.136719 411.140625 243.332031 410.621094 C 243.605469 409.871094 243.890625 409.09375 243.828125 408.257812 C 243.796875 407.914062 243.867188 407.558594 244.042969 407.152344 C 244.175781 406.835938 244.234375 406.496094 244.300781 406.136719 C 244.371094 405.71875 244.449219 405.28125 244.660156 404.882812 C 244.589844 404.367188 244.738281 403.890625 244.886719 403.4375 C 245.007812 403.066406 245.117188 402.710938 245.121094 402.339844 C 245.125 401.84375 245.261719 401.371094 245.398438 400.910156 C 245.566406 400.3125 245.730469 399.746094 245.625 399.132812 L 245.621094 399.089844 L 245.648438 399.054688 C 245.964844 398.667969 245.988281 398.210938 246.007812 397.734375 C 246.015625 397.5625 246.027344 397.378906 246.046875 397.207031 C 246.097656 396.839844 246.175781 396.472656 246.253906 396.117188 C 246.332031 395.777344 246.40625 395.429688 246.457031 395.082031 C 246.476562 394.933594 246.492188 394.785156 246.511719 394.640625 C 246.570312 394.152344 246.632812 393.648438 246.8125 393.136719 C 246.925781 392.832031 246.90625 392.472656 246.890625 392.089844 C 246.871094 391.707031 246.847656 391.304688 246.980469 390.957031 C 247.421875 389.789062 247.394531 388.582031 247.371094 387.414062 C 247.363281 386.945312 247.351562 386.457031 247.371094 385.980469 C 247.378906 385.773438 247.375 385.558594 247.375 385.355469 C 247.371094 385.195312 247.371094 385.03125 247.375 384.875 L 247.375 384.824219 C 247.375 384.679688 247.375 384.519531 247.453125 384.394531 C 247.527344 384.28125 247.667969 384.21875 247.796875 384.167969 L 247.839844 384.148438 C 247.949219 384.097656 248.058594 384.097656 248.15625 384.144531 C 248.242188 384.183594 248.304688 384.261719 248.335938 384.363281 C 248.414062 384.617188 248.445312 384.832031 248.449219 385.03125 C 248.46875 385.964844 248.46875 386.890625 248.46875 387.914062 C 248.46875 388.492188 248.46875 389.09375 248.449219 389.683594 C 248.4375 390.042969 248.648438 390.277344 248.867188 390.53125 C 249.03125 390.714844 249.203125 390.902344 249.28125 391.148438 C 249.304688 391.226562 249.308594 391.304688 249.3125 391.382812 C 249.3125 391.457031 249.316406 391.527344 249.339844 391.578125 C 249.484375 391.878906 249.617188 392.191406 249.746094 392.496094 C 250.066406 393.242188 250.398438 394.023438 250.859375 394.683594 C 251.308594 395.332031 251.671875 396.035156 252.027344 396.714844 C 252.234375 397.113281 252.445312 397.527344 252.675781 397.925781 L 252.8125 398.160156 C 253.414062 399.199219 254.03125 400.269531 254.578125 401.355469 L 254.640625 401.46875 C 254.847656 401.875 255.0625 402.296875 255.136719 402.808594 C 255.191406 403.175781 255.429688 403.539062 255.660156 403.882812 C 255.707031 403.960938 255.757812 404.039062 255.808594 404.113281 C 255.90625 404.273438 256.125 404.382812 256.289062 404.457031 C 256.464844 404.539062 256.675781 404.523438 256.847656 404.417969 C 257.003906 404.324219 257.105469 404.167969 257.113281 403.992188 C 257.140625 403.382812 257.023438 402.777344 256.902344 402.1875 C 256.839844 401.871094 256.769531 401.546875 256.734375 401.21875 C 256.667969 400.722656 256.539062 400.226562 256.414062 399.75 C 256.273438 399.203125 256.125 398.636719 256.078125 398.058594 C 255.84375 397.773438 255.832031 397.421875 255.824219 397.113281 C 255.816406 396.847656 255.808594 396.59375 255.671875 396.40625 C 255.429688 396.070312 255.398438 395.703125 255.375 395.351562 C 255.351562 395.046875 255.328125 394.761719 255.171875 394.519531 C 254.941406 394.167969 254.929688 393.789062 254.914062 393.425781 C 254.90625 393.203125 254.894531 392.988281 254.839844 392.785156 C 254.707031 392.324219 254.625 391.855469 254.546875 391.402344 C 254.492188 391.089844 254.4375 390.757812 254.363281 390.441406 C 254.339844 390.351562 254.324219 390.257812 254.300781 390.167969 C 254.128906 389.375 253.949219 388.550781 253.1875 388.023438 C 252.765625 387.730469 252.433594 387.3125 252.113281 386.90625 L 251.957031 386.71875 C 251.847656 386.582031 251.824219 386.394531 251.800781 386.203125 C 251.796875 386.15625 251.792969 386.105469 251.785156 386.058594 C 251.753906 385.894531 251.800781 385.742188 251.90625 385.644531 C 251.996094 385.5625 252.121094 385.53125 252.242188 385.566406 C 252.769531 385.699219 253.054688 386.082031 253.324219 386.453125 C 253.4375 386.601562 253.550781 386.757812 253.679688 386.890625 C 255.488281 388.765625 257.285156 390.582031 258.953125 392.265625 C 259.015625 392.324219 259.074219 392.390625 259.128906 392.457031 C 259.351562 392.707031 259.550781 392.949219 259.9375 392.898438 C 260.144531 392.875 260.3125 392.46875 260.214844 391.640625 C 260.203125 391.585938 260.203125 391.527344 260.203125 391.464844 "/>
</g>
<path fill-rule="nonzero" fill="rgb(25.098039%, 30.980392%, 34.901961%)" fill-opacity="1" d="M 209.609375 360.515625 C 209.78125 360.59375 210.007812 360.585938 210.226562 360.582031 L 210.433594 360.582031 C 211.328125 360.589844 212.222656 360.59375 213.113281 360.601562 C 214.359375 360.609375 215.597656 360.617188 216.832031 360.636719 L 216.859375 360.636719 C 217.371094 360.640625 217.847656 360.648438 218.367188 360.855469 C 218.792969 361.019531 219.304688 361.019531 219.804688 361.015625 L 220.066406 361.015625 C 220.871094 361.015625 221.644531 360.261719 221.667969 359.460938 C 221.6875 358.792969 221.683594 358.121094 221.675781 357.460938 C 221.671875 357.171875 221.671875 356.882812 221.671875 356.59375 L 221.671875 356.5 L 221.691406 356.5 L 221.691406 354.390625 C 221.691406 354.171875 221.691406 353.949219 221.683594 353.730469 C 221.671875 353.523438 221.609375 353.375 221.503906 353.3125 C 221.378906 353.238281 221.21875 353.289062 221.109375 353.34375 C 217.285156 355.242188 213.457031 357.140625 209.632812 359.042969 C 209.542969 359.089844 209.464844 359.160156 209.378906 359.238281 L 209.3125 359.300781 C 209.132812 359.460938 208.945312 359.703125 209.066406 359.957031 C 209.179688 360.195312 209.398438 360.417969 209.609375 360.515625 "/>
<path fill-rule="nonzero" fill="rgb(76.862745%, 52.941176%, 28.235294%)" fill-opacity="1" d="M 228.230469 359.695312 C 228.535156 359.695312 228.84375 359.699219 229.152344 359.703125 C 229.527344 359.707031 229.902344 359.707031 230.277344 359.707031 C 230.644531 359.703125 231.003906 359.8125 231.332031 359.914062 C 231.480469 359.960938 231.628906 360.007812 231.769531 360.042969 C 232.535156 360.226562 233.289062 360.488281 234.015625 360.742188 C 234.894531 361.042969 235.804688 361.359375 236.738281 361.542969 C 238.085938 361.800781 238.925781 362.484375 239.238281 363.574219 C 239.316406 363.839844 239.460938 364.097656 239.601562 364.335938 C 239.667969 364.445312 239.78125 364.546875 239.851562 364.550781 C 240.011719 364.566406 240.164062 364.578125 240.320312 364.59375 C 241.027344 364.652344 241.753906 364.710938 242.445312 365.015625 C 242.503906 365.046875 242.667969 364.996094 242.757812 364.929688 C 243.183594 364.59375 243.660156 364.605469 244.117188 364.621094 C 244.1875 364.621094 244.257812 364.621094 244.332031 364.625 C 244.859375 364.625 245.070312 364.421875 245.191406 363.816406 C 245.378906 362.878906 246.011719 362.195312 246.929688 361.933594 C 247.15625 361.871094 247.363281 361.777344 247.582031 361.675781 C 247.757812 361.59375 247.941406 361.511719 248.132812 361.449219 C 248.855469 361.203125 249.601562 361.003906 250.324219 360.804688 C 251.105469 360.59375 251.917969 360.375 252.691406 360.101562 C 253.347656 359.875 254.066406 359.65625 254.855469 359.703125 C 255.347656 359.730469 255.851562 359.707031 256.339844 359.695312 L 256.394531 359.691406 C 256.585938 359.683594 256.796875 359.648438 257.011719 359.589844 C 257.292969 359.515625 257.535156 359.050781 257.535156 358.597656 C 257.535156 358.292969 257.429688 358.15625 257.140625 358.078125 C 256.328125 357.859375 255.769531 357.394531 255.46875 356.699219 C 255.4375 356.628906 255.347656 356.5625 255.25 356.503906 C 255.226562 356.480469 255.199219 356.464844 255.175781 356.449219 C 255.046875 356.355469 254.839844 356.328125 254.625 356.378906 C 254.421875 356.429688 254.261719 356.539062 254.199219 356.671875 C 254.046875 356.988281 253.910156 357.304688 253.761719 357.667969 C 253.515625 358.246094 253.09375 358.546875 252.496094 358.554688 C 252.132812 358.566406 251.761719 358.546875 251.398438 358.585938 C 250.722656 358.65625 250.390625 358.253906 250.074219 357.785156 C 249.875 357.480469 249.648438 357.304688 249.417969 357.273438 C 249.226562 357.238281 249.027344 357.300781 248.832031 357.453125 C 248.425781 357.761719 248.0625 358.082031 248.027344 358.613281 C 247.96875 359.4375 247.492188 359.882812 246.640625 359.902344 C 246.25 359.90625 245.78125 359.917969 245.308594 359.90625 C 244.851562 359.894531 244.746094 359.511719 244.675781 359.257812 C 244.652344 359.175781 244.617188 359.125 244.578125 359.117188 C 244.539062 359.109375 244.464844 359.144531 244.394531 359.214844 C 244.214844 359.40625 244.097656 359.632812 244.019531 359.933594 C 243.742188 361.007812 243.523438 361.183594 242.449219 361.191406 C 242.347656 361.191406 242.25 361.1875 242.15625 361.191406 C 241.796875 361.191406 241.445312 361.203125 241.121094 360.925781 C 240.644531 360.507812 240.21875 360.070312 240.273438 359.367188 C 240.277344 359.328125 240.257812 359.265625 240.230469 359.210938 C 240.21875 359.183594 240.195312 359.15625 240.171875 359.128906 C 240.164062 359.132812 240.152344 359.136719 240.144531 359.148438 C 240.097656 359.179688 240.023438 359.230469 240.019531 359.257812 C 239.960938 359.523438 239.824219 359.875 239.367188 359.902344 C 238.953125 359.917969 238.59375 359.921875 238.257812 359.910156 C 237.179688 359.863281 236.671875 359.449219 236.308594 358.332031 C 236.296875 358.28125 236.296875 358.234375 236.296875 358.1875 C 236.296875 358.160156 236.296875 358.128906 236.292969 358.109375 C 236.121094 357.5625 235.851562 357.339844 235.296875 357.269531 C 234.855469 357.21875 234.488281 357.429688 234.351562 357.839844 C 234.179688 358.359375 233.886719 358.585938 233.382812 358.585938 L 233.304688 358.585938 L 233.132812 358.574219 C 232.898438 358.566406 232.660156 358.550781 232.425781 358.574219 C 232.375 358.578125 232.328125 358.578125 232.285156 358.578125 C 231.648438 358.578125 231.246094 358.191406 230.851562 357.761719 C 230.625 357.519531 230.574219 357.238281 230.535156 356.964844 C 230.515625 356.875 230.503906 356.789062 230.484375 356.699219 C 230.453125 356.578125 230.320312 356.457031 230.136719 356.386719 C 229.917969 356.316406 229.683594 356.328125 229.550781 356.429688 L 229.5 356.464844 C 229.289062 356.621094 229.050781 356.800781 228.988281 357.003906 C 228.859375 357.402344 228.613281 357.636719 228.183594 357.78125 C 227.929688 357.863281 227.664062 357.976562 227.394531 358.113281 C 227.226562 358.199219 227.148438 358.339844 227.144531 358.558594 C 227.136719 359.117188 227.15625 359.398438 227.292969 359.542969 C 227.402344 359.652344 227.609375 359.695312 228.03125 359.695312 Z M 228.230469 359.695312 "/>
<path fill-rule="nonzero" fill="rgb(61.960784%, 21.176471%, 13.72549%)" fill-opacity="1" d="M 247.460938 341.320312 C 246.847656 341.738281 246.148438 341.871094 245.335938 341.730469 C 244.773438 341.636719 244.683594 341.324219 244.707031 341.085938 C 244.75 340.707031 244.628906 340.378906 244.503906 340.027344 C 244.414062 339.765625 244.316406 339.496094 244.292969 339.210938 C 244.257812 338.777344 244.253906 338.335938 244.25 337.90625 C 244.25 337.679688 244.25 337.449219 244.242188 337.222656 C 244.238281 337.109375 244.210938 337.03125 244.175781 337.011719 C 244.15625 337.003906 244.089844 336.984375 243.890625 337.128906 C 243.398438 337.472656 242.902344 337.644531 242.394531 337.644531 C 241.867188 337.644531 241.324219 337.457031 240.757812 337.085938 C 240.707031 337.054688 240.644531 337.03125 240.550781 337 C 240.535156 336.988281 240.515625 336.984375 240.496094 336.976562 C 240.503906 337.691406 240.363281 338.375 240.226562 339.042969 C 240.085938 339.730469 239.9375 340.441406 239.96875 341.164062 C 239.972656 341.320312 239.839844 341.542969 239.699219 341.605469 L 239.5625 341.660156 C 239.203125 341.808594 238.832031 341.972656 238.445312 342 C 238.234375 342.011719 237.996094 341.824219 237.796875 341.65625 C 237.757812 341.621094 237.71875 341.585938 237.683594 341.558594 L 237.65625 341.539062 C 237.410156 341.332031 237.25 341.222656 237.058594 341.375 C 237.011719 341.414062 236.929688 341.535156 236.902344 341.894531 C 236.882812 342.148438 236.882812 342.417969 236.882812 342.671875 C 236.886719 342.851562 236.886719 343.03125 236.882812 343.210938 C 236.875 343.515625 236.988281 343.738281 237.214844 343.855469 C 237.90625 344.203125 238.375 344.789062 238.6875 345.707031 C 238.75 345.886719 238.832031 346.066406 238.910156 346.238281 C 238.976562 346.386719 239.050781 346.539062 239.109375 346.695312 C 239.5625 347.898438 239.90625 348.160156 241.058594 348.164062 L 242.085938 348.164062 C 242.761719 348.164062 243.457031 348.160156 244.148438 348.175781 L 244.167969 348.175781 C 244.570312 348.175781 244.886719 347.964844 245.105469 347.550781 C 245.535156 346.746094 246.027344 345.796875 246.421875 344.828125 C 246.660156 344.253906 246.996094 343.914062 247.507812 343.734375 C 247.714844 343.660156 247.808594 343.535156 247.796875 343.347656 C 247.785156 343.128906 247.769531 342.914062 247.757812 342.691406 C 247.734375 342.273438 247.710938 341.839844 247.667969 341.414062 C 247.632812 341.378906 247.511719 341.324219 247.460938 341.320312 "/>
<path fill-rule="nonzero" fill="rgb(76.862745%, 52.941176%, 28.235294%)" fill-opacity="1" d="M 232.03125 343.339844 L 232.03125 343.753906 C 232.035156 343.902344 232.066406 344.011719 232.117188 344.039062 C 232.171875 344.066406 232.285156 344.023438 232.417969 343.9375 C 232.710938 343.734375 233.019531 343.761719 233.335938 344.023438 C 233.5 344.15625 233.660156 344.300781 233.816406 344.441406 C 234.042969 344.640625 234.273438 344.839844 234.511719 345.019531 C 234.644531 345.121094 234.90625 345.101562 235.125 344.972656 C 235.285156 344.886719 235.378906 344.761719 235.367188 344.65625 C 235.300781 344.011719 235.4375 343.390625 235.574219 342.792969 C 235.691406 342.273438 235.8125 341.738281 235.785156 341.199219 C 235.757812 340.542969 236.140625 340.324219 236.542969 340.09375 L 236.675781 340.015625 C 237.167969 339.722656 237.566406 339.773438 237.964844 340.175781 C 238.003906 340.21875 238.042969 340.253906 238.082031 340.289062 C 238.152344 340.359375 238.21875 340.425781 238.28125 340.492188 C 238.4375 340.667969 238.628906 340.625 238.757812 340.558594 C 238.816406 340.53125 238.886719 340.386719 238.894531 340.273438 C 238.9375 339.933594 238.949219 339.582031 238.96875 339.25 C 239 338.507812 239.03125 337.75 239.304688 337 C 239.4375 336.621094 239.417969 336.195312 239.394531 335.734375 C 239.386719 335.511719 239.378906 335.277344 239.386719 335.050781 C 239.40625 334.632812 239.890625 334.117188 240.3125 334.066406 C 240.328125 334.066406 240.339844 334.058594 240.355469 334.058594 C 240.660156 334.058594 241.160156 334.425781 241.265625 334.746094 C 241.300781 334.859375 241.316406 334.976562 241.328125 335.09375 C 241.335938 335.199219 241.347656 335.296875 241.378906 335.386719 C 241.433594 335.570312 241.53125 335.757812 241.65625 335.941406 C 241.800781 336.160156 242.074219 336.277344 242.363281 336.25 C 242.625 336.230469 242.839844 336.097656 242.929688 335.898438 C 243.007812 335.734375 243.082031 335.566406 243.15625 335.394531 C 243.285156 335.101562 243.417969 334.800781 243.578125 334.515625 C 243.6875 334.3125 243.964844 334.164062 244.160156 334.128906 C 244.34375 334.109375 244.578125 334.261719 244.75 334.40625 C 245.011719 334.621094 245.300781 334.957031 245.304688 335.175781 C 245.308594 335.410156 245.324219 335.640625 245.335938 335.875 C 245.371094 336.449219 245.402344 337.042969 245.339844 337.625 C 245.292969 338.078125 245.417969 338.484375 245.558594 338.917969 C 245.6875 339.320312 245.816406 339.734375 245.792969 340.191406 C 245.777344 340.394531 245.824219 340.539062 245.914062 340.589844 C 246.035156 340.648438 246.25 340.578125 246.5 340.394531 C 246.535156 340.363281 246.566406 340.328125 246.601562 340.296875 L 246.640625 340.25 C 247.109375 339.757812 247.558594 339.703125 248.121094 340.074219 C 248.167969 340.105469 248.226562 340.140625 248.28125 340.175781 C 248.605469 340.375 248.910156 340.566406 248.886719 341.097656 C 248.871094 341.488281 248.886719 341.882812 248.894531 342.269531 C 248.90625 342.609375 248.914062 342.964844 248.90625 343.3125 C 248.894531 343.710938 248.992188 344.070312 249.230469 344.511719 C 249.402344 344.828125 249.511719 344.988281 249.628906 345.015625 C 249.757812 345.042969 249.9375 344.941406 250.222656 344.75 C 250.488281 344.570312 250.757812 344.394531 251.027344 344.226562 C 251.1875 344.125 251.347656 344.023438 251.503906 343.921875 C 251.925781 343.648438 252.300781 343.925781 252.425781 344.019531 C 252.53125 344.097656 252.5625 344.09375 252.5625 344.09375 C 252.5625 344.09375 252.585938 344.078125 252.601562 344 C 252.863281 342.695312 252.578125 341.878906 251.707031 341.433594 C 250.464844 340.800781 249.753906 339.800781 249.460938 338.296875 C 249.429688 338.128906 249.363281 337.960938 249.292969 337.792969 C 249.230469 337.625 249.160156 337.453125 249.125 337.273438 C 249.078125 337.050781 248.992188 336.929688 248.816406 336.84375 C 248.730469 336.804688 248.648438 336.753906 248.558594 336.710938 C 248.386719 336.613281 248.214844 336.527344 248.042969 336.476562 C 247.425781 336.308594 247.085938 335.9375 246.875 335.195312 C 246.765625 334.808594 246.585938 334.433594 246.40625 334.070312 C 246.269531 333.789062 246.132812 333.503906 246.019531 333.207031 C 245.9375 332.980469 245.769531 332.917969 245.574219 332.839844 C 245.441406 332.789062 245.300781 332.734375 245.191406 332.621094 C 245.085938 332.515625 244.992188 332.550781 244.824219 332.628906 C 244.660156 332.695312 244.4375 332.796875 244.222656 332.59375 C 244.125 332.503906 243.835938 332.460938 243.738281 332.523438 C 243.367188 332.75 242.953125 332.847656 242.417969 332.820312 C 242.316406 332.816406 242.214844 332.820312 242.113281 332.824219 L 241.925781 332.824219 C 241.632812 332.824219 241.34375 332.792969 241.085938 332.558594 C 240.914062 332.402344 240.769531 332.460938 240.546875 332.582031 C 240.363281 332.679688 240.136719 332.796875 239.902344 332.636719 C 239.699219 332.5 239.511719 332.445312 239.339844 332.488281 C 239.132812 332.535156 238.941406 332.714844 238.769531 333.011719 C 238.320312 333.796875 237.964844 334.636719 237.664062 335.367188 C 237.382812 336.054688 236.902344 336.503906 236.230469 336.699219 C 235.785156 336.832031 235.566406 337.0625 235.460938 337.5 C 235.425781 337.644531 235.363281 337.777344 235.304688 337.914062 C 235.242188 338.046875 235.183594 338.175781 235.152344 338.308594 C 234.9375 339.269531 234.449219 340.070312 233.671875 340.75 C 233.535156 340.863281 233.410156 340.988281 233.28125 341.113281 C 233.089844 341.296875 232.898438 341.488281 232.6875 341.648438 C 232.144531 342.054688 231.9375 342.585938 232.03125 343.339844 Z M 232.03125 343.339844 "/>
<path fill-rule="nonzero" fill="rgb(76.862745%, 52.941176%, 28.235294%)" fill-opacity="1" d="M 199.464844 404.4375 L 199.496094 404.441406 C 199.917969 404.511719 200.351562 404.578125 200.671875 404.335938 C 201.691406 403.550781 202.847656 403 203.972656 402.46875 C 204.28125 402.320312 204.589844 402.175781 204.894531 402.019531 C 205.847656 401.546875 206.53125 400.953125 206.980469 400.207031 C 207.253906 399.753906 207.503906 399.429688 207.789062 399.152344 C 208.710938 398.257812 209.492188 397.242188 210.171875 396.054688 C 210.574219 395.347656 211.039062 394.675781 211.546875 394.070312 C 211.992188 393.542969 212.351562 393.015625 212.636719 392.457031 C 213.308594 391.160156 214.308594 390.175781 215.597656 389.542969 L 215.878906 389.410156 C 216.546875 389.082031 217.246094 388.742188 217.847656 388.253906 C 218.128906 388.019531 218.472656 387.863281 218.804688 387.714844 C 219 387.625 219.207031 387.53125 219.394531 387.421875 C 219.550781 387.335938 219.746094 387.144531 219.777344 387.074219 C 219.703125 386.902344 219.625 386.726562 219.546875 386.558594 C 219.339844 386.082031 219.125 385.59375 218.9375 385.089844 C 218.726562 384.527344 218.488281 383.964844 218.257812 383.414062 C 218.097656 383.042969 217.933594 382.664062 217.789062 382.289062 C 217.585938 381.789062 217.867188 381.453125 218.132812 381.21875 C 218.320312 381.054688 218.664062 381.042969 218.785156 381.054688 C 218.867188 381.054688 218.945312 381.125 219 381.183594 C 219.027344 381.21875 219.132812 381.351562 219.121094 381.464844 C 219.011719 382.507812 219.445312 383.367188 219.910156 384.273438 L 220.027344 384.511719 C 220.207031 384.863281 220.328125 385.253906 220.441406 385.625 C 220.472656 385.738281 220.507812 385.847656 220.542969 385.953125 C 220.625 386.214844 220.828125 386.328125 221.117188 386.332031 C 221.421875 386.328125 221.710938 386.273438 221.9375 386.183594 C 222.191406 386.085938 222.371094 385.90625 222.441406 385.695312 C 222.5 385.507812 222.460938 385.304688 222.332031 385.117188 C 222.039062 384.679688 221.878906 384.1875 221.726562 383.714844 C 221.59375 383.308594 221.460938 382.886719 221.238281 382.511719 C 220.652344 381.523438 220.691406 380.425781 220.769531 379.691406 C 220.871094 378.738281 221.238281 378.015625 221.867188 377.53125 C 222.0625 377.378906 222.371094 377.347656 222.582031 377.574219 C 222.671875 377.675781 222.769531 377.910156 222.707031 378.054688 C 222.539062 378.472656 222.375 378.878906 222.136719 379.238281 C 221.792969 379.777344 221.753906 380.328125 222.027344 381.03125 C 222.179688 381.425781 222.316406 381.839844 222.445312 382.234375 C 222.539062 382.519531 222.632812 382.796875 222.734375 383.078125 L 222.769531 383.191406 C 222.902344 383.554688 223.035156 383.933594 223.214844 384.273438 C 223.347656 384.515625 223.546875 384.734375 223.761719 384.882812 C 223.933594 384.996094 224.074219 384.917969 224.300781 384.78125 C 224.355469 384.75 224.40625 384.722656 224.457031 384.695312 C 224.628906 384.601562 224.839844 384.539062 225.113281 384.507812 C 225.429688 384.46875 225.574219 384.355469 225.65625 384.082031 C 225.71875 383.882812 225.808594 383.695312 225.898438 383.511719 C 225.964844 383.371094 226.03125 383.226562 226.085938 383.078125 C 226.277344 382.5625 226.464844 382.046875 226.65625 381.523438 C 226.953125 380.703125 227.261719 379.855469 227.578125 379.023438 C 227.605469 378.949219 227.6875 378.90625 227.773438 378.871094 C 227.8125 378.761719 227.84375 378.648438 227.875 378.539062 C 228.0625 377.964844 228.1875 377.367188 228.246094 376.765625 C 228.253906 376.742188 228.261719 376.71875 228.261719 376.695312 C 227.261719 376.566406 226.691406 375.984375 226.539062 374.832031 C 226.441406 374.125 226.441406 374.125 225.886719 374.121094 C 225.46875 374.125 225.046875 374.125 224.625 374.132812 C 224.265625 374.132812 223.894531 374.140625 223.527344 374.140625 C 223.058594 374.140625 222.585938 374.132812 222.117188 374.109375 C 221.375 374.074219 220.625 374.183594 219.90625 374.300781 C 219.433594 374.378906 218.941406 374.449219 218.453125 374.484375 C 217.632812 374.539062 217.050781 374.890625 216.546875 375.636719 C 215.878906 376.644531 215.207031 377.679688 214.5625 378.683594 C 214.039062 379.496094 213.515625 380.308594 212.980469 381.117188 C 212.734375 381.488281 212.460938 381.851562 212.207031 382.207031 C 211.953125 382.546875 211.695312 382.890625 211.460938 383.25 C 211.320312 383.464844 211.097656 383.578125 210.890625 383.6875 C 210.648438 383.8125 210.429688 383.933594 210.335938 384.199219 C 210.21875 384.546875 210.386719 384.808594 210.570312 385.089844 C 210.707031 385.296875 210.847656 385.511719 210.871094 385.777344 C 210.875 385.789062 210.890625 385.808594 210.90625 385.828125 C 210.933594 385.859375 210.960938 385.894531 210.976562 385.9375 C 211.359375 386.957031 211.359375 387.816406 210.984375 388.570312 C 210.484375 389.566406 210.027344 390.605469 209.59375 391.609375 C 209.347656 392.167969 209.097656 392.753906 208.839844 393.316406 C 208.378906 394.328125 208.011719 395.246094 207.714844 396.121094 C 207.4375 396.929688 207.089844 397.691406 206.789062 398.332031 C 206.328125 399.289062 205.53125 400.007812 204.34375 400.519531 C 204.3125 400.535156 204.210938 400.582031 203.949219 400.300781 C 203.882812 400.222656 203.886719 400.070312 203.914062 399.992188 C 204.066406 399.5625 204.394531 399.304688 204.714844 399.046875 C 204.804688 398.984375 204.890625 398.914062 204.976562 398.839844 C 205.464844 398.414062 205.824219 397.839844 206.101562 397.046875 C 206.363281 396.296875 206.667969 395.546875 206.960938 394.828125 C 207.234375 394.167969 207.511719 393.488281 207.757812 392.808594 C 208.078125 391.898438 208.496094 391.03125 208.898438 390.191406 C 209.175781 389.621094 209.460938 389.027344 209.707031 388.441406 C 209.75 388.339844 209.808594 388.253906 209.871094 388.171875 C 209.941406 388.074219 210.007812 387.980469 210.027344 387.886719 C 210.089844 387.636719 210.152344 387.324219 210.085938 387.0625 C 209.933594 386.488281 209.761719 385.835938 209.277344 385.363281 C 209.128906 385.21875 209.085938 385.253906 209.050781 385.285156 L 208.8125 385.507812 C 207.746094 386.5 206.742188 387.441406 206.046875 388.730469 C 205.4375 389.882812 204.90625 391.097656 204.390625 392.273438 C 203.929688 393.316406 203.457031 394.394531 202.929688 395.433594 C 202.875 395.535156 202.851562 395.648438 202.828125 395.777344 C 202.8125 395.871094 202.792969 395.957031 202.765625 396.042969 C 201.925781 398.601562 200.976562 401.5 199.488281 404.085938 C 199.4375 404.171875 199.398438 404.277344 199.382812 404.390625 C 199.40625 404.410156 199.445312 404.433594 199.464844 404.4375 "/>
<path fill-rule="nonzero" fill="rgb(25.098039%, 30.980392%, 34.901961%)" fill-opacity="1" d="M 224.050781 369.179688 C 223.632812 369.179688 223.214844 369.179688 222.796875 369.1875 C 222.480469 369.199219 222.3125 369.335938 222.292969 369.605469 C 222.289062 369.65625 222.285156 369.703125 222.277344 369.753906 C 222.265625 369.855469 222.257812 369.945312 222.261719 370.039062 C 222.277344 370.699219 222.300781 371.367188 222.324219 372.03125 L 222.351562 372.824219 C 222.917969 373.0625 223.496094 373.035156 224.101562 373.003906 C 224.421875 372.992188 224.753906 372.972656 225.074219 373 C 225.289062 373.015625 225.511719 373.007812 225.726562 373.003906 C 225.949219 373 226.175781 372.996094 226.402344 373.015625 C 226.902344 373.058594 227.304688 372.902344 227.714844 372.519531 L 227.757812 372.476562 C 228.734375 371.554688 228.734375 371.554688 228.75 370.101562 C 228.753906 369.957031 228.75 369.808594 228.742188 369.660156 C 228.734375 369.359375 228.597656 369.203125 228.332031 369.199219 C 227.707031 369.199219 227.082031 369.195312 226.453125 369.199219 L 225.574219 369.199219 L 225.574219 369.183594 C 225.070312 369.183594 224.566406 369.179688 224.050781 369.179688 M 225.832031 370.777344 C 225.949219 370.777344 226.058594 370.78125 226.171875 370.78125 L 226.171875 370.765625 L 226.269531 370.773438 C 226.398438 370.773438 226.519531 370.773438 226.648438 370.769531 C 226.773438 370.765625 226.902344 370.765625 227.03125 370.765625 C 227.214844 370.765625 227.398438 370.769531 227.585938 370.785156 C 227.742188 370.800781 227.886719 370.875 227.957031 370.988281 C 228.003906 371.0625 228.046875 371.183594 227.992188 371.355469 C 227.898438 371.621094 227.816406 371.742188 227.710938 371.761719 C 226.828125 371.90625 225.890625 371.917969 224.65625 371.785156 C 224.5 371.769531 224.394531 371.503906 224.359375 371.394531 C 224.308594 371.25 224.328125 371.109375 224.398438 370.992188 C 224.472656 370.882812 224.601562 370.808594 224.734375 370.800781 C 225.101562 370.769531 225.472656 370.773438 225.832031 370.777344 "/>
<path fill-rule="nonzero" fill="rgb(47.45098%, 27.058824%, 10.980392%)" fill-opacity="1" d="M 227.195312 353.269531 C 227.199219 353.5 227.210938 353.78125 227.199219 354.128906 C 227.191406 354.546875 227.191406 354.980469 227.195312 355.398438 L 227.195312 356.007812 C 227.191406 356.117188 227.1875 356.21875 227.214844 356.300781 C 227.257812 356.425781 227.335938 356.539062 227.402344 356.566406 C 227.488281 356.613281 227.660156 356.597656 227.703125 356.558594 C 227.949219 356.34375 228.179688 356.097656 228.402344 355.863281 C 228.480469 355.785156 228.558594 355.703125 228.632812 355.625 C 228.847656 355.40625 229.121094 355.289062 229.476562 355.261719 C 230.875 355.15625 231.058594 355.269531 231.746094 356.59375 L 231.832031 356.765625 C 231.902344 356.898438 231.972656 357.039062 232.050781 357.171875 C 232.136719 357.328125 232.328125 357.441406 232.558594 357.46875 C 232.8125 357.488281 233.070312 357.417969 233.214844 357.261719 L 233.246094 357.226562 C 233.386719 357.082031 233.527344 356.929688 233.574219 356.769531 C 233.730469 356.230469 234.125 356.152344 234.464844 356.152344 L 234.550781 356.152344 C 234.683594 356.152344 234.816406 356.148438 234.957031 356.140625 C 235.335938 356.117188 235.726562 356.097656 236.0625 356.230469 C 236.140625 356.257812 236.21875 356.289062 236.300781 356.316406 C 236.804688 356.488281 237.429688 356.699219 237.417969 357.5625 C 237.417969 357.78125 237.550781 358.019531 237.679688 358.253906 C 237.730469 358.339844 237.773438 358.425781 237.820312 358.515625 C 237.898438 358.679688 238.0625 358.785156 238.277344 358.804688 C 238.535156 358.820312 238.761719 358.710938 238.894531 358.515625 C 238.90625 358.503906 238.910156 358.472656 238.914062 358.449219 C 238.917969 358.410156 238.925781 358.359375 238.949219 358.3125 C 239.023438 358.175781 239.117188 358.046875 239.195312 357.9375 C 239.40625 357.644531 239.796875 357.460938 240.191406 357.460938 L 240.269531 357.460938 C 240.675781 357.488281 241.011719 357.710938 241.214844 358.085938 C 241.359375 358.363281 241.480469 358.660156 241.59375 358.949219 C 241.6875 359.195312 241.789062 359.445312 241.90625 359.679688 C 241.980469 359.832031 242.214844 360.019531 242.285156 360.019531 C 242.503906 359.941406 242.769531 359.753906 242.847656 359.550781 C 242.914062 359.386719 242.949219 359.207031 242.992188 359.023438 C 243.050781 358.710938 243.121094 358.390625 243.324219 358.101562 C 243.367188 358.042969 243.394531 357.980469 243.425781 357.925781 C 243.527344 357.734375 243.648438 357.519531 243.984375 357.507812 C 244.066406 357.503906 244.152344 357.5 244.234375 357.496094 C 244.589844 357.46875 244.992188 357.441406 245.304688 357.769531 C 245.433594 357.90625 245.53125 358.078125 245.625 358.242188 C 245.675781 358.332031 245.726562 358.417969 245.785156 358.503906 C 245.886719 358.660156 246.027344 358.75 246.183594 358.753906 C 246.355469 358.761719 246.542969 358.660156 246.691406 358.488281 C 246.824219 358.320312 246.867188 358.136719 246.90625 357.941406 C 246.921875 357.867188 246.9375 357.792969 246.957031 357.714844 C 247.230469 356.769531 247.785156 356.277344 248.699219 356.171875 C 249.683594 356.058594 250.78125 356.09375 251.460938 357.269531 C 251.472656 357.289062 251.503906 357.3125 251.539062 357.328125 C 251.5625 357.347656 251.585938 357.363281 251.609375 357.378906 C 251.75 357.496094 252.082031 357.425781 252.308594 357.289062 C 252.535156 357.140625 252.625 356.902344 252.714844 356.65625 C 252.796875 356.425781 252.878906 356.179688 253.085938 356.007812 C 253.175781 355.9375 253.257812 355.851562 253.339844 355.765625 C 253.53125 355.5625 253.730469 355.351562 253.972656 355.3125 C 254.785156 355.199219 255.800781 355.058594 256.445312 356.042969 C 256.554688 356.21875 256.667969 356.386719 256.816406 356.613281 L 256.933594 356.789062 C 256.96875 356.675781 257 356.589844 257.023438 356.507812 C 257.085938 356.316406 257.125 356.195312 257.128906 356.082031 C 257.136719 355.617188 257.132812 355.148438 257.132812 354.679688 C 257.128906 354.050781 257.128906 353.402344 257.144531 352.765625 C 257.160156 352.171875 256.972656 351.953125 256.371094 351.871094 C 255.746094 351.789062 255.25 351.425781 254.777344 351.082031 C 254.492188 350.871094 254.195312 350.652344 253.878906 350.503906 C 253.726562 350.429688 253.660156 350.226562 253.597656 350.035156 C 253.582031 349.984375 253.566406 349.933594 253.546875 349.886719 C 253.515625 349.804688 253.496094 349.71875 253.472656 349.628906 C 253.445312 349.503906 253.417969 349.390625 253.359375 349.292969 C 253.304688 349.207031 253.199219 349.15625 253.105469 349.085938 C 253.058594 348.640625 252.976562 348.1875 252.847656 347.71875 C 252.910156 347.714844 252.972656 347.683594 253.019531 347.632812 C 253.078125 347.558594 253.105469 347.460938 253.09375 347.355469 C 253.054688 347.035156 252.953125 346.714844 252.859375 346.40625 C 252.71875 345.964844 252.578125 345.507812 252.601562 345.011719 C 252.605469 344.960938 252.589844 344.945312 252.589844 344.945312 C 252.582031 344.945312 252.535156 344.941406 252.425781 345.007812 C 252.316406 345.070312 252.183594 345.113281 252.054688 345.144531 C 251.894531 345.191406 251.738281 345.234375 251.671875 345.324219 C 251.078125 346.160156 250.25 346.160156 249.429688 346.152344 L 249.199219 346.152344 C 248.503906 346.152344 248.046875 345.828125 247.796875 345.152344 C 247.753906 345.035156 247.695312 344.980469 247.675781 344.980469 C 247.679688 344.984375 247.632812 344.988281 247.582031 345.09375 C 247.183594 345.898438 246.734375 346.851562 246.386719 347.875 C 246.097656 348.730469 245.414062 349.234375 244.496094 349.265625 C 243.503906 349.304688 242.496094 349.289062 241.515625 349.28125 C 240.960938 349.273438 240.40625 349.265625 239.84375 349.265625 L 239.839844 349.265625 C 239.273438 349.265625 238.832031 348.988281 238.53125 348.4375 C 238.445312 348.273438 238.382812 348.101562 238.324219 347.929688 C 238.238281 347.679688 238.160156 347.445312 238.003906 347.273438 C 237.765625 347.007812 237.695312 346.695312 237.636719 346.394531 C 237.582031 346.121094 237.527344 345.871094 237.351562 345.65625 C 237.183594 345.453125 237 345.261719 236.824219 345.257812 C 236.714844 345.257812 236.589844 345.335938 236.457031 345.496094 C 236.027344 345.992188 235.589844 346.199219 235.042969 346.160156 C 234.964844 346.152344 234.890625 346.148438 234.8125 346.144531 C 234.3125 346.117188 233.835938 346.089844 233.359375 345.664062 C 232.945312 345.289062 232.644531 345.132812 232.421875 345.199219 C 232.195312 345.253906 232.003906 345.53125 231.804688 346.066406 C 231.792969 346.109375 231.769531 346.144531 231.746094 346.171875 C 231.734375 346.195312 231.714844 346.222656 231.710938 346.238281 C 231.699219 346.363281 231.683594 346.488281 231.664062 346.617188 C 231.613281 346.921875 231.5625 347.234375 231.621094 347.511719 C 231.65625 347.644531 231.753906 347.691406 231.882812 347.714844 C 231.605469 348.167969 231.402344 348.726562 231.273438 349.230469 C 231.238281 349.367188 231.199219 349.511719 231.171875 349.648438 C 230.628906 350.601562 229.753906 351.132812 228.921875 351.492188 C 227.167969 352.25 227.167969 352.25 227.195312 353.269531 "/>
<g clip-path="url(#clip-1)">
<path fill-rule="nonzero" fill="rgb(61.960784%, 21.176471%, 13.72549%)" fill-opacity="1" d="M 203.414062 380.59375 C 203.6875 380.941406 204.136719 381.097656 204.460938 380.957031 C 204.550781 380.921875 204.644531 380.878906 204.734375 380.84375 C 205.042969 380.714844 205.363281 380.585938 205.597656 380.382812 C 206.257812 379.804688 207.042969 379.445312 207.796875 379.097656 C 208.027344 378.992188 208.246094 378.886719 208.472656 378.777344 C 210.128906 377.953125 211.84375 377.109375 213.441406 376.085938 C 213.578125 376.003906 213.707031 375.871094 213.832031 375.738281 C 214.058594 375.511719 214.277344 375.296875 214.527344 375.292969 C 215.175781 375.285156 215.539062 374.925781 215.917969 374.539062 C 216.035156 374.421875 216.152344 374.304688 216.28125 374.195312 C 216.351562 374.128906 216.429688 374.054688 216.503906 373.984375 C 216.738281 373.75 216.980469 373.515625 217.21875 373.53125 C 217.671875 373.574219 218.054688 373.421875 218.46875 373.265625 C 218.871094 373.109375 219.292969 372.957031 219.765625 372.992188 C 220.304688 373.035156 220.550781 373.015625 220.671875 372.902344 C 220.796875 372.789062 220.800781 372.527344 220.800781 372.03125 L 220.796875 371.621094 C 220.792969 371.03125 220.792969 370.417969 220.804688 369.8125 C 220.8125 369.550781 220.878906 369.3125 220.988281 369.148438 C 221.414062 368.523438 222.144531 367.773438 223.207031 367.730469 C 224.570312 367.679688 225.957031 367.695312 227.296875 367.714844 C 227.851562 367.722656 228.414062 367.734375 228.972656 367.738281 L 229.011719 367.738281 L 229.042969 367.765625 C 229.3125 368.0625 229.542969 367.972656 229.890625 367.789062 C 229.957031 367.753906 230.015625 367.722656 230.078125 367.691406 C 230.175781 367.652344 230.273438 367.609375 230.367188 367.570312 C 230.664062 367.441406 230.96875 367.300781 231.242188 367.132812 C 231.660156 366.867188 231.851562 366.550781 231.847656 366.136719 C 231.832031 365.386719 231.851562 364.625 231.867188 363.890625 L 231.878906 363.253906 C 231.882812 363.140625 231.960938 363.023438 232.09375 362.9375 C 232.210938 362.863281 232.378906 362.808594 232.511719 362.863281 C 232.761719 362.96875 232.890625 363.078125 232.894531 363.1875 C 232.902344 363.613281 232.902344 364.050781 232.90625 364.472656 C 232.90625 365.066406 232.914062 365.679688 232.949219 366.28125 C 233 367.136719 232.496094 367.640625 231.996094 368.023438 C 231.636719 368.296875 231.25 368.578125 230.828125 368.6875 C 230.261719 368.835938 230.121094 369.261719 229.964844 369.71875 C 229.9375 369.796875 229.914062 369.875 229.886719 369.945312 C 229.785156 370.207031 229.808594 370.53125 229.828125 370.835938 C 229.835938 370.96875 229.84375 371.105469 229.839844 371.238281 C 229.839844 371.542969 229.972656 371.691406 230.25 371.695312 L 230.804688 371.695312 C 232.074219 371.707031 233.386719 371.714844 234.675781 371.699219 C 235.382812 371.695312 235.730469 371.414062 235.8125 370.800781 C 235.855469 370.492188 235.976562 370.230469 236.089844 369.980469 C 236.1875 369.769531 236.277344 369.570312 236.324219 369.355469 C 236.375 369.125 236.953125 369.082031 236.957031 369.082031 L 236.96875 369.082031 C 237.128906 369.082031 237.269531 369.359375 237.300781 369.46875 C 237.449219 370.015625 237.273438 370.503906 237.101562 370.96875 C 237 371.25 236.894531 371.539062 236.867188 371.828125 C 236.847656 371.988281 236.695312 372.164062 236.558594 372.238281 C 236.394531 372.324219 236.230469 372.421875 236.070312 372.519531 C 235.445312 372.894531 234.789062 373.277344 233.910156 373.207031 C 232.894531 373.121094 231.847656 373.132812 230.84375 373.148438 C 230.324219 373.152344 229.789062 373.15625 229.265625 373.152344 L 229.238281 373.152344 C 228.632812 373.152344 228.242188 373.425781 228.011719 374.015625 C 227.96875 374.132812 227.90625 374.25 227.851562 374.359375 C 227.8125 374.445312 227.765625 374.527344 227.730469 374.613281 C 227.667969 374.75 227.695312 374.964844 227.796875 375.171875 C 227.894531 375.363281 228.042969 375.507812 228.179688 375.542969 C 228.441406 375.609375 228.730469 375.640625 229.015625 375.644531 C 229.289062 375.648438 229.566406 375.652344 229.84375 375.660156 C 230.734375 375.671875 231.65625 375.6875 232.550781 375.632812 C 233.28125 375.582031 233.820312 375.855469 234.3125 376.503906 C 234.445312 376.683594 234.574219 376.867188 234.699219 377.050781 C 234.980469 377.453125 235.269531 377.871094 235.640625 378.21875 C 236.046875 378.597656 236.421875 378.753906 236.925781 378.753906 L 236.9375 378.753906 C 240.984375 378.726562 244.535156 378.730469 247.796875 378.753906 L 247.8125 378.753906 C 248.34375 378.753906 248.730469 378.574219 249.054688 378.171875 C 249.574219 377.527344 250.074219 376.894531 250.546875 376.289062 C 250.910156 375.824219 251.371094 375.617188 251.960938 375.636719 C 252.765625 375.664062 253.582031 375.660156 254.378906 375.652344 C 254.828125 375.652344 255.273438 375.648438 255.722656 375.652344 L 255.730469 375.652344 C 255.988281 375.652344 256.199219 375.554688 256.433594 375.328125 C 256.828125 374.9375 256.726562 374.445312 256.632812 373.972656 C 256.542969 373.558594 256.21875 373.269531 255.78125 373.203125 C 255.523438 373.15625 255.25 373.164062 254.984375 373.167969 C 254.886719 373.167969 254.789062 373.179688 254.699219 373.167969 L 254.632812 373.167969 C 254.160156 373.167969 253.683594 373.175781 253.210938 373.179688 C 252.171875 373.1875 251.097656 373.191406 250.039062 373.164062 C 248.621094 373.125 247.492188 372.039062 247.363281 370.585938 C 247.339844 370.300781 247.347656 370 247.363281 369.71875 C 247.363281 369.632812 247.367188 369.550781 247.371094 369.46875 C 247.371094 369.339844 247.453125 369.214844 247.582031 369.128906 C 247.710938 369.046875 247.863281 369.023438 247.980469 369.070312 C 248.113281 369.125 248.285156 369.207031 248.363281 369.335938 C 248.4375 369.464844 248.46875 369.65625 248.441406 369.832031 C 248.332031 370.554688 248.75 371.015625 249.222656 371.464844 C 249.5 371.726562 249.835938 371.71875 250.195312 371.710938 L 250.414062 371.710938 C 251.554688 371.71875 252.742188 371.71875 253.957031 371.710938 C 254.335938 371.710938 254.589844 371.707031 254.664062 371.617188 C 254.734375 371.523438 254.671875 371.214844 254.5625 370.707031 C 254.492188 370.40625 254.46875 370.09375 254.480469 369.796875 C 254.492188 369.4375 254.351562 369.15625 254.042969 368.9375 C 253.867188 368.808594 253.675781 368.691406 253.492188 368.578125 C 253.246094 368.429688 252.996094 368.28125 252.765625 368.097656 L 252.683594 368.023438 C 252.347656 367.757812 251.972656 367.457031 251.855469 367.082031 C 251.53125 366.042969 251.199219 364.835938 251.433594 363.605469 C 251.480469 363.371094 251.6875 363.164062 251.839844 363.019531 C 251.972656 362.890625 252.195312 362.859375 252.285156 362.847656 C 252.421875 362.839844 252.546875 362.875 252.636719 362.953125 C 252.738281 363.042969 252.796875 363.179688 252.808594 363.339844 C 252.832031 363.699219 252.832031 364.054688 252.835938 364.40625 C 252.835938 364.570312 252.839844 364.730469 252.839844 364.894531 C 252.84375 365.175781 252.84375 365.417969 252.839844 365.625 C 252.820312 366.820312 252.820312 366.890625 254.675781 367.738281 C 255.128906 367.949219 255.40625 367.949219 255.757812 367.757812 C 255.90625 367.679688 256.089844 367.691406 256.265625 367.710938 C 256.332031 367.714844 256.402344 367.71875 256.460938 367.722656 C 256.910156 367.71875 257.355469 367.722656 257.800781 367.722656 C 258.886719 367.722656 260.011719 367.722656 261.113281 367.695312 L 261.171875 367.695312 C 262.003906 367.695312 262.625 368.132812 263.140625 368.542969 C 263.558594 368.875 263.546875 369.355469 263.53125 369.773438 C 263.53125 369.867188 263.527344 369.964844 263.53125 370.058594 C 263.539062 370.433594 263.542969 370.816406 263.542969 371.191406 C 263.546875 371.691406 263.546875 372.210938 263.566406 372.714844 C 263.566406 372.785156 263.675781 372.921875 263.742188 372.945312 C 263.949219 373.007812 264.175781 373.027344 264.359375 372.996094 C 264.984375 372.890625 265.546875 373.074219 266.09375 373.242188 C 266.300781 373.308594 266.511719 373.375 266.722656 373.425781 C 267.585938 373.632812 268.332031 374.074219 268.988281 374.777344 C 269.171875 374.96875 269.4375 375.179688 269.640625 375.179688 C 270.136719 375.1875 270.441406 375.445312 270.738281 375.699219 C 270.824219 375.773438 270.914062 375.847656 271.007812 375.914062 C 271.707031 376.429688 272.453125 376.898438 273.183594 377.347656 L 273.363281 377.464844 C 274.113281 377.929688 274.9375 378.28125 275.730469 378.617188 C 276.054688 378.753906 276.375 378.886719 276.691406 379.027344 C 277.464844 379.378906 278.207031 379.8125 278.921875 380.242188 C 279.257812 380.4375 279.597656 380.636719 279.9375 380.828125 C 280.054688 380.886719 280.179688 380.9375 280.320312 380.976562 C 280.765625 381.089844 281.050781 380.863281 281.339844 380.492188 C 281.5 380.277344 281.589844 380.035156 281.175781 379.675781 C 280.308594 378.925781 279.664062 377.984375 279.039062 377.078125 L 278.945312 376.941406 C 278.003906 375.566406 277.039062 374.167969 275.828125 373.015625 C 274.789062 372.023438 273.882812 370.90625 273.046875 369.597656 C 272.554688 368.835938 271.851562 367.894531 270.738281 367.390625 C 270.59375 367.324219 270.519531 367.25 270.503906 367.15625 C 270.484375 367.074219 270.519531 366.984375 270.597656 366.90625 C 270.75 366.75 270.921875 366.605469 271.09375 366.464844 C 271.164062 366.410156 271.234375 366.460938 271.289062 366.503906 C 271.3125 366.515625 271.347656 366.550781 271.367188 366.550781 C 271.976562 366.71875 272.5625 366.980469 273.128906 367.234375 C 273.472656 367.390625 273.832031 367.550781 274.191406 367.683594 C 274.523438 367.8125 274.878906 367.921875 275.21875 368.03125 C 275.894531 368.242188 276.59375 368.46875 277.242188 368.832031 C 277.910156 369.203125 278.164062 369.09375 278.648438 368.542969 C 278.75 368.429688 278.792969 368.289062 278.777344 368.15625 C 278.765625 368.085938 278.734375 367.984375 278.628906 367.917969 C 277.574219 367.21875 276.6875 366.320312 275.828125 365.441406 C 275.371094 364.972656 274.890625 364.488281 274.394531 364.042969 C 274.375 364.019531 274.34375 363.996094 274.328125 363.972656 C 274.300781 363.945312 274.273438 363.917969 274.238281 363.894531 C 272.992188 362.90625 271.457031 362.457031 270.121094 362.113281 C 269.699219 362.007812 269.226562 362.035156 268.761719 362.066406 C 268.566406 362.078125 268.359375 362.089844 268.160156 362.09375 L 267.945312 362.09375 C 267.464844 362.09375 266.972656 362.101562 266.472656 362.214844 C 266.746094 362.351562 266.96875 362.554688 267.183594 362.753906 C 267.417969 362.972656 267.636719 363.175781 267.921875 363.292969 C 268.269531 363.4375 268.617188 363.753906 268.757812 364.066406 L 268.855469 364.273438 C 269.195312 364.996094 269.542969 365.746094 269.652344 366.523438 C 269.761719 367.246094 269.726562 368.003906 269.695312 368.734375 C 269.675781 369.03125 269.667969 369.335938 269.65625 369.628906 C 269.65625 369.75 269.570312 369.875 269.433594 369.960938 C 269.339844 370.019531 269.246094 370.046875 269.160156 370.046875 C 269.113281 370.046875 269.070312 370.039062 269.027344 370.019531 C 268.785156 369.90625 268.671875 369.804688 268.660156 369.695312 L 268.644531 369.496094 C 268.597656 369.046875 268.554688 368.582031 268.609375 368.132812 C 268.710938 367.277344 268.449219 366.476562 268.191406 365.703125 L 268.097656 365.40625 C 267.929688 364.90625 267.589844 364.484375 267.082031 364.152344 C 265.921875 363.398438 264.5625 362.53125 263.15625 361.804688 C 262.058594 361.242188 261.5625 360.402344 261.550781 359.074219 C 261.511719 356.582031 261.511719 354.332031 261.550781 352.199219 C 261.558594 351.324219 261.273438 350.589844 260.652344 349.890625 C 260.121094 349.289062 259.449219 348.847656 258.804688 348.425781 C 258.609375 348.304688 258.417969 348.175781 258.226562 348.046875 C 257.753906 347.71875 257.300781 347.355469 256.863281 346.9375 C 256.113281 346.230469 255.75 345.351562 255.796875 344.3125 C 255.800781 344.074219 255.792969 343.824219 255.78125 343.59375 C 255.769531 343.320312 255.757812 343.035156 255.777344 342.757812 C 255.847656 341.617188 255.425781 340.625 254.472656 339.722656 C 254.023438 339.289062 253.578125 338.839844 253.152344 338.398438 C 252.917969 338.160156 252.679688 337.917969 252.445312 337.679688 C 251.671875 336.90625 251.308594 335.980469 251.339844 334.84375 C 251.359375 333.941406 251.351562 333.023438 251.34375 332.132812 C 251.332031 331.0625 251.324219 329.949219 251.367188 328.863281 C 251.421875 327.457031 251.144531 326.351562 250.492188 325.378906 C 250.363281 325.183594 250.179688 324.886719 250.097656 324.566406 C 249.730469 323.101562 249.078125 321.773438 248.226562 320.230469 C 248.042969 319.898438 247.902344 319.566406 247.769531 319.238281 C 247.398438 318.316406 246.9375 317.40625 246.5 316.535156 L 246.28125 316.101562 C 246.261719 316.082031 246.09375 316.046875 245.992188 316.070312 C 245.902344 316.09375 245.78125 316.199219 245.777344 316.257812 C 245.753906 316.382812 245.753906 316.507812 245.753906 316.644531 C 245.753906 316.808594 245.753906 316.984375 245.707031 317.144531 C 245.675781 317.25 245.644531 317.351562 245.617188 317.457031 C 245.417969 318.097656 245.242188 318.695312 245.679688 319.355469 C 245.835938 319.589844 245.804688 319.929688 245.777344 320.257812 C 245.773438 320.339844 245.765625 320.421875 245.757812 320.5 C 245.730469 321.128906 245.886719 321.746094 246.042969 322.339844 C 246.191406 322.921875 246.347656 323.527344 246.332031 324.15625 C 246.328125 324.269531 246.394531 324.398438 246.460938 324.53125 C 246.53125 324.667969 246.59375 324.804688 246.613281 324.949219 C 246.648438 325.351562 246.777344 325.519531 247.140625 325.65625 C 247.753906 325.890625 248.058594 326.363281 247.980469 326.957031 C 247.964844 327.097656 247.917969 327.292969 247.796875 327.398438 C 247.683594 327.496094 247.449219 327.558594 247.308594 327.496094 C 247.082031 327.390625 246.894531 327.207031 246.765625 327.082031 C 246.359375 326.660156 245.980469 326.625 245.539062 326.972656 C 245.417969 327.066406 245.28125 327.136719 245.148438 327.199219 C 245.019531 327.265625 244.894531 327.328125 244.789062 327.410156 C 244.515625 327.632812 244.257812 327.527344 244.089844 327.453125 C 243.976562 327.410156 243.90625 327.320312 243.871094 327.191406 C 243.820312 326.984375 243.894531 326.71875 244.054688 326.535156 L 244.144531 326.433594 C 244.449219 326.070312 244.769531 325.695312 245.292969 325.550781 C 245.320312 325.539062 245.375 325.453125 245.398438 325.402344 C 245.15625 325.105469 245.164062 324.753906 245.164062 324.414062 C 245.164062 324.09375 245.167969 323.789062 244.960938 323.554688 C 244.363281 322.882812 243.988281 322.089844 243.621094 321.3125 C 243.402344 320.855469 243.179688 320.382812 242.914062 319.945312 C 242.78125 319.726562 242.511719 319.574219 242.246094 319.574219 C 242.136719 319.574219 241.933594 319.601562 241.824219 319.789062 L 241.796875 319.839844 C 240.816406 321.460938 239.796875 323.136719 239.230469 325 C 239.171875 325.195312 239.167969 325.332031 239.214844 325.417969 C 239.253906 325.488281 239.328125 325.539062 239.4375 325.570312 C 240.136719 325.769531 240.402344 326.332031 240.613281 326.894531 C 240.625 326.925781 240.640625 326.957031 240.652344 326.988281 C 240.703125 327.09375 240.757812 327.210938 240.714844 327.328125 C 240.679688 327.40625 240.609375 327.46875 240.492188 327.511719 C 240.359375 327.5625 240.207031 327.5625 240.074219 327.5625 L 240.023438 327.5625 C 239.746094 327.5625 239.566406 327.394531 239.410156 327.242188 C 239.355469 327.191406 239.300781 327.140625 239.238281 327.09375 C 238.601562 326.609375 238.597656 326.609375 237.859375 327.140625 C 237.828125 327.164062 237.808594 327.1875 237.789062 327.207031 C 237.757812 327.242188 237.730469 327.269531 237.691406 327.296875 C 237.40625 327.5 237.152344 327.582031 236.980469 327.511719 C 236.882812 327.476562 236.820312 327.398438 236.796875 327.292969 L 236.78125 327.222656 C 236.71875 326.9375 236.644531 326.613281 236.773438 326.386719 C 236.9375 326.09375 237.261719 325.804688 237.609375 325.640625 C 237.921875 325.488281 238.027344 325.351562 238.042969 325.09375 C 238.046875 325.003906 238.042969 324.914062 238.035156 324.828125 C 238.023438 324.59375 238.015625 324.347656 238.128906 324.175781 C 238.394531 323.746094 238.425781 323.300781 238.460938 322.824219 C 238.472656 322.652344 238.480469 322.472656 238.507812 322.296875 C 238.550781 321.992188 238.621094 321.691406 238.691406 321.398438 C 238.785156 320.996094 238.882812 320.585938 238.90625 320.179688 C 238.949219 319.347656 238.945312 318.5 238.941406 317.679688 C 238.9375 317.261719 238.9375 316.835938 238.9375 316.417969 C 238.941406 316.300781 238.910156 316.199219 238.847656 316.140625 C 238.804688 316.09375 238.75 316.070312 238.679688 316.070312 L 238.675781 316.070312 C 238.515625 316.070312 238.28125 316.148438 238.191406 316.265625 C 238.148438 316.332031 238.097656 316.398438 238.046875 316.460938 C 237.789062 316.808594 237.523438 317.164062 237.445312 317.535156 C 237.238281 318.5625 236.753906 319.472656 236.289062 320.351562 C 236.175781 320.546875 236.070312 320.75 235.96875 320.945312 C 235.382812 322.09375 234.851562 323.292969 234.398438 324.515625 C 234.328125 324.707031 234.265625 324.90625 234.203125 325.097656 C 234.070312 325.523438 233.925781 325.960938 233.703125 326.347656 C 233.441406 326.792969 233.324219 327.226562 233.332031 327.757812 C 233.332031 328.457031 233.332031 329.164062 233.324219 329.867188 C 233.316406 331.207031 233.308594 332.59375 233.351562 333.960938 C 233.390625 335.101562 233.128906 336.113281 232.527344 337.128906 C 232.234375 337.625 231.882812 338.023438 231.578125 338.347656 C 231.292969 338.652344 230.988281 338.949219 230.695312 339.238281 C 230.417969 339.503906 230.128906 339.789062 229.859375 340.074219 C 229.164062 340.8125 228.859375 341.5625 228.921875 342.367188 C 228.96875 342.933594 228.832031 343.476562 228.691406 344.003906 C 228.558594 344.519531 228.425781 345.054688 228.472656 345.601562 C 228.488281 345.753906 228.394531 345.898438 228.304688 346.035156 C 228.261719 346.097656 228.214844 346.164062 228.1875 346.226562 C 227.800781 347.078125 227.136719 347.589844 226.535156 347.980469 L 226.296875 348.136719 C 225.472656 348.671875 224.625 349.222656 223.933594 349.960938 C 223.347656 350.589844 223.117188 351.132812 223.132812 351.839844 C 223.164062 353.207031 223.15625 354.597656 223.152344 355.949219 C 223.148438 356.5 223.148438 357.050781 223.140625 357.601562 C 223.140625 357.738281 223.152344 357.871094 223.15625 358.007812 C 223.175781 358.320312 223.1875 358.636719 223.128906 358.945312 C 222.976562 359.699219 222.78125 360.40625 222.535156 361.03125 C 222.367188 361.457031 221.953125 361.632812 221.585938 361.777344 C 221.464844 361.828125 221.351562 361.878906 221.246094 361.933594 C 220.242188 362.457031 218.933594 363.179688 217.730469 364.089844 C 217.59375 364.1875 217.445312 364.273438 217.296875 364.351562 C 216.933594 364.546875 216.589844 364.730469 216.558594 365.175781 C 216.535156 365.476562 216.414062 365.742188 216.296875 366 C 216.140625 366.332031 215.992188 366.65625 216.070312 367.035156 C 216.125 367.3125 216.109375 367.597656 216.09375 367.871094 C 216.089844 367.96875 216.085938 368.070312 216.085938 368.164062 L 216.082031 368.296875 C 216.066406 368.761719 216.058594 369.246094 216.011719 369.71875 C 215.996094 369.875 215.730469 370 215.59375 370.019531 C 215.460938 370.035156 215.296875 369.953125 215.171875 369.882812 C 215.074219 369.828125 215.019531 369.703125 215.019531 369.613281 C 215.015625 369.285156 215 368.949219 214.988281 368.625 C 214.949219 367.851562 214.914062 367.050781 215.027344 366.277344 C 215.195312 365.179688 215.519531 363.960938 216.667969 363.226562 C 217.066406 362.972656 217.472656 362.734375 217.945312 362.453125 C 218.097656 362.363281 218.261719 362.265625 218.429688 362.160156 C 217.734375 362.105469 217.105469 362.101562 216.488281 362.09375 C 216.136719 362.09375 215.792969 362.089844 215.441406 362.078125 C 215.375 362.074219 215.300781 362.074219 215.230469 362.074219 C 213.480469 362.074219 211.988281 362.875 210.636719 363.742188 C 209.28125 364.617188 208.128906 365.792969 207.015625 366.929688 C 206.710938 367.242188 206.402344 367.558594 206.089844 367.867188 C 205.960938 367.996094 205.898438 368.121094 205.902344 368.242188 C 205.902344 368.375 205.984375 368.523438 206.140625 368.664062 C 206.605469 369.097656 206.828125 369.179688 207.398438 368.859375 C 208.179688 368.417969 209.039062 368.136719 209.863281 367.871094 C 210.726562 367.589844 211.617188 367.300781 212.421875 366.828125 C 212.707031 366.65625 213.085938 366.535156 213.480469 366.488281 C 213.640625 366.480469 213.78125 366.609375 213.921875 366.742188 C 213.964844 366.777344 214.003906 366.820312 214.046875 366.851562 C 214.15625 366.949219 214.207031 367.039062 214.195312 367.132812 C 214.179688 367.222656 214.109375 367.296875 213.988281 367.351562 C 212.90625 367.8125 212.199219 368.679688 211.449219 369.679688 C 210.085938 371.511719 208.960938 372.867188 207.8125 374.074219 C 207.359375 374.542969 206.972656 375.042969 206.609375 375.613281 C 205.882812 376.738281 205.066406 377.914062 203.972656 378.878906 C 203.746094 379.070312 203.550781 379.289062 203.367188 379.507812 C 203.125 379.789062 203.140625 380.246094 203.414062 380.59375 M 219.988281 365.636719 C 220.277344 365.246094 220.667969 365.058594 221.199219 365.058594 C 222.65625 365.074219 224.175781 365.074219 225.851562 365.050781 C 227.148438 365.03125 227.792969 364.410156 227.8125 363.148438 C 227.816406 363.019531 227.8125 362.886719 227.808594 362.753906 C 227.800781 362.519531 227.792969 362.269531 227.820312 362.03125 C 227.863281 361.632812 227.871094 361.226562 227.660156 360.976562 C 227.507812 360.792969 227.246094 360.6875 226.859375 360.652344 C 226.421875 360.621094 226.0625 360.140625 226.046875 359.566406 C 226.042969 359.4375 226.046875 359.308594 226.046875 359.175781 C 226.0625 358.726562 226.070312 358.296875 225.796875 357.902344 C 225.675781 357.730469 225.714844 357.367188 225.828125 357.191406 C 226.113281 356.769531 226.105469 356.308594 226.097656 355.824219 C 226.09375 355.726562 226.09375 355.625 226.09375 355.53125 C 226.097656 355.3125 226.105469 355.097656 226.109375 354.882812 C 226.121094 354.222656 226.136719 353.542969 226.074219 352.878906 C 225.980469 351.875 226.597656 351.34375 227.15625 350.992188 C 227.820312 350.574219 228.488281 350.246094 229.125 350.019531 C 229.867188 349.753906 230.171875 349.316406 230.070312 348.640625 C 229.996094 348.175781 230.148438 347.765625 230.300781 347.371094 C 230.433594 347.007812 230.558594 346.671875 230.53125 346.289062 L 230.515625 346.132812 C 230.460938 345.355469 230.398438 344.550781 230.613281 343.835938 C 230.800781 343.195312 230.871094 342.582031 230.941406 341.929688 L 230.96875 341.710938 C 230.992188 341.511719 231.125 341.328125 231.242188 341.167969 L 231.289062 341.101562 C 231.351562 341.011719 231.484375 340.847656 231.660156 340.777344 C 232.378906 340.488281 232.996094 339.964844 233.429688 339.265625 C 234.183594 338.0625 234.277344 336.664062 235.535156 335.820312 C 236.105469 335.4375 236.410156 335.09375 236.722656 334.492188 C 237.023438 333.921875 237.300781 333.335938 237.585938 332.738281 C 238.058594 331.730469 238.816406 331.28125 239.957031 331.332031 C 241.589844 331.390625 243.226562 331.390625 244.8125 331.328125 C 245.855469 331.28125 246.628906 331.738281 247.039062 332.621094 C 247.140625 332.839844 247.265625 333.058594 247.378906 333.265625 C 247.6875 333.816406 247.8125 334.308594 247.976562 334.886719 C 248.113281 335.367188 248.515625 335.550781 248.894531 335.859375 C 249.050781 335.992188 250.195312 336.605469 250.21875 336.699219 C 250.269531 336.878906 250.335938 337.0625 250.417969 337.242188 C 250.582031 337.59375 250.742188 337.957031 250.679688 338.386719 C 250.632812 338.707031 250.871094 338.949219 251.097656 339.179688 L 251.167969 339.238281 C 251.761719 339.839844 252.417969 340.480469 253.230469 341.242188 C 253.617188 341.597656 253.785156 341.988281 253.765625 342.476562 C 253.761719 342.710938 253.769531 342.953125 253.78125 343.1875 C 253.800781 343.542969 253.8125 343.902344 253.761719 344.257812 C 253.703125 344.695312 253.832031 345.085938 253.964844 345.496094 C 254.078125 345.847656 254.195312 346.203125 254.1875 346.59375 C 254.179688 347.300781 254.167969 348.03125 254.597656 348.71875 C 254.589844 349.753906 255.332031 350.113281 256.160156 350.417969 L 256.375 350.496094 C 256.988281 350.71875 257.625 350.949219 258.09375 351.472656 C 258.332031 351.734375 258.597656 352.03125 258.597656 352.488281 C 258.601562 354.46875 258.609375 356.585938 258.628906 359.355469 C 258.632812 359.800781 258.550781 360.277344 257.902344 360.433594 C 257.726562 360.476562 257.554688 360.570312 257.371094 360.675781 C 257.296875 360.722656 257.21875 360.765625 257.140625 360.804688 C 256.949219 360.902344 256.871094 361.027344 256.875 361.226562 C 256.878906 361.570312 256.878906 361.921875 256.878906 362.269531 C 256.875 362.585938 256.871094 362.902344 256.875 363.21875 C 256.890625 364.378906 257.53125 365.03125 258.679688 365.046875 C 259.558594 365.066406 260.453125 365.066406 261.316406 365.066406 C 261.984375 365.066406 262.65625 365.066406 263.332031 365.074219 C 263.683594 365.074219 263.96875 365.125 264.210938 365.21875 C 264.421875 365.300781 264.597656 365.503906 264.734375 365.6875 C 264.777344 365.746094 264.773438 365.824219 264.726562 365.921875 C 264.636719 366.097656 264.335938 366.433594 264.113281 366.4375 C 263.464844 366.453125 262.808594 366.445312 262.167969 366.449219 L 261.566406 366.445312 L 261.566406 366.503906 L 260.878906 366.507812 C 260.484375 366.507812 260.09375 366.507812 259.699219 366.503906 C 258.664062 366.503906 257.738281 366.125 256.960938 365.765625 C 256.25 365.429688 255.851562 364.824219 255.769531 363.972656 C 255.738281 363.621094 255.742188 363.257812 255.75 362.90625 C 255.753906 362.675781 255.757812 362.433594 255.753906 362.195312 C 255.75 362.085938 255.753906 361.96875 255.757812 361.84375 C 255.769531 361.511719 255.777344 361.164062 255.632812 360.992188 C 255.386719 360.707031 255.015625 360.753906 254.628906 360.804688 C 254.429688 360.832031 254.21875 360.859375 254.015625 360.84375 C 253.972656 360.84375 253.910156 360.878906 253.855469 360.914062 C 253.792969 360.953125 253.734375 360.988281 253.664062 361.011719 C 252.953125 361.230469 252.230469 361.4375 251.527344 361.640625 C 250.386719 361.960938 249.207031 362.292969 248.082031 362.695312 C 247.027344 363.074219 246.292969 363.558594 246.144531 364.707031 C 246.035156 365.585938 245.101562 365.832031 244.417969 366.007812 C 243.910156 366.144531 243.1875 366.273438 242.609375 365.886719 C 242.308594 365.6875 242.085938 365.753906 241.75 365.859375 L 241.691406 365.878906 C 240.136719 366.355469 239.148438 365.921875 238.386719 364.417969 C 237.703125 363.070312 237.675781 363.019531 236.246094 362.578125 C 235.617188 362.390625 234.980469 362.207031 234.359375 362.027344 C 233.207031 361.699219 232.011719 361.359375 230.859375 360.941406 C 230.550781 360.832031 230.195312 360.832031 229.824219 360.832031 C 229.675781 360.832031 229.519531 360.832031 229.371094 360.824219 C 229.238281 360.824219 229.121094 360.851562 229.050781 360.914062 C 228.972656 360.988281 228.933594 361.097656 228.933594 361.253906 C 228.925781 361.4375 228.921875 361.621094 228.921875 361.804688 C 228.910156 362.425781 228.894531 363.058594 228.925781 363.683594 C 228.960938 364.300781 228.664062 364.699219 228.359375 365.121094 C 227.78125 365.90625 226.90625 366.328125 225.617188 366.453125 C 224.308594 366.578125 222.964844 366.539062 221.664062 366.507812 C 221.203125 366.492188 220.75 366.484375 220.296875 366.476562 C 220.132812 366.476562 219.972656 366.246094 219.929688 366.117188 C 219.882812 365.984375 219.890625 365.757812 219.988281 365.636719 "/>
</g>
</svg>
