<?xml version="1.0" encoding="UTF-8"?>
<svg xmlns="http://www.w3.org/2000/svg" xmlns:xlink="http://www.w3.org/1999/xlink" width="595.275591" height="841.889764" viewBox="0 0 595.275591 841.889764">
<defs>
<clipPath id="clip-0">
<path clip-rule="nonzero" d="M 138 62.363281 L 148 62.363281 L 148 72 L 138 72 Z M 138 62.363281 "/>
</clipPath>
<clipPath id="clip-1">
<path clip-rule="nonzero" d="M 132 70 L 154 70 L 154 87.875 L 132 87.875 Z M 132 70 "/>
</clipPath>
</defs>
<path fill="none" stroke-width="0.25" stroke-linecap="butt" stroke-linejoin="miter" stroke="rgb(0%, 0%, 0%)" stroke-opacity="1" stroke-miterlimit="4" d="M 26.000293 -0.000531684 C 23.238704 -0.000531684 20.999392 2.23878 20.999392 5.000369 L 20.999392 87.000532 L 20.999392 76.001031 L 109.999989 76.001031 L 20.999392 76.001031 L 10.998969 78.000564 L 10.998969 85.000998 L 20.999392 87.000532 L 20.999392 118.999957 L 20.999392 87.000532 L 109.999989 87.000532 L 9.999891 87.000532 L 9.999891 118.999957 L 9.999891 87.000532 L -0.000531684 89.000065 L -0.000531684 117.000423 L 9.999891 118.999957 L 20.999392 118.999957 C 20.999392 121.917263 22.158322 124.714681 24.221246 126.777604 C 26.284169 128.840527 29.082964 129.999457 32.000271 129.999457 L 99.000488 129.999457 C 101.917795 129.999457 104.715213 128.840527 106.778136 126.777604 C 108.841059 124.714681 109.999989 121.917263 109.999989 118.999957 L 120.99949 118.999957 L 130.999913 117.000423 L 130.999913 89.000065 L 120.99949 87.000532 L 120.99949 118.999957 L 120.99949 87.000532 L 109.999989 87.000532 L 109.999989 118.999957 L 109.999989 87.000532 L 120.000412 85.000998 L 120.000412 78.000564 L 109.999989 76.001031 L 109.999989 87.000532 L 109.999989 5.000369 C 109.999989 3.673318 109.473579 2.402767 108.535135 1.464323 C 107.598069 0.527257 106.326139 -0.000531684 105.000467 -0.000531684 Z M 26.000293 -0.000531684 " transform="matrix(2.834646, 0, 0, 2.834646, 56.692913, 56.692913)"/>
<path fill-rule="nonzero" fill="rgb(76.862745%, 52.941176%, 28.235294%)" fill-opacity="1" d="M 138.859375 79.71875 C 138.820312 79.695312 138.78125 79.671875 138.746094 79.648438 C 138.539062 79.519531 138.328125 79.386719 138.15625 79.199219 C 138.125 79.167969 138.09375 79.152344 138.050781 79.152344 C 138.03125 79.152344 138.003906 79.15625 137.976562 79.167969 C 137.917969 79.1875 137.855469 79.214844 137.796875 79.238281 C 137.648438 79.300781 137.492188 79.367188 137.320312 79.378906 C 137.300781 79.382812 137.285156 79.394531 137.265625 79.40625 C 137.253906 79.417969 137.238281 79.425781 137.226562 79.429688 C 137.191406 79.449219 137.167969 79.484375 137.164062 79.515625 C 137.164062 79.53125 137.164062 79.554688 137.183594 79.574219 C 137.277344 79.65625 137.382812 79.726562 137.507812 79.804688 C 137.816406 79.988281 138.152344 80.128906 138.476562 80.265625 C 138.722656 80.367188 138.980469 80.476562 139.222656 80.601562 C 139.226562 80.601562 139.25 80.589844 139.265625 80.582031 L 139.277344 80.574219 C 139.230469 80.496094 139.207031 80.410156 139.207031 80.316406 C 139.203125 80.0625 139.089844 79.867188 138.859375 79.71875 "/>
<path fill-rule="nonzero" fill="rgb(76.862745%, 52.941176%, 28.235294%)" fill-opacity="1" d="M 149.070312 79.382812 C 148.878906 79.378906 148.707031 79.308594 148.539062 79.246094 C 148.476562 79.222656 148.414062 79.195312 148.351562 79.175781 C 148.3125 79.164062 148.28125 79.15625 148.25 79.15625 C 148.21875 79.15625 148.195312 79.164062 148.164062 79.1875 C 148.121094 79.230469 148.074219 79.277344 148.03125 79.320312 C 147.9375 79.417969 147.839844 79.515625 147.722656 79.574219 C 147.597656 79.636719 147.507812 79.722656 147.414062 79.8125 C 147.371094 79.855469 147.324219 79.898438 147.28125 79.933594 C 147.136719 80.054688 147.078125 80.199219 147.101562 80.367188 L 147.101562 80.410156 C 147.101562 80.441406 147.101562 80.464844 147.105469 80.492188 C 147.105469 80.550781 147.113281 80.570312 147.121094 80.574219 C 147.128906 80.578125 147.152344 80.578125 147.199219 80.554688 C 147.242188 80.535156 147.28125 80.519531 147.320312 80.496094 C 147.398438 80.457031 147.480469 80.414062 147.566406 80.386719 C 147.90625 80.277344 148.226562 80.105469 148.535156 79.941406 C 148.726562 79.84375 148.921875 79.738281 149.121094 79.648438 C 149.1875 79.617188 149.175781 79.523438 149.164062 79.46875 C 149.15625 79.433594 149.132812 79.386719 149.070312 79.382812 "/>
<path fill-rule="nonzero" fill="rgb(25.098039%, 30.980392%, 34.901961%)" fill-opacity="1" d="M 137.59375 78.023438 C 137.636719 78.042969 137.675781 78.042969 137.710938 78.023438 C 137.753906 78 137.777344 77.945312 137.777344 77.878906 C 137.78125 77.746094 137.78125 77.609375 137.777344 77.472656 L 137.777344 77.269531 L 137.78125 77.269531 C 137.78125 77.230469 137.777344 77.191406 137.777344 77.152344 C 137.773438 77.042969 137.769531 76.933594 137.785156 76.824219 C 137.804688 76.675781 137.765625 76.542969 137.722656 76.402344 C 137.707031 76.339844 137.6875 76.277344 137.671875 76.210938 C 137.660156 76.15625 137.625 76.132812 137.578125 76.101562 C 137.566406 76.09375 137.550781 76.082031 137.535156 76.074219 C 137.3125 75.90625 137.054688 75.945312 136.832031 76.007812 C 136.671875 76.050781 136.507812 76.074219 136.316406 76.074219 C 135.96875 76.082031 135.625 76.082031 135.277344 76.085938 C 135.097656 76.085938 134.914062 76.085938 134.734375 76.089844 L 134.675781 76.089844 C 134.617188 76.089844 134.558594 76.089844 134.503906 76.101562 C 134.484375 76.101562 134.453125 76.128906 134.441406 76.15625 C 134.386719 76.285156 134.441406 76.453125 134.558594 76.507812 C 134.652344 76.550781 134.742188 76.59375 134.835938 76.640625 C 135 76.71875 135.164062 76.800781 135.335938 76.871094 C 135.804688 77.070312 136.273438 77.304688 136.726562 77.574219 C 136.96875 77.714844 137.226562 77.84375 137.476562 77.964844 Z M 137.59375 78.023438 "/>
<path fill-rule="nonzero" fill="rgb(76.862745%, 52.941176%, 28.235294%)" fill-opacity="1" d="M 133.214844 67.960938 C 133.238281 68.023438 133.277344 68.089844 133.316406 68.152344 C 133.328125 68.171875 133.339844 68.191406 133.347656 68.210938 C 133.378906 68.257812 133.410156 68.308594 133.441406 68.359375 C 133.503906 68.453125 133.566406 68.554688 133.609375 68.660156 C 133.742188 69 134.007812 69.242188 134.261719 69.476562 L 134.335938 69.542969 C 134.351562 69.558594 134.363281 69.558594 134.367188 69.558594 C 134.386719 69.554688 134.414062 69.523438 134.425781 69.5 L 134.433594 69.496094 C 134.453125 69.464844 134.472656 69.429688 134.488281 69.390625 C 134.503906 69.359375 134.519531 69.324219 134.539062 69.292969 C 134.65625 69.117188 134.652344 68.949219 134.523438 68.722656 C 134.308594 68.339844 134.148438 67.929688 134.035156 67.617188 C 133.976562 67.457031 133.910156 67.296875 133.847656 67.140625 C 133.753906 66.914062 133.65625 66.679688 133.582031 66.441406 C 133.527344 66.28125 133.476562 66.183594 133.394531 66.101562 C 133.339844 66.042969 133.285156 65.988281 133.226562 65.929688 C 133.148438 65.847656 133.066406 65.765625 132.988281 65.679688 C 132.960938 65.648438 132.988281 65.570312 133.011719 65.542969 C 133.039062 65.511719 133.109375 65.480469 133.140625 65.5 C 133.441406 65.65625 133.652344 65.925781 133.820312 66.144531 C 133.839844 66.164062 133.84375 66.191406 133.84375 66.21875 C 133.847656 66.234375 133.847656 66.25 133.851562 66.261719 C 134.097656 66.980469 134.402344 67.722656 134.792969 68.539062 C 134.871094 68.703125 134.910156 68.863281 134.921875 69.046875 C 134.929688 69.261719 134.832031 69.4375 134.738281 69.605469 L 134.710938 69.652344 C 134.671875 69.726562 134.671875 69.777344 134.722656 69.832031 C 134.746094 69.859375 134.773438 69.890625 134.800781 69.914062 C 135.175781 70.246094 135.441406 70.597656 135.605469 70.980469 C 135.636719 71.054688 135.675781 71.117188 135.722656 71.167969 C 135.949219 71.40625 136.140625 71.699219 136.300781 72.039062 C 136.386719 72.230469 136.535156 72.304688 136.671875 72.351562 C 136.921875 72.441406 137.136719 72.488281 137.328125 72.5 C 137.679688 72.511719 138.035156 72.511719 138.382812 72.507812 C 138.539062 72.503906 138.695312 72.503906 138.851562 72.503906 C 138.925781 72.503906 138.957031 72.46875 138.964844 72.378906 C 138.964844 72.371094 138.96875 72.359375 138.96875 72.351562 C 138.96875 72.34375 138.96875 72.332031 138.96875 72.320312 C 139.015625 71.996094 139.179688 71.839844 139.472656 71.816406 C 139.472656 71.8125 139.472656 71.808594 139.46875 71.804688 C 139.453125 71.648438 139.421875 71.488281 139.371094 71.335938 C 139.359375 71.296875 139.347656 71.257812 139.335938 71.21875 C 139.328125 71.207031 139.316406 71.195312 139.308594 71.1875 C 139.265625 71.140625 139.222656 71.097656 139.203125 71.042969 C 139.179688 70.984375 139.15625 70.921875 139.132812 70.863281 C 139.058594 70.679688 138.980469 70.488281 138.953125 70.285156 C 138.875 70.21875 138.859375 70.128906 138.84375 70.042969 C 138.832031 69.976562 138.816406 69.914062 138.78125 69.863281 C 138.726562 69.78125 138.640625 69.761719 138.550781 69.746094 C 138.46875 69.730469 138.386719 69.714844 138.324219 69.652344 C 138.3125 69.640625 138.285156 69.632812 138.261719 69.640625 C 138.246094 69.640625 138.222656 69.652344 138.210938 69.675781 C 138.191406 69.726562 138.164062 69.773438 138.140625 69.820312 C 138.070312 69.957031 138 70.101562 137.960938 70.25 C 137.9375 70.339844 137.894531 70.417969 137.847656 70.5 C 137.773438 70.625 137.707031 70.742188 137.742188 70.882812 C 137.777344 71.027344 137.855469 71.171875 137.929688 71.308594 C 137.960938 71.375 137.996094 71.4375 138.027344 71.503906 C 138.042969 71.527344 138.039062 71.558594 138.027344 71.578125 C 138.007812 71.613281 137.96875 71.632812 137.914062 71.636719 C 137.847656 71.640625 137.746094 71.636719 137.6875 71.546875 C 137.660156 71.496094 137.632812 71.445312 137.609375 71.394531 C 137.59375 71.355469 137.574219 71.320312 137.554688 71.285156 C 137.398438 70.992188 137.394531 70.714844 137.546875 70.4375 C 137.609375 70.328125 137.648438 70.207031 137.6875 70.089844 C 137.738281 69.9375 137.789062 69.78125 137.886719 69.640625 C 137.914062 69.597656 137.917969 69.5 137.890625 69.449219 C 137.839844 69.347656 137.75 69.285156 137.632812 69.273438 C 137.539062 69.265625 137.472656 69.304688 137.421875 69.394531 C 137.367188 69.488281 137.324219 69.59375 137.285156 69.691406 L 137.253906 69.761719 C 137.234375 69.804688 137.21875 69.855469 137.199219 69.902344 C 137.167969 70 137.132812 70.101562 137.074219 70.1875 C 137.027344 70.253906 137.027344 70.328125 137.023438 70.40625 C 137.023438 70.480469 137.019531 70.558594 136.976562 70.628906 C 136.953125 70.664062 136.890625 70.679688 136.855469 70.675781 C 136.820312 70.671875 136.75 70.644531 136.742188 70.601562 L 136.734375 70.558594 C 136.707031 70.371094 136.671875 70.15625 136.78125 70.011719 C 136.875 69.886719 136.925781 69.738281 136.980469 69.597656 C 137.03125 69.457031 137.085938 69.3125 137.183594 69.183594 C 137.199219 69.160156 137.203125 69.132812 137.199219 69.109375 C 137.191406 69.074219 137.164062 69.042969 137.128906 69.023438 C 136.976562 68.945312 136.828125 68.851562 136.683594 68.761719 C 136.492188 68.640625 136.292969 68.515625 136.082031 68.417969 C 135.804688 68.296875 135.59375 68.105469 135.433594 67.839844 C 135.339844 67.679688 135.226562 67.527344 135.121094 67.378906 C 134.992188 67.207031 134.859375 67.023438 134.753906 66.832031 C 134.628906 66.597656 134.460938 66.390625 134.296875 66.191406 C 134.199219 66.070312 134.097656 65.941406 134.003906 65.808594 C 133.878906 65.632812 133.683594 65.378906 133.441406 65.234375 C 133.25 65.125 133.054688 65.019531 132.863281 64.917969 C 132.617188 64.789062 132.367188 64.65625 132.128906 64.507812 C 132.035156 64.449219 131.925781 64.460938 131.804688 64.484375 C 131.785156 64.488281 131.773438 64.496094 131.773438 64.503906 C 131.769531 64.507812 131.773438 64.511719 131.777344 64.515625 C 131.960938 64.6875 132.039062 64.910156 132.113281 65.128906 C 132.140625 65.199219 132.164062 65.273438 132.195312 65.34375 C 132.324219 65.660156 132.464844 66.007812 132.585938 66.359375 C 132.613281 66.441406 132.636719 66.519531 132.660156 66.601562 C 132.71875 66.789062 132.777344 66.988281 132.875 67.164062 C 133.023438 67.441406 133.136719 67.734375 133.214844 67.960938 "/>
<path fill-rule="nonzero" fill="rgb(25.098039%, 30.980392%, 34.901961%)" fill-opacity="1" d="M 138.746094 73.8125 L 139.367188 73.8125 C 139.550781 73.808594 139.558594 73.800781 139.554688 73.589844 C 139.554688 73.5625 139.554688 73.535156 139.554688 73.507812 C 139.550781 73.457031 139.550781 73.402344 139.550781 73.351562 C 139.558594 73.242188 139.519531 73.148438 139.425781 73.066406 C 139.398438 73.039062 139.371094 73.015625 139.34375 72.988281 C 139.300781 72.949219 139.257812 72.90625 139.210938 72.871094 C 139.15625 72.828125 139.109375 72.804688 139.070312 72.804688 C 138.71875 72.800781 138.335938 72.804688 137.902344 72.8125 C 137.886719 72.8125 137.847656 72.847656 137.847656 72.859375 C 137.847656 73.121094 137.84375 73.425781 137.859375 73.738281 C 137.863281 73.753906 137.925781 73.800781 137.960938 73.800781 C 138.152344 73.808594 138.34375 73.808594 138.527344 73.804688 L 138.746094 73.804688 Z M 138.453125 73.363281 C 138.414062 73.359375 138.390625 73.277344 138.394531 73.246094 C 138.394531 73.210938 138.421875 73.136719 138.464844 73.132812 C 138.75 73.082031 139.035156 73.097656 139.273438 73.125 C 139.308594 73.125 139.328125 73.167969 139.351562 73.21875 C 139.371094 73.261719 139.355469 73.308594 139.335938 73.339844 C 139.316406 73.371094 139.289062 73.390625 139.261719 73.390625 C 139.164062 73.394531 139.066406 73.394531 138.96875 73.394531 L 138.878906 73.394531 L 138.878906 73.417969 L 138.851562 73.414062 C 138.820312 73.410156 138.785156 73.40625 138.753906 73.402344 C 138.652344 73.390625 138.554688 73.382812 138.453125 73.363281 "/>
<g clip-path="url(#clip-0)">
<path fill-rule="nonzero" fill="rgb(25.098039%, 30.980392%, 34.901961%)" fill-opacity="1" d="M 138.425781 67.914062 C 138.425781 67.9375 138.425781 67.960938 138.433594 67.980469 C 138.484375 68.125 138.53125 68.269531 138.578125 68.414062 C 138.695312 68.769531 138.816406 69.136719 138.964844 69.488281 C 139.0625 69.710938 139.140625 69.945312 139.214844 70.171875 C 139.289062 70.390625 139.363281 70.617188 139.453125 70.835938 C 139.488281 70.910156 139.484375 71 139.476562 71.082031 C 139.511719 71.144531 139.507812 71.210938 139.527344 71.277344 C 139.546875 71.339844 139.585938 71.386719 139.628906 71.441406 C 139.65625 71.472656 139.679688 71.507812 139.703125 71.539062 C 139.734375 71.582031 139.765625 71.625 139.785156 71.675781 C 139.800781 71.71875 139.800781 71.765625 139.785156 71.808594 C 139.890625 71.808594 139.996094 71.804688 140.097656 71.808594 C 140.199219 71.808594 140.300781 71.804688 140.402344 71.808594 L 140.464844 71.808594 C 140.523438 71.808594 140.578125 71.808594 140.628906 71.800781 C 140.730469 71.78125 140.792969 71.699219 140.824219 71.628906 C 140.863281 71.558594 140.796875 71.496094 140.753906 71.464844 C 140.421875 71.238281 140.246094 70.898438 140.074219 70.566406 C 139.992188 70.40625 139.910156 70.238281 139.808594 70.089844 C 139.785156 70.054688 139.828125 69.980469 139.855469 69.960938 C 139.886719 69.9375 139.957031 69.921875 139.992188 69.945312 C 140.21875 70.082031 140.332031 70.320312 140.40625 70.511719 C 140.523438 70.8125 140.71875 71.058594 141.046875 71.308594 C 141.058594 71.300781 141.074219 71.289062 141.082031 71.28125 C 141.109375 71.265625 141.128906 71.25 141.140625 71.234375 C 141.265625 71.0625 141.433594 70.980469 141.675781 70.980469 L 141.722656 70.980469 C 141.976562 70.992188 142.238281 70.988281 142.488281 70.988281 C 142.605469 70.984375 142.71875 70.984375 142.835938 70.984375 C 142.914062 70.984375 142.953125 70.945312 142.953125 70.867188 C 142.957031 70.417969 142.957031 69.96875 142.960938 69.519531 C 142.960938 69.375 142.960938 69.226562 142.960938 69.082031 C 142.964844 68.6875 142.96875 68.277344 142.957031 67.878906 C 142.953125 67.722656 142.992188 67.582031 143.03125 67.445312 C 143.050781 67.363281 143.074219 67.28125 143.085938 67.199219 C 143.089844 67.160156 143.167969 67.140625 143.203125 67.140625 L 143.207031 67.140625 C 143.242188 67.140625 143.3125 67.167969 143.324219 67.207031 C 143.339844 67.273438 143.34375 67.351562 143.347656 67.445312 C 143.347656 68.023438 143.347656 68.605469 143.347656 69.1875 C 143.347656 69.605469 143.351562 70.019531 143.351562 70.433594 C 143.351562 70.585938 143.351562 70.746094 143.359375 70.902344 C 143.363281 70.949219 143.394531 70.980469 143.449219 70.980469 C 143.527344 70.984375 143.605469 70.984375 143.683594 70.984375 L 143.949219 70.988281 C 144.207031 70.988281 144.476562 70.992188 144.738281 70.988281 L 144.746094 70.988281 C 144.875 70.988281 144.976562 71.03125 145.066406 71.128906 C 145.113281 71.175781 145.160156 71.222656 145.210938 71.269531 C 145.230469 71.285156 145.25 71.304688 145.269531 71.320312 C 145.308594 71.285156 145.347656 71.25 145.386719 71.214844 C 145.488281 71.121094 145.589844 71.035156 145.667969 70.929688 C 145.71875 70.867188 145.753906 70.789062 145.789062 70.714844 C 145.824219 70.632812 145.863281 70.550781 145.917969 70.480469 C 145.96875 70.417969 146.007812 70.347656 146.046875 70.277344 C 146.109375 70.160156 146.175781 70.039062 146.292969 69.957031 C 146.328125 69.933594 146.378906 69.9375 146.417969 69.941406 C 146.445312 69.945312 146.46875 69.964844 146.488281 69.992188 C 146.507812 70.027344 146.523438 70.082031 146.507812 70.121094 C 146.503906 70.128906 146.5 70.140625 146.492188 70.148438 C 146.488281 70.15625 146.484375 70.164062 146.480469 70.171875 C 146.441406 70.261719 146.386719 70.34375 146.332031 70.425781 C 146.234375 70.570312 146.144531 70.707031 146.117188 70.878906 L 146.117188 70.882812 L 146.113281 70.890625 C 146.066406 70.9375 146.027344 70.996094 145.988281 71.054688 C 145.910156 71.171875 145.828125 71.292969 145.679688 71.355469 C 145.640625 71.371094 145.609375 71.40625 145.578125 71.445312 C 145.554688 71.464844 145.535156 71.488281 145.515625 71.507812 C 145.492188 71.527344 145.488281 71.539062 145.488281 71.542969 C 145.488281 71.546875 145.484375 71.554688 145.496094 71.566406 C 145.511719 71.582031 145.527344 71.601562 145.542969 71.617188 C 145.625 71.714844 145.699219 71.808594 145.84375 71.808594 L 145.847656 71.808594 C 146.085938 71.804688 146.328125 71.808594 146.570312 71.808594 C 146.554688 71.765625 146.554688 71.71875 146.570312 71.675781 C 146.589844 71.625 146.621094 71.582031 146.652344 71.539062 C 146.675781 71.507812 146.703125 71.472656 146.726562 71.441406 C 146.769531 71.386719 146.808594 71.339844 146.828125 71.277344 C 146.835938 71.246094 146.835938 71.222656 146.839844 71.195312 C 146.839844 71.1875 146.828125 71.183594 146.828125 71.175781 L 146.828125 71.132812 C 146.828125 71.03125 146.832031 70.925781 146.859375 70.828125 C 146.914062 70.65625 146.980469 70.484375 147.046875 70.320312 L 147.082031 70.234375 C 147.117188 70.144531 147.15625 70.058594 147.191406 69.972656 C 147.269531 69.800781 147.351562 69.621094 147.394531 69.4375 C 147.472656 69.105469 147.570312 68.820312 147.6875 68.566406 C 147.761719 68.414062 147.800781 68.25 147.835938 68.09375 C 147.867188 67.960938 147.902344 67.820312 147.953125 67.691406 C 147.957031 67.675781 147.929688 67.621094 147.886719 67.582031 C 147.808594 67.503906 147.75 67.503906 147.671875 67.582031 C 147.355469 67.902344 147.039062 68.222656 146.726562 68.542969 C 146.679688 68.589844 146.632812 68.636719 146.585938 68.683594 C 146.402344 68.867188 146.210938 69.054688 146.082031 69.28125 C 146.066406 69.3125 146.042969 69.332031 146.019531 69.355469 C 146.011719 69.363281 146.003906 69.367188 145.996094 69.375 C 145.984375 69.386719 145.96875 69.398438 145.957031 69.410156 C 145.941406 69.425781 145.925781 69.4375 145.910156 69.453125 C 145.859375 69.503906 145.792969 69.515625 145.722656 69.484375 C 145.691406 69.472656 145.671875 69.449219 145.660156 69.417969 C 145.648438 69.382812 145.652344 69.335938 145.671875 69.300781 C 145.777344 69.085938 145.90625 68.914062 146.0625 68.785156 C 146.191406 68.671875 146.253906 68.558594 146.261719 68.402344 C 146.261719 68.34375 146.285156 68.285156 146.3125 68.21875 C 146.332031 68.171875 146.351562 68.125 146.363281 68.074219 C 146.382812 67.96875 146.402344 67.863281 146.421875 67.761719 C 146.449219 67.605469 146.480469 67.441406 146.515625 67.285156 C 146.554688 67.125 146.597656 66.964844 146.636719 66.808594 C 146.707031 66.550781 146.78125 66.28125 146.828125 66.011719 L 146.832031 66 C 146.917969 65.882812 146.925781 65.746094 146.933594 65.601562 C 146.941406 65.496094 146.949219 65.382812 146.992188 65.277344 C 147.074219 65.074219 147.066406 64.859375 147.058594 64.652344 C 147.058594 64.617188 147.054688 64.578125 147.054688 64.542969 C 147.054688 64.523438 147.042969 64.511719 147.035156 64.503906 C 147.015625 64.484375 146.988281 64.476562 146.957031 64.476562 L 146.941406 64.476562 C 146.847656 64.476562 146.785156 64.480469 146.746094 64.582031 C 146.699219 64.695312 146.640625 64.808594 146.582031 64.917969 C 146.5625 64.960938 146.539062 65.003906 146.515625 65.046875 C 146.453125 65.171875 146.390625 65.300781 146.328125 65.425781 C 146.089844 65.914062 145.839844 66.417969 145.539062 66.882812 L 145.507812 66.929688 C 145.414062 67.074219 145.316406 67.222656 145.238281 67.375 C 145.140625 67.566406 145.074219 67.738281 145.03125 67.898438 C 145.011719 67.976562 144.964844 68.042969 144.925781 68.109375 C 144.855469 68.214844 144.789062 68.316406 144.832031 68.449219 C 144.875 68.582031 144.871094 68.714844 144.867188 68.84375 C 144.867188 68.90625 144.863281 68.972656 144.867188 69.035156 C 144.867188 69.042969 144.871094 69.050781 144.871094 69.058594 C 144.875 69.097656 144.878906 69.136719 144.855469 69.167969 C 144.773438 69.28125 144.773438 69.40625 144.773438 69.542969 C 144.773438 69.621094 144.773438 69.699219 144.753906 69.777344 C 144.75 69.800781 144.730469 69.828125 144.710938 69.835938 L 144.703125 69.84375 L 144.683594 69.839844 C 144.648438 69.832031 144.601562 69.820312 144.578125 69.789062 C 144.453125 69.617188 144.433594 69.402344 144.527344 69.160156 C 144.582031 69.019531 144.625 68.859375 144.554688 68.734375 C 144.492188 68.625 144.492188 68.511719 144.488281 68.402344 C 144.484375 68.300781 144.484375 68.199219 144.433594 68.113281 C 144.351562 67.972656 144.355469 67.824219 144.359375 67.683594 C 144.359375 67.613281 144.363281 67.542969 144.351562 67.472656 C 144.347656 67.441406 144.351562 67.40625 144.355469 67.375 C 144.359375 67.324219 144.363281 67.28125 144.34375 67.253906 C 144.25 67.101562 144.246094 66.933594 144.238281 66.769531 C 144.230469 66.601562 144.226562 66.445312 144.132812 66.304688 L 144.128906 66.296875 L 144.128906 66.285156 C 144.152344 66.148438 144.113281 66.023438 144.070312 65.886719 C 144.039062 65.78125 144.003906 65.667969 144.007812 65.550781 C 144.007812 65.441406 143.976562 65.339844 143.941406 65.230469 C 143.902344 65.101562 143.859375 64.96875 143.878906 64.824219 C 143.800781 64.707031 143.792969 64.578125 143.789062 64.449219 C 143.78125 64.34375 143.777344 64.246094 143.730469 64.160156 C 143.683594 64.074219 143.675781 63.984375 143.667969 63.898438 C 143.664062 63.8125 143.65625 63.730469 143.613281 63.660156 C 143.539062 63.542969 143.539062 63.421875 143.539062 63.300781 C 143.539062 63.246094 143.539062 63.191406 143.53125 63.136719 C 143.519531 63.039062 143.324219 62.453125 143.273438 62.398438 C 143.246094 62.371094 143.179688 62.359375 143.136719 62.363281 C 143.085938 62.367188 143.023438 62.402344 143.019531 62.417969 C 142.996094 62.566406 142.945312 62.707031 142.894531 62.84375 C 142.820312 63.042969 142.746094 63.25 142.761719 63.46875 C 142.769531 63.5625 142.75 63.65625 142.703125 63.761719 C 142.667969 63.847656 142.652344 63.9375 142.636719 64.03125 C 142.617188 64.140625 142.597656 64.257812 142.539062 64.363281 C 142.558594 64.5 142.519531 64.625 142.480469 64.746094 C 142.449219 64.84375 142.421875 64.9375 142.417969 65.035156 C 142.417969 65.167969 142.382812 65.292969 142.347656 65.414062 C 142.300781 65.570312 142.257812 65.722656 142.285156 65.882812 L 142.285156 65.898438 L 142.28125 65.90625 C 142.195312 66.007812 142.191406 66.128906 142.183594 66.253906 C 142.183594 66.300781 142.179688 66.347656 142.171875 66.394531 C 142.160156 66.492188 142.140625 66.589844 142.117188 66.683594 C 142.097656 66.773438 142.078125 66.867188 142.066406 66.957031 C 142.0625 66.996094 142.054688 67.035156 142.050781 67.074219 C 142.035156 67.203125 142.019531 67.335938 141.972656 67.472656 C 141.941406 67.554688 141.945312 67.648438 141.953125 67.75 C 141.957031 67.851562 141.960938 67.957031 141.925781 68.050781 C 141.808594 68.359375 141.816406 68.675781 141.824219 68.988281 C 141.828125 69.113281 141.828125 69.238281 141.824219 69.367188 C 141.820312 69.421875 141.824219 69.476562 141.824219 69.53125 C 141.824219 69.574219 141.824219 69.617188 141.824219 69.660156 L 141.824219 69.671875 C 141.824219 69.710938 141.824219 69.753906 141.800781 69.785156 C 141.78125 69.816406 141.746094 69.832031 141.710938 69.847656 L 141.699219 69.851562 C 141.671875 69.863281 141.640625 69.863281 141.617188 69.851562 C 141.59375 69.839844 141.578125 69.820312 141.570312 69.792969 C 141.546875 69.726562 141.539062 69.671875 141.539062 69.617188 C 141.535156 69.371094 141.535156 69.125 141.535156 68.855469 C 141.535156 68.703125 141.535156 68.542969 141.539062 68.386719 C 141.542969 68.289062 141.484375 68.230469 141.425781 68.164062 C 141.382812 68.113281 141.339844 68.0625 141.316406 68 C 141.3125 67.976562 141.3125 67.957031 141.308594 67.9375 C 141.308594 67.917969 141.308594 67.898438 141.300781 67.886719 C 141.265625 67.804688 141.230469 67.722656 141.195312 67.640625 C 141.109375 67.445312 141.023438 67.238281 140.898438 67.0625 C 140.78125 66.890625 140.683594 66.703125 140.589844 66.523438 C 140.535156 66.417969 140.480469 66.308594 140.421875 66.203125 L 140.382812 66.140625 C 140.222656 65.867188 140.058594 65.585938 139.914062 65.296875 L 139.898438 65.265625 C 139.84375 65.160156 139.789062 65.046875 139.769531 64.914062 C 139.753906 64.816406 139.691406 64.71875 139.628906 64.628906 C 139.617188 64.605469 139.601562 64.585938 139.589844 64.566406 C 139.5625 64.523438 139.507812 64.496094 139.464844 64.476562 C 139.417969 64.453125 139.359375 64.457031 139.316406 64.484375 C 139.273438 64.511719 139.246094 64.550781 139.246094 64.597656 C 139.238281 64.761719 139.269531 64.921875 139.300781 65.078125 C 139.316406 65.160156 139.335938 65.246094 139.34375 65.332031 C 139.363281 65.464844 139.398438 65.59375 139.429688 65.722656 C 139.46875 65.867188 139.507812 66.015625 139.519531 66.167969 C 139.582031 66.246094 139.582031 66.335938 139.585938 66.417969 C 139.589844 66.488281 139.589844 66.554688 139.625 66.605469 C 139.691406 66.695312 139.699219 66.792969 139.707031 66.886719 C 139.710938 66.964844 139.71875 67.042969 139.757812 67.105469 C 139.820312 67.199219 139.824219 67.300781 139.828125 67.394531 C 139.828125 67.453125 139.832031 67.511719 139.847656 67.566406 C 139.882812 67.6875 139.902344 67.8125 139.925781 67.929688 C 139.9375 68.015625 139.953125 68.101562 139.972656 68.183594 C 139.980469 68.210938 139.984375 68.234375 139.988281 68.257812 C 140.035156 68.46875 140.082031 68.6875 140.285156 68.824219 C 140.394531 68.902344 140.484375 69.015625 140.566406 69.121094 L 140.609375 69.171875 C 140.640625 69.207031 140.644531 69.257812 140.652344 69.308594 C 140.652344 69.320312 140.652344 69.332031 140.65625 69.347656 C 140.664062 69.390625 140.652344 69.429688 140.621094 69.457031 C 140.601562 69.476562 140.566406 69.484375 140.535156 69.476562 C 140.394531 69.441406 140.320312 69.339844 140.246094 69.242188 C 140.21875 69.203125 140.1875 69.160156 140.152344 69.125 C 139.675781 68.628906 139.199219 68.148438 138.757812 67.703125 C 138.742188 67.6875 138.726562 67.667969 138.710938 67.652344 C 138.652344 67.585938 138.597656 67.523438 138.496094 67.535156 C 138.441406 67.542969 138.398438 67.648438 138.425781 67.867188 C 138.425781 67.882812 138.425781 67.898438 138.425781 67.914062 "/>
</g>
<path fill-rule="nonzero" fill="rgb(25.098039%, 30.980392%, 34.901961%)" fill-opacity="1" d="M 151.820312 76.105469 C 151.773438 76.085938 151.714844 76.089844 151.65625 76.089844 L 151.601562 76.089844 C 151.363281 76.085938 151.128906 76.085938 150.890625 76.082031 C 150.5625 76.082031 150.234375 76.082031 149.90625 76.074219 L 149.898438 76.074219 C 149.765625 76.074219 149.636719 76.070312 149.5 76.015625 C 149.386719 75.972656 149.253906 75.972656 149.121094 75.972656 L 149.050781 75.972656 C 148.839844 75.972656 148.632812 76.175781 148.628906 76.386719 C 148.621094 76.5625 148.625 76.742188 148.625 76.914062 C 148.625 76.992188 148.625 77.070312 148.625 77.144531 L 148.625 77.171875 L 148.621094 77.171875 L 148.621094 77.726562 C 148.621094 77.785156 148.621094 77.84375 148.625 77.902344 C 148.625 77.957031 148.644531 77.996094 148.671875 78.015625 C 148.703125 78.035156 148.746094 78.019531 148.777344 78.003906 C 149.789062 77.503906 150.800781 77 151.8125 76.496094 C 151.835938 76.484375 151.859375 76.464844 151.882812 76.445312 L 151.898438 76.429688 C 151.945312 76.386719 151.996094 76.320312 151.964844 76.253906 C 151.933594 76.191406 151.875 76.132812 151.820312 76.105469 "/>
<path fill-rule="nonzero" fill="rgb(76.862745%, 52.941176%, 28.235294%)" fill-opacity="1" d="M 146.890625 76.324219 C 146.808594 76.324219 146.726562 76.324219 146.644531 76.320312 C 146.546875 76.320312 146.449219 76.320312 146.347656 76.320312 C 146.25 76.320312 146.15625 76.292969 146.070312 76.265625 C 146.03125 76.253906 145.992188 76.242188 145.953125 76.230469 C 145.75 76.183594 145.550781 76.113281 145.359375 76.046875 C 145.125 75.96875 144.886719 75.882812 144.636719 75.835938 C 144.28125 75.765625 144.058594 75.585938 143.976562 75.296875 C 143.957031 75.226562 143.917969 75.160156 143.878906 75.097656 C 143.863281 75.066406 143.832031 75.039062 143.816406 75.039062 C 143.773438 75.035156 143.730469 75.03125 143.691406 75.027344 C 143.503906 75.011719 143.308594 74.996094 143.128906 74.914062 C 143.113281 74.90625 143.066406 74.921875 143.046875 74.9375 C 142.933594 75.027344 142.804688 75.023438 142.683594 75.019531 C 142.664062 75.019531 142.648438 75.019531 142.628906 75.019531 C 142.488281 75.019531 142.433594 75.074219 142.402344 75.234375 C 142.351562 75.480469 142.183594 75.664062 141.941406 75.730469 C 141.882812 75.75 141.828125 75.773438 141.769531 75.800781 C 141.722656 75.820312 141.671875 75.84375 141.621094 75.859375 C 141.429688 75.925781 141.234375 75.976562 141.042969 76.03125 C 140.835938 76.085938 140.621094 76.144531 140.414062 76.214844 C 140.242188 76.277344 140.050781 76.335938 139.84375 76.320312 C 139.710938 76.316406 139.578125 76.320312 139.449219 76.324219 L 139.433594 76.324219 C 139.382812 76.328125 139.328125 76.335938 139.269531 76.351562 C 139.199219 76.371094 139.132812 76.496094 139.132812 76.613281 C 139.132812 76.695312 139.160156 76.730469 139.238281 76.753906 C 139.453125 76.8125 139.601562 76.933594 139.679688 77.117188 C 139.6875 77.136719 139.710938 77.152344 139.738281 77.167969 C 139.746094 77.175781 139.75 77.179688 139.757812 77.183594 C 139.792969 77.207031 139.847656 77.214844 139.902344 77.203125 C 139.957031 77.1875 140 77.160156 140.015625 77.125 C 140.054688 77.039062 140.09375 76.957031 140.132812 76.859375 C 140.199219 76.707031 140.308594 76.628906 140.46875 76.625 C 140.5625 76.625 140.660156 76.628906 140.757812 76.617188 C 140.9375 76.597656 141.023438 76.707031 141.109375 76.832031 C 141.160156 76.910156 141.222656 76.957031 141.28125 76.964844 C 141.332031 76.976562 141.386719 76.957031 141.4375 76.917969 C 141.542969 76.835938 141.640625 76.75 141.648438 76.609375 C 141.664062 76.394531 141.792969 76.273438 142.015625 76.269531 C 142.121094 76.269531 142.246094 76.265625 142.371094 76.269531 C 142.492188 76.269531 142.519531 76.375 142.539062 76.441406 C 142.542969 76.460938 142.554688 76.476562 142.5625 76.476562 C 142.574219 76.480469 142.59375 76.46875 142.609375 76.449219 C 142.660156 76.402344 142.691406 76.339844 142.710938 76.261719 C 142.785156 75.976562 142.84375 75.929688 143.125 75.929688 C 143.152344 75.929688 143.179688 75.929688 143.203125 75.929688 C 143.300781 75.929688 143.394531 75.925781 143.476562 76 C 143.605469 76.109375 143.71875 76.226562 143.703125 76.410156 C 143.703125 76.421875 143.707031 76.4375 143.714844 76.453125 C 143.71875 76.460938 143.722656 76.46875 143.730469 76.472656 C 143.730469 76.472656 143.734375 76.472656 143.738281 76.46875 C 143.75 76.460938 143.769531 76.449219 143.769531 76.441406 C 143.785156 76.371094 143.820312 76.277344 143.941406 76.269531 C 144.050781 76.265625 144.148438 76.265625 144.234375 76.265625 C 144.523438 76.28125 144.65625 76.390625 144.75 76.6875 C 144.753906 76.699219 144.753906 76.710938 144.753906 76.722656 C 144.753906 76.730469 144.753906 76.738281 144.757812 76.742188 C 144.800781 76.886719 144.875 76.949219 145.019531 76.964844 C 145.136719 76.980469 145.234375 76.921875 145.269531 76.816406 C 145.316406 76.679688 145.394531 76.617188 145.527344 76.617188 L 145.546875 76.617188 L 145.59375 76.621094 C 145.65625 76.625 145.71875 76.628906 145.78125 76.621094 C 145.792969 76.621094 145.804688 76.621094 145.816406 76.621094 C 145.984375 76.621094 146.09375 76.722656 146.195312 76.835938 C 146.257812 76.902344 146.269531 76.976562 146.28125 77.046875 C 146.285156 77.070312 146.289062 77.09375 146.292969 77.117188 C 146.300781 77.148438 146.335938 77.179688 146.386719 77.199219 C 146.445312 77.21875 146.503906 77.214844 146.539062 77.1875 L 146.554688 77.179688 C 146.609375 77.136719 146.671875 77.089844 146.691406 77.035156 C 146.722656 76.929688 146.789062 76.867188 146.902344 76.832031 C 146.96875 76.808594 147.039062 76.777344 147.113281 76.742188 C 147.15625 76.722656 147.175781 76.683594 147.175781 76.625 C 147.179688 76.476562 147.175781 76.402344 147.136719 76.363281 C 147.109375 76.335938 147.054688 76.324219 146.941406 76.324219 Z M 146.890625 76.324219 "/>
<path fill-rule="nonzero" fill="rgb(61.960784%, 21.176471%, 13.72549%)" fill-opacity="1" d="M 141.800781 81.1875 C 141.960938 81.078125 142.148438 81.042969 142.363281 81.078125 C 142.511719 81.105469 142.535156 81.1875 142.527344 81.25 C 142.519531 81.351562 142.550781 81.4375 142.582031 81.53125 C 142.605469 81.597656 142.632812 81.671875 142.636719 81.746094 C 142.648438 81.863281 142.648438 81.980469 142.648438 82.089844 C 142.648438 82.152344 142.648438 82.214844 142.652344 82.273438 C 142.652344 82.304688 142.660156 82.324219 142.667969 82.328125 C 142.675781 82.332031 142.691406 82.335938 142.746094 82.296875 C 142.875 82.207031 143.007812 82.160156 143.140625 82.160156 C 143.28125 82.160156 143.425781 82.210938 143.574219 82.308594 C 143.585938 82.316406 143.605469 82.324219 143.628906 82.332031 C 143.632812 82.335938 143.636719 82.335938 143.644531 82.339844 C 143.640625 82.148438 143.679688 81.96875 143.714844 81.792969 C 143.753906 81.609375 143.792969 81.421875 143.78125 81.230469 C 143.78125 81.1875 143.816406 81.128906 143.855469 81.113281 L 143.890625 81.097656 C 143.984375 81.058594 144.085938 81.015625 144.1875 81.007812 C 144.242188 81.003906 144.304688 81.054688 144.359375 81.101562 C 144.367188 81.109375 144.378906 81.117188 144.386719 81.125 L 144.394531 81.128906 C 144.460938 81.183594 144.503906 81.214844 144.554688 81.175781 C 144.566406 81.164062 144.585938 81.132812 144.59375 81.035156 C 144.601562 80.96875 144.601562 80.898438 144.601562 80.828125 C 144.597656 80.78125 144.597656 80.734375 144.601562 80.6875 C 144.601562 80.609375 144.570312 80.546875 144.511719 80.519531 C 144.328125 80.425781 144.203125 80.269531 144.121094 80.027344 C 144.105469 79.980469 144.085938 79.933594 144.0625 79.886719 C 144.046875 79.847656 144.027344 79.808594 144.011719 79.765625 C 143.890625 79.445312 143.800781 79.378906 143.496094 79.375 L 143.222656 79.375 C 143.042969 79.375 142.859375 79.378906 142.675781 79.375 L 142.671875 79.375 C 142.566406 79.375 142.480469 79.429688 142.421875 79.539062 C 142.308594 79.753906 142.179688 80.003906 142.074219 80.261719 C 142.011719 80.410156 141.921875 80.5 141.789062 80.550781 C 141.734375 80.570312 141.707031 80.601562 141.710938 80.652344 C 141.714844 80.710938 141.71875 80.765625 141.722656 80.824219 C 141.726562 80.9375 141.734375 81.050781 141.746094 81.164062 C 141.753906 81.171875 141.785156 81.1875 141.800781 81.1875 "/>
<path fill-rule="nonzero" fill="rgb(76.862745%, 52.941176%, 28.235294%)" fill-opacity="1" d="M 145.882812 80.652344 L 145.882812 80.542969 C 145.882812 80.503906 145.875 80.476562 145.859375 80.46875 C 145.847656 80.460938 145.816406 80.472656 145.78125 80.496094 C 145.703125 80.550781 145.621094 80.542969 145.539062 80.472656 C 145.496094 80.4375 145.453125 80.398438 145.410156 80.363281 C 145.351562 80.308594 145.292969 80.257812 145.226562 80.207031 C 145.191406 80.183594 145.125 80.1875 145.066406 80.222656 C 145.023438 80.246094 145 80.277344 145 80.304688 C 145.019531 80.476562 144.984375 80.640625 144.945312 80.796875 C 144.914062 80.9375 144.882812 81.078125 144.890625 81.21875 C 144.898438 81.394531 144.796875 81.453125 144.691406 81.511719 L 144.65625 81.535156 C 144.523438 81.613281 144.417969 81.597656 144.3125 81.492188 C 144.304688 81.480469 144.292969 81.46875 144.28125 81.460938 C 144.265625 81.441406 144.246094 81.425781 144.230469 81.40625 C 144.1875 81.359375 144.136719 81.371094 144.105469 81.390625 C 144.089844 81.398438 144.070312 81.433594 144.066406 81.464844 C 144.054688 81.554688 144.054688 81.648438 144.046875 81.738281 C 144.039062 81.933594 144.03125 82.132812 143.960938 82.332031 C 143.925781 82.433594 143.929688 82.542969 143.933594 82.667969 C 143.9375 82.726562 143.941406 82.789062 143.9375 82.847656 C 143.933594 82.957031 143.804688 83.09375 143.691406 83.109375 C 143.6875 83.109375 143.683594 83.109375 143.679688 83.109375 C 143.601562 83.109375 143.46875 83.011719 143.441406 82.929688 C 143.429688 82.898438 143.425781 82.867188 143.421875 82.835938 C 143.421875 82.808594 143.417969 82.78125 143.410156 82.757812 C 143.394531 82.710938 143.371094 82.660156 143.335938 82.613281 C 143.296875 82.554688 143.226562 82.523438 143.148438 82.53125 C 143.082031 82.535156 143.023438 82.570312 143 82.625 C 142.976562 82.667969 142.957031 82.710938 142.941406 82.757812 C 142.90625 82.835938 142.871094 82.914062 142.828125 82.988281 C 142.796875 83.042969 142.726562 83.082031 142.671875 83.09375 C 142.625 83.097656 142.5625 83.054688 142.519531 83.019531 C 142.449219 82.960938 142.371094 82.875 142.371094 82.816406 C 142.371094 82.753906 142.367188 82.691406 142.363281 82.628906 C 142.355469 82.476562 142.34375 82.320312 142.359375 82.167969 C 142.375 82.046875 142.339844 81.9375 142.304688 81.824219 C 142.269531 81.71875 142.234375 81.609375 142.242188 81.488281 C 142.246094 81.433594 142.234375 81.394531 142.210938 81.382812 C 142.175781 81.367188 142.121094 81.382812 142.054688 81.433594 C 142.046875 81.441406 142.035156 81.449219 142.027344 81.460938 L 142.015625 81.472656 C 141.894531 81.601562 141.773438 81.617188 141.625 81.519531 C 141.613281 81.507812 141.597656 81.5 141.582031 81.492188 C 141.496094 81.4375 141.417969 81.386719 141.421875 81.246094 C 141.425781 81.144531 141.421875 81.039062 141.421875 80.9375 C 141.417969 80.847656 141.414062 80.753906 141.417969 80.660156 C 141.421875 80.554688 141.394531 80.460938 141.332031 80.34375 C 141.285156 80.261719 141.257812 80.21875 141.226562 80.210938 C 141.191406 80.203125 141.144531 80.230469 141.070312 80.28125 C 141 80.328125 140.925781 80.375 140.855469 80.417969 C 140.8125 80.445312 140.769531 80.472656 140.730469 80.5 C 140.617188 80.574219 140.519531 80.5 140.484375 80.472656 C 140.457031 80.453125 140.449219 80.453125 140.449219 80.453125 C 140.449219 80.453125 140.441406 80.457031 140.4375 80.480469 C 140.371094 80.824219 140.445312 81.039062 140.675781 81.15625 C 141.003906 81.324219 141.191406 81.589844 141.269531 81.988281 C 141.277344 82.035156 141.296875 82.078125 141.316406 82.121094 C 141.332031 82.167969 141.351562 82.210938 141.359375 82.257812 C 141.371094 82.320312 141.394531 82.351562 141.441406 82.375 C 141.464844 82.382812 141.484375 82.398438 141.507812 82.410156 C 141.554688 82.433594 141.601562 82.457031 141.644531 82.472656 C 141.808594 82.515625 141.898438 82.613281 141.953125 82.808594 C 141.984375 82.910156 142.03125 83.011719 142.078125 83.109375 C 142.117188 83.183594 142.152344 83.257812 142.179688 83.335938 C 142.203125 83.394531 142.246094 83.414062 142.300781 83.433594 C 142.335938 83.445312 142.371094 83.460938 142.402344 83.492188 C 142.429688 83.519531 142.453125 83.511719 142.5 83.488281 C 142.539062 83.472656 142.601562 83.445312 142.65625 83.496094 C 142.683594 83.523438 142.757812 83.53125 142.785156 83.515625 C 142.882812 83.457031 142.992188 83.429688 143.136719 83.4375 C 143.160156 83.4375 143.1875 83.4375 143.214844 83.4375 L 143.265625 83.4375 C 143.34375 83.4375 143.417969 83.445312 143.488281 83.507812 C 143.53125 83.546875 143.570312 83.53125 143.628906 83.5 C 143.679688 83.476562 143.738281 83.445312 143.800781 83.488281 C 143.855469 83.523438 143.90625 83.539062 143.949219 83.527344 C 144.003906 83.511719 144.054688 83.464844 144.101562 83.386719 C 144.21875 83.179688 144.3125 82.957031 144.394531 82.765625 C 144.46875 82.582031 144.59375 82.464844 144.773438 82.410156 C 144.890625 82.375 144.949219 82.316406 144.976562 82.199219 C 144.984375 82.160156 145.003906 82.125 145.019531 82.089844 C 145.035156 82.054688 145.050781 82.019531 145.058594 81.984375 C 145.113281 81.730469 145.242188 81.519531 145.449219 81.339844 C 145.484375 81.308594 145.519531 81.277344 145.554688 81.242188 C 145.605469 81.195312 145.65625 81.144531 145.710938 81.101562 C 145.855469 80.992188 145.910156 80.851562 145.882812 80.652344 Z M 145.882812 80.652344 "/>
<path fill-rule="nonzero" fill="rgb(76.862745%, 52.941176%, 28.235294%)" fill-opacity="1" d="M 154.503906 64.480469 L 154.496094 64.480469 C 154.382812 64.460938 154.269531 64.441406 154.183594 64.507812 C 153.914062 64.714844 153.609375 64.859375 153.3125 65.003906 C 153.230469 65.042969 153.148438 65.078125 153.066406 65.121094 C 152.816406 65.246094 152.632812 65.402344 152.515625 65.601562 C 152.441406 65.71875 152.375 65.808594 152.300781 65.878906 C 152.058594 66.117188 151.851562 66.386719 151.671875 66.699219 C 151.5625 66.886719 151.441406 67.066406 151.304688 67.226562 C 151.1875 67.363281 151.09375 67.503906 151.019531 67.652344 C 150.839844 67.996094 150.574219 68.253906 150.234375 68.421875 L 150.160156 68.457031 C 149.984375 68.546875 149.796875 68.636719 149.636719 68.765625 C 149.566406 68.828125 149.472656 68.867188 149.386719 68.90625 C 149.332031 68.929688 149.277344 68.957031 149.230469 68.984375 C 149.1875 69.007812 149.136719 69.058594 149.128906 69.078125 C 149.148438 69.121094 149.167969 69.167969 149.1875 69.214844 C 149.242188 69.339844 149.300781 69.46875 149.351562 69.601562 C 149.40625 69.75 149.46875 69.898438 149.53125 70.046875 C 149.574219 70.144531 149.617188 70.242188 149.65625 70.34375 C 149.707031 70.476562 149.632812 70.566406 149.5625 70.625 C 149.511719 70.671875 149.421875 70.671875 149.390625 70.671875 C 149.367188 70.671875 149.347656 70.652344 149.332031 70.636719 C 149.328125 70.625 149.296875 70.589844 149.300781 70.5625 C 149.332031 70.285156 149.214844 70.058594 149.09375 69.820312 L 149.0625 69.753906 C 149.015625 69.660156 148.980469 69.558594 148.953125 69.460938 C 148.945312 69.429688 148.933594 69.402344 148.925781 69.375 C 148.902344 69.304688 148.851562 69.273438 148.773438 69.273438 C 148.691406 69.273438 148.617188 69.289062 148.554688 69.3125 C 148.488281 69.339844 148.441406 69.386719 148.421875 69.441406 C 148.40625 69.492188 148.417969 69.546875 148.453125 69.59375 C 148.527344 69.710938 148.570312 69.839844 148.613281 69.964844 C 148.648438 70.074219 148.683594 70.1875 148.742188 70.285156 C 148.894531 70.546875 148.886719 70.835938 148.867188 71.03125 C 148.839844 71.285156 148.742188 71.476562 148.574219 71.601562 C 148.523438 71.644531 148.441406 71.652344 148.386719 71.59375 C 148.359375 71.566406 148.335938 71.503906 148.351562 71.464844 C 148.398438 71.355469 148.441406 71.246094 148.503906 71.152344 C 148.59375 71.007812 148.605469 70.863281 148.53125 70.675781 C 148.492188 70.570312 148.457031 70.460938 148.421875 70.359375 C 148.398438 70.28125 148.371094 70.207031 148.34375 70.132812 L 148.335938 70.105469 C 148.300781 70.007812 148.265625 69.910156 148.21875 69.820312 C 148.183594 69.753906 148.128906 69.695312 148.074219 69.65625 C 148.027344 69.625 147.992188 69.648438 147.929688 69.683594 C 147.917969 69.691406 147.902344 69.699219 147.890625 69.707031 C 147.84375 69.730469 147.789062 69.75 147.714844 69.757812 C 147.632812 69.765625 147.59375 69.796875 147.570312 69.867188 C 147.554688 69.921875 147.53125 69.972656 147.507812 70.019531 C 147.488281 70.058594 147.472656 70.097656 147.457031 70.132812 C 147.40625 70.269531 147.355469 70.40625 147.308594 70.546875 C 147.230469 70.761719 147.148438 70.988281 147.0625 71.207031 C 147.054688 71.226562 147.035156 71.238281 147.011719 71.246094 C 147 71.277344 146.992188 71.308594 146.984375 71.335938 C 146.933594 71.488281 146.902344 71.648438 146.886719 71.804688 C 146.882812 71.8125 146.882812 71.816406 146.882812 71.824219 C 147.148438 71.859375 147.296875 72.011719 147.339844 72.316406 C 147.363281 72.503906 147.363281 72.503906 147.511719 72.507812 C 147.621094 72.503906 147.734375 72.503906 147.84375 72.503906 C 147.941406 72.503906 148.039062 72.5 148.136719 72.5 C 148.257812 72.5 148.382812 72.503906 148.507812 72.507812 C 148.707031 72.519531 148.902344 72.488281 149.09375 72.457031 C 149.21875 72.4375 149.347656 72.417969 149.476562 72.410156 C 149.695312 72.394531 149.851562 72.300781 149.984375 72.105469 C 150.160156 71.835938 150.335938 71.5625 150.507812 71.296875 C 150.648438 71.082031 150.785156 70.867188 150.925781 70.652344 C 150.992188 70.554688 151.0625 70.460938 151.132812 70.367188 C 151.199219 70.277344 151.265625 70.183594 151.328125 70.089844 C 151.367188 70.03125 151.425781 70.003906 151.480469 69.972656 C 151.542969 69.941406 151.601562 69.910156 151.628906 69.839844 C 151.660156 69.746094 151.613281 69.675781 151.566406 69.601562 C 151.527344 69.546875 151.492188 69.492188 151.484375 69.421875 C 151.484375 69.417969 151.480469 69.410156 151.476562 69.40625 C 151.46875 69.398438 151.460938 69.390625 151.457031 69.378906 C 151.355469 69.109375 151.355469 68.878906 151.457031 68.679688 C 151.589844 68.417969 151.707031 68.144531 151.824219 67.875 C 151.886719 67.726562 151.957031 67.574219 152.023438 67.425781 C 152.144531 67.15625 152.242188 66.914062 152.320312 66.683594 C 152.394531 66.46875 152.484375 66.265625 152.566406 66.097656 C 152.6875 65.84375 152.898438 65.652344 153.214844 65.515625 C 153.222656 65.515625 153.25 65.5 153.316406 65.574219 C 153.335938 65.597656 153.335938 65.636719 153.328125 65.65625 C 153.289062 65.773438 153.199219 65.839844 153.113281 65.90625 C 153.089844 65.925781 153.070312 65.941406 153.046875 65.960938 C 152.917969 66.074219 152.820312 66.226562 152.746094 66.4375 C 152.679688 66.636719 152.597656 66.832031 152.519531 67.023438 C 152.449219 67.199219 152.375 67.378906 152.308594 67.558594 C 152.226562 67.800781 152.113281 68.03125 152.007812 68.253906 C 151.933594 68.402344 151.859375 68.558594 151.792969 68.714844 C 151.78125 68.742188 151.765625 68.765625 151.75 68.785156 C 151.730469 68.8125 151.714844 68.835938 151.707031 68.863281 C 151.691406 68.929688 151.675781 69.011719 151.695312 69.078125 C 151.734375 69.230469 151.777344 69.402344 151.90625 69.53125 C 151.945312 69.566406 151.957031 69.558594 151.96875 69.550781 L 152.03125 69.492188 C 152.3125 69.230469 152.578125 68.980469 152.761719 68.636719 C 152.921875 68.332031 153.066406 68.011719 153.199219 67.699219 C 153.324219 67.425781 153.449219 67.140625 153.585938 66.863281 C 153.601562 66.835938 153.609375 66.808594 153.613281 66.773438 C 153.617188 66.75 153.625 66.726562 153.632812 66.703125 C 153.855469 66.027344 154.105469 65.257812 154.5 64.574219 C 154.511719 64.550781 154.523438 64.523438 154.527344 64.492188 C 154.519531 64.488281 154.511719 64.480469 154.503906 64.480469 "/>
<path fill-rule="nonzero" fill="rgb(25.098039%, 30.980392%, 34.901961%)" fill-opacity="1" d="M 147.996094 73.8125 C 148.105469 73.8125 148.21875 73.8125 148.328125 73.8125 C 148.414062 73.808594 148.457031 73.773438 148.460938 73.699219 C 148.464844 73.6875 148.464844 73.675781 148.464844 73.660156 C 148.46875 73.636719 148.472656 73.609375 148.46875 73.585938 C 148.464844 73.410156 148.460938 73.234375 148.453125 73.058594 L 148.445312 72.847656 C 148.296875 72.785156 148.144531 72.792969 147.984375 72.800781 C 147.898438 72.804688 147.8125 72.808594 147.726562 72.800781 C 147.667969 72.796875 147.609375 72.800781 147.554688 72.800781 C 147.496094 72.800781 147.433594 72.804688 147.375 72.796875 C 147.242188 72.785156 147.136719 72.828125 147.027344 72.929688 L 147.015625 72.941406 C 146.757812 73.183594 146.757812 73.183594 146.753906 73.570312 C 146.753906 73.609375 146.753906 73.648438 146.753906 73.6875 C 146.757812 73.765625 146.792969 73.808594 146.863281 73.808594 C 147.027344 73.808594 147.195312 73.808594 147.359375 73.808594 L 147.59375 73.808594 L 147.59375 73.8125 C 147.726562 73.8125 147.859375 73.8125 147.996094 73.8125 M 147.523438 73.390625 C 147.496094 73.390625 147.464844 73.390625 147.433594 73.390625 L 147.433594 73.394531 L 147.410156 73.390625 C 147.375 73.390625 147.34375 73.390625 147.308594 73.394531 C 147.277344 73.394531 147.242188 73.394531 147.207031 73.394531 C 147.160156 73.394531 147.109375 73.394531 147.0625 73.386719 C 147.019531 73.382812 146.980469 73.363281 146.960938 73.335938 C 146.949219 73.316406 146.9375 73.285156 146.953125 73.238281 C 146.976562 73.167969 147 73.136719 147.027344 73.128906 C 147.261719 73.089844 147.507812 73.089844 147.835938 73.125 C 147.878906 73.128906 147.90625 73.199219 147.914062 73.226562 C 147.929688 73.265625 147.921875 73.304688 147.902344 73.332031 C 147.886719 73.363281 147.851562 73.382812 147.816406 73.382812 C 147.71875 73.394531 147.621094 73.390625 147.523438 73.390625 "/>
<path fill-rule="nonzero" fill="rgb(47.45098%, 27.058824%, 10.980392%)" fill-opacity="1" d="M 147.164062 78.023438 C 147.164062 77.964844 147.160156 77.890625 147.164062 77.796875 C 147.164062 77.6875 147.164062 77.574219 147.164062 77.460938 L 147.164062 77.300781 C 147.164062 77.269531 147.167969 77.246094 147.160156 77.222656 C 147.148438 77.191406 147.128906 77.160156 147.109375 77.152344 C 147.085938 77.140625 147.042969 77.144531 147.03125 77.15625 C 146.964844 77.210938 146.902344 77.277344 146.84375 77.339844 C 146.824219 77.359375 146.804688 77.378906 146.785156 77.402344 C 146.726562 77.460938 146.65625 77.488281 146.558594 77.496094 C 146.191406 77.527344 146.140625 77.496094 145.960938 77.144531 L 145.9375 77.101562 C 145.917969 77.066406 145.898438 77.027344 145.878906 76.992188 C 145.855469 76.949219 145.804688 76.921875 145.746094 76.914062 C 145.675781 76.90625 145.609375 76.925781 145.570312 76.96875 L 145.5625 76.976562 C 145.527344 77.015625 145.488281 77.054688 145.476562 77.097656 C 145.433594 77.242188 145.332031 77.261719 145.238281 77.261719 L 145.21875 77.261719 C 145.183594 77.261719 145.148438 77.261719 145.109375 77.265625 C 145.007812 77.269531 144.90625 77.277344 144.816406 77.242188 C 144.796875 77.234375 144.777344 77.226562 144.753906 77.21875 C 144.621094 77.171875 144.453125 77.117188 144.457031 76.886719 C 144.457031 76.832031 144.421875 76.769531 144.390625 76.707031 C 144.375 76.683594 144.363281 76.660156 144.351562 76.636719 C 144.332031 76.59375 144.289062 76.566406 144.230469 76.558594 C 144.164062 76.554688 144.101562 76.585938 144.066406 76.636719 C 144.066406 76.640625 144.0625 76.648438 144.0625 76.652344 C 144.0625 76.664062 144.058594 76.679688 144.054688 76.691406 C 144.035156 76.726562 144.007812 76.761719 143.988281 76.789062 C 143.933594 76.867188 143.828125 76.914062 143.722656 76.914062 L 143.703125 76.914062 C 143.597656 76.90625 143.507812 76.851562 143.453125 76.75 C 143.414062 76.675781 143.382812 76.597656 143.351562 76.523438 C 143.328125 76.457031 143.300781 76.390625 143.269531 76.328125 C 143.25 76.289062 143.1875 76.238281 143.171875 76.238281 C 143.113281 76.257812 143.042969 76.308594 143.019531 76.363281 C 143.003906 76.40625 142.996094 76.453125 142.984375 76.503906 C 142.96875 76.585938 142.949219 76.667969 142.894531 76.746094 C 142.882812 76.761719 142.875 76.777344 142.867188 76.792969 C 142.839844 76.84375 142.808594 76.902344 142.71875 76.902344 C 142.699219 76.90625 142.675781 76.90625 142.652344 76.90625 C 142.558594 76.914062 142.453125 76.921875 142.371094 76.832031 C 142.335938 76.796875 142.3125 76.753906 142.285156 76.707031 C 142.273438 76.6875 142.257812 76.664062 142.242188 76.640625 C 142.214844 76.597656 142.179688 76.574219 142.136719 76.574219 C 142.09375 76.570312 142.042969 76.597656 142.003906 76.644531 C 141.96875 76.6875 141.957031 76.738281 141.945312 76.789062 C 141.941406 76.808594 141.9375 76.828125 141.933594 76.847656 C 141.863281 77.097656 141.714844 77.230469 141.472656 77.257812 C 141.210938 77.289062 140.921875 77.277344 140.742188 76.964844 C 140.738281 76.960938 140.730469 76.957031 140.71875 76.949219 C 140.714844 76.945312 140.707031 76.941406 140.703125 76.9375 C 140.664062 76.90625 140.578125 76.925781 140.515625 76.960938 C 140.457031 77 140.433594 77.0625 140.410156 77.128906 C 140.386719 77.191406 140.367188 77.253906 140.3125 77.300781 C 140.289062 77.320312 140.265625 77.34375 140.242188 77.363281 C 140.191406 77.417969 140.140625 77.472656 140.074219 77.484375 C 139.859375 77.515625 139.59375 77.550781 139.421875 77.289062 C 139.394531 77.246094 139.363281 77.199219 139.324219 77.140625 L 139.292969 77.09375 C 139.285156 77.125 139.273438 77.144531 139.269531 77.167969 C 139.253906 77.21875 139.242188 77.25 139.242188 77.28125 C 139.238281 77.402344 139.238281 77.527344 139.238281 77.652344 C 139.242188 77.816406 139.242188 77.988281 139.234375 78.160156 C 139.234375 78.316406 139.28125 78.375 139.441406 78.394531 C 139.605469 78.417969 139.738281 78.511719 139.863281 78.605469 C 139.9375 78.660156 140.019531 78.71875 140.101562 78.757812 C 140.140625 78.777344 140.160156 78.832031 140.175781 78.882812 C 140.179688 78.894531 140.183594 78.910156 140.1875 78.921875 C 140.199219 78.941406 140.203125 78.964844 140.207031 78.988281 C 140.214844 79.023438 140.222656 79.050781 140.238281 79.078125 C 140.253906 79.101562 140.28125 79.113281 140.304688 79.132812 C 140.316406 79.25 140.339844 79.371094 140.375 79.496094 C 140.359375 79.496094 140.339844 79.503906 140.328125 79.515625 C 140.3125 79.535156 140.304688 79.5625 140.308594 79.589844 C 140.320312 79.675781 140.347656 79.761719 140.371094 79.84375 C 140.40625 79.957031 140.445312 80.082031 140.4375 80.210938 C 140.4375 80.226562 140.441406 80.226562 140.441406 80.226562 C 140.445312 80.226562 140.457031 80.230469 140.484375 80.210938 C 140.515625 80.195312 140.550781 80.183594 140.585938 80.175781 C 140.625 80.164062 140.667969 80.152344 140.683594 80.128906 C 140.84375 79.90625 141.0625 79.90625 141.277344 79.910156 L 141.339844 79.910156 C 141.523438 79.910156 141.644531 79.996094 141.710938 80.171875 C 141.722656 80.207031 141.738281 80.21875 141.742188 80.21875 C 141.742188 80.21875 141.753906 80.21875 141.769531 80.191406 C 141.875 79.976562 141.992188 79.722656 142.082031 79.453125 C 142.160156 79.226562 142.339844 79.09375 142.585938 79.085938 C 142.847656 79.074219 143.113281 79.078125 143.375 79.082031 C 143.519531 79.082031 143.667969 79.085938 143.816406 79.085938 C 143.96875 79.085938 144.085938 79.160156 144.164062 79.304688 C 144.1875 79.347656 144.203125 79.394531 144.21875 79.4375 C 144.242188 79.503906 144.261719 79.566406 144.304688 79.613281 C 144.367188 79.683594 144.382812 79.765625 144.398438 79.84375 C 144.414062 79.917969 144.429688 79.984375 144.476562 80.039062 C 144.519531 80.09375 144.570312 80.144531 144.617188 80.144531 C 144.644531 80.144531 144.675781 80.125 144.710938 80.082031 C 144.828125 79.953125 144.941406 79.898438 145.085938 79.90625 C 145.109375 79.910156 145.128906 79.910156 145.148438 79.910156 C 145.28125 79.917969 145.40625 79.925781 145.53125 80.039062 C 145.640625 80.136719 145.722656 80.179688 145.78125 80.160156 C 145.839844 80.148438 145.890625 80.074219 145.945312 79.933594 C 145.949219 79.921875 145.953125 79.910156 145.960938 79.902344 C 145.964844 79.898438 145.96875 79.890625 145.96875 79.886719 C 145.972656 79.851562 145.976562 79.820312 145.980469 79.785156 C 145.996094 79.707031 146.007812 79.625 145.992188 79.550781 C 145.984375 79.515625 145.957031 79.5 145.921875 79.496094 C 145.996094 79.375 146.050781 79.226562 146.085938 79.09375 C 146.09375 79.058594 146.105469 79.019531 146.113281 78.984375 C 146.253906 78.730469 146.488281 78.589844 146.707031 78.496094 C 147.171875 78.292969 147.171875 78.292969 147.164062 78.023438 "/>
<g clip-path="url(#clip-1)">
<path fill-rule="nonzero" fill="rgb(61.960784%, 21.176471%, 13.72549%)" fill-opacity="1" d="M 153.460938 70.792969 C 153.386719 70.699219 153.269531 70.660156 153.183594 70.695312 C 153.160156 70.707031 153.132812 70.71875 153.109375 70.726562 C 153.027344 70.761719 152.941406 70.792969 152.882812 70.847656 C 152.707031 71 152.5 71.097656 152.300781 71.1875 C 152.238281 71.214844 152.179688 71.246094 152.121094 71.273438 C 151.683594 71.492188 151.226562 71.714844 150.804688 71.984375 C 150.769531 72.007812 150.734375 72.042969 150.703125 72.078125 C 150.640625 72.136719 150.585938 72.195312 150.515625 72.195312 C 150.347656 72.195312 150.25 72.292969 150.148438 72.394531 C 150.117188 72.425781 150.085938 72.457031 150.054688 72.488281 C 150.035156 72.503906 150.015625 72.523438 149.996094 72.542969 C 149.933594 72.605469 149.867188 72.667969 149.804688 72.660156 C 149.683594 72.652344 149.582031 72.691406 149.472656 72.730469 C 149.367188 72.773438 149.253906 72.8125 149.128906 72.804688 C 148.988281 72.792969 148.921875 72.796875 148.890625 72.828125 C 148.859375 72.859375 148.855469 72.925781 148.855469 73.058594 L 148.859375 73.167969 C 148.859375 73.324219 148.859375 73.484375 148.855469 73.644531 C 148.851562 73.714844 148.835938 73.777344 148.808594 73.820312 C 148.695312 73.988281 148.5 74.183594 148.21875 74.199219 C 147.859375 74.210938 147.492188 74.207031 147.136719 74.203125 C 146.992188 74.199219 146.84375 74.195312 146.695312 74.195312 L 146.683594 74.195312 L 146.675781 74.1875 C 146.605469 74.109375 146.542969 74.132812 146.449219 74.183594 C 146.433594 74.191406 146.417969 74.199219 146.402344 74.207031 C 146.375 74.21875 146.351562 74.230469 146.324219 74.242188 C 146.246094 74.273438 146.164062 74.3125 146.09375 74.355469 C 145.984375 74.425781 145.933594 74.511719 145.933594 74.621094 C 145.9375 74.816406 145.933594 75.019531 145.929688 75.214844 L 145.925781 75.382812 C 145.921875 75.410156 145.902344 75.445312 145.867188 75.464844 C 145.835938 75.484375 145.792969 75.5 145.757812 75.484375 C 145.691406 75.457031 145.65625 75.429688 145.65625 75.398438 C 145.652344 75.285156 145.652344 75.171875 145.652344 75.058594 C 145.652344 74.902344 145.652344 74.738281 145.640625 74.582031 C 145.628906 74.355469 145.761719 74.222656 145.894531 74.121094 C 145.988281 74.046875 146.089844 73.972656 146.203125 73.945312 C 146.351562 73.90625 146.390625 73.792969 146.429688 73.671875 C 146.4375 73.652344 146.445312 73.628906 146.453125 73.609375 C 146.480469 73.542969 146.472656 73.457031 146.46875 73.375 C 146.464844 73.339844 146.460938 73.304688 146.464844 73.269531 C 146.464844 73.1875 146.429688 73.148438 146.355469 73.148438 L 146.207031 73.148438 C 145.875 73.144531 145.527344 73.144531 145.183594 73.144531 C 144.996094 73.148438 144.90625 73.222656 144.882812 73.382812 C 144.871094 73.464844 144.839844 73.535156 144.808594 73.601562 C 144.785156 73.65625 144.761719 73.710938 144.746094 73.765625 C 144.734375 73.828125 144.582031 73.839844 144.582031 73.839844 L 144.578125 73.839844 C 144.535156 73.839844 144.496094 73.765625 144.488281 73.738281 C 144.449219 73.59375 144.496094 73.464844 144.542969 73.339844 C 144.570312 73.265625 144.597656 73.1875 144.605469 73.113281 C 144.609375 73.070312 144.648438 73.023438 144.6875 73.003906 C 144.730469 72.980469 144.773438 72.957031 144.816406 72.929688 C 144.980469 72.832031 145.152344 72.730469 145.386719 72.746094 C 145.65625 72.769531 145.933594 72.765625 146.199219 72.761719 C 146.335938 72.761719 146.476562 72.761719 146.617188 72.761719 L 146.625 72.761719 C 146.785156 72.761719 146.886719 72.6875 146.949219 72.535156 C 146.960938 72.503906 146.976562 72.472656 146.992188 72.441406 C 147 72.417969 147.011719 72.398438 147.023438 72.375 C 147.039062 72.339844 147.03125 72.28125 147.003906 72.226562 C 146.980469 72.175781 146.941406 72.140625 146.902344 72.128906 C 146.835938 72.113281 146.757812 72.105469 146.683594 72.101562 C 146.609375 72.101562 146.535156 72.101562 146.460938 72.097656 C 146.226562 72.09375 145.984375 72.089844 145.746094 72.105469 C 145.554688 72.121094 145.410156 72.046875 145.28125 71.875 C 145.246094 71.828125 145.210938 71.777344 145.179688 71.730469 C 145.105469 71.625 145.027344 71.511719 144.929688 71.421875 C 144.820312 71.320312 144.722656 71.28125 144.589844 71.28125 L 144.585938 71.28125 C 143.515625 71.285156 142.574219 71.285156 141.710938 71.28125 L 141.707031 71.28125 C 141.566406 71.28125 141.464844 71.328125 141.378906 71.433594 C 141.242188 71.605469 141.109375 71.773438 140.984375 71.933594 C 140.886719 72.054688 140.765625 72.109375 140.609375 72.105469 C 140.394531 72.097656 140.179688 72.097656 139.96875 72.101562 C 139.851562 72.101562 139.730469 72.101562 139.613281 72.101562 L 139.609375 72.101562 C 139.542969 72.101562 139.488281 72.125 139.425781 72.1875 C 139.320312 72.289062 139.347656 72.417969 139.371094 72.542969 C 139.394531 72.652344 139.480469 72.730469 139.597656 72.75 C 139.664062 72.761719 139.738281 72.757812 139.808594 72.757812 C 139.835938 72.757812 139.859375 72.753906 139.882812 72.757812 L 139.902344 72.757812 C 140.027344 72.757812 140.152344 72.757812 140.277344 72.753906 C 140.550781 72.753906 140.835938 72.75 141.117188 72.757812 C 141.492188 72.769531 141.792969 73.054688 141.828125 73.441406 C 141.832031 73.515625 141.828125 73.597656 141.828125 73.671875 C 141.828125 73.691406 141.824219 73.714844 141.824219 73.738281 C 141.824219 73.769531 141.800781 73.804688 141.769531 73.828125 C 141.734375 73.847656 141.695312 73.855469 141.660156 73.84375 C 141.625 73.828125 141.582031 73.804688 141.5625 73.773438 C 141.542969 73.738281 141.535156 73.6875 141.539062 73.640625 C 141.570312 73.449219 141.460938 73.328125 141.332031 73.207031 C 141.261719 73.140625 141.171875 73.140625 141.078125 73.144531 L 141.019531 73.144531 C 140.714844 73.140625 140.402344 73.140625 140.082031 73.144531 C 139.980469 73.144531 139.914062 73.144531 139.894531 73.167969 C 139.875 73.195312 139.890625 73.273438 139.921875 73.410156 C 139.9375 73.488281 139.945312 73.570312 139.941406 73.652344 C 139.9375 73.746094 139.976562 73.820312 140.058594 73.878906 C 140.105469 73.910156 140.15625 73.941406 140.203125 73.972656 C 140.269531 74.011719 140.335938 74.050781 140.394531 74.101562 L 140.417969 74.121094 C 140.507812 74.191406 140.605469 74.269531 140.636719 74.367188 C 140.722656 74.644531 140.808594 74.964844 140.75 75.289062 C 140.734375 75.351562 140.679688 75.40625 140.640625 75.445312 C 140.605469 75.480469 140.546875 75.488281 140.523438 75.488281 C 140.488281 75.492188 140.453125 75.480469 140.429688 75.460938 C 140.402344 75.4375 140.386719 75.402344 140.382812 75.359375 C 140.378906 75.265625 140.378906 75.171875 140.378906 75.078125 C 140.378906 75.035156 140.375 74.992188 140.375 74.949219 C 140.375 74.875 140.375 74.808594 140.375 74.753906 C 140.382812 74.4375 140.382812 74.421875 139.890625 74.195312 C 139.769531 74.140625 139.695312 74.140625 139.601562 74.191406 C 139.5625 74.210938 139.515625 74.207031 139.46875 74.203125 C 139.453125 74.203125 139.433594 74.199219 139.417969 74.199219 C 139.296875 74.199219 139.179688 74.199219 139.0625 74.199219 C 138.777344 74.199219 138.476562 74.199219 138.1875 74.207031 L 138.171875 74.207031 C 137.949219 74.207031 137.785156 74.089844 137.648438 73.984375 C 137.539062 73.894531 137.542969 73.765625 137.546875 73.65625 C 137.546875 73.632812 137.546875 73.605469 137.546875 73.582031 C 137.542969 73.480469 137.542969 73.382812 137.542969 73.28125 C 137.542969 73.148438 137.542969 73.011719 137.535156 72.878906 C 137.535156 72.859375 137.507812 72.824219 137.488281 72.816406 C 137.433594 72.800781 137.375 72.796875 137.328125 72.804688 C 137.160156 72.832031 137.011719 72.78125 136.867188 72.738281 C 136.8125 72.722656 136.757812 72.703125 136.699219 72.6875 C 136.472656 72.632812 136.277344 72.519531 136.101562 72.332031 C 136.054688 72.28125 135.984375 72.226562 135.929688 72.226562 C 135.796875 72.222656 135.714844 72.15625 135.640625 72.085938 C 135.617188 72.066406 135.589844 72.050781 135.566406 72.03125 C 135.382812 71.894531 135.183594 71.769531 134.992188 71.652344 L 134.945312 71.621094 C 134.746094 71.496094 134.527344 71.40625 134.316406 71.316406 C 134.230469 71.28125 134.144531 71.246094 134.0625 71.207031 C 133.859375 71.113281 133.660156 71 133.472656 70.886719 C 133.382812 70.832031 133.292969 70.78125 133.203125 70.730469 C 133.171875 70.714844 133.136719 70.699219 133.101562 70.691406 C 132.984375 70.660156 132.910156 70.71875 132.832031 70.820312 C 132.789062 70.875 132.765625 70.941406 132.875 71.035156 C 133.105469 71.234375 133.277344 71.484375 133.441406 71.722656 L 133.464844 71.757812 C 133.714844 72.125 133.96875 72.492188 134.289062 72.796875 C 134.566406 73.0625 134.804688 73.355469 135.027344 73.703125 C 135.15625 73.90625 135.34375 74.152344 135.640625 74.289062 C 135.675781 74.304688 135.695312 74.324219 135.699219 74.351562 C 135.707031 74.371094 135.695312 74.394531 135.675781 74.414062 C 135.636719 74.457031 135.589844 74.496094 135.542969 74.53125 C 135.527344 74.546875 135.507812 74.53125 135.492188 74.523438 C 135.488281 74.519531 135.476562 74.511719 135.472656 74.511719 C 135.308594 74.464844 135.15625 74.394531 135.003906 74.328125 C 134.914062 74.289062 134.820312 74.246094 134.726562 74.210938 C 134.636719 74.175781 134.542969 74.148438 134.453125 74.117188 C 134.273438 74.0625 134.085938 74.003906 133.917969 73.90625 C 133.742188 73.808594 133.671875 73.835938 133.542969 73.984375 C 133.519531 74.011719 133.503906 74.050781 133.511719 74.085938 C 133.511719 74.101562 133.523438 74.128906 133.550781 74.148438 C 133.828125 74.332031 134.0625 74.570312 134.289062 74.804688 C 134.414062 74.925781 134.539062 75.054688 134.671875 75.171875 C 134.675781 75.179688 134.683594 75.1875 134.6875 75.191406 C 134.695312 75.199219 134.703125 75.207031 134.710938 75.210938 C 135.042969 75.472656 135.449219 75.59375 135.800781 75.683594 C 135.914062 75.710938 136.039062 75.703125 136.160156 75.695312 C 136.214844 75.695312 136.269531 75.691406 136.320312 75.6875 L 136.378906 75.6875 C 136.503906 75.6875 136.636719 75.6875 136.769531 75.65625 C 136.695312 75.621094 136.636719 75.566406 136.578125 75.515625 C 136.515625 75.457031 136.460938 75.402344 136.382812 75.371094 C 136.292969 75.335938 136.199219 75.25 136.164062 75.167969 L 136.136719 75.113281 C 136.046875 74.921875 135.953125 74.722656 135.925781 74.515625 C 135.894531 74.324219 135.90625 74.125 135.914062 73.929688 C 135.917969 73.851562 135.921875 73.773438 135.925781 73.695312 C 135.925781 73.664062 135.949219 73.628906 135.984375 73.605469 C 136.007812 73.589844 136.035156 73.582031 136.054688 73.582031 C 136.070312 73.582031 136.078125 73.585938 136.089844 73.589844 C 136.15625 73.621094 136.1875 73.648438 136.1875 73.675781 L 136.191406 73.730469 C 136.203125 73.847656 136.214844 73.972656 136.203125 74.089844 C 136.175781 74.316406 136.242188 74.53125 136.3125 74.734375 L 136.335938 74.8125 C 136.382812 74.945312 136.472656 75.058594 136.605469 75.144531 C 136.914062 75.34375 137.273438 75.574219 137.644531 75.765625 C 137.9375 75.914062 138.066406 76.136719 138.070312 76.488281 C 138.082031 77.148438 138.082031 77.746094 138.070312 78.308594 C 138.066406 78.539062 138.144531 78.734375 138.308594 78.917969 C 138.449219 79.078125 138.625 79.195312 138.796875 79.308594 C 138.847656 79.339844 138.898438 79.375 138.949219 79.40625 C 139.074219 79.496094 139.195312 79.589844 139.3125 79.699219 C 139.507812 79.886719 139.605469 80.121094 139.59375 80.394531 C 139.59375 80.460938 139.59375 80.523438 139.597656 80.585938 C 139.601562 80.660156 139.601562 80.734375 139.597656 80.808594 C 139.582031 81.109375 139.691406 81.371094 139.945312 81.613281 C 140.0625 81.726562 140.179688 81.84375 140.292969 81.960938 C 140.355469 82.023438 140.417969 82.089844 140.480469 82.152344 C 140.683594 82.355469 140.78125 82.601562 140.773438 82.902344 C 140.769531 83.140625 140.769531 83.382812 140.773438 83.621094 C 140.773438 83.902344 140.777344 84.199219 140.765625 84.484375 C 140.75 84.859375 140.824219 85.152344 140.996094 85.410156 C 141.03125 85.460938 141.078125 85.539062 141.101562 85.625 C 141.199219 86.011719 141.371094 86.363281 141.597656 86.769531 C 141.644531 86.859375 141.683594 86.945312 141.71875 87.035156 C 141.816406 87.277344 141.9375 87.519531 142.054688 87.75 L 142.113281 87.863281 C 142.117188 87.871094 142.160156 87.878906 142.1875 87.871094 C 142.210938 87.867188 142.246094 87.835938 142.246094 87.820312 C 142.25 87.789062 142.25 87.757812 142.25 87.71875 C 142.25 87.675781 142.25 87.628906 142.265625 87.585938 C 142.273438 87.558594 142.28125 87.53125 142.289062 87.503906 C 142.339844 87.335938 142.386719 87.175781 142.269531 87.003906 C 142.230469 86.941406 142.238281 86.851562 142.246094 86.761719 C 142.246094 86.742188 142.25 86.71875 142.25 86.699219 C 142.257812 86.53125 142.214844 86.371094 142.175781 86.214844 C 142.136719 86.058594 142.09375 85.898438 142.097656 85.730469 C 142.101562 85.703125 142.082031 85.667969 142.0625 85.632812 C 142.046875 85.597656 142.027344 85.558594 142.023438 85.519531 C 142.015625 85.414062 141.980469 85.371094 141.882812 85.335938 C 141.722656 85.273438 141.640625 85.148438 141.660156 84.992188 C 141.667969 84.953125 141.679688 84.902344 141.710938 84.875 C 141.742188 84.847656 141.804688 84.832031 141.839844 84.847656 C 141.898438 84.875 141.949219 84.925781 141.984375 84.957031 C 142.089844 85.070312 142.191406 85.078125 142.308594 84.988281 C 142.339844 84.960938 142.375 84.941406 142.410156 84.925781 C 142.445312 84.910156 142.480469 84.890625 142.507812 84.871094 C 142.578125 84.8125 142.648438 84.839844 142.691406 84.859375 C 142.722656 84.871094 142.742188 84.894531 142.75 84.929688 C 142.761719 84.984375 142.742188 85.054688 142.703125 85.101562 L 142.679688 85.128906 C 142.597656 85.226562 142.511719 85.324219 142.375 85.363281 C 142.367188 85.367188 142.351562 85.390625 142.347656 85.402344 C 142.410156 85.480469 142.410156 85.574219 142.410156 85.664062 C 142.410156 85.75 142.40625 85.828125 142.460938 85.890625 C 142.621094 86.066406 142.71875 86.277344 142.816406 86.484375 C 142.875 86.605469 142.933594 86.730469 143.003906 86.847656 C 143.039062 86.90625 143.109375 86.945312 143.179688 86.945312 C 143.210938 86.945312 143.261719 86.9375 143.292969 86.886719 L 143.300781 86.875 C 143.558594 86.445312 143.828125 86 143.980469 85.507812 C 143.996094 85.457031 143.996094 85.421875 143.980469 85.398438 C 143.972656 85.378906 143.953125 85.367188 143.925781 85.355469 C 143.738281 85.304688 143.667969 85.15625 143.613281 85.007812 C 143.609375 85 143.605469 84.992188 143.601562 84.980469 C 143.589844 84.953125 143.574219 84.921875 143.585938 84.890625 C 143.59375 84.871094 143.613281 84.855469 143.644531 84.84375 C 143.679688 84.828125 143.71875 84.828125 143.753906 84.828125 L 143.769531 84.828125 C 143.84375 84.828125 143.890625 84.875 143.929688 84.914062 C 143.945312 84.929688 143.960938 84.941406 143.976562 84.953125 C 144.144531 85.082031 144.144531 85.082031 144.34375 84.941406 C 144.347656 84.9375 144.355469 84.929688 144.359375 84.925781 C 144.367188 84.914062 144.375 84.90625 144.386719 84.898438 C 144.460938 84.847656 144.527344 84.824219 144.574219 84.84375 C 144.601562 84.851562 144.617188 84.875 144.621094 84.902344 L 144.625 84.917969 C 144.644531 84.996094 144.664062 85.082031 144.628906 85.140625 C 144.585938 85.21875 144.5 85.296875 144.40625 85.339844 C 144.324219 85.378906 144.296875 85.414062 144.292969 85.484375 C 144.292969 85.507812 144.292969 85.53125 144.292969 85.554688 C 144.296875 85.617188 144.300781 85.679688 144.269531 85.726562 C 144.199219 85.839844 144.191406 85.957031 144.183594 86.085938 C 144.179688 86.128906 144.175781 86.175781 144.167969 86.222656 C 144.160156 86.304688 144.140625 86.382812 144.121094 86.460938 C 144.097656 86.566406 144.070312 86.675781 144.066406 86.785156 C 144.054688 87.003906 144.054688 87.230469 144.054688 87.445312 C 144.054688 87.558594 144.054688 87.667969 144.054688 87.78125 C 144.054688 87.8125 144.0625 87.835938 144.078125 87.855469 C 144.089844 87.867188 144.105469 87.871094 144.125 87.871094 C 144.167969 87.871094 144.230469 87.851562 144.253906 87.820312 C 144.265625 87.800781 144.277344 87.785156 144.292969 87.769531 C 144.359375 87.675781 144.429688 87.582031 144.453125 87.484375 C 144.507812 87.210938 144.632812 86.972656 144.757812 86.738281 C 144.785156 86.6875 144.816406 86.632812 144.839844 86.582031 C 144.996094 86.277344 145.136719 85.960938 145.257812 85.636719 C 145.277344 85.585938 145.292969 85.535156 145.308594 85.484375 C 145.34375 85.371094 145.382812 85.253906 145.441406 85.152344 C 145.511719 85.035156 145.542969 84.917969 145.539062 84.777344 C 145.539062 84.59375 145.539062 84.40625 145.542969 84.21875 C 145.542969 83.863281 145.546875 83.496094 145.535156 83.136719 C 145.523438 82.835938 145.59375 82.566406 145.753906 82.296875 C 145.832031 82.167969 145.921875 82.0625 146.003906 81.976562 C 146.078125 81.894531 146.160156 81.816406 146.238281 81.738281 C 146.3125 81.667969 146.386719 81.59375 146.460938 81.519531 C 146.644531 81.320312 146.722656 81.125 146.707031 80.910156 C 146.695312 80.761719 146.730469 80.617188 146.769531 80.476562 C 146.804688 80.339844 146.839844 80.199219 146.828125 80.054688 C 146.824219 80.015625 146.847656 79.976562 146.871094 79.941406 C 146.882812 79.921875 146.894531 79.90625 146.902344 79.890625 C 147.003906 79.664062 147.179688 79.527344 147.339844 79.425781 L 147.402344 79.382812 C 147.621094 79.242188 147.84375 79.097656 148.027344 78.902344 C 148.183594 78.734375 148.242188 78.589844 148.238281 78.402344 C 148.230469 78.042969 148.234375 77.671875 148.234375 77.316406 C 148.234375 77.171875 148.234375 77.023438 148.238281 76.878906 C 148.238281 76.84375 148.234375 76.808594 148.234375 76.769531 C 148.230469 76.6875 148.226562 76.605469 148.242188 76.523438 C 148.28125 76.324219 148.332031 76.136719 148.398438 75.972656 C 148.441406 75.859375 148.550781 75.8125 148.648438 75.773438 C 148.679688 75.757812 148.710938 75.746094 148.738281 75.730469 C 149.003906 75.59375 149.351562 75.402344 149.671875 75.160156 C 149.707031 75.132812 149.746094 75.113281 149.785156 75.09375 C 149.878906 75.039062 149.972656 74.992188 149.980469 74.875 C 149.984375 74.792969 150.019531 74.722656 150.050781 74.65625 C 150.089844 74.566406 150.128906 74.480469 150.109375 74.382812 C 150.09375 74.308594 150.097656 74.234375 150.101562 74.160156 C 150.105469 74.132812 150.105469 74.109375 150.105469 74.082031 L 150.105469 74.046875 C 150.109375 73.925781 150.113281 73.796875 150.125 73.671875 C 150.128906 73.628906 150.199219 73.597656 150.234375 73.589844 C 150.269531 73.585938 150.3125 73.609375 150.347656 73.628906 C 150.371094 73.640625 150.386719 73.675781 150.386719 73.699219 C 150.386719 73.785156 150.390625 73.875 150.394531 73.960938 C 150.40625 74.164062 150.414062 74.378906 150.386719 74.582031 C 150.339844 74.871094 150.253906 75.195312 149.949219 75.390625 C 149.84375 75.457031 149.738281 75.519531 149.613281 75.59375 C 149.574219 75.617188 149.527344 75.644531 149.484375 75.671875 C 149.667969 75.6875 149.835938 75.6875 150 75.6875 C 150.09375 75.6875 150.183594 75.691406 150.277344 75.695312 C 150.292969 75.695312 150.3125 75.695312 150.332031 75.695312 C 150.792969 75.695312 151.1875 75.480469 151.546875 75.253906 C 151.90625 75.023438 152.210938 74.710938 152.503906 74.410156 C 152.585938 74.328125 152.667969 74.242188 152.75 74.160156 C 152.785156 74.128906 152.800781 74.09375 152.800781 74.0625 C 152.800781 74.027344 152.777344 73.988281 152.738281 73.949219 C 152.613281 73.835938 152.554688 73.8125 152.40625 73.898438 C 152.199219 74.015625 151.972656 74.089844 151.753906 74.160156 C 151.523438 74.234375 151.289062 74.3125 151.074219 74.4375 C 151 74.480469 150.898438 74.515625 150.792969 74.527344 C 150.75 74.527344 150.714844 74.496094 150.679688 74.460938 C 150.667969 74.449219 150.65625 74.4375 150.644531 74.429688 C 150.617188 74.40625 150.601562 74.378906 150.605469 74.355469 C 150.609375 74.332031 150.628906 74.3125 150.660156 74.296875 C 150.945312 74.175781 151.132812 73.945312 151.332031 73.679688 C 151.695312 73.195312 151.992188 72.835938 152.296875 72.519531 C 152.414062 72.394531 152.519531 72.261719 152.613281 72.109375 C 152.804688 71.8125 153.023438 71.503906 153.3125 71.246094 C 153.371094 71.195312 153.421875 71.136719 153.472656 71.082031 C 153.535156 71.003906 153.53125 70.882812 153.460938 70.792969 M 149.070312 74.75 C 148.996094 74.855469 148.890625 74.90625 148.75 74.90625 C 148.367188 74.898438 147.964844 74.898438 147.519531 74.90625 C 147.175781 74.914062 147.007812 75.078125 147 75.410156 C 147 75.445312 147 75.480469 147.003906 75.515625 C 147.003906 75.578125 147.007812 75.644531 147 75.707031 C 146.988281 75.8125 146.984375 75.917969 147.042969 75.984375 C 147.082031 76.035156 147.152344 76.0625 147.253906 76.070312 C 147.371094 76.078125 147.464844 76.207031 147.46875 76.359375 C 147.46875 76.394531 147.46875 76.425781 147.46875 76.460938 C 147.464844 76.582031 147.460938 76.695312 147.535156 76.796875 C 147.566406 76.84375 147.558594 76.941406 147.527344 76.988281 C 147.449219 77.097656 147.453125 77.21875 147.453125 77.347656 C 147.457031 77.375 147.457031 77.402344 147.457031 77.425781 C 147.453125 77.484375 147.453125 77.542969 147.453125 77.597656 C 147.449219 77.773438 147.445312 77.953125 147.460938 78.128906 C 147.484375 78.394531 147.320312 78.535156 147.175781 78.628906 C 147 78.738281 146.824219 78.824219 146.652344 78.886719 C 146.457031 78.957031 146.375 79.070312 146.402344 79.25 C 146.421875 79.375 146.382812 79.480469 146.34375 79.585938 C 146.308594 79.683594 146.273438 79.769531 146.28125 79.875 L 146.285156 79.914062 C 146.300781 80.121094 146.316406 80.332031 146.261719 80.523438 C 146.210938 80.691406 146.191406 80.855469 146.171875 81.027344 L 146.164062 81.085938 C 146.160156 81.136719 146.125 81.1875 146.09375 81.230469 L 146.082031 81.246094 C 146.0625 81.269531 146.027344 81.3125 145.984375 81.332031 C 145.792969 81.410156 145.628906 81.546875 145.511719 81.730469 C 145.3125 82.050781 145.289062 82.421875 144.957031 82.644531 C 144.804688 82.746094 144.726562 82.835938 144.640625 82.996094 C 144.5625 83.148438 144.488281 83.300781 144.414062 83.460938 C 144.289062 83.726562 144.089844 83.84375 143.785156 83.832031 C 143.355469 83.816406 142.921875 83.816406 142.5 83.832031 C 142.226562 83.84375 142.019531 83.726562 141.910156 83.492188 C 141.882812 83.433594 141.851562 83.375 141.820312 83.320312 C 141.738281 83.175781 141.707031 83.042969 141.664062 82.890625 C 141.625 82.765625 141.519531 82.714844 141.421875 82.632812 C 141.378906 82.597656 141.078125 82.4375 141.070312 82.410156 C 141.058594 82.363281 141.039062 82.316406 141.015625 82.269531 C 140.972656 82.175781 140.933594 82.078125 140.949219 81.964844 C 140.960938 81.878906 140.898438 81.816406 140.835938 81.753906 L 140.820312 81.738281 C 140.660156 81.578125 140.488281 81.410156 140.273438 81.210938 C 140.171875 81.113281 140.125 81.011719 140.128906 80.882812 C 140.132812 80.820312 140.128906 80.757812 140.128906 80.695312 C 140.121094 80.601562 140.117188 80.503906 140.132812 80.410156 C 140.148438 80.296875 140.113281 80.191406 140.078125 80.082031 C 140.046875 79.988281 140.019531 79.894531 140.019531 79.792969 C 140.019531 79.605469 140.023438 79.410156 139.910156 79.230469 C 139.914062 78.957031 139.714844 78.859375 139.496094 78.78125 L 139.441406 78.757812 C 139.277344 78.699219 139.109375 78.640625 138.984375 78.5 C 138.921875 78.433594 138.851562 78.351562 138.851562 78.230469 C 138.851562 77.707031 138.847656 77.148438 138.84375 76.414062 C 138.84375 76.296875 138.863281 76.171875 139.035156 76.128906 C 139.082031 76.117188 139.128906 76.09375 139.175781 76.066406 C 139.195312 76.050781 139.214844 76.042969 139.238281 76.03125 C 139.289062 76.003906 139.308594 75.972656 139.308594 75.917969 C 139.308594 75.828125 139.308594 75.734375 139.308594 75.644531 C 139.308594 75.558594 139.308594 75.476562 139.308594 75.390625 C 139.304688 75.085938 139.132812 74.914062 138.832031 74.90625 C 138.597656 74.902344 138.359375 74.902344 138.132812 74.902344 C 137.957031 74.902344 137.777344 74.902344 137.597656 74.898438 C 137.503906 74.898438 137.429688 74.886719 137.367188 74.863281 C 137.308594 74.839844 137.261719 74.789062 137.226562 74.738281 C 137.214844 74.722656 137.21875 74.703125 137.230469 74.675781 C 137.253906 74.628906 137.332031 74.539062 137.390625 74.539062 C 137.5625 74.535156 137.738281 74.539062 137.90625 74.535156 L 138.066406 74.539062 L 138.066406 74.523438 L 138.25 74.519531 C 138.351562 74.519531 138.457031 74.519531 138.558594 74.523438 C 138.832031 74.523438 139.078125 74.621094 139.285156 74.71875 C 139.472656 74.804688 139.578125 74.96875 139.601562 75.191406 C 139.609375 75.285156 139.609375 75.382812 139.605469 75.472656 C 139.605469 75.535156 139.601562 75.597656 139.605469 75.664062 C 139.605469 75.691406 139.605469 75.722656 139.601562 75.753906 C 139.601562 75.84375 139.597656 75.9375 139.636719 75.980469 C 139.703125 76.054688 139.800781 76.042969 139.902344 76.03125 C 139.957031 76.023438 140.011719 76.015625 140.066406 76.019531 C 140.074219 76.019531 140.09375 76.011719 140.109375 76 C 140.125 75.992188 140.140625 75.980469 140.15625 75.976562 C 140.347656 75.917969 140.539062 75.863281 140.722656 75.808594 C 141.023438 75.722656 141.335938 75.636719 141.636719 75.53125 C 141.914062 75.429688 142.109375 75.300781 142.148438 74.996094 C 142.175781 74.765625 142.425781 74.699219 142.605469 74.652344 C 142.738281 74.617188 142.929688 74.582031 143.085938 74.683594 C 143.164062 74.738281 143.222656 74.71875 143.3125 74.691406 L 143.328125 74.6875 C 143.738281 74.5625 144 74.675781 144.203125 75.074219 C 144.382812 75.429688 144.390625 75.445312 144.769531 75.5625 C 144.933594 75.609375 145.105469 75.660156 145.269531 75.707031 C 145.574219 75.792969 145.890625 75.882812 146.195312 75.992188 C 146.277344 76.023438 146.371094 76.023438 146.46875 76.023438 C 146.507812 76.023438 146.550781 76.023438 146.589844 76.027344 C 146.625 76.027344 146.65625 76.019531 146.671875 76 C 146.695312 75.980469 146.703125 75.953125 146.703125 75.910156 C 146.707031 75.863281 146.707031 75.8125 146.707031 75.765625 C 146.710938 75.601562 146.714844 75.433594 146.707031 75.269531 C 146.699219 75.105469 146.773438 75 146.855469 74.886719 C 147.007812 74.679688 147.242188 74.570312 147.582031 74.535156 C 147.929688 74.503906 148.285156 74.511719 148.628906 74.519531 C 148.75 74.523438 148.871094 74.527344 148.992188 74.53125 C 149.035156 74.53125 149.074219 74.589844 149.089844 74.625 C 149.101562 74.660156 149.097656 74.71875 149.070312 74.75 "/>
</g>
</svg>
