<?xml version="1.0" encoding="UTF-8" standalone="no"?>
<!DOCTYPE svg PUBLIC "-//W3C//DTD SVG 1.1//EN" "http://www.w3.org/Graphics/SVG/1.1/DTD/svg11.dtd">
<svg width="100%" height="100%" viewBox="0 0 14 14" version="1.1" xmlns="http://www.w3.org/2000/svg" xmlns:xlink="http://www.w3.org/1999/xlink" xml:space="preserve" xmlns:serif="http://www.serif.com/" style="fill-rule:evenodd;clip-rule:evenodd;stroke-linejoin:round;stroke-miterlimit:2;">
    <g transform="matrix(1,0,0,1,1.29236,7.10667)">
        <path d="M0,-0.505C0.343,-0.775 0.498,-1.155 0.729,-1.48C0.966,-1.811 1.166,-2.165 1.374,-2.516C1.561,-2.832 1.837,-3.09 2.12,-3.329C2.319,-3.496 2.543,-3.629 2.753,-3.781C2.95,-3.923 3.183,-4.016 3.402,-4.128C3.499,-4.178 3.601,-4.217 3.697,-4.268C3.739,-4.29 3.727,-4.342 3.719,-4.379C3.708,-4.428 3.669,-4.435 3.626,-4.418C3.262,-4.27 2.863,-4.211 2.54,-3.959C2.328,-3.795 2.094,-3.659 1.888,-3.483C1.484,-3.135 1.089,-2.776 0.694,-2.418C0.553,-2.291 0.404,-2.171 0.265,-2.039C0.022,-1.809 -0.155,-1.535 -0.305,-1.239C-0.345,-1.16 -0.376,-1.071 -0.453,-1.014C-0.485,-0.991 -0.511,-0.951 -0.556,-0.965C-0.604,-0.979 -0.593,-1.026 -0.603,-1.063C-0.685,-1.349 -0.671,-1.642 -0.654,-1.932C-0.64,-2.185 -0.742,-2.397 -0.845,-2.613C-0.877,-2.681 -0.943,-2.704 -1,-2.744C-1.093,-2.811 -1.2,-2.865 -1.255,-2.983C-1.324,-3.134 -1.303,-3.21 -1.145,-3.273C-0.962,-3.346 -0.781,-3.43 -0.593,-3.486C-0.286,-3.578 -0.04,-3.771 0.181,-3.98C0.461,-4.246 0.795,-4.418 1.115,-4.619C1.656,-4.96 2.26,-5.17 2.818,-5.473C3.07,-5.611 3.319,-5.751 3.588,-5.855C3.738,-5.912 3.885,-5.962 4.05,-5.953C4.212,-5.945 4.375,-5.946 4.537,-5.954C4.74,-5.963 4.932,-5.909 5.123,-5.86C5.599,-5.736 6.069,-5.592 6.547,-5.474C6.732,-5.428 6.874,-5.349 6.972,-5.184C7.002,-5.133 7.051,-5.093 7.094,-5.049C7.135,-5.006 7.131,-4.968 7.104,-4.915C7.037,-4.781 6.975,-4.648 6.858,-4.543C6.622,-4.332 6.504,-4.067 6.521,-3.745C6.528,-3.614 6.529,-3.481 6.519,-3.35C6.511,-3.243 6.553,-3.154 6.592,-3.063C6.655,-2.919 6.749,-2.803 6.919,-2.792C7.042,-2.784 6.964,-2.732 6.959,-2.681C6.941,-2.502 6.865,-2.331 6.892,-2.147C6.91,-2.025 6.798,-1.925 6.825,-1.798C6.835,-1.748 6.834,-1.699 6.903,-1.692C7.196,-1.661 7.237,-1.41 7.245,-1.21C7.255,-0.938 7.344,-0.676 7.321,-0.403C7.32,-0.393 7.319,-0.382 7.322,-0.373C7.411,-0.05 7.45,0.286 7.574,0.599C7.603,0.673 7.663,0.738 7.676,0.813C7.701,0.953 7.79,1.026 7.907,1.065C8.164,1.149 8.366,1.305 8.533,1.51C8.603,1.596 8.639,1.568 8.721,1.515C8.941,1.374 9.196,1.325 9.454,1.299C9.524,1.292 9.596,1.3 9.667,1.298C9.861,1.294 9.986,1.167 9.995,0.964C9.998,0.903 9.999,0.842 9.993,0.781C9.985,0.693 10.018,0.629 10.081,0.567C10.305,0.349 10.416,0.081 10.428,-0.234C10.433,-0.347 10.488,-0.455 10.429,-0.573C10.404,-0.624 10.439,-0.685 10.467,-0.743C10.5,-0.812 10.532,-0.885 10.553,-0.963C10.631,-1.247 10.562,-1.493 10.314,-1.624C10.137,-1.718 9.983,-1.823 9.853,-1.979C9.754,-2.098 9.62,-2.126 9.448,-2.095C9.034,-2.02 8.815,-1.736 8.642,-1.402C8.47,-1.069 8.693,-0.55 9.043,-0.429C9.219,-0.369 9.485,-0.468 9.591,-0.649C9.634,-0.723 9.579,-0.797 9.512,-0.835C9.416,-0.889 9.314,-0.926 9.238,-1.013C9.127,-1.141 9.11,-1.186 9.208,-1.33C9.339,-1.523 9.489,-1.7 9.759,-1.692C9.852,-1.689 9.905,-1.649 9.935,-1.561C10.024,-1.3 10.113,-1.038 10.212,-0.781C10.258,-0.664 10.237,-0.582 10.161,-0.481C9.939,-0.182 9.669,0.074 9.436,0.363C9.355,0.465 9.277,0.569 9.19,0.666C9.144,0.717 9.146,0.774 9.139,0.834C9.113,1.082 8.952,1.178 8.721,1.083C8.501,0.993 8.378,0.805 8.299,0.602C8.248,0.472 8.186,0.388 8.067,0.32C7.804,0.171 7.636,-0.055 7.557,-0.351C7.453,-0.74 7.489,-1.124 7.594,-1.503C7.623,-1.608 7.633,-1.691 7.569,-1.784C7.468,-1.933 7.482,-2.084 7.583,-2.23C7.686,-2.379 7.742,-2.534 7.762,-2.724C7.78,-2.888 7.88,-3.06 8.002,-3.196C8.083,-3.288 8.14,-3.385 8.177,-3.505C8.32,-3.973 8.811,-4.207 9.201,-4.244C9.402,-4.263 9.606,-4.247 9.809,-4.248C10.144,-4.249 10.416,-4.12 10.598,-3.84C10.653,-3.755 10.701,-3.71 10.801,-3.69C10.865,-3.677 10.934,-3.653 10.996,-3.627C11.402,-3.46 11.695,-3.19 11.832,-2.755C11.9,-2.537 11.945,-2.315 12,-2.096C12.053,-1.884 12.12,-1.678 12.201,-1.477C12.306,-1.216 12.383,-0.952 12.376,-0.667C12.371,-0.465 12.375,-0.261 12.373,-0.058C12.37,0.251 12.328,0.556 12.255,0.857C12.23,0.963 12.247,1.072 12.218,1.184C12.125,1.549 11.888,1.836 11.716,2.158C11.655,2.271 11.581,2.378 11.514,2.488C11.276,2.876 10.974,3.21 10.652,3.529C10.466,3.713 10.294,3.906 10.18,4.146C10.14,4.233 10.078,4.239 10.033,4.155C9.914,3.935 9.723,3.79 9.524,3.653C9.443,3.598 9.361,3.534 9.252,3.546C9.096,3.562 9.03,3.464 8.952,3.347C8.841,3.183 8.836,3.01 8.84,2.829C8.84,2.796 8.826,2.77 8.796,2.762C8.765,2.754 8.729,2.765 8.724,2.797C8.714,2.867 8.649,2.911 8.657,2.993C8.675,3.192 8.706,3.39 8.825,3.552C8.897,3.651 8.958,3.735 8.973,3.868C8.987,3.985 9.142,4.099 9.105,4.205C9.074,4.294 8.911,4.33 8.823,4.408C8.729,4.49 8.699,4.609 8.715,4.735C8.735,4.897 8.691,4.988 8.506,5.03C8.338,5.068 8.184,5.172 8.026,5.252C7.714,5.41 7.385,5.458 7.038,5.437C6.743,5.419 6.736,5.429 6.835,5.144C6.887,4.997 6.884,4.869 6.844,4.713C6.781,4.464 6.749,4.201 6.768,3.938C6.77,3.913 6.756,3.871 6.737,3.861C6.697,3.84 6.656,3.862 6.635,3.899C6.556,4.036 6.452,4.164 6.464,4.336C6.47,4.429 6.426,4.51 6.41,4.596C6.388,4.719 6.332,4.774 6.209,4.77C6.03,4.764 5.88,4.827 5.752,4.954C5.621,5.084 5.483,5.079 5.32,4.993C4.95,4.799 4.94,4.8 5.249,4.498C5.509,4.244 5.627,3.944 5.616,3.585C5.611,3.453 5.609,3.321 5.616,3.189C5.625,3.036 5.596,2.892 5.549,2.748C5.449,2.442 5.499,2.158 5.694,1.914C5.713,1.89 5.736,1.869 5.756,1.846C5.81,1.784 5.81,1.723 5.761,1.655C5.691,1.559 5.62,1.65 5.584,1.674C5.449,1.765 5.326,1.877 5.366,2.07C5.37,2.09 5.366,2.111 5.369,2.131C5.406,2.431 5.339,2.708 5.178,2.96C5.094,3.092 5.071,3.231 5.057,3.385C5.028,3.696 4.905,3.977 4.714,4.226C4.665,4.291 4.591,4.307 4.528,4.255C4.312,4.075 4.094,4.127 3.897,4.267C3.766,4.361 3.664,4.345 3.538,4.281C3.46,4.242 3.468,4.186 3.492,4.133C3.511,4.089 3.553,4.053 3.591,4.019C3.686,3.934 3.747,3.837 3.727,3.702C3.711,3.595 3.764,3.504 3.822,3.424C4.026,3.146 4.106,2.818 4.209,2.499C4.283,2.272 4.321,2.042 4.344,1.802C4.374,1.494 4.417,1.172 4.617,0.907C4.633,0.886 4.635,0.851 4.637,0.822C4.638,0.804 4.631,0.782 4.619,0.768C4.614,0.763 4.586,0.77 4.574,0.779C4.287,0.978 4.198,1.283 4.152,1.602C4.107,1.926 4.037,2.243 3.943,2.554C3.886,2.743 3.8,2.919 3.686,3.088C3.593,3.226 3.51,3.324 3.332,3.301C3.261,3.292 3.2,3.317 3.139,3.366C2.999,3.477 2.838,3.56 2.702,3.68C2.544,3.82 2.458,3.815 2.293,3.663C2.114,3.498 1.944,3.323 1.774,3.148C1.694,3.065 1.699,3.015 1.791,2.956C1.958,2.849 2.134,2.757 2.298,2.642C2.622,2.416 2.796,2.081 2.978,1.75C3,1.71 2.992,1.652 2.994,1.601C3.005,1.408 3.069,1.235 3.178,1.075C3.346,0.829 3.503,0.577 3.642,0.312C3.771,0.065 3.935,-0.163 4.132,-0.364C4.189,-0.422 4.249,-0.477 4.302,-0.538C4.354,-0.598 4.361,-0.692 4.32,-0.734C4.268,-0.788 4.199,-0.717 4.15,-0.68C4.044,-0.602 3.983,-0.482 3.902,-0.381C3.651,-0.07 3.428,0.258 3.236,0.608C3.111,0.835 2.964,1.047 2.78,1.236C2.52,1.503 2.221,1.734 2.015,2.053C1.99,2.092 1.942,2.125 1.897,2.141C1.853,2.158 1.784,2.159 1.782,2.089C1.778,1.894 1.646,1.896 1.508,1.896C1.347,1.897 1.184,1.883 1.048,1.993C0.983,2.046 0.938,2.017 0.893,1.969C0.879,1.954 0.865,1.939 0.85,1.925C0.577,1.653 0.587,1.643 0.89,1.402C1.071,1.257 1.235,1.086 1.385,0.909C1.677,0.565 1.873,0.167 2.034,-0.255C2.133,-0.513 2.282,-0.751 2.47,-0.966C2.595,-1.108 2.715,-1.256 2.846,-1.395C2.999,-1.557 3.165,-1.702 3.358,-1.812C3.449,-1.863 3.513,-1.939 3.584,-2.01C3.609,-2.035 3.608,-2.071 3.588,-2.09C3.569,-2.108 3.531,-2.119 3.507,-2.114C3.409,-2.091 3.321,-2.047 3.247,-1.976C3.127,-1.859 3,-1.751 2.887,-1.625C2.69,-1.406 2.481,-1.198 2.267,-0.996C2.046,-0.787 1.844,-0.568 1.736,-0.278C1.703,-0.19 1.642,-0.125 1.578,-0.061C1.327,0.19 1.076,0.442 0.825,0.693C0.71,0.807 0.569,0.884 0.428,0.958C0.322,1.014 0.257,0.994 0.201,0.895C0.109,0.731 0.061,0.548 -0.043,0.387C-0.089,0.315 -0.065,0.208 0.027,0.147C0.093,0.102 0.163,0.062 0.223,0.011C0.346,-0.094 0.351,-0.207 0.244,-0.328C0.21,-0.366 0.174,-0.403 0.134,-0.433C0.103,-0.457 0.065,-0.471 0,-0.505M7.299,2.239C7.217,2.329 7.123,2.387 7.105,2.462C7.057,2.654 6.909,2.78 6.827,2.947C6.796,3.01 6.756,3.068 6.732,3.133C6.691,3.239 6.68,3.347 6.758,3.444C6.796,3.491 6.846,3.506 6.882,3.45C7.009,3.26 7.11,3.048 7.126,2.824C7.137,2.675 7.183,2.559 7.255,2.44C7.279,2.4 7.324,2.364 7.299,2.239" style="fill:rgb(82,119,164);fill-rule:nonzero;"/>
    </g>
</svg>
