<?xml version="1.0" encoding="UTF-8" standalone="no"?>
<!DOCTYPE svg PUBLIC "-//W3C//DTD SVG 1.1//EN" "http://www.w3.org/Graphics/SVG/1.1/DTD/svg11.dtd">
<svg width="100%" height="100%" viewBox="0 0 16 16" version="1.1" xmlns="http://www.w3.org/2000/svg" xmlns:xlink="http://www.w3.org/1999/xlink" xml:space="preserve" xmlns:serif="http://www.serif.com/" style="fill-rule:evenodd;clip-rule:evenodd;stroke-linejoin:round;stroke-miterlimit:2;">
    <g transform="matrix(1,0,0,1,10.0148,10.4124)">
        <path d="M0,-4.941C0.003,-4.692 0.031,-4.509 -0.031,-4.319C-0.079,-4.171 -0.077,-4.008 -0.108,-3.852C-0.175,-3.513 -0.224,-3.17 -0.282,-2.829C-0.313,-2.646 -0.35,-2.458 -0.365,-2.268C-0.386,-1.993 -0.426,-1.715 -0.499,-1.449C-0.552,-1.255 -0.549,-1.058 -0.593,-0.864C-0.665,-0.546 -0.705,-0.219 -0.732,0.109C-0.757,0.402 -0.836,0.691 -0.89,0.982C-0.899,1.03 -0.9,1.081 -0.905,1.13C-0.948,1.534 -0.983,1.939 -1.078,2.336C-1.119,2.509 -1.117,2.692 -1.135,2.869C-1.174,3.253 -1.314,3.597 -1.456,3.944C-1.655,4.428 -1.864,4.907 -2.063,5.391C-2.098,5.476 -2.134,5.475 -2.192,5.428C-2.413,5.248 -2.579,5.016 -2.751,4.794C-3.068,4.386 -3.355,3.955 -3.659,3.537C-3.736,3.431 -3.743,3.345 -3.691,3.219C-3.528,2.828 -3.364,2.436 -3.248,2.031C-3.175,1.776 -3.136,1.502 -3.163,1.23C-3.165,1.202 -3.174,1.162 -3.193,1.152C-3.232,1.129 -3.269,1.154 -3.297,1.187C-3.462,1.376 -3.68,1.517 -3.801,1.747C-3.823,1.79 -3.869,1.822 -3.907,1.854C-3.951,1.891 -4.003,1.862 -4.007,1.8C-4.011,1.75 -4.01,1.699 -4.01,1.648C-4.011,1.465 -3.994,1.281 -4.016,1.101C-4.087,0.508 -4.032,-0.09 -4.09,-0.68C-4.135,-1.144 -4.111,-1.606 -4.137,-2.068C-4.168,-2.6 -4.187,-3.133 -4.211,-3.666C-4.224,-3.944 -4.224,-4.228 -4.265,-4.503C-4.301,-4.743 -4.32,-4.98 -4.318,-5.22C-4.317,-5.26 -4.318,-5.301 -4.263,-5.311C-4.227,-5.317 -4.2,-5.296 -4.187,-5.272C-4.074,-5.055 -3.811,-4.977 -3.705,-4.755C-3.679,-4.7 -3.618,-4.712 -3.585,-4.675C-3.556,-4.64 -3.532,-4.667 -3.514,-4.688C-3.498,-4.707 -3.47,-4.717 -3.488,-4.76C-3.633,-5.104 -3.77,-5.452 -3.919,-5.795C-3.974,-5.921 -4.046,-6.04 -4.129,-6.154C-4.206,-6.261 -4.218,-6.375 -4.143,-6.514C-3.851,-7.052 -3.639,-7.628 -3.431,-8.201C-3.263,-8.661 -3.095,-9.124 -2.957,-9.597C-2.886,-9.84 -2.799,-10.083 -2.727,-10.329C-2.717,-10.364 -2.679,-10.406 -2.646,-10.412C-2.623,-10.417 -2.58,-10.374 -2.561,-10.343C-2.349,-9.977 -2.178,-9.59 -2,-9.206C-1.783,-8.739 -1.562,-8.273 -1.33,-7.813C-1.058,-7.274 -0.77,-6.743 -0.496,-6.205C-0.432,-6.082 -0.341,-5.977 -0.288,-5.845C-0.244,-5.734 -0.236,-5.651 -0.279,-5.535C-0.47,-5.029 -0.652,-4.521 -0.812,-4.003C-0.968,-3.497 -1.118,-2.988 -1.281,-2.483C-1.344,-2.288 -1.396,-2.089 -1.45,-1.89C-1.46,-1.853 -1.458,-1.806 -1.412,-1.789C-1.368,-1.773 -1.331,-1.803 -1.312,-1.837C-1.236,-1.976 -1.15,-2.113 -1.096,-2.261C-0.966,-2.613 -0.822,-2.957 -0.668,-3.3C-0.463,-3.758 -0.276,-4.224 -0.113,-4.699C-0.091,-4.762 -0.057,-4.821 0,-4.941" style="fill:rgb(148,115,168);fill-rule:nonzero;"/>
    </g>
    <g transform="matrix(1,0,0,1,12.3975,11.3454)">
        <path d="M0,-5.75C0.027,-6.287 -0.134,-6.736 -0.314,-7.176C-0.358,-7.283 -0.356,-7.336 -0.277,-7.406C-0.104,-7.559 0.101,-7.652 0.306,-7.749C0.383,-7.785 0.424,-7.753 0.457,-7.703C0.495,-7.645 0.52,-7.579 0.549,-7.516C0.73,-7.12 0.922,-6.728 1.122,-6.343C1.37,-5.867 1.601,-5.381 1.858,-4.91C1.982,-4.683 2.092,-4.447 2.237,-4.235C2.34,-4.086 2.331,-3.967 2.256,-3.819C2.04,-3.396 1.838,-2.966 1.621,-2.544C1.377,-2.068 1.141,-1.587 0.885,-1.117C0.796,-0.954 0.698,-0.793 0.62,-0.622C0.6,-0.577 0.577,-0.532 0.546,-0.495C0.53,-0.477 0.492,-0.466 0.467,-0.471C0.435,-0.477 0.42,-0.521 0.435,-0.542C0.478,-0.602 0.476,-0.674 0.501,-0.738C0.603,-1.005 0.696,-1.275 0.76,-1.554C0.762,-1.564 0.773,-1.571 0.775,-1.58C0.79,-1.693 0.805,-1.806 0.819,-1.918C0.652,-1.929 0.644,-1.763 0.588,-1.678C0.264,-1.191 -0.055,-0.7 -0.344,-0.192C-0.54,0.151 -0.69,0.52 -0.848,0.883C-0.924,1.057 -1.015,1.22 -1.132,1.367C-1.301,1.578 -1.478,1.783 -1.649,1.992C-1.67,2.018 -1.693,2.035 -1.723,2.027C-1.754,2.02 -1.77,1.994 -1.767,1.96C-1.762,1.891 -1.775,1.812 -1.746,1.753C-1.712,1.685 -1.714,1.619 -1.707,1.549C-1.664,1.146 -1.624,0.742 -1.528,0.346C-1.521,0.317 -1.525,0.285 -1.525,0.255C-1.523,-0.075 -1.445,-0.396 -1.414,-0.721C-1.391,-0.97 -1.366,-1.222 -1.328,-1.465C-1.282,-1.76 -1.329,-2.065 -1.223,-2.351C-1.217,-2.369 -1.219,-2.392 -1.221,-2.412C-1.253,-2.765 -1.169,-3.112 -1.143,-3.461C-1.119,-3.792 -1.133,-4.126 -1.085,-4.451C-1.004,-4.995 -1.057,-5.539 -1.032,-6.082C-1.029,-6.132 -1.032,-6.183 -1.03,-6.234C-1.028,-6.302 -0.987,-6.35 -0.927,-6.365C-0.856,-6.382 -0.858,-6.307 -0.839,-6.267C-0.708,-6.006 -0.548,-5.766 -0.329,-5.569C-0.268,-5.514 -0.207,-5.467 -0.133,-5.433C-0.029,-5.385 -0.005,-5.391 -0.001,-5.493C0.003,-5.595 0,-5.696 0,-5.75" style="fill:rgb(148,115,168);fill-rule:nonzero;"/>
    </g>
    <g transform="matrix(1,0,0,1,1.91731,8.5054)">
        <path d="M0,-0.264C0.023,-0.713 -0.103,-1.066 -0.223,-1.421C-0.344,-1.777 -0.494,-2.121 -0.67,-2.453C-0.754,-2.611 -0.741,-2.754 -0.669,-2.909C-0.426,-3.438 -0.258,-3.993 -0.115,-4.557C-0.098,-4.624 -0.072,-4.69 -0.048,-4.751C0.042,-4.984 0.057,-4.982 0.217,-4.808C0.407,-4.6 0.599,-4.392 0.796,-4.194C1.043,-3.946 1.288,-3.682 1.575,-3.483C1.759,-3.356 1.855,-3.206 1.887,-3.006C1.905,-2.888 1.984,-2.783 1.954,-2.656C1.949,-2.631 1.959,-2.591 1.977,-2.572C2.146,-2.401 2.084,-2.183 2.057,-1.998C2.039,-1.87 2.022,-1.742 2.018,-1.614C2.011,-1.341 2.036,-1.064 2.007,-0.793C1.928,-0.069 2,0.661 1.938,1.382C1.884,2.008 1.902,2.631 1.895,3.255C1.892,3.557 1.804,3.851 1.836,4.154C1.844,4.232 1.828,4.31 1.859,4.391C1.899,4.494 1.839,4.589 1.735,4.642C1.58,4.72 1.557,4.711 1.442,4.585C1.253,4.377 1.07,4.159 0.872,3.962C0.605,3.697 0.447,3.393 0.374,3.035C0.226,2.312 0.016,1.604 -0.16,0.888C-0.261,0.478 -0.326,0.058 -0.474,-0.34C-0.484,-0.368 -0.484,-0.4 -0.481,-0.43C-0.475,-0.508 -0.526,-0.618 -0.448,-0.655C-0.363,-0.695 -0.296,-0.59 -0.268,-0.528C-0.215,-0.417 -0.093,-0.402 0,-0.264" style="fill:rgb(148,115,168);fill-rule:nonzero;"/>
    </g>
</svg>
