<?xml version="1.0" encoding="UTF-8" standalone="no"?>
<!DOCTYPE svg PUBLIC "-//W3C//DTD SVG 1.1//EN" "http://www.w3.org/Graphics/SVG/1.1/DTD/svg11.dtd">
<svg width="100%" height="100%" viewBox="0 0 17 17" version="1.1" xmlns="http://www.w3.org/2000/svg" xmlns:xlink="http://www.w3.org/1999/xlink" xml:space="preserve" xmlns:serif="http://www.serif.com/" style="fill-rule:evenodd;clip-rule:evenodd;stroke-linejoin:round;stroke-miterlimit:2;">
    <g transform="matrix(1,0,0,1,7.81782,15.129)">
        <path d="M0,-13.641C-0.106,-13.535 -0.165,-13.481 -0.196,-13.383C-0.306,-13.024 -0.44,-12.672 -0.582,-12.323C-0.715,-11.995 -0.775,-11.641 -0.857,-11.296C-1.01,-10.651 -0.992,-9.999 -0.98,-9.345C-0.881,-9.143 -0.943,-8.913 -0.864,-8.703C-0.801,-8.535 -0.807,-8.35 -0.792,-8.17C-0.766,-7.843 -0.736,-7.512 -0.658,-7.195C-0.602,-6.965 -0.644,-6.713 -0.503,-6.502C-0.48,-6.468 -0.518,-6.427 -0.549,-6.399C-0.596,-6.356 -0.614,-6.408 -0.643,-6.427C-0.666,-6.443 -0.702,-6.475 -0.713,-6.468C-0.753,-6.443 -0.747,-6.388 -0.73,-6.359C-0.611,-6.152 -0.555,-5.91 -0.382,-5.736C-0.327,-5.681 -0.322,-5.617 -0.304,-5.548C-0.18,-5.07 -0.04,-4.597 0.08,-4.118C0.163,-3.783 0.276,-3.458 0.314,-3.106C0.351,-2.77 0.391,-2.433 0.436,-2.098C0.476,-1.796 0.509,-1.492 0.468,-1.199C0.424,-0.887 0.447,-0.576 0.414,-0.268C0.352,0.325 0.221,0.904 -0.015,1.454C-0.021,1.468 -0.045,1.479 -0.062,1.484C-0.1,1.495 -0.123,1.468 -0.124,1.438C-0.131,1.278 -0.177,1.124 -0.197,0.966C-0.233,0.692 -0.213,0.406 -0.315,0.144C-0.42,-0.126 -0.591,-0.362 -0.747,-0.604C-0.779,-0.654 -0.82,-0.701 -0.89,-0.704C-1.054,-0.71 -1.134,-0.841 -1.197,-0.955C-1.38,-1.293 -1.69,-1.498 -1.968,-1.738C-2.266,-1.998 -2.538,-2.285 -2.818,-2.564C-2.904,-2.65 -2.89,-2.769 -2.854,-2.849C-2.796,-2.98 -2.811,-3.106 -2.81,-3.235C-2.808,-3.448 -2.799,-3.662 -2.812,-3.874C-2.82,-4 -2.72,-4.099 -2.749,-4.225C-2.756,-4.257 -2.763,-4.281 -2.797,-4.288C-2.834,-4.296 -2.855,-4.273 -2.86,-4.243C-2.915,-3.918 -3.087,-3.636 -3.197,-3.331C-3.221,-3.264 -3.295,-3.263 -3.332,-3.327C-3.569,-3.728 -3.789,-4.138 -3.967,-4.57C-4.088,-4.863 -4.156,-5.172 -4.251,-5.473C-4.277,-5.557 -4.263,-5.653 -4.274,-5.743C-4.287,-5.848 -4.181,-5.918 -4.204,-6.03C-4.22,-6.109 -4.274,-6.168 -4.228,-6.28C-4.145,-6.483 -4,-6.628 -3.872,-6.79C-3.798,-6.884 -3.691,-6.948 -3.643,-7.068C-3.616,-7.135 -3.563,-7.197 -3.626,-7.257C-3.674,-7.302 -3.735,-7.269 -3.792,-7.242C-3.964,-7.16 -4.124,-7.062 -4.274,-6.944C-4.341,-6.891 -4.391,-6.915 -4.391,-7.001C-4.392,-7.478 -4.394,-7.955 -4.385,-8.432C-4.383,-8.527 -4.345,-8.625 -4.309,-8.717C-4.171,-9.065 -4.025,-9.41 -3.887,-9.757C-3.557,-10.585 -3.052,-11.312 -2.555,-12.042C-2.414,-12.249 -2.23,-12.425 -2.067,-12.617C-1.931,-12.779 -1.745,-12.894 -1.641,-13.086C-1.625,-13.116 -1.592,-13.129 -1.566,-13.118C-1.518,-13.098 -1.559,-13.071 -1.57,-13.049C-1.78,-12.621 -1.928,-12.17 -2.069,-11.718C-2.254,-11.126 -2.429,-10.529 -2.562,-9.922C-2.636,-9.581 -2.689,-9.237 -2.686,-8.886C-2.682,-8.46 -2.702,-8.033 -2.681,-7.607C-2.65,-6.972 -2.531,-6.356 -2.302,-5.753C-2.065,-5.133 -1.745,-4.55 -1.524,-3.925C-1.278,-3.575 -1.17,-3.154 -0.935,-2.795C-0.792,-2.576 -0.674,-2.33 -0.614,-2.066C-0.605,-2.025 -0.598,-1.988 -0.565,-1.96C-0.55,-1.948 -0.533,-1.939 -0.517,-1.928C-0.51,-1.946 -0.493,-1.967 -0.497,-1.982C-0.538,-2.134 -0.572,-2.288 -0.627,-2.435C-0.854,-3.045 -1.095,-3.649 -1.372,-4.241C-1.682,-4.902 -2.039,-5.544 -2.215,-6.264C-2.252,-6.417 -2.291,-6.578 -2.304,-6.726C-2.323,-6.935 -2.388,-7.138 -2.382,-7.35C-2.375,-7.563 -2.38,-7.776 -2.38,-7.99C-2.38,-8.091 -2.381,-8.193 -2.379,-8.294C-2.371,-8.653 -2.284,-9.002 -2.229,-9.355C-2.153,-9.84 -1.938,-10.276 -1.771,-10.729C-1.569,-11.275 -1.442,-11.845 -1.229,-12.387C-1.149,-12.59 -1.077,-12.794 -0.986,-12.993C-0.765,-13.48 -0.572,-13.979 -0.299,-14.442C-0.187,-14.631 -0.166,-14.853 -0.126,-15.066C-0.12,-15.099 -0.109,-15.123 -0.076,-15.128C-0.021,-15.136 -0.006,-15.097 -0.01,-15.054C-0.038,-14.711 0.033,-14.372 0.069,-14.035C0.12,-13.556 0.228,-13.083 0.393,-12.623C0.585,-12.085 0.848,-11.589 1.179,-11.128C1.319,-10.932 1.487,-10.756 1.654,-10.581C1.884,-10.341 2.081,-10.07 2.33,-9.847C2.921,-9.317 3.435,-8.719 3.892,-8.071C3.904,-8.055 3.892,-8 3.939,-8.038C3.95,-8.048 3.956,-8.077 3.951,-8.093C3.905,-8.223 3.872,-8.36 3.806,-8.48C3.618,-8.818 3.45,-9.177 3.209,-9.476C2.961,-9.784 2.727,-10.112 2.389,-10.351C2.153,-10.519 1.963,-10.755 1.771,-10.977C1.714,-11.043 1.663,-11.122 1.598,-11.182C1.265,-11.492 1.108,-11.901 0.953,-12.312C0.945,-12.335 0.899,-12.357 0.94,-12.384C0.965,-12.4 0.997,-12.394 1.021,-12.37C1.215,-12.176 1.414,-11.987 1.603,-11.789C1.744,-11.642 1.906,-11.522 2.087,-11.438C2.338,-11.321 2.574,-11.173 2.842,-11.088C2.983,-11.044 3.111,-10.959 3.218,-10.845C3.39,-10.662 3.604,-10.528 3.797,-10.371C4.143,-10.089 4.443,-9.76 4.672,-9.376C4.788,-9.181 4.88,-8.971 4.978,-8.766C4.993,-8.734 4.996,-8.675 4.977,-8.652C4.931,-8.598 4.888,-8.668 4.855,-8.685C4.759,-8.735 4.675,-8.809 4.583,-8.868C4.51,-8.914 4.432,-8.953 4.327,-9.011C4.391,-8.786 4.497,-8.639 4.634,-8.508C4.773,-8.375 4.908,-8.237 5.044,-8.1C5.197,-7.946 5.267,-7.764 5.305,-7.544C5.386,-7.071 5.346,-6.598 5.349,-6.125C5.35,-5.888 5.282,-5.654 5.251,-5.419C5.214,-5.142 5.146,-4.873 5.107,-4.597C5.061,-4.261 4.951,-3.943 4.791,-3.644C4.778,-3.618 4.752,-3.597 4.728,-3.58C4.687,-3.552 4.638,-3.566 4.632,-3.607C4.614,-3.726 4.581,-3.846 4.576,-3.96C4.567,-4.142 4.501,-4.311 4.491,-4.493C4.483,-4.625 4.418,-4.759 4.36,-4.884C4.153,-5.322 3.961,-5.769 3.689,-6.174C3.621,-6.274 3.583,-6.383 3.587,-6.511C3.594,-6.719 3.597,-6.92 3.476,-7.118C3.4,-7.244 3.34,-7.404 3.342,-7.569C3.343,-7.601 3.331,-7.63 3.299,-7.637C3.251,-7.647 3.234,-7.615 3.218,-7.572C3.198,-7.517 3.153,-7.471 3.162,-7.405C3.174,-7.307 3.105,-7.236 3.069,-7.156C3.046,-7.107 3.001,-7.086 2.957,-7.147C2.79,-7.377 2.589,-7.576 2.389,-7.776C1.973,-8.192 1.548,-8.6 1.141,-9.025C0.786,-9.396 0.526,-9.818 0.405,-10.336C0.314,-10.723 0.253,-11.113 0.167,-11.499C0.114,-11.74 0.151,-11.982 0.107,-12.216C0.055,-12.49 0.078,-12.77 0.008,-13.044C-0.036,-13.215 0,-13.405 0,-13.641" style="fill:rgb(230,158,36);fill-rule:nonzero;"/>
    </g>
</svg>
