<?xml version="1.0" encoding="UTF-8" standalone="no"?>
<!DOCTYPE svg PUBLIC "-//W3C//DTD SVG 1.1//EN" "http://www.w3.org/Graphics/SVG/1.1/DTD/svg11.dtd">
<svg width="100%" height="100%" viewBox="0 0 17 17" version="1.1" xmlns="http://www.w3.org/2000/svg" xmlns:xlink="http://www.w3.org/1999/xlink" xml:space="preserve" xmlns:serif="http://www.serif.com/" style="fill-rule:evenodd;clip-rule:evenodd;stroke-linejoin:round;stroke-miterlimit:2;">
    <g transform="matrix(1,0,0,1,8.18918,13.5669)">
        <path d="M0,-10.778C0.241,-10.589 0.259,-10.315 0.338,-10.076C0.418,-9.833 0.482,-9.582 0.516,-9.329C0.546,-9.11 0.555,-8.878 0.513,-8.663C0.48,-8.492 0.466,-8.326 0.471,-8.158C0.488,-7.595 0.417,-7.045 0.293,-6.495C0.203,-6.096 0.083,-5.714 -0.086,-5.345C-0.123,-5.265 -0.179,-5.193 -0.229,-5.119C-0.252,-5.084 -0.278,-5.048 -0.243,-5.013C-0.207,-4.978 -0.169,-5 -0.141,-5.032C-0.094,-5.084 -0.053,-5.137 -0.014,-5.197C0.319,-5.705 0.568,-6.252 0.772,-6.823C0.888,-7.149 0.957,-7.487 1.058,-7.817C1.064,-7.836 1.073,-7.856 1.071,-7.874C1.049,-8.127 1.149,-8.369 1.141,-8.622C1.137,-8.749 1.141,-8.875 1.182,-9.006C1.217,-9.121 1.222,-9.265 1.16,-9.391C1.143,-9.425 1.141,-9.468 1.14,-9.507C1.112,-10.08 0.931,-10.609 0.717,-11.135C0.471,-11.739 0.095,-12.265 -0.212,-12.831C-0.331,-13.05 -0.463,-13.259 -0.606,-13.463C-0.621,-13.484 -0.629,-13.523 -0.62,-13.545C-0.598,-13.595 -0.573,-13.545 -0.552,-13.536C-0.487,-13.51 -0.416,-13.491 -0.363,-13.449C0.075,-13.1 0.575,-12.843 1.017,-12.501C1.145,-12.403 1.259,-12.283 1.367,-12.163C1.53,-11.981 1.736,-11.853 1.916,-11.694C2.285,-11.367 2.616,-11.017 2.733,-10.51C2.784,-10.289 2.893,-10.083 3.025,-9.893C3.238,-9.587 3.361,-9.233 3.432,-8.879C3.495,-8.567 3.486,-8.226 3.434,-7.91C3.377,-7.564 3.284,-7.219 3.156,-6.884C3.072,-6.661 2.958,-6.453 2.874,-6.23C2.645,-5.619 2.375,-5.021 2.092,-4.435C1.756,-3.74 1.398,-3.049 0.949,-2.414C0.868,-2.3 0.784,-2.187 0.691,-2.083C0.419,-1.779 0.328,-1.403 0.286,-1.018C0.249,-0.691 0.143,-0.374 0.154,-0.041C0.154,-0.029 0.13,-0.008 0.115,-0.005C0.099,-0.001 0.07,-0.007 0.062,-0.019C0.031,-0.07 0,-0.122 -0.021,-0.177C-0.052,-0.258 -0.116,-0.345 -0.179,-0.349C-0.364,-0.361 -0.393,-0.499 -0.455,-0.622C-0.507,-0.727 -0.55,-0.829 -0.682,-0.882C-0.957,-0.995 -1.132,-1.225 -1.226,-1.495C-1.383,-1.941 -1.49,-2.404 -1.661,-2.846C-1.634,-3.102 -1.839,-3.312 -1.794,-3.572C-1.928,-3.157 -1.931,-2.924 -1.859,-2.514C-1.826,-2.329 -1.839,-2.139 -1.797,-1.949C-1.749,-1.735 -1.694,-1.524 -1.6,-1.33C-1.313,-0.742 -1.068,-0.133 -0.7,0.415C-0.591,0.578 -0.53,0.773 -0.439,0.949C-0.328,1.161 -0.233,1.383 -0.041,1.543C0.073,1.639 0.121,1.76 0.041,1.911C-0.026,2.037 -0.028,2.18 -0.025,2.321C-0.023,2.452 -0.023,2.584 -0.026,2.716C-0.026,2.744 -0.037,2.784 -0.056,2.795C-0.095,2.817 -0.132,2.793 -0.16,2.759C-0.198,2.713 -0.251,2.679 -0.263,2.613C-0.332,2.225 -0.618,1.975 -0.86,1.703C-1.096,1.438 -1.353,1.191 -1.611,0.947C-1.851,0.719 -2.123,0.535 -2.444,0.437C-2.5,0.42 -2.563,0.426 -2.605,0.372C-2.829,0.091 -3.063,-0.192 -3.176,-0.534C-3.269,-0.813 -3.343,-1.101 -3.436,-1.381C-3.595,-1.857 -3.809,-2.307 -4.18,-2.658C-4.375,-2.843 -4.583,-3.024 -4.849,-3.096C-4.938,-3.121 -4.952,-3.177 -4.988,-3.231C-5.036,-3.305 -5.021,-3.392 -5.009,-3.467C-4.948,-3.818 -4.91,-4.173 -4.799,-4.513C-4.74,-4.691 -4.684,-4.872 -4.651,-5.056C-4.589,-5.414 -4.421,-5.723 -4.253,-6.037C-4.113,-6.299 -3.989,-6.568 -3.912,-6.859C-3.87,-7.019 -3.774,-7.166 -3.698,-7.317C-3.541,-7.632 -3.458,-7.961 -3.418,-8.314C-3.379,-8.656 -3.382,-8.996 -3.375,-9.338C-3.374,-9.378 -3.377,-9.425 -3.324,-9.43C-3.299,-9.433 -3.265,-9.417 -3.246,-9.398C-3.086,-9.242 -2.929,-9.084 -2.771,-8.926C-2.736,-8.89 -2.709,-8.852 -2.702,-8.797C-2.65,-8.432 -2.554,-8.073 -2.576,-7.698C-2.586,-7.526 -2.605,-7.361 -2.664,-7.2C-2.779,-6.883 -2.835,-6.553 -2.891,-6.22C-3.001,-5.566 -2.926,-4.91 -2.946,-4.255C-2.951,-4.101 -2.878,-3.968 -2.821,-3.831C-2.795,-3.768 -2.749,-3.769 -2.698,-3.775C-2.648,-3.781 -2.65,-3.825 -2.638,-3.863C-2.584,-4.039 -2.606,-4.223 -2.573,-4.398C-2.51,-4.738 -2.464,-5.081 -2.373,-5.416C-2.298,-5.692 -2.246,-5.973 -2.114,-6.233C-2.049,-6.36 -1.978,-6.476 -1.877,-6.576C-1.726,-6.724 -1.606,-6.899 -1.505,-7.082C-1.424,-7.229 -1.319,-7.342 -1.18,-7.428C-0.888,-7.607 -0.616,-7.81 -0.384,-8.065C-0.271,-8.19 -0.193,-8.318 -0.2,-8.493C-0.207,-8.674 -0.152,-8.844 -0.083,-9.011C-0.01,-9.186 0.038,-9.367 0.038,-9.558C0.037,-9.761 0.042,-9.964 0.038,-10.167C0.035,-10.286 0.049,-10.404 -0.012,-10.522C-0.043,-10.583 -0.041,-10.679 0,-10.778" style="fill:rgb(168,77,77);fill-rule:nonzero;"/>
    </g>
    <g transform="matrix(1,0,0,1,13.22,13.8729)">
        <path d="M0,-7.038C0,-6.685 0.032,-6.328 -0.009,-5.98C-0.051,-5.618 -0.043,-5.242 -0.186,-4.897C-0.296,-4.632 -0.416,-4.368 -0.561,-4.12C-0.651,-3.965 -0.74,-3.81 -0.818,-3.649C-0.962,-3.353 -1.13,-3.07 -1.315,-2.8C-1.62,-2.358 -1.865,-1.882 -2.126,-1.415C-2.321,-1.068 -2.451,-0.701 -2.505,-0.304C-2.54,-0.04 -2.641,0 -2.893,-0.112C-2.957,-0.141 -3.02,-0.17 -3.084,-0.197C-3.211,-0.252 -3.289,-0.322 -3.3,-0.485C-3.313,-0.696 -3.441,-0.877 -3.571,-1.038C-3.733,-1.24 -3.748,-1.44 -3.666,-1.68C-3.597,-1.88 -3.51,-2.065 -3.395,-2.24C-3.253,-2.456 -3.124,-2.681 -2.97,-2.888C-2.785,-3.137 -2.594,-3.385 -2.38,-3.608C-1.906,-4.101 -1.493,-4.642 -1.103,-5.201C-0.944,-5.429 -0.825,-5.685 -0.662,-5.91C-0.455,-6.194 -0.283,-6.493 -0.177,-6.828C-0.149,-6.917 -0.03,-6.945 0,-7.038" style="fill:rgb(168,77,77);fill-rule:nonzero;"/>
    </g>
</svg>
