<?xml version="1.0" encoding="UTF-8" standalone="no"?>
<!DOCTYPE svg PUBLIC "-//W3C//DTD SVG 1.1//EN" "http://www.w3.org/Graphics/SVG/1.1/DTD/svg11.dtd">
<svg width="100%" height="100%" viewBox="0 0 14 14" version="1.1" xmlns="http://www.w3.org/2000/svg" xmlns:xlink="http://www.w3.org/1999/xlink" xml:space="preserve" xmlns:serif="http://www.serif.com/" style="fill-rule:evenodd;clip-rule:evenodd;stroke-linejoin:round;stroke-miterlimit:2;">
    <g transform="matrix(1,0,0,1,9.3016,3.76615)">
        <path d="M0,-0.801C-0.036,-0.898 -0.149,-0.934 -0.175,-1.043C-0.189,-1.101 -0.253,-1.125 -0.314,-1.145C-0.489,-1.203 -0.643,-1.3 -0.834,-1.34C-1.09,-1.394 -1.326,-1.543 -1.567,-1.657C-1.66,-1.701 -1.605,-1.813 -1.659,-1.895C-1.739,-2.015 -1.81,-2.066 -1.946,-2.058C-2.067,-2.051 -2.19,-2.063 -2.311,-2.051C-2.617,-2.022 -2.904,-2.11 -3.191,-2.194C-3.34,-2.238 -3.491,-2.284 -3.621,-2.376C-3.664,-2.406 -3.707,-2.429 -3.761,-2.423C-4.031,-2.393 -4.238,-2.523 -4.427,-2.691C-4.489,-2.745 -4.535,-2.732 -4.58,-2.679C-4.63,-2.619 -4.699,-2.576 -4.765,-2.61C-4.911,-2.684 -5.074,-2.653 -5.225,-2.719C-5.511,-2.844 -5.819,-2.776 -6.12,-2.769C-6.324,-2.764 -6.508,-2.677 -6.701,-2.629C-6.86,-2.589 -6.957,-2.613 -6.992,-2.701C-7.021,-2.774 -6.946,-2.933 -6.829,-2.96C-6.627,-3.008 -6.483,-3.216 -6.249,-3.159C-6.152,-3.228 -6.047,-3.288 -5.959,-3.367C-5.84,-3.474 -5.709,-3.514 -5.549,-3.521C-5.281,-3.532 -5.023,-3.616 -4.773,-3.706C-4.554,-3.784 -4.334,-3.773 -4.119,-3.746C-4.024,-3.735 -3.925,-3.699 -3.827,-3.706C-3.188,-3.753 -2.582,-3.576 -1.968,-3.446C-1.37,-3.319 -0.784,-3.138 -0.182,-3.02C0.118,-2.961 0.419,-2.901 0.721,-2.855C0.929,-2.824 1.043,-2.727 1.104,-2.536C1.244,-2.093 1.409,-1.66 1.578,-1.227C1.785,-0.698 2.051,-0.203 2.369,0.265C2.51,0.471 2.672,0.663 2.833,0.855C2.973,1.021 3.075,1.199 3.054,1.424C3.029,1.698 3.105,1.963 3.112,2.233C3.118,2.443 3.11,2.436 2.908,2.524C2.655,2.633 2.403,2.748 2.158,2.876C1.95,2.983 1.772,2.952 1.61,2.8C1.469,2.669 1.338,2.527 1.201,2.392C1.08,2.272 0.96,2.157 0.799,2.081C0.619,1.997 0.525,1.835 0.492,1.629C0.444,1.328 0.391,1.024 0.304,0.732C0.249,0.545 0.131,0.375 0.002,0.221C-0.045,0.165 -0.105,0.143 -0.18,0.128C-0.362,0.093 -0.392,0.052 -0.416,-0.125C-0.423,-0.184 -0.405,-0.249 -0.454,-0.298C-0.568,-0.412 -0.591,-0.562 -0.633,-0.709C-0.661,-0.806 -0.656,-0.846 -0.556,-0.838C-0.438,-0.829 -0.317,-0.861 -0.2,-0.793C-0.145,-0.761 -0.065,-0.758 0,-0.801" style="fill:rgb(178,159,124);fill-rule:nonzero;"/>
    </g>
    <g transform="matrix(1,0,0,1,2.1288,9.04015)">
        <path d="M0,0.471C0.022,0.315 -0.048,0.148 0.049,-0.003C0.057,-0.017 0.037,-0.066 0.018,-0.077C-0.005,-0.09 -0.042,-0.084 -0.071,-0.078C-0.102,-0.072 -0.111,-0.04 -0.129,-0.018C-0.343,0.246 -0.447,0.556 -0.483,0.884C-0.497,1.015 -0.544,1.136 -0.551,1.266C-0.553,1.312 -0.542,1.377 -0.619,1.374C-0.675,1.371 -0.716,1.322 -0.724,1.278C-0.763,1.075 -0.875,0.892 -0.855,0.67C-0.832,0.41 -0.91,0.163 -1.003,-0.083C-1.098,-0.332 -1.042,-0.593 -0.971,-0.845C-0.966,-0.862 -0.949,-0.883 -0.932,-0.89C-0.755,-0.965 -0.632,-1.103 -0.497,-1.233C-0.426,-1.3 -0.348,-1.366 -0.269,-1.428C-0.003,-1.637 0.258,-1.855 0.56,-2.015C0.612,-2.043 0.666,-2.083 0.721,-2.088C0.927,-2.105 0.982,-2.261 1.024,-2.415C1.154,-2.892 1.475,-3.063 1.973,-2.968C2.269,-2.912 2.537,-2.795 2.813,-2.696C2.932,-2.653 3.038,-2.58 3.09,-2.441C3.138,-2.313 3.173,-2.179 3.265,-2.065C3.319,-1.998 3.289,-1.89 3.283,-1.799C3.28,-1.748 3.245,-1.736 3.203,-1.727C2.921,-1.664 2.73,-1.44 2.482,-1.315C2.377,-1.263 2.297,-1.153 2.267,-1.032C2.245,-0.941 2.216,-0.861 2.15,-0.794C2.127,-0.771 2.128,-0.737 2.151,-0.714C2.174,-0.692 2.204,-0.694 2.232,-0.712C2.257,-0.728 2.289,-0.736 2.309,-0.757C2.58,-1.026 2.935,-1.019 3.278,-1.068C3.468,-1.095 3.656,-1.101 3.846,-1.116C4.01,-1.128 4.163,-1.076 4.32,-1.053C4.498,-1.026 4.558,-0.851 4.657,-0.734C4.719,-0.66 4.689,-0.548 4.659,-0.446C4.614,-0.295 4.594,-0.137 4.563,0.018C4.527,0.202 4.443,0.359 4.281,0.458C3.968,0.651 3.643,0.819 3.3,0.955C2.652,1.214 2.12,1.773 2.127,2.633C2.13,2.894 2.169,3.149 2.231,3.4C2.253,3.487 2.226,3.504 2.151,3.513C1.954,3.534 1.853,3.421 1.79,3.259C1.722,3.083 1.61,2.944 1.426,2.904C1.326,2.882 1.238,2.845 1.146,2.808C0.867,2.696 0.648,2.512 0.437,2.297C0.289,2.147 0.227,1.988 0.171,1.8C0.107,1.589 0.06,1.38 0.052,1.158C0.044,0.929 -0.035,0.705 0,0.471" style="fill:rgb(178,159,124);fill-rule:nonzero;"/>
    </g>
    <g transform="matrix(1,0,0,1,9.341,10.3282)">
        <path d="M0,0.335C0.349,0.256 0.715,0.407 1.086,0.523C1.199,0.558 1.206,0.62 1.199,0.752C1.191,0.893 1.117,1.017 1.122,1.163C1.126,1.272 1.02,1.372 0.903,1.365C0.72,1.354 0.579,1.462 0.424,1.52C0.323,1.557 0.235,1.62 0.119,1.609C0.057,1.603 0.006,1.628 -0.051,1.655C-0.193,1.722 -0.326,1.799 -0.499,1.808C-0.622,1.815 -0.761,1.898 -0.818,2.043C-0.85,2.123 -0.911,2.178 -0.981,2.217C-1.415,2.461 -1.839,2.719 -2.225,3.037C-2.29,3.091 -2.371,3.134 -2.469,3.142C-2.9,3.175 -3.26,3.001 -3.593,2.759C-3.883,2.549 -3.914,2.242 -3.835,1.925C-3.798,1.776 -3.785,1.66 -3.898,1.538C-3.972,1.457 -4.001,1.347 -3.991,1.229C-3.982,1.118 -3.986,1.006 -3.987,0.895C-3.992,0.52 -3.811,0.244 -3.531,0.016C-3.351,-0.129 -3.181,-0.286 -3.005,-0.436C-2.829,-0.586 -2.663,-0.75 -2.472,-0.876C-2.301,-0.989 -2.214,-1.148 -2.126,-1.317C-2.094,-1.376 -2.083,-1.448 -2.109,-1.491C-2.19,-1.622 -2.104,-1.711 -2.06,-1.819C-2.028,-1.897 -1.968,-1.95 -1.924,-2.016C-1.759,-2.264 -1.593,-2.511 -1.433,-2.763C-1.409,-2.799 -1.393,-2.84 -1.35,-2.824C-1.288,-2.802 -1.294,-2.728 -1.316,-2.696C-1.418,-2.547 -1.41,-2.376 -1.443,-2.211C-1.477,-2.046 -1.444,-1.902 -1.404,-1.756C-1.388,-1.697 -1.366,-1.64 -1.372,-1.581C-1.407,-1.258 -1.323,-0.943 -1.304,-0.623C-1.282,-0.253 -1.09,0.039 -0.795,0.256C-0.717,0.314 -0.618,0.343 -0.511,0.337C-0.359,0.329 -0.207,0.335 0,0.335" style="fill:rgb(178,159,124);fill-rule:nonzero;"/>
    </g>
    <g transform="matrix(1,0,0,1,11.105,7.52415)">
        <path d="M0,0.152C0.273,0.171 0.484,0.108 0.681,0.014C0.85,-0.066 1.03,-0.124 1.185,-0.235C1.277,-0.301 1.31,-0.277 1.318,-0.179C1.331,-0.02 1.262,0.077 1.125,0.16C0.756,0.383 0.503,0.715 0.33,1.104C0.181,1.437 0.045,1.776 -0.084,2.118C-0.11,2.187 -0.134,2.247 -0.186,2.295C-0.224,2.33 -0.265,2.364 -0.318,2.323C-0.399,2.26 -0.493,2.289 -0.582,2.283C-0.683,2.276 -0.79,2.301 -0.884,2.275C-1.246,2.176 -1.516,2.37 -1.782,2.552C-1.985,2.69 -2.076,2.702 -2.25,2.534C-2.322,2.464 -2.389,2.392 -2.431,2.296C-2.588,1.927 -2.689,1.572 -2.606,1.146C-2.504,0.631 -2.411,0.102 -2.458,-0.434C-2.467,-0.537 -2.485,-0.633 -2.53,-0.72C-2.644,-0.942 -2.679,-1.16 -2.59,-1.406C-2.507,-1.636 -2.459,-1.879 -2.405,-2.119C-2.374,-2.254 -2.301,-2.355 -2.205,-2.446C-2.1,-2.544 -2.07,-2.55 -1.99,-2.443C-1.814,-2.21 -1.732,-1.935 -1.673,-1.653C-1.665,-1.614 -1.657,-1.562 -1.676,-1.534C-1.798,-1.349 -1.707,-1.196 -1.624,-1.031C-1.336,-0.456 -0.887,-0.078 -0.279,0.123C-0.167,0.159 -0.06,0.143 0,0.152" style="fill:rgb(178,159,124);fill-rule:nonzero;"/>
    </g>
</svg>
