<?xml version="1.0" encoding="UTF-8" standalone="no"?>
<!DOCTYPE svg PUBLIC "-//W3C//DTD SVG 1.1//EN" "http://www.w3.org/Graphics/SVG/1.1/DTD/svg11.dtd">
<svg width="100%" height="100%" viewBox="0 0 16 16" version="1.1" xmlns="http://www.w3.org/2000/svg" xmlns:xlink="http://www.w3.org/1999/xlink" xml:space="preserve" xmlns:serif="http://www.serif.com/" style="fill-rule:evenodd;clip-rule:evenodd;stroke-linejoin:round;stroke-miterlimit:2;">
    <g transform="matrix(1,0,0,1,7.243,0.179184)">
        <path d="M0,15.035C-0.054,14.726 -0.044,14.443 -0.091,14.175C-0.141,13.888 -0.062,13.583 -0.216,13.311C-0.243,13.263 -0.232,13.192 -0.233,13.132C-0.234,12.974 -0.238,12.815 -0.23,12.658C-0.215,12.386 -0.262,12.127 -0.352,11.871C-0.408,11.71 -0.451,11.541 -0.446,11.367C-0.438,11.071 -0.478,10.773 -0.414,10.479C-0.4,10.413 -0.453,10.437 -0.476,10.433C-0.537,10.425 -0.569,10.475 -0.605,10.511C-0.704,10.61 -0.805,10.709 -0.899,10.812C-1.272,11.22 -1.707,11.562 -2.099,11.949C-2.24,12.088 -2.412,12.195 -2.572,12.314C-2.608,12.341 -2.656,12.343 -2.691,12.311C-2.723,12.282 -2.7,12.249 -2.68,12.22C-2.489,11.937 -2.428,11.607 -2.349,11.286C-2.309,11.122 -2.37,10.959 -2.423,10.806C-2.455,10.714 -2.435,10.66 -2.376,10.598C-2.139,10.346 -1.92,10.077 -1.666,9.841C-1.474,9.662 -1.336,9.435 -1.14,9.259C-1.036,9.166 -1.046,9.021 -1.147,8.914C-1.243,8.812 -1.348,8.718 -1.443,8.614C-1.513,8.538 -1.571,8.451 -1.639,8.373C-1.695,8.308 -1.76,8.308 -1.822,8.365C-1.88,8.419 -1.938,8.473 -1.991,8.532C-2.212,8.781 -2.501,8.949 -2.753,9.162C-2.871,9.262 -3.005,9.342 -3.124,9.444C-3.342,9.632 -3.387,9.656 -3.674,9.69C-4,9.727 -4.234,9.903 -4.436,10.139C-4.508,10.224 -4.581,10.25 -4.645,10.207C-4.712,10.162 -4.769,10.025 -4.739,9.963C-4.665,9.807 -4.584,9.655 -4.462,9.528C-4.069,9.118 -3.641,8.747 -3.209,8.38C-3.163,8.341 -3.11,8.308 -3.055,8.285C-2.913,8.223 -2.831,8.112 -2.767,7.961C-3.036,8.033 -3.285,8.023 -3.539,7.946C-3.727,7.889 -3.917,7.871 -4.111,7.991C-4.235,8.068 -4.402,8.093 -4.553,8.105C-4.726,8.119 -4.896,8.146 -5.067,8.165C-5.211,8.18 -5.356,8.165 -5.504,8.13C-5.66,8.094 -5.822,8.036 -5.991,8.063C-6.094,8.079 -6.173,8.02 -6.255,7.973C-6.533,7.817 -6.821,7.691 -7.138,7.638C-7.161,7.634 -7.183,7.614 -7.203,7.598C-7.215,7.588 -7.221,7.571 -7.243,7.536C-6.934,7.536 -6.637,7.532 -6.341,7.537C-6.165,7.541 -5.998,7.525 -5.84,7.438C-5.685,7.352 -5.678,7.342 -5.792,7.222C-5.834,7.177 -5.878,7.134 -5.918,7.088C-5.926,7.078 -5.922,7.054 -5.917,7.039C-5.91,7.016 -5.897,7.028 -5.877,7.032C-5.635,7.085 -5.379,7.065 -5.145,7.163C-4.974,7.082 -4.786,7.14 -4.609,7.093C-4.346,7.023 -4.078,6.967 -3.811,6.909C-3.753,6.896 -3.696,6.918 -3.636,6.939C-3.44,7.008 -3.24,7.061 -3.033,6.965C-2.989,6.944 -2.928,6.955 -2.876,6.96C-2.795,6.968 -2.748,6.918 -2.698,6.868C-2.667,6.836 -2.664,6.811 -2.698,6.783C-2.731,6.755 -2.76,6.716 -2.799,6.7C-3.272,6.51 -3.273,6.512 -3.578,6.222C-3.667,6.137 -3.757,6.066 -3.89,6.057C-4.008,6.049 -4.093,5.97 -4.174,5.889C-4.266,5.797 -4.361,5.72 -4.498,5.684C-4.646,5.645 -4.771,5.541 -4.888,5.438C-4.956,5.378 -5.001,5.301 -5.023,5.22C-5.039,5.158 -5.064,5.07 -5,5.022C-4.928,4.969 -4.875,5.035 -4.823,5.083C-4.625,5.266 -4.393,5.277 -4.173,5.157C-4.053,5.091 -3.974,5.126 -3.891,5.182C-3.643,5.352 -3.392,5.518 -3.135,5.676C-3.023,5.745 -2.906,5.801 -2.787,5.837C-2.59,5.897 -2.424,5.992 -2.286,6.142C-2.197,6.238 -2.098,6.321 -1.988,6.393C-1.934,6.428 -1.897,6.439 -1.853,6.391C-1.792,6.328 -1.723,6.27 -1.674,6.199C-1.559,6.032 -1.42,5.895 -1.254,5.778C-1.056,5.64 -1.051,5.583 -1.203,5.393C-1.269,5.311 -1.35,5.242 -1.42,5.163C-1.465,5.111 -1.521,5.07 -1.553,5.003C-1.649,4.802 -1.807,4.656 -1.986,4.528C-2.05,4.483 -2.101,4.421 -2.16,4.369C-2.283,4.259 -2.332,4.111 -2.279,3.968C-2.21,3.779 -2.292,3.613 -2.312,3.44C-2.337,3.225 -2.451,3.037 -2.553,2.848C-2.596,2.768 -2.559,2.679 -2.477,2.647C-2.438,2.632 -2.411,2.65 -2.385,2.677C-2.29,2.774 -2.192,2.869 -2.098,2.968C-1.857,3.222 -1.561,3.405 -1.287,3.618C-1.239,3.655 -1.194,3.699 -1.156,3.746C-0.984,3.961 -0.733,4.079 -0.529,4.254C-0.415,4.35 -0.227,4.311 -0.143,4.197C-0.111,4.153 -0.111,3.994 -0.166,3.952C-0.307,3.842 -0.277,3.693 -0.295,3.547C-0.341,3.174 -0.302,2.795 -0.355,2.427C-0.393,2.163 -0.339,1.89 -0.437,1.631C-0.469,1.547 -0.405,1.458 -0.339,1.404C-0.111,1.218 -0.095,0.955 -0.081,0.699C-0.07,0.482 -0.017,0.276 0.029,0.068C0.037,0.028 0.05,0 0.092,0.008C0.138,0.017 0.132,0.058 0.133,0.091C0.137,0.255 0.131,0.419 0.181,0.58C0.201,0.646 0.204,0.689 0.286,0.694C0.335,0.697 0.385,0.725 0.428,0.752C0.478,0.784 0.496,0.785 0.505,0.72C0.516,0.644 0.542,0.574 0.612,0.528C0.682,0.482 0.755,0.501 0.763,0.578C0.77,0.647 0.765,0.718 0.765,0.788C0.764,0.885 0.766,0.981 0.764,1.078C0.763,1.141 0.767,1.196 0.818,1.245C0.913,1.336 0.907,1.46 0.93,1.579C0.998,1.935 0.967,2.292 0.981,2.648C0.989,2.85 0.928,3.043 0.922,3.242C0.92,3.29 0.89,3.339 0.869,3.385C0.848,3.432 0.815,3.472 0.82,3.53C0.836,3.756 0.791,3.975 0.724,4.19C0.708,4.242 0.739,4.272 0.772,4.301C0.816,4.339 0.851,4.312 0.885,4.28C1.084,4.085 1.28,3.888 1.461,3.674C1.729,3.356 2.021,3.059 2.355,2.805C2.522,2.678 2.716,2.655 2.901,2.593C2.96,2.574 2.994,2.632 3.046,2.639C3.08,2.644 3.07,2.669 3.056,2.693C3.025,2.747 2.959,2.748 2.919,2.804C2.745,3.046 2.666,3.34 2.783,3.652C2.847,3.824 2.795,3.907 2.689,4.013C2.512,4.191 2.338,4.371 2.153,4.541C2.019,4.664 1.885,4.793 1.734,4.893C1.584,4.991 1.474,5.125 1.348,5.245C1.262,5.328 1.27,5.38 1.361,5.462C1.506,5.594 1.654,5.723 1.799,5.855C1.837,5.889 1.884,5.921 1.877,5.984C1.868,6.059 1.881,6.138 1.959,6.156C2.04,6.175 2.125,6.183 2.208,6.122C2.501,5.909 2.8,5.705 3.097,5.497C3.104,5.492 3.109,5.484 3.117,5.479C3.296,5.357 3.46,5.15 3.702,5.371C3.973,5.408 4.221,5.348 4.425,5.164C4.518,5.081 4.628,5.034 4.73,4.971C4.78,4.941 4.832,4.948 4.883,4.959C4.924,4.967 4.938,5.006 4.917,5.038C4.867,5.111 4.798,5.165 4.727,5.217C4.351,5.492 3.973,5.764 3.606,6.051C3.454,6.169 3.326,6.317 3.193,6.456C3.152,6.499 3.121,6.555 3.099,6.61C3.072,6.676 3.149,6.797 3.221,6.798C3.324,6.799 3.43,6.826 3.527,6.76C3.624,6.693 3.737,6.691 3.852,6.691C4.247,6.694 4.642,6.695 5.037,6.691C5.2,6.69 5.365,6.711 5.527,6.648C5.593,6.622 5.689,6.611 5.743,6.692C5.813,6.796 5.914,6.799 6.021,6.794C6.082,6.791 6.144,6.796 6.205,6.792C6.281,6.788 6.343,6.807 6.39,6.869C6.466,6.969 6.582,7.018 6.679,7.091C6.746,7.14 6.825,7.187 6.92,7.171C7.07,7.146 7.209,7.183 7.343,7.245C7.313,7.301 7.261,7.33 7.202,7.338C7.334,7.479 7.492,7.498 7.662,7.489C7.801,7.481 7.94,7.487 8.127,7.487C7.867,7.697 7.655,7.876 7.336,7.857C6.928,7.833 6.521,7.774 6.11,7.797C5.855,7.703 5.591,7.763 5.332,7.75C5.243,7.745 5.222,7.782 5.277,7.861C5.326,7.931 5.309,7.975 5.223,8.021C5.104,8.084 4.988,8.122 4.853,8.118C4.625,8.112 4.396,8.127 4.168,8.114C4.008,8.105 3.864,8.178 3.707,8.177C3.653,8.177 3.652,8.24 3.691,8.274C3.797,8.363 3.902,8.456 4.018,8.53C4.165,8.623 4.302,8.711 4.399,8.868C4.479,8.999 4.608,9.101 4.756,9.166C4.803,9.187 4.853,9.202 4.897,9.229C4.996,9.29 5.004,9.338 4.905,9.436C4.862,9.478 4.92,9.566 4.839,9.56C4.825,9.559 4.784,9.489 4.735,9.468C4.584,9.403 4.456,9.297 4.314,9.218C4.142,9.123 3.965,9.028 3.779,8.97C3.671,8.936 3.542,8.935 3.423,9.002C3.306,9.067 3.167,9.153 3.049,9.139C2.926,9.124 2.817,8.999 2.702,8.923C2.637,8.881 2.571,8.84 2.505,8.8C2.425,8.751 2.343,8.662 2.264,8.665C2.162,8.669 2.057,8.738 1.962,8.794C1.858,8.856 1.754,8.922 1.674,9.035C1.806,9.225 2.013,9.338 2.189,9.483C2.378,9.64 2.556,9.809 2.708,10C2.806,10.124 2.904,10.243 3.037,10.328C3.097,10.367 3.15,10.413 3.186,10.472C3.231,10.547 3.26,10.619 3.168,10.695C3.048,10.794 3.061,10.917 3.132,11.046C3.234,11.231 3.345,11.405 3.552,11.485C3.596,11.502 3.629,11.527 3.654,11.563C3.688,11.613 3.658,11.69 3.595,11.699C3.535,11.708 3.476,11.705 3.42,11.741C3.385,11.764 3.334,11.758 3.299,11.724C2.993,11.423 2.586,11.32 2.201,11.181C2.07,11.133 1.947,11.082 1.833,11.003C1.621,10.857 1.407,10.713 1.192,10.569C1.172,10.555 1.145,10.541 1.123,10.545C1.079,10.552 1.081,10.593 1.084,10.627C1.107,10.816 1.128,11.005 1.15,11.193C1.182,11.468 1.199,11.687 1.147,11.936C1.135,11.995 1.149,12.061 1.133,12.118C1.092,12.26 1.098,12.427 0.935,12.51C0.896,12.53 0.864,12.566 0.87,12.615C0.894,12.783 0.818,12.939 0.821,13.104C0.822,13.173 0.821,13.239 0.779,13.305C0.727,13.385 0.735,13.392 0.658,13.315C0.603,13.26 0.574,13.272 0.556,13.344C0.523,13.475 0.486,13.607 0.452,13.738C0.399,13.936 0.347,14.133 0.295,14.33C0.287,14.363 0.292,14.411 0.271,14.427C0.177,14.501 0.136,14.603 0.103,14.711C0.073,14.808 0.041,14.905 0,15.035" style="fill:rgb(170,193,218);fill-rule:nonzero;"/>
    </g>
</svg>
