<?xml version="1.0" encoding="UTF-8" standalone="no"?>
<!DOCTYPE svg PUBLIC "-//W3C//DTD SVG 1.1//EN" "http://www.w3.org/Graphics/SVG/1.1/DTD/svg11.dtd">
<svg width="100%" height="100%" viewBox="0 0 14 13" version="1.1" xmlns="http://www.w3.org/2000/svg" xmlns:xlink="http://www.w3.org/1999/xlink" xml:space="preserve" xmlns:serif="http://www.serif.com/" style="fill-rule:evenodd;clip-rule:evenodd;stroke-linejoin:round;stroke-miterlimit:2;">
    <g transform="matrix(1,0,0,1,7.50262,8.61054)">
        <path d="M0,0.883C-0.068,0.286 -0.25,-0.245 -0.373,-0.788C-0.494,-1.327 -0.69,-1.841 -0.909,-2.352C-0.808,-2.291 -0.729,-2.22 -0.672,-2.114C-0.518,-1.826 -0.324,-1.56 -0.185,-1.262C-0.139,-1.164 -0.071,-1.072 0.005,-0.994C0.316,-0.674 0.634,-0.36 0.949,-0.045C0.964,-0.03 0.979,-0.014 0.996,-0.007C1.014,0 1.047,0.005 1.053,-0.003C1.068,-0.025 1.086,-0.059 1.08,-0.082C0.96,-0.488 0.836,-0.894 0.608,-1.257C0.581,-1.299 0.557,-1.344 0.545,-1.391C0.531,-1.451 0.526,-1.51 0.619,-1.521C0.853,-1.548 1.076,-1.476 1.302,-1.442C1.457,-1.419 1.559,-1.282 1.649,-1.163C1.871,-0.869 2.113,-0.589 2.305,-0.273C2.439,-0.052 2.579,0.166 2.709,0.389C2.77,0.493 2.745,0.628 2.658,0.719C2.574,0.807 2.485,0.89 2.398,0.975C2.111,1.258 1.859,1.571 1.605,1.883C1.339,2.21 1.061,2.528 0.777,2.841C0.602,3.034 0.43,3.228 0.285,3.445C0.223,3.538 0.134,3.581 0.014,3.609C-0.314,3.686 -0.653,3.698 -0.974,3.805C-1.091,3.844 -1.092,3.838 -1.111,3.682C-1.115,3.654 -1.119,3.618 -1.137,3.6C-1.306,3.433 -1.219,3.271 -1.131,3.109C-1.112,3.074 -1.07,3.05 -1.056,3.014C-1.043,2.98 -1.037,2.927 -1.055,2.901C-1.09,2.849 -1.121,2.912 -1.15,2.926C-1.412,3.047 -1.594,3.266 -1.793,3.465C-1.914,3.585 -1.914,3.585 -2.086,3.502C-2.4,3.35 -2.713,3.197 -3.007,3.009C-3.179,2.899 -3.366,2.83 -3.577,2.869C-3.741,2.899 -3.859,2.838 -3.973,2.714C-4.364,2.291 -4.733,1.847 -5.163,1.461C-5.304,1.335 -5.257,1.188 -5.216,1.042C-5.123,0.707 -4.961,0.399 -4.799,0.097C-4.724,-0.042 -4.692,-0.204 -4.581,-0.322C-4.56,-0.344 -4.537,-0.366 -4.503,-0.355C-4.472,-0.345 -4.459,-0.323 -4.455,-0.289C-4.405,0.086 -4.251,0.431 -4.144,0.789C-4.11,0.902 -4.055,1.016 -3.982,1.106C-3.935,1.163 -3.921,1.296 -3.84,1.271C-3.709,1.229 -3.844,1.145 -3.847,1.078C-3.863,0.649 -3.999,0.231 -3.97,-0.203C-4.087,-0.487 -3.964,-0.803 -4.084,-1.088C-4.11,-1.149 -4.078,-1.211 -4.022,-1.245C-3.756,-1.406 -3.513,-1.596 -3.277,-1.799C-2.997,-2.04 -2.703,-2.265 -2.412,-2.494C-2.248,-2.624 -2.08,-2.751 -1.909,-2.872C-1.784,-2.961 -1.725,-2.946 -1.654,-2.799C-1.464,-2.405 -1.296,-2.001 -1.092,-1.616C-0.903,-1.257 -0.733,-0.89 -0.565,-0.521C-0.514,-0.41 -0.506,-0.291 -0.465,-0.181C-0.344,0.142 -0.225,0.465 -0.102,0.786C-0.092,0.811 -0.059,0.828 0,0.883" style="fill:rgb(125,125,125);fill-rule:nonzero;"/>
    </g>
    <g transform="matrix(1,0,0,1,3.43612,1.05554)">
        <path d="M0,5.364C-0.021,5.309 -0.023,5.281 0.003,5.258C0.15,5.127 0.232,4.953 0.296,4.776C0.444,4.366 0.717,4.034 0.965,3.689C1.093,3.512 1.192,3.31 1.356,3.16C1.382,3.136 1.385,3.102 1.366,3.079C1.336,3.042 1.316,3.084 1.3,3.1C0.97,3.425 0.629,3.742 0.386,4.142C0.111,4.595 -0.224,5.004 -0.543,5.425C-0.667,5.59 -0.86,5.621 -1.043,5.664C-1.138,5.687 -1.239,5.659 -1.335,5.718C-1.389,5.751 -1.467,5.725 -1.538,5.707C-1.93,5.608 -2.324,5.515 -2.72,5.429C-2.949,5.38 -3.003,5.328 -3.005,5.093C-3.007,4.91 -3.012,4.727 -3.006,4.545C-3.001,4.412 -3.01,4.283 -3.085,4.171C-3.122,4.115 -3.144,4.054 -3.124,4C-3.021,3.725 -3.076,3.441 -3.07,3.161C-3.068,3.077 -3.063,3.015 -2.973,2.966C-2.928,2.942 -2.884,2.861 -2.885,2.785C-2.888,2.541 -2.719,2.401 -2.551,2.277C-2.247,2.053 -1.933,1.841 -1.614,1.636C-1.046,1.271 -0.473,0.914 0.1,0.557C0.183,0.506 0.276,0.471 0.382,0.419C0.352,0.641 0.158,0.733 0.086,0.901C0.071,0.936 0.026,0.957 0.006,0.991C-0.023,1.04 -0.072,1.127 -0.059,1.14C0.005,1.2 0.042,1.121 0.085,1.087C0.513,0.741 0.935,0.388 1.369,0.049C1.58,-0.115 1.827,-0.226 2.07,-0.335C2.188,-0.387 2.33,-0.376 2.455,-0.339C2.586,-0.299 2.725,-0.263 2.834,-0.174C3.044,-0.002 3.291,0.108 3.52,0.247C3.625,0.31 3.639,0.374 3.609,0.494C3.541,0.772 3.499,1.057 3.449,1.339C3.375,1.758 3.313,2.179 3.199,2.59C3.191,2.618 3.149,2.645 3.154,2.666C3.224,2.987 2.964,3.107 2.779,3.251C2.378,3.564 1.955,3.847 1.549,4.152C1.381,4.279 1.22,4.415 1.058,4.55C0.719,4.834 0.358,5.092 0,5.364" style="fill:rgb(125,125,125);fill-rule:nonzero;"/>
    </g>
    <g transform="matrix(1,0,0,1,11.1931,4.14154)">
        <path d="M0,0.407C0.052,0.206 -0.038,0.052 -0.083,-0.104C-0.16,-0.368 -0.205,-0.644 -0.343,-0.889C-0.36,-0.92 -0.36,-0.975 -0.318,-0.997C-0.278,-1.018 -0.244,-0.991 -0.215,-0.96C-0.18,-0.923 -0.142,-0.889 -0.108,-0.852C0.232,-0.491 0.619,-0.183 0.988,0.146C1.109,0.254 1.194,0.392 1.263,0.527C1.464,0.922 1.634,1.334 1.818,1.738C1.859,1.826 1.858,1.919 1.831,2.003C1.746,2.265 1.65,2.524 1.559,2.784C1.552,2.802 1.547,2.822 1.537,2.839C1.451,2.991 1.359,3.1 1.145,3.082C0.867,3.059 0.585,3.08 0.316,2.979C0.28,2.965 0.239,2.956 0.2,2.958C0.063,2.967 -0.066,2.972 -0.069,2.779C-0.069,2.763 -0.091,2.744 -0.107,2.733C-0.342,2.578 -0.415,2.319 -0.504,2.08C-0.588,1.856 -0.707,1.652 -0.823,1.385C-0.832,1.602 -0.852,1.763 -0.799,1.933C-0.716,2.206 -0.67,2.49 -0.541,2.749C-0.518,2.797 -0.538,2.866 -0.538,2.931C-0.619,2.927 -0.629,2.87 -0.654,2.819C-1.201,1.705 -1.748,0.593 -2.297,-0.52C-2.367,-0.66 -2.462,-0.785 -2.367,-0.962C-2.33,-1.029 -2.345,-1.137 -2.406,-1.22C-2.48,-1.321 -2.483,-1.444 -2.482,-1.566C-2.481,-1.85 -2.485,-2.133 -2.483,-2.417C-2.482,-2.561 -2.436,-2.617 -2.308,-2.647C-2.106,-2.693 -2.002,-2.648 -1.871,-2.475C-1.589,-2.101 -1.389,-1.678 -1.132,-1.29C-0.897,-0.933 -0.709,-0.547 -0.442,-0.21C-0.357,-0.102 -0.293,0.024 -0.228,0.147C-0.175,0.248 -0.087,0.31 0,0.407" style="fill:rgb(125,125,125);fill-rule:nonzero;"/>
    </g>
    <g transform="matrix(1,0,0,1,2.13982,9.01554)">
        <path d="M0,-1.775C0.045,-1.794 0.066,-1.767 0.081,-1.746C0.104,-1.715 0.108,-1.664 0.136,-1.644C0.384,-1.467 0.301,-1.27 0.177,-1.07C-0.036,-0.725 -0.251,-0.379 -0.466,-0.035C-0.486,-0.004 -0.511,0.019 -0.562,-0.009C-0.936,-0.212 -1.359,-0.291 -1.748,-0.459C-1.807,-0.484 -1.86,-0.511 -1.886,-0.564C-1.971,-0.743 -2.053,-0.923 -2.126,-1.106C-2.154,-1.174 -2.145,-1.241 -2.047,-1.267C-2.001,-1.279 -1.96,-1.307 -1.909,-1.317C-1.619,-1.374 -1.344,-1.483 -1.043,-1.503C-0.84,-1.517 -0.636,-1.58 -0.442,-1.647C-0.293,-1.698 -0.119,-1.664 0,-1.775" style="fill:rgb(125,125,125);fill-rule:nonzero;"/>
    </g>
    <g transform="matrix(1,0,0,1,2.40402,0.588536)">
        <path d="M0,1.024C-0.147,1.067 -0.304,0.972 -0.471,0.95C-0.608,0.932 -0.744,0.909 -0.883,0.901C-1.058,0.892 -1.15,0.706 -1.05,0.563C-0.974,0.457 -0.88,0.363 -0.768,0.293C-0.618,0.199 -0.462,0.114 -0.301,0.037C-0.154,-0.033 -0.004,-0.043 0.135,0.007C0.403,0.105 0.662,0.226 0.921,0.346C1.039,0.401 1.05,0.521 0.947,0.594C0.77,0.72 0.584,0.835 0.405,0.96C0.288,1.042 0.157,1.022 0,1.024" style="fill:rgb(125,125,125);fill-rule:nonzero;"/>
    </g>
    <g transform="matrix(1,0,0,1,8.41272,4.75654)">
        <path d="M0,0.514C-0.024,0.547 -0.039,0.574 -0.06,0.594C-0.191,0.719 -0.318,0.842 -0.384,1.022C-0.429,1.145 -0.523,1.151 -0.626,1.069C-0.736,0.982 -0.819,0.868 -0.944,0.792C-0.999,0.759 -1.046,0.672 -1.011,0.557C-0.922,0.265 -0.861,-0.036 -0.803,-0.336C-0.789,-0.409 -0.752,-0.465 -0.732,-0.531C-0.711,-0.603 -0.635,-0.618 -0.59,-0.626C-0.532,-0.637 -0.516,-0.559 -0.491,-0.504C-0.351,-0.196 -0.204,0.109 -0.058,0.414C-0.042,0.449 -0.019,0.481 0,0.514" style="fill:rgb(125,125,125);fill-rule:nonzero;"/>
    </g>
</svg>
