<?xml version="1.0" encoding="UTF-8" standalone="no"?>
<!DOCTYPE svg PUBLIC "-//W3C//DTD SVG 1.1//EN" "http://www.w3.org/Graphics/SVG/1.1/DTD/svg11.dtd">
<svg width="100%" height="100%" viewBox="0 0 20 20" version="1.1" xmlns="http://www.w3.org/2000/svg" xmlns:xlink="http://www.w3.org/1999/xlink" xml:space="preserve" xmlns:serif="http://www.serif.com/" style="fill-rule:evenodd;clip-rule:evenodd;stroke-linejoin:round;stroke-miterlimit:2;">
    <g transform="matrix(0.00316797,0,0,-0.00316797,-3.37657,22.6769)">
        <g id="Potion">
            <path d="M4119,7128C4105,7110 4086,7082 4075,7065C4065,7049 3988,6965 3905,6880C3821,6795 3741,6707 3728,6685C3714,6663 3665,6616 3619,6580C3493,6482 3470,6455 3470,6412C3470,6356 3494,6332 3589,6288C3694,6240 3740,6206 3740,6178C3740,6143 3798,6053 3843,6019C3934,5949 3959,5919 3971,5863C3982,5816 3981,5808 3965,5790C3938,5760 3919,5765 3859,5820C3829,5848 3797,5873 3786,5876C3757,5885 3690,5832 3652,5770C3623,5723 3619,5708 3623,5666C3626,5631 3634,5611 3648,5601C3659,5592 3707,5556 3755,5521C3843,5456 3860,5433 3860,5378C3860,5361 3872,5300 3886,5241C3910,5144 3912,5124 3906,5010C3891,4735 3883,4655 3866,4615C3847,4571 3838,4535 3810,4381C3798,4314 3784,4268 3771,4251C3725,4192 3680,4121 3664,4079C3644,4029 3592,3944 3545,3885C3527,3863 3501,3824 3485,3798C3470,3771 3441,3740 3421,3728C3365,3693 3266,3609 3242,3574C3218,3542 3214,3500 3230,3470C3243,3446 3358,3375 3483,3314C3626,3244 3738,3134 3679,3122C3671,3121 3593,3153 3507,3195C3283,3303 3257,3312 3160,3317C3089,3321 3071,3318 3049,3303C3034,3293 2976,3254 2920,3215C2864,3177 2775,3120 2722,3088C2669,3057 2607,3017 2585,2998C2563,2979 2521,2948 2492,2929C2404,2872 2325,2762 2212,2539C2158,2433 2152,2415 2139,2314C2118,2148 2123,2092 2166,1981C2208,1874 2265,1772 2369,1615C2408,1557 2444,1493 2449,1473C2454,1454 2478,1417 2502,1391C2526,1365 2562,1323 2582,1298C2620,1251 2691,1210 2758,1197C2787,1191 2796,1196 2848,1243C2888,1280 2946,1316 3045,1365C3122,1403 3196,1441 3210,1451C3224,1460 3252,1473 3274,1480C3326,1497 3337,1480 3305,1427C3280,1384 3230,1347 3129,1295C3093,1277 3049,1245 3032,1225C2994,1183 2950,1099 2950,1071C2950,1060 2976,1005 3009,948L3067,845L3681,846C4285,847 4696,853 5140,869C5314,875 5372,880 5395,892C5417,904 5437,932 5469,995C5520,1098 5520,1117 5463,1211C5428,1270 5418,1278 5345,1315C5236,1369 5184,1406 5159,1446C5124,1504 5148,1514 5226,1475C5253,1461 5282,1450 5290,1450C5299,1450 5330,1437 5360,1421C5416,1390 5492,1353 5567,1317C5590,1306 5625,1280 5645,1259C5665,1237 5685,1220 5691,1220C5710,1220 5820,1280 5853,1309C5871,1325 5899,1363 5915,1392C5931,1421 5994,1522 6055,1615C6232,1885 6238,1895 6266,1977C6330,2164 6333,2213 6285,2409C6245,2572 6228,2615 6179,2680C6129,2746 6110,2777 6110,2794C6110,2803 6093,2826 6071,2847C6050,2868 6027,2895 6021,2907C6008,2933 5929,2990 5906,2990C5898,2990 5876,3003 5858,3018C5809,3061 5682,3143 5599,3185C5558,3206 5514,3231 5500,3242C5486,3252 5450,3279 5420,3302L5366,3344L5271,3341C5167,3338 5100,3320 5036,3277C5015,3262 4989,3250 4980,3250C4970,3250 4922,3225 4873,3195C4824,3165 4769,3137 4752,3134C4722,3128 4720,3129 4720,3156C4720,3177 4733,3196 4771,3230C4798,3256 4831,3282 4843,3287C4855,3293 4889,3308 4918,3321C4947,3333 4976,3350 4982,3357C4988,3364 5007,3377 5024,3385C5041,3393 5084,3419 5120,3443C5175,3479 5185,3490 5188,3517C5193,3569 5149,3632 5072,3684C4967,3755 4830,3899 4830,3937C4830,3958 4774,4040 4760,4040C4755,4040 4749,4048 4746,4058C4742,4068 4724,4103 4705,4135C4686,4166 4670,4198 4670,4204C4670,4211 4655,4234 4637,4256C4588,4312 4584,4323 4565,4445C4555,4506 4541,4568 4532,4584C4524,4601 4513,4628 4508,4644C4493,4690 4468,4929 4463,5067C4459,5179 4461,5194 4486,5266C4503,5316 4513,5365 4512,5400L4512,5455L4572,5500C4604,5525 4649,5559 4672,5576C4721,5614 4733,5634 4732,5676C4729,5750 4631,5900 4586,5900C4577,5900 4545,5876 4515,5846C4445,5775 4433,5769 4392,5787C4347,5805 4343,5823 4371,5881C4393,5929 4414,5952 4506,6026C4543,6056 4571,6101 4604,6182C4621,6224 4684,6274 4742,6292C4786,6305 4866,6370 4875,6401C4889,6443 4851,6499 4776,6550C4696,6604 4701,6599 4394,6920C4270,7049 4163,7156 4156,7158C4149,7160 4132,7146 4119,7128Z" style="fill-rule:nonzero;"/>
        </g>
    </g>
</svg>
