<?xml version="1.0" encoding="UTF-8" standalone="no"?>
<!DOCTYPE svg PUBLIC "-//W3C//DTD SVG 1.1//EN" "http://www.w3.org/Graphics/SVG/1.1/DTD/svg11.dtd">
<svg width="100%" height="100%" viewBox="0 0 18 18" version="1.1" xmlns="http://www.w3.org/2000/svg" xmlns:xlink="http://www.w3.org/1999/xlink" xml:space="preserve" xmlns:serif="http://www.serif.com/" style="fill-rule:evenodd;clip-rule:evenodd;stroke-linejoin:round;stroke-miterlimit:2;">
    <g transform="matrix(1,0,0,1,3.77693,2.571)">
        <path d="M0,12.078C-0.086,11.932 0.031,11.806 0.049,11.675C0.083,11.432 0.16,11.195 0.225,10.957C0.284,10.737 0.455,10.588 0.588,10.416C1.014,9.863 1.436,9.309 1.768,8.692C1.796,8.639 1.829,8.588 1.852,8.533C1.919,8.373 1.937,8.223 1.833,8.058C1.68,7.815 1.633,7.517 1.445,7.29C1.433,7.276 1.43,7.254 1.423,7.235C1.369,7.085 1.09,7.074 1.177,6.838C1.232,6.688 1.235,6.524 1.288,6.378C1.323,6.284 1.283,6.172 1.365,6.091C1.382,6.075 1.384,6.029 1.349,6.014C1.323,6.002 1.283,5.992 1.263,6.003C1.153,6.069 1.038,6.13 0.946,6.225C0.897,6.275 0.847,6.329 0.786,6.362C0.732,6.39 0.669,6.437 0.599,6.373C0.574,6.35 0.516,6.366 0.485,6.347C0.263,6.211 0.022,6.17 -0.234,6.179C-0.389,6.184 -0.396,6.163 -0.385,6.002C-0.379,5.907 -0.352,5.806 -0.28,5.767C0.014,5.608 0.114,5.312 0.203,5.038C0.263,4.855 0.388,4.676 0.35,4.464C0.48,4.178 0.482,3.867 0.536,3.565C0.607,3.166 0.721,2.777 0.866,2.398C0.989,2.075 1.126,1.756 1.225,1.426C1.308,1.153 1.403,0.881 1.442,0.596C1.463,0.449 1.502,0.305 1.528,0.159C1.57,-0.078 1.721,-0.26 1.877,-0.42C2.062,-0.61 2.2,-0.829 2.345,-1.044C2.373,-1.084 2.393,-1.131 2.428,-1.167C2.488,-1.23 2.569,-1.311 2.643,-1.268C2.701,-1.234 2.622,-1.146 2.603,-1.081C2.496,-0.712 2.362,-0.345 2.306,0.032C2.255,0.376 2.125,0.711 2.166,1.069C2.179,1.178 2.089,1.271 2.107,1.39C2.124,1.497 2.111,1.609 2.141,1.721C2.277,1.287 2.408,0.852 2.552,0.421C2.771,-0.233 3.003,-0.883 3.224,-1.536C3.328,-1.844 3.387,-2.169 3.569,-2.447C3.59,-2.48 3.605,-2.518 3.628,-2.55C3.636,-2.561 3.658,-2.564 3.674,-2.571C3.68,-2.553 3.693,-2.533 3.691,-2.516C3.679,-2.408 3.654,-2.291 3.614,-2.202C3.499,-1.944 3.52,-1.655 3.404,-1.4C3.384,-1.357 3.391,-1.301 3.391,-1.251C3.389,-0.91 3.301,-0.584 3.231,-0.254C3.129,0.22 2.964,0.676 2.868,1.149C2.806,1.454 2.665,1.754 2.736,2.102C2.964,1.747 3.1,1.37 3.257,1.005C3.34,0.814 3.43,0.626 3.521,0.44C3.647,0.182 3.802,-0.062 3.95,-0.31C3.978,-0.358 4.02,-0.422 4.093,-0.38C4.157,-0.343 4.2,-0.281 4.18,-0.202C4.168,-0.155 4.143,-0.11 4.116,-0.068C3.949,0.192 3.94,0.496 3.883,0.785C3.851,0.945 3.894,1.097 4.005,1.234C4.122,1.378 4.126,1.398 3.994,1.553C3.723,1.872 3.571,2.239 3.481,2.643C3.406,2.98 3.303,3.312 3.191,3.636C3.062,4.009 2.922,4.38 2.774,4.746C2.673,4.996 2.72,5.077 2.977,5.151C3.222,5.221 3.461,5.301 3.677,5.456C3.867,5.593 4.114,5.632 4.342,5.69C4.554,5.744 4.775,5.772 4.998,5.755C5.097,5.747 5.184,5.767 5.278,5.832C5.377,5.9 5.518,5.91 5.643,5.937C5.729,5.957 5.826,5.917 5.906,5.982C6.1,5.907 6.306,5.973 6.5,5.934C6.727,5.89 6.924,5.764 7.119,5.646C7.28,5.548 7.425,5.422 7.581,5.314C7.728,5.213 7.868,5.183 8.058,5.252C8.353,5.359 8.659,5.435 8.981,5.468C9.293,5.5 9.602,5.507 9.913,5.51C10.007,5.51 10.051,5.549 10.029,5.635C9.95,5.951 9.898,6.272 9.793,6.582C9.765,6.665 9.706,6.717 9.65,6.773C8.883,7.541 8.131,8.326 7.338,9.068C7,9.383 6.757,9.739 6.553,10.142C6.401,10.443 6.227,10.733 6.056,11.024C6.01,11.101 5.929,11.145 5.849,11.193C5.481,11.417 5.141,11.667 4.873,12.021C4.662,12.299 4.418,12.556 4.201,12.832C3.911,13.202 3.62,13.572 3.34,13.949C3.18,14.164 3.04,14.393 2.891,14.616C2.87,14.647 2.838,14.649 2.813,14.638C2.781,14.623 2.783,14.586 2.793,14.558C3.053,13.84 3.45,13.202 3.93,12.612C4.125,12.372 4.288,12.111 4.427,11.835C4.664,11.363 4.905,10.894 5.142,10.422C5.191,10.324 5.236,10.227 5.303,10.137C5.377,10.037 5.334,9.913 5.222,9.907C5.048,9.897 4.893,9.843 4.735,9.781C4.649,9.748 4.58,9.776 4.519,9.879C4.356,10.152 4.169,10.411 3.985,10.671C3.818,10.907 3.644,11.138 3.468,11.368C3.259,11.641 3.028,11.894 2.775,12.127C2.745,12.155 2.716,12.183 2.682,12.205C2.669,12.213 2.643,12.207 2.626,12.2C2.605,12.192 2.614,12.177 2.626,12.153C2.748,11.915 2.854,11.667 2.991,11.437C3.123,11.214 3.248,10.991 3.336,10.746C3.375,10.636 3.455,10.541 3.513,10.436C3.656,10.175 3.837,9.937 3.968,9.667C4.042,9.516 4.181,9.4 4.282,9.265C4.465,9.021 4.717,8.985 4.958,9.061C5.14,9.118 5.27,9.062 5.41,9.004C5.621,8.918 5.818,8.795 6.057,8.801C6.116,8.803 6.147,8.758 6.176,8.717C6.262,8.596 6.358,8.479 6.427,8.348C6.525,8.158 6.687,8.048 6.862,7.95C7.131,7.799 7.397,7.643 7.647,7.463C7.791,7.359 7.941,7.259 8.041,7.108C8.1,7.019 8.081,6.978 7.978,6.979C7.524,6.984 7.097,6.838 6.669,6.719C6.5,6.672 6.36,6.65 6.217,6.744C6.076,6.838 5.926,6.862 5.76,6.86C5.131,6.851 4.502,6.854 3.872,6.848C3.619,6.845 3.367,6.817 3.119,6.908C3.04,6.936 2.936,6.938 2.853,6.889C2.777,6.844 2.697,6.855 2.618,6.854C2.535,6.852 2.519,6.886 2.56,6.97C2.612,7.077 2.647,7.204 2.727,7.285C2.899,7.459 2.879,7.687 2.936,7.894C2.956,7.968 2.903,8.023 2.866,8.075C2.651,8.375 2.432,8.672 2.215,8.97C2.079,9.155 1.929,9.332 1.811,9.527C1.686,9.734 1.511,9.9 1.382,10.103C1.35,10.153 1.305,10.203 1.254,10.231C0.955,10.396 0.83,10.684 0.684,10.972C0.489,11.357 0.267,11.731 0,12.078" style="fill:rgb(227,193,74);fill-rule:nonzero;"/>
    </g>
    <g transform="matrix(1,0,0,1,7.89973,4.509)">
        <path d="M0,2.792C0.051,2.571 0.105,2.332 0.179,2.096C0.375,1.468 0.657,0.881 0.976,0.309C1.048,0.18 1.091,0.036 1.157,-0.096C1.224,-0.229 1.313,-0.243 1.374,-0.119C1.47,0.078 1.666,0.15 1.816,0.278C1.954,0.395 1.956,0.376 1.866,0.523C1.439,1.219 0.942,1.866 0.496,2.549C0.43,2.651 0.38,2.758 0.32,2.861C0.289,2.913 0.268,2.957 0.205,2.984C0.085,3.035 0.011,3.001 0,2.874C-0.001,2.853 0,2.833 0,2.792" style="fill:rgb(227,193,74);fill-rule:nonzero;"/>
    </g>
</svg>
