
<?xml version="1.0" encoding="UTF-8" standalone="no"?>
<!DOCTYPE svg PUBLIC "-//W3C//DTD SVG 1.1//EN" "http://www.w3.org/Graphics/SVG/1.1/DTD/svg11.dtd">
<svg width="100%" height="100%" viewBox="0 0 17 17" version="1.1" xmlns="http://www.w3.org/2000/svg" xmlns:xlink="http://www.w3.org/1999/xlink" xml:space="preserve" xmlns:serif="http://www.serif.com/" style="fill-rule:evenodd;clip-rule:evenodd;stroke-linejoin:round;stroke-miterlimit:2;">
    <g transform="matrix(1,0,0,1,6.96787,6.22255)">
        <path d="M0,4.255C0.116,4.153 0.176,4.1 0.206,4.001C0.275,3.775 0.362,3.552 0.462,3.338C0.514,3.227 0.54,3.103 0.552,2.997C0.575,2.788 0.644,2.587 0.635,2.371C0.63,2.226 0.671,2.077 0.707,1.933C0.759,1.723 0.79,1.518 0.758,1.298C0.722,1.06 0.796,0.821 0.838,0.587C0.933,0.053 1.051,-0.478 1.186,-1.003C1.292,-1.411 1.322,-1.825 1.37,-2.24C1.432,-2.769 1.448,-3.299 1.497,-3.827C1.563,-4.535 1.512,-5.24 1.544,-5.946C1.548,-6.038 1.541,-6.125 1.626,-6.193C1.687,-6.242 1.77,-6.231 1.782,-6.153C1.807,-5.995 1.827,-5.837 1.839,-5.678C1.849,-5.557 1.84,-5.434 1.845,-5.313C1.86,-4.933 1.887,-4.555 1.963,-4.182C1.965,-4.173 1.965,-4.162 1.964,-4.152C1.934,-3.828 2.023,-3.513 2.041,-3.192C2.057,-2.917 2.058,-2.634 2.144,-2.365C2.153,-2.338 2.15,-2.305 2.148,-2.275C2.116,-1.941 2.194,-1.613 2.227,-1.285C2.264,-0.913 2.29,-0.536 2.378,-0.165C2.423,0.022 2.447,0.227 2.463,0.427C2.485,0.701 2.577,0.97 2.608,1.244C2.642,1.541 2.746,1.823 2.766,2.123C2.781,2.338 2.837,2.552 2.887,2.764C2.983,3.171 3.144,3.547 3.358,3.911C3.614,4.345 3.837,4.802 3.94,5.305C4.021,5.705 4.142,6.1 4.103,6.515C4.085,6.709 4.129,6.894 4.188,7.072C4.405,7.725 4.28,8.329 3.949,8.907C3.779,9.205 3.554,9.468 3.317,9.704C2.933,10.087 2.451,10.332 1.928,10.486C1.891,10.497 1.846,10.497 1.807,10.489C1.545,10.433 1.275,10.415 1.015,10.359C0.82,10.317 0.613,10.251 0.451,10.106C0.354,10.019 0.252,9.937 0.145,9.865C-0.256,9.596 -0.487,9.196 -0.624,8.759C-0.727,8.432 -0.751,8.081 -0.671,7.724C-0.569,7.271 -0.44,6.827 -0.298,6.385C-0.292,6.366 -0.285,6.346 -0.287,6.327C-0.29,6.299 -0.3,6.271 -0.308,6.243C-0.324,6.252 -0.342,6.259 -0.358,6.269C-0.511,6.362 -0.662,6.457 -0.815,6.549C-1.119,6.731 -1.43,6.889 -1.8,6.839C-2.178,6.788 -2.538,6.681 -2.841,6.438C-2.99,6.319 -3.151,6.217 -3.295,6.096C-3.451,5.964 -3.512,5.767 -3.574,5.578C-3.667,5.297 -3.728,5.008 -3.789,4.718C-3.813,4.606 -3.808,4.499 -3.818,4.39C-3.825,4.309 -3.813,4.227 -3.822,4.146C-3.886,3.6 -3.695,3.106 -3.507,2.612C-3.397,2.324 -3.246,2.055 -3.113,1.778C-2.751,1.028 -2.488,0.244 -2.293,-0.563C-2.212,-0.899 -2.105,-1.231 -2.066,-1.572C-2.034,-1.85 -1.961,-2.118 -1.93,-2.394C-1.923,-2.457 -1.89,-2.481 -1.832,-2.48C-1.767,-2.48 -1.741,-2.442 -1.747,-2.384C-1.774,-2.11 -1.698,-1.845 -1.674,-1.576C-1.638,-1.169 -1.618,-0.759 -1.558,-0.354C-1.488,0.126 -1.406,0.605 -1.318,1.082C-1.275,1.311 -1.153,1.504 -0.985,1.669C-0.915,1.737 -0.87,1.697 -0.852,1.642C-0.806,1.501 -0.751,1.361 -0.769,1.206C-0.78,1.116 -0.773,1.023 -0.769,0.932C-0.767,0.887 -0.787,0.823 -0.709,0.817C-0.632,0.812 -0.651,0.888 -0.628,0.925C-0.565,1.027 -0.583,1.155 -0.527,1.266C-0.425,1.467 -0.235,1.596 -0.125,1.79C-0.106,1.824 -0.068,1.847 -0.043,1.878C0.124,2.087 0.249,2.305 0.206,2.592C0.183,2.741 0.197,2.896 0.201,3.048C0.205,3.239 0.18,3.422 0.121,3.608C0.062,3.794 0.047,3.993 0,4.255M1.788,4.649L1.788,4.466C1.788,4.404 1.789,4.342 1.699,4.343C1.639,4.343 1.621,4.375 1.598,4.428C1.541,4.563 1.548,4.702 1.54,4.841C1.533,4.969 1.548,5.094 1.502,5.227C1.408,5.505 1.269,5.753 1.089,5.979C0.904,6.212 0.795,6.479 0.757,6.765C0.706,7.155 0.9,7.465 1.177,7.713C1.381,7.896 1.583,8.116 1.907,8.061C1.989,8.047 2.038,8.1 2.09,8.149C2.185,8.24 2.269,8.351 2.381,8.413C2.523,8.493 2.593,8.586 2.575,8.749C2.569,8.807 2.563,8.871 2.618,8.919C2.649,8.947 2.68,8.978 2.723,8.965C2.831,8.931 3.019,8.684 3.005,8.567C2.976,8.338 3.066,8.162 3.215,8C3.561,7.627 3.339,7.077 2.897,6.9C2.636,6.796 2.36,6.807 2.099,6.876C1.963,6.913 1.861,6.887 1.76,6.828C1.683,6.783 1.612,6.715 1.561,6.642C1.465,6.505 1.376,6.369 1.471,6.179C1.513,6.094 1.549,5.999 1.588,5.908C1.638,5.79 1.714,5.668 1.715,5.547C1.715,5.245 1.756,4.948 1.788,4.649M-1.521,4.893C-1.644,4.886 -1.734,4.911 -1.819,4.855C-2.06,4.695 -2.324,4.567 -2.515,4.339C-2.553,4.293 -2.602,4.256 -2.6,4.185C-2.59,3.888 -2.666,3.578 -2.475,3.307C-2.399,3.198 -2.412,3.078 -2.416,2.958C-2.417,2.925 -2.43,2.894 -2.461,2.892C-2.487,2.89 -2.521,2.903 -2.541,2.921C-2.6,2.976 -2.68,3.028 -2.705,3.097C-2.76,3.255 -2.876,3.366 -2.969,3.494C-3.097,3.67 -3.166,3.859 -3.152,4.078C-3.139,4.277 -3.136,4.474 -3.097,4.674C-3.008,5.141 -2.748,5.499 -2.426,5.814C-2.172,6.061 -1.991,6.043 -1.677,5.835C-1.537,5.742 -1.392,5.653 -1.239,5.583C-1.122,5.529 -1.055,5.46 -1.072,5.332C-1.086,5.226 -1.048,5.135 -1.008,5.044C-0.987,4.999 -0.954,4.962 -0.954,4.907C-0.954,4.844 -0.958,4.789 -1.011,4.743C-1.075,4.687 -1.117,4.734 -1.171,4.759C-1.294,4.817 -1.392,4.95 -1.521,4.893M1.586,9.462C1.78,9.468 1.959,9.416 2.136,9.345C2.197,9.32 2.245,9.289 2.27,9.233C2.285,9.201 2.284,9.156 2.255,9.12C2.232,9.09 2.199,9.091 2.172,9.097C2.067,9.122 1.951,9.132 1.861,9.184C1.668,9.294 1.487,9.315 1.301,9.184C1.236,9.139 1.164,9.148 1.097,9.159C1.064,9.165 1.033,9.207 1.013,9.24C1.007,9.252 1.035,9.292 1.056,9.309C1.211,9.435 1.399,9.447 1.586,9.462" style="fill:rgb(178,193,82);fill-rule:nonzero;"/>
    </g>
    <g transform="matrix(1,0,0,1,11.8513,3.57955)">
        <path d="M0,8.263C-0.329,8.262 -0.32,8.261 -0.361,7.93C-0.388,7.705 -0.431,7.48 -0.494,7.263C-0.602,6.895 -0.717,6.527 -0.858,6.171C-0.93,5.99 -1.018,5.809 -1.157,5.655C-1.252,5.551 -1.329,5.427 -1.35,5.262C-1.368,5.121 -1.422,4.977 -1.449,4.832C-1.497,4.565 -1.425,4.31 -1.305,4.08C-1.11,3.702 -0.974,3.299 -0.792,2.915C-0.665,2.647 -0.603,2.348 -0.608,2.05C-0.614,1.751 -0.525,1.485 -0.425,1.212C-0.334,0.963 -0.24,0.713 -0.228,0.439C-0.221,0.287 -0.196,0.131 -0.129,-0.012C-0.127,-0.016 -0.102,-0.016 -0.1,-0.012C-0.029,0.129 -0.006,0.286 0.001,0.436C0.02,0.836 0.124,1.22 0.198,1.609C0.225,1.752 0.285,1.895 0.342,2.026C0.414,2.192 0.436,2.35 0.435,2.521C0.433,2.792 0.525,3.048 0.576,3.31C0.672,3.806 0.919,4.235 1.221,4.631C1.442,4.92 1.563,5.256 1.708,5.581C1.719,5.606 1.718,5.647 1.704,5.669C1.666,5.73 1.639,5.662 1.615,5.648C1.34,5.49 1.075,5.316 0.748,5.274C0.625,5.258 0.573,5.146 0.533,5.042C0.482,4.909 0.383,4.835 0.253,4.798C0.216,4.788 0.169,4.786 0.143,4.827C0,5.053 0.145,5.406 0.419,5.459C0.718,5.517 0.919,5.702 1.093,5.927C1.135,5.982 1.16,6.04 1.231,6.072C1.541,6.21 1.684,6.464 1.577,6.769C1.47,7.072 1.384,7.405 1.048,7.565C1.007,7.585 0.954,7.639 0.997,7.687C1.093,7.795 1.008,7.848 0.944,7.909C0.676,8.16 0.359,8.279 0,8.263" style="fill:rgb(178,193,82);fill-rule:nonzero;"/>
    </g>
</svg>
